G04 #@! TF.GenerationSoftware,KiCad,Pcbnew,8.0.6*
G04 #@! TF.CreationDate,2025-01-19T21:00:29+01:00*
G04 #@! TF.ProjectId,minsync_connect,6d696e73-796e-4635-9f63-6f6e6e656374,rev?*
G04 #@! TF.SameCoordinates,Original*
G04 #@! TF.FileFunction,Copper,L2,Bot*
G04 #@! TF.FilePolarity,Positive*
%FSLAX46Y46*%
G04 Gerber Fmt 4.6, Leading zero omitted, Abs format (unit mm)*
G04 Created by KiCad (PCBNEW 8.0.6) date 2025-01-19 21:00:29*
%MOMM*%
%LPD*%
G01*
G04 APERTURE LIST*
G04 #@! TA.AperFunction,ComponentPad*
%ADD10R,1.700000X1.700000*%
G04 #@! TD*
G04 #@! TA.AperFunction,ComponentPad*
%ADD11C,1.700000*%
G04 #@! TD*
G04 #@! TA.AperFunction,ViaPad*
%ADD12C,0.600000*%
G04 #@! TD*
G04 #@! TA.AperFunction,Conductor*
%ADD13C,0.400000*%
G04 #@! TD*
G04 #@! TA.AperFunction,Conductor*
%ADD14C,0.200000*%
G04 #@! TD*
G04 APERTURE END LIST*
D10*
X148730000Y-36190000D03*
D11*
X151270000Y-36190000D03*
X148730000Y-38730000D03*
X151270000Y-38730000D03*
X148730000Y-41270000D03*
X151270000Y-41270000D03*
X148730000Y-43810000D03*
X151270000Y-43810000D03*
D10*
X161770000Y-43810000D03*
D11*
X159230000Y-43810000D03*
X161770000Y-41270000D03*
X159230000Y-41270000D03*
X161770000Y-38730000D03*
X159230000Y-38730000D03*
X161770000Y-36190000D03*
X159230000Y-36190000D03*
D12*
X153100000Y-41300000D03*
X157300000Y-38800000D03*
D13*
X159230000Y-43810000D02*
X151610000Y-36190000D01*
D14*
X151610000Y-36190000D02*
X151270000Y-36190000D01*
G04 #@! TA.AperFunction,Conductor*
G36*
X154131109Y-34520185D02*
G01*
X154169497Y-34559222D01*
X154198164Y-34605520D01*
X154323077Y-34742544D01*
X154323080Y-34742546D01*
X154471048Y-34854286D01*
X154556116Y-34896645D01*
X154637018Y-34936930D01*
X154637022Y-34936931D01*
X154637029Y-34936935D01*
X154815371Y-34987678D01*
X154999999Y-35004786D01*
X155000000Y-35004786D01*
X155000001Y-35004786D01*
X155092314Y-34996232D01*
X155184629Y-34987678D01*
X155362971Y-34936935D01*
X155528952Y-34854286D01*
X155676920Y-34742546D01*
X155801837Y-34605519D01*
X155830503Y-34559222D01*
X155882531Y-34512587D01*
X155935930Y-34500500D01*
X163375500Y-34500500D01*
X163442539Y-34520185D01*
X163488294Y-34572989D01*
X163499500Y-34624500D01*
X163499500Y-45375500D01*
X163479815Y-45442539D01*
X163427011Y-45488294D01*
X163375500Y-45499500D01*
X155935930Y-45499500D01*
X155868891Y-45479815D01*
X155830503Y-45440778D01*
X155821979Y-45427011D01*
X155801837Y-45394481D01*
X155784383Y-45375335D01*
X155676922Y-45257455D01*
X155528952Y-45145714D01*
X155362981Y-45063069D01*
X155362968Y-45063064D01*
X155184627Y-45012321D01*
X155184628Y-45012321D01*
X155000001Y-44995214D01*
X154999999Y-44995214D01*
X154815371Y-45012321D01*
X154637031Y-45063064D01*
X154637018Y-45063069D01*
X154471047Y-45145714D01*
X154323077Y-45257455D01*
X154198164Y-45394479D01*
X154169497Y-45440778D01*
X154117469Y-45487413D01*
X154064070Y-45499500D01*
X147124500Y-45499500D01*
X147057461Y-45479815D01*
X147011706Y-45427011D01*
X147000500Y-45375500D01*
X147000500Y-38729999D01*
X147374341Y-38729999D01*
X147374341Y-38730000D01*
X147394936Y-38965403D01*
X147394938Y-38965413D01*
X147456094Y-39193655D01*
X147456096Y-39193659D01*
X147456097Y-39193663D01*
X147460000Y-39202032D01*
X147555965Y-39407830D01*
X147555967Y-39407834D01*
X147664281Y-39562521D01*
X147691501Y-39601396D01*
X147691506Y-39601402D01*
X147858597Y-39768493D01*
X147858603Y-39768498D01*
X148044158Y-39898425D01*
X148087783Y-39953002D01*
X148094977Y-40022500D01*
X148063454Y-40084855D01*
X148044158Y-40101575D01*
X147858597Y-40231505D01*
X147691505Y-40398597D01*
X147555965Y-40592169D01*
X147555964Y-40592171D01*
X147456098Y-40806335D01*
X147456094Y-40806344D01*
X147394938Y-41034586D01*
X147394936Y-41034596D01*
X147374341Y-41269999D01*
X147374341Y-41270000D01*
X147394936Y-41505403D01*
X147394938Y-41505413D01*
X147456094Y-41733655D01*
X147456096Y-41733659D01*
X147456097Y-41733663D01*
X147460000Y-41742032D01*
X147555965Y-41947830D01*
X147555967Y-41947834D01*
X147664281Y-42102521D01*
X147691501Y-42141396D01*
X147691506Y-42141402D01*
X147858597Y-42308493D01*
X147858603Y-42308498D01*
X148044158Y-42438425D01*
X148087783Y-42493002D01*
X148094977Y-42562500D01*
X148063454Y-42624855D01*
X148044158Y-42641575D01*
X147858597Y-42771505D01*
X147691505Y-42938597D01*
X147555965Y-43132169D01*
X147555964Y-43132171D01*
X147456098Y-43346335D01*
X147456094Y-43346344D01*
X147394938Y-43574586D01*
X147394936Y-43574596D01*
X147374341Y-43809999D01*
X147374341Y-43810000D01*
X147394936Y-44045403D01*
X147394938Y-44045413D01*
X147456094Y-44273655D01*
X147456096Y-44273659D01*
X147456097Y-44273663D01*
X147536004Y-44445023D01*
X147555965Y-44487830D01*
X147555967Y-44487834D01*
X147664281Y-44642521D01*
X147691505Y-44681401D01*
X147858599Y-44848495D01*
X147935135Y-44902086D01*
X148052165Y-44984032D01*
X148052167Y-44984033D01*
X148052170Y-44984035D01*
X148266337Y-45083903D01*
X148494592Y-45145063D01*
X148665319Y-45160000D01*
X148729999Y-45165659D01*
X148730000Y-45165659D01*
X148730001Y-45165659D01*
X148794681Y-45160000D01*
X148965408Y-45145063D01*
X149193663Y-45083903D01*
X149407830Y-44984035D01*
X149601401Y-44848495D01*
X149768495Y-44681401D01*
X149898425Y-44495842D01*
X149953002Y-44452217D01*
X150022500Y-44445023D01*
X150084855Y-44476546D01*
X150101575Y-44495842D01*
X150231500Y-44681395D01*
X150231505Y-44681401D01*
X150398599Y-44848495D01*
X150475135Y-44902086D01*
X150592165Y-44984032D01*
X150592167Y-44984033D01*
X150592170Y-44984035D01*
X150806337Y-45083903D01*
X151034592Y-45145063D01*
X151205319Y-45160000D01*
X151269999Y-45165659D01*
X151270000Y-45165659D01*
X151270001Y-45165659D01*
X151334681Y-45160000D01*
X151505408Y-45145063D01*
X151733663Y-45083903D01*
X151947830Y-44984035D01*
X152141401Y-44848495D01*
X152308495Y-44681401D01*
X152444035Y-44487830D01*
X152543903Y-44273663D01*
X152605063Y-44045408D01*
X152625659Y-43810000D01*
X152605063Y-43574592D01*
X152543903Y-43346337D01*
X152444035Y-43132171D01*
X152438425Y-43124158D01*
X152308494Y-42938597D01*
X152141402Y-42771506D01*
X152141396Y-42771501D01*
X151955842Y-42641575D01*
X151912217Y-42586998D01*
X151905023Y-42517500D01*
X151936546Y-42455145D01*
X151955842Y-42438425D01*
X152067500Y-42360241D01*
X152141401Y-42308495D01*
X152308495Y-42141401D01*
X152444035Y-41947830D01*
X152543903Y-41733663D01*
X152605063Y-41505408D01*
X152625659Y-41270000D01*
X152623757Y-41248266D01*
X152621539Y-41222918D01*
X152605063Y-41034592D01*
X152543903Y-40806337D01*
X152444035Y-40592171D01*
X152438425Y-40584158D01*
X152308494Y-40398597D01*
X152141402Y-40231506D01*
X152141396Y-40231501D01*
X151955842Y-40101575D01*
X151912217Y-40046998D01*
X151905023Y-39977500D01*
X151936546Y-39915145D01*
X151955842Y-39898425D01*
X151978026Y-39882891D01*
X152141401Y-39768495D01*
X152308495Y-39601401D01*
X152444035Y-39407830D01*
X152543903Y-39193663D01*
X152605063Y-38965408D01*
X152625659Y-38730000D01*
X152605063Y-38494592D01*
X152605062Y-38494591D01*
X152604591Y-38489199D01*
X152605725Y-38489099D01*
X152612832Y-38425330D01*
X152656884Y-38371097D01*
X152723263Y-38349290D01*
X152790895Y-38366832D01*
X152814889Y-38385546D01*
X157867348Y-43438005D01*
X157900833Y-43499328D01*
X157899442Y-43557778D01*
X157894939Y-43574584D01*
X157894936Y-43574597D01*
X157874341Y-43809999D01*
X157874341Y-43810000D01*
X157894936Y-44045403D01*
X157894938Y-44045413D01*
X157956094Y-44273655D01*
X157956096Y-44273659D01*
X157956097Y-44273663D01*
X158036004Y-44445023D01*
X158055965Y-44487830D01*
X158055967Y-44487834D01*
X158164281Y-44642521D01*
X158191505Y-44681401D01*
X158358599Y-44848495D01*
X158435135Y-44902086D01*
X158552165Y-44984032D01*
X158552167Y-44984033D01*
X158552170Y-44984035D01*
X158766337Y-45083903D01*
X158994592Y-45145063D01*
X159165319Y-45160000D01*
X159229999Y-45165659D01*
X159230000Y-45165659D01*
X159230001Y-45165659D01*
X159294681Y-45160000D01*
X159465408Y-45145063D01*
X159693663Y-45083903D01*
X159907830Y-44984035D01*
X160101401Y-44848495D01*
X160223717Y-44726178D01*
X160285036Y-44692696D01*
X160354728Y-44697680D01*
X160410662Y-44739551D01*
X160427577Y-44770528D01*
X160476646Y-44902088D01*
X160476649Y-44902093D01*
X160562809Y-45017187D01*
X160562812Y-45017190D01*
X160677906Y-45103350D01*
X160677913Y-45103354D01*
X160812620Y-45153596D01*
X160812627Y-45153598D01*
X160872155Y-45159999D01*
X160872172Y-45160000D01*
X161520000Y-45160000D01*
X161520000Y-44243012D01*
X161577007Y-44275925D01*
X161704174Y-44310000D01*
X161835826Y-44310000D01*
X161962993Y-44275925D01*
X162020000Y-44243012D01*
X162020000Y-45160000D01*
X162667828Y-45160000D01*
X162667844Y-45159999D01*
X162727372Y-45153598D01*
X162727379Y-45153596D01*
X162862086Y-45103354D01*
X162862093Y-45103350D01*
X162977187Y-45017190D01*
X162977190Y-45017187D01*
X163063350Y-44902093D01*
X163063354Y-44902086D01*
X163113596Y-44767379D01*
X163113598Y-44767372D01*
X163119999Y-44707844D01*
X163120000Y-44707827D01*
X163120000Y-44060000D01*
X162203012Y-44060000D01*
X162235925Y-44002993D01*
X162270000Y-43875826D01*
X162270000Y-43744174D01*
X162235925Y-43617007D01*
X162203012Y-43560000D01*
X163120000Y-43560000D01*
X163120000Y-42912172D01*
X163119999Y-42912155D01*
X163113598Y-42852627D01*
X163113596Y-42852620D01*
X163063354Y-42717913D01*
X163063350Y-42717906D01*
X162977190Y-42602812D01*
X162977187Y-42602809D01*
X162862093Y-42516649D01*
X162862088Y-42516646D01*
X162730528Y-42467577D01*
X162674595Y-42425705D01*
X162650178Y-42360241D01*
X162665030Y-42291968D01*
X162686175Y-42263720D01*
X162808495Y-42141401D01*
X162944035Y-41947830D01*
X163043903Y-41733663D01*
X163105063Y-41505408D01*
X163125659Y-41270000D01*
X163123757Y-41248266D01*
X163121539Y-41222918D01*
X163105063Y-41034592D01*
X163043903Y-40806337D01*
X162944035Y-40592171D01*
X162938425Y-40584158D01*
X162808494Y-40398597D01*
X162641402Y-40231506D01*
X162641396Y-40231501D01*
X162455842Y-40101575D01*
X162412217Y-40046998D01*
X162405023Y-39977500D01*
X162436546Y-39915145D01*
X162455842Y-39898425D01*
X162478026Y-39882891D01*
X162641401Y-39768495D01*
X162808495Y-39601401D01*
X162944035Y-39407830D01*
X163043903Y-39193663D01*
X163105063Y-38965408D01*
X163125659Y-38730000D01*
X163105063Y-38494592D01*
X163043903Y-38266337D01*
X162944035Y-38052171D01*
X162938425Y-38044158D01*
X162808494Y-37858597D01*
X162641402Y-37691506D01*
X162641396Y-37691501D01*
X162455842Y-37561575D01*
X162412217Y-37506998D01*
X162405023Y-37437500D01*
X162436546Y-37375145D01*
X162455842Y-37358425D01*
X162564865Y-37282086D01*
X162641401Y-37228495D01*
X162808495Y-37061401D01*
X162944035Y-36867830D01*
X163043903Y-36653663D01*
X163105063Y-36425408D01*
X163125659Y-36190000D01*
X163124122Y-36172438D01*
X163105063Y-35954596D01*
X163105063Y-35954592D01*
X163043903Y-35726337D01*
X162944035Y-35512171D01*
X162938425Y-35504158D01*
X162808494Y-35318597D01*
X162641402Y-35151506D01*
X162641395Y-35151501D01*
X162447834Y-35015967D01*
X162447830Y-35015965D01*
X162447828Y-35015964D01*
X162233663Y-34916097D01*
X162233659Y-34916096D01*
X162233655Y-34916094D01*
X162005413Y-34854938D01*
X162005403Y-34854936D01*
X161770001Y-34834341D01*
X161769999Y-34834341D01*
X161534596Y-34854936D01*
X161534586Y-34854938D01*
X161306344Y-34916094D01*
X161306335Y-34916098D01*
X161092171Y-35015964D01*
X161092169Y-35015965D01*
X160898597Y-35151505D01*
X160731505Y-35318597D01*
X160601575Y-35504158D01*
X160546998Y-35547783D01*
X160477500Y-35554977D01*
X160415145Y-35523454D01*
X160398425Y-35504158D01*
X160268494Y-35318597D01*
X160101402Y-35151506D01*
X160101395Y-35151501D01*
X159907834Y-35015967D01*
X159907830Y-35015965D01*
X159907828Y-35015964D01*
X159693663Y-34916097D01*
X159693659Y-34916096D01*
X159693655Y-34916094D01*
X159465413Y-34854938D01*
X159465403Y-34854936D01*
X159230001Y-34834341D01*
X159229999Y-34834341D01*
X158994596Y-34854936D01*
X158994586Y-34854938D01*
X158766344Y-34916094D01*
X158766335Y-34916098D01*
X158552171Y-35015964D01*
X158552169Y-35015965D01*
X158358597Y-35151505D01*
X158191505Y-35318597D01*
X158055965Y-35512169D01*
X158055964Y-35512171D01*
X157956098Y-35726335D01*
X157956094Y-35726344D01*
X157894938Y-35954586D01*
X157894936Y-35954596D01*
X157874341Y-36189999D01*
X157874341Y-36190000D01*
X157894936Y-36425403D01*
X157894938Y-36425413D01*
X157956094Y-36653655D01*
X157956096Y-36653659D01*
X157956097Y-36653663D01*
X158036004Y-36825023D01*
X158055965Y-36867830D01*
X158055967Y-36867834D01*
X158164281Y-37022521D01*
X158191501Y-37061396D01*
X158191506Y-37061402D01*
X158358597Y-37228493D01*
X158358603Y-37228498D01*
X158544158Y-37358425D01*
X158587783Y-37413002D01*
X158594977Y-37482500D01*
X158563454Y-37544855D01*
X158544158Y-37561575D01*
X158358597Y-37691505D01*
X158191505Y-37858597D01*
X158055965Y-38052169D01*
X158055964Y-38052171D01*
X157956098Y-38266335D01*
X157956094Y-38266344D01*
X157894938Y-38494586D01*
X157894936Y-38494596D01*
X157874341Y-38729999D01*
X157874341Y-38730000D01*
X157894936Y-38965403D01*
X157894938Y-38965413D01*
X157956094Y-39193655D01*
X157956096Y-39193659D01*
X157956097Y-39193663D01*
X157960000Y-39202032D01*
X158055965Y-39407830D01*
X158055967Y-39407834D01*
X158164281Y-39562521D01*
X158191501Y-39601396D01*
X158191506Y-39601402D01*
X158358597Y-39768493D01*
X158358603Y-39768498D01*
X158544158Y-39898425D01*
X158587783Y-39953002D01*
X158594977Y-40022500D01*
X158563454Y-40084855D01*
X158544158Y-40101575D01*
X158358597Y-40231505D01*
X158191505Y-40398597D01*
X158055965Y-40592169D01*
X158055964Y-40592171D01*
X157956098Y-40806335D01*
X157956094Y-40806344D01*
X157894938Y-41034586D01*
X157894936Y-41034596D01*
X157881935Y-41183197D01*
X157856482Y-41248266D01*
X157799891Y-41289244D01*
X157730129Y-41293122D01*
X157670726Y-41260070D01*
X152659969Y-36249312D01*
X152626484Y-36187989D01*
X152624122Y-36172438D01*
X152619899Y-36124174D01*
X152605063Y-35954592D01*
X152543903Y-35726337D01*
X152444035Y-35512171D01*
X152438425Y-35504158D01*
X152308494Y-35318597D01*
X152141402Y-35151506D01*
X152141395Y-35151501D01*
X151947834Y-35015967D01*
X151947830Y-35015965D01*
X151947828Y-35015964D01*
X151733663Y-34916097D01*
X151733659Y-34916096D01*
X151733655Y-34916094D01*
X151505413Y-34854938D01*
X151505403Y-34854936D01*
X151270001Y-34834341D01*
X151269999Y-34834341D01*
X151034596Y-34854936D01*
X151034586Y-34854938D01*
X150806344Y-34916094D01*
X150806335Y-34916098D01*
X150592171Y-35015964D01*
X150592169Y-35015965D01*
X150398600Y-35151503D01*
X150276284Y-35273819D01*
X150214961Y-35307303D01*
X150145269Y-35302319D01*
X150089336Y-35260447D01*
X150072421Y-35229470D01*
X150023354Y-35097913D01*
X150023350Y-35097906D01*
X149937190Y-34982812D01*
X149937187Y-34982809D01*
X149822093Y-34896649D01*
X149822086Y-34896645D01*
X149687379Y-34846403D01*
X149687372Y-34846401D01*
X149627844Y-34840000D01*
X148980000Y-34840000D01*
X148980000Y-35756988D01*
X148922993Y-35724075D01*
X148795826Y-35690000D01*
X148664174Y-35690000D01*
X148537007Y-35724075D01*
X148480000Y-35756988D01*
X148480000Y-34840000D01*
X147832155Y-34840000D01*
X147772627Y-34846401D01*
X147772620Y-34846403D01*
X147637913Y-34896645D01*
X147637906Y-34896649D01*
X147522812Y-34982809D01*
X147522809Y-34982812D01*
X147436649Y-35097906D01*
X147436645Y-35097913D01*
X147386403Y-35232620D01*
X147386401Y-35232627D01*
X147380000Y-35292155D01*
X147380000Y-35940000D01*
X148296988Y-35940000D01*
X148264075Y-35997007D01*
X148230000Y-36124174D01*
X148230000Y-36255826D01*
X148264075Y-36382993D01*
X148296988Y-36440000D01*
X147380000Y-36440000D01*
X147380000Y-37087844D01*
X147386401Y-37147372D01*
X147386403Y-37147379D01*
X147436645Y-37282086D01*
X147436649Y-37282093D01*
X147522809Y-37397187D01*
X147522812Y-37397190D01*
X147637906Y-37483350D01*
X147637913Y-37483354D01*
X147769470Y-37532421D01*
X147825403Y-37574292D01*
X147849821Y-37639756D01*
X147834970Y-37708029D01*
X147813819Y-37736284D01*
X147691503Y-37858600D01*
X147555965Y-38052169D01*
X147555964Y-38052171D01*
X147456098Y-38266335D01*
X147456094Y-38266344D01*
X147394938Y-38494586D01*
X147394936Y-38494596D01*
X147374341Y-38729999D01*
X147000500Y-38729999D01*
X147000500Y-34624500D01*
X147020185Y-34557461D01*
X147072989Y-34511706D01*
X147124500Y-34500500D01*
X154064070Y-34500500D01*
X154131109Y-34520185D01*
G37*
G04 #@! TD.AperFunction*
M02*
