G04 #@! TF.GenerationSoftware,KiCad,Pcbnew,8.0.6*
G04 #@! TF.CreationDate,2025-01-19T21:00:29+01:00*
G04 #@! TF.ProjectId,minsync_connect,6d696e73-796e-4635-9f63-6f6e6e656374,rev?*
G04 #@! TF.SameCoordinates,Original*
G04 #@! TF.FileFunction,Legend,Top*
G04 #@! TF.FilePolarity,Positive*
%FSLAX46Y46*%
G04 Gerber Fmt 4.6, Leading zero omitted, Abs format (unit mm)*
G04 Created by KiCad (PCBNEW 8.0.6) date 2025-01-19 21:00:29*
%MOMM*%
%LPD*%
G01*
G04 APERTURE LIST*
%ADD10C,0.100000*%
%ADD11C,0.150000*%
%ADD12C,0.075000*%
%ADD13C,0.300000*%
%ADD14R,1.700000X1.700000*%
%ADD15C,1.700000*%
G04 APERTURE END LIST*
D10*
X155000000Y-35000000D02*
X155000000Y-45000000D01*
D11*
X155603152Y-40901316D02*
X156269819Y-40734649D01*
X156269819Y-40734649D02*
X155603152Y-40567982D01*
X155269819Y-40167983D02*
X155269819Y-40101316D01*
X155269819Y-40101316D02*
X155317438Y-40034649D01*
X155317438Y-40034649D02*
X155365057Y-40001316D01*
X155365057Y-40001316D02*
X155460295Y-39967983D01*
X155460295Y-39967983D02*
X155650771Y-39934649D01*
X155650771Y-39934649D02*
X155888866Y-39934649D01*
X155888866Y-39934649D02*
X156079342Y-39967983D01*
X156079342Y-39967983D02*
X156174580Y-40001316D01*
X156174580Y-40001316D02*
X156222200Y-40034649D01*
X156222200Y-40034649D02*
X156269819Y-40101316D01*
X156269819Y-40101316D02*
X156269819Y-40167983D01*
X156269819Y-40167983D02*
X156222200Y-40234649D01*
X156222200Y-40234649D02*
X156174580Y-40267983D01*
X156174580Y-40267983D02*
X156079342Y-40301316D01*
X156079342Y-40301316D02*
X155888866Y-40334649D01*
X155888866Y-40334649D02*
X155650771Y-40334649D01*
X155650771Y-40334649D02*
X155460295Y-40301316D01*
X155460295Y-40301316D02*
X155365057Y-40267983D01*
X155365057Y-40267983D02*
X155317438Y-40234649D01*
X155317438Y-40234649D02*
X155269819Y-40167983D01*
X156174580Y-39634649D02*
X156222200Y-39601316D01*
X156222200Y-39601316D02*
X156269819Y-39634649D01*
X156269819Y-39634649D02*
X156222200Y-39667982D01*
X156222200Y-39667982D02*
X156174580Y-39634649D01*
X156174580Y-39634649D02*
X156269819Y-39634649D01*
X156269819Y-38934649D02*
X156269819Y-39334649D01*
X156269819Y-39134649D02*
X155269819Y-39134649D01*
X155269819Y-39134649D02*
X155412676Y-39201316D01*
X155412676Y-39201316D02*
X155507914Y-39267983D01*
X155507914Y-39267983D02*
X155555533Y-39334649D01*
X154669819Y-44534649D02*
X154003152Y-44534649D01*
X154098390Y-44534649D02*
X154050771Y-44501316D01*
X154050771Y-44501316D02*
X154003152Y-44434649D01*
X154003152Y-44434649D02*
X154003152Y-44334649D01*
X154003152Y-44334649D02*
X154050771Y-44267982D01*
X154050771Y-44267982D02*
X154146009Y-44234649D01*
X154146009Y-44234649D02*
X154669819Y-44234649D01*
X154146009Y-44234649D02*
X154050771Y-44201316D01*
X154050771Y-44201316D02*
X154003152Y-44134649D01*
X154003152Y-44134649D02*
X154003152Y-44034649D01*
X154003152Y-44034649D02*
X154050771Y-43967982D01*
X154050771Y-43967982D02*
X154146009Y-43934649D01*
X154146009Y-43934649D02*
X154669819Y-43934649D01*
X154669819Y-43601316D02*
X154003152Y-43601316D01*
X153669819Y-43601316D02*
X153717438Y-43634649D01*
X153717438Y-43634649D02*
X153765057Y-43601316D01*
X153765057Y-43601316D02*
X153717438Y-43567983D01*
X153717438Y-43567983D02*
X153669819Y-43601316D01*
X153669819Y-43601316D02*
X153765057Y-43601316D01*
X154003152Y-43267983D02*
X154669819Y-43267983D01*
X154098390Y-43267983D02*
X154050771Y-43234650D01*
X154050771Y-43234650D02*
X154003152Y-43167983D01*
X154003152Y-43167983D02*
X154003152Y-43067983D01*
X154003152Y-43067983D02*
X154050771Y-43001316D01*
X154050771Y-43001316D02*
X154146009Y-42967983D01*
X154146009Y-42967983D02*
X154669819Y-42967983D01*
X154622200Y-42667983D02*
X154669819Y-42601317D01*
X154669819Y-42601317D02*
X154669819Y-42467983D01*
X154669819Y-42467983D02*
X154622200Y-42401317D01*
X154622200Y-42401317D02*
X154526961Y-42367983D01*
X154526961Y-42367983D02*
X154479342Y-42367983D01*
X154479342Y-42367983D02*
X154384104Y-42401317D01*
X154384104Y-42401317D02*
X154336485Y-42467983D01*
X154336485Y-42467983D02*
X154336485Y-42567983D01*
X154336485Y-42567983D02*
X154288866Y-42634650D01*
X154288866Y-42634650D02*
X154193628Y-42667983D01*
X154193628Y-42667983D02*
X154146009Y-42667983D01*
X154146009Y-42667983D02*
X154050771Y-42634650D01*
X154050771Y-42634650D02*
X154003152Y-42567983D01*
X154003152Y-42567983D02*
X154003152Y-42467983D01*
X154003152Y-42467983D02*
X154050771Y-42401317D01*
X154003152Y-42134650D02*
X154669819Y-41967983D01*
X154003152Y-41801316D02*
X154669819Y-41967983D01*
X154669819Y-41967983D02*
X154907914Y-42034650D01*
X154907914Y-42034650D02*
X154955533Y-42067983D01*
X154955533Y-42067983D02*
X155003152Y-42134650D01*
X154003152Y-41534650D02*
X154669819Y-41534650D01*
X154098390Y-41534650D02*
X154050771Y-41501317D01*
X154050771Y-41501317D02*
X154003152Y-41434650D01*
X154003152Y-41434650D02*
X154003152Y-41334650D01*
X154003152Y-41334650D02*
X154050771Y-41267983D01*
X154050771Y-41267983D02*
X154146009Y-41234650D01*
X154146009Y-41234650D02*
X154669819Y-41234650D01*
X154622200Y-40601317D02*
X154669819Y-40667984D01*
X154669819Y-40667984D02*
X154669819Y-40801317D01*
X154669819Y-40801317D02*
X154622200Y-40867984D01*
X154622200Y-40867984D02*
X154574580Y-40901317D01*
X154574580Y-40901317D02*
X154479342Y-40934650D01*
X154479342Y-40934650D02*
X154193628Y-40934650D01*
X154193628Y-40934650D02*
X154098390Y-40901317D01*
X154098390Y-40901317D02*
X154050771Y-40867984D01*
X154050771Y-40867984D02*
X154003152Y-40801317D01*
X154003152Y-40801317D02*
X154003152Y-40667984D01*
X154003152Y-40667984D02*
X154050771Y-40601317D01*
X154288866Y-40301317D02*
X154288866Y-39767984D01*
X154622200Y-39134650D02*
X154669819Y-39201317D01*
X154669819Y-39201317D02*
X154669819Y-39334650D01*
X154669819Y-39334650D02*
X154622200Y-39401317D01*
X154622200Y-39401317D02*
X154574580Y-39434650D01*
X154574580Y-39434650D02*
X154479342Y-39467983D01*
X154479342Y-39467983D02*
X154193628Y-39467983D01*
X154193628Y-39467983D02*
X154098390Y-39434650D01*
X154098390Y-39434650D02*
X154050771Y-39401317D01*
X154050771Y-39401317D02*
X154003152Y-39334650D01*
X154003152Y-39334650D02*
X154003152Y-39201317D01*
X154003152Y-39201317D02*
X154050771Y-39134650D01*
X154669819Y-38734650D02*
X154622200Y-38801317D01*
X154622200Y-38801317D02*
X154574580Y-38834650D01*
X154574580Y-38834650D02*
X154479342Y-38867983D01*
X154479342Y-38867983D02*
X154193628Y-38867983D01*
X154193628Y-38867983D02*
X154098390Y-38834650D01*
X154098390Y-38834650D02*
X154050771Y-38801317D01*
X154050771Y-38801317D02*
X154003152Y-38734650D01*
X154003152Y-38734650D02*
X154003152Y-38634650D01*
X154003152Y-38634650D02*
X154050771Y-38567983D01*
X154050771Y-38567983D02*
X154098390Y-38534650D01*
X154098390Y-38534650D02*
X154193628Y-38501317D01*
X154193628Y-38501317D02*
X154479342Y-38501317D01*
X154479342Y-38501317D02*
X154574580Y-38534650D01*
X154574580Y-38534650D02*
X154622200Y-38567983D01*
X154622200Y-38567983D02*
X154669819Y-38634650D01*
X154669819Y-38634650D02*
X154669819Y-38734650D01*
X154003152Y-38201317D02*
X154669819Y-38201317D01*
X154098390Y-38201317D02*
X154050771Y-38167984D01*
X154050771Y-38167984D02*
X154003152Y-38101317D01*
X154003152Y-38101317D02*
X154003152Y-38001317D01*
X154003152Y-38001317D02*
X154050771Y-37934650D01*
X154050771Y-37934650D02*
X154146009Y-37901317D01*
X154146009Y-37901317D02*
X154669819Y-37901317D01*
X154003152Y-37567984D02*
X154669819Y-37567984D01*
X154098390Y-37567984D02*
X154050771Y-37534651D01*
X154050771Y-37534651D02*
X154003152Y-37467984D01*
X154003152Y-37467984D02*
X154003152Y-37367984D01*
X154003152Y-37367984D02*
X154050771Y-37301317D01*
X154050771Y-37301317D02*
X154146009Y-37267984D01*
X154146009Y-37267984D02*
X154669819Y-37267984D01*
X154622200Y-36667984D02*
X154669819Y-36734651D01*
X154669819Y-36734651D02*
X154669819Y-36867984D01*
X154669819Y-36867984D02*
X154622200Y-36934651D01*
X154622200Y-36934651D02*
X154526961Y-36967984D01*
X154526961Y-36967984D02*
X154146009Y-36967984D01*
X154146009Y-36967984D02*
X154050771Y-36934651D01*
X154050771Y-36934651D02*
X154003152Y-36867984D01*
X154003152Y-36867984D02*
X154003152Y-36734651D01*
X154003152Y-36734651D02*
X154050771Y-36667984D01*
X154050771Y-36667984D02*
X154146009Y-36634651D01*
X154146009Y-36634651D02*
X154241247Y-36634651D01*
X154241247Y-36634651D02*
X154336485Y-36967984D01*
X154622200Y-36034651D02*
X154669819Y-36101318D01*
X154669819Y-36101318D02*
X154669819Y-36234651D01*
X154669819Y-36234651D02*
X154622200Y-36301318D01*
X154622200Y-36301318D02*
X154574580Y-36334651D01*
X154574580Y-36334651D02*
X154479342Y-36367984D01*
X154479342Y-36367984D02*
X154193628Y-36367984D01*
X154193628Y-36367984D02*
X154098390Y-36334651D01*
X154098390Y-36334651D02*
X154050771Y-36301318D01*
X154050771Y-36301318D02*
X154003152Y-36234651D01*
X154003152Y-36234651D02*
X154003152Y-36101318D01*
X154003152Y-36101318D02*
X154050771Y-36034651D01*
X154003152Y-35834651D02*
X154003152Y-35567984D01*
X153669819Y-35734651D02*
X154526961Y-35734651D01*
X154526961Y-35734651D02*
X154622200Y-35701318D01*
X154622200Y-35701318D02*
X154669819Y-35634651D01*
X154669819Y-35634651D02*
X154669819Y-35567984D01*
D12*
X147800614Y-43376667D02*
X147800614Y-43576667D01*
X147500614Y-43476667D02*
X147800614Y-43476667D01*
X147800614Y-43660001D02*
X147500614Y-43893334D01*
X147800614Y-43893334D02*
X147500614Y-43660001D01*
X147800614Y-44093334D02*
X147800614Y-44126667D01*
X147800614Y-44126667D02*
X147786328Y-44160000D01*
X147786328Y-44160000D02*
X147772042Y-44176667D01*
X147772042Y-44176667D02*
X147743471Y-44193334D01*
X147743471Y-44193334D02*
X147686328Y-44210000D01*
X147686328Y-44210000D02*
X147614900Y-44210000D01*
X147614900Y-44210000D02*
X147557757Y-44193334D01*
X147557757Y-44193334D02*
X147529185Y-44176667D01*
X147529185Y-44176667D02*
X147514900Y-44160000D01*
X147514900Y-44160000D02*
X147500614Y-44126667D01*
X147500614Y-44126667D02*
X147500614Y-44093334D01*
X147500614Y-44093334D02*
X147514900Y-44060000D01*
X147514900Y-44060000D02*
X147529185Y-44043334D01*
X147529185Y-44043334D02*
X147557757Y-44026667D01*
X147557757Y-44026667D02*
X147614900Y-44010000D01*
X147614900Y-44010000D02*
X147686328Y-44010000D01*
X147686328Y-44010000D02*
X147743471Y-44026667D01*
X147743471Y-44026667D02*
X147772042Y-44043334D01*
X147772042Y-44043334D02*
X147786328Y-44060000D01*
X147786328Y-44060000D02*
X147800614Y-44093334D01*
X152499385Y-38954999D02*
X152356528Y-39071666D01*
X152499385Y-39154999D02*
X152199385Y-39154999D01*
X152199385Y-39154999D02*
X152199385Y-39021666D01*
X152199385Y-39021666D02*
X152213671Y-38988333D01*
X152213671Y-38988333D02*
X152227957Y-38971666D01*
X152227957Y-38971666D02*
X152256528Y-38954999D01*
X152256528Y-38954999D02*
X152299385Y-38954999D01*
X152299385Y-38954999D02*
X152327957Y-38971666D01*
X152327957Y-38971666D02*
X152342242Y-38988333D01*
X152342242Y-38988333D02*
X152356528Y-39021666D01*
X152356528Y-39021666D02*
X152356528Y-39154999D01*
X152199385Y-38838333D02*
X152499385Y-38604999D01*
X152199385Y-38604999D02*
X152499385Y-38838333D01*
X152199385Y-38405000D02*
X152199385Y-38371666D01*
X152199385Y-38371666D02*
X152213671Y-38338333D01*
X152213671Y-38338333D02*
X152227957Y-38321666D01*
X152227957Y-38321666D02*
X152256528Y-38305000D01*
X152256528Y-38305000D02*
X152313671Y-38288333D01*
X152313671Y-38288333D02*
X152385100Y-38288333D01*
X152385100Y-38288333D02*
X152442242Y-38305000D01*
X152442242Y-38305000D02*
X152470814Y-38321666D01*
X152470814Y-38321666D02*
X152485100Y-38338333D01*
X152485100Y-38338333D02*
X152499385Y-38371666D01*
X152499385Y-38371666D02*
X152499385Y-38405000D01*
X152499385Y-38405000D02*
X152485100Y-38438333D01*
X152485100Y-38438333D02*
X152470814Y-38455000D01*
X152470814Y-38455000D02*
X152442242Y-38471666D01*
X152442242Y-38471666D02*
X152385100Y-38488333D01*
X152385100Y-38488333D02*
X152313671Y-38488333D01*
X152313671Y-38488333D02*
X152256528Y-38471666D01*
X152256528Y-38471666D02*
X152227957Y-38455000D01*
X152227957Y-38455000D02*
X152213671Y-38438333D01*
X152213671Y-38438333D02*
X152199385Y-38405000D01*
X147800614Y-40836667D02*
X147800614Y-41036667D01*
X147500614Y-40936667D02*
X147800614Y-40936667D01*
X147800614Y-41120001D02*
X147500614Y-41353334D01*
X147800614Y-41353334D02*
X147500614Y-41120001D01*
X147500614Y-41670000D02*
X147500614Y-41470000D01*
X147500614Y-41570000D02*
X147800614Y-41570000D01*
X147800614Y-41570000D02*
X147757757Y-41536667D01*
X147757757Y-41536667D02*
X147729185Y-41503334D01*
X147729185Y-41503334D02*
X147714900Y-41470000D01*
X152499385Y-44034999D02*
X152356528Y-44151666D01*
X152499385Y-44234999D02*
X152199385Y-44234999D01*
X152199385Y-44234999D02*
X152199385Y-44101666D01*
X152199385Y-44101666D02*
X152213671Y-44068333D01*
X152213671Y-44068333D02*
X152227957Y-44051666D01*
X152227957Y-44051666D02*
X152256528Y-44034999D01*
X152256528Y-44034999D02*
X152299385Y-44034999D01*
X152299385Y-44034999D02*
X152327957Y-44051666D01*
X152327957Y-44051666D02*
X152342242Y-44068333D01*
X152342242Y-44068333D02*
X152356528Y-44101666D01*
X152356528Y-44101666D02*
X152356528Y-44234999D01*
X152199385Y-43918333D02*
X152499385Y-43684999D01*
X152199385Y-43684999D02*
X152499385Y-43918333D01*
X152227957Y-43568333D02*
X152213671Y-43551666D01*
X152213671Y-43551666D02*
X152199385Y-43518333D01*
X152199385Y-43518333D02*
X152199385Y-43435000D01*
X152199385Y-43435000D02*
X152213671Y-43401666D01*
X152213671Y-43401666D02*
X152227957Y-43385000D01*
X152227957Y-43385000D02*
X152256528Y-43368333D01*
X152256528Y-43368333D02*
X152285100Y-43368333D01*
X152285100Y-43368333D02*
X152327957Y-43385000D01*
X152327957Y-43385000D02*
X152499385Y-43585000D01*
X152499385Y-43585000D02*
X152499385Y-43368333D01*
X152499385Y-41494999D02*
X152356528Y-41611666D01*
X152499385Y-41694999D02*
X152199385Y-41694999D01*
X152199385Y-41694999D02*
X152199385Y-41561666D01*
X152199385Y-41561666D02*
X152213671Y-41528333D01*
X152213671Y-41528333D02*
X152227957Y-41511666D01*
X152227957Y-41511666D02*
X152256528Y-41494999D01*
X152256528Y-41494999D02*
X152299385Y-41494999D01*
X152299385Y-41494999D02*
X152327957Y-41511666D01*
X152327957Y-41511666D02*
X152342242Y-41528333D01*
X152342242Y-41528333D02*
X152356528Y-41561666D01*
X152356528Y-41561666D02*
X152356528Y-41694999D01*
X152199385Y-41378333D02*
X152499385Y-41144999D01*
X152199385Y-41144999D02*
X152499385Y-41378333D01*
X152499385Y-40828333D02*
X152499385Y-41028333D01*
X152499385Y-40928333D02*
X152199385Y-40928333D01*
X152199385Y-40928333D02*
X152242242Y-40961666D01*
X152242242Y-40961666D02*
X152270814Y-40995000D01*
X152270814Y-40995000D02*
X152285100Y-41028333D01*
X147800614Y-38296667D02*
X147800614Y-38496667D01*
X147500614Y-38396667D02*
X147800614Y-38396667D01*
X147800614Y-38580001D02*
X147500614Y-38813334D01*
X147800614Y-38813334D02*
X147500614Y-38580001D01*
X147772042Y-38930000D02*
X147786328Y-38946667D01*
X147786328Y-38946667D02*
X147800614Y-38980000D01*
X147800614Y-38980000D02*
X147800614Y-39063334D01*
X147800614Y-39063334D02*
X147786328Y-39096667D01*
X147786328Y-39096667D02*
X147772042Y-39113334D01*
X147772042Y-39113334D02*
X147743471Y-39130000D01*
X147743471Y-39130000D02*
X147714900Y-39130000D01*
X147714900Y-39130000D02*
X147672042Y-39113334D01*
X147672042Y-39113334D02*
X147500614Y-38913334D01*
X147500614Y-38913334D02*
X147500614Y-39130000D01*
X162699385Y-36623332D02*
X162699385Y-36423332D01*
X162999385Y-36523332D02*
X162699385Y-36523332D01*
X162699385Y-36339999D02*
X162999385Y-36106665D01*
X162699385Y-36106665D02*
X162999385Y-36339999D01*
X162699385Y-35906666D02*
X162699385Y-35873332D01*
X162699385Y-35873332D02*
X162713671Y-35839999D01*
X162713671Y-35839999D02*
X162727957Y-35823332D01*
X162727957Y-35823332D02*
X162756528Y-35806666D01*
X162756528Y-35806666D02*
X162813671Y-35789999D01*
X162813671Y-35789999D02*
X162885100Y-35789999D01*
X162885100Y-35789999D02*
X162942242Y-35806666D01*
X162942242Y-35806666D02*
X162970814Y-35823332D01*
X162970814Y-35823332D02*
X162985100Y-35839999D01*
X162985100Y-35839999D02*
X162999385Y-35873332D01*
X162999385Y-35873332D02*
X162999385Y-35906666D01*
X162999385Y-35906666D02*
X162985100Y-35939999D01*
X162985100Y-35939999D02*
X162970814Y-35956666D01*
X162970814Y-35956666D02*
X162942242Y-35973332D01*
X162942242Y-35973332D02*
X162885100Y-35989999D01*
X162885100Y-35989999D02*
X162813671Y-35989999D01*
X162813671Y-35989999D02*
X162756528Y-35973332D01*
X162756528Y-35973332D02*
X162727957Y-35956666D01*
X162727957Y-35956666D02*
X162713671Y-35939999D01*
X162713671Y-35939999D02*
X162699385Y-35906666D01*
X162699385Y-41703332D02*
X162699385Y-41503332D01*
X162999385Y-41603332D02*
X162699385Y-41603332D01*
X162699385Y-41419999D02*
X162999385Y-41186665D01*
X162699385Y-41186665D02*
X162999385Y-41419999D01*
X162727957Y-41069999D02*
X162713671Y-41053332D01*
X162713671Y-41053332D02*
X162699385Y-41019999D01*
X162699385Y-41019999D02*
X162699385Y-40936666D01*
X162699385Y-40936666D02*
X162713671Y-40903332D01*
X162713671Y-40903332D02*
X162727957Y-40886666D01*
X162727957Y-40886666D02*
X162756528Y-40869999D01*
X162756528Y-40869999D02*
X162785100Y-40869999D01*
X162785100Y-40869999D02*
X162827957Y-40886666D01*
X162827957Y-40886666D02*
X162999385Y-41086666D01*
X162999385Y-41086666D02*
X162999385Y-40869999D01*
X162699385Y-39163332D02*
X162699385Y-38963332D01*
X162999385Y-39063332D02*
X162699385Y-39063332D01*
X162699385Y-38879999D02*
X162999385Y-38646665D01*
X162699385Y-38646665D02*
X162999385Y-38879999D01*
X162999385Y-38329999D02*
X162999385Y-38529999D01*
X162999385Y-38429999D02*
X162699385Y-38429999D01*
X162699385Y-38429999D02*
X162742242Y-38463332D01*
X162742242Y-38463332D02*
X162770814Y-38496666D01*
X162770814Y-38496666D02*
X162785100Y-38529999D01*
X158000614Y-35965000D02*
X158143471Y-35848333D01*
X158000614Y-35765000D02*
X158300614Y-35765000D01*
X158300614Y-35765000D02*
X158300614Y-35898333D01*
X158300614Y-35898333D02*
X158286328Y-35931667D01*
X158286328Y-35931667D02*
X158272042Y-35948333D01*
X158272042Y-35948333D02*
X158243471Y-35965000D01*
X158243471Y-35965000D02*
X158200614Y-35965000D01*
X158200614Y-35965000D02*
X158172042Y-35948333D01*
X158172042Y-35948333D02*
X158157757Y-35931667D01*
X158157757Y-35931667D02*
X158143471Y-35898333D01*
X158143471Y-35898333D02*
X158143471Y-35765000D01*
X158300614Y-36081667D02*
X158000614Y-36315000D01*
X158300614Y-36315000D02*
X158000614Y-36081667D01*
X158272042Y-36431666D02*
X158286328Y-36448333D01*
X158286328Y-36448333D02*
X158300614Y-36481666D01*
X158300614Y-36481666D02*
X158300614Y-36565000D01*
X158300614Y-36565000D02*
X158286328Y-36598333D01*
X158286328Y-36598333D02*
X158272042Y-36615000D01*
X158272042Y-36615000D02*
X158243471Y-36631666D01*
X158243471Y-36631666D02*
X158214900Y-36631666D01*
X158214900Y-36631666D02*
X158172042Y-36615000D01*
X158172042Y-36615000D02*
X158000614Y-36415000D01*
X158000614Y-36415000D02*
X158000614Y-36631666D01*
X158000614Y-38505000D02*
X158143471Y-38388333D01*
X158000614Y-38305000D02*
X158300614Y-38305000D01*
X158300614Y-38305000D02*
X158300614Y-38438333D01*
X158300614Y-38438333D02*
X158286328Y-38471667D01*
X158286328Y-38471667D02*
X158272042Y-38488333D01*
X158272042Y-38488333D02*
X158243471Y-38505000D01*
X158243471Y-38505000D02*
X158200614Y-38505000D01*
X158200614Y-38505000D02*
X158172042Y-38488333D01*
X158172042Y-38488333D02*
X158157757Y-38471667D01*
X158157757Y-38471667D02*
X158143471Y-38438333D01*
X158143471Y-38438333D02*
X158143471Y-38305000D01*
X158300614Y-38621667D02*
X158000614Y-38855000D01*
X158300614Y-38855000D02*
X158000614Y-38621667D01*
X158000614Y-39171666D02*
X158000614Y-38971666D01*
X158000614Y-39071666D02*
X158300614Y-39071666D01*
X158300614Y-39071666D02*
X158257757Y-39038333D01*
X158257757Y-39038333D02*
X158229185Y-39005000D01*
X158229185Y-39005000D02*
X158214900Y-38971666D01*
X158000614Y-41045000D02*
X158143471Y-40928333D01*
X158000614Y-40845000D02*
X158300614Y-40845000D01*
X158300614Y-40845000D02*
X158300614Y-40978333D01*
X158300614Y-40978333D02*
X158286328Y-41011667D01*
X158286328Y-41011667D02*
X158272042Y-41028333D01*
X158272042Y-41028333D02*
X158243471Y-41045000D01*
X158243471Y-41045000D02*
X158200614Y-41045000D01*
X158200614Y-41045000D02*
X158172042Y-41028333D01*
X158172042Y-41028333D02*
X158157757Y-41011667D01*
X158157757Y-41011667D02*
X158143471Y-40978333D01*
X158143471Y-40978333D02*
X158143471Y-40845000D01*
X158300614Y-41161667D02*
X158000614Y-41395000D01*
X158300614Y-41395000D02*
X158000614Y-41161667D01*
X158300614Y-41595000D02*
X158300614Y-41628333D01*
X158300614Y-41628333D02*
X158286328Y-41661666D01*
X158286328Y-41661666D02*
X158272042Y-41678333D01*
X158272042Y-41678333D02*
X158243471Y-41695000D01*
X158243471Y-41695000D02*
X158186328Y-41711666D01*
X158186328Y-41711666D02*
X158114900Y-41711666D01*
X158114900Y-41711666D02*
X158057757Y-41695000D01*
X158057757Y-41695000D02*
X158029185Y-41678333D01*
X158029185Y-41678333D02*
X158014900Y-41661666D01*
X158014900Y-41661666D02*
X158000614Y-41628333D01*
X158000614Y-41628333D02*
X158000614Y-41595000D01*
X158000614Y-41595000D02*
X158014900Y-41561666D01*
X158014900Y-41561666D02*
X158029185Y-41545000D01*
X158029185Y-41545000D02*
X158057757Y-41528333D01*
X158057757Y-41528333D02*
X158114900Y-41511666D01*
X158114900Y-41511666D02*
X158186328Y-41511666D01*
X158186328Y-41511666D02*
X158243471Y-41528333D01*
X158243471Y-41528333D02*
X158272042Y-41545000D01*
X158272042Y-41545000D02*
X158286328Y-41561666D01*
X158286328Y-41561666D02*
X158300614Y-41595000D01*
D13*
X148730000Y-39746000D02*
X148730000Y-40254000D01*
X148730000Y-42286000D02*
X148730000Y-42794000D01*
D10*
X149746000Y-37206000D02*
X149238000Y-37206000D01*
D13*
X151270000Y-40254000D02*
X151270000Y-39746000D01*
X151270000Y-42794000D02*
X151270000Y-42286000D01*
D10*
X152032000Y-36952000D02*
X152032000Y-37460000D01*
X152286000Y-37206000D02*
X151778000Y-37206000D01*
X158214000Y-42794000D02*
X158722000Y-42794000D01*
X158468000Y-43048000D02*
X158468000Y-42540000D01*
D13*
X159230000Y-37206000D02*
X159230000Y-37714000D01*
X159230000Y-39746000D02*
X159230000Y-40254000D01*
D10*
X160754000Y-42794000D02*
X161262000Y-42794000D01*
D13*
X161770000Y-37714000D02*
X161770000Y-37206000D01*
X161770000Y-40254000D02*
X161770000Y-39746000D01*
%LPC*%
D14*
X148730000Y-36190000D03*
D15*
X151270000Y-36190000D03*
X148730000Y-38730000D03*
X151270000Y-38730000D03*
X148730000Y-41270000D03*
X151270000Y-41270000D03*
X148730000Y-43810000D03*
X151270000Y-43810000D03*
D14*
X161770000Y-43810000D03*
D15*
X159230000Y-43810000D03*
X161770000Y-41270000D03*
X159230000Y-41270000D03*
X161770000Y-38730000D03*
X159230000Y-38730000D03*
X161770000Y-36190000D03*
X159230000Y-36190000D03*
%LPD*%
M02*
