G04 #@! TF.GenerationSoftware,KiCad,Pcbnew,8.0.7*
G04 #@! TF.CreationDate,2025-01-22T20:06:29+01:00*
G04 #@! TF.ProjectId,minsync_connect,6d696e73-796e-4635-9f63-6f6e6e656374,rev?*
G04 #@! TF.SameCoordinates,Original*
G04 #@! TF.FileFunction,Copper,L2,Bot*
G04 #@! TF.FilePolarity,Positive*
%FSLAX46Y46*%
G04 Gerber Fmt 4.6, Leading zero omitted, Abs format (unit mm)*
G04 Created by KiCad (PCBNEW 8.0.7) date 2025-01-22 20:06:29*
%MOMM*%
%LPD*%
G01*
G04 APERTURE LIST*
G04 #@! TA.AperFunction,ComponentPad*
%ADD10R,1.700000X1.700000*%
G04 #@! TD*
G04 #@! TA.AperFunction,ComponentPad*
%ADD11C,1.700000*%
G04 #@! TD*
G04 #@! TA.AperFunction,Conductor*
%ADD12C,0.500000*%
G04 #@! TD*
G04 #@! TA.AperFunction,Conductor*
%ADD13C,0.200000*%
G04 #@! TD*
G04 APERTURE END LIST*
D10*
X148730000Y-36190000D03*
D11*
X151270000Y-36190000D03*
X148730000Y-38730000D03*
X151270000Y-38730000D03*
X148730000Y-41270000D03*
X151270000Y-41270000D03*
X148730000Y-43810000D03*
X151270000Y-43810000D03*
D10*
X161270000Y-43810000D03*
D11*
X158730000Y-43810000D03*
X161270000Y-41270000D03*
X158730000Y-41270000D03*
X161270000Y-38730000D03*
X158730000Y-38730000D03*
X161270000Y-36190000D03*
X158730000Y-36190000D03*
D12*
X159230000Y-43810000D02*
X151610000Y-36190000D01*
D13*
X151610000Y-36190000D02*
X151270000Y-36190000D01*
G04 #@! TA.AperFunction,Conductor*
G36*
X154131109Y-33520185D02*
G01*
X154169497Y-33559222D01*
X154198164Y-33605520D01*
X154323077Y-33742544D01*
X154323080Y-33742546D01*
X154471048Y-33854286D01*
X154556124Y-33896649D01*
X154637018Y-33936930D01*
X154637022Y-33936931D01*
X154637029Y-33936935D01*
X154815371Y-33987678D01*
X154999999Y-34004786D01*
X155000000Y-34004786D01*
X155000001Y-34004786D01*
X155092314Y-33996232D01*
X155184629Y-33987678D01*
X155362971Y-33936935D01*
X155528952Y-33854286D01*
X155676920Y-33742546D01*
X155801837Y-33605519D01*
X155830503Y-33559222D01*
X155882531Y-33512587D01*
X155935930Y-33500500D01*
X163075500Y-33500500D01*
X163142539Y-33520185D01*
X163188294Y-33572989D01*
X163199500Y-33624500D01*
X163199500Y-46375500D01*
X163179815Y-46442539D01*
X163127011Y-46488294D01*
X163075500Y-46499500D01*
X155935930Y-46499500D01*
X155868891Y-46479815D01*
X155830503Y-46440778D01*
X155821979Y-46427011D01*
X155801837Y-46394481D01*
X155784383Y-46375335D01*
X155676922Y-46257455D01*
X155528952Y-46145714D01*
X155362981Y-46063069D01*
X155362968Y-46063064D01*
X155184627Y-46012321D01*
X155184628Y-46012321D01*
X155000001Y-45995214D01*
X154999999Y-45995214D01*
X154815371Y-46012321D01*
X154637031Y-46063064D01*
X154637018Y-46063069D01*
X154471047Y-46145714D01*
X154323077Y-46257455D01*
X154198164Y-46394479D01*
X154169497Y-46440778D01*
X154117469Y-46487413D01*
X154064070Y-46499500D01*
X146924500Y-46499500D01*
X146857461Y-46479815D01*
X146811706Y-46427011D01*
X146800500Y-46375500D01*
X146800500Y-38729999D01*
X147374341Y-38729999D01*
X147374341Y-38730000D01*
X147394936Y-38965403D01*
X147394938Y-38965413D01*
X147456094Y-39193655D01*
X147456096Y-39193659D01*
X147456097Y-39193663D01*
X147460000Y-39202032D01*
X147555965Y-39407830D01*
X147555967Y-39407834D01*
X147664281Y-39562521D01*
X147691501Y-39601396D01*
X147691506Y-39601402D01*
X147858597Y-39768493D01*
X147858603Y-39768498D01*
X148044158Y-39898425D01*
X148087783Y-39953002D01*
X148094977Y-40022500D01*
X148063454Y-40084855D01*
X148044158Y-40101575D01*
X147858597Y-40231505D01*
X147691505Y-40398597D01*
X147555965Y-40592169D01*
X147555964Y-40592171D01*
X147456098Y-40806335D01*
X147456094Y-40806344D01*
X147394938Y-41034586D01*
X147394936Y-41034596D01*
X147374341Y-41269999D01*
X147374341Y-41270000D01*
X147394936Y-41505403D01*
X147394938Y-41505413D01*
X147456094Y-41733655D01*
X147456096Y-41733659D01*
X147456097Y-41733663D01*
X147460000Y-41742032D01*
X147555965Y-41947830D01*
X147555967Y-41947834D01*
X147664281Y-42102521D01*
X147691501Y-42141396D01*
X147691506Y-42141402D01*
X147858597Y-42308493D01*
X147858603Y-42308498D01*
X148044158Y-42438425D01*
X148087783Y-42493002D01*
X148094977Y-42562500D01*
X148063454Y-42624855D01*
X148044158Y-42641575D01*
X147858597Y-42771505D01*
X147691505Y-42938597D01*
X147555965Y-43132169D01*
X147555964Y-43132171D01*
X147456098Y-43346335D01*
X147456094Y-43346344D01*
X147394938Y-43574586D01*
X147394936Y-43574596D01*
X147374341Y-43809999D01*
X147374341Y-43810000D01*
X147394936Y-44045403D01*
X147394938Y-44045413D01*
X147456094Y-44273655D01*
X147456096Y-44273659D01*
X147456097Y-44273663D01*
X147536004Y-44445023D01*
X147555965Y-44487830D01*
X147555967Y-44487834D01*
X147664281Y-44642521D01*
X147691505Y-44681401D01*
X147858599Y-44848495D01*
X147935135Y-44902086D01*
X148052165Y-44984032D01*
X148052167Y-44984033D01*
X148052170Y-44984035D01*
X148266337Y-45083903D01*
X148494592Y-45145063D01*
X148665319Y-45160000D01*
X148729999Y-45165659D01*
X148730000Y-45165659D01*
X148730001Y-45165659D01*
X148794681Y-45160000D01*
X148965408Y-45145063D01*
X149193663Y-45083903D01*
X149407830Y-44984035D01*
X149601401Y-44848495D01*
X149768495Y-44681401D01*
X149898425Y-44495842D01*
X149953002Y-44452217D01*
X150022500Y-44445023D01*
X150084855Y-44476546D01*
X150101575Y-44495842D01*
X150231500Y-44681395D01*
X150231505Y-44681401D01*
X150398599Y-44848495D01*
X150475135Y-44902086D01*
X150592165Y-44984032D01*
X150592167Y-44984033D01*
X150592170Y-44984035D01*
X150806337Y-45083903D01*
X151034592Y-45145063D01*
X151205319Y-45160000D01*
X151269999Y-45165659D01*
X151270000Y-45165659D01*
X151270001Y-45165659D01*
X151334681Y-45160000D01*
X151505408Y-45145063D01*
X151733663Y-45083903D01*
X151947830Y-44984035D01*
X152141401Y-44848495D01*
X152308495Y-44681401D01*
X152444035Y-44487830D01*
X152543903Y-44273663D01*
X152605063Y-44045408D01*
X152625659Y-43810000D01*
X152605063Y-43574592D01*
X152543903Y-43346337D01*
X152444035Y-43132171D01*
X152438425Y-43124158D01*
X152308494Y-42938597D01*
X152141402Y-42771506D01*
X152141396Y-42771501D01*
X151955842Y-42641575D01*
X151912217Y-42586998D01*
X151905023Y-42517500D01*
X151936546Y-42455145D01*
X151955842Y-42438425D01*
X152067500Y-42360241D01*
X152141401Y-42308495D01*
X152308495Y-42141401D01*
X152444035Y-41947830D01*
X152543903Y-41733663D01*
X152605063Y-41505408D01*
X152625659Y-41270000D01*
X152605063Y-41034592D01*
X152543903Y-40806337D01*
X152444035Y-40592171D01*
X152438425Y-40584158D01*
X152308494Y-40398597D01*
X152141402Y-40231506D01*
X152141396Y-40231501D01*
X151955842Y-40101575D01*
X151912217Y-40046998D01*
X151905023Y-39977500D01*
X151936546Y-39915145D01*
X151955842Y-39898425D01*
X151978026Y-39882891D01*
X152141401Y-39768495D01*
X152308495Y-39601401D01*
X152444035Y-39407830D01*
X152543903Y-39193663D01*
X152605063Y-38965408D01*
X152625659Y-38730000D01*
X152610963Y-38562027D01*
X152624729Y-38493528D01*
X152673345Y-38443345D01*
X152741373Y-38427411D01*
X152807217Y-38450786D01*
X152822165Y-38463533D01*
X155119313Y-40760680D01*
X157473847Y-43115214D01*
X157507332Y-43176537D01*
X157502348Y-43246229D01*
X157498548Y-43255299D01*
X157456099Y-43346330D01*
X157456094Y-43346344D01*
X157394938Y-43574586D01*
X157394936Y-43574596D01*
X157374341Y-43809999D01*
X157374341Y-43810000D01*
X157394936Y-44045403D01*
X157394938Y-44045413D01*
X157456094Y-44273655D01*
X157456096Y-44273659D01*
X157456097Y-44273663D01*
X157536004Y-44445023D01*
X157555965Y-44487830D01*
X157555967Y-44487834D01*
X157664281Y-44642521D01*
X157691505Y-44681401D01*
X157858599Y-44848495D01*
X157935135Y-44902086D01*
X158052165Y-44984032D01*
X158052167Y-44984033D01*
X158052170Y-44984035D01*
X158266337Y-45083903D01*
X158494592Y-45145063D01*
X158665319Y-45160000D01*
X158729999Y-45165659D01*
X158730000Y-45165659D01*
X158730001Y-45165659D01*
X158794681Y-45160000D01*
X158965408Y-45145063D01*
X159193663Y-45083903D01*
X159407830Y-44984035D01*
X159601401Y-44848495D01*
X159723717Y-44726178D01*
X159785036Y-44692696D01*
X159854728Y-44697680D01*
X159910662Y-44739551D01*
X159927577Y-44770528D01*
X159976646Y-44902088D01*
X159976649Y-44902093D01*
X160062809Y-45017187D01*
X160062812Y-45017190D01*
X160177906Y-45103350D01*
X160177913Y-45103354D01*
X160312620Y-45153596D01*
X160312627Y-45153598D01*
X160372155Y-45159999D01*
X160372172Y-45160000D01*
X161020000Y-45160000D01*
X161020000Y-44243012D01*
X161077007Y-44275925D01*
X161204174Y-44310000D01*
X161335826Y-44310000D01*
X161462993Y-44275925D01*
X161520000Y-44243012D01*
X161520000Y-45160000D01*
X162167828Y-45160000D01*
X162167844Y-45159999D01*
X162227372Y-45153598D01*
X162227379Y-45153596D01*
X162362086Y-45103354D01*
X162362093Y-45103350D01*
X162477187Y-45017190D01*
X162477190Y-45017187D01*
X162563350Y-44902093D01*
X162563354Y-44902086D01*
X162613596Y-44767379D01*
X162613598Y-44767372D01*
X162619999Y-44707844D01*
X162620000Y-44707827D01*
X162620000Y-44060000D01*
X161703012Y-44060000D01*
X161735925Y-44002993D01*
X161770000Y-43875826D01*
X161770000Y-43744174D01*
X161735925Y-43617007D01*
X161703012Y-43560000D01*
X162620000Y-43560000D01*
X162620000Y-42912172D01*
X162619999Y-42912155D01*
X162613598Y-42852627D01*
X162613596Y-42852620D01*
X162563354Y-42717913D01*
X162563350Y-42717906D01*
X162477190Y-42602812D01*
X162477187Y-42602809D01*
X162362093Y-42516649D01*
X162362088Y-42516646D01*
X162230528Y-42467577D01*
X162174595Y-42425705D01*
X162150178Y-42360241D01*
X162165030Y-42291968D01*
X162186175Y-42263720D01*
X162308495Y-42141401D01*
X162444035Y-41947830D01*
X162543903Y-41733663D01*
X162605063Y-41505408D01*
X162625659Y-41270000D01*
X162605063Y-41034592D01*
X162543903Y-40806337D01*
X162444035Y-40592171D01*
X162438425Y-40584158D01*
X162308494Y-40398597D01*
X162141402Y-40231506D01*
X162141396Y-40231501D01*
X161955842Y-40101575D01*
X161912217Y-40046998D01*
X161905023Y-39977500D01*
X161936546Y-39915145D01*
X161955842Y-39898425D01*
X161978026Y-39882891D01*
X162141401Y-39768495D01*
X162308495Y-39601401D01*
X162444035Y-39407830D01*
X162543903Y-39193663D01*
X162605063Y-38965408D01*
X162625659Y-38730000D01*
X162605063Y-38494592D01*
X162543903Y-38266337D01*
X162444035Y-38052171D01*
X162438425Y-38044158D01*
X162308494Y-37858597D01*
X162141402Y-37691506D01*
X162141396Y-37691501D01*
X161955842Y-37561575D01*
X161912217Y-37506998D01*
X161905023Y-37437500D01*
X161936546Y-37375145D01*
X161955842Y-37358425D01*
X162064865Y-37282086D01*
X162141401Y-37228495D01*
X162308495Y-37061401D01*
X162444035Y-36867830D01*
X162543903Y-36653663D01*
X162605063Y-36425408D01*
X162625659Y-36190000D01*
X162605063Y-35954592D01*
X162543903Y-35726337D01*
X162444035Y-35512171D01*
X162438425Y-35504158D01*
X162308494Y-35318597D01*
X162141402Y-35151506D01*
X162141395Y-35151501D01*
X161947834Y-35015967D01*
X161947830Y-35015965D01*
X161876727Y-34982809D01*
X161733663Y-34916097D01*
X161733659Y-34916096D01*
X161733655Y-34916094D01*
X161505413Y-34854938D01*
X161505403Y-34854936D01*
X161270001Y-34834341D01*
X161269999Y-34834341D01*
X161034596Y-34854936D01*
X161034586Y-34854938D01*
X160806344Y-34916094D01*
X160806335Y-34916098D01*
X160592171Y-35015964D01*
X160592169Y-35015965D01*
X160398597Y-35151505D01*
X160231505Y-35318597D01*
X160101575Y-35504158D01*
X160046998Y-35547783D01*
X159977500Y-35554977D01*
X159915145Y-35523454D01*
X159898425Y-35504158D01*
X159768494Y-35318597D01*
X159601402Y-35151506D01*
X159601395Y-35151501D01*
X159407834Y-35015967D01*
X159407830Y-35015965D01*
X159336727Y-34982809D01*
X159193663Y-34916097D01*
X159193659Y-34916096D01*
X159193655Y-34916094D01*
X158965413Y-34854938D01*
X158965403Y-34854936D01*
X158730001Y-34834341D01*
X158729999Y-34834341D01*
X158494596Y-34854936D01*
X158494586Y-34854938D01*
X158266344Y-34916094D01*
X158266335Y-34916098D01*
X158052171Y-35015964D01*
X158052169Y-35015965D01*
X157858597Y-35151505D01*
X157691505Y-35318597D01*
X157555965Y-35512169D01*
X157555964Y-35512171D01*
X157456098Y-35726335D01*
X157456094Y-35726344D01*
X157394938Y-35954586D01*
X157394936Y-35954596D01*
X157374341Y-36189999D01*
X157374341Y-36190000D01*
X157394936Y-36425403D01*
X157394938Y-36425413D01*
X157456094Y-36653655D01*
X157456096Y-36653659D01*
X157456097Y-36653663D01*
X157536004Y-36825023D01*
X157555965Y-36867830D01*
X157555967Y-36867834D01*
X157664281Y-37022521D01*
X157691501Y-37061396D01*
X157691506Y-37061402D01*
X157858597Y-37228493D01*
X157858603Y-37228498D01*
X158044158Y-37358425D01*
X158087783Y-37413002D01*
X158094977Y-37482500D01*
X158063454Y-37544855D01*
X158044158Y-37561575D01*
X157858597Y-37691505D01*
X157691505Y-37858597D01*
X157555965Y-38052169D01*
X157555964Y-38052171D01*
X157456098Y-38266335D01*
X157456094Y-38266344D01*
X157394938Y-38494586D01*
X157394936Y-38494596D01*
X157374341Y-38729999D01*
X157374341Y-38730000D01*
X157394936Y-38965403D01*
X157394938Y-38965413D01*
X157456094Y-39193655D01*
X157456096Y-39193659D01*
X157456097Y-39193663D01*
X157460000Y-39202032D01*
X157555965Y-39407830D01*
X157555967Y-39407834D01*
X157664281Y-39562521D01*
X157691501Y-39601396D01*
X157691506Y-39601402D01*
X157858597Y-39768493D01*
X157858603Y-39768498D01*
X158044158Y-39898425D01*
X158087783Y-39953002D01*
X158094977Y-40022500D01*
X158063454Y-40084855D01*
X158044158Y-40101575D01*
X157858597Y-40231505D01*
X157691505Y-40398597D01*
X157555965Y-40592169D01*
X157555964Y-40592171D01*
X157477387Y-40760680D01*
X157431214Y-40813119D01*
X157364021Y-40832271D01*
X157297140Y-40812055D01*
X157277324Y-40795956D01*
X152653189Y-36171821D01*
X152619704Y-36110498D01*
X152617342Y-36094947D01*
X152605063Y-35954592D01*
X152543903Y-35726337D01*
X152444035Y-35512171D01*
X152438425Y-35504158D01*
X152308494Y-35318597D01*
X152141402Y-35151506D01*
X152141395Y-35151501D01*
X151947834Y-35015967D01*
X151947830Y-35015965D01*
X151876727Y-34982809D01*
X151733663Y-34916097D01*
X151733659Y-34916096D01*
X151733655Y-34916094D01*
X151505413Y-34854938D01*
X151505403Y-34854936D01*
X151270001Y-34834341D01*
X151269999Y-34834341D01*
X151034596Y-34854936D01*
X151034586Y-34854938D01*
X150806344Y-34916094D01*
X150806335Y-34916098D01*
X150592171Y-35015964D01*
X150592169Y-35015965D01*
X150398600Y-35151503D01*
X150276284Y-35273819D01*
X150214961Y-35307303D01*
X150145269Y-35302319D01*
X150089336Y-35260447D01*
X150072421Y-35229470D01*
X150023354Y-35097913D01*
X150023350Y-35097906D01*
X149937190Y-34982812D01*
X149937187Y-34982809D01*
X149822093Y-34896649D01*
X149822086Y-34896645D01*
X149687379Y-34846403D01*
X149687372Y-34846401D01*
X149627844Y-34840000D01*
X148980000Y-34840000D01*
X148980000Y-35756988D01*
X148922993Y-35724075D01*
X148795826Y-35690000D01*
X148664174Y-35690000D01*
X148537007Y-35724075D01*
X148480000Y-35756988D01*
X148480000Y-34840000D01*
X147832155Y-34840000D01*
X147772627Y-34846401D01*
X147772620Y-34846403D01*
X147637913Y-34896645D01*
X147637906Y-34896649D01*
X147522812Y-34982809D01*
X147522809Y-34982812D01*
X147436649Y-35097906D01*
X147436645Y-35097913D01*
X147386403Y-35232620D01*
X147386401Y-35232627D01*
X147380000Y-35292155D01*
X147380000Y-35940000D01*
X148296988Y-35940000D01*
X148264075Y-35997007D01*
X148230000Y-36124174D01*
X148230000Y-36255826D01*
X148264075Y-36382993D01*
X148296988Y-36440000D01*
X147380000Y-36440000D01*
X147380000Y-37087844D01*
X147386401Y-37147372D01*
X147386403Y-37147379D01*
X147436645Y-37282086D01*
X147436649Y-37282093D01*
X147522809Y-37397187D01*
X147522812Y-37397190D01*
X147637906Y-37483350D01*
X147637913Y-37483354D01*
X147769470Y-37532421D01*
X147825403Y-37574292D01*
X147849821Y-37639756D01*
X147834970Y-37708029D01*
X147813819Y-37736284D01*
X147691503Y-37858600D01*
X147555965Y-38052169D01*
X147555964Y-38052171D01*
X147456098Y-38266335D01*
X147456094Y-38266344D01*
X147394938Y-38494586D01*
X147394936Y-38494596D01*
X147374341Y-38729999D01*
X146800500Y-38729999D01*
X146800500Y-33624500D01*
X146820185Y-33557461D01*
X146872989Y-33511706D01*
X146924500Y-33500500D01*
X154064070Y-33500500D01*
X154131109Y-33520185D01*
G37*
G04 #@! TD.AperFunction*
M02*
