G04 #@! TF.GenerationSoftware,KiCad,Pcbnew,8.0.6*
G04 #@! TF.CreationDate,2025-01-19T21:00:29+01:00*
G04 #@! TF.ProjectId,minsync_connect,6d696e73-796e-4635-9f63-6f6e6e656374,rev?*
G04 #@! TF.SameCoordinates,Original*
G04 #@! TF.FileFunction,Legend,Bot*
G04 #@! TF.FilePolarity,Positive*
%FSLAX46Y46*%
G04 Gerber Fmt 4.6, Leading zero omitted, Abs format (unit mm)*
G04 Created by KiCad (PCBNEW 8.0.6) date 2025-01-19 21:00:29*
%MOMM*%
%LPD*%
G01*
G04 APERTURE LIST*
%ADD10C,0.075000*%
%ADD11C,0.300000*%
%ADD12C,0.100000*%
%ADD13R,1.700000X1.700000*%
%ADD14C,1.700000*%
G04 APERTURE END LIST*
D10*
X152499385Y-43585000D02*
X152356528Y-43468333D01*
X152499385Y-43385000D02*
X152199385Y-43385000D01*
X152199385Y-43385000D02*
X152199385Y-43518333D01*
X152199385Y-43518333D02*
X152213671Y-43551667D01*
X152213671Y-43551667D02*
X152227957Y-43568333D01*
X152227957Y-43568333D02*
X152256528Y-43585000D01*
X152256528Y-43585000D02*
X152299385Y-43585000D01*
X152299385Y-43585000D02*
X152327957Y-43568333D01*
X152327957Y-43568333D02*
X152342242Y-43551667D01*
X152342242Y-43551667D02*
X152356528Y-43518333D01*
X152356528Y-43518333D02*
X152356528Y-43385000D01*
X152199385Y-43701667D02*
X152499385Y-43935000D01*
X152199385Y-43935000D02*
X152499385Y-43701667D01*
X152227957Y-44051666D02*
X152213671Y-44068333D01*
X152213671Y-44068333D02*
X152199385Y-44101666D01*
X152199385Y-44101666D02*
X152199385Y-44185000D01*
X152199385Y-44185000D02*
X152213671Y-44218333D01*
X152213671Y-44218333D02*
X152227957Y-44235000D01*
X152227957Y-44235000D02*
X152256528Y-44251666D01*
X152256528Y-44251666D02*
X152285100Y-44251666D01*
X152285100Y-44251666D02*
X152327957Y-44235000D01*
X152327957Y-44235000D02*
X152499385Y-44035000D01*
X152499385Y-44035000D02*
X152499385Y-44251666D01*
X152499385Y-41045000D02*
X152356528Y-40928333D01*
X152499385Y-40845000D02*
X152199385Y-40845000D01*
X152199385Y-40845000D02*
X152199385Y-40978333D01*
X152199385Y-40978333D02*
X152213671Y-41011667D01*
X152213671Y-41011667D02*
X152227957Y-41028333D01*
X152227957Y-41028333D02*
X152256528Y-41045000D01*
X152256528Y-41045000D02*
X152299385Y-41045000D01*
X152299385Y-41045000D02*
X152327957Y-41028333D01*
X152327957Y-41028333D02*
X152342242Y-41011667D01*
X152342242Y-41011667D02*
X152356528Y-40978333D01*
X152356528Y-40978333D02*
X152356528Y-40845000D01*
X152199385Y-41161667D02*
X152499385Y-41395000D01*
X152199385Y-41395000D02*
X152499385Y-41161667D01*
X152499385Y-41711666D02*
X152499385Y-41511666D01*
X152499385Y-41611666D02*
X152199385Y-41611666D01*
X152199385Y-41611666D02*
X152242242Y-41578333D01*
X152242242Y-41578333D02*
X152270814Y-41545000D01*
X152270814Y-41545000D02*
X152285100Y-41511666D01*
X147800614Y-41703332D02*
X147800614Y-41503332D01*
X147500614Y-41603332D02*
X147800614Y-41603332D01*
X147800614Y-41419999D02*
X147500614Y-41186665D01*
X147800614Y-41186665D02*
X147500614Y-41419999D01*
X147500614Y-40869999D02*
X147500614Y-41069999D01*
X147500614Y-40969999D02*
X147800614Y-40969999D01*
X147800614Y-40969999D02*
X147757757Y-41003332D01*
X147757757Y-41003332D02*
X147729185Y-41036666D01*
X147729185Y-41036666D02*
X147714900Y-41069999D01*
X147800614Y-39163332D02*
X147800614Y-38963332D01*
X147500614Y-39063332D02*
X147800614Y-39063332D01*
X147800614Y-38879999D02*
X147500614Y-38646665D01*
X147800614Y-38646665D02*
X147500614Y-38879999D01*
X147772042Y-38529999D02*
X147786328Y-38513332D01*
X147786328Y-38513332D02*
X147800614Y-38479999D01*
X147800614Y-38479999D02*
X147800614Y-38396666D01*
X147800614Y-38396666D02*
X147786328Y-38363332D01*
X147786328Y-38363332D02*
X147772042Y-38346666D01*
X147772042Y-38346666D02*
X147743471Y-38329999D01*
X147743471Y-38329999D02*
X147714900Y-38329999D01*
X147714900Y-38329999D02*
X147672042Y-38346666D01*
X147672042Y-38346666D02*
X147500614Y-38546666D01*
X147500614Y-38546666D02*
X147500614Y-38329999D01*
X152499385Y-38505000D02*
X152356528Y-38388333D01*
X152499385Y-38305000D02*
X152199385Y-38305000D01*
X152199385Y-38305000D02*
X152199385Y-38438333D01*
X152199385Y-38438333D02*
X152213671Y-38471667D01*
X152213671Y-38471667D02*
X152227957Y-38488333D01*
X152227957Y-38488333D02*
X152256528Y-38505000D01*
X152256528Y-38505000D02*
X152299385Y-38505000D01*
X152299385Y-38505000D02*
X152327957Y-38488333D01*
X152327957Y-38488333D02*
X152342242Y-38471667D01*
X152342242Y-38471667D02*
X152356528Y-38438333D01*
X152356528Y-38438333D02*
X152356528Y-38305000D01*
X152199385Y-38621667D02*
X152499385Y-38855000D01*
X152199385Y-38855000D02*
X152499385Y-38621667D01*
X152199385Y-39055000D02*
X152199385Y-39088333D01*
X152199385Y-39088333D02*
X152213671Y-39121666D01*
X152213671Y-39121666D02*
X152227957Y-39138333D01*
X152227957Y-39138333D02*
X152256528Y-39155000D01*
X152256528Y-39155000D02*
X152313671Y-39171666D01*
X152313671Y-39171666D02*
X152385100Y-39171666D01*
X152385100Y-39171666D02*
X152442242Y-39155000D01*
X152442242Y-39155000D02*
X152470814Y-39138333D01*
X152470814Y-39138333D02*
X152485100Y-39121666D01*
X152485100Y-39121666D02*
X152499385Y-39088333D01*
X152499385Y-39088333D02*
X152499385Y-39055000D01*
X152499385Y-39055000D02*
X152485100Y-39021666D01*
X152485100Y-39021666D02*
X152470814Y-39005000D01*
X152470814Y-39005000D02*
X152442242Y-38988333D01*
X152442242Y-38988333D02*
X152385100Y-38971666D01*
X152385100Y-38971666D02*
X152313671Y-38971666D01*
X152313671Y-38971666D02*
X152256528Y-38988333D01*
X152256528Y-38988333D02*
X152227957Y-39005000D01*
X152227957Y-39005000D02*
X152213671Y-39021666D01*
X152213671Y-39021666D02*
X152199385Y-39055000D01*
X147800614Y-44243332D02*
X147800614Y-44043332D01*
X147500614Y-44143332D02*
X147800614Y-44143332D01*
X147800614Y-43959999D02*
X147500614Y-43726665D01*
X147800614Y-43726665D02*
X147500614Y-43959999D01*
X147800614Y-43526666D02*
X147800614Y-43493332D01*
X147800614Y-43493332D02*
X147786328Y-43459999D01*
X147786328Y-43459999D02*
X147772042Y-43443332D01*
X147772042Y-43443332D02*
X147743471Y-43426666D01*
X147743471Y-43426666D02*
X147686328Y-43409999D01*
X147686328Y-43409999D02*
X147614900Y-43409999D01*
X147614900Y-43409999D02*
X147557757Y-43426666D01*
X147557757Y-43426666D02*
X147529185Y-43443332D01*
X147529185Y-43443332D02*
X147514900Y-43459999D01*
X147514900Y-43459999D02*
X147500614Y-43493332D01*
X147500614Y-43493332D02*
X147500614Y-43526666D01*
X147500614Y-43526666D02*
X147514900Y-43559999D01*
X147514900Y-43559999D02*
X147529185Y-43576666D01*
X147529185Y-43576666D02*
X147557757Y-43593332D01*
X147557757Y-43593332D02*
X147614900Y-43609999D01*
X147614900Y-43609999D02*
X147686328Y-43609999D01*
X147686328Y-43609999D02*
X147743471Y-43593332D01*
X147743471Y-43593332D02*
X147772042Y-43576666D01*
X147772042Y-43576666D02*
X147786328Y-43559999D01*
X147786328Y-43559999D02*
X147800614Y-43526666D01*
X162699385Y-35756667D02*
X162699385Y-35956667D01*
X162999385Y-35856667D02*
X162699385Y-35856667D01*
X162699385Y-36040001D02*
X162999385Y-36273334D01*
X162699385Y-36273334D02*
X162999385Y-36040001D01*
X162699385Y-36473334D02*
X162699385Y-36506667D01*
X162699385Y-36506667D02*
X162713671Y-36540000D01*
X162713671Y-36540000D02*
X162727957Y-36556667D01*
X162727957Y-36556667D02*
X162756528Y-36573334D01*
X162756528Y-36573334D02*
X162813671Y-36590000D01*
X162813671Y-36590000D02*
X162885100Y-36590000D01*
X162885100Y-36590000D02*
X162942242Y-36573334D01*
X162942242Y-36573334D02*
X162970814Y-36556667D01*
X162970814Y-36556667D02*
X162985100Y-36540000D01*
X162985100Y-36540000D02*
X162999385Y-36506667D01*
X162999385Y-36506667D02*
X162999385Y-36473334D01*
X162999385Y-36473334D02*
X162985100Y-36440000D01*
X162985100Y-36440000D02*
X162970814Y-36423334D01*
X162970814Y-36423334D02*
X162942242Y-36406667D01*
X162942242Y-36406667D02*
X162885100Y-36390000D01*
X162885100Y-36390000D02*
X162813671Y-36390000D01*
X162813671Y-36390000D02*
X162756528Y-36406667D01*
X162756528Y-36406667D02*
X162727957Y-36423334D01*
X162727957Y-36423334D02*
X162713671Y-36440000D01*
X162713671Y-36440000D02*
X162699385Y-36473334D01*
X162699385Y-38296667D02*
X162699385Y-38496667D01*
X162999385Y-38396667D02*
X162699385Y-38396667D01*
X162699385Y-38580001D02*
X162999385Y-38813334D01*
X162699385Y-38813334D02*
X162999385Y-38580001D01*
X162999385Y-39130000D02*
X162999385Y-38930000D01*
X162999385Y-39030000D02*
X162699385Y-39030000D01*
X162699385Y-39030000D02*
X162742242Y-38996667D01*
X162742242Y-38996667D02*
X162770814Y-38963334D01*
X162770814Y-38963334D02*
X162785100Y-38930000D01*
X162699385Y-40836667D02*
X162699385Y-41036667D01*
X162999385Y-40936667D02*
X162699385Y-40936667D01*
X162699385Y-41120001D02*
X162999385Y-41353334D01*
X162699385Y-41353334D02*
X162999385Y-41120001D01*
X162727957Y-41470000D02*
X162713671Y-41486667D01*
X162713671Y-41486667D02*
X162699385Y-41520000D01*
X162699385Y-41520000D02*
X162699385Y-41603334D01*
X162699385Y-41603334D02*
X162713671Y-41636667D01*
X162713671Y-41636667D02*
X162727957Y-41653334D01*
X162727957Y-41653334D02*
X162756528Y-41670000D01*
X162756528Y-41670000D02*
X162785100Y-41670000D01*
X162785100Y-41670000D02*
X162827957Y-41653334D01*
X162827957Y-41653334D02*
X162999385Y-41453334D01*
X162999385Y-41453334D02*
X162999385Y-41670000D01*
X158000614Y-36414999D02*
X158143471Y-36531666D01*
X158000614Y-36614999D02*
X158300614Y-36614999D01*
X158300614Y-36614999D02*
X158300614Y-36481666D01*
X158300614Y-36481666D02*
X158286328Y-36448333D01*
X158286328Y-36448333D02*
X158272042Y-36431666D01*
X158272042Y-36431666D02*
X158243471Y-36414999D01*
X158243471Y-36414999D02*
X158200614Y-36414999D01*
X158200614Y-36414999D02*
X158172042Y-36431666D01*
X158172042Y-36431666D02*
X158157757Y-36448333D01*
X158157757Y-36448333D02*
X158143471Y-36481666D01*
X158143471Y-36481666D02*
X158143471Y-36614999D01*
X158300614Y-36298333D02*
X158000614Y-36064999D01*
X158300614Y-36064999D02*
X158000614Y-36298333D01*
X158272042Y-35948333D02*
X158286328Y-35931666D01*
X158286328Y-35931666D02*
X158300614Y-35898333D01*
X158300614Y-35898333D02*
X158300614Y-35815000D01*
X158300614Y-35815000D02*
X158286328Y-35781666D01*
X158286328Y-35781666D02*
X158272042Y-35765000D01*
X158272042Y-35765000D02*
X158243471Y-35748333D01*
X158243471Y-35748333D02*
X158214900Y-35748333D01*
X158214900Y-35748333D02*
X158172042Y-35765000D01*
X158172042Y-35765000D02*
X158000614Y-35965000D01*
X158000614Y-35965000D02*
X158000614Y-35748333D01*
X158000614Y-41494999D02*
X158143471Y-41611666D01*
X158000614Y-41694999D02*
X158300614Y-41694999D01*
X158300614Y-41694999D02*
X158300614Y-41561666D01*
X158300614Y-41561666D02*
X158286328Y-41528333D01*
X158286328Y-41528333D02*
X158272042Y-41511666D01*
X158272042Y-41511666D02*
X158243471Y-41494999D01*
X158243471Y-41494999D02*
X158200614Y-41494999D01*
X158200614Y-41494999D02*
X158172042Y-41511666D01*
X158172042Y-41511666D02*
X158157757Y-41528333D01*
X158157757Y-41528333D02*
X158143471Y-41561666D01*
X158143471Y-41561666D02*
X158143471Y-41694999D01*
X158300614Y-41378333D02*
X158000614Y-41144999D01*
X158300614Y-41144999D02*
X158000614Y-41378333D01*
X158300614Y-40945000D02*
X158300614Y-40911666D01*
X158300614Y-40911666D02*
X158286328Y-40878333D01*
X158286328Y-40878333D02*
X158272042Y-40861666D01*
X158272042Y-40861666D02*
X158243471Y-40845000D01*
X158243471Y-40845000D02*
X158186328Y-40828333D01*
X158186328Y-40828333D02*
X158114900Y-40828333D01*
X158114900Y-40828333D02*
X158057757Y-40845000D01*
X158057757Y-40845000D02*
X158029185Y-40861666D01*
X158029185Y-40861666D02*
X158014900Y-40878333D01*
X158014900Y-40878333D02*
X158000614Y-40911666D01*
X158000614Y-40911666D02*
X158000614Y-40945000D01*
X158000614Y-40945000D02*
X158014900Y-40978333D01*
X158014900Y-40978333D02*
X158029185Y-40995000D01*
X158029185Y-40995000D02*
X158057757Y-41011666D01*
X158057757Y-41011666D02*
X158114900Y-41028333D01*
X158114900Y-41028333D02*
X158186328Y-41028333D01*
X158186328Y-41028333D02*
X158243471Y-41011666D01*
X158243471Y-41011666D02*
X158272042Y-40995000D01*
X158272042Y-40995000D02*
X158286328Y-40978333D01*
X158286328Y-40978333D02*
X158300614Y-40945000D01*
X158000614Y-38954999D02*
X158143471Y-39071666D01*
X158000614Y-39154999D02*
X158300614Y-39154999D01*
X158300614Y-39154999D02*
X158300614Y-39021666D01*
X158300614Y-39021666D02*
X158286328Y-38988333D01*
X158286328Y-38988333D02*
X158272042Y-38971666D01*
X158272042Y-38971666D02*
X158243471Y-38954999D01*
X158243471Y-38954999D02*
X158200614Y-38954999D01*
X158200614Y-38954999D02*
X158172042Y-38971666D01*
X158172042Y-38971666D02*
X158157757Y-38988333D01*
X158157757Y-38988333D02*
X158143471Y-39021666D01*
X158143471Y-39021666D02*
X158143471Y-39154999D01*
X158300614Y-38838333D02*
X158000614Y-38604999D01*
X158300614Y-38604999D02*
X158000614Y-38838333D01*
X158000614Y-38288333D02*
X158000614Y-38488333D01*
X158000614Y-38388333D02*
X158300614Y-38388333D01*
X158300614Y-38388333D02*
X158257757Y-38421666D01*
X158257757Y-38421666D02*
X158229185Y-38455000D01*
X158229185Y-38455000D02*
X158214900Y-38488333D01*
D11*
X148730000Y-40254000D02*
X148730000Y-39746000D01*
X148730000Y-42794000D02*
X148730000Y-42286000D01*
D12*
X149746000Y-37206000D02*
X149238000Y-37206000D01*
D11*
X151270000Y-39746000D02*
X151270000Y-40254000D01*
X151270000Y-42286000D02*
X151270000Y-42794000D01*
D12*
X152032000Y-37206000D02*
X152032000Y-36952000D01*
X152032000Y-37206000D02*
X152032000Y-37460000D01*
X152286000Y-37206000D02*
X151778000Y-37206000D01*
X158214000Y-42794000D02*
X158722000Y-42794000D01*
X158468000Y-42794000D02*
X158468000Y-42540000D01*
X158468000Y-42794000D02*
X158468000Y-43048000D01*
D11*
X159230000Y-37714000D02*
X159230000Y-37206000D01*
X159230000Y-40254000D02*
X159230000Y-39746000D01*
D12*
X160754000Y-42794000D02*
X161262000Y-42794000D01*
D11*
X161770000Y-37206000D02*
X161770000Y-37714000D01*
X161770000Y-39746000D02*
X161770000Y-40254000D01*
%LPC*%
D13*
X148730000Y-36190000D03*
D14*
X151270000Y-36190000D03*
X148730000Y-38730000D03*
X151270000Y-38730000D03*
X148730000Y-41270000D03*
X151270000Y-41270000D03*
X148730000Y-43810000D03*
X151270000Y-43810000D03*
D13*
X161770000Y-43810000D03*
D14*
X159230000Y-43810000D03*
X161770000Y-41270000D03*
X159230000Y-41270000D03*
X161770000Y-38730000D03*
X159230000Y-38730000D03*
X161770000Y-36190000D03*
X159230000Y-36190000D03*
%LPD*%
M02*
