G04 #@! TF.GenerationSoftware,KiCad,Pcbnew,8.0.6*
G04 #@! TF.CreationDate,2025-01-19T20:24:15+01:00*
G04 #@! TF.ProjectId,RP2040_minimal_r2,52503230-3430-45f6-9d69-6e696d616c5f,REV2*
G04 #@! TF.SameCoordinates,Original*
G04 #@! TF.FileFunction,Legend,Bot*
G04 #@! TF.FilePolarity,Positive*
%FSLAX46Y46*%
G04 Gerber Fmt 4.6, Leading zero omitted, Abs format (unit mm)*
G04 Created by KiCad (PCBNEW 8.0.6) date 2025-01-19 20:24:15*
%MOMM*%
%LPD*%
G01*
G04 APERTURE LIST*
G04 Aperture macros list*
%AMRoundRect*
0 Rectangle with rounded corners*
0 $1 Rounding radius*
0 $2 $3 $4 $5 $6 $7 $8 $9 X,Y pos of 4 corners*
0 Add a 4 corners polygon primitive as box body*
4,1,4,$2,$3,$4,$5,$6,$7,$8,$9,$2,$3,0*
0 Add four circle primitives for the rounded corners*
1,1,$1+$1,$2,$3*
1,1,$1+$1,$4,$5*
1,1,$1+$1,$6,$7*
1,1,$1+$1,$8,$9*
0 Add four rect primitives between the rounded corners*
20,1,$1+$1,$2,$3,$4,$5,0*
20,1,$1+$1,$4,$5,$6,$7,0*
20,1,$1+$1,$6,$7,$8,$9,0*
20,1,$1+$1,$8,$9,$2,$3,0*%
%AMHorizOval*
0 Thick line with rounded ends*
0 $1 width*
0 $2 $3 position (X,Y) of the first rounded end (center of the circle)*
0 $4 $5 position (X,Y) of the second rounded end (center of the circle)*
0 Add line between two ends*
20,1,$1,$2,$3,$4,$5,0*
0 Add two circle primitives to create the rounded ends*
1,1,$1,$2,$3*
1,1,$1,$4,$5*%
%AMFreePoly0*
4,1,35,0.536062,0.786062,0.551000,0.750000,0.551000,-0.750000,0.536062,-0.786062,0.500000,-0.801000,0.000000,-0.801000,-0.012285,-0.795911,-0.071157,-0.795911,-0.085525,-0.793845,-0.222076,-0.753750,-0.235281,-0.747720,-0.355003,-0.670779,-0.365973,-0.661273,-0.459170,-0.553718,-0.467018,-0.541506,-0.526137,-0.412052,-0.530227,-0.398124,-0.550481,-0.257258,-0.551000,-0.250000,-0.551000,0.250000,
-0.550481,0.257258,-0.530227,0.398124,-0.526137,0.412052,-0.467018,0.541506,-0.459170,0.553718,-0.365973,0.661273,-0.355003,0.670779,-0.235281,0.747720,-0.222076,0.753750,-0.085525,0.793845,-0.071157,0.795911,-0.012285,0.795911,0.000000,0.801000,0.500000,0.801000,0.536062,0.786062,0.536062,0.786062,$1*%
%AMFreePoly1*
4,1,35,0.012285,0.795911,0.071157,0.795911,0.085525,0.793845,0.222076,0.753750,0.235281,0.747720,0.355003,0.670779,0.365973,0.661273,0.459170,0.553718,0.467018,0.541506,0.526137,0.412052,0.530227,0.398124,0.550481,0.257258,0.551000,0.250000,0.551000,-0.250000,0.550481,-0.257258,0.530227,-0.398124,0.526137,-0.412052,0.467018,-0.541506,0.459170,-0.553718,0.365973,-0.661273,
0.355003,-0.670779,0.235281,-0.747720,0.222076,-0.753750,0.085525,-0.793845,0.071157,-0.795911,0.012285,-0.795911,0.000000,-0.801000,-0.500000,-0.801000,-0.536062,-0.786062,-0.551000,-0.750000,-0.551000,0.750000,-0.536062,0.786062,-0.500000,0.801000,0.000000,0.801000,0.012285,0.795911,0.012285,0.795911,$1*%
G04 Aperture macros list end*
%ADD10C,0.075000*%
%ADD11C,0.100000*%
%ADD12C,0.300000*%
%ADD13C,0.120000*%
%ADD14RoundRect,0.051000X-0.850000X0.850000X-0.850000X-0.850000X0.850000X-0.850000X0.850000X0.850000X0*%
%ADD15C,1.802000*%
%ADD16C,2.802000*%
%ADD17C,1.602000*%
%ADD18RoundRect,0.051000X-0.850000X-0.850000X0.850000X-0.850000X0.850000X0.850000X-0.850000X0.850000X0*%
%ADD19RoundRect,0.051000X0.500000X-0.500000X0.500000X0.500000X-0.500000X0.500000X-0.500000X-0.500000X0*%
%ADD20RoundRect,0.051000X-1.202082X0.000000X0.000000X-1.202082X1.202082X0.000000X0.000000X1.202082X0*%
%ADD21HorizOval,1.802000X0.000000X0.000000X0.000000X0.000000X0*%
%ADD22RoundRect,0.051000X0.850000X-0.850000X0.850000X0.850000X-0.850000X0.850000X-0.850000X-0.850000X0*%
%ADD23RoundRect,0.051000X0.850000X0.850000X-0.850000X0.850000X-0.850000X-0.850000X0.850000X-0.850000X0*%
%ADD24HorizOval,1.802000X0.000000X0.000000X0.000000X0.000000X0*%
%ADD25RoundRect,0.051000X0.000000X1.202082X-1.202082X0.000000X0.000000X-1.202082X1.202082X0.000000X0*%
%ADD26FreePoly0,90.000000*%
%ADD27FreePoly1,90.000000*%
G04 APERTURE END LIST*
D10*
X101045000Y-80000614D02*
X100928333Y-80143471D01*
X100845000Y-80000614D02*
X100845000Y-80300614D01*
X100845000Y-80300614D02*
X100978333Y-80300614D01*
X100978333Y-80300614D02*
X101011667Y-80286328D01*
X101011667Y-80286328D02*
X101028333Y-80272042D01*
X101028333Y-80272042D02*
X101045000Y-80243471D01*
X101045000Y-80243471D02*
X101045000Y-80200614D01*
X101045000Y-80200614D02*
X101028333Y-80172042D01*
X101028333Y-80172042D02*
X101011667Y-80157757D01*
X101011667Y-80157757D02*
X100978333Y-80143471D01*
X100978333Y-80143471D02*
X100845000Y-80143471D01*
X101161667Y-80300614D02*
X101395000Y-80000614D01*
X101395000Y-80300614D02*
X101161667Y-80000614D01*
X101711666Y-80000614D02*
X101511666Y-80000614D01*
X101611666Y-80000614D02*
X101611666Y-80300614D01*
X101611666Y-80300614D02*
X101578333Y-80257757D01*
X101578333Y-80257757D02*
X101545000Y-80229185D01*
X101545000Y-80229185D02*
X101511666Y-80214900D01*
X98505000Y-80000614D02*
X98388333Y-80143471D01*
X98305000Y-80000614D02*
X98305000Y-80300614D01*
X98305000Y-80300614D02*
X98438333Y-80300614D01*
X98438333Y-80300614D02*
X98471667Y-80286328D01*
X98471667Y-80286328D02*
X98488333Y-80272042D01*
X98488333Y-80272042D02*
X98505000Y-80243471D01*
X98505000Y-80243471D02*
X98505000Y-80200614D01*
X98505000Y-80200614D02*
X98488333Y-80172042D01*
X98488333Y-80172042D02*
X98471667Y-80157757D01*
X98471667Y-80157757D02*
X98438333Y-80143471D01*
X98438333Y-80143471D02*
X98305000Y-80143471D01*
X98621667Y-80300614D02*
X98855000Y-80000614D01*
X98855000Y-80300614D02*
X98621667Y-80000614D01*
X99055000Y-80300614D02*
X99088333Y-80300614D01*
X99088333Y-80300614D02*
X99121666Y-80286328D01*
X99121666Y-80286328D02*
X99138333Y-80272042D01*
X99138333Y-80272042D02*
X99155000Y-80243471D01*
X99155000Y-80243471D02*
X99171666Y-80186328D01*
X99171666Y-80186328D02*
X99171666Y-80114900D01*
X99171666Y-80114900D02*
X99155000Y-80057757D01*
X99155000Y-80057757D02*
X99138333Y-80029185D01*
X99138333Y-80029185D02*
X99121666Y-80014900D01*
X99121666Y-80014900D02*
X99088333Y-80000614D01*
X99088333Y-80000614D02*
X99055000Y-80000614D01*
X99055000Y-80000614D02*
X99021666Y-80014900D01*
X99021666Y-80014900D02*
X99005000Y-80029185D01*
X99005000Y-80029185D02*
X98988333Y-80057757D01*
X98988333Y-80057757D02*
X98971666Y-80114900D01*
X98971666Y-80114900D02*
X98971666Y-80186328D01*
X98971666Y-80186328D02*
X98988333Y-80243471D01*
X98988333Y-80243471D02*
X99005000Y-80272042D01*
X99005000Y-80272042D02*
X99021666Y-80286328D01*
X99021666Y-80286328D02*
X99055000Y-80300614D01*
X104243332Y-84699385D02*
X104043332Y-84699385D01*
X104143332Y-84999385D02*
X104143332Y-84699385D01*
X103959999Y-84699385D02*
X103726665Y-84999385D01*
X103726665Y-84699385D02*
X103959999Y-84999385D01*
X103526666Y-84699385D02*
X103493332Y-84699385D01*
X103493332Y-84699385D02*
X103459999Y-84713671D01*
X103459999Y-84713671D02*
X103443332Y-84727957D01*
X103443332Y-84727957D02*
X103426666Y-84756528D01*
X103426666Y-84756528D02*
X103409999Y-84813671D01*
X103409999Y-84813671D02*
X103409999Y-84885100D01*
X103409999Y-84885100D02*
X103426666Y-84942242D01*
X103426666Y-84942242D02*
X103443332Y-84970814D01*
X103443332Y-84970814D02*
X103459999Y-84985100D01*
X103459999Y-84985100D02*
X103493332Y-84999385D01*
X103493332Y-84999385D02*
X103526666Y-84999385D01*
X103526666Y-84999385D02*
X103559999Y-84985100D01*
X103559999Y-84985100D02*
X103576666Y-84970814D01*
X103576666Y-84970814D02*
X103593332Y-84942242D01*
X103593332Y-84942242D02*
X103609999Y-84885100D01*
X103609999Y-84885100D02*
X103609999Y-84813671D01*
X103609999Y-84813671D02*
X103593332Y-84756528D01*
X103593332Y-84756528D02*
X103576666Y-84727957D01*
X103576666Y-84727957D02*
X103559999Y-84713671D01*
X103559999Y-84713671D02*
X103526666Y-84699385D01*
X101703332Y-84699385D02*
X101503332Y-84699385D01*
X101603332Y-84999385D02*
X101603332Y-84699385D01*
X101419999Y-84699385D02*
X101186665Y-84999385D01*
X101186665Y-84699385D02*
X101419999Y-84999385D01*
X100869999Y-84999385D02*
X101069999Y-84999385D01*
X100969999Y-84999385D02*
X100969999Y-84699385D01*
X100969999Y-84699385D02*
X101003332Y-84742242D01*
X101003332Y-84742242D02*
X101036666Y-84770814D01*
X101036666Y-84770814D02*
X101069999Y-84785100D01*
X99163332Y-84699385D02*
X98963332Y-84699385D01*
X99063332Y-84999385D02*
X99063332Y-84699385D01*
X98879999Y-84699385D02*
X98646665Y-84999385D01*
X98646665Y-84699385D02*
X98879999Y-84999385D01*
X98529999Y-84727957D02*
X98513332Y-84713671D01*
X98513332Y-84713671D02*
X98479999Y-84699385D01*
X98479999Y-84699385D02*
X98396666Y-84699385D01*
X98396666Y-84699385D02*
X98363332Y-84713671D01*
X98363332Y-84713671D02*
X98346666Y-84727957D01*
X98346666Y-84727957D02*
X98329999Y-84756528D01*
X98329999Y-84756528D02*
X98329999Y-84785100D01*
X98329999Y-84785100D02*
X98346666Y-84827957D01*
X98346666Y-84827957D02*
X98546666Y-84999385D01*
X98546666Y-84999385D02*
X98329999Y-84999385D01*
X103585000Y-80000614D02*
X103468333Y-80143471D01*
X103385000Y-80000614D02*
X103385000Y-80300614D01*
X103385000Y-80300614D02*
X103518333Y-80300614D01*
X103518333Y-80300614D02*
X103551667Y-80286328D01*
X103551667Y-80286328D02*
X103568333Y-80272042D01*
X103568333Y-80272042D02*
X103585000Y-80243471D01*
X103585000Y-80243471D02*
X103585000Y-80200614D01*
X103585000Y-80200614D02*
X103568333Y-80172042D01*
X103568333Y-80172042D02*
X103551667Y-80157757D01*
X103551667Y-80157757D02*
X103518333Y-80143471D01*
X103518333Y-80143471D02*
X103385000Y-80143471D01*
X103701667Y-80300614D02*
X103935000Y-80000614D01*
X103935000Y-80300614D02*
X103701667Y-80000614D01*
X104051666Y-80272042D02*
X104068333Y-80286328D01*
X104068333Y-80286328D02*
X104101666Y-80300614D01*
X104101666Y-80300614D02*
X104185000Y-80300614D01*
X104185000Y-80300614D02*
X104218333Y-80286328D01*
X104218333Y-80286328D02*
X104235000Y-80272042D01*
X104235000Y-80272042D02*
X104251666Y-80243471D01*
X104251666Y-80243471D02*
X104251666Y-80214900D01*
X104251666Y-80214900D02*
X104235000Y-80172042D01*
X104235000Y-80172042D02*
X104035000Y-80000614D01*
X104035000Y-80000614D02*
X104251666Y-80000614D01*
X80000614Y-96414999D02*
X80143471Y-96531666D01*
X80000614Y-96614999D02*
X80300614Y-96614999D01*
X80300614Y-96614999D02*
X80300614Y-96481666D01*
X80300614Y-96481666D02*
X80286328Y-96448333D01*
X80286328Y-96448333D02*
X80272042Y-96431666D01*
X80272042Y-96431666D02*
X80243471Y-96414999D01*
X80243471Y-96414999D02*
X80200614Y-96414999D01*
X80200614Y-96414999D02*
X80172042Y-96431666D01*
X80172042Y-96431666D02*
X80157757Y-96448333D01*
X80157757Y-96448333D02*
X80143471Y-96481666D01*
X80143471Y-96481666D02*
X80143471Y-96614999D01*
X80300614Y-96298333D02*
X80000614Y-96064999D01*
X80300614Y-96064999D02*
X80000614Y-96298333D01*
X80272042Y-95948333D02*
X80286328Y-95931666D01*
X80286328Y-95931666D02*
X80300614Y-95898333D01*
X80300614Y-95898333D02*
X80300614Y-95815000D01*
X80300614Y-95815000D02*
X80286328Y-95781666D01*
X80286328Y-95781666D02*
X80272042Y-95765000D01*
X80272042Y-95765000D02*
X80243471Y-95748333D01*
X80243471Y-95748333D02*
X80214900Y-95748333D01*
X80214900Y-95748333D02*
X80172042Y-95765000D01*
X80172042Y-95765000D02*
X80000614Y-95965000D01*
X80000614Y-95965000D02*
X80000614Y-95748333D01*
X84699385Y-98296667D02*
X84699385Y-98496667D01*
X84999385Y-98396667D02*
X84699385Y-98396667D01*
X84699385Y-98580001D02*
X84999385Y-98813334D01*
X84699385Y-98813334D02*
X84999385Y-98580001D01*
X84999385Y-99130000D02*
X84999385Y-98930000D01*
X84999385Y-99030000D02*
X84699385Y-99030000D01*
X84699385Y-99030000D02*
X84742242Y-98996667D01*
X84742242Y-98996667D02*
X84770814Y-98963334D01*
X84770814Y-98963334D02*
X84785100Y-98930000D01*
X84699385Y-95756667D02*
X84699385Y-95956667D01*
X84999385Y-95856667D02*
X84699385Y-95856667D01*
X84699385Y-96040001D02*
X84999385Y-96273334D01*
X84699385Y-96273334D02*
X84999385Y-96040001D01*
X84699385Y-96473334D02*
X84699385Y-96506667D01*
X84699385Y-96506667D02*
X84713671Y-96540000D01*
X84713671Y-96540000D02*
X84727957Y-96556667D01*
X84727957Y-96556667D02*
X84756528Y-96573334D01*
X84756528Y-96573334D02*
X84813671Y-96590000D01*
X84813671Y-96590000D02*
X84885100Y-96590000D01*
X84885100Y-96590000D02*
X84942242Y-96573334D01*
X84942242Y-96573334D02*
X84970814Y-96556667D01*
X84970814Y-96556667D02*
X84985100Y-96540000D01*
X84985100Y-96540000D02*
X84999385Y-96506667D01*
X84999385Y-96506667D02*
X84999385Y-96473334D01*
X84999385Y-96473334D02*
X84985100Y-96440000D01*
X84985100Y-96440000D02*
X84970814Y-96423334D01*
X84970814Y-96423334D02*
X84942242Y-96406667D01*
X84942242Y-96406667D02*
X84885100Y-96390000D01*
X84885100Y-96390000D02*
X84813671Y-96390000D01*
X84813671Y-96390000D02*
X84756528Y-96406667D01*
X84756528Y-96406667D02*
X84727957Y-96423334D01*
X84727957Y-96423334D02*
X84713671Y-96440000D01*
X84713671Y-96440000D02*
X84699385Y-96473334D01*
X80000614Y-101494999D02*
X80143471Y-101611666D01*
X80000614Y-101694999D02*
X80300614Y-101694999D01*
X80300614Y-101694999D02*
X80300614Y-101561666D01*
X80300614Y-101561666D02*
X80286328Y-101528333D01*
X80286328Y-101528333D02*
X80272042Y-101511666D01*
X80272042Y-101511666D02*
X80243471Y-101494999D01*
X80243471Y-101494999D02*
X80200614Y-101494999D01*
X80200614Y-101494999D02*
X80172042Y-101511666D01*
X80172042Y-101511666D02*
X80157757Y-101528333D01*
X80157757Y-101528333D02*
X80143471Y-101561666D01*
X80143471Y-101561666D02*
X80143471Y-101694999D01*
X80300614Y-101378333D02*
X80000614Y-101144999D01*
X80300614Y-101144999D02*
X80000614Y-101378333D01*
X80300614Y-100945000D02*
X80300614Y-100911666D01*
X80300614Y-100911666D02*
X80286328Y-100878333D01*
X80286328Y-100878333D02*
X80272042Y-100861666D01*
X80272042Y-100861666D02*
X80243471Y-100845000D01*
X80243471Y-100845000D02*
X80186328Y-100828333D01*
X80186328Y-100828333D02*
X80114900Y-100828333D01*
X80114900Y-100828333D02*
X80057757Y-100845000D01*
X80057757Y-100845000D02*
X80029185Y-100861666D01*
X80029185Y-100861666D02*
X80014900Y-100878333D01*
X80014900Y-100878333D02*
X80000614Y-100911666D01*
X80000614Y-100911666D02*
X80000614Y-100945000D01*
X80000614Y-100945000D02*
X80014900Y-100978333D01*
X80014900Y-100978333D02*
X80029185Y-100995000D01*
X80029185Y-100995000D02*
X80057757Y-101011666D01*
X80057757Y-101011666D02*
X80114900Y-101028333D01*
X80114900Y-101028333D02*
X80186328Y-101028333D01*
X80186328Y-101028333D02*
X80243471Y-101011666D01*
X80243471Y-101011666D02*
X80272042Y-100995000D01*
X80272042Y-100995000D02*
X80286328Y-100978333D01*
X80286328Y-100978333D02*
X80300614Y-100945000D01*
X80000614Y-98954999D02*
X80143471Y-99071666D01*
X80000614Y-99154999D02*
X80300614Y-99154999D01*
X80300614Y-99154999D02*
X80300614Y-99021666D01*
X80300614Y-99021666D02*
X80286328Y-98988333D01*
X80286328Y-98988333D02*
X80272042Y-98971666D01*
X80272042Y-98971666D02*
X80243471Y-98954999D01*
X80243471Y-98954999D02*
X80200614Y-98954999D01*
X80200614Y-98954999D02*
X80172042Y-98971666D01*
X80172042Y-98971666D02*
X80157757Y-98988333D01*
X80157757Y-98988333D02*
X80143471Y-99021666D01*
X80143471Y-99021666D02*
X80143471Y-99154999D01*
X80300614Y-98838333D02*
X80000614Y-98604999D01*
X80300614Y-98604999D02*
X80000614Y-98838333D01*
X80000614Y-98288333D02*
X80000614Y-98488333D01*
X80000614Y-98388333D02*
X80300614Y-98388333D01*
X80300614Y-98388333D02*
X80257757Y-98421666D01*
X80257757Y-98421666D02*
X80229185Y-98455000D01*
X80229185Y-98455000D02*
X80214900Y-98488333D01*
X84699385Y-100836667D02*
X84699385Y-101036667D01*
X84999385Y-100936667D02*
X84699385Y-100936667D01*
X84699385Y-101120001D02*
X84999385Y-101353334D01*
X84699385Y-101353334D02*
X84999385Y-101120001D01*
X84727957Y-101470000D02*
X84713671Y-101486667D01*
X84713671Y-101486667D02*
X84699385Y-101520000D01*
X84699385Y-101520000D02*
X84699385Y-101603334D01*
X84699385Y-101603334D02*
X84713671Y-101636667D01*
X84713671Y-101636667D02*
X84727957Y-101653334D01*
X84727957Y-101653334D02*
X84756528Y-101670000D01*
X84756528Y-101670000D02*
X84785100Y-101670000D01*
X84785100Y-101670000D02*
X84827957Y-101653334D01*
X84827957Y-101653334D02*
X84999385Y-101453334D01*
X84999385Y-101453334D02*
X84999385Y-101670000D01*
X101494999Y-119999385D02*
X101611666Y-119856528D01*
X101694999Y-119999385D02*
X101694999Y-119699385D01*
X101694999Y-119699385D02*
X101561666Y-119699385D01*
X101561666Y-119699385D02*
X101528333Y-119713671D01*
X101528333Y-119713671D02*
X101511666Y-119727957D01*
X101511666Y-119727957D02*
X101494999Y-119756528D01*
X101494999Y-119756528D02*
X101494999Y-119799385D01*
X101494999Y-119799385D02*
X101511666Y-119827957D01*
X101511666Y-119827957D02*
X101528333Y-119842242D01*
X101528333Y-119842242D02*
X101561666Y-119856528D01*
X101561666Y-119856528D02*
X101694999Y-119856528D01*
X101378333Y-119699385D02*
X101144999Y-119999385D01*
X101144999Y-119699385D02*
X101378333Y-119999385D01*
X100945000Y-119699385D02*
X100911666Y-119699385D01*
X100911666Y-119699385D02*
X100878333Y-119713671D01*
X100878333Y-119713671D02*
X100861666Y-119727957D01*
X100861666Y-119727957D02*
X100845000Y-119756528D01*
X100845000Y-119756528D02*
X100828333Y-119813671D01*
X100828333Y-119813671D02*
X100828333Y-119885100D01*
X100828333Y-119885100D02*
X100845000Y-119942242D01*
X100845000Y-119942242D02*
X100861666Y-119970814D01*
X100861666Y-119970814D02*
X100878333Y-119985100D01*
X100878333Y-119985100D02*
X100911666Y-119999385D01*
X100911666Y-119999385D02*
X100945000Y-119999385D01*
X100945000Y-119999385D02*
X100978333Y-119985100D01*
X100978333Y-119985100D02*
X100995000Y-119970814D01*
X100995000Y-119970814D02*
X101011666Y-119942242D01*
X101011666Y-119942242D02*
X101028333Y-119885100D01*
X101028333Y-119885100D02*
X101028333Y-119813671D01*
X101028333Y-119813671D02*
X101011666Y-119756528D01*
X101011666Y-119756528D02*
X100995000Y-119727957D01*
X100995000Y-119727957D02*
X100978333Y-119713671D01*
X100978333Y-119713671D02*
X100945000Y-119699385D01*
X100836667Y-115300614D02*
X101036667Y-115300614D01*
X100936667Y-115000614D02*
X100936667Y-115300614D01*
X101120001Y-115300614D02*
X101353334Y-115000614D01*
X101353334Y-115300614D02*
X101120001Y-115000614D01*
X101470000Y-115272042D02*
X101486667Y-115286328D01*
X101486667Y-115286328D02*
X101520000Y-115300614D01*
X101520000Y-115300614D02*
X101603334Y-115300614D01*
X101603334Y-115300614D02*
X101636667Y-115286328D01*
X101636667Y-115286328D02*
X101653334Y-115272042D01*
X101653334Y-115272042D02*
X101670000Y-115243471D01*
X101670000Y-115243471D02*
X101670000Y-115214900D01*
X101670000Y-115214900D02*
X101653334Y-115172042D01*
X101653334Y-115172042D02*
X101453334Y-115000614D01*
X101453334Y-115000614D02*
X101670000Y-115000614D01*
X96414999Y-119999385D02*
X96531666Y-119856528D01*
X96614999Y-119999385D02*
X96614999Y-119699385D01*
X96614999Y-119699385D02*
X96481666Y-119699385D01*
X96481666Y-119699385D02*
X96448333Y-119713671D01*
X96448333Y-119713671D02*
X96431666Y-119727957D01*
X96431666Y-119727957D02*
X96414999Y-119756528D01*
X96414999Y-119756528D02*
X96414999Y-119799385D01*
X96414999Y-119799385D02*
X96431666Y-119827957D01*
X96431666Y-119827957D02*
X96448333Y-119842242D01*
X96448333Y-119842242D02*
X96481666Y-119856528D01*
X96481666Y-119856528D02*
X96614999Y-119856528D01*
X96298333Y-119699385D02*
X96064999Y-119999385D01*
X96064999Y-119699385D02*
X96298333Y-119999385D01*
X95948333Y-119727957D02*
X95931666Y-119713671D01*
X95931666Y-119713671D02*
X95898333Y-119699385D01*
X95898333Y-119699385D02*
X95815000Y-119699385D01*
X95815000Y-119699385D02*
X95781666Y-119713671D01*
X95781666Y-119713671D02*
X95765000Y-119727957D01*
X95765000Y-119727957D02*
X95748333Y-119756528D01*
X95748333Y-119756528D02*
X95748333Y-119785100D01*
X95748333Y-119785100D02*
X95765000Y-119827957D01*
X95765000Y-119827957D02*
X95965000Y-119999385D01*
X95965000Y-119999385D02*
X95748333Y-119999385D01*
X95756667Y-115300614D02*
X95956667Y-115300614D01*
X95856667Y-115000614D02*
X95856667Y-115300614D01*
X96040001Y-115300614D02*
X96273334Y-115000614D01*
X96273334Y-115300614D02*
X96040001Y-115000614D01*
X96473334Y-115300614D02*
X96506667Y-115300614D01*
X96506667Y-115300614D02*
X96540000Y-115286328D01*
X96540000Y-115286328D02*
X96556667Y-115272042D01*
X96556667Y-115272042D02*
X96573334Y-115243471D01*
X96573334Y-115243471D02*
X96590000Y-115186328D01*
X96590000Y-115186328D02*
X96590000Y-115114900D01*
X96590000Y-115114900D02*
X96573334Y-115057757D01*
X96573334Y-115057757D02*
X96556667Y-115029185D01*
X96556667Y-115029185D02*
X96540000Y-115014900D01*
X96540000Y-115014900D02*
X96506667Y-115000614D01*
X96506667Y-115000614D02*
X96473334Y-115000614D01*
X96473334Y-115000614D02*
X96440000Y-115014900D01*
X96440000Y-115014900D02*
X96423334Y-115029185D01*
X96423334Y-115029185D02*
X96406667Y-115057757D01*
X96406667Y-115057757D02*
X96390000Y-115114900D01*
X96390000Y-115114900D02*
X96390000Y-115186328D01*
X96390000Y-115186328D02*
X96406667Y-115243471D01*
X96406667Y-115243471D02*
X96423334Y-115272042D01*
X96423334Y-115272042D02*
X96440000Y-115286328D01*
X96440000Y-115286328D02*
X96473334Y-115300614D01*
X98954999Y-119999385D02*
X99071666Y-119856528D01*
X99154999Y-119999385D02*
X99154999Y-119699385D01*
X99154999Y-119699385D02*
X99021666Y-119699385D01*
X99021666Y-119699385D02*
X98988333Y-119713671D01*
X98988333Y-119713671D02*
X98971666Y-119727957D01*
X98971666Y-119727957D02*
X98954999Y-119756528D01*
X98954999Y-119756528D02*
X98954999Y-119799385D01*
X98954999Y-119799385D02*
X98971666Y-119827957D01*
X98971666Y-119827957D02*
X98988333Y-119842242D01*
X98988333Y-119842242D02*
X99021666Y-119856528D01*
X99021666Y-119856528D02*
X99154999Y-119856528D01*
X98838333Y-119699385D02*
X98604999Y-119999385D01*
X98604999Y-119699385D02*
X98838333Y-119999385D01*
X98288333Y-119999385D02*
X98488333Y-119999385D01*
X98388333Y-119999385D02*
X98388333Y-119699385D01*
X98388333Y-119699385D02*
X98421666Y-119742242D01*
X98421666Y-119742242D02*
X98455000Y-119770814D01*
X98455000Y-119770814D02*
X98488333Y-119785100D01*
X98296667Y-115300614D02*
X98496667Y-115300614D01*
X98396667Y-115000614D02*
X98396667Y-115300614D01*
X98580001Y-115300614D02*
X98813334Y-115000614D01*
X98813334Y-115300614D02*
X98580001Y-115000614D01*
X99130000Y-115000614D02*
X98930000Y-115000614D01*
X99030000Y-115000614D02*
X99030000Y-115300614D01*
X99030000Y-115300614D02*
X98996667Y-115257757D01*
X98996667Y-115257757D02*
X98963334Y-115229185D01*
X98963334Y-115229185D02*
X98930000Y-115214900D01*
X119999385Y-101045000D02*
X119856528Y-100928333D01*
X119999385Y-100845000D02*
X119699385Y-100845000D01*
X119699385Y-100845000D02*
X119699385Y-100978333D01*
X119699385Y-100978333D02*
X119713671Y-101011667D01*
X119713671Y-101011667D02*
X119727957Y-101028333D01*
X119727957Y-101028333D02*
X119756528Y-101045000D01*
X119756528Y-101045000D02*
X119799385Y-101045000D01*
X119799385Y-101045000D02*
X119827957Y-101028333D01*
X119827957Y-101028333D02*
X119842242Y-101011667D01*
X119842242Y-101011667D02*
X119856528Y-100978333D01*
X119856528Y-100978333D02*
X119856528Y-100845000D01*
X119699385Y-101161667D02*
X119999385Y-101395000D01*
X119699385Y-101395000D02*
X119999385Y-101161667D01*
X119999385Y-101711666D02*
X119999385Y-101511666D01*
X119999385Y-101611666D02*
X119699385Y-101611666D01*
X119699385Y-101611666D02*
X119742242Y-101578333D01*
X119742242Y-101578333D02*
X119770814Y-101545000D01*
X119770814Y-101545000D02*
X119785100Y-101511666D01*
X119999385Y-98505000D02*
X119856528Y-98388333D01*
X119999385Y-98305000D02*
X119699385Y-98305000D01*
X119699385Y-98305000D02*
X119699385Y-98438333D01*
X119699385Y-98438333D02*
X119713671Y-98471667D01*
X119713671Y-98471667D02*
X119727957Y-98488333D01*
X119727957Y-98488333D02*
X119756528Y-98505000D01*
X119756528Y-98505000D02*
X119799385Y-98505000D01*
X119799385Y-98505000D02*
X119827957Y-98488333D01*
X119827957Y-98488333D02*
X119842242Y-98471667D01*
X119842242Y-98471667D02*
X119856528Y-98438333D01*
X119856528Y-98438333D02*
X119856528Y-98305000D01*
X119699385Y-98621667D02*
X119999385Y-98855000D01*
X119699385Y-98855000D02*
X119999385Y-98621667D01*
X119699385Y-99055000D02*
X119699385Y-99088333D01*
X119699385Y-99088333D02*
X119713671Y-99121666D01*
X119713671Y-99121666D02*
X119727957Y-99138333D01*
X119727957Y-99138333D02*
X119756528Y-99155000D01*
X119756528Y-99155000D02*
X119813671Y-99171666D01*
X119813671Y-99171666D02*
X119885100Y-99171666D01*
X119885100Y-99171666D02*
X119942242Y-99155000D01*
X119942242Y-99155000D02*
X119970814Y-99138333D01*
X119970814Y-99138333D02*
X119985100Y-99121666D01*
X119985100Y-99121666D02*
X119999385Y-99088333D01*
X119999385Y-99088333D02*
X119999385Y-99055000D01*
X119999385Y-99055000D02*
X119985100Y-99021666D01*
X119985100Y-99021666D02*
X119970814Y-99005000D01*
X119970814Y-99005000D02*
X119942242Y-98988333D01*
X119942242Y-98988333D02*
X119885100Y-98971666D01*
X119885100Y-98971666D02*
X119813671Y-98971666D01*
X119813671Y-98971666D02*
X119756528Y-98988333D01*
X119756528Y-98988333D02*
X119727957Y-99005000D01*
X119727957Y-99005000D02*
X119713671Y-99021666D01*
X119713671Y-99021666D02*
X119699385Y-99055000D01*
X115300614Y-104243332D02*
X115300614Y-104043332D01*
X115000614Y-104143332D02*
X115300614Y-104143332D01*
X115300614Y-103959999D02*
X115000614Y-103726665D01*
X115300614Y-103726665D02*
X115000614Y-103959999D01*
X115300614Y-103526666D02*
X115300614Y-103493332D01*
X115300614Y-103493332D02*
X115286328Y-103459999D01*
X115286328Y-103459999D02*
X115272042Y-103443332D01*
X115272042Y-103443332D02*
X115243471Y-103426666D01*
X115243471Y-103426666D02*
X115186328Y-103409999D01*
X115186328Y-103409999D02*
X115114900Y-103409999D01*
X115114900Y-103409999D02*
X115057757Y-103426666D01*
X115057757Y-103426666D02*
X115029185Y-103443332D01*
X115029185Y-103443332D02*
X115014900Y-103459999D01*
X115014900Y-103459999D02*
X115000614Y-103493332D01*
X115000614Y-103493332D02*
X115000614Y-103526666D01*
X115000614Y-103526666D02*
X115014900Y-103559999D01*
X115014900Y-103559999D02*
X115029185Y-103576666D01*
X115029185Y-103576666D02*
X115057757Y-103593332D01*
X115057757Y-103593332D02*
X115114900Y-103609999D01*
X115114900Y-103609999D02*
X115186328Y-103609999D01*
X115186328Y-103609999D02*
X115243471Y-103593332D01*
X115243471Y-103593332D02*
X115272042Y-103576666D01*
X115272042Y-103576666D02*
X115286328Y-103559999D01*
X115286328Y-103559999D02*
X115300614Y-103526666D01*
X115300614Y-99163332D02*
X115300614Y-98963332D01*
X115000614Y-99063332D02*
X115300614Y-99063332D01*
X115300614Y-98879999D02*
X115000614Y-98646665D01*
X115300614Y-98646665D02*
X115000614Y-98879999D01*
X115272042Y-98529999D02*
X115286328Y-98513332D01*
X115286328Y-98513332D02*
X115300614Y-98479999D01*
X115300614Y-98479999D02*
X115300614Y-98396666D01*
X115300614Y-98396666D02*
X115286328Y-98363332D01*
X115286328Y-98363332D02*
X115272042Y-98346666D01*
X115272042Y-98346666D02*
X115243471Y-98329999D01*
X115243471Y-98329999D02*
X115214900Y-98329999D01*
X115214900Y-98329999D02*
X115172042Y-98346666D01*
X115172042Y-98346666D02*
X115000614Y-98546666D01*
X115000614Y-98546666D02*
X115000614Y-98329999D01*
X119999385Y-103585000D02*
X119856528Y-103468333D01*
X119999385Y-103385000D02*
X119699385Y-103385000D01*
X119699385Y-103385000D02*
X119699385Y-103518333D01*
X119699385Y-103518333D02*
X119713671Y-103551667D01*
X119713671Y-103551667D02*
X119727957Y-103568333D01*
X119727957Y-103568333D02*
X119756528Y-103585000D01*
X119756528Y-103585000D02*
X119799385Y-103585000D01*
X119799385Y-103585000D02*
X119827957Y-103568333D01*
X119827957Y-103568333D02*
X119842242Y-103551667D01*
X119842242Y-103551667D02*
X119856528Y-103518333D01*
X119856528Y-103518333D02*
X119856528Y-103385000D01*
X119699385Y-103701667D02*
X119999385Y-103935000D01*
X119699385Y-103935000D02*
X119999385Y-103701667D01*
X119727957Y-104051666D02*
X119713671Y-104068333D01*
X119713671Y-104068333D02*
X119699385Y-104101666D01*
X119699385Y-104101666D02*
X119699385Y-104185000D01*
X119699385Y-104185000D02*
X119713671Y-104218333D01*
X119713671Y-104218333D02*
X119727957Y-104235000D01*
X119727957Y-104235000D02*
X119756528Y-104251666D01*
X119756528Y-104251666D02*
X119785100Y-104251666D01*
X119785100Y-104251666D02*
X119827957Y-104235000D01*
X119827957Y-104235000D02*
X119999385Y-104035000D01*
X119999385Y-104035000D02*
X119999385Y-104251666D01*
X115300614Y-101703332D02*
X115300614Y-101503332D01*
X115000614Y-101603332D02*
X115300614Y-101603332D01*
X115300614Y-101419999D02*
X115000614Y-101186665D01*
X115300614Y-101186665D02*
X115000614Y-101419999D01*
X115000614Y-100869999D02*
X115000614Y-101069999D01*
X115000614Y-100969999D02*
X115300614Y-100969999D01*
X115300614Y-100969999D02*
X115257757Y-101003332D01*
X115257757Y-101003332D02*
X115229185Y-101036666D01*
X115229185Y-101036666D02*
X115214900Y-101069999D01*
D11*
X97206000Y-80214000D02*
X97206000Y-80722000D01*
X97206000Y-80468000D02*
X96952000Y-80468000D01*
X97206000Y-80468000D02*
X97460000Y-80468000D01*
X97206000Y-82754000D02*
X97206000Y-83262000D01*
D12*
X99746000Y-81230000D02*
X100254000Y-81230000D01*
X100254000Y-83770000D02*
X99746000Y-83770000D01*
X102286000Y-81230000D02*
X102794000Y-81230000D01*
X102794000Y-83770000D02*
X102286000Y-83770000D01*
D11*
X80214000Y-102794000D02*
X80722000Y-102794000D01*
X80468000Y-102794000D02*
X80468000Y-102540000D01*
X80468000Y-102794000D02*
X80468000Y-103048000D01*
D12*
X81230000Y-97714000D02*
X81230000Y-97206000D01*
X81230000Y-100254000D02*
X81230000Y-99746000D01*
D11*
X82754000Y-102794000D02*
X83262000Y-102794000D01*
D12*
X83770000Y-97206000D02*
X83770000Y-97714000D01*
X83770000Y-99746000D02*
X83770000Y-100254000D01*
X97206000Y-116230000D02*
X97714000Y-116230000D01*
X97714000Y-118770000D02*
X97206000Y-118770000D01*
X99746000Y-116230000D02*
X100254000Y-116230000D01*
X100254000Y-118770000D02*
X99746000Y-118770000D01*
D11*
X102794000Y-117246000D02*
X102794000Y-116738000D01*
X102794000Y-119532000D02*
X102540000Y-119532000D01*
X102794000Y-119532000D02*
X103048000Y-119532000D01*
X102794000Y-119786000D02*
X102794000Y-119278000D01*
D12*
X116230000Y-100254000D02*
X116230000Y-99746000D01*
X116230000Y-102794000D02*
X116230000Y-102286000D01*
D11*
X117246000Y-97206000D02*
X116738000Y-97206000D01*
D12*
X118770000Y-99746000D02*
X118770000Y-100254000D01*
X118770000Y-102286000D02*
X118770000Y-102794000D01*
D11*
X119532000Y-97206000D02*
X119532000Y-96952000D01*
X119532000Y-97206000D02*
X119532000Y-97460000D01*
X119786000Y-97206000D02*
X119278000Y-97206000D01*
D13*
X92382052Y-114701148D02*
X86951472Y-109270568D01*
X90501148Y-116582052D02*
X92382052Y-114701148D01*
X90501148Y-116582052D02*
X85070568Y-111151472D01*
X85112994Y-107432090D02*
X86053446Y-108372542D01*
X85070568Y-111151472D02*
X86951472Y-109270568D01*
X84172542Y-108372542D02*
X85112994Y-107432090D01*
X104800000Y-105850000D02*
X104800000Y-104450000D01*
X105500000Y-103750000D02*
X106100000Y-103750000D01*
X106100000Y-106550000D02*
X105500000Y-106550000D01*
X106800000Y-104450000D02*
X106800000Y-105850000D01*
X104800000Y-104450000D02*
G75*
G02*
X105500000Y-103750000I700000J0D01*
G01*
X105500000Y-106550000D02*
G75*
G02*
X104800000Y-105850000I-1J699999D01*
G01*
X106100000Y-103750000D02*
G75*
G02*
X106800000Y-104450000I0J-700000D01*
G01*
X106800000Y-105850000D02*
G75*
G02*
X106100000Y-106550000I-699999J-1D01*
G01*
%LPC*%
D14*
X96190000Y-83770000D03*
D15*
X96190000Y-81230000D03*
X98730000Y-83770000D03*
X98730000Y-81230000D03*
X101270000Y-83770000D03*
X101270000Y-81230000D03*
X103810000Y-83770000D03*
X103810000Y-81230000D03*
D16*
X83000000Y-83000000D03*
X117000000Y-117000000D03*
X117000000Y-83000000D03*
X83000000Y-117000000D03*
D17*
X119000000Y-90000000D03*
D18*
X83770000Y-103810000D03*
D15*
X81230000Y-103810000D03*
X83770000Y-101270000D03*
X81230000Y-101270000D03*
X83770000Y-98730000D03*
X81230000Y-98730000D03*
X83770000Y-96190000D03*
X81230000Y-96190000D03*
D19*
X102800000Y-109700000D03*
D20*
X113785445Y-109964555D03*
D21*
X111989394Y-111760606D03*
X110193343Y-113556657D03*
D22*
X103810000Y-116230000D03*
D15*
X103810000Y-118770000D03*
X101270000Y-116230000D03*
X101270000Y-118770000D03*
X98730000Y-116230000D03*
X98730000Y-118770000D03*
X96190000Y-116230000D03*
X96190000Y-118770000D03*
D23*
X116230000Y-96190000D03*
D15*
X118770000Y-96190000D03*
X116230000Y-98730000D03*
X118770000Y-98730000D03*
X116230000Y-101270000D03*
X118770000Y-101270000D03*
X116230000Y-103810000D03*
X118770000Y-103810000D03*
D24*
X90501148Y-114701148D03*
X88705096Y-112905096D03*
X86909045Y-111109045D03*
D25*
X85112994Y-109312994D03*
D26*
X105800000Y-105800000D03*
D27*
X105800000Y-104500000D03*
%LPD*%
M02*
