M48
; DRILL file {KiCad 8.0.7} date 2025-01-11T21:46:07+0100
; FORMAT={-:-/ absolute / metric / decimal}
; #@! TF.CreationDate,2025-01-11T21:46:07+01:00
; #@! TF.GenerationSoftware,Kicad,Pcbnew,8.0.7
; #@! TF.FileFunction,Plated,1,2,PTH
FMAT,2
METRIC
; #@! TA.AperFunction,Plated,PTH,ViaDrill
T1C0.350
; #@! TA.AperFunction,Plated,PTH,ComponentDrill
T2C0.350
; #@! TA.AperFunction,Plated,PTH,ComponentDrill
T3C0.650
; #@! TA.AperFunction,Plated,PTH,ComponentDrill
T4C1.000
%
G90
G05
T1
X88.0Y-98.5
X90.0Y-92.5
X90.25Y-98.5
X91.0Y-98.13
X91.75Y-97.75
X92.1Y-101.2
X92.4Y-102.4
X92.5Y-97.25
X92.65Y-86.97
X93.25Y-96.75
X94.0Y-96.25
X94.2Y-105.6
X94.3Y-95.4
X95.4Y-105.4
X98.6Y-105.2
X99.05Y-88.6
X99.6Y-91.205
X99.8Y-95.2
X100.381Y-107.782
X100.6Y-102.1
X100.6Y-91.205
X100.7Y-97.9
X100.7Y-111.7
X100.8Y-105.2
X101.5Y-107.782
X101.9Y-93.485
X102.9Y-93.485
X103.0Y-105.25
X103.75Y-105.75
X104.0Y-107.75
X104.75Y-103.0
X104.8Y-87.57
X104.8Y-104.4
X104.9Y-98.7
X105.0Y-107.6
X105.6Y-98.225
X105.75Y-102.75
X106.0Y-106.0
X106.0Y-107.0
X106.6Y-94.8
X107.2Y-99.0
X108.0Y-100.75
X108.7Y-99.4
X112.6Y-82.8
X113.6Y-93.2
X118.4Y-86.8
T2
X98.725Y-98.725
X98.725Y-100.0
X98.725Y-101.275
X100.0Y-98.725
X100.0Y-100.0
X100.0Y-101.275
X101.275Y-98.725
X101.275Y-100.0
X101.275Y-101.275
T3
X112.1Y-101.5
T4
X81.46Y-94.92
X81.46Y-97.46
X81.46Y-100.0
X81.46Y-102.54
X81.46Y-105.08
X84.0Y-94.92
X84.0Y-97.46
X84.0Y-100.0
X84.0Y-102.54
X84.0Y-105.08
X94.92Y-81.46
X94.92Y-84.0
X94.92Y-116.0
X94.92Y-118.54
X97.46Y-81.46
X97.46Y-84.0
X97.46Y-116.0
X97.46Y-118.54
X100.0Y-81.46
X100.0Y-84.0
X100.0Y-116.0
X100.0Y-118.54
X102.54Y-81.46
X102.54Y-84.0
X102.54Y-116.0
X102.54Y-118.54
X105.08Y-81.46
X105.08Y-84.0
X105.08Y-116.0
X105.08Y-118.54
X110.193Y-113.557
X111.989Y-111.761
X112.3Y-97.6
X113.785Y-109.965
X116.0Y-94.92
X116.0Y-97.46
X116.0Y-100.0
X116.0Y-102.54
X116.0Y-105.08
X118.54Y-94.92
X118.54Y-97.46
X118.54Y-100.0
X118.54Y-102.54
X118.54Y-105.08
M30
