G04 #@! TF.GenerationSoftware,KiCad,Pcbnew,8.0.6*
G04 #@! TF.CreationDate,2025-01-19T20:24:15+01:00*
G04 #@! TF.ProjectId,RP2040_minimal_r2,52503230-3430-45f6-9d69-6e696d616c5f,REV2*
G04 #@! TF.SameCoordinates,Original*
G04 #@! TF.FileFunction,Legend,Top*
G04 #@! TF.FilePolarity,Positive*
%FSLAX46Y46*%
G04 Gerber Fmt 4.6, Leading zero omitted, Abs format (unit mm)*
G04 Created by KiCad (PCBNEW 8.0.6) date 2025-01-19 20:24:15*
%MOMM*%
%LPD*%
G01*
G04 APERTURE LIST*
G04 Aperture macros list*
%AMRoundRect*
0 Rectangle with rounded corners*
0 $1 Rounding radius*
0 $2 $3 $4 $5 $6 $7 $8 $9 X,Y pos of 4 corners*
0 Add a 4 corners polygon primitive as box body*
4,1,4,$2,$3,$4,$5,$6,$7,$8,$9,$2,$3,0*
0 Add four circle primitives for the rounded corners*
1,1,$1+$1,$2,$3*
1,1,$1+$1,$4,$5*
1,1,$1+$1,$6,$7*
1,1,$1+$1,$8,$9*
0 Add four rect primitives between the rounded corners*
20,1,$1+$1,$2,$3,$4,$5,0*
20,1,$1+$1,$4,$5,$6,$7,0*
20,1,$1+$1,$6,$7,$8,$9,0*
20,1,$1+$1,$8,$9,$2,$3,0*%
%AMHorizOval*
0 Thick line with rounded ends*
0 $1 width*
0 $2 $3 position (X,Y) of the first rounded end (center of the circle)*
0 $4 $5 position (X,Y) of the second rounded end (center of the circle)*
0 Add line between two ends*
20,1,$1,$2,$3,$4,$5,0*
0 Add two circle primitives to create the rounded ends*
1,1,$1,$2,$3*
1,1,$1,$4,$5*%
%AMFreePoly0*
4,1,35,0.536062,0.786062,0.551000,0.750000,0.551000,-0.750000,0.536062,-0.786062,0.500000,-0.801000,0.000000,-0.801000,-0.012285,-0.795911,-0.071157,-0.795911,-0.085525,-0.793845,-0.222076,-0.753750,-0.235281,-0.747720,-0.355003,-0.670779,-0.365973,-0.661273,-0.459170,-0.553718,-0.467018,-0.541506,-0.526137,-0.412052,-0.530227,-0.398124,-0.550481,-0.257258,-0.551000,-0.250000,-0.551000,0.250000,
-0.550481,0.257258,-0.530227,0.398124,-0.526137,0.412052,-0.467018,0.541506,-0.459170,0.553718,-0.365973,0.661273,-0.355003,0.670779,-0.235281,0.747720,-0.222076,0.753750,-0.085525,0.793845,-0.071157,0.795911,-0.012285,0.795911,0.000000,0.801000,0.500000,0.801000,0.536062,0.786062,0.536062,0.786062,$1*%
%AMFreePoly1*
4,1,35,0.012285,0.795911,0.071157,0.795911,0.085525,0.793845,0.222076,0.753750,0.235281,0.747720,0.355003,0.670779,0.365973,0.661273,0.459170,0.553718,0.467018,0.541506,0.526137,0.412052,0.530227,0.398124,0.550481,0.257258,0.551000,0.250000,0.551000,-0.250000,0.550481,-0.257258,0.530227,-0.398124,0.526137,-0.412052,0.467018,-0.541506,0.459170,-0.553718,0.365973,-0.661273,
0.355003,-0.670779,0.235281,-0.747720,0.222076,-0.753750,0.085525,-0.793845,0.071157,-0.795911,0.012285,-0.795911,0.000000,-0.801000,-0.500000,-0.801000,-0.536062,-0.786062,-0.551000,-0.750000,-0.551000,0.750000,-0.536062,0.786062,-0.500000,0.801000,0.000000,0.801000,0.012285,0.795911,0.012285,0.795911,$1*%
G04 Aperture macros list end*
%ADD10C,0.150000*%
%ADD11C,0.120000*%
%ADD12C,0.075000*%
%ADD13C,0.100000*%
%ADD14C,0.300000*%
%ADD15RoundRect,0.275500X-0.275500X-0.500500X0.275500X-0.500500X0.275500X0.500500X-0.275500X0.500500X0*%
%ADD16RoundRect,0.051000X-0.850000X0.850000X-0.850000X-0.850000X0.850000X-0.850000X0.850000X0.850000X0*%
%ADD17C,1.802000*%
%ADD18RoundRect,0.165500X0.195500X-0.165500X0.195500X0.165500X-0.195500X0.165500X-0.195500X-0.165500X0*%
%ADD19RoundRect,0.165500X0.165500X0.195500X-0.165500X0.195500X-0.165500X-0.195500X0.165500X-0.195500X0*%
%ADD20RoundRect,0.160500X0.160500X0.210500X-0.160500X0.210500X-0.160500X-0.210500X0.160500X-0.210500X0*%
%ADD21RoundRect,0.051000X-0.750000X1.000000X-0.750000X-1.000000X0.750000X-1.000000X0.750000X1.000000X0*%
%ADD22RoundRect,0.051000X-1.900000X1.000000X-1.900000X-1.000000X1.900000X-1.000000X1.900000X1.000000X0*%
%ADD23RoundRect,0.175500X-0.675500X-0.175500X0.675500X-0.175500X0.675500X0.175500X-0.675500X0.175500X0*%
%ADD24RoundRect,0.160500X0.210500X-0.160500X0.210500X0.160500X-0.210500X0.160500X-0.210500X-0.160500X0*%
%ADD25RoundRect,0.165500X-0.165500X-0.195500X0.165500X-0.195500X0.165500X0.195500X-0.165500X0.195500X0*%
%ADD26RoundRect,0.165500X-0.195500X0.165500X-0.195500X-0.165500X0.195500X-0.165500X0.195500X0.165500X0*%
%ADD27RoundRect,0.075500X-0.413000X-0.075500X0.413000X-0.075500X0.413000X0.075500X-0.413000X0.075500X0*%
%ADD28RoundRect,0.075500X-0.075500X-0.413000X0.075500X-0.413000X0.075500X0.413000X-0.075500X0.413000X0*%
%ADD29RoundRect,0.148590X-1.502410X-1.502410X1.502410X-1.502410X1.502410X1.502410X-1.502410X1.502410X0*%
%ADD30C,2.802000*%
%ADD31C,1.602000*%
%ADD32FreePoly0,90.000000*%
%ADD33FreePoly1,90.000000*%
%ADD34RoundRect,0.051000X-0.600000X0.700000X-0.600000X-0.700000X0.600000X-0.700000X0.600000X0.700000X0*%
%ADD35RoundRect,0.244250X-0.281750X0.244250X-0.281750X-0.244250X0.281750X-0.244250X0.281750X0.244250X0*%
%ADD36RoundRect,0.051000X-0.850000X-0.850000X0.850000X-0.850000X0.850000X0.850000X-0.850000X0.850000X0*%
%ADD37RoundRect,0.051000X0.500000X-0.500000X0.500000X0.500000X-0.500000X0.500000X-0.500000X-0.500000X0*%
%ADD38RoundRect,0.051000X-1.202082X0.000000X0.000000X-1.202082X1.202082X0.000000X0.000000X1.202082X0*%
%ADD39HorizOval,1.802000X0.000000X0.000000X0.000000X0.000000X0*%
%ADD40RoundRect,0.051000X0.850000X-0.850000X0.850000X0.850000X-0.850000X0.850000X-0.850000X-0.850000X0*%
%ADD41RoundRect,0.051000X0.375000X-0.500000X0.375000X0.500000X-0.375000X0.500000X-0.375000X-0.500000X0*%
%ADD42RoundRect,0.051000X0.850000X0.850000X-0.850000X0.850000X-0.850000X-0.850000X0.850000X-0.850000X0*%
%ADD43RoundRect,0.113000X-0.750500X-0.113000X0.750500X-0.113000X0.750500X0.113000X-0.750500X0.113000X0*%
%ADD44HorizOval,1.802000X0.000000X0.000000X0.000000X0.000000X0*%
%ADD45RoundRect,0.051000X0.000000X1.202082X-1.202082X0.000000X0.000000X-1.202082X1.202082X0.000000X0*%
G04 APERTURE END LIST*
D10*
X117091541Y-105919819D02*
X117329636Y-106919819D01*
X117329636Y-106919819D02*
X117520112Y-106205533D01*
X117520112Y-106205533D02*
X117710588Y-106919819D01*
X117710588Y-106919819D02*
X117948684Y-105919819D01*
X93439160Y-117972200D02*
X93582017Y-118019819D01*
X93582017Y-118019819D02*
X93820112Y-118019819D01*
X93820112Y-118019819D02*
X93915350Y-117972200D01*
X93915350Y-117972200D02*
X93962969Y-117924580D01*
X93962969Y-117924580D02*
X94010588Y-117829342D01*
X94010588Y-117829342D02*
X94010588Y-117734104D01*
X94010588Y-117734104D02*
X93962969Y-117638866D01*
X93962969Y-117638866D02*
X93915350Y-117591247D01*
X93915350Y-117591247D02*
X93820112Y-117543628D01*
X93820112Y-117543628D02*
X93629636Y-117496009D01*
X93629636Y-117496009D02*
X93534398Y-117448390D01*
X93534398Y-117448390D02*
X93486779Y-117400771D01*
X93486779Y-117400771D02*
X93439160Y-117305533D01*
X93439160Y-117305533D02*
X93439160Y-117210295D01*
X93439160Y-117210295D02*
X93486779Y-117115057D01*
X93486779Y-117115057D02*
X93534398Y-117067438D01*
X93534398Y-117067438D02*
X93629636Y-117019819D01*
X93629636Y-117019819D02*
X93867731Y-117019819D01*
X93867731Y-117019819D02*
X94010588Y-117067438D01*
X82286779Y-93796009D02*
X82620112Y-93796009D01*
X82762969Y-94319819D02*
X82286779Y-94319819D01*
X82286779Y-94319819D02*
X82286779Y-93319819D01*
X82286779Y-93319819D02*
X82762969Y-93319819D01*
X105936779Y-82969819D02*
X105936779Y-81969819D01*
X105936779Y-81969819D02*
X106508207Y-82969819D01*
X106508207Y-82969819D02*
X106508207Y-81969819D01*
D11*
X117500000Y-108000000D02*
X117300000Y-107200000D01*
X117700000Y-107200000D01*
X117500000Y-108000000D01*
X117700000Y-105600000D02*
X117300000Y-105600000D01*
X117500000Y-104800000D01*
X117700000Y-105600000D01*
X119100000Y-106400000D02*
X118300000Y-106600000D01*
X118300000Y-106200000D01*
X119100000Y-106400000D01*
G36*
X119100000Y-106400000D02*
G01*
X118300000Y-106600000D01*
X118300000Y-106200000D01*
X119100000Y-106400000D01*
G37*
X116700000Y-106600000D02*
X115900000Y-106400000D01*
X116700000Y-106200000D01*
X116700000Y-106600000D01*
X92900000Y-117700000D02*
X92100000Y-117500000D01*
X92900000Y-117300000D01*
X92900000Y-117700000D01*
X95300000Y-117500000D02*
X94500000Y-117700000D01*
X94500000Y-117300000D01*
X95300000Y-117500000D01*
X93700000Y-119100000D02*
X93500000Y-118300000D01*
X93900000Y-118300000D01*
X93700000Y-119100000D01*
G36*
X93700000Y-119100000D02*
G01*
X93500000Y-118300000D01*
X93900000Y-118300000D01*
X93700000Y-119100000D01*
G37*
X93900000Y-116700000D02*
X93500000Y-116700000D01*
X93700000Y-115900000D01*
X93900000Y-116700000D01*
X82700000Y-93000000D02*
X82300000Y-93000000D01*
X82500000Y-92200000D01*
X82700000Y-93000000D01*
X82500000Y-95400000D02*
X82300000Y-94600000D01*
X82700000Y-94600000D01*
X82500000Y-95400000D01*
X81700000Y-94000000D02*
X80900000Y-93800000D01*
X81700000Y-93600000D01*
X81700000Y-94000000D01*
G36*
X81700000Y-94000000D02*
G01*
X80900000Y-93800000D01*
X81700000Y-93600000D01*
X81700000Y-94000000D01*
G37*
X84100000Y-93800000D02*
X83300000Y-94000000D01*
X83300000Y-93600000D01*
X84100000Y-93800000D01*
X107800000Y-82500000D02*
X107000000Y-82700000D01*
X107000000Y-82300000D01*
X107800000Y-82500000D01*
X105400000Y-82700000D02*
X104600000Y-82500000D01*
X105400000Y-82300000D01*
X105400000Y-82700000D01*
X106400000Y-81700000D02*
X106000000Y-81700000D01*
X106200000Y-80900000D01*
X106400000Y-81700000D01*
G36*
X106400000Y-81700000D02*
G01*
X106000000Y-81700000D01*
X106200000Y-80900000D01*
X106400000Y-81700000D01*
G37*
X106200000Y-84100000D02*
X106000000Y-83300000D01*
X106400000Y-83300000D01*
X106200000Y-84100000D01*
X91300000Y-83900000D02*
X91800000Y-83900000D01*
X89750000Y-83500000D02*
X90250000Y-83500000D01*
X89750000Y-83000000D02*
X89750000Y-83500000D01*
X90250000Y-83500000D02*
X90250000Y-83000000D01*
X86750000Y-83500000D02*
X87250000Y-83500000D01*
X92250000Y-83500000D02*
X92250000Y-83000000D01*
X90800000Y-84400000D02*
X91300000Y-84400000D01*
X92300000Y-84400000D02*
X92300000Y-83900000D01*
X91250000Y-83500000D02*
X91250000Y-83000000D01*
X88700000Y-84400000D02*
X89200000Y-84400000D01*
X88750000Y-83500000D02*
X89250000Y-83500000D01*
X90200000Y-83900000D02*
X90700000Y-83900000D01*
X88250000Y-83000000D02*
X88750000Y-83000000D01*
X92750000Y-83000000D02*
X92750000Y-83500000D01*
X86750000Y-84400000D02*
X87100000Y-84400000D01*
X91750000Y-83000000D02*
X91750000Y-83500000D01*
X90750000Y-83500000D02*
X91250000Y-83500000D01*
X92300000Y-83900000D02*
X92800000Y-83900000D01*
X89250000Y-83500000D02*
X89250000Y-83000000D01*
X87600000Y-83900000D02*
X87600000Y-84400000D01*
X91250000Y-83000000D02*
X91750000Y-83000000D01*
X88600000Y-83900000D02*
X88600000Y-84400000D01*
X90250000Y-83000000D02*
X90750000Y-83000000D01*
X87100000Y-83900000D02*
X87600000Y-83900000D01*
X89700000Y-84400000D02*
X90200000Y-84400000D01*
X87250000Y-83000000D02*
X87750000Y-83000000D01*
X89200000Y-83900000D02*
X89700000Y-83900000D01*
X90750000Y-83000000D02*
X90750000Y-83500000D01*
X88750000Y-83000000D02*
X88750000Y-83500000D01*
X92250000Y-83000000D02*
X92750000Y-83000000D01*
X92800000Y-84400000D02*
X93300000Y-84400000D01*
X90700000Y-83900000D02*
X90700000Y-84400000D01*
X88250000Y-83500000D02*
X88250000Y-83000000D01*
X88700000Y-84400000D02*
X88600000Y-84400000D01*
X89700000Y-83900000D02*
X89700000Y-84400000D01*
X87600000Y-84400000D02*
X88100000Y-84400000D01*
X91750000Y-83500000D02*
X92250000Y-83500000D01*
X89250000Y-83000000D02*
X89750000Y-83000000D01*
X87250000Y-83500000D02*
X87250000Y-83000000D01*
X91800000Y-84400000D02*
X92300000Y-84400000D01*
X87750000Y-83500000D02*
X88250000Y-83500000D01*
X92750000Y-83500000D02*
X93250000Y-83500000D01*
X89200000Y-84400000D02*
X89200000Y-83900000D01*
X87100000Y-84400000D02*
X87100000Y-83900000D01*
X92800000Y-83900000D02*
X92800000Y-84400000D01*
X88100000Y-84400000D02*
X88100000Y-83900000D01*
X91800000Y-83900000D02*
X91800000Y-84400000D01*
X90800000Y-84400000D02*
X90700000Y-84400000D01*
X90200000Y-84400000D02*
X90200000Y-83900000D01*
X91300000Y-84400000D02*
X91300000Y-83900000D01*
X87750000Y-83000000D02*
X87750000Y-83500000D01*
X88100000Y-83900000D02*
X88600000Y-83900000D01*
D10*
X86736779Y-80859875D02*
X86736779Y-80193208D01*
X86736779Y-80288446D02*
X86784398Y-80240827D01*
X86784398Y-80240827D02*
X86879636Y-80193208D01*
X86879636Y-80193208D02*
X87022493Y-80193208D01*
X87022493Y-80193208D02*
X87117731Y-80240827D01*
X87117731Y-80240827D02*
X87165350Y-80336065D01*
X87165350Y-80336065D02*
X87165350Y-80859875D01*
X87165350Y-80336065D02*
X87212969Y-80240827D01*
X87212969Y-80240827D02*
X87308207Y-80193208D01*
X87308207Y-80193208D02*
X87451064Y-80193208D01*
X87451064Y-80193208D02*
X87546303Y-80240827D01*
X87546303Y-80240827D02*
X87593922Y-80336065D01*
X87593922Y-80336065D02*
X87593922Y-80859875D01*
X88070112Y-80859875D02*
X88070112Y-80193208D01*
X88070112Y-79859875D02*
X88022493Y-79907494D01*
X88022493Y-79907494D02*
X88070112Y-79955113D01*
X88070112Y-79955113D02*
X88117731Y-79907494D01*
X88117731Y-79907494D02*
X88070112Y-79859875D01*
X88070112Y-79859875D02*
X88070112Y-79955113D01*
X88546302Y-80193208D02*
X88546302Y-80859875D01*
X88546302Y-80288446D02*
X88593921Y-80240827D01*
X88593921Y-80240827D02*
X88689159Y-80193208D01*
X88689159Y-80193208D02*
X88832016Y-80193208D01*
X88832016Y-80193208D02*
X88927254Y-80240827D01*
X88927254Y-80240827D02*
X88974873Y-80336065D01*
X88974873Y-80336065D02*
X88974873Y-80859875D01*
X89403445Y-80812256D02*
X89498683Y-80859875D01*
X89498683Y-80859875D02*
X89689159Y-80859875D01*
X89689159Y-80859875D02*
X89784397Y-80812256D01*
X89784397Y-80812256D02*
X89832016Y-80717017D01*
X89832016Y-80717017D02*
X89832016Y-80669398D01*
X89832016Y-80669398D02*
X89784397Y-80574160D01*
X89784397Y-80574160D02*
X89689159Y-80526541D01*
X89689159Y-80526541D02*
X89546302Y-80526541D01*
X89546302Y-80526541D02*
X89451064Y-80478922D01*
X89451064Y-80478922D02*
X89403445Y-80383684D01*
X89403445Y-80383684D02*
X89403445Y-80336065D01*
X89403445Y-80336065D02*
X89451064Y-80240827D01*
X89451064Y-80240827D02*
X89546302Y-80193208D01*
X89546302Y-80193208D02*
X89689159Y-80193208D01*
X89689159Y-80193208D02*
X89784397Y-80240827D01*
X90165350Y-80193208D02*
X90403445Y-80859875D01*
X90641540Y-80193208D02*
X90403445Y-80859875D01*
X90403445Y-80859875D02*
X90308207Y-81097970D01*
X90308207Y-81097970D02*
X90260588Y-81145589D01*
X90260588Y-81145589D02*
X90165350Y-81193208D01*
X91022493Y-80193208D02*
X91022493Y-80859875D01*
X91022493Y-80288446D02*
X91070112Y-80240827D01*
X91070112Y-80240827D02*
X91165350Y-80193208D01*
X91165350Y-80193208D02*
X91308207Y-80193208D01*
X91308207Y-80193208D02*
X91403445Y-80240827D01*
X91403445Y-80240827D02*
X91451064Y-80336065D01*
X91451064Y-80336065D02*
X91451064Y-80859875D01*
X92355826Y-80812256D02*
X92260588Y-80859875D01*
X92260588Y-80859875D02*
X92070112Y-80859875D01*
X92070112Y-80859875D02*
X91974874Y-80812256D01*
X91974874Y-80812256D02*
X91927255Y-80764636D01*
X91927255Y-80764636D02*
X91879636Y-80669398D01*
X91879636Y-80669398D02*
X91879636Y-80383684D01*
X91879636Y-80383684D02*
X91927255Y-80288446D01*
X91927255Y-80288446D02*
X91974874Y-80240827D01*
X91974874Y-80240827D02*
X92070112Y-80193208D01*
X92070112Y-80193208D02*
X92260588Y-80193208D01*
X92260588Y-80193208D02*
X92355826Y-80240827D01*
X86641541Y-81803152D02*
X86879636Y-82469819D01*
X86879636Y-82469819D02*
X87117731Y-81803152D01*
X87689160Y-81469819D02*
X87784398Y-81469819D01*
X87784398Y-81469819D02*
X87879636Y-81517438D01*
X87879636Y-81517438D02*
X87927255Y-81565057D01*
X87927255Y-81565057D02*
X87974874Y-81660295D01*
X87974874Y-81660295D02*
X88022493Y-81850771D01*
X88022493Y-81850771D02*
X88022493Y-82088866D01*
X88022493Y-82088866D02*
X87974874Y-82279342D01*
X87974874Y-82279342D02*
X87927255Y-82374580D01*
X87927255Y-82374580D02*
X87879636Y-82422200D01*
X87879636Y-82422200D02*
X87784398Y-82469819D01*
X87784398Y-82469819D02*
X87689160Y-82469819D01*
X87689160Y-82469819D02*
X87593922Y-82422200D01*
X87593922Y-82422200D02*
X87546303Y-82374580D01*
X87546303Y-82374580D02*
X87498684Y-82279342D01*
X87498684Y-82279342D02*
X87451065Y-82088866D01*
X87451065Y-82088866D02*
X87451065Y-81850771D01*
X87451065Y-81850771D02*
X87498684Y-81660295D01*
X87498684Y-81660295D02*
X87546303Y-81565057D01*
X87546303Y-81565057D02*
X87593922Y-81517438D01*
X87593922Y-81517438D02*
X87689160Y-81469819D01*
X88451065Y-82374580D02*
X88498684Y-82422200D01*
X88498684Y-82422200D02*
X88451065Y-82469819D01*
X88451065Y-82469819D02*
X88403446Y-82422200D01*
X88403446Y-82422200D02*
X88451065Y-82374580D01*
X88451065Y-82374580D02*
X88451065Y-82469819D01*
X89451064Y-82469819D02*
X88879636Y-82469819D01*
X89165350Y-82469819D02*
X89165350Y-81469819D01*
X89165350Y-81469819D02*
X89070112Y-81612676D01*
X89070112Y-81612676D02*
X88974874Y-81707914D01*
X88974874Y-81707914D02*
X88879636Y-81755533D01*
D12*
X103376667Y-84699385D02*
X103576667Y-84699385D01*
X103476667Y-84999385D02*
X103476667Y-84699385D01*
X103660001Y-84699385D02*
X103893334Y-84999385D01*
X103893334Y-84699385D02*
X103660001Y-84999385D01*
X104093334Y-84699385D02*
X104126667Y-84699385D01*
X104126667Y-84699385D02*
X104160000Y-84713671D01*
X104160000Y-84713671D02*
X104176667Y-84727957D01*
X104176667Y-84727957D02*
X104193334Y-84756528D01*
X104193334Y-84756528D02*
X104210000Y-84813671D01*
X104210000Y-84813671D02*
X104210000Y-84885100D01*
X104210000Y-84885100D02*
X104193334Y-84942242D01*
X104193334Y-84942242D02*
X104176667Y-84970814D01*
X104176667Y-84970814D02*
X104160000Y-84985100D01*
X104160000Y-84985100D02*
X104126667Y-84999385D01*
X104126667Y-84999385D02*
X104093334Y-84999385D01*
X104093334Y-84999385D02*
X104060000Y-84985100D01*
X104060000Y-84985100D02*
X104043334Y-84970814D01*
X104043334Y-84970814D02*
X104026667Y-84942242D01*
X104026667Y-84942242D02*
X104010000Y-84885100D01*
X104010000Y-84885100D02*
X104010000Y-84813671D01*
X104010000Y-84813671D02*
X104026667Y-84756528D01*
X104026667Y-84756528D02*
X104043334Y-84727957D01*
X104043334Y-84727957D02*
X104060000Y-84713671D01*
X104060000Y-84713671D02*
X104093334Y-84699385D01*
X101494999Y-80000614D02*
X101611666Y-80143471D01*
X101694999Y-80000614D02*
X101694999Y-80300614D01*
X101694999Y-80300614D02*
X101561666Y-80300614D01*
X101561666Y-80300614D02*
X101528333Y-80286328D01*
X101528333Y-80286328D02*
X101511666Y-80272042D01*
X101511666Y-80272042D02*
X101494999Y-80243471D01*
X101494999Y-80243471D02*
X101494999Y-80200614D01*
X101494999Y-80200614D02*
X101511666Y-80172042D01*
X101511666Y-80172042D02*
X101528333Y-80157757D01*
X101528333Y-80157757D02*
X101561666Y-80143471D01*
X101561666Y-80143471D02*
X101694999Y-80143471D01*
X101378333Y-80300614D02*
X101144999Y-80000614D01*
X101144999Y-80300614D02*
X101378333Y-80000614D01*
X100828333Y-80000614D02*
X101028333Y-80000614D01*
X100928333Y-80000614D02*
X100928333Y-80300614D01*
X100928333Y-80300614D02*
X100961666Y-80257757D01*
X100961666Y-80257757D02*
X100995000Y-80229185D01*
X100995000Y-80229185D02*
X101028333Y-80214900D01*
X98954999Y-80000614D02*
X99071666Y-80143471D01*
X99154999Y-80000614D02*
X99154999Y-80300614D01*
X99154999Y-80300614D02*
X99021666Y-80300614D01*
X99021666Y-80300614D02*
X98988333Y-80286328D01*
X98988333Y-80286328D02*
X98971666Y-80272042D01*
X98971666Y-80272042D02*
X98954999Y-80243471D01*
X98954999Y-80243471D02*
X98954999Y-80200614D01*
X98954999Y-80200614D02*
X98971666Y-80172042D01*
X98971666Y-80172042D02*
X98988333Y-80157757D01*
X98988333Y-80157757D02*
X99021666Y-80143471D01*
X99021666Y-80143471D02*
X99154999Y-80143471D01*
X98838333Y-80300614D02*
X98604999Y-80000614D01*
X98604999Y-80300614D02*
X98838333Y-80000614D01*
X98405000Y-80300614D02*
X98371666Y-80300614D01*
X98371666Y-80300614D02*
X98338333Y-80286328D01*
X98338333Y-80286328D02*
X98321666Y-80272042D01*
X98321666Y-80272042D02*
X98305000Y-80243471D01*
X98305000Y-80243471D02*
X98288333Y-80186328D01*
X98288333Y-80186328D02*
X98288333Y-80114900D01*
X98288333Y-80114900D02*
X98305000Y-80057757D01*
X98305000Y-80057757D02*
X98321666Y-80029185D01*
X98321666Y-80029185D02*
X98338333Y-80014900D01*
X98338333Y-80014900D02*
X98371666Y-80000614D01*
X98371666Y-80000614D02*
X98405000Y-80000614D01*
X98405000Y-80000614D02*
X98438333Y-80014900D01*
X98438333Y-80014900D02*
X98455000Y-80029185D01*
X98455000Y-80029185D02*
X98471666Y-80057757D01*
X98471666Y-80057757D02*
X98488333Y-80114900D01*
X98488333Y-80114900D02*
X98488333Y-80186328D01*
X98488333Y-80186328D02*
X98471666Y-80243471D01*
X98471666Y-80243471D02*
X98455000Y-80272042D01*
X98455000Y-80272042D02*
X98438333Y-80286328D01*
X98438333Y-80286328D02*
X98405000Y-80300614D01*
X104034999Y-80000614D02*
X104151666Y-80143471D01*
X104234999Y-80000614D02*
X104234999Y-80300614D01*
X104234999Y-80300614D02*
X104101666Y-80300614D01*
X104101666Y-80300614D02*
X104068333Y-80286328D01*
X104068333Y-80286328D02*
X104051666Y-80272042D01*
X104051666Y-80272042D02*
X104034999Y-80243471D01*
X104034999Y-80243471D02*
X104034999Y-80200614D01*
X104034999Y-80200614D02*
X104051666Y-80172042D01*
X104051666Y-80172042D02*
X104068333Y-80157757D01*
X104068333Y-80157757D02*
X104101666Y-80143471D01*
X104101666Y-80143471D02*
X104234999Y-80143471D01*
X103918333Y-80300614D02*
X103684999Y-80000614D01*
X103684999Y-80300614D02*
X103918333Y-80000614D01*
X103568333Y-80272042D02*
X103551666Y-80286328D01*
X103551666Y-80286328D02*
X103518333Y-80300614D01*
X103518333Y-80300614D02*
X103435000Y-80300614D01*
X103435000Y-80300614D02*
X103401666Y-80286328D01*
X103401666Y-80286328D02*
X103385000Y-80272042D01*
X103385000Y-80272042D02*
X103368333Y-80243471D01*
X103368333Y-80243471D02*
X103368333Y-80214900D01*
X103368333Y-80214900D02*
X103385000Y-80172042D01*
X103385000Y-80172042D02*
X103585000Y-80000614D01*
X103585000Y-80000614D02*
X103368333Y-80000614D01*
X100836667Y-84699385D02*
X101036667Y-84699385D01*
X100936667Y-84999385D02*
X100936667Y-84699385D01*
X101120001Y-84699385D02*
X101353334Y-84999385D01*
X101353334Y-84699385D02*
X101120001Y-84999385D01*
X101670000Y-84999385D02*
X101470000Y-84999385D01*
X101570000Y-84999385D02*
X101570000Y-84699385D01*
X101570000Y-84699385D02*
X101536667Y-84742242D01*
X101536667Y-84742242D02*
X101503334Y-84770814D01*
X101503334Y-84770814D02*
X101470000Y-84785100D01*
X98296667Y-84699385D02*
X98496667Y-84699385D01*
X98396667Y-84999385D02*
X98396667Y-84699385D01*
X98580001Y-84699385D02*
X98813334Y-84999385D01*
X98813334Y-84699385D02*
X98580001Y-84999385D01*
X98930000Y-84727957D02*
X98946667Y-84713671D01*
X98946667Y-84713671D02*
X98980000Y-84699385D01*
X98980000Y-84699385D02*
X99063334Y-84699385D01*
X99063334Y-84699385D02*
X99096667Y-84713671D01*
X99096667Y-84713671D02*
X99113334Y-84727957D01*
X99113334Y-84727957D02*
X99130000Y-84756528D01*
X99130000Y-84756528D02*
X99130000Y-84785100D01*
X99130000Y-84785100D02*
X99113334Y-84827957D01*
X99113334Y-84827957D02*
X98913334Y-84999385D01*
X98913334Y-84999385D02*
X99130000Y-84999385D01*
X84699385Y-99163332D02*
X84699385Y-98963332D01*
X84999385Y-99063332D02*
X84699385Y-99063332D01*
X84699385Y-98879999D02*
X84999385Y-98646665D01*
X84699385Y-98646665D02*
X84999385Y-98879999D01*
X84999385Y-98329999D02*
X84999385Y-98529999D01*
X84999385Y-98429999D02*
X84699385Y-98429999D01*
X84699385Y-98429999D02*
X84742242Y-98463332D01*
X84742242Y-98463332D02*
X84770814Y-98496666D01*
X84770814Y-98496666D02*
X84785100Y-98529999D01*
X84699385Y-96623332D02*
X84699385Y-96423332D01*
X84999385Y-96523332D02*
X84699385Y-96523332D01*
X84699385Y-96339999D02*
X84999385Y-96106665D01*
X84699385Y-96106665D02*
X84999385Y-96339999D01*
X84699385Y-95906666D02*
X84699385Y-95873332D01*
X84699385Y-95873332D02*
X84713671Y-95839999D01*
X84713671Y-95839999D02*
X84727957Y-95823332D01*
X84727957Y-95823332D02*
X84756528Y-95806666D01*
X84756528Y-95806666D02*
X84813671Y-95789999D01*
X84813671Y-95789999D02*
X84885100Y-95789999D01*
X84885100Y-95789999D02*
X84942242Y-95806666D01*
X84942242Y-95806666D02*
X84970814Y-95823332D01*
X84970814Y-95823332D02*
X84985100Y-95839999D01*
X84985100Y-95839999D02*
X84999385Y-95873332D01*
X84999385Y-95873332D02*
X84999385Y-95906666D01*
X84999385Y-95906666D02*
X84985100Y-95939999D01*
X84985100Y-95939999D02*
X84970814Y-95956666D01*
X84970814Y-95956666D02*
X84942242Y-95973332D01*
X84942242Y-95973332D02*
X84885100Y-95989999D01*
X84885100Y-95989999D02*
X84813671Y-95989999D01*
X84813671Y-95989999D02*
X84756528Y-95973332D01*
X84756528Y-95973332D02*
X84727957Y-95956666D01*
X84727957Y-95956666D02*
X84713671Y-95939999D01*
X84713671Y-95939999D02*
X84699385Y-95906666D01*
X80000614Y-95965000D02*
X80143471Y-95848333D01*
X80000614Y-95765000D02*
X80300614Y-95765000D01*
X80300614Y-95765000D02*
X80300614Y-95898333D01*
X80300614Y-95898333D02*
X80286328Y-95931667D01*
X80286328Y-95931667D02*
X80272042Y-95948333D01*
X80272042Y-95948333D02*
X80243471Y-95965000D01*
X80243471Y-95965000D02*
X80200614Y-95965000D01*
X80200614Y-95965000D02*
X80172042Y-95948333D01*
X80172042Y-95948333D02*
X80157757Y-95931667D01*
X80157757Y-95931667D02*
X80143471Y-95898333D01*
X80143471Y-95898333D02*
X80143471Y-95765000D01*
X80300614Y-96081667D02*
X80000614Y-96315000D01*
X80300614Y-96315000D02*
X80000614Y-96081667D01*
X80272042Y-96431666D02*
X80286328Y-96448333D01*
X80286328Y-96448333D02*
X80300614Y-96481666D01*
X80300614Y-96481666D02*
X80300614Y-96565000D01*
X80300614Y-96565000D02*
X80286328Y-96598333D01*
X80286328Y-96598333D02*
X80272042Y-96615000D01*
X80272042Y-96615000D02*
X80243471Y-96631666D01*
X80243471Y-96631666D02*
X80214900Y-96631666D01*
X80214900Y-96631666D02*
X80172042Y-96615000D01*
X80172042Y-96615000D02*
X80000614Y-96415000D01*
X80000614Y-96415000D02*
X80000614Y-96631666D01*
X84699385Y-101703332D02*
X84699385Y-101503332D01*
X84999385Y-101603332D02*
X84699385Y-101603332D01*
X84699385Y-101419999D02*
X84999385Y-101186665D01*
X84699385Y-101186665D02*
X84999385Y-101419999D01*
X84727957Y-101069999D02*
X84713671Y-101053332D01*
X84713671Y-101053332D02*
X84699385Y-101019999D01*
X84699385Y-101019999D02*
X84699385Y-100936666D01*
X84699385Y-100936666D02*
X84713671Y-100903332D01*
X84713671Y-100903332D02*
X84727957Y-100886666D01*
X84727957Y-100886666D02*
X84756528Y-100869999D01*
X84756528Y-100869999D02*
X84785100Y-100869999D01*
X84785100Y-100869999D02*
X84827957Y-100886666D01*
X84827957Y-100886666D02*
X84999385Y-101086666D01*
X84999385Y-101086666D02*
X84999385Y-100869999D01*
X80000614Y-101045000D02*
X80143471Y-100928333D01*
X80000614Y-100845000D02*
X80300614Y-100845000D01*
X80300614Y-100845000D02*
X80300614Y-100978333D01*
X80300614Y-100978333D02*
X80286328Y-101011667D01*
X80286328Y-101011667D02*
X80272042Y-101028333D01*
X80272042Y-101028333D02*
X80243471Y-101045000D01*
X80243471Y-101045000D02*
X80200614Y-101045000D01*
X80200614Y-101045000D02*
X80172042Y-101028333D01*
X80172042Y-101028333D02*
X80157757Y-101011667D01*
X80157757Y-101011667D02*
X80143471Y-100978333D01*
X80143471Y-100978333D02*
X80143471Y-100845000D01*
X80300614Y-101161667D02*
X80000614Y-101395000D01*
X80300614Y-101395000D02*
X80000614Y-101161667D01*
X80300614Y-101595000D02*
X80300614Y-101628333D01*
X80300614Y-101628333D02*
X80286328Y-101661666D01*
X80286328Y-101661666D02*
X80272042Y-101678333D01*
X80272042Y-101678333D02*
X80243471Y-101695000D01*
X80243471Y-101695000D02*
X80186328Y-101711666D01*
X80186328Y-101711666D02*
X80114900Y-101711666D01*
X80114900Y-101711666D02*
X80057757Y-101695000D01*
X80057757Y-101695000D02*
X80029185Y-101678333D01*
X80029185Y-101678333D02*
X80014900Y-101661666D01*
X80014900Y-101661666D02*
X80000614Y-101628333D01*
X80000614Y-101628333D02*
X80000614Y-101595000D01*
X80000614Y-101595000D02*
X80014900Y-101561666D01*
X80014900Y-101561666D02*
X80029185Y-101545000D01*
X80029185Y-101545000D02*
X80057757Y-101528333D01*
X80057757Y-101528333D02*
X80114900Y-101511666D01*
X80114900Y-101511666D02*
X80186328Y-101511666D01*
X80186328Y-101511666D02*
X80243471Y-101528333D01*
X80243471Y-101528333D02*
X80272042Y-101545000D01*
X80272042Y-101545000D02*
X80286328Y-101561666D01*
X80286328Y-101561666D02*
X80300614Y-101595000D01*
X80000614Y-98505000D02*
X80143471Y-98388333D01*
X80000614Y-98305000D02*
X80300614Y-98305000D01*
X80300614Y-98305000D02*
X80300614Y-98438333D01*
X80300614Y-98438333D02*
X80286328Y-98471667D01*
X80286328Y-98471667D02*
X80272042Y-98488333D01*
X80272042Y-98488333D02*
X80243471Y-98505000D01*
X80243471Y-98505000D02*
X80200614Y-98505000D01*
X80200614Y-98505000D02*
X80172042Y-98488333D01*
X80172042Y-98488333D02*
X80157757Y-98471667D01*
X80157757Y-98471667D02*
X80143471Y-98438333D01*
X80143471Y-98438333D02*
X80143471Y-98305000D01*
X80300614Y-98621667D02*
X80000614Y-98855000D01*
X80300614Y-98855000D02*
X80000614Y-98621667D01*
X80000614Y-99171666D02*
X80000614Y-98971666D01*
X80000614Y-99071666D02*
X80300614Y-99071666D01*
X80300614Y-99071666D02*
X80257757Y-99038333D01*
X80257757Y-99038333D02*
X80229185Y-99005000D01*
X80229185Y-99005000D02*
X80214900Y-98971666D01*
X96623332Y-115300614D02*
X96423332Y-115300614D01*
X96523332Y-115000614D02*
X96523332Y-115300614D01*
X96339999Y-115300614D02*
X96106665Y-115000614D01*
X96106665Y-115300614D02*
X96339999Y-115000614D01*
X95906666Y-115300614D02*
X95873332Y-115300614D01*
X95873332Y-115300614D02*
X95839999Y-115286328D01*
X95839999Y-115286328D02*
X95823332Y-115272042D01*
X95823332Y-115272042D02*
X95806666Y-115243471D01*
X95806666Y-115243471D02*
X95789999Y-115186328D01*
X95789999Y-115186328D02*
X95789999Y-115114900D01*
X95789999Y-115114900D02*
X95806666Y-115057757D01*
X95806666Y-115057757D02*
X95823332Y-115029185D01*
X95823332Y-115029185D02*
X95839999Y-115014900D01*
X95839999Y-115014900D02*
X95873332Y-115000614D01*
X95873332Y-115000614D02*
X95906666Y-115000614D01*
X95906666Y-115000614D02*
X95939999Y-115014900D01*
X95939999Y-115014900D02*
X95956666Y-115029185D01*
X95956666Y-115029185D02*
X95973332Y-115057757D01*
X95973332Y-115057757D02*
X95989999Y-115114900D01*
X95989999Y-115114900D02*
X95989999Y-115186328D01*
X95989999Y-115186328D02*
X95973332Y-115243471D01*
X95973332Y-115243471D02*
X95956666Y-115272042D01*
X95956666Y-115272042D02*
X95939999Y-115286328D01*
X95939999Y-115286328D02*
X95906666Y-115300614D01*
X101703332Y-115300614D02*
X101503332Y-115300614D01*
X101603332Y-115000614D02*
X101603332Y-115300614D01*
X101419999Y-115300614D02*
X101186665Y-115000614D01*
X101186665Y-115300614D02*
X101419999Y-115000614D01*
X101069999Y-115272042D02*
X101053332Y-115286328D01*
X101053332Y-115286328D02*
X101019999Y-115300614D01*
X101019999Y-115300614D02*
X100936666Y-115300614D01*
X100936666Y-115300614D02*
X100903332Y-115286328D01*
X100903332Y-115286328D02*
X100886666Y-115272042D01*
X100886666Y-115272042D02*
X100869999Y-115243471D01*
X100869999Y-115243471D02*
X100869999Y-115214900D01*
X100869999Y-115214900D02*
X100886666Y-115172042D01*
X100886666Y-115172042D02*
X101086666Y-115000614D01*
X101086666Y-115000614D02*
X100869999Y-115000614D01*
X95965000Y-119999385D02*
X95848333Y-119856528D01*
X95765000Y-119999385D02*
X95765000Y-119699385D01*
X95765000Y-119699385D02*
X95898333Y-119699385D01*
X95898333Y-119699385D02*
X95931667Y-119713671D01*
X95931667Y-119713671D02*
X95948333Y-119727957D01*
X95948333Y-119727957D02*
X95965000Y-119756528D01*
X95965000Y-119756528D02*
X95965000Y-119799385D01*
X95965000Y-119799385D02*
X95948333Y-119827957D01*
X95948333Y-119827957D02*
X95931667Y-119842242D01*
X95931667Y-119842242D02*
X95898333Y-119856528D01*
X95898333Y-119856528D02*
X95765000Y-119856528D01*
X96081667Y-119699385D02*
X96315000Y-119999385D01*
X96315000Y-119699385D02*
X96081667Y-119999385D01*
X96431666Y-119727957D02*
X96448333Y-119713671D01*
X96448333Y-119713671D02*
X96481666Y-119699385D01*
X96481666Y-119699385D02*
X96565000Y-119699385D01*
X96565000Y-119699385D02*
X96598333Y-119713671D01*
X96598333Y-119713671D02*
X96615000Y-119727957D01*
X96615000Y-119727957D02*
X96631666Y-119756528D01*
X96631666Y-119756528D02*
X96631666Y-119785100D01*
X96631666Y-119785100D02*
X96615000Y-119827957D01*
X96615000Y-119827957D02*
X96415000Y-119999385D01*
X96415000Y-119999385D02*
X96631666Y-119999385D01*
X101045000Y-119999385D02*
X100928333Y-119856528D01*
X100845000Y-119999385D02*
X100845000Y-119699385D01*
X100845000Y-119699385D02*
X100978333Y-119699385D01*
X100978333Y-119699385D02*
X101011667Y-119713671D01*
X101011667Y-119713671D02*
X101028333Y-119727957D01*
X101028333Y-119727957D02*
X101045000Y-119756528D01*
X101045000Y-119756528D02*
X101045000Y-119799385D01*
X101045000Y-119799385D02*
X101028333Y-119827957D01*
X101028333Y-119827957D02*
X101011667Y-119842242D01*
X101011667Y-119842242D02*
X100978333Y-119856528D01*
X100978333Y-119856528D02*
X100845000Y-119856528D01*
X101161667Y-119699385D02*
X101395000Y-119999385D01*
X101395000Y-119699385D02*
X101161667Y-119999385D01*
X101595000Y-119699385D02*
X101628333Y-119699385D01*
X101628333Y-119699385D02*
X101661666Y-119713671D01*
X101661666Y-119713671D02*
X101678333Y-119727957D01*
X101678333Y-119727957D02*
X101695000Y-119756528D01*
X101695000Y-119756528D02*
X101711666Y-119813671D01*
X101711666Y-119813671D02*
X101711666Y-119885100D01*
X101711666Y-119885100D02*
X101695000Y-119942242D01*
X101695000Y-119942242D02*
X101678333Y-119970814D01*
X101678333Y-119970814D02*
X101661666Y-119985100D01*
X101661666Y-119985100D02*
X101628333Y-119999385D01*
X101628333Y-119999385D02*
X101595000Y-119999385D01*
X101595000Y-119999385D02*
X101561666Y-119985100D01*
X101561666Y-119985100D02*
X101545000Y-119970814D01*
X101545000Y-119970814D02*
X101528333Y-119942242D01*
X101528333Y-119942242D02*
X101511666Y-119885100D01*
X101511666Y-119885100D02*
X101511666Y-119813671D01*
X101511666Y-119813671D02*
X101528333Y-119756528D01*
X101528333Y-119756528D02*
X101545000Y-119727957D01*
X101545000Y-119727957D02*
X101561666Y-119713671D01*
X101561666Y-119713671D02*
X101595000Y-119699385D01*
X99163332Y-115300614D02*
X98963332Y-115300614D01*
X99063332Y-115000614D02*
X99063332Y-115300614D01*
X98879999Y-115300614D02*
X98646665Y-115000614D01*
X98646665Y-115300614D02*
X98879999Y-115000614D01*
X98329999Y-115000614D02*
X98529999Y-115000614D01*
X98429999Y-115000614D02*
X98429999Y-115300614D01*
X98429999Y-115300614D02*
X98463332Y-115257757D01*
X98463332Y-115257757D02*
X98496666Y-115229185D01*
X98496666Y-115229185D02*
X98529999Y-115214900D01*
X98505000Y-119999385D02*
X98388333Y-119856528D01*
X98305000Y-119999385D02*
X98305000Y-119699385D01*
X98305000Y-119699385D02*
X98438333Y-119699385D01*
X98438333Y-119699385D02*
X98471667Y-119713671D01*
X98471667Y-119713671D02*
X98488333Y-119727957D01*
X98488333Y-119727957D02*
X98505000Y-119756528D01*
X98505000Y-119756528D02*
X98505000Y-119799385D01*
X98505000Y-119799385D02*
X98488333Y-119827957D01*
X98488333Y-119827957D02*
X98471667Y-119842242D01*
X98471667Y-119842242D02*
X98438333Y-119856528D01*
X98438333Y-119856528D02*
X98305000Y-119856528D01*
X98621667Y-119699385D02*
X98855000Y-119999385D01*
X98855000Y-119699385D02*
X98621667Y-119999385D01*
X99171666Y-119999385D02*
X98971666Y-119999385D01*
X99071666Y-119999385D02*
X99071666Y-119699385D01*
X99071666Y-119699385D02*
X99038333Y-119742242D01*
X99038333Y-119742242D02*
X99005000Y-119770814D01*
X99005000Y-119770814D02*
X98971666Y-119785100D01*
X119999385Y-98954999D02*
X119856528Y-99071666D01*
X119999385Y-99154999D02*
X119699385Y-99154999D01*
X119699385Y-99154999D02*
X119699385Y-99021666D01*
X119699385Y-99021666D02*
X119713671Y-98988333D01*
X119713671Y-98988333D02*
X119727957Y-98971666D01*
X119727957Y-98971666D02*
X119756528Y-98954999D01*
X119756528Y-98954999D02*
X119799385Y-98954999D01*
X119799385Y-98954999D02*
X119827957Y-98971666D01*
X119827957Y-98971666D02*
X119842242Y-98988333D01*
X119842242Y-98988333D02*
X119856528Y-99021666D01*
X119856528Y-99021666D02*
X119856528Y-99154999D01*
X119699385Y-98838333D02*
X119999385Y-98604999D01*
X119699385Y-98604999D02*
X119999385Y-98838333D01*
X119699385Y-98405000D02*
X119699385Y-98371666D01*
X119699385Y-98371666D02*
X119713671Y-98338333D01*
X119713671Y-98338333D02*
X119727957Y-98321666D01*
X119727957Y-98321666D02*
X119756528Y-98305000D01*
X119756528Y-98305000D02*
X119813671Y-98288333D01*
X119813671Y-98288333D02*
X119885100Y-98288333D01*
X119885100Y-98288333D02*
X119942242Y-98305000D01*
X119942242Y-98305000D02*
X119970814Y-98321666D01*
X119970814Y-98321666D02*
X119985100Y-98338333D01*
X119985100Y-98338333D02*
X119999385Y-98371666D01*
X119999385Y-98371666D02*
X119999385Y-98405000D01*
X119999385Y-98405000D02*
X119985100Y-98438333D01*
X119985100Y-98438333D02*
X119970814Y-98455000D01*
X119970814Y-98455000D02*
X119942242Y-98471666D01*
X119942242Y-98471666D02*
X119885100Y-98488333D01*
X119885100Y-98488333D02*
X119813671Y-98488333D01*
X119813671Y-98488333D02*
X119756528Y-98471666D01*
X119756528Y-98471666D02*
X119727957Y-98455000D01*
X119727957Y-98455000D02*
X119713671Y-98438333D01*
X119713671Y-98438333D02*
X119699385Y-98405000D01*
X115300614Y-100836667D02*
X115300614Y-101036667D01*
X115000614Y-100936667D02*
X115300614Y-100936667D01*
X115300614Y-101120001D02*
X115000614Y-101353334D01*
X115300614Y-101353334D02*
X115000614Y-101120001D01*
X115000614Y-101670000D02*
X115000614Y-101470000D01*
X115000614Y-101570000D02*
X115300614Y-101570000D01*
X115300614Y-101570000D02*
X115257757Y-101536667D01*
X115257757Y-101536667D02*
X115229185Y-101503334D01*
X115229185Y-101503334D02*
X115214900Y-101470000D01*
X119999385Y-104034999D02*
X119856528Y-104151666D01*
X119999385Y-104234999D02*
X119699385Y-104234999D01*
X119699385Y-104234999D02*
X119699385Y-104101666D01*
X119699385Y-104101666D02*
X119713671Y-104068333D01*
X119713671Y-104068333D02*
X119727957Y-104051666D01*
X119727957Y-104051666D02*
X119756528Y-104034999D01*
X119756528Y-104034999D02*
X119799385Y-104034999D01*
X119799385Y-104034999D02*
X119827957Y-104051666D01*
X119827957Y-104051666D02*
X119842242Y-104068333D01*
X119842242Y-104068333D02*
X119856528Y-104101666D01*
X119856528Y-104101666D02*
X119856528Y-104234999D01*
X119699385Y-103918333D02*
X119999385Y-103684999D01*
X119699385Y-103684999D02*
X119999385Y-103918333D01*
X119727957Y-103568333D02*
X119713671Y-103551666D01*
X119713671Y-103551666D02*
X119699385Y-103518333D01*
X119699385Y-103518333D02*
X119699385Y-103435000D01*
X119699385Y-103435000D02*
X119713671Y-103401666D01*
X119713671Y-103401666D02*
X119727957Y-103385000D01*
X119727957Y-103385000D02*
X119756528Y-103368333D01*
X119756528Y-103368333D02*
X119785100Y-103368333D01*
X119785100Y-103368333D02*
X119827957Y-103385000D01*
X119827957Y-103385000D02*
X119999385Y-103585000D01*
X119999385Y-103585000D02*
X119999385Y-103368333D01*
X119999385Y-101494999D02*
X119856528Y-101611666D01*
X119999385Y-101694999D02*
X119699385Y-101694999D01*
X119699385Y-101694999D02*
X119699385Y-101561666D01*
X119699385Y-101561666D02*
X119713671Y-101528333D01*
X119713671Y-101528333D02*
X119727957Y-101511666D01*
X119727957Y-101511666D02*
X119756528Y-101494999D01*
X119756528Y-101494999D02*
X119799385Y-101494999D01*
X119799385Y-101494999D02*
X119827957Y-101511666D01*
X119827957Y-101511666D02*
X119842242Y-101528333D01*
X119842242Y-101528333D02*
X119856528Y-101561666D01*
X119856528Y-101561666D02*
X119856528Y-101694999D01*
X119699385Y-101378333D02*
X119999385Y-101144999D01*
X119699385Y-101144999D02*
X119999385Y-101378333D01*
X119999385Y-100828333D02*
X119999385Y-101028333D01*
X119999385Y-100928333D02*
X119699385Y-100928333D01*
X119699385Y-100928333D02*
X119742242Y-100961666D01*
X119742242Y-100961666D02*
X119770814Y-100995000D01*
X119770814Y-100995000D02*
X119785100Y-101028333D01*
X115300614Y-98296667D02*
X115300614Y-98496667D01*
X115000614Y-98396667D02*
X115300614Y-98396667D01*
X115300614Y-98580001D02*
X115000614Y-98813334D01*
X115300614Y-98813334D02*
X115000614Y-98580001D01*
X115272042Y-98930000D02*
X115286328Y-98946667D01*
X115286328Y-98946667D02*
X115300614Y-98980000D01*
X115300614Y-98980000D02*
X115300614Y-99063334D01*
X115300614Y-99063334D02*
X115286328Y-99096667D01*
X115286328Y-99096667D02*
X115272042Y-99113334D01*
X115272042Y-99113334D02*
X115243471Y-99130000D01*
X115243471Y-99130000D02*
X115214900Y-99130000D01*
X115214900Y-99130000D02*
X115172042Y-99113334D01*
X115172042Y-99113334D02*
X115000614Y-98913334D01*
X115000614Y-98913334D02*
X115000614Y-99130000D01*
X115300614Y-103376667D02*
X115300614Y-103576667D01*
X115000614Y-103476667D02*
X115300614Y-103476667D01*
X115300614Y-103660001D02*
X115000614Y-103893334D01*
X115300614Y-103893334D02*
X115000614Y-103660001D01*
X115300614Y-104093334D02*
X115300614Y-104126667D01*
X115300614Y-104126667D02*
X115286328Y-104160000D01*
X115286328Y-104160000D02*
X115272042Y-104176667D01*
X115272042Y-104176667D02*
X115243471Y-104193334D01*
X115243471Y-104193334D02*
X115186328Y-104210000D01*
X115186328Y-104210000D02*
X115114900Y-104210000D01*
X115114900Y-104210000D02*
X115057757Y-104193334D01*
X115057757Y-104193334D02*
X115029185Y-104176667D01*
X115029185Y-104176667D02*
X115014900Y-104160000D01*
X115014900Y-104160000D02*
X115000614Y-104126667D01*
X115000614Y-104126667D02*
X115000614Y-104093334D01*
X115000614Y-104093334D02*
X115014900Y-104060000D01*
X115014900Y-104060000D02*
X115029185Y-104043334D01*
X115029185Y-104043334D02*
X115057757Y-104026667D01*
X115057757Y-104026667D02*
X115114900Y-104010000D01*
X115114900Y-104010000D02*
X115186328Y-104010000D01*
X115186328Y-104010000D02*
X115243471Y-104026667D01*
X115243471Y-104026667D02*
X115272042Y-104043334D01*
X115272042Y-104043334D02*
X115286328Y-104060000D01*
X115286328Y-104060000D02*
X115300614Y-104093334D01*
D11*
X111138748Y-92865000D02*
X111661252Y-92865000D01*
X111138748Y-94335000D02*
X111661252Y-94335000D01*
D13*
X96952000Y-80468000D02*
X97460000Y-80468000D01*
X97206000Y-80214000D02*
X97206000Y-80722000D01*
X97206000Y-82754000D02*
X97206000Y-83262000D01*
D14*
X99746000Y-83770000D02*
X100254000Y-83770000D01*
X100254000Y-81230000D02*
X99746000Y-81230000D01*
X102286000Y-83770000D02*
X102794000Y-83770000D01*
X102794000Y-81230000D02*
X102286000Y-81230000D01*
D11*
X102540000Y-95007836D02*
X102540000Y-94792164D01*
X103260000Y-95007836D02*
X103260000Y-94792164D01*
X101540000Y-95007836D02*
X101540000Y-94792164D01*
X102260000Y-95007836D02*
X102260000Y-94792164D01*
X93722836Y-100840000D02*
X93507164Y-100840000D01*
X93722836Y-101560000D02*
X93507164Y-101560000D01*
X94242836Y-86640000D02*
X94027164Y-86640000D01*
X94242836Y-87360000D02*
X94027164Y-87360000D01*
X89653641Y-87120000D02*
X89346359Y-87120000D01*
X89653641Y-87880000D02*
X89346359Y-87880000D01*
X107090000Y-86200000D02*
X107090000Y-89960000D01*
X107090000Y-89960000D02*
X108350000Y-89960000D01*
X113910000Y-83950000D02*
X113910000Y-89960000D01*
X113910000Y-89960000D02*
X112650000Y-89960000D01*
X88275000Y-88275000D02*
X88275000Y-88535000D01*
X88275000Y-88535000D02*
X86600000Y-88535000D01*
X88275000Y-93725000D02*
X88275000Y-93465000D01*
X91000000Y-88275000D02*
X88275000Y-88275000D01*
X91000000Y-88275000D02*
X93725000Y-88275000D01*
X91000000Y-93725000D02*
X88275000Y-93725000D01*
X91000000Y-93725000D02*
X93725000Y-93725000D01*
X93725000Y-88275000D02*
X93725000Y-88535000D01*
X93725000Y-93725000D02*
X93725000Y-93465000D01*
X87120000Y-86653641D02*
X87120000Y-86346359D01*
X87880000Y-86653641D02*
X87880000Y-86346359D01*
X100240000Y-92627836D02*
X100240000Y-92412164D01*
X100960000Y-92627836D02*
X100960000Y-92412164D01*
X107094664Y-100390000D02*
X107310336Y-100390000D01*
X107094664Y-101110000D02*
X107310336Y-101110000D01*
X100021000Y-106377164D02*
X100021000Y-106592836D01*
X100741000Y-106377164D02*
X100741000Y-106592836D01*
X101140000Y-106377164D02*
X101140000Y-106592836D01*
X101860000Y-106377164D02*
X101860000Y-106592836D01*
X109938748Y-81665000D02*
X110461252Y-81665000D01*
X109938748Y-83135000D02*
X110461252Y-83135000D01*
X94840000Y-96087836D02*
X94840000Y-95872164D01*
X95560000Y-96087836D02*
X95560000Y-95872164D01*
X104440000Y-89172836D02*
X104440000Y-88957164D01*
X105160000Y-89172836D02*
X105160000Y-88957164D01*
X96390000Y-103610000D02*
X96390000Y-102960000D01*
X97040000Y-96390000D02*
X96390000Y-96390000D01*
X97040000Y-103610000D02*
X96390000Y-103610000D01*
X102960000Y-96390000D02*
X103610000Y-96390000D01*
X102960000Y-103610000D02*
X103610000Y-103610000D01*
X103610000Y-96390000D02*
X103610000Y-97040000D01*
X103610000Y-103610000D02*
X103610000Y-102960000D01*
X99240000Y-92627836D02*
X99240000Y-92412164D01*
X99960000Y-92627836D02*
X99960000Y-92412164D01*
X105712164Y-95340000D02*
X105927836Y-95340000D01*
X105712164Y-96060000D02*
X105927836Y-96060000D01*
X97788748Y-86265000D02*
X98311252Y-86265000D01*
X97788748Y-87735000D02*
X98311252Y-87735000D01*
X117670000Y-88670000D02*
X119000000Y-88670000D01*
X117670000Y-90000000D02*
X117670000Y-88670000D01*
X117670000Y-91270000D02*
X117670000Y-91330000D01*
X117670000Y-91270000D02*
X120330000Y-91270000D01*
X117670000Y-91330000D02*
X120330000Y-91330000D01*
X120330000Y-91270000D02*
X120330000Y-91330000D01*
X104800000Y-105850000D02*
X104800000Y-104450000D01*
X105500000Y-103750000D02*
X106100000Y-103750000D01*
X106100000Y-106550000D02*
X105500000Y-106550000D01*
X106800000Y-104450000D02*
X106800000Y-105850000D01*
X104800000Y-104450000D02*
G75*
G02*
X105500000Y-103750000I700000J0D01*
G01*
X105500000Y-106550000D02*
G75*
G02*
X104800000Y-105850000I-1J699999D01*
G01*
X106100000Y-103750000D02*
G75*
G02*
X106800000Y-104450000I0J-700000D01*
G01*
X106800000Y-105850000D02*
G75*
G02*
X106100000Y-106550000I-699999J-1D01*
G01*
X89150000Y-105800000D02*
X89150000Y-109800000D01*
X92450000Y-105800000D02*
X89150000Y-105800000D01*
X106565000Y-107202500D02*
X106565000Y-109487500D01*
X108035000Y-107202500D02*
X106565000Y-107202500D01*
X108035000Y-109487500D02*
X108035000Y-107202500D01*
D13*
X80214000Y-102794000D02*
X80722000Y-102794000D01*
X80468000Y-103048000D02*
X80468000Y-102540000D01*
D14*
X81230000Y-97206000D02*
X81230000Y-97714000D01*
X81230000Y-99746000D02*
X81230000Y-100254000D01*
D13*
X82754000Y-102794000D02*
X83262000Y-102794000D01*
D14*
X83770000Y-97714000D02*
X83770000Y-97206000D01*
X83770000Y-100254000D02*
X83770000Y-99746000D01*
D11*
X102040000Y-110810000D02*
X102040000Y-109700000D01*
X102800000Y-110810000D02*
X102040000Y-110810000D01*
X103560000Y-108590000D02*
X103495000Y-108590000D01*
X103560000Y-109136529D02*
X103560000Y-108590000D01*
X103560000Y-110810000D02*
X103495000Y-110810000D01*
X103560000Y-110810000D02*
X103560000Y-108590000D01*
X103560000Y-110810000D02*
X103560000Y-110263471D01*
X108312439Y-113556657D02*
X110193343Y-115437561D01*
X111946967Y-109922129D02*
X108312439Y-113556657D01*
X111946967Y-109922129D02*
X113827871Y-111803033D01*
X112844993Y-109024103D02*
X113785445Y-108083651D01*
X113785445Y-108083651D02*
X114725897Y-109024103D01*
X113827871Y-111803033D02*
X110193343Y-115437561D01*
D14*
X97206000Y-118770000D02*
X97714000Y-118770000D01*
X97714000Y-116230000D02*
X97206000Y-116230000D01*
X99746000Y-118770000D02*
X100254000Y-118770000D01*
X100254000Y-116230000D02*
X99746000Y-116230000D01*
D13*
X102794000Y-117246000D02*
X102794000Y-116738000D01*
X102794000Y-119786000D02*
X102794000Y-119278000D01*
X103048000Y-119532000D02*
X102540000Y-119532000D01*
D14*
X116230000Y-99746000D02*
X116230000Y-100254000D01*
X116230000Y-102286000D02*
X116230000Y-102794000D01*
D13*
X117246000Y-97206000D02*
X116738000Y-97206000D01*
D14*
X118770000Y-100254000D02*
X118770000Y-99746000D01*
X118770000Y-102794000D02*
X118770000Y-102286000D01*
D13*
X119532000Y-96952000D02*
X119532000Y-97460000D01*
X119786000Y-97206000D02*
X119278000Y-97206000D01*
D11*
X105520000Y-109443641D02*
X105520000Y-109136359D01*
X106280000Y-109443641D02*
X106280000Y-109136359D01*
X95800000Y-106190000D02*
X94300000Y-106190000D01*
X95800000Y-106190000D02*
X97300000Y-106190000D01*
X95800000Y-109410000D02*
X94300000Y-109410000D01*
X95800000Y-109410000D02*
X97300000Y-109410000D01*
X93587500Y-106365000D02*
X93347500Y-106035000D01*
X93827500Y-106035000D01*
X93587500Y-106365000D01*
G36*
X93587500Y-106365000D02*
G01*
X93347500Y-106035000D01*
X93827500Y-106035000D01*
X93587500Y-106365000D01*
G37*
%LPC*%
D15*
X110450000Y-93600000D03*
X112350000Y-93600000D03*
D16*
X96190000Y-83770000D03*
D17*
X96190000Y-81230000D03*
X98730000Y-83770000D03*
X98730000Y-81230000D03*
X101270000Y-83770000D03*
X101270000Y-81230000D03*
X103810000Y-83770000D03*
X103810000Y-81230000D03*
D18*
X102900000Y-95380000D03*
X102900000Y-94420000D03*
X101900000Y-95380000D03*
X101900000Y-94420000D03*
D19*
X94095000Y-101200000D03*
X93135000Y-101200000D03*
X94615000Y-87000000D03*
X93655000Y-87000000D03*
D20*
X90010000Y-87500000D03*
X88990000Y-87500000D03*
D21*
X112800000Y-84900000D03*
X110500000Y-84900000D03*
D22*
X110500000Y-91200000D03*
D21*
X108200000Y-84900000D03*
D23*
X87400000Y-89095000D03*
X87400000Y-90365000D03*
X87400000Y-91635000D03*
X87400000Y-92905000D03*
X94600000Y-92905000D03*
X94600000Y-91635000D03*
X94600000Y-90365000D03*
X94600000Y-89095000D03*
D24*
X87500000Y-87010000D03*
X87500000Y-85990000D03*
D18*
X100600000Y-93000000D03*
X100600000Y-92040000D03*
D25*
X106722500Y-100750000D03*
X107682500Y-100750000D03*
D26*
X100381000Y-106005000D03*
X100381000Y-106965000D03*
X101500000Y-106005000D03*
X101500000Y-106965000D03*
D15*
X109250000Y-82400000D03*
X111150000Y-82400000D03*
D18*
X95200000Y-96460000D03*
X95200000Y-95500000D03*
X104800000Y-89545000D03*
X104800000Y-88585000D03*
D27*
X96562500Y-97400000D03*
X96562500Y-97800000D03*
X96562500Y-98200000D03*
X96562500Y-98600000D03*
X96562500Y-99000000D03*
X96562500Y-99400000D03*
X96562500Y-99800000D03*
X96562500Y-100200000D03*
X96562500Y-100600000D03*
X96562500Y-101000000D03*
X96562500Y-101400000D03*
X96562500Y-101800000D03*
X96562500Y-102200000D03*
X96562500Y-102600000D03*
D28*
X97400000Y-103437500D03*
X97800000Y-103437500D03*
X98200000Y-103437500D03*
X98600000Y-103437500D03*
X99000000Y-103437500D03*
X99400000Y-103437500D03*
X99800000Y-103437500D03*
X100200000Y-103437500D03*
X100600000Y-103437500D03*
X101000000Y-103437500D03*
X101400000Y-103437500D03*
X101800000Y-103437500D03*
X102200000Y-103437500D03*
X102600000Y-103437500D03*
D27*
X103437500Y-102600000D03*
X103437500Y-102200000D03*
X103437500Y-101800000D03*
X103437500Y-101400000D03*
X103437500Y-101000000D03*
X103437500Y-100600000D03*
X103437500Y-100200000D03*
X103437500Y-99800000D03*
X103437500Y-99400000D03*
X103437500Y-99000000D03*
X103437500Y-98600000D03*
X103437500Y-98200000D03*
X103437500Y-97800000D03*
X103437500Y-97400000D03*
D28*
X102600000Y-96562500D03*
X102200000Y-96562500D03*
X101800000Y-96562500D03*
X101400000Y-96562500D03*
X101000000Y-96562500D03*
X100600000Y-96562500D03*
X100200000Y-96562500D03*
X99800000Y-96562500D03*
X99400000Y-96562500D03*
X99000000Y-96562500D03*
X98600000Y-96562500D03*
X98200000Y-96562500D03*
X97800000Y-96562500D03*
X97400000Y-96562500D03*
D29*
X100000000Y-100000000D03*
D30*
X83000000Y-83000000D03*
X117000000Y-117000000D03*
D18*
X99600000Y-93000000D03*
X99600000Y-92040000D03*
D25*
X105340000Y-95700000D03*
X106300000Y-95700000D03*
D30*
X117000000Y-83000000D03*
X83000000Y-117000000D03*
D15*
X97100000Y-87000000D03*
X99000000Y-87000000D03*
D31*
X119000000Y-90000000D03*
D32*
X105800000Y-105800000D03*
D33*
X105800000Y-104500000D03*
D34*
X89950000Y-106700000D03*
X89950000Y-108900000D03*
X91650000Y-108900000D03*
X91650000Y-106700000D03*
D35*
X107300000Y-107900000D03*
X107300000Y-109475000D03*
D36*
X83770000Y-103810000D03*
D17*
X81230000Y-103810000D03*
X83770000Y-101270000D03*
X81230000Y-101270000D03*
X83770000Y-98730000D03*
X81230000Y-98730000D03*
X83770000Y-96190000D03*
X81230000Y-96190000D03*
D37*
X102800000Y-109700000D03*
D38*
X113785445Y-109964555D03*
D39*
X111989394Y-111760606D03*
X110193343Y-113556657D03*
D40*
X103810000Y-116230000D03*
D17*
X103810000Y-118770000D03*
X101270000Y-116230000D03*
X101270000Y-118770000D03*
X98730000Y-116230000D03*
X98730000Y-118770000D03*
X96190000Y-116230000D03*
X96190000Y-118770000D03*
D41*
X81000000Y-92500000D03*
X84500000Y-92500000D03*
X81000000Y-86500000D03*
X84500000Y-86500000D03*
D42*
X116230000Y-96190000D03*
D17*
X118770000Y-96190000D03*
X116230000Y-98730000D03*
X118770000Y-98730000D03*
X116230000Y-101270000D03*
X118770000Y-101270000D03*
X116230000Y-103810000D03*
X118770000Y-103810000D03*
D24*
X105900000Y-109800000D03*
X105900000Y-108780000D03*
D43*
X93687500Y-106800000D03*
X93687500Y-107300000D03*
X93687500Y-107800000D03*
X93687500Y-108300000D03*
X93687500Y-108800000D03*
X97912500Y-108800000D03*
X97912500Y-108300000D03*
X97912500Y-107800000D03*
X97912500Y-107300000D03*
X97912500Y-106800000D03*
D44*
X90501148Y-114701148D03*
X88705096Y-112905096D03*
X86909045Y-111109045D03*
D45*
X85112994Y-109312994D03*
%LPD*%
M02*
