M48
; DRILL file {KiCad 8.0.7} date 2025-01-22T20:15:07+0100
; FORMAT={-:-/ absolute / metric / decimal}
; #@! TF.CreationDate,2025-01-22T20:15:07+01:00
; #@! TF.GenerationSoftware,Kicad,Pcbnew,8.0.7
; #@! TF.FileFunction,Plated,1,2,PTH
FMAT,2
METRIC
; #@! TA.AperFunction,Plated,PTH,ViaDrill
T1C0.350
; #@! TA.AperFunction,Plated,PTH,ComponentDrill
T2C0.350
; #@! TA.AperFunction,Plated,PTH,ComponentDrill
T3C0.650
; #@! TA.AperFunction,Plated,PTH,ComponentDrill
T4C1.000
%
G90
G05
T1
X81.0Y-113.0
X86.0Y-97.6
X89.25Y-98.5
X90.0Y-92.5
X90.0Y-98.13
X90.75Y-97.75
X91.1Y-101.2
X91.2Y-103.9
X91.5Y-97.25
X92.25Y-96.75
X92.65Y-86.97
X93.0Y-96.25
X93.8Y-95.4
X94.2Y-105.6
X95.4Y-105.4
X98.5Y-105.6
X99.05Y-88.6
X99.6Y-91.205
X99.6Y-108.4
X99.8Y-95.2
X100.381Y-107.782
X100.5Y-113.9
X100.6Y-102.1
X100.6Y-91.205
X100.7Y-97.9
X100.8Y-105.2
X101.5Y-107.782
X102.0Y-111.6
X102.3Y-92.8
X102.9Y-93.1
X103.2Y-111.5
X104.1Y-106.9
X104.8Y-87.57
X104.9Y-98.7
X105.2Y-102.3
X105.6Y-98.225
X105.8Y-104.4
X105.8Y-107.4
X105.9Y-112.5
X106.0Y-97.1
X106.6Y-94.8
X107.2Y-99.0
X107.481Y-95.976
X108.7Y-99.4
X108.718Y-100.75
X109.9Y-107.4
X110.0Y-96.8
X112.6Y-82.8
X113.6Y-93.2
X114.0Y-95.5
X118.4Y-112.8
T2
X98.725Y-98.725
X98.725Y-100.0
X98.725Y-101.275
X100.0Y-98.725
X100.0Y-100.0
X100.0Y-101.275
X101.275Y-98.725
X101.275Y-100.0
X101.275Y-101.275
T3
X102.8Y-109.7
T4
X81.23Y-96.19
X81.23Y-98.73
X81.23Y-101.27
X81.23Y-103.81
X83.77Y-96.19
X83.77Y-98.73
X83.77Y-101.27
X83.77Y-103.81
X85.113Y-109.313
X86.909Y-111.109
X88.705Y-112.905
X90.501Y-114.701
X96.19Y-81.23
X96.19Y-83.77
X96.19Y-116.23
X96.19Y-118.77
X98.7Y-111.6
X98.73Y-81.23
X98.73Y-83.77
X98.73Y-116.23
X98.73Y-118.77
X101.27Y-81.23
X101.27Y-83.77
X101.27Y-116.23
X101.27Y-118.77
X103.81Y-81.23
X103.81Y-83.77
X103.81Y-116.23
X103.81Y-118.77
X110.193Y-113.557
X111.989Y-111.761
X113.785Y-109.965
X116.23Y-96.38
X116.23Y-98.92
X116.23Y-101.46
X116.23Y-104.0
X118.77Y-96.38
X118.77Y-98.92
X118.77Y-101.46
X118.77Y-104.0
X119.0Y-90.0
M30
