G04 #@! TF.GenerationSoftware,KiCad,Pcbnew,8.0.6*
G04 #@! TF.CreationDate,2025-01-25T09:56:42+01:00*
G04 #@! TF.ProjectId,RP2040_minimal_r2,52503230-3430-45f6-9d69-6e696d616c5f,REV2*
G04 #@! TF.SameCoordinates,Original*
G04 #@! TF.FileFunction,Soldermask,Top*
G04 #@! TF.FilePolarity,Negative*
%FSLAX46Y46*%
G04 Gerber Fmt 4.6, Leading zero omitted, Abs format (unit mm)*
G04 Created by KiCad (PCBNEW 8.0.6) date 2025-01-25 09:56:42*
%MOMM*%
%LPD*%
G01*
G04 APERTURE LIST*
G04 Aperture macros list*
%AMRoundRect*
0 Rectangle with rounded corners*
0 $1 Rounding radius*
0 $2 $3 $4 $5 $6 $7 $8 $9 X,Y pos of 4 corners*
0 Add a 4 corners polygon primitive as box body*
4,1,4,$2,$3,$4,$5,$6,$7,$8,$9,$2,$3,0*
0 Add four circle primitives for the rounded corners*
1,1,$1+$1,$2,$3*
1,1,$1+$1,$4,$5*
1,1,$1+$1,$6,$7*
1,1,$1+$1,$8,$9*
0 Add four rect primitives between the rounded corners*
20,1,$1+$1,$2,$3,$4,$5,0*
20,1,$1+$1,$4,$5,$6,$7,0*
20,1,$1+$1,$6,$7,$8,$9,0*
20,1,$1+$1,$8,$9,$2,$3,0*%
%AMHorizOval*
0 Thick line with rounded ends*
0 $1 width*
0 $2 $3 position (X,Y) of the first rounded end (center of the circle)*
0 $4 $5 position (X,Y) of the second rounded end (center of the circle)*
0 Add line between two ends*
20,1,$1,$2,$3,$4,$5,0*
0 Add two circle primitives to create the rounded ends*
1,1,$1,$2,$3*
1,1,$1,$4,$5*%
%AMRotRect*
0 Rectangle, with rotation*
0 The origin of the aperture is its center*
0 $1 length*
0 $2 width*
0 $3 Rotation angle, in degrees counterclockwise*
0 Add horizontal line*
21,1,$1,$2,0,0,$3*%
%AMFreePoly0*
4,1,19,0.500000,-0.750000,0.000000,-0.750000,0.000000,-0.744911,-0.071157,-0.744911,-0.207708,-0.704816,-0.327430,-0.627875,-0.420627,-0.520320,-0.479746,-0.390866,-0.500000,-0.250000,-0.500000,0.250000,-0.479746,0.390866,-0.420627,0.520320,-0.327430,0.627875,-0.207708,0.704816,-0.071157,0.744911,0.000000,0.744911,0.000000,0.750000,0.500000,0.750000,0.500000,-0.750000,0.500000,-0.750000,
$1*%
%AMFreePoly1*
4,1,19,0.000000,0.744911,0.071157,0.744911,0.207708,0.704816,0.327430,0.627875,0.420627,0.520320,0.479746,0.390866,0.500000,0.250000,0.500000,-0.250000,0.479746,-0.390866,0.420627,-0.520320,0.327430,-0.627875,0.207708,-0.704816,0.071157,-0.744911,0.000000,-0.744911,0.000000,-0.750000,-0.500000,-0.750000,-0.500000,0.750000,0.000000,0.750000,0.000000,0.744911,0.000000,0.744911,
$1*%
G04 Aperture macros list end*
%ADD10RoundRect,0.250000X-0.250000X-0.475000X0.250000X-0.475000X0.250000X0.475000X-0.250000X0.475000X0*%
%ADD11RoundRect,0.140000X0.170000X-0.140000X0.170000X0.140000X-0.170000X0.140000X-0.170000X-0.140000X0*%
%ADD12RoundRect,0.140000X0.140000X0.170000X-0.140000X0.170000X-0.140000X-0.170000X0.140000X-0.170000X0*%
%ADD13RoundRect,0.135000X0.135000X0.185000X-0.135000X0.185000X-0.135000X-0.185000X0.135000X-0.185000X0*%
%ADD14R,1.500000X2.000000*%
%ADD15R,3.800000X2.000000*%
%ADD16RoundRect,0.150000X-0.650000X-0.150000X0.650000X-0.150000X0.650000X0.150000X-0.650000X0.150000X0*%
%ADD17RoundRect,0.135000X0.185000X-0.135000X0.185000X0.135000X-0.185000X0.135000X-0.185000X-0.135000X0*%
%ADD18RoundRect,0.140000X-0.140000X-0.170000X0.140000X-0.170000X0.140000X0.170000X-0.140000X0.170000X0*%
%ADD19RoundRect,0.140000X-0.170000X0.140000X-0.170000X-0.140000X0.170000X-0.140000X0.170000X0.140000X0*%
%ADD20RoundRect,0.050000X-0.387500X-0.050000X0.387500X-0.050000X0.387500X0.050000X-0.387500X0.050000X0*%
%ADD21RoundRect,0.050000X-0.050000X-0.387500X0.050000X-0.387500X0.050000X0.387500X-0.050000X0.387500X0*%
%ADD22RoundRect,0.144000X-1.456000X-1.456000X1.456000X-1.456000X1.456000X1.456000X-1.456000X1.456000X0*%
%ADD23C,2.700000*%
%ADD24C,1.500000*%
%ADD25R,1.700000X1.700000*%
%ADD26C,1.700000*%
%ADD27FreePoly0,90.000000*%
%ADD28FreePoly1,90.000000*%
%ADD29R,1.200000X1.400000*%
%ADD30RoundRect,0.218750X-0.256250X0.218750X-0.256250X-0.218750X0.256250X-0.218750X0.256250X0.218750X0*%
%ADD31R,1.000000X1.000000*%
%ADD32RotRect,1.700000X1.700000X315.000000*%
%ADD33HorizOval,1.700000X0.000000X0.000000X0.000000X0.000000X0*%
%ADD34R,0.750000X1.000000*%
%ADD35RoundRect,0.087500X-0.725000X-0.087500X0.725000X-0.087500X0.725000X0.087500X-0.725000X0.087500X0*%
%ADD36RotRect,1.700000X1.700000X225.000000*%
%ADD37HorizOval,1.700000X0.000000X0.000000X0.000000X0.000000X0*%
%ADD38C,0.600000*%
G04 APERTURE END LIST*
D10*
X110450000Y-93600000D03*
X112350000Y-93600000D03*
D11*
X102700000Y-95380000D03*
X102700000Y-94420000D03*
X101700000Y-95380000D03*
X101700000Y-94420000D03*
D12*
X94095000Y-101200000D03*
X93135000Y-101200000D03*
X94615000Y-87000000D03*
X93655000Y-87000000D03*
D13*
X90010000Y-87500000D03*
X88990000Y-87500000D03*
D14*
X112800000Y-84900000D03*
X110500000Y-84900000D03*
D15*
X110500000Y-91200000D03*
D14*
X108200000Y-84900000D03*
D16*
X87400000Y-89095000D03*
X87400000Y-90365000D03*
X87400000Y-91635000D03*
X87400000Y-92905000D03*
X94600000Y-92905000D03*
X94600000Y-91635000D03*
X94600000Y-90365000D03*
X94600000Y-89095000D03*
D17*
X87500000Y-87010000D03*
X87500000Y-85990000D03*
D11*
X100600000Y-93000000D03*
X100600000Y-92040000D03*
D18*
X106722500Y-100750000D03*
X107682500Y-100750000D03*
D19*
X100381000Y-106005000D03*
X100381000Y-106965000D03*
X101500000Y-106005000D03*
X101500000Y-106965000D03*
D10*
X109250000Y-82400000D03*
X111150000Y-82400000D03*
D11*
X95200000Y-96460000D03*
X95200000Y-95500000D03*
X104800000Y-89545000D03*
X104800000Y-88585000D03*
D20*
X96562500Y-97400000D03*
X96562500Y-97800000D03*
X96562500Y-98200000D03*
X96562500Y-98600000D03*
X96562500Y-99000000D03*
X96562500Y-99400000D03*
X96562500Y-99800000D03*
X96562500Y-100200000D03*
X96562500Y-100600000D03*
X96562500Y-101000000D03*
X96562500Y-101400000D03*
X96562500Y-101800000D03*
X96562500Y-102200000D03*
X96562500Y-102600000D03*
D21*
X97400000Y-103437500D03*
X97800000Y-103437500D03*
X98200000Y-103437500D03*
X98600000Y-103437500D03*
X99000000Y-103437500D03*
X99400000Y-103437500D03*
X99800000Y-103437500D03*
X100200000Y-103437500D03*
X100600000Y-103437500D03*
X101000000Y-103437500D03*
X101400000Y-103437500D03*
X101800000Y-103437500D03*
X102200000Y-103437500D03*
X102600000Y-103437500D03*
D20*
X103437500Y-102600000D03*
X103437500Y-102200000D03*
X103437500Y-101800000D03*
X103437500Y-101400000D03*
X103437500Y-101000000D03*
X103437500Y-100600000D03*
X103437500Y-100200000D03*
X103437500Y-99800000D03*
X103437500Y-99400000D03*
X103437500Y-99000000D03*
X103437500Y-98600000D03*
X103437500Y-98200000D03*
X103437500Y-97800000D03*
X103437500Y-97400000D03*
D21*
X102600000Y-96562500D03*
X102200000Y-96562500D03*
X101800000Y-96562500D03*
X101400000Y-96562500D03*
X101000000Y-96562500D03*
X100600000Y-96562500D03*
X100200000Y-96562500D03*
X99800000Y-96562500D03*
X99400000Y-96562500D03*
X99000000Y-96562500D03*
X98600000Y-96562500D03*
X98200000Y-96562500D03*
X97800000Y-96562500D03*
X97400000Y-96562500D03*
D22*
X100000000Y-100000000D03*
D23*
X83000000Y-83000000D03*
X117000000Y-117000000D03*
D11*
X99600000Y-93000000D03*
X99600000Y-92040000D03*
D18*
X105340000Y-95700000D03*
X106300000Y-95700000D03*
D23*
X117000000Y-83000000D03*
X83000000Y-117000000D03*
D10*
X98200000Y-88200000D03*
X100100000Y-88200000D03*
D24*
X119000000Y-90000000D03*
D25*
X103810000Y-116230000D03*
D26*
X103810000Y-118770000D03*
X101270000Y-116230000D03*
X101270000Y-118770000D03*
X98730000Y-116230000D03*
X98730000Y-118770000D03*
X96190000Y-116230000D03*
X96190000Y-118770000D03*
D25*
X98700000Y-112700000D03*
D27*
X107000000Y-105800000D03*
D28*
X107000000Y-104500000D03*
D29*
X89950000Y-106700000D03*
X89950000Y-108900000D03*
X91650000Y-108900000D03*
X91650000Y-106700000D03*
D30*
X107300000Y-107900000D03*
X107300000Y-109475000D03*
D31*
X102800000Y-109700000D03*
D25*
X83770000Y-103810000D03*
D26*
X81230000Y-103810000D03*
X83770000Y-101270000D03*
X81230000Y-101270000D03*
X83770000Y-98730000D03*
X81230000Y-98730000D03*
X83770000Y-96190000D03*
X81230000Y-96190000D03*
D19*
X93300000Y-104540000D03*
X93300000Y-105500000D03*
D25*
X116230000Y-96380000D03*
D26*
X118770000Y-96380000D03*
X116230000Y-98920000D03*
X118770000Y-98920000D03*
X116230000Y-101460000D03*
X118770000Y-101460000D03*
X116230000Y-104000000D03*
X118770000Y-104000000D03*
D32*
X113785445Y-109964555D03*
D33*
X111989394Y-111760606D03*
X110193343Y-113556657D03*
D34*
X81000000Y-92400000D03*
X84500000Y-92400000D03*
X81000000Y-86400000D03*
X84500000Y-86400000D03*
D17*
X105900000Y-109800000D03*
X105900000Y-108780000D03*
D35*
X93687500Y-106800000D03*
X93687500Y-107300000D03*
X93687500Y-107800000D03*
X93687500Y-108300000D03*
X93687500Y-108800000D03*
X97912500Y-108800000D03*
X97912500Y-108300000D03*
X97912500Y-107800000D03*
X97912500Y-107300000D03*
X97912500Y-106800000D03*
D25*
X96190000Y-83770000D03*
D26*
X96190000Y-81230000D03*
X98730000Y-83770000D03*
X98730000Y-81230000D03*
X101270000Y-83770000D03*
X101270000Y-81230000D03*
X103810000Y-83770000D03*
X103810000Y-81230000D03*
D36*
X85112994Y-109312994D03*
D37*
X86909045Y-111109045D03*
X88705096Y-112905096D03*
X90501148Y-114701148D03*
D38*
X112600000Y-82800000D03*
X99600000Y-91205008D03*
X86700000Y-98000000D03*
X109900000Y-107400000D03*
X81000000Y-113000000D03*
X108717500Y-100750000D03*
X101500000Y-88200000D03*
X101500000Y-107782004D03*
X93800000Y-95400000D03*
X91100000Y-101200000D03*
X103300000Y-93125000D03*
X104800000Y-87570000D03*
X102300000Y-92800000D03*
X98500000Y-105600000D03*
X92650000Y-86970000D03*
X90000000Y-92500000D03*
X100380994Y-107781990D03*
X105900000Y-112500000D03*
X106600000Y-94800000D03*
X118400000Y-112800000D03*
X101500000Y-113000000D03*
X113600000Y-93200000D03*
X100600000Y-91205000D03*
X110000000Y-96800000D03*
X91200000Y-103900000D03*
X99800000Y-95199994D03*
X100700000Y-97900000D03*
X100800000Y-105200000D03*
X100599970Y-102100000D03*
X89250000Y-98500000D03*
X90000000Y-98130000D03*
X90750000Y-97750000D03*
X91500000Y-97250000D03*
X92250000Y-96750000D03*
X93000000Y-96250000D03*
X107481268Y-95976268D03*
X106000000Y-97100000D03*
X105600000Y-98225000D03*
X94200000Y-105600000D03*
X95400000Y-105400000D03*
X104900000Y-98700000D03*
X112700000Y-96700000D03*
X107200000Y-99000000D03*
X108700000Y-99400000D03*
X105200000Y-102300000D03*
X105200000Y-104400000D03*
X103200000Y-111500000D03*
X102000000Y-111600000D03*
X104100000Y-106900000D03*
X99600000Y-108400000D03*
X105800000Y-107400000D03*
M02*
