G04 #@! TF.GenerationSoftware,KiCad,Pcbnew,8.0.6*
G04 #@! TF.CreationDate,2025-01-19T20:24:15+01:00*
G04 #@! TF.ProjectId,RP2040_minimal_r2,52503230-3430-45f6-9d69-6e696d616c5f,REV2*
G04 #@! TF.SameCoordinates,Original*
G04 #@! TF.FileFunction,Soldermask,Bot*
G04 #@! TF.FilePolarity,Negative*
%FSLAX46Y46*%
G04 Gerber Fmt 4.6, Leading zero omitted, Abs format (unit mm)*
G04 Created by KiCad (PCBNEW 8.0.6) date 2025-01-19 20:24:15*
%MOMM*%
%LPD*%
G01*
G04 APERTURE LIST*
G04 APERTURE END LIST*
G36*
X96237913Y-117873936D02*
G01*
X96284180Y-117873936D01*
X96324129Y-117882427D01*
X96365733Y-117886525D01*
X96417998Y-117902379D01*
X96468424Y-117913098D01*
X96500694Y-117927465D01*
X96534712Y-117937785D01*
X96588767Y-117966678D01*
X96640500Y-117989711D01*
X96664551Y-118007185D01*
X96690447Y-118021027D01*
X96743271Y-118064378D01*
X96792887Y-118100427D01*
X96808996Y-118118318D01*
X96826948Y-118133051D01*
X96875188Y-118191831D01*
X96918924Y-118240405D01*
X96928111Y-118256319D01*
X96938972Y-118269552D01*
X96979149Y-118344719D01*
X97013104Y-118403530D01*
X97017009Y-118415550D01*
X97022214Y-118425287D01*
X97050913Y-118519896D01*
X97071311Y-118582672D01*
X97072028Y-118589502D01*
X97073474Y-118594266D01*
X97087536Y-118737042D01*
X97091000Y-118770000D01*
X97087535Y-118802959D01*
X97073474Y-118945733D01*
X97072029Y-118950496D01*
X97071311Y-118957328D01*
X97050909Y-119020117D01*
X97022214Y-119114712D01*
X97017010Y-119124447D01*
X97013104Y-119136470D01*
X96979142Y-119195293D01*
X96938972Y-119270447D01*
X96928113Y-119283677D01*
X96918924Y-119299595D01*
X96875178Y-119348178D01*
X96826948Y-119406948D01*
X96809000Y-119421677D01*
X96792887Y-119439573D01*
X96743260Y-119475628D01*
X96690447Y-119518972D01*
X96664557Y-119532810D01*
X96640500Y-119550289D01*
X96588756Y-119573326D01*
X96534712Y-119602214D01*
X96500701Y-119612531D01*
X96468424Y-119626902D01*
X96417987Y-119637622D01*
X96365733Y-119653474D01*
X96324138Y-119657570D01*
X96284180Y-119666064D01*
X96237903Y-119666064D01*
X96190000Y-119670782D01*
X96142097Y-119666064D01*
X96095820Y-119666064D01*
X96055862Y-119657570D01*
X96014266Y-119653474D01*
X95962009Y-119637621D01*
X95911576Y-119626902D01*
X95879300Y-119612532D01*
X95845287Y-119602214D01*
X95791237Y-119573323D01*
X95739500Y-119550289D01*
X95715445Y-119532812D01*
X95689552Y-119518972D01*
X95636730Y-119475622D01*
X95587113Y-119439573D01*
X95571002Y-119421680D01*
X95553051Y-119406948D01*
X95504809Y-119348166D01*
X95461076Y-119299595D01*
X95451888Y-119283681D01*
X95441027Y-119270447D01*
X95400844Y-119195269D01*
X95366896Y-119136470D01*
X95362991Y-119124451D01*
X95357785Y-119114712D01*
X95329075Y-119020071D01*
X95308689Y-118957328D01*
X95307971Y-118950501D01*
X95306525Y-118945733D01*
X95292448Y-118802808D01*
X95289000Y-118770000D01*
X95292448Y-118737194D01*
X95306525Y-118594266D01*
X95307971Y-118589497D01*
X95308689Y-118582672D01*
X95329071Y-118519942D01*
X95357785Y-118425287D01*
X95362991Y-118415545D01*
X95366896Y-118403530D01*
X95400836Y-118344742D01*
X95441027Y-118269552D01*
X95451890Y-118256314D01*
X95461076Y-118240405D01*
X95504800Y-118191843D01*
X95553051Y-118133051D01*
X95571005Y-118118315D01*
X95587113Y-118100427D01*
X95636720Y-118064385D01*
X95689552Y-118021027D01*
X95715450Y-118007183D01*
X95739500Y-117989711D01*
X95791226Y-117966681D01*
X95845287Y-117937785D01*
X95879307Y-117927464D01*
X95911576Y-117913098D01*
X95961998Y-117902380D01*
X96014266Y-117886525D01*
X96055871Y-117882427D01*
X96095820Y-117873936D01*
X96142086Y-117873936D01*
X96190000Y-117869217D01*
X96237913Y-117873936D01*
G37*
G36*
X98777913Y-117873936D02*
G01*
X98824180Y-117873936D01*
X98864129Y-117882427D01*
X98905733Y-117886525D01*
X98957998Y-117902379D01*
X99008424Y-117913098D01*
X99040694Y-117927465D01*
X99074712Y-117937785D01*
X99128767Y-117966678D01*
X99180500Y-117989711D01*
X99204551Y-118007185D01*
X99230447Y-118021027D01*
X99283271Y-118064378D01*
X99332887Y-118100427D01*
X99348996Y-118118318D01*
X99366948Y-118133051D01*
X99415188Y-118191831D01*
X99458924Y-118240405D01*
X99468111Y-118256319D01*
X99478972Y-118269552D01*
X99519149Y-118344719D01*
X99553104Y-118403530D01*
X99557009Y-118415550D01*
X99562214Y-118425287D01*
X99590913Y-118519896D01*
X99611311Y-118582672D01*
X99612028Y-118589502D01*
X99613474Y-118594266D01*
X99627536Y-118737042D01*
X99631000Y-118770000D01*
X99627535Y-118802959D01*
X99613474Y-118945733D01*
X99612029Y-118950496D01*
X99611311Y-118957328D01*
X99590909Y-119020117D01*
X99562214Y-119114712D01*
X99557010Y-119124447D01*
X99553104Y-119136470D01*
X99519142Y-119195293D01*
X99478972Y-119270447D01*
X99468113Y-119283677D01*
X99458924Y-119299595D01*
X99415178Y-119348178D01*
X99366948Y-119406948D01*
X99349000Y-119421677D01*
X99332887Y-119439573D01*
X99283260Y-119475628D01*
X99230447Y-119518972D01*
X99204557Y-119532810D01*
X99180500Y-119550289D01*
X99128756Y-119573326D01*
X99074712Y-119602214D01*
X99040701Y-119612531D01*
X99008424Y-119626902D01*
X98957987Y-119637622D01*
X98905733Y-119653474D01*
X98864138Y-119657570D01*
X98824180Y-119666064D01*
X98777903Y-119666064D01*
X98730000Y-119670782D01*
X98682097Y-119666064D01*
X98635820Y-119666064D01*
X98595862Y-119657570D01*
X98554266Y-119653474D01*
X98502009Y-119637621D01*
X98451576Y-119626902D01*
X98419300Y-119612532D01*
X98385287Y-119602214D01*
X98331237Y-119573323D01*
X98279500Y-119550289D01*
X98255445Y-119532812D01*
X98229552Y-119518972D01*
X98176730Y-119475622D01*
X98127113Y-119439573D01*
X98111002Y-119421680D01*
X98093051Y-119406948D01*
X98044809Y-119348166D01*
X98001076Y-119299595D01*
X97991888Y-119283681D01*
X97981027Y-119270447D01*
X97940844Y-119195269D01*
X97906896Y-119136470D01*
X97902991Y-119124451D01*
X97897785Y-119114712D01*
X97869075Y-119020071D01*
X97848689Y-118957328D01*
X97847971Y-118950501D01*
X97846525Y-118945733D01*
X97832448Y-118802808D01*
X97829000Y-118770000D01*
X97832448Y-118737194D01*
X97846525Y-118594266D01*
X97847971Y-118589497D01*
X97848689Y-118582672D01*
X97869071Y-118519942D01*
X97897785Y-118425287D01*
X97902991Y-118415545D01*
X97906896Y-118403530D01*
X97940836Y-118344742D01*
X97981027Y-118269552D01*
X97991890Y-118256314D01*
X98001076Y-118240405D01*
X98044800Y-118191843D01*
X98093051Y-118133051D01*
X98111005Y-118118315D01*
X98127113Y-118100427D01*
X98176720Y-118064385D01*
X98229552Y-118021027D01*
X98255450Y-118007183D01*
X98279500Y-117989711D01*
X98331226Y-117966681D01*
X98385287Y-117937785D01*
X98419307Y-117927464D01*
X98451576Y-117913098D01*
X98501998Y-117902380D01*
X98554266Y-117886525D01*
X98595871Y-117882427D01*
X98635820Y-117873936D01*
X98682086Y-117873936D01*
X98730000Y-117869217D01*
X98777913Y-117873936D01*
G37*
G36*
X101317913Y-117873936D02*
G01*
X101364180Y-117873936D01*
X101404129Y-117882427D01*
X101445733Y-117886525D01*
X101497998Y-117902379D01*
X101548424Y-117913098D01*
X101580694Y-117927465D01*
X101614712Y-117937785D01*
X101668767Y-117966678D01*
X101720500Y-117989711D01*
X101744551Y-118007185D01*
X101770447Y-118021027D01*
X101823271Y-118064378D01*
X101872887Y-118100427D01*
X101888996Y-118118318D01*
X101906948Y-118133051D01*
X101955188Y-118191831D01*
X101998924Y-118240405D01*
X102008111Y-118256319D01*
X102018972Y-118269552D01*
X102059149Y-118344719D01*
X102093104Y-118403530D01*
X102097009Y-118415550D01*
X102102214Y-118425287D01*
X102130913Y-118519896D01*
X102151311Y-118582672D01*
X102152028Y-118589502D01*
X102153474Y-118594266D01*
X102167536Y-118737042D01*
X102171000Y-118770000D01*
X102167535Y-118802959D01*
X102153474Y-118945733D01*
X102152029Y-118950496D01*
X102151311Y-118957328D01*
X102130909Y-119020117D01*
X102102214Y-119114712D01*
X102097010Y-119124447D01*
X102093104Y-119136470D01*
X102059142Y-119195293D01*
X102018972Y-119270447D01*
X102008113Y-119283677D01*
X101998924Y-119299595D01*
X101955178Y-119348178D01*
X101906948Y-119406948D01*
X101889000Y-119421677D01*
X101872887Y-119439573D01*
X101823260Y-119475628D01*
X101770447Y-119518972D01*
X101744557Y-119532810D01*
X101720500Y-119550289D01*
X101668756Y-119573326D01*
X101614712Y-119602214D01*
X101580701Y-119612531D01*
X101548424Y-119626902D01*
X101497987Y-119637622D01*
X101445733Y-119653474D01*
X101404138Y-119657570D01*
X101364180Y-119666064D01*
X101317903Y-119666064D01*
X101270000Y-119670782D01*
X101222097Y-119666064D01*
X101175820Y-119666064D01*
X101135862Y-119657570D01*
X101094266Y-119653474D01*
X101042009Y-119637621D01*
X100991576Y-119626902D01*
X100959300Y-119612532D01*
X100925287Y-119602214D01*
X100871237Y-119573323D01*
X100819500Y-119550289D01*
X100795445Y-119532812D01*
X100769552Y-119518972D01*
X100716730Y-119475622D01*
X100667113Y-119439573D01*
X100651002Y-119421680D01*
X100633051Y-119406948D01*
X100584809Y-119348166D01*
X100541076Y-119299595D01*
X100531888Y-119283681D01*
X100521027Y-119270447D01*
X100480844Y-119195269D01*
X100446896Y-119136470D01*
X100442991Y-119124451D01*
X100437785Y-119114712D01*
X100409075Y-119020071D01*
X100388689Y-118957328D01*
X100387971Y-118950501D01*
X100386525Y-118945733D01*
X100372448Y-118802808D01*
X100369000Y-118770000D01*
X100372448Y-118737194D01*
X100386525Y-118594266D01*
X100387971Y-118589497D01*
X100388689Y-118582672D01*
X100409071Y-118519942D01*
X100437785Y-118425287D01*
X100442991Y-118415545D01*
X100446896Y-118403530D01*
X100480836Y-118344742D01*
X100521027Y-118269552D01*
X100531890Y-118256314D01*
X100541076Y-118240405D01*
X100584800Y-118191843D01*
X100633051Y-118133051D01*
X100651005Y-118118315D01*
X100667113Y-118100427D01*
X100716720Y-118064385D01*
X100769552Y-118021027D01*
X100795450Y-118007183D01*
X100819500Y-117989711D01*
X100871226Y-117966681D01*
X100925287Y-117937785D01*
X100959307Y-117927464D01*
X100991576Y-117913098D01*
X101041998Y-117902380D01*
X101094266Y-117886525D01*
X101135871Y-117882427D01*
X101175820Y-117873936D01*
X101222086Y-117873936D01*
X101270000Y-117869217D01*
X101317913Y-117873936D01*
G37*
G36*
X103857913Y-117873936D02*
G01*
X103904180Y-117873936D01*
X103944129Y-117882427D01*
X103985733Y-117886525D01*
X104037998Y-117902379D01*
X104088424Y-117913098D01*
X104120694Y-117927465D01*
X104154712Y-117937785D01*
X104208767Y-117966678D01*
X104260500Y-117989711D01*
X104284551Y-118007185D01*
X104310447Y-118021027D01*
X104363271Y-118064378D01*
X104412887Y-118100427D01*
X104428996Y-118118318D01*
X104446948Y-118133051D01*
X104495188Y-118191831D01*
X104538924Y-118240405D01*
X104548111Y-118256319D01*
X104558972Y-118269552D01*
X104599149Y-118344719D01*
X104633104Y-118403530D01*
X104637009Y-118415550D01*
X104642214Y-118425287D01*
X104670913Y-118519896D01*
X104691311Y-118582672D01*
X104692028Y-118589502D01*
X104693474Y-118594266D01*
X104707536Y-118737042D01*
X104711000Y-118770000D01*
X104707535Y-118802959D01*
X104693474Y-118945733D01*
X104692029Y-118950496D01*
X104691311Y-118957328D01*
X104670909Y-119020117D01*
X104642214Y-119114712D01*
X104637010Y-119124447D01*
X104633104Y-119136470D01*
X104599142Y-119195293D01*
X104558972Y-119270447D01*
X104548113Y-119283677D01*
X104538924Y-119299595D01*
X104495178Y-119348178D01*
X104446948Y-119406948D01*
X104429000Y-119421677D01*
X104412887Y-119439573D01*
X104363260Y-119475628D01*
X104310447Y-119518972D01*
X104284557Y-119532810D01*
X104260500Y-119550289D01*
X104208756Y-119573326D01*
X104154712Y-119602214D01*
X104120701Y-119612531D01*
X104088424Y-119626902D01*
X104037987Y-119637622D01*
X103985733Y-119653474D01*
X103944138Y-119657570D01*
X103904180Y-119666064D01*
X103857903Y-119666064D01*
X103810000Y-119670782D01*
X103762097Y-119666064D01*
X103715820Y-119666064D01*
X103675862Y-119657570D01*
X103634266Y-119653474D01*
X103582009Y-119637621D01*
X103531576Y-119626902D01*
X103499300Y-119612532D01*
X103465287Y-119602214D01*
X103411237Y-119573323D01*
X103359500Y-119550289D01*
X103335445Y-119532812D01*
X103309552Y-119518972D01*
X103256730Y-119475622D01*
X103207113Y-119439573D01*
X103191002Y-119421680D01*
X103173051Y-119406948D01*
X103124809Y-119348166D01*
X103081076Y-119299595D01*
X103071888Y-119283681D01*
X103061027Y-119270447D01*
X103020844Y-119195269D01*
X102986896Y-119136470D01*
X102982991Y-119124451D01*
X102977785Y-119114712D01*
X102949075Y-119020071D01*
X102928689Y-118957328D01*
X102927971Y-118950501D01*
X102926525Y-118945733D01*
X102912448Y-118802808D01*
X102909000Y-118770000D01*
X102912448Y-118737194D01*
X102926525Y-118594266D01*
X102927971Y-118589497D01*
X102928689Y-118582672D01*
X102949071Y-118519942D01*
X102977785Y-118425287D01*
X102982991Y-118415545D01*
X102986896Y-118403530D01*
X103020836Y-118344742D01*
X103061027Y-118269552D01*
X103071890Y-118256314D01*
X103081076Y-118240405D01*
X103124800Y-118191843D01*
X103173051Y-118133051D01*
X103191005Y-118118315D01*
X103207113Y-118100427D01*
X103256720Y-118064385D01*
X103309552Y-118021027D01*
X103335450Y-118007183D01*
X103359500Y-117989711D01*
X103411226Y-117966681D01*
X103465287Y-117937785D01*
X103499307Y-117927464D01*
X103531576Y-117913098D01*
X103581998Y-117902380D01*
X103634266Y-117886525D01*
X103675871Y-117882427D01*
X103715820Y-117873936D01*
X103762086Y-117873936D01*
X103810000Y-117869217D01*
X103857913Y-117873936D01*
G37*
G36*
X83343925Y-115641870D02*
G01*
X83562775Y-115717002D01*
X83766274Y-115827130D01*
X83948871Y-115969251D01*
X84105586Y-116139488D01*
X84232143Y-116333198D01*
X84325090Y-116545096D01*
X84381892Y-116769403D01*
X84401000Y-117000000D01*
X84381892Y-117230597D01*
X84325090Y-117454904D01*
X84232143Y-117666802D01*
X84105586Y-117860512D01*
X83948871Y-118030749D01*
X83766274Y-118172870D01*
X83562775Y-118282998D01*
X83343925Y-118358130D01*
X83115694Y-118396215D01*
X82884306Y-118396215D01*
X82656075Y-118358130D01*
X82437225Y-118282998D01*
X82233726Y-118172870D01*
X82051129Y-118030749D01*
X81894414Y-117860512D01*
X81767857Y-117666802D01*
X81674910Y-117454904D01*
X81618108Y-117230597D01*
X81599000Y-117000000D01*
X81618108Y-116769403D01*
X81674910Y-116545096D01*
X81767857Y-116333198D01*
X81894414Y-116139488D01*
X82051129Y-115969251D01*
X82233726Y-115827130D01*
X82437225Y-115717002D01*
X82656075Y-115641870D01*
X82884306Y-115603785D01*
X83115694Y-115603785D01*
X83343925Y-115641870D01*
G37*
G36*
X117343925Y-115641870D02*
G01*
X117562775Y-115717002D01*
X117766274Y-115827130D01*
X117948871Y-115969251D01*
X118105586Y-116139488D01*
X118232143Y-116333198D01*
X118325090Y-116545096D01*
X118381892Y-116769403D01*
X118401000Y-117000000D01*
X118381892Y-117230597D01*
X118325090Y-117454904D01*
X118232143Y-117666802D01*
X118105586Y-117860512D01*
X117948871Y-118030749D01*
X117766274Y-118172870D01*
X117562775Y-118282998D01*
X117343925Y-118358130D01*
X117115694Y-118396215D01*
X116884306Y-118396215D01*
X116656075Y-118358130D01*
X116437225Y-118282998D01*
X116233726Y-118172870D01*
X116051129Y-118030749D01*
X115894414Y-117860512D01*
X115767857Y-117666802D01*
X115674910Y-117454904D01*
X115618108Y-117230597D01*
X115599000Y-117000000D01*
X115618108Y-116769403D01*
X115674910Y-116545096D01*
X115767857Y-116333198D01*
X115894414Y-116139488D01*
X116051129Y-115969251D01*
X116233726Y-115827130D01*
X116437225Y-115717002D01*
X116656075Y-115641870D01*
X116884306Y-115603785D01*
X117115694Y-115603785D01*
X117343925Y-115641870D01*
G37*
G36*
X104679517Y-115332882D02*
G01*
X104696062Y-115343938D01*
X104707118Y-115360483D01*
X104711000Y-115380000D01*
X104711000Y-117080000D01*
X104707118Y-117099517D01*
X104696062Y-117116062D01*
X104679517Y-117127118D01*
X104660000Y-117131000D01*
X102960000Y-117131000D01*
X102940483Y-117127118D01*
X102923938Y-117116062D01*
X102912882Y-117099517D01*
X102909000Y-117080000D01*
X102909000Y-115380000D01*
X102912882Y-115360483D01*
X102923938Y-115343938D01*
X102940483Y-115332882D01*
X102960000Y-115329000D01*
X104660000Y-115329000D01*
X104679517Y-115332882D01*
G37*
G36*
X96237913Y-115333936D02*
G01*
X96284180Y-115333936D01*
X96324129Y-115342427D01*
X96365733Y-115346525D01*
X96417998Y-115362379D01*
X96468424Y-115373098D01*
X96500694Y-115387465D01*
X96534712Y-115397785D01*
X96588767Y-115426678D01*
X96640500Y-115449711D01*
X96664551Y-115467185D01*
X96690447Y-115481027D01*
X96743271Y-115524378D01*
X96792887Y-115560427D01*
X96808996Y-115578318D01*
X96826948Y-115593051D01*
X96875188Y-115651831D01*
X96918924Y-115700405D01*
X96928111Y-115716319D01*
X96938972Y-115729552D01*
X96979149Y-115804719D01*
X97013104Y-115863530D01*
X97017009Y-115875550D01*
X97022214Y-115885287D01*
X97050913Y-115979896D01*
X97071311Y-116042672D01*
X97072028Y-116049502D01*
X97073474Y-116054266D01*
X97087536Y-116197042D01*
X97091000Y-116230000D01*
X97087535Y-116262959D01*
X97073474Y-116405733D01*
X97072029Y-116410496D01*
X97071311Y-116417328D01*
X97050909Y-116480117D01*
X97022214Y-116574712D01*
X97017010Y-116584447D01*
X97013104Y-116596470D01*
X96979142Y-116655293D01*
X96938972Y-116730447D01*
X96928113Y-116743677D01*
X96918924Y-116759595D01*
X96875178Y-116808178D01*
X96826948Y-116866948D01*
X96809000Y-116881677D01*
X96792887Y-116899573D01*
X96743260Y-116935628D01*
X96690447Y-116978972D01*
X96664557Y-116992810D01*
X96640500Y-117010289D01*
X96588756Y-117033326D01*
X96534712Y-117062214D01*
X96500701Y-117072531D01*
X96468424Y-117086902D01*
X96417987Y-117097622D01*
X96365733Y-117113474D01*
X96324138Y-117117570D01*
X96284180Y-117126064D01*
X96237903Y-117126064D01*
X96190000Y-117130782D01*
X96142097Y-117126064D01*
X96095820Y-117126064D01*
X96055862Y-117117570D01*
X96014266Y-117113474D01*
X95962009Y-117097621D01*
X95911576Y-117086902D01*
X95879300Y-117072532D01*
X95845287Y-117062214D01*
X95791237Y-117033323D01*
X95739500Y-117010289D01*
X95715445Y-116992812D01*
X95689552Y-116978972D01*
X95636730Y-116935622D01*
X95587113Y-116899573D01*
X95571002Y-116881680D01*
X95553051Y-116866948D01*
X95504809Y-116808166D01*
X95461076Y-116759595D01*
X95451888Y-116743681D01*
X95441027Y-116730447D01*
X95400844Y-116655269D01*
X95366896Y-116596470D01*
X95362991Y-116584451D01*
X95357785Y-116574712D01*
X95329075Y-116480071D01*
X95308689Y-116417328D01*
X95307971Y-116410501D01*
X95306525Y-116405733D01*
X95292448Y-116262808D01*
X95289000Y-116230000D01*
X95292448Y-116197194D01*
X95306525Y-116054266D01*
X95307971Y-116049497D01*
X95308689Y-116042672D01*
X95329071Y-115979942D01*
X95357785Y-115885287D01*
X95362991Y-115875545D01*
X95366896Y-115863530D01*
X95400836Y-115804742D01*
X95441027Y-115729552D01*
X95451890Y-115716314D01*
X95461076Y-115700405D01*
X95504800Y-115651843D01*
X95553051Y-115593051D01*
X95571005Y-115578315D01*
X95587113Y-115560427D01*
X95636720Y-115524385D01*
X95689552Y-115481027D01*
X95715450Y-115467183D01*
X95739500Y-115449711D01*
X95791226Y-115426681D01*
X95845287Y-115397785D01*
X95879307Y-115387464D01*
X95911576Y-115373098D01*
X95961998Y-115362380D01*
X96014266Y-115346525D01*
X96055871Y-115342427D01*
X96095820Y-115333936D01*
X96142086Y-115333936D01*
X96190000Y-115329217D01*
X96237913Y-115333936D01*
G37*
G36*
X98777913Y-115333936D02*
G01*
X98824180Y-115333936D01*
X98864129Y-115342427D01*
X98905733Y-115346525D01*
X98957998Y-115362379D01*
X99008424Y-115373098D01*
X99040694Y-115387465D01*
X99074712Y-115397785D01*
X99128767Y-115426678D01*
X99180500Y-115449711D01*
X99204551Y-115467185D01*
X99230447Y-115481027D01*
X99283271Y-115524378D01*
X99332887Y-115560427D01*
X99348996Y-115578318D01*
X99366948Y-115593051D01*
X99415188Y-115651831D01*
X99458924Y-115700405D01*
X99468111Y-115716319D01*
X99478972Y-115729552D01*
X99519149Y-115804719D01*
X99553104Y-115863530D01*
X99557009Y-115875550D01*
X99562214Y-115885287D01*
X99590913Y-115979896D01*
X99611311Y-116042672D01*
X99612028Y-116049502D01*
X99613474Y-116054266D01*
X99627536Y-116197042D01*
X99631000Y-116230000D01*
X99627535Y-116262959D01*
X99613474Y-116405733D01*
X99612029Y-116410496D01*
X99611311Y-116417328D01*
X99590909Y-116480117D01*
X99562214Y-116574712D01*
X99557010Y-116584447D01*
X99553104Y-116596470D01*
X99519142Y-116655293D01*
X99478972Y-116730447D01*
X99468113Y-116743677D01*
X99458924Y-116759595D01*
X99415178Y-116808178D01*
X99366948Y-116866948D01*
X99349000Y-116881677D01*
X99332887Y-116899573D01*
X99283260Y-116935628D01*
X99230447Y-116978972D01*
X99204557Y-116992810D01*
X99180500Y-117010289D01*
X99128756Y-117033326D01*
X99074712Y-117062214D01*
X99040701Y-117072531D01*
X99008424Y-117086902D01*
X98957987Y-117097622D01*
X98905733Y-117113474D01*
X98864138Y-117117570D01*
X98824180Y-117126064D01*
X98777903Y-117126064D01*
X98730000Y-117130782D01*
X98682097Y-117126064D01*
X98635820Y-117126064D01*
X98595862Y-117117570D01*
X98554266Y-117113474D01*
X98502009Y-117097621D01*
X98451576Y-117086902D01*
X98419300Y-117072532D01*
X98385287Y-117062214D01*
X98331237Y-117033323D01*
X98279500Y-117010289D01*
X98255445Y-116992812D01*
X98229552Y-116978972D01*
X98176730Y-116935622D01*
X98127113Y-116899573D01*
X98111002Y-116881680D01*
X98093051Y-116866948D01*
X98044809Y-116808166D01*
X98001076Y-116759595D01*
X97991888Y-116743681D01*
X97981027Y-116730447D01*
X97940844Y-116655269D01*
X97906896Y-116596470D01*
X97902991Y-116584451D01*
X97897785Y-116574712D01*
X97869075Y-116480071D01*
X97848689Y-116417328D01*
X97847971Y-116410501D01*
X97846525Y-116405733D01*
X97832448Y-116262808D01*
X97829000Y-116230000D01*
X97832448Y-116197194D01*
X97846525Y-116054266D01*
X97847971Y-116049497D01*
X97848689Y-116042672D01*
X97869071Y-115979942D01*
X97897785Y-115885287D01*
X97902991Y-115875545D01*
X97906896Y-115863530D01*
X97940836Y-115804742D01*
X97981027Y-115729552D01*
X97991890Y-115716314D01*
X98001076Y-115700405D01*
X98044800Y-115651843D01*
X98093051Y-115593051D01*
X98111005Y-115578315D01*
X98127113Y-115560427D01*
X98176720Y-115524385D01*
X98229552Y-115481027D01*
X98255450Y-115467183D01*
X98279500Y-115449711D01*
X98331226Y-115426681D01*
X98385287Y-115397785D01*
X98419307Y-115387464D01*
X98451576Y-115373098D01*
X98501998Y-115362380D01*
X98554266Y-115346525D01*
X98595871Y-115342427D01*
X98635820Y-115333936D01*
X98682086Y-115333936D01*
X98730000Y-115329217D01*
X98777913Y-115333936D01*
G37*
G36*
X101317913Y-115333936D02*
G01*
X101364180Y-115333936D01*
X101404129Y-115342427D01*
X101445733Y-115346525D01*
X101497998Y-115362379D01*
X101548424Y-115373098D01*
X101580694Y-115387465D01*
X101614712Y-115397785D01*
X101668767Y-115426678D01*
X101720500Y-115449711D01*
X101744551Y-115467185D01*
X101770447Y-115481027D01*
X101823271Y-115524378D01*
X101872887Y-115560427D01*
X101888996Y-115578318D01*
X101906948Y-115593051D01*
X101955188Y-115651831D01*
X101998924Y-115700405D01*
X102008111Y-115716319D01*
X102018972Y-115729552D01*
X102059149Y-115804719D01*
X102093104Y-115863530D01*
X102097009Y-115875550D01*
X102102214Y-115885287D01*
X102130913Y-115979896D01*
X102151311Y-116042672D01*
X102152028Y-116049502D01*
X102153474Y-116054266D01*
X102167536Y-116197042D01*
X102171000Y-116230000D01*
X102167535Y-116262959D01*
X102153474Y-116405733D01*
X102152029Y-116410496D01*
X102151311Y-116417328D01*
X102130909Y-116480117D01*
X102102214Y-116574712D01*
X102097010Y-116584447D01*
X102093104Y-116596470D01*
X102059142Y-116655293D01*
X102018972Y-116730447D01*
X102008113Y-116743677D01*
X101998924Y-116759595D01*
X101955178Y-116808178D01*
X101906948Y-116866948D01*
X101889000Y-116881677D01*
X101872887Y-116899573D01*
X101823260Y-116935628D01*
X101770447Y-116978972D01*
X101744557Y-116992810D01*
X101720500Y-117010289D01*
X101668756Y-117033326D01*
X101614712Y-117062214D01*
X101580701Y-117072531D01*
X101548424Y-117086902D01*
X101497987Y-117097622D01*
X101445733Y-117113474D01*
X101404138Y-117117570D01*
X101364180Y-117126064D01*
X101317903Y-117126064D01*
X101270000Y-117130782D01*
X101222097Y-117126064D01*
X101175820Y-117126064D01*
X101135862Y-117117570D01*
X101094266Y-117113474D01*
X101042009Y-117097621D01*
X100991576Y-117086902D01*
X100959300Y-117072532D01*
X100925287Y-117062214D01*
X100871237Y-117033323D01*
X100819500Y-117010289D01*
X100795445Y-116992812D01*
X100769552Y-116978972D01*
X100716730Y-116935622D01*
X100667113Y-116899573D01*
X100651002Y-116881680D01*
X100633051Y-116866948D01*
X100584809Y-116808166D01*
X100541076Y-116759595D01*
X100531888Y-116743681D01*
X100521027Y-116730447D01*
X100480844Y-116655269D01*
X100446896Y-116596470D01*
X100442991Y-116584451D01*
X100437785Y-116574712D01*
X100409075Y-116480071D01*
X100388689Y-116417328D01*
X100387971Y-116410501D01*
X100386525Y-116405733D01*
X100372448Y-116262808D01*
X100369000Y-116230000D01*
X100372448Y-116197194D01*
X100386525Y-116054266D01*
X100387971Y-116049497D01*
X100388689Y-116042672D01*
X100409071Y-115979942D01*
X100437785Y-115885287D01*
X100442991Y-115875545D01*
X100446896Y-115863530D01*
X100480836Y-115804742D01*
X100521027Y-115729552D01*
X100531890Y-115716314D01*
X100541076Y-115700405D01*
X100584800Y-115651843D01*
X100633051Y-115593051D01*
X100651005Y-115578315D01*
X100667113Y-115560427D01*
X100716720Y-115524385D01*
X100769552Y-115481027D01*
X100795450Y-115467183D01*
X100819500Y-115449711D01*
X100871226Y-115426681D01*
X100925287Y-115397785D01*
X100959307Y-115387464D01*
X100991576Y-115373098D01*
X101041998Y-115362380D01*
X101094266Y-115346525D01*
X101135871Y-115342427D01*
X101175820Y-115333936D01*
X101222086Y-115333936D01*
X101270000Y-115329217D01*
X101317913Y-115333936D01*
G37*
G36*
X90549061Y-113805084D02*
G01*
X90595328Y-113805084D01*
X90635277Y-113813575D01*
X90676881Y-113817673D01*
X90729146Y-113833527D01*
X90779572Y-113844246D01*
X90811842Y-113858613D01*
X90845860Y-113868933D01*
X90899915Y-113897826D01*
X90951648Y-113920859D01*
X90975699Y-113938333D01*
X91001595Y-113952175D01*
X91054419Y-113995526D01*
X91104035Y-114031575D01*
X91120144Y-114049466D01*
X91138096Y-114064199D01*
X91186336Y-114122979D01*
X91230072Y-114171553D01*
X91239259Y-114187467D01*
X91250120Y-114200700D01*
X91290297Y-114275867D01*
X91324252Y-114334678D01*
X91328157Y-114346698D01*
X91333362Y-114356435D01*
X91362061Y-114451044D01*
X91382459Y-114513820D01*
X91383176Y-114520650D01*
X91384622Y-114525414D01*
X91398684Y-114668190D01*
X91402148Y-114701148D01*
X91398683Y-114734107D01*
X91384622Y-114876881D01*
X91383177Y-114881644D01*
X91382459Y-114888476D01*
X91362057Y-114951265D01*
X91333362Y-115045860D01*
X91328158Y-115055595D01*
X91324252Y-115067618D01*
X91290290Y-115126441D01*
X91250120Y-115201595D01*
X91239261Y-115214825D01*
X91230072Y-115230743D01*
X91186326Y-115279326D01*
X91138096Y-115338096D01*
X91120148Y-115352825D01*
X91104035Y-115370721D01*
X91054408Y-115406776D01*
X91001595Y-115450120D01*
X90975705Y-115463958D01*
X90951648Y-115481437D01*
X90899904Y-115504474D01*
X90845860Y-115533362D01*
X90811849Y-115543679D01*
X90779572Y-115558050D01*
X90729135Y-115568770D01*
X90676881Y-115584622D01*
X90635286Y-115588718D01*
X90595328Y-115597212D01*
X90549051Y-115597212D01*
X90501148Y-115601930D01*
X90453245Y-115597212D01*
X90406968Y-115597212D01*
X90367010Y-115588718D01*
X90325414Y-115584622D01*
X90273157Y-115568769D01*
X90222724Y-115558050D01*
X90190448Y-115543680D01*
X90156435Y-115533362D01*
X90102385Y-115504471D01*
X90050648Y-115481437D01*
X90026593Y-115463960D01*
X90000700Y-115450120D01*
X89947878Y-115406770D01*
X89898261Y-115370721D01*
X89882150Y-115352828D01*
X89864199Y-115338096D01*
X89815957Y-115279314D01*
X89772224Y-115230743D01*
X89763036Y-115214829D01*
X89752175Y-115201595D01*
X89711992Y-115126417D01*
X89678044Y-115067618D01*
X89674139Y-115055599D01*
X89668933Y-115045860D01*
X89640223Y-114951219D01*
X89619837Y-114888476D01*
X89619119Y-114881649D01*
X89617673Y-114876881D01*
X89603596Y-114733956D01*
X89600148Y-114701148D01*
X89603596Y-114668342D01*
X89617673Y-114525414D01*
X89619119Y-114520645D01*
X89619837Y-114513820D01*
X89640219Y-114451090D01*
X89668933Y-114356435D01*
X89674139Y-114346693D01*
X89678044Y-114334678D01*
X89711984Y-114275890D01*
X89752175Y-114200700D01*
X89763038Y-114187462D01*
X89772224Y-114171553D01*
X89815948Y-114122991D01*
X89864199Y-114064199D01*
X89882153Y-114049463D01*
X89898261Y-114031575D01*
X89947868Y-113995533D01*
X90000700Y-113952175D01*
X90026598Y-113938331D01*
X90050648Y-113920859D01*
X90102374Y-113897829D01*
X90156435Y-113868933D01*
X90190455Y-113858612D01*
X90222724Y-113844246D01*
X90273146Y-113833528D01*
X90325414Y-113817673D01*
X90367019Y-113813575D01*
X90406968Y-113805084D01*
X90453234Y-113805084D01*
X90501148Y-113800365D01*
X90549061Y-113805084D01*
G37*
G36*
X110241256Y-112660593D02*
G01*
X110287523Y-112660593D01*
X110327472Y-112669084D01*
X110369076Y-112673182D01*
X110421341Y-112689036D01*
X110471767Y-112699755D01*
X110504037Y-112714122D01*
X110538055Y-112724442D01*
X110592110Y-112753335D01*
X110643843Y-112776368D01*
X110667894Y-112793842D01*
X110693790Y-112807684D01*
X110746614Y-112851035D01*
X110796230Y-112887084D01*
X110812339Y-112904975D01*
X110830291Y-112919708D01*
X110878531Y-112978488D01*
X110922267Y-113027062D01*
X110931454Y-113042976D01*
X110942315Y-113056209D01*
X110982492Y-113131376D01*
X111016447Y-113190187D01*
X111020352Y-113202207D01*
X111025557Y-113211944D01*
X111054256Y-113306553D01*
X111074654Y-113369329D01*
X111075371Y-113376159D01*
X111076817Y-113380923D01*
X111090879Y-113523699D01*
X111094343Y-113556657D01*
X111090878Y-113589616D01*
X111076817Y-113732390D01*
X111075372Y-113737153D01*
X111074654Y-113743985D01*
X111054252Y-113806774D01*
X111025557Y-113901369D01*
X111020353Y-113911104D01*
X111016447Y-113923127D01*
X110982485Y-113981950D01*
X110942315Y-114057104D01*
X110931456Y-114070334D01*
X110922267Y-114086252D01*
X110878521Y-114134835D01*
X110830291Y-114193605D01*
X110812343Y-114208334D01*
X110796230Y-114226230D01*
X110746603Y-114262285D01*
X110693790Y-114305629D01*
X110667900Y-114319467D01*
X110643843Y-114336946D01*
X110592099Y-114359983D01*
X110538055Y-114388871D01*
X110504044Y-114399188D01*
X110471767Y-114413559D01*
X110421330Y-114424279D01*
X110369076Y-114440131D01*
X110327481Y-114444227D01*
X110287523Y-114452721D01*
X110241246Y-114452721D01*
X110193343Y-114457439D01*
X110145440Y-114452721D01*
X110099163Y-114452721D01*
X110059205Y-114444227D01*
X110017609Y-114440131D01*
X109965352Y-114424278D01*
X109914919Y-114413559D01*
X109882643Y-114399189D01*
X109848630Y-114388871D01*
X109794580Y-114359980D01*
X109742843Y-114336946D01*
X109718788Y-114319469D01*
X109692895Y-114305629D01*
X109640073Y-114262279D01*
X109590456Y-114226230D01*
X109574345Y-114208337D01*
X109556394Y-114193605D01*
X109508152Y-114134823D01*
X109464419Y-114086252D01*
X109455231Y-114070338D01*
X109444370Y-114057104D01*
X109404187Y-113981926D01*
X109370239Y-113923127D01*
X109366334Y-113911108D01*
X109361128Y-113901369D01*
X109332418Y-113806728D01*
X109312032Y-113743985D01*
X109311314Y-113737158D01*
X109309868Y-113732390D01*
X109295791Y-113589465D01*
X109292343Y-113556657D01*
X109295791Y-113523851D01*
X109309868Y-113380923D01*
X109311314Y-113376154D01*
X109312032Y-113369329D01*
X109332414Y-113306599D01*
X109361128Y-113211944D01*
X109366334Y-113202202D01*
X109370239Y-113190187D01*
X109404179Y-113131399D01*
X109444370Y-113056209D01*
X109455233Y-113042971D01*
X109464419Y-113027062D01*
X109508143Y-112978500D01*
X109556394Y-112919708D01*
X109574348Y-112904972D01*
X109590456Y-112887084D01*
X109640063Y-112851042D01*
X109692895Y-112807684D01*
X109718793Y-112793840D01*
X109742843Y-112776368D01*
X109794569Y-112753338D01*
X109848630Y-112724442D01*
X109882650Y-112714121D01*
X109914919Y-112699755D01*
X109965341Y-112689037D01*
X110017609Y-112673182D01*
X110059214Y-112669084D01*
X110099163Y-112660593D01*
X110145429Y-112660593D01*
X110193343Y-112655874D01*
X110241256Y-112660593D01*
G37*
G36*
X88753009Y-112009032D02*
G01*
X88799276Y-112009032D01*
X88839225Y-112017523D01*
X88880829Y-112021621D01*
X88933094Y-112037475D01*
X88983520Y-112048194D01*
X89015790Y-112062561D01*
X89049808Y-112072881D01*
X89103863Y-112101774D01*
X89155596Y-112124807D01*
X89179647Y-112142281D01*
X89205543Y-112156123D01*
X89258367Y-112199474D01*
X89307983Y-112235523D01*
X89324092Y-112253414D01*
X89342044Y-112268147D01*
X89390284Y-112326927D01*
X89434020Y-112375501D01*
X89443207Y-112391415D01*
X89454068Y-112404648D01*
X89494245Y-112479815D01*
X89528200Y-112538626D01*
X89532105Y-112550646D01*
X89537310Y-112560383D01*
X89566009Y-112654992D01*
X89586407Y-112717768D01*
X89587124Y-112724598D01*
X89588570Y-112729362D01*
X89602632Y-112872138D01*
X89606096Y-112905096D01*
X89602631Y-112938055D01*
X89588570Y-113080829D01*
X89587125Y-113085592D01*
X89586407Y-113092424D01*
X89566005Y-113155213D01*
X89537310Y-113249808D01*
X89532106Y-113259543D01*
X89528200Y-113271566D01*
X89494238Y-113330389D01*
X89454068Y-113405543D01*
X89443209Y-113418773D01*
X89434020Y-113434691D01*
X89390274Y-113483274D01*
X89342044Y-113542044D01*
X89324096Y-113556773D01*
X89307983Y-113574669D01*
X89258356Y-113610724D01*
X89205543Y-113654068D01*
X89179653Y-113667906D01*
X89155596Y-113685385D01*
X89103852Y-113708422D01*
X89049808Y-113737310D01*
X89015797Y-113747627D01*
X88983520Y-113761998D01*
X88933083Y-113772718D01*
X88880829Y-113788570D01*
X88839234Y-113792666D01*
X88799276Y-113801160D01*
X88752999Y-113801160D01*
X88705096Y-113805878D01*
X88657193Y-113801160D01*
X88610916Y-113801160D01*
X88570958Y-113792666D01*
X88529362Y-113788570D01*
X88477105Y-113772717D01*
X88426672Y-113761998D01*
X88394396Y-113747628D01*
X88360383Y-113737310D01*
X88306333Y-113708419D01*
X88254596Y-113685385D01*
X88230541Y-113667908D01*
X88204648Y-113654068D01*
X88151826Y-113610718D01*
X88102209Y-113574669D01*
X88086098Y-113556776D01*
X88068147Y-113542044D01*
X88019905Y-113483262D01*
X87976172Y-113434691D01*
X87966984Y-113418777D01*
X87956123Y-113405543D01*
X87915940Y-113330365D01*
X87881992Y-113271566D01*
X87878087Y-113259547D01*
X87872881Y-113249808D01*
X87844171Y-113155167D01*
X87823785Y-113092424D01*
X87823067Y-113085597D01*
X87821621Y-113080829D01*
X87807544Y-112937904D01*
X87804096Y-112905096D01*
X87807544Y-112872290D01*
X87821621Y-112729362D01*
X87823067Y-112724593D01*
X87823785Y-112717768D01*
X87844167Y-112655038D01*
X87872881Y-112560383D01*
X87878087Y-112550641D01*
X87881992Y-112538626D01*
X87915932Y-112479838D01*
X87956123Y-112404648D01*
X87966986Y-112391410D01*
X87976172Y-112375501D01*
X88019896Y-112326939D01*
X88068147Y-112268147D01*
X88086101Y-112253411D01*
X88102209Y-112235523D01*
X88151816Y-112199481D01*
X88204648Y-112156123D01*
X88230546Y-112142279D01*
X88254596Y-112124807D01*
X88306322Y-112101777D01*
X88360383Y-112072881D01*
X88394403Y-112062560D01*
X88426672Y-112048194D01*
X88477094Y-112037476D01*
X88529362Y-112021621D01*
X88570967Y-112017523D01*
X88610916Y-112009032D01*
X88657182Y-112009032D01*
X88705096Y-112004313D01*
X88753009Y-112009032D01*
G37*
G36*
X112037307Y-110864542D02*
G01*
X112083574Y-110864542D01*
X112123523Y-110873033D01*
X112165127Y-110877131D01*
X112217392Y-110892985D01*
X112267818Y-110903704D01*
X112300088Y-110918071D01*
X112334106Y-110928391D01*
X112388161Y-110957284D01*
X112439894Y-110980317D01*
X112463945Y-110997791D01*
X112489841Y-111011633D01*
X112542665Y-111054984D01*
X112592281Y-111091033D01*
X112608390Y-111108924D01*
X112626342Y-111123657D01*
X112674582Y-111182437D01*
X112718318Y-111231011D01*
X112727505Y-111246925D01*
X112738366Y-111260158D01*
X112778543Y-111335325D01*
X112812498Y-111394136D01*
X112816403Y-111406156D01*
X112821608Y-111415893D01*
X112850307Y-111510502D01*
X112870705Y-111573278D01*
X112871422Y-111580108D01*
X112872868Y-111584872D01*
X112886930Y-111727648D01*
X112890394Y-111760606D01*
X112886929Y-111793565D01*
X112872868Y-111936339D01*
X112871423Y-111941102D01*
X112870705Y-111947934D01*
X112850303Y-112010723D01*
X112821608Y-112105318D01*
X112816404Y-112115053D01*
X112812498Y-112127076D01*
X112778536Y-112185899D01*
X112738366Y-112261053D01*
X112727507Y-112274283D01*
X112718318Y-112290201D01*
X112674572Y-112338784D01*
X112626342Y-112397554D01*
X112608394Y-112412283D01*
X112592281Y-112430179D01*
X112542654Y-112466234D01*
X112489841Y-112509578D01*
X112463951Y-112523416D01*
X112439894Y-112540895D01*
X112388150Y-112563932D01*
X112334106Y-112592820D01*
X112300095Y-112603137D01*
X112267818Y-112617508D01*
X112217381Y-112628228D01*
X112165127Y-112644080D01*
X112123532Y-112648176D01*
X112083574Y-112656670D01*
X112037297Y-112656670D01*
X111989394Y-112661388D01*
X111941491Y-112656670D01*
X111895214Y-112656670D01*
X111855256Y-112648176D01*
X111813660Y-112644080D01*
X111761403Y-112628227D01*
X111710970Y-112617508D01*
X111678694Y-112603138D01*
X111644681Y-112592820D01*
X111590631Y-112563929D01*
X111538894Y-112540895D01*
X111514839Y-112523418D01*
X111488946Y-112509578D01*
X111436124Y-112466228D01*
X111386507Y-112430179D01*
X111370396Y-112412286D01*
X111352445Y-112397554D01*
X111304203Y-112338772D01*
X111260470Y-112290201D01*
X111251282Y-112274287D01*
X111240421Y-112261053D01*
X111200238Y-112185875D01*
X111166290Y-112127076D01*
X111162385Y-112115057D01*
X111157179Y-112105318D01*
X111128469Y-112010677D01*
X111108083Y-111947934D01*
X111107365Y-111941107D01*
X111105919Y-111936339D01*
X111091842Y-111793414D01*
X111088394Y-111760606D01*
X111091842Y-111727800D01*
X111105919Y-111584872D01*
X111107365Y-111580103D01*
X111108083Y-111573278D01*
X111128465Y-111510548D01*
X111157179Y-111415893D01*
X111162385Y-111406151D01*
X111166290Y-111394136D01*
X111200230Y-111335348D01*
X111240421Y-111260158D01*
X111251284Y-111246920D01*
X111260470Y-111231011D01*
X111304194Y-111182449D01*
X111352445Y-111123657D01*
X111370399Y-111108921D01*
X111386507Y-111091033D01*
X111436114Y-111054991D01*
X111488946Y-111011633D01*
X111514844Y-110997789D01*
X111538894Y-110980317D01*
X111590620Y-110957287D01*
X111644681Y-110928391D01*
X111678701Y-110918070D01*
X111710970Y-110903704D01*
X111761392Y-110892986D01*
X111813660Y-110877131D01*
X111855265Y-110873033D01*
X111895214Y-110864542D01*
X111941480Y-110864542D01*
X111989394Y-110859823D01*
X112037307Y-110864542D01*
G37*
G36*
X86956958Y-110212981D02*
G01*
X87003225Y-110212981D01*
X87043174Y-110221472D01*
X87084778Y-110225570D01*
X87137043Y-110241424D01*
X87187469Y-110252143D01*
X87219739Y-110266510D01*
X87253757Y-110276830D01*
X87307812Y-110305723D01*
X87359545Y-110328756D01*
X87383596Y-110346230D01*
X87409492Y-110360072D01*
X87462316Y-110403423D01*
X87511932Y-110439472D01*
X87528041Y-110457363D01*
X87545993Y-110472096D01*
X87594233Y-110530876D01*
X87637969Y-110579450D01*
X87647156Y-110595364D01*
X87658017Y-110608597D01*
X87698194Y-110683764D01*
X87732149Y-110742575D01*
X87736054Y-110754595D01*
X87741259Y-110764332D01*
X87769958Y-110858941D01*
X87790356Y-110921717D01*
X87791073Y-110928547D01*
X87792519Y-110933311D01*
X87806581Y-111076087D01*
X87810045Y-111109045D01*
X87806580Y-111142004D01*
X87792519Y-111284778D01*
X87791074Y-111289541D01*
X87790356Y-111296373D01*
X87769954Y-111359162D01*
X87741259Y-111453757D01*
X87736055Y-111463492D01*
X87732149Y-111475515D01*
X87698187Y-111534338D01*
X87658017Y-111609492D01*
X87647158Y-111622722D01*
X87637969Y-111638640D01*
X87594223Y-111687223D01*
X87545993Y-111745993D01*
X87528045Y-111760722D01*
X87511932Y-111778618D01*
X87462305Y-111814673D01*
X87409492Y-111858017D01*
X87383602Y-111871855D01*
X87359545Y-111889334D01*
X87307801Y-111912371D01*
X87253757Y-111941259D01*
X87219746Y-111951576D01*
X87187469Y-111965947D01*
X87137032Y-111976667D01*
X87084778Y-111992519D01*
X87043183Y-111996615D01*
X87003225Y-112005109D01*
X86956948Y-112005109D01*
X86909045Y-112009827D01*
X86861142Y-112005109D01*
X86814865Y-112005109D01*
X86774907Y-111996615D01*
X86733311Y-111992519D01*
X86681054Y-111976666D01*
X86630621Y-111965947D01*
X86598345Y-111951577D01*
X86564332Y-111941259D01*
X86510282Y-111912368D01*
X86458545Y-111889334D01*
X86434490Y-111871857D01*
X86408597Y-111858017D01*
X86355775Y-111814667D01*
X86306158Y-111778618D01*
X86290047Y-111760725D01*
X86272096Y-111745993D01*
X86223854Y-111687211D01*
X86180121Y-111638640D01*
X86170933Y-111622726D01*
X86160072Y-111609492D01*
X86119889Y-111534314D01*
X86085941Y-111475515D01*
X86082036Y-111463496D01*
X86076830Y-111453757D01*
X86048120Y-111359116D01*
X86027734Y-111296373D01*
X86027016Y-111289546D01*
X86025570Y-111284778D01*
X86011493Y-111141853D01*
X86008045Y-111109045D01*
X86011493Y-111076239D01*
X86025570Y-110933311D01*
X86027016Y-110928542D01*
X86027734Y-110921717D01*
X86048116Y-110858987D01*
X86076830Y-110764332D01*
X86082036Y-110754590D01*
X86085941Y-110742575D01*
X86119881Y-110683787D01*
X86160072Y-110608597D01*
X86170935Y-110595359D01*
X86180121Y-110579450D01*
X86223845Y-110530888D01*
X86272096Y-110472096D01*
X86290050Y-110457360D01*
X86306158Y-110439472D01*
X86355765Y-110403430D01*
X86408597Y-110360072D01*
X86434495Y-110346228D01*
X86458545Y-110328756D01*
X86510271Y-110305726D01*
X86564332Y-110276830D01*
X86598352Y-110266509D01*
X86630621Y-110252143D01*
X86681043Y-110241425D01*
X86733311Y-110225570D01*
X86774916Y-110221472D01*
X86814865Y-110212981D01*
X86861131Y-110212981D01*
X86909045Y-110208262D01*
X86956958Y-110212981D01*
G37*
G36*
X113804962Y-108715355D02*
G01*
X113821507Y-108726411D01*
X113824642Y-108729546D01*
X115020455Y-109925358D01*
X115020457Y-109925361D01*
X115023589Y-109928493D01*
X115034645Y-109945038D01*
X115038526Y-109964555D01*
X115034645Y-109984072D01*
X115023589Y-110000617D01*
X113821507Y-111202699D01*
X113804962Y-111213755D01*
X113785445Y-111217636D01*
X113765928Y-111213755D01*
X113749383Y-111202699D01*
X113155281Y-110608597D01*
X112550434Y-110003751D01*
X112550431Y-110003747D01*
X112547301Y-110000617D01*
X112536245Y-109984072D01*
X112532364Y-109964555D01*
X112536245Y-109945038D01*
X112547301Y-109928493D01*
X112550433Y-109925360D01*
X112550436Y-109925357D01*
X113746248Y-108729544D01*
X113746254Y-108729539D01*
X113749383Y-108726411D01*
X113765928Y-108715355D01*
X113785445Y-108711474D01*
X113804962Y-108715355D01*
G37*
G36*
X85132511Y-108063794D02*
G01*
X85149056Y-108074850D01*
X85152191Y-108077985D01*
X86348004Y-109273797D01*
X86348006Y-109273800D01*
X86351138Y-109276932D01*
X86362194Y-109293477D01*
X86366075Y-109312994D01*
X86362194Y-109332511D01*
X86351138Y-109349056D01*
X85149056Y-110551138D01*
X85132511Y-110562194D01*
X85112994Y-110566075D01*
X85093477Y-110562194D01*
X85076932Y-110551138D01*
X84490349Y-109964555D01*
X83877983Y-109352190D01*
X83877980Y-109352186D01*
X83874850Y-109349056D01*
X83863794Y-109332511D01*
X83859913Y-109312994D01*
X83863794Y-109293477D01*
X83874850Y-109276932D01*
X83877982Y-109273799D01*
X83877985Y-109273796D01*
X85073797Y-108077983D01*
X85073803Y-108077978D01*
X85076932Y-108074850D01*
X85093477Y-108063794D01*
X85112994Y-108059913D01*
X85132511Y-108063794D01*
G37*
G36*
X103319517Y-109152882D02*
G01*
X103336062Y-109163938D01*
X103347118Y-109180483D01*
X103351000Y-109200000D01*
X103351000Y-110200000D01*
X103347118Y-110219517D01*
X103336062Y-110236062D01*
X103319517Y-110247118D01*
X103300000Y-110251000D01*
X102300000Y-110251000D01*
X102280483Y-110247118D01*
X102263938Y-110236062D01*
X102252882Y-110219517D01*
X102249000Y-110200000D01*
X102249000Y-109200000D01*
X102252882Y-109180483D01*
X102263938Y-109163938D01*
X102280483Y-109152882D01*
X102300000Y-109149000D01*
X103300000Y-109149000D01*
X103319517Y-109152882D01*
G37*
G36*
X106575932Y-105254741D02*
G01*
X106581554Y-105256568D01*
X106582075Y-105257286D01*
X106589598Y-105260402D01*
X106596570Y-105277236D01*
X106603301Y-105286499D01*
X106605092Y-105297807D01*
X106606000Y-105300000D01*
X106606000Y-105800000D01*
X106600911Y-105812285D01*
X106600911Y-105871157D01*
X106598643Y-105886934D01*
X106558548Y-106023485D01*
X106551926Y-106037984D01*
X106474985Y-106157706D01*
X106464547Y-106169752D01*
X106356992Y-106262949D01*
X106343583Y-106271566D01*
X106214129Y-106330685D01*
X106198836Y-106335176D01*
X106057970Y-106355430D01*
X106050000Y-106356000D01*
X106048398Y-106356000D01*
X105551602Y-106356000D01*
X105550000Y-106356000D01*
X105542030Y-106355430D01*
X105401164Y-106335176D01*
X105385871Y-106330685D01*
X105256417Y-106271566D01*
X105243008Y-106262949D01*
X105135453Y-106169752D01*
X105125015Y-106157706D01*
X105048074Y-106037984D01*
X105041452Y-106023485D01*
X105001357Y-105886934D01*
X104999089Y-105871157D01*
X104999089Y-105824257D01*
X104997754Y-105820165D01*
X104994907Y-105802191D01*
X104994000Y-105800000D01*
X104994000Y-105300000D01*
X105004739Y-105274071D01*
X105006568Y-105268445D01*
X105007286Y-105267922D01*
X105010402Y-105260402D01*
X105027233Y-105253430D01*
X105036499Y-105246698D01*
X105047809Y-105244907D01*
X105050000Y-105244000D01*
X106550000Y-105244000D01*
X106575932Y-105254741D01*
G37*
G36*
X106057970Y-103944570D02*
G01*
X106059542Y-103944796D01*
X106059555Y-103944797D01*
X106195651Y-103964366D01*
X106198836Y-103964824D01*
X106214129Y-103969315D01*
X106217050Y-103970649D01*
X106217053Y-103970650D01*
X106250080Y-103985733D01*
X106343583Y-104028434D01*
X106356992Y-104037051D01*
X106464547Y-104130248D01*
X106474985Y-104142294D01*
X106551926Y-104262016D01*
X106558548Y-104276515D01*
X106598643Y-104413066D01*
X106600911Y-104428843D01*
X106600911Y-104432061D01*
X106600911Y-104475715D01*
X106602241Y-104479811D01*
X106605091Y-104497807D01*
X106606000Y-104500000D01*
X106606000Y-105000000D01*
X106595254Y-105025941D01*
X106593431Y-105031554D01*
X106592714Y-105032074D01*
X106589598Y-105039598D01*
X106572761Y-105046571D01*
X106563500Y-105053301D01*
X106552192Y-105055091D01*
X106550000Y-105056000D01*
X106546459Y-105056000D01*
X105057128Y-105056000D01*
X105050000Y-105056000D01*
X105024061Y-105045255D01*
X105018445Y-105043431D01*
X105017923Y-105042713D01*
X105010402Y-105039598D01*
X105003429Y-105022764D01*
X104996698Y-105013500D01*
X104994907Y-105002191D01*
X104994000Y-105000000D01*
X104994000Y-104500000D01*
X104999089Y-104487714D01*
X104999089Y-104428843D01*
X105001357Y-104413066D01*
X105022930Y-104339595D01*
X105040546Y-104279599D01*
X105040547Y-104279596D01*
X105041452Y-104276515D01*
X105048074Y-104262016D01*
X105049807Y-104259319D01*
X105049810Y-104259313D01*
X105123275Y-104145000D01*
X105123278Y-104144995D01*
X105125015Y-104142294D01*
X105135453Y-104130248D01*
X105137882Y-104128142D01*
X105137885Y-104128140D01*
X105240574Y-104039159D01*
X105240578Y-104039155D01*
X105243008Y-104037051D01*
X105256417Y-104028434D01*
X105259342Y-104027098D01*
X105259344Y-104027097D01*
X105382946Y-103970650D01*
X105382950Y-103970648D01*
X105385871Y-103969315D01*
X105401164Y-103964824D01*
X105404346Y-103964366D01*
X105404348Y-103964366D01*
X105540444Y-103944797D01*
X105540458Y-103944795D01*
X105542030Y-103944570D01*
X105550000Y-103944000D01*
X106050000Y-103944000D01*
X106057970Y-103944570D01*
G37*
G36*
X84639517Y-102912882D02*
G01*
X84656062Y-102923938D01*
X84667118Y-102940483D01*
X84671000Y-102960000D01*
X84671000Y-104660000D01*
X84667118Y-104679517D01*
X84656062Y-104696062D01*
X84639517Y-104707118D01*
X84620000Y-104711000D01*
X82920000Y-104711000D01*
X82900483Y-104707118D01*
X82883938Y-104696062D01*
X82872882Y-104679517D01*
X82869000Y-104660000D01*
X82869000Y-102960000D01*
X82872882Y-102940483D01*
X82883938Y-102923938D01*
X82900483Y-102912882D01*
X82920000Y-102909000D01*
X84620000Y-102909000D01*
X84639517Y-102912882D01*
G37*
G36*
X81277913Y-102913936D02*
G01*
X81324180Y-102913936D01*
X81364129Y-102922427D01*
X81405733Y-102926525D01*
X81457998Y-102942379D01*
X81508424Y-102953098D01*
X81540694Y-102967465D01*
X81574712Y-102977785D01*
X81628767Y-103006678D01*
X81680500Y-103029711D01*
X81704551Y-103047185D01*
X81730447Y-103061027D01*
X81783271Y-103104378D01*
X81832887Y-103140427D01*
X81848996Y-103158318D01*
X81866948Y-103173051D01*
X81915188Y-103231831D01*
X81958924Y-103280405D01*
X81968111Y-103296319D01*
X81978972Y-103309552D01*
X82019149Y-103384719D01*
X82053104Y-103443530D01*
X82057009Y-103455550D01*
X82062214Y-103465287D01*
X82090913Y-103559896D01*
X82111311Y-103622672D01*
X82112028Y-103629502D01*
X82113474Y-103634266D01*
X82127536Y-103777042D01*
X82131000Y-103810000D01*
X82127535Y-103842959D01*
X82113474Y-103985733D01*
X82112029Y-103990496D01*
X82111311Y-103997328D01*
X82090909Y-104060117D01*
X82062214Y-104154712D01*
X82057010Y-104164447D01*
X82053104Y-104176470D01*
X82019142Y-104235293D01*
X81978972Y-104310447D01*
X81968113Y-104323677D01*
X81958924Y-104339595D01*
X81915178Y-104388178D01*
X81866948Y-104446948D01*
X81849000Y-104461677D01*
X81832887Y-104479573D01*
X81783260Y-104515628D01*
X81730447Y-104558972D01*
X81704557Y-104572810D01*
X81680500Y-104590289D01*
X81628756Y-104613326D01*
X81574712Y-104642214D01*
X81540701Y-104652531D01*
X81508424Y-104666902D01*
X81457987Y-104677622D01*
X81405733Y-104693474D01*
X81364138Y-104697570D01*
X81324180Y-104706064D01*
X81277903Y-104706064D01*
X81230000Y-104710782D01*
X81182097Y-104706064D01*
X81135820Y-104706064D01*
X81095862Y-104697570D01*
X81054266Y-104693474D01*
X81002009Y-104677621D01*
X80951576Y-104666902D01*
X80919300Y-104652532D01*
X80885287Y-104642214D01*
X80831237Y-104613323D01*
X80779500Y-104590289D01*
X80755445Y-104572812D01*
X80729552Y-104558972D01*
X80676730Y-104515622D01*
X80627113Y-104479573D01*
X80611002Y-104461680D01*
X80593051Y-104446948D01*
X80544809Y-104388166D01*
X80501076Y-104339595D01*
X80491888Y-104323681D01*
X80481027Y-104310447D01*
X80440844Y-104235269D01*
X80406896Y-104176470D01*
X80402991Y-104164451D01*
X80397785Y-104154712D01*
X80369075Y-104060071D01*
X80348689Y-103997328D01*
X80347971Y-103990501D01*
X80346525Y-103985733D01*
X80332448Y-103842808D01*
X80329000Y-103810000D01*
X80332448Y-103777194D01*
X80346525Y-103634266D01*
X80347971Y-103629497D01*
X80348689Y-103622672D01*
X80369071Y-103559942D01*
X80397785Y-103465287D01*
X80402991Y-103455545D01*
X80406896Y-103443530D01*
X80440836Y-103384742D01*
X80481027Y-103309552D01*
X80491890Y-103296314D01*
X80501076Y-103280405D01*
X80544800Y-103231843D01*
X80593051Y-103173051D01*
X80611005Y-103158315D01*
X80627113Y-103140427D01*
X80676720Y-103104385D01*
X80729552Y-103061027D01*
X80755450Y-103047183D01*
X80779500Y-103029711D01*
X80831226Y-103006681D01*
X80885287Y-102977785D01*
X80919307Y-102967464D01*
X80951576Y-102953098D01*
X81001998Y-102942380D01*
X81054266Y-102926525D01*
X81095871Y-102922427D01*
X81135820Y-102913936D01*
X81182086Y-102913936D01*
X81230000Y-102909217D01*
X81277913Y-102913936D01*
G37*
G36*
X116277913Y-102913936D02*
G01*
X116324180Y-102913936D01*
X116364129Y-102922427D01*
X116405733Y-102926525D01*
X116457998Y-102942379D01*
X116508424Y-102953098D01*
X116540694Y-102967465D01*
X116574712Y-102977785D01*
X116628767Y-103006678D01*
X116680500Y-103029711D01*
X116704551Y-103047185D01*
X116730447Y-103061027D01*
X116783271Y-103104378D01*
X116832887Y-103140427D01*
X116848996Y-103158318D01*
X116866948Y-103173051D01*
X116915188Y-103231831D01*
X116958924Y-103280405D01*
X116968111Y-103296319D01*
X116978972Y-103309552D01*
X117019149Y-103384719D01*
X117053104Y-103443530D01*
X117057009Y-103455550D01*
X117062214Y-103465287D01*
X117090913Y-103559896D01*
X117111311Y-103622672D01*
X117112028Y-103629502D01*
X117113474Y-103634266D01*
X117127536Y-103777042D01*
X117131000Y-103810000D01*
X117127535Y-103842959D01*
X117113474Y-103985733D01*
X117112029Y-103990496D01*
X117111311Y-103997328D01*
X117090909Y-104060117D01*
X117062214Y-104154712D01*
X117057010Y-104164447D01*
X117053104Y-104176470D01*
X117019142Y-104235293D01*
X116978972Y-104310447D01*
X116968113Y-104323677D01*
X116958924Y-104339595D01*
X116915178Y-104388178D01*
X116866948Y-104446948D01*
X116849000Y-104461677D01*
X116832887Y-104479573D01*
X116783260Y-104515628D01*
X116730447Y-104558972D01*
X116704557Y-104572810D01*
X116680500Y-104590289D01*
X116628756Y-104613326D01*
X116574712Y-104642214D01*
X116540701Y-104652531D01*
X116508424Y-104666902D01*
X116457987Y-104677622D01*
X116405733Y-104693474D01*
X116364138Y-104697570D01*
X116324180Y-104706064D01*
X116277903Y-104706064D01*
X116230000Y-104710782D01*
X116182097Y-104706064D01*
X116135820Y-104706064D01*
X116095862Y-104697570D01*
X116054266Y-104693474D01*
X116002009Y-104677621D01*
X115951576Y-104666902D01*
X115919300Y-104652532D01*
X115885287Y-104642214D01*
X115831237Y-104613323D01*
X115779500Y-104590289D01*
X115755445Y-104572812D01*
X115729552Y-104558972D01*
X115676730Y-104515622D01*
X115627113Y-104479573D01*
X115611002Y-104461680D01*
X115593051Y-104446948D01*
X115544809Y-104388166D01*
X115501076Y-104339595D01*
X115491888Y-104323681D01*
X115481027Y-104310447D01*
X115440844Y-104235269D01*
X115406896Y-104176470D01*
X115402991Y-104164451D01*
X115397785Y-104154712D01*
X115369075Y-104060071D01*
X115348689Y-103997328D01*
X115347971Y-103990501D01*
X115346525Y-103985733D01*
X115332448Y-103842808D01*
X115329000Y-103810000D01*
X115332448Y-103777194D01*
X115346525Y-103634266D01*
X115347971Y-103629497D01*
X115348689Y-103622672D01*
X115369071Y-103559942D01*
X115397785Y-103465287D01*
X115402991Y-103455545D01*
X115406896Y-103443530D01*
X115440836Y-103384742D01*
X115481027Y-103309552D01*
X115491890Y-103296314D01*
X115501076Y-103280405D01*
X115544800Y-103231843D01*
X115593051Y-103173051D01*
X115611005Y-103158315D01*
X115627113Y-103140427D01*
X115676720Y-103104385D01*
X115729552Y-103061027D01*
X115755450Y-103047183D01*
X115779500Y-103029711D01*
X115831226Y-103006681D01*
X115885287Y-102977785D01*
X115919307Y-102967464D01*
X115951576Y-102953098D01*
X116001998Y-102942380D01*
X116054266Y-102926525D01*
X116095871Y-102922427D01*
X116135820Y-102913936D01*
X116182086Y-102913936D01*
X116230000Y-102909217D01*
X116277913Y-102913936D01*
G37*
G36*
X118817913Y-102913936D02*
G01*
X118864180Y-102913936D01*
X118904129Y-102922427D01*
X118945733Y-102926525D01*
X118997998Y-102942379D01*
X119048424Y-102953098D01*
X119080694Y-102967465D01*
X119114712Y-102977785D01*
X119168767Y-103006678D01*
X119220500Y-103029711D01*
X119244551Y-103047185D01*
X119270447Y-103061027D01*
X119323271Y-103104378D01*
X119372887Y-103140427D01*
X119388996Y-103158318D01*
X119406948Y-103173051D01*
X119455188Y-103231831D01*
X119498924Y-103280405D01*
X119508111Y-103296319D01*
X119518972Y-103309552D01*
X119559149Y-103384719D01*
X119593104Y-103443530D01*
X119597009Y-103455550D01*
X119602214Y-103465287D01*
X119630913Y-103559896D01*
X119651311Y-103622672D01*
X119652028Y-103629502D01*
X119653474Y-103634266D01*
X119667536Y-103777042D01*
X119671000Y-103810000D01*
X119667535Y-103842959D01*
X119653474Y-103985733D01*
X119652029Y-103990496D01*
X119651311Y-103997328D01*
X119630909Y-104060117D01*
X119602214Y-104154712D01*
X119597010Y-104164447D01*
X119593104Y-104176470D01*
X119559142Y-104235293D01*
X119518972Y-104310447D01*
X119508113Y-104323677D01*
X119498924Y-104339595D01*
X119455178Y-104388178D01*
X119406948Y-104446948D01*
X119389000Y-104461677D01*
X119372887Y-104479573D01*
X119323260Y-104515628D01*
X119270447Y-104558972D01*
X119244557Y-104572810D01*
X119220500Y-104590289D01*
X119168756Y-104613326D01*
X119114712Y-104642214D01*
X119080701Y-104652531D01*
X119048424Y-104666902D01*
X118997987Y-104677622D01*
X118945733Y-104693474D01*
X118904138Y-104697570D01*
X118864180Y-104706064D01*
X118817903Y-104706064D01*
X118770000Y-104710782D01*
X118722097Y-104706064D01*
X118675820Y-104706064D01*
X118635862Y-104697570D01*
X118594266Y-104693474D01*
X118542009Y-104677621D01*
X118491576Y-104666902D01*
X118459300Y-104652532D01*
X118425287Y-104642214D01*
X118371237Y-104613323D01*
X118319500Y-104590289D01*
X118295445Y-104572812D01*
X118269552Y-104558972D01*
X118216730Y-104515622D01*
X118167113Y-104479573D01*
X118151002Y-104461680D01*
X118133051Y-104446948D01*
X118084809Y-104388166D01*
X118041076Y-104339595D01*
X118031888Y-104323681D01*
X118021027Y-104310447D01*
X117980844Y-104235269D01*
X117946896Y-104176470D01*
X117942991Y-104164451D01*
X117937785Y-104154712D01*
X117909075Y-104060071D01*
X117888689Y-103997328D01*
X117887971Y-103990501D01*
X117886525Y-103985733D01*
X117872448Y-103842808D01*
X117869000Y-103810000D01*
X117872448Y-103777194D01*
X117886525Y-103634266D01*
X117887971Y-103629497D01*
X117888689Y-103622672D01*
X117909071Y-103559942D01*
X117937785Y-103465287D01*
X117942991Y-103455545D01*
X117946896Y-103443530D01*
X117980836Y-103384742D01*
X118021027Y-103309552D01*
X118031890Y-103296314D01*
X118041076Y-103280405D01*
X118084800Y-103231843D01*
X118133051Y-103173051D01*
X118151005Y-103158315D01*
X118167113Y-103140427D01*
X118216720Y-103104385D01*
X118269552Y-103061027D01*
X118295450Y-103047183D01*
X118319500Y-103029711D01*
X118371226Y-103006681D01*
X118425287Y-102977785D01*
X118459307Y-102967464D01*
X118491576Y-102953098D01*
X118541998Y-102942380D01*
X118594266Y-102926525D01*
X118635871Y-102922427D01*
X118675820Y-102913936D01*
X118722086Y-102913936D01*
X118770000Y-102909217D01*
X118817913Y-102913936D01*
G37*
G36*
X81277913Y-100373936D02*
G01*
X81324180Y-100373936D01*
X81364129Y-100382427D01*
X81405733Y-100386525D01*
X81457998Y-100402379D01*
X81508424Y-100413098D01*
X81540694Y-100427465D01*
X81574712Y-100437785D01*
X81628767Y-100466678D01*
X81680500Y-100489711D01*
X81704551Y-100507185D01*
X81730447Y-100521027D01*
X81783271Y-100564378D01*
X81832887Y-100600427D01*
X81848996Y-100618318D01*
X81866948Y-100633051D01*
X81915188Y-100691831D01*
X81958924Y-100740405D01*
X81968111Y-100756319D01*
X81978972Y-100769552D01*
X82019149Y-100844719D01*
X82053104Y-100903530D01*
X82057009Y-100915550D01*
X82062214Y-100925287D01*
X82090913Y-101019896D01*
X82111311Y-101082672D01*
X82112028Y-101089502D01*
X82113474Y-101094266D01*
X82127536Y-101237042D01*
X82131000Y-101270000D01*
X82127535Y-101302959D01*
X82113474Y-101445733D01*
X82112029Y-101450496D01*
X82111311Y-101457328D01*
X82090909Y-101520117D01*
X82062214Y-101614712D01*
X82057010Y-101624447D01*
X82053104Y-101636470D01*
X82019142Y-101695293D01*
X81978972Y-101770447D01*
X81968113Y-101783677D01*
X81958924Y-101799595D01*
X81915178Y-101848178D01*
X81866948Y-101906948D01*
X81849000Y-101921677D01*
X81832887Y-101939573D01*
X81783260Y-101975628D01*
X81730447Y-102018972D01*
X81704557Y-102032810D01*
X81680500Y-102050289D01*
X81628756Y-102073326D01*
X81574712Y-102102214D01*
X81540701Y-102112531D01*
X81508424Y-102126902D01*
X81457987Y-102137622D01*
X81405733Y-102153474D01*
X81364138Y-102157570D01*
X81324180Y-102166064D01*
X81277903Y-102166064D01*
X81230000Y-102170782D01*
X81182097Y-102166064D01*
X81135820Y-102166064D01*
X81095862Y-102157570D01*
X81054266Y-102153474D01*
X81002009Y-102137621D01*
X80951576Y-102126902D01*
X80919300Y-102112532D01*
X80885287Y-102102214D01*
X80831237Y-102073323D01*
X80779500Y-102050289D01*
X80755445Y-102032812D01*
X80729552Y-102018972D01*
X80676730Y-101975622D01*
X80627113Y-101939573D01*
X80611002Y-101921680D01*
X80593051Y-101906948D01*
X80544809Y-101848166D01*
X80501076Y-101799595D01*
X80491888Y-101783681D01*
X80481027Y-101770447D01*
X80440844Y-101695269D01*
X80406896Y-101636470D01*
X80402991Y-101624451D01*
X80397785Y-101614712D01*
X80369075Y-101520071D01*
X80348689Y-101457328D01*
X80347971Y-101450501D01*
X80346525Y-101445733D01*
X80332448Y-101302808D01*
X80329000Y-101270000D01*
X80332448Y-101237194D01*
X80346525Y-101094266D01*
X80347971Y-101089497D01*
X80348689Y-101082672D01*
X80369071Y-101019942D01*
X80397785Y-100925287D01*
X80402991Y-100915545D01*
X80406896Y-100903530D01*
X80440836Y-100844742D01*
X80481027Y-100769552D01*
X80491890Y-100756314D01*
X80501076Y-100740405D01*
X80544800Y-100691843D01*
X80593051Y-100633051D01*
X80611005Y-100618315D01*
X80627113Y-100600427D01*
X80676720Y-100564385D01*
X80729552Y-100521027D01*
X80755450Y-100507183D01*
X80779500Y-100489711D01*
X80831226Y-100466681D01*
X80885287Y-100437785D01*
X80919307Y-100427464D01*
X80951576Y-100413098D01*
X81001998Y-100402380D01*
X81054266Y-100386525D01*
X81095871Y-100382427D01*
X81135820Y-100373936D01*
X81182086Y-100373936D01*
X81230000Y-100369217D01*
X81277913Y-100373936D01*
G37*
G36*
X83817913Y-100373936D02*
G01*
X83864180Y-100373936D01*
X83904129Y-100382427D01*
X83945733Y-100386525D01*
X83997998Y-100402379D01*
X84048424Y-100413098D01*
X84080694Y-100427465D01*
X84114712Y-100437785D01*
X84168767Y-100466678D01*
X84220500Y-100489711D01*
X84244551Y-100507185D01*
X84270447Y-100521027D01*
X84323271Y-100564378D01*
X84372887Y-100600427D01*
X84388996Y-100618318D01*
X84406948Y-100633051D01*
X84455188Y-100691831D01*
X84498924Y-100740405D01*
X84508111Y-100756319D01*
X84518972Y-100769552D01*
X84559149Y-100844719D01*
X84593104Y-100903530D01*
X84597009Y-100915550D01*
X84602214Y-100925287D01*
X84630913Y-101019896D01*
X84651311Y-101082672D01*
X84652028Y-101089502D01*
X84653474Y-101094266D01*
X84667536Y-101237042D01*
X84671000Y-101270000D01*
X84667535Y-101302959D01*
X84653474Y-101445733D01*
X84652029Y-101450496D01*
X84651311Y-101457328D01*
X84630909Y-101520117D01*
X84602214Y-101614712D01*
X84597010Y-101624447D01*
X84593104Y-101636470D01*
X84559142Y-101695293D01*
X84518972Y-101770447D01*
X84508113Y-101783677D01*
X84498924Y-101799595D01*
X84455178Y-101848178D01*
X84406948Y-101906948D01*
X84389000Y-101921677D01*
X84372887Y-101939573D01*
X84323260Y-101975628D01*
X84270447Y-102018972D01*
X84244557Y-102032810D01*
X84220500Y-102050289D01*
X84168756Y-102073326D01*
X84114712Y-102102214D01*
X84080701Y-102112531D01*
X84048424Y-102126902D01*
X83997987Y-102137622D01*
X83945733Y-102153474D01*
X83904138Y-102157570D01*
X83864180Y-102166064D01*
X83817903Y-102166064D01*
X83770000Y-102170782D01*
X83722097Y-102166064D01*
X83675820Y-102166064D01*
X83635862Y-102157570D01*
X83594266Y-102153474D01*
X83542009Y-102137621D01*
X83491576Y-102126902D01*
X83459300Y-102112532D01*
X83425287Y-102102214D01*
X83371237Y-102073323D01*
X83319500Y-102050289D01*
X83295445Y-102032812D01*
X83269552Y-102018972D01*
X83216730Y-101975622D01*
X83167113Y-101939573D01*
X83151002Y-101921680D01*
X83133051Y-101906948D01*
X83084809Y-101848166D01*
X83041076Y-101799595D01*
X83031888Y-101783681D01*
X83021027Y-101770447D01*
X82980844Y-101695269D01*
X82946896Y-101636470D01*
X82942991Y-101624451D01*
X82937785Y-101614712D01*
X82909075Y-101520071D01*
X82888689Y-101457328D01*
X82887971Y-101450501D01*
X82886525Y-101445733D01*
X82872448Y-101302808D01*
X82869000Y-101270000D01*
X82872448Y-101237194D01*
X82886525Y-101094266D01*
X82887971Y-101089497D01*
X82888689Y-101082672D01*
X82909071Y-101019942D01*
X82937785Y-100925287D01*
X82942991Y-100915545D01*
X82946896Y-100903530D01*
X82980836Y-100844742D01*
X83021027Y-100769552D01*
X83031890Y-100756314D01*
X83041076Y-100740405D01*
X83084800Y-100691843D01*
X83133051Y-100633051D01*
X83151005Y-100618315D01*
X83167113Y-100600427D01*
X83216720Y-100564385D01*
X83269552Y-100521027D01*
X83295450Y-100507183D01*
X83319500Y-100489711D01*
X83371226Y-100466681D01*
X83425287Y-100437785D01*
X83459307Y-100427464D01*
X83491576Y-100413098D01*
X83541998Y-100402380D01*
X83594266Y-100386525D01*
X83635871Y-100382427D01*
X83675820Y-100373936D01*
X83722086Y-100373936D01*
X83770000Y-100369217D01*
X83817913Y-100373936D01*
G37*
G36*
X116277913Y-100373936D02*
G01*
X116324180Y-100373936D01*
X116364129Y-100382427D01*
X116405733Y-100386525D01*
X116457998Y-100402379D01*
X116508424Y-100413098D01*
X116540694Y-100427465D01*
X116574712Y-100437785D01*
X116628767Y-100466678D01*
X116680500Y-100489711D01*
X116704551Y-100507185D01*
X116730447Y-100521027D01*
X116783271Y-100564378D01*
X116832887Y-100600427D01*
X116848996Y-100618318D01*
X116866948Y-100633051D01*
X116915188Y-100691831D01*
X116958924Y-100740405D01*
X116968111Y-100756319D01*
X116978972Y-100769552D01*
X117019149Y-100844719D01*
X117053104Y-100903530D01*
X117057009Y-100915550D01*
X117062214Y-100925287D01*
X117090913Y-101019896D01*
X117111311Y-101082672D01*
X117112028Y-101089502D01*
X117113474Y-101094266D01*
X117127536Y-101237042D01*
X117131000Y-101270000D01*
X117127535Y-101302959D01*
X117113474Y-101445733D01*
X117112029Y-101450496D01*
X117111311Y-101457328D01*
X117090909Y-101520117D01*
X117062214Y-101614712D01*
X117057010Y-101624447D01*
X117053104Y-101636470D01*
X117019142Y-101695293D01*
X116978972Y-101770447D01*
X116968113Y-101783677D01*
X116958924Y-101799595D01*
X116915178Y-101848178D01*
X116866948Y-101906948D01*
X116849000Y-101921677D01*
X116832887Y-101939573D01*
X116783260Y-101975628D01*
X116730447Y-102018972D01*
X116704557Y-102032810D01*
X116680500Y-102050289D01*
X116628756Y-102073326D01*
X116574712Y-102102214D01*
X116540701Y-102112531D01*
X116508424Y-102126902D01*
X116457987Y-102137622D01*
X116405733Y-102153474D01*
X116364138Y-102157570D01*
X116324180Y-102166064D01*
X116277903Y-102166064D01*
X116230000Y-102170782D01*
X116182097Y-102166064D01*
X116135820Y-102166064D01*
X116095862Y-102157570D01*
X116054266Y-102153474D01*
X116002009Y-102137621D01*
X115951576Y-102126902D01*
X115919300Y-102112532D01*
X115885287Y-102102214D01*
X115831237Y-102073323D01*
X115779500Y-102050289D01*
X115755445Y-102032812D01*
X115729552Y-102018972D01*
X115676730Y-101975622D01*
X115627113Y-101939573D01*
X115611002Y-101921680D01*
X115593051Y-101906948D01*
X115544809Y-101848166D01*
X115501076Y-101799595D01*
X115491888Y-101783681D01*
X115481027Y-101770447D01*
X115440844Y-101695269D01*
X115406896Y-101636470D01*
X115402991Y-101624451D01*
X115397785Y-101614712D01*
X115369075Y-101520071D01*
X115348689Y-101457328D01*
X115347971Y-101450501D01*
X115346525Y-101445733D01*
X115332448Y-101302808D01*
X115329000Y-101270000D01*
X115332448Y-101237194D01*
X115346525Y-101094266D01*
X115347971Y-101089497D01*
X115348689Y-101082672D01*
X115369071Y-101019942D01*
X115397785Y-100925287D01*
X115402991Y-100915545D01*
X115406896Y-100903530D01*
X115440836Y-100844742D01*
X115481027Y-100769552D01*
X115491890Y-100756314D01*
X115501076Y-100740405D01*
X115544800Y-100691843D01*
X115593051Y-100633051D01*
X115611005Y-100618315D01*
X115627113Y-100600427D01*
X115676720Y-100564385D01*
X115729552Y-100521027D01*
X115755450Y-100507183D01*
X115779500Y-100489711D01*
X115831226Y-100466681D01*
X115885287Y-100437785D01*
X115919307Y-100427464D01*
X115951576Y-100413098D01*
X116001998Y-100402380D01*
X116054266Y-100386525D01*
X116095871Y-100382427D01*
X116135820Y-100373936D01*
X116182086Y-100373936D01*
X116230000Y-100369217D01*
X116277913Y-100373936D01*
G37*
G36*
X118817913Y-100373936D02*
G01*
X118864180Y-100373936D01*
X118904129Y-100382427D01*
X118945733Y-100386525D01*
X118997998Y-100402379D01*
X119048424Y-100413098D01*
X119080694Y-100427465D01*
X119114712Y-100437785D01*
X119168767Y-100466678D01*
X119220500Y-100489711D01*
X119244551Y-100507185D01*
X119270447Y-100521027D01*
X119323271Y-100564378D01*
X119372887Y-100600427D01*
X119388996Y-100618318D01*
X119406948Y-100633051D01*
X119455188Y-100691831D01*
X119498924Y-100740405D01*
X119508111Y-100756319D01*
X119518972Y-100769552D01*
X119559149Y-100844719D01*
X119593104Y-100903530D01*
X119597009Y-100915550D01*
X119602214Y-100925287D01*
X119630913Y-101019896D01*
X119651311Y-101082672D01*
X119652028Y-101089502D01*
X119653474Y-101094266D01*
X119667536Y-101237042D01*
X119671000Y-101270000D01*
X119667535Y-101302959D01*
X119653474Y-101445733D01*
X119652029Y-101450496D01*
X119651311Y-101457328D01*
X119630909Y-101520117D01*
X119602214Y-101614712D01*
X119597010Y-101624447D01*
X119593104Y-101636470D01*
X119559142Y-101695293D01*
X119518972Y-101770447D01*
X119508113Y-101783677D01*
X119498924Y-101799595D01*
X119455178Y-101848178D01*
X119406948Y-101906948D01*
X119389000Y-101921677D01*
X119372887Y-101939573D01*
X119323260Y-101975628D01*
X119270447Y-102018972D01*
X119244557Y-102032810D01*
X119220500Y-102050289D01*
X119168756Y-102073326D01*
X119114712Y-102102214D01*
X119080701Y-102112531D01*
X119048424Y-102126902D01*
X118997987Y-102137622D01*
X118945733Y-102153474D01*
X118904138Y-102157570D01*
X118864180Y-102166064D01*
X118817903Y-102166064D01*
X118770000Y-102170782D01*
X118722097Y-102166064D01*
X118675820Y-102166064D01*
X118635862Y-102157570D01*
X118594266Y-102153474D01*
X118542009Y-102137621D01*
X118491576Y-102126902D01*
X118459300Y-102112532D01*
X118425287Y-102102214D01*
X118371237Y-102073323D01*
X118319500Y-102050289D01*
X118295445Y-102032812D01*
X118269552Y-102018972D01*
X118216730Y-101975622D01*
X118167113Y-101939573D01*
X118151002Y-101921680D01*
X118133051Y-101906948D01*
X118084809Y-101848166D01*
X118041076Y-101799595D01*
X118031888Y-101783681D01*
X118021027Y-101770447D01*
X117980844Y-101695269D01*
X117946896Y-101636470D01*
X117942991Y-101624451D01*
X117937785Y-101614712D01*
X117909075Y-101520071D01*
X117888689Y-101457328D01*
X117887971Y-101450501D01*
X117886525Y-101445733D01*
X117872448Y-101302808D01*
X117869000Y-101270000D01*
X117872448Y-101237194D01*
X117886525Y-101094266D01*
X117887971Y-101089497D01*
X117888689Y-101082672D01*
X117909071Y-101019942D01*
X117937785Y-100925287D01*
X117942991Y-100915545D01*
X117946896Y-100903530D01*
X117980836Y-100844742D01*
X118021027Y-100769552D01*
X118031890Y-100756314D01*
X118041076Y-100740405D01*
X118084800Y-100691843D01*
X118133051Y-100633051D01*
X118151005Y-100618315D01*
X118167113Y-100600427D01*
X118216720Y-100564385D01*
X118269552Y-100521027D01*
X118295450Y-100507183D01*
X118319500Y-100489711D01*
X118371226Y-100466681D01*
X118425287Y-100437785D01*
X118459307Y-100427464D01*
X118491576Y-100413098D01*
X118541998Y-100402380D01*
X118594266Y-100386525D01*
X118635871Y-100382427D01*
X118675820Y-100373936D01*
X118722086Y-100373936D01*
X118770000Y-100369217D01*
X118817913Y-100373936D01*
G37*
G36*
X81277913Y-97833936D02*
G01*
X81324180Y-97833936D01*
X81364129Y-97842427D01*
X81405733Y-97846525D01*
X81457998Y-97862379D01*
X81508424Y-97873098D01*
X81540694Y-97887465D01*
X81574712Y-97897785D01*
X81628767Y-97926678D01*
X81680500Y-97949711D01*
X81704551Y-97967185D01*
X81730447Y-97981027D01*
X81783271Y-98024378D01*
X81832887Y-98060427D01*
X81848996Y-98078318D01*
X81866948Y-98093051D01*
X81915188Y-98151831D01*
X81958924Y-98200405D01*
X81968111Y-98216319D01*
X81978972Y-98229552D01*
X82019149Y-98304719D01*
X82053104Y-98363530D01*
X82057009Y-98375550D01*
X82062214Y-98385287D01*
X82090913Y-98479896D01*
X82111311Y-98542672D01*
X82112028Y-98549502D01*
X82113474Y-98554266D01*
X82127536Y-98697042D01*
X82131000Y-98730000D01*
X82127535Y-98762959D01*
X82113474Y-98905733D01*
X82112029Y-98910496D01*
X82111311Y-98917328D01*
X82090909Y-98980117D01*
X82062214Y-99074712D01*
X82057010Y-99084447D01*
X82053104Y-99096470D01*
X82019142Y-99155293D01*
X81978972Y-99230447D01*
X81968113Y-99243677D01*
X81958924Y-99259595D01*
X81915178Y-99308178D01*
X81866948Y-99366948D01*
X81849000Y-99381677D01*
X81832887Y-99399573D01*
X81783260Y-99435628D01*
X81730447Y-99478972D01*
X81704557Y-99492810D01*
X81680500Y-99510289D01*
X81628756Y-99533326D01*
X81574712Y-99562214D01*
X81540701Y-99572531D01*
X81508424Y-99586902D01*
X81457987Y-99597622D01*
X81405733Y-99613474D01*
X81364138Y-99617570D01*
X81324180Y-99626064D01*
X81277903Y-99626064D01*
X81230000Y-99630782D01*
X81182097Y-99626064D01*
X81135820Y-99626064D01*
X81095862Y-99617570D01*
X81054266Y-99613474D01*
X81002009Y-99597621D01*
X80951576Y-99586902D01*
X80919300Y-99572532D01*
X80885287Y-99562214D01*
X80831237Y-99533323D01*
X80779500Y-99510289D01*
X80755445Y-99492812D01*
X80729552Y-99478972D01*
X80676730Y-99435622D01*
X80627113Y-99399573D01*
X80611002Y-99381680D01*
X80593051Y-99366948D01*
X80544809Y-99308166D01*
X80501076Y-99259595D01*
X80491888Y-99243681D01*
X80481027Y-99230447D01*
X80440844Y-99155269D01*
X80406896Y-99096470D01*
X80402991Y-99084451D01*
X80397785Y-99074712D01*
X80369075Y-98980071D01*
X80348689Y-98917328D01*
X80347971Y-98910501D01*
X80346525Y-98905733D01*
X80332448Y-98762808D01*
X80329000Y-98730000D01*
X80332448Y-98697194D01*
X80346525Y-98554266D01*
X80347971Y-98549497D01*
X80348689Y-98542672D01*
X80369071Y-98479942D01*
X80397785Y-98385287D01*
X80402991Y-98375545D01*
X80406896Y-98363530D01*
X80440836Y-98304742D01*
X80481027Y-98229552D01*
X80491890Y-98216314D01*
X80501076Y-98200405D01*
X80544800Y-98151843D01*
X80593051Y-98093051D01*
X80611005Y-98078315D01*
X80627113Y-98060427D01*
X80676720Y-98024385D01*
X80729552Y-97981027D01*
X80755450Y-97967183D01*
X80779500Y-97949711D01*
X80831226Y-97926681D01*
X80885287Y-97897785D01*
X80919307Y-97887464D01*
X80951576Y-97873098D01*
X81001998Y-97862380D01*
X81054266Y-97846525D01*
X81095871Y-97842427D01*
X81135820Y-97833936D01*
X81182086Y-97833936D01*
X81230000Y-97829217D01*
X81277913Y-97833936D01*
G37*
G36*
X83817913Y-97833936D02*
G01*
X83864180Y-97833936D01*
X83904129Y-97842427D01*
X83945733Y-97846525D01*
X83997998Y-97862379D01*
X84048424Y-97873098D01*
X84080694Y-97887465D01*
X84114712Y-97897785D01*
X84168767Y-97926678D01*
X84220500Y-97949711D01*
X84244551Y-97967185D01*
X84270447Y-97981027D01*
X84323271Y-98024378D01*
X84372887Y-98060427D01*
X84388996Y-98078318D01*
X84406948Y-98093051D01*
X84455188Y-98151831D01*
X84498924Y-98200405D01*
X84508111Y-98216319D01*
X84518972Y-98229552D01*
X84559149Y-98304719D01*
X84593104Y-98363530D01*
X84597009Y-98375550D01*
X84602214Y-98385287D01*
X84630913Y-98479896D01*
X84651311Y-98542672D01*
X84652028Y-98549502D01*
X84653474Y-98554266D01*
X84667536Y-98697042D01*
X84671000Y-98730000D01*
X84667535Y-98762959D01*
X84653474Y-98905733D01*
X84652029Y-98910496D01*
X84651311Y-98917328D01*
X84630909Y-98980117D01*
X84602214Y-99074712D01*
X84597010Y-99084447D01*
X84593104Y-99096470D01*
X84559142Y-99155293D01*
X84518972Y-99230447D01*
X84508113Y-99243677D01*
X84498924Y-99259595D01*
X84455178Y-99308178D01*
X84406948Y-99366948D01*
X84389000Y-99381677D01*
X84372887Y-99399573D01*
X84323260Y-99435628D01*
X84270447Y-99478972D01*
X84244557Y-99492810D01*
X84220500Y-99510289D01*
X84168756Y-99533326D01*
X84114712Y-99562214D01*
X84080701Y-99572531D01*
X84048424Y-99586902D01*
X83997987Y-99597622D01*
X83945733Y-99613474D01*
X83904138Y-99617570D01*
X83864180Y-99626064D01*
X83817903Y-99626064D01*
X83770000Y-99630782D01*
X83722097Y-99626064D01*
X83675820Y-99626064D01*
X83635862Y-99617570D01*
X83594266Y-99613474D01*
X83542009Y-99597621D01*
X83491576Y-99586902D01*
X83459300Y-99572532D01*
X83425287Y-99562214D01*
X83371237Y-99533323D01*
X83319500Y-99510289D01*
X83295445Y-99492812D01*
X83269552Y-99478972D01*
X83216730Y-99435622D01*
X83167113Y-99399573D01*
X83151002Y-99381680D01*
X83133051Y-99366948D01*
X83084809Y-99308166D01*
X83041076Y-99259595D01*
X83031888Y-99243681D01*
X83021027Y-99230447D01*
X82980844Y-99155269D01*
X82946896Y-99096470D01*
X82942991Y-99084451D01*
X82937785Y-99074712D01*
X82909075Y-98980071D01*
X82888689Y-98917328D01*
X82887971Y-98910501D01*
X82886525Y-98905733D01*
X82872448Y-98762808D01*
X82869000Y-98730000D01*
X82872448Y-98697194D01*
X82886525Y-98554266D01*
X82887971Y-98549497D01*
X82888689Y-98542672D01*
X82909071Y-98479942D01*
X82937785Y-98385287D01*
X82942991Y-98375545D01*
X82946896Y-98363530D01*
X82980836Y-98304742D01*
X83021027Y-98229552D01*
X83031890Y-98216314D01*
X83041076Y-98200405D01*
X83084800Y-98151843D01*
X83133051Y-98093051D01*
X83151005Y-98078315D01*
X83167113Y-98060427D01*
X83216720Y-98024385D01*
X83269552Y-97981027D01*
X83295450Y-97967183D01*
X83319500Y-97949711D01*
X83371226Y-97926681D01*
X83425287Y-97897785D01*
X83459307Y-97887464D01*
X83491576Y-97873098D01*
X83541998Y-97862380D01*
X83594266Y-97846525D01*
X83635871Y-97842427D01*
X83675820Y-97833936D01*
X83722086Y-97833936D01*
X83770000Y-97829217D01*
X83817913Y-97833936D01*
G37*
G36*
X116277913Y-97833936D02*
G01*
X116324180Y-97833936D01*
X116364129Y-97842427D01*
X116405733Y-97846525D01*
X116457998Y-97862379D01*
X116508424Y-97873098D01*
X116540694Y-97887465D01*
X116574712Y-97897785D01*
X116628767Y-97926678D01*
X116680500Y-97949711D01*
X116704551Y-97967185D01*
X116730447Y-97981027D01*
X116783271Y-98024378D01*
X116832887Y-98060427D01*
X116848996Y-98078318D01*
X116866948Y-98093051D01*
X116915188Y-98151831D01*
X116958924Y-98200405D01*
X116968111Y-98216319D01*
X116978972Y-98229552D01*
X117019149Y-98304719D01*
X117053104Y-98363530D01*
X117057009Y-98375550D01*
X117062214Y-98385287D01*
X117090913Y-98479896D01*
X117111311Y-98542672D01*
X117112028Y-98549502D01*
X117113474Y-98554266D01*
X117127536Y-98697042D01*
X117131000Y-98730000D01*
X117127535Y-98762959D01*
X117113474Y-98905733D01*
X117112029Y-98910496D01*
X117111311Y-98917328D01*
X117090909Y-98980117D01*
X117062214Y-99074712D01*
X117057010Y-99084447D01*
X117053104Y-99096470D01*
X117019142Y-99155293D01*
X116978972Y-99230447D01*
X116968113Y-99243677D01*
X116958924Y-99259595D01*
X116915178Y-99308178D01*
X116866948Y-99366948D01*
X116849000Y-99381677D01*
X116832887Y-99399573D01*
X116783260Y-99435628D01*
X116730447Y-99478972D01*
X116704557Y-99492810D01*
X116680500Y-99510289D01*
X116628756Y-99533326D01*
X116574712Y-99562214D01*
X116540701Y-99572531D01*
X116508424Y-99586902D01*
X116457987Y-99597622D01*
X116405733Y-99613474D01*
X116364138Y-99617570D01*
X116324180Y-99626064D01*
X116277903Y-99626064D01*
X116230000Y-99630782D01*
X116182097Y-99626064D01*
X116135820Y-99626064D01*
X116095862Y-99617570D01*
X116054266Y-99613474D01*
X116002009Y-99597621D01*
X115951576Y-99586902D01*
X115919300Y-99572532D01*
X115885287Y-99562214D01*
X115831237Y-99533323D01*
X115779500Y-99510289D01*
X115755445Y-99492812D01*
X115729552Y-99478972D01*
X115676730Y-99435622D01*
X115627113Y-99399573D01*
X115611002Y-99381680D01*
X115593051Y-99366948D01*
X115544809Y-99308166D01*
X115501076Y-99259595D01*
X115491888Y-99243681D01*
X115481027Y-99230447D01*
X115440844Y-99155269D01*
X115406896Y-99096470D01*
X115402991Y-99084451D01*
X115397785Y-99074712D01*
X115369075Y-98980071D01*
X115348689Y-98917328D01*
X115347971Y-98910501D01*
X115346525Y-98905733D01*
X115332448Y-98762808D01*
X115329000Y-98730000D01*
X115332448Y-98697194D01*
X115346525Y-98554266D01*
X115347971Y-98549497D01*
X115348689Y-98542672D01*
X115369071Y-98479942D01*
X115397785Y-98385287D01*
X115402991Y-98375545D01*
X115406896Y-98363530D01*
X115440836Y-98304742D01*
X115481027Y-98229552D01*
X115491890Y-98216314D01*
X115501076Y-98200405D01*
X115544800Y-98151843D01*
X115593051Y-98093051D01*
X115611005Y-98078315D01*
X115627113Y-98060427D01*
X115676720Y-98024385D01*
X115729552Y-97981027D01*
X115755450Y-97967183D01*
X115779500Y-97949711D01*
X115831226Y-97926681D01*
X115885287Y-97897785D01*
X115919307Y-97887464D01*
X115951576Y-97873098D01*
X116001998Y-97862380D01*
X116054266Y-97846525D01*
X116095871Y-97842427D01*
X116135820Y-97833936D01*
X116182086Y-97833936D01*
X116230000Y-97829217D01*
X116277913Y-97833936D01*
G37*
G36*
X118817913Y-97833936D02*
G01*
X118864180Y-97833936D01*
X118904129Y-97842427D01*
X118945733Y-97846525D01*
X118997998Y-97862379D01*
X119048424Y-97873098D01*
X119080694Y-97887465D01*
X119114712Y-97897785D01*
X119168767Y-97926678D01*
X119220500Y-97949711D01*
X119244551Y-97967185D01*
X119270447Y-97981027D01*
X119323271Y-98024378D01*
X119372887Y-98060427D01*
X119388996Y-98078318D01*
X119406948Y-98093051D01*
X119455188Y-98151831D01*
X119498924Y-98200405D01*
X119508111Y-98216319D01*
X119518972Y-98229552D01*
X119559149Y-98304719D01*
X119593104Y-98363530D01*
X119597009Y-98375550D01*
X119602214Y-98385287D01*
X119630913Y-98479896D01*
X119651311Y-98542672D01*
X119652028Y-98549502D01*
X119653474Y-98554266D01*
X119667536Y-98697042D01*
X119671000Y-98730000D01*
X119667535Y-98762959D01*
X119653474Y-98905733D01*
X119652029Y-98910496D01*
X119651311Y-98917328D01*
X119630909Y-98980117D01*
X119602214Y-99074712D01*
X119597010Y-99084447D01*
X119593104Y-99096470D01*
X119559142Y-99155293D01*
X119518972Y-99230447D01*
X119508113Y-99243677D01*
X119498924Y-99259595D01*
X119455178Y-99308178D01*
X119406948Y-99366948D01*
X119389000Y-99381677D01*
X119372887Y-99399573D01*
X119323260Y-99435628D01*
X119270447Y-99478972D01*
X119244557Y-99492810D01*
X119220500Y-99510289D01*
X119168756Y-99533326D01*
X119114712Y-99562214D01*
X119080701Y-99572531D01*
X119048424Y-99586902D01*
X118997987Y-99597622D01*
X118945733Y-99613474D01*
X118904138Y-99617570D01*
X118864180Y-99626064D01*
X118817903Y-99626064D01*
X118770000Y-99630782D01*
X118722097Y-99626064D01*
X118675820Y-99626064D01*
X118635862Y-99617570D01*
X118594266Y-99613474D01*
X118542009Y-99597621D01*
X118491576Y-99586902D01*
X118459300Y-99572532D01*
X118425287Y-99562214D01*
X118371237Y-99533323D01*
X118319500Y-99510289D01*
X118295445Y-99492812D01*
X118269552Y-99478972D01*
X118216730Y-99435622D01*
X118167113Y-99399573D01*
X118151002Y-99381680D01*
X118133051Y-99366948D01*
X118084809Y-99308166D01*
X118041076Y-99259595D01*
X118031888Y-99243681D01*
X118021027Y-99230447D01*
X117980844Y-99155269D01*
X117946896Y-99096470D01*
X117942991Y-99084451D01*
X117937785Y-99074712D01*
X117909075Y-98980071D01*
X117888689Y-98917328D01*
X117887971Y-98910501D01*
X117886525Y-98905733D01*
X117872448Y-98762808D01*
X117869000Y-98730000D01*
X117872448Y-98697194D01*
X117886525Y-98554266D01*
X117887971Y-98549497D01*
X117888689Y-98542672D01*
X117909071Y-98479942D01*
X117937785Y-98385287D01*
X117942991Y-98375545D01*
X117946896Y-98363530D01*
X117980836Y-98304742D01*
X118021027Y-98229552D01*
X118031890Y-98216314D01*
X118041076Y-98200405D01*
X118084800Y-98151843D01*
X118133051Y-98093051D01*
X118151005Y-98078315D01*
X118167113Y-98060427D01*
X118216720Y-98024385D01*
X118269552Y-97981027D01*
X118295450Y-97967183D01*
X118319500Y-97949711D01*
X118371226Y-97926681D01*
X118425287Y-97897785D01*
X118459307Y-97887464D01*
X118491576Y-97873098D01*
X118541998Y-97862380D01*
X118594266Y-97846525D01*
X118635871Y-97842427D01*
X118675820Y-97833936D01*
X118722086Y-97833936D01*
X118770000Y-97829217D01*
X118817913Y-97833936D01*
G37*
G36*
X117099517Y-95292882D02*
G01*
X117116062Y-95303938D01*
X117127118Y-95320483D01*
X117131000Y-95340000D01*
X117131000Y-97040000D01*
X117127118Y-97059517D01*
X117116062Y-97076062D01*
X117099517Y-97087118D01*
X117080000Y-97091000D01*
X115380000Y-97091000D01*
X115360483Y-97087118D01*
X115343938Y-97076062D01*
X115332882Y-97059517D01*
X115329000Y-97040000D01*
X115329000Y-95340000D01*
X115332882Y-95320483D01*
X115343938Y-95303938D01*
X115360483Y-95292882D01*
X115380000Y-95289000D01*
X117080000Y-95289000D01*
X117099517Y-95292882D01*
G37*
G36*
X81277913Y-95293936D02*
G01*
X81324180Y-95293936D01*
X81364129Y-95302427D01*
X81405733Y-95306525D01*
X81457998Y-95322379D01*
X81508424Y-95333098D01*
X81540694Y-95347465D01*
X81574712Y-95357785D01*
X81628767Y-95386678D01*
X81680500Y-95409711D01*
X81704551Y-95427185D01*
X81730447Y-95441027D01*
X81783271Y-95484378D01*
X81832887Y-95520427D01*
X81848996Y-95538318D01*
X81866948Y-95553051D01*
X81915188Y-95611831D01*
X81958924Y-95660405D01*
X81968111Y-95676319D01*
X81978972Y-95689552D01*
X82019149Y-95764719D01*
X82053104Y-95823530D01*
X82057009Y-95835550D01*
X82062214Y-95845287D01*
X82090913Y-95939896D01*
X82111311Y-96002672D01*
X82112028Y-96009502D01*
X82113474Y-96014266D01*
X82127536Y-96157042D01*
X82131000Y-96190000D01*
X82127535Y-96222959D01*
X82113474Y-96365733D01*
X82112029Y-96370496D01*
X82111311Y-96377328D01*
X82090909Y-96440117D01*
X82062214Y-96534712D01*
X82057010Y-96544447D01*
X82053104Y-96556470D01*
X82019142Y-96615293D01*
X81978972Y-96690447D01*
X81968113Y-96703677D01*
X81958924Y-96719595D01*
X81915178Y-96768178D01*
X81866948Y-96826948D01*
X81849000Y-96841677D01*
X81832887Y-96859573D01*
X81783260Y-96895628D01*
X81730447Y-96938972D01*
X81704557Y-96952810D01*
X81680500Y-96970289D01*
X81628756Y-96993326D01*
X81574712Y-97022214D01*
X81540701Y-97032531D01*
X81508424Y-97046902D01*
X81457987Y-97057622D01*
X81405733Y-97073474D01*
X81364138Y-97077570D01*
X81324180Y-97086064D01*
X81277903Y-97086064D01*
X81230000Y-97090782D01*
X81182097Y-97086064D01*
X81135820Y-97086064D01*
X81095862Y-97077570D01*
X81054266Y-97073474D01*
X81002009Y-97057621D01*
X80951576Y-97046902D01*
X80919300Y-97032532D01*
X80885287Y-97022214D01*
X80831237Y-96993323D01*
X80779500Y-96970289D01*
X80755445Y-96952812D01*
X80729552Y-96938972D01*
X80676730Y-96895622D01*
X80627113Y-96859573D01*
X80611002Y-96841680D01*
X80593051Y-96826948D01*
X80544809Y-96768166D01*
X80501076Y-96719595D01*
X80491888Y-96703681D01*
X80481027Y-96690447D01*
X80440844Y-96615269D01*
X80406896Y-96556470D01*
X80402991Y-96544451D01*
X80397785Y-96534712D01*
X80369075Y-96440071D01*
X80348689Y-96377328D01*
X80347971Y-96370501D01*
X80346525Y-96365733D01*
X80332448Y-96222808D01*
X80329000Y-96190000D01*
X80332448Y-96157194D01*
X80346525Y-96014266D01*
X80347971Y-96009497D01*
X80348689Y-96002672D01*
X80369071Y-95939942D01*
X80397785Y-95845287D01*
X80402991Y-95835545D01*
X80406896Y-95823530D01*
X80440836Y-95764742D01*
X80481027Y-95689552D01*
X80491890Y-95676314D01*
X80501076Y-95660405D01*
X80544800Y-95611843D01*
X80593051Y-95553051D01*
X80611005Y-95538315D01*
X80627113Y-95520427D01*
X80676720Y-95484385D01*
X80729552Y-95441027D01*
X80755450Y-95427183D01*
X80779500Y-95409711D01*
X80831226Y-95386681D01*
X80885287Y-95357785D01*
X80919307Y-95347464D01*
X80951576Y-95333098D01*
X81001998Y-95322380D01*
X81054266Y-95306525D01*
X81095871Y-95302427D01*
X81135820Y-95293936D01*
X81182086Y-95293936D01*
X81230000Y-95289217D01*
X81277913Y-95293936D01*
G37*
G36*
X83817913Y-95293936D02*
G01*
X83864180Y-95293936D01*
X83904129Y-95302427D01*
X83945733Y-95306525D01*
X83997998Y-95322379D01*
X84048424Y-95333098D01*
X84080694Y-95347465D01*
X84114712Y-95357785D01*
X84168767Y-95386678D01*
X84220500Y-95409711D01*
X84244551Y-95427185D01*
X84270447Y-95441027D01*
X84323271Y-95484378D01*
X84372887Y-95520427D01*
X84388996Y-95538318D01*
X84406948Y-95553051D01*
X84455188Y-95611831D01*
X84498924Y-95660405D01*
X84508111Y-95676319D01*
X84518972Y-95689552D01*
X84559149Y-95764719D01*
X84593104Y-95823530D01*
X84597009Y-95835550D01*
X84602214Y-95845287D01*
X84630913Y-95939896D01*
X84651311Y-96002672D01*
X84652028Y-96009502D01*
X84653474Y-96014266D01*
X84667536Y-96157042D01*
X84671000Y-96190000D01*
X84667535Y-96222959D01*
X84653474Y-96365733D01*
X84652029Y-96370496D01*
X84651311Y-96377328D01*
X84630909Y-96440117D01*
X84602214Y-96534712D01*
X84597010Y-96544447D01*
X84593104Y-96556470D01*
X84559142Y-96615293D01*
X84518972Y-96690447D01*
X84508113Y-96703677D01*
X84498924Y-96719595D01*
X84455178Y-96768178D01*
X84406948Y-96826948D01*
X84389000Y-96841677D01*
X84372887Y-96859573D01*
X84323260Y-96895628D01*
X84270447Y-96938972D01*
X84244557Y-96952810D01*
X84220500Y-96970289D01*
X84168756Y-96993326D01*
X84114712Y-97022214D01*
X84080701Y-97032531D01*
X84048424Y-97046902D01*
X83997987Y-97057622D01*
X83945733Y-97073474D01*
X83904138Y-97077570D01*
X83864180Y-97086064D01*
X83817903Y-97086064D01*
X83770000Y-97090782D01*
X83722097Y-97086064D01*
X83675820Y-97086064D01*
X83635862Y-97077570D01*
X83594266Y-97073474D01*
X83542009Y-97057621D01*
X83491576Y-97046902D01*
X83459300Y-97032532D01*
X83425287Y-97022214D01*
X83371237Y-96993323D01*
X83319500Y-96970289D01*
X83295445Y-96952812D01*
X83269552Y-96938972D01*
X83216730Y-96895622D01*
X83167113Y-96859573D01*
X83151002Y-96841680D01*
X83133051Y-96826948D01*
X83084809Y-96768166D01*
X83041076Y-96719595D01*
X83031888Y-96703681D01*
X83021027Y-96690447D01*
X82980844Y-96615269D01*
X82946896Y-96556470D01*
X82942991Y-96544451D01*
X82937785Y-96534712D01*
X82909075Y-96440071D01*
X82888689Y-96377328D01*
X82887971Y-96370501D01*
X82886525Y-96365733D01*
X82872448Y-96222808D01*
X82869000Y-96190000D01*
X82872448Y-96157194D01*
X82886525Y-96014266D01*
X82887971Y-96009497D01*
X82888689Y-96002672D01*
X82909071Y-95939942D01*
X82937785Y-95845287D01*
X82942991Y-95835545D01*
X82946896Y-95823530D01*
X82980836Y-95764742D01*
X83021027Y-95689552D01*
X83031890Y-95676314D01*
X83041076Y-95660405D01*
X83084800Y-95611843D01*
X83133051Y-95553051D01*
X83151005Y-95538315D01*
X83167113Y-95520427D01*
X83216720Y-95484385D01*
X83269552Y-95441027D01*
X83295450Y-95427183D01*
X83319500Y-95409711D01*
X83371226Y-95386681D01*
X83425287Y-95357785D01*
X83459307Y-95347464D01*
X83491576Y-95333098D01*
X83541998Y-95322380D01*
X83594266Y-95306525D01*
X83635871Y-95302427D01*
X83675820Y-95293936D01*
X83722086Y-95293936D01*
X83770000Y-95289217D01*
X83817913Y-95293936D01*
G37*
G36*
X118817913Y-95293936D02*
G01*
X118864180Y-95293936D01*
X118904129Y-95302427D01*
X118945733Y-95306525D01*
X118997998Y-95322379D01*
X119048424Y-95333098D01*
X119080694Y-95347465D01*
X119114712Y-95357785D01*
X119168767Y-95386678D01*
X119220500Y-95409711D01*
X119244551Y-95427185D01*
X119270447Y-95441027D01*
X119323271Y-95484378D01*
X119372887Y-95520427D01*
X119388996Y-95538318D01*
X119406948Y-95553051D01*
X119455188Y-95611831D01*
X119498924Y-95660405D01*
X119508111Y-95676319D01*
X119518972Y-95689552D01*
X119559149Y-95764719D01*
X119593104Y-95823530D01*
X119597009Y-95835550D01*
X119602214Y-95845287D01*
X119630913Y-95939896D01*
X119651311Y-96002672D01*
X119652028Y-96009502D01*
X119653474Y-96014266D01*
X119667536Y-96157042D01*
X119671000Y-96190000D01*
X119667535Y-96222959D01*
X119653474Y-96365733D01*
X119652029Y-96370496D01*
X119651311Y-96377328D01*
X119630909Y-96440117D01*
X119602214Y-96534712D01*
X119597010Y-96544447D01*
X119593104Y-96556470D01*
X119559142Y-96615293D01*
X119518972Y-96690447D01*
X119508113Y-96703677D01*
X119498924Y-96719595D01*
X119455178Y-96768178D01*
X119406948Y-96826948D01*
X119389000Y-96841677D01*
X119372887Y-96859573D01*
X119323260Y-96895628D01*
X119270447Y-96938972D01*
X119244557Y-96952810D01*
X119220500Y-96970289D01*
X119168756Y-96993326D01*
X119114712Y-97022214D01*
X119080701Y-97032531D01*
X119048424Y-97046902D01*
X118997987Y-97057622D01*
X118945733Y-97073474D01*
X118904138Y-97077570D01*
X118864180Y-97086064D01*
X118817903Y-97086064D01*
X118770000Y-97090782D01*
X118722097Y-97086064D01*
X118675820Y-97086064D01*
X118635862Y-97077570D01*
X118594266Y-97073474D01*
X118542009Y-97057621D01*
X118491576Y-97046902D01*
X118459300Y-97032532D01*
X118425287Y-97022214D01*
X118371237Y-96993323D01*
X118319500Y-96970289D01*
X118295445Y-96952812D01*
X118269552Y-96938972D01*
X118216730Y-96895622D01*
X118167113Y-96859573D01*
X118151002Y-96841680D01*
X118133051Y-96826948D01*
X118084809Y-96768166D01*
X118041076Y-96719595D01*
X118031888Y-96703681D01*
X118021027Y-96690447D01*
X117980844Y-96615269D01*
X117946896Y-96556470D01*
X117942991Y-96544451D01*
X117937785Y-96534712D01*
X117909075Y-96440071D01*
X117888689Y-96377328D01*
X117887971Y-96370501D01*
X117886525Y-96365733D01*
X117872448Y-96222808D01*
X117869000Y-96190000D01*
X117872448Y-96157194D01*
X117886525Y-96014266D01*
X117887971Y-96009497D01*
X117888689Y-96002672D01*
X117909071Y-95939942D01*
X117937785Y-95845287D01*
X117942991Y-95835545D01*
X117946896Y-95823530D01*
X117980836Y-95764742D01*
X118021027Y-95689552D01*
X118031890Y-95676314D01*
X118041076Y-95660405D01*
X118084800Y-95611843D01*
X118133051Y-95553051D01*
X118151005Y-95538315D01*
X118167113Y-95520427D01*
X118216720Y-95484385D01*
X118269552Y-95441027D01*
X118295450Y-95427183D01*
X118319500Y-95409711D01*
X118371226Y-95386681D01*
X118425287Y-95357785D01*
X118459307Y-95347464D01*
X118491576Y-95333098D01*
X118541998Y-95322380D01*
X118594266Y-95306525D01*
X118635871Y-95302427D01*
X118675820Y-95293936D01*
X118722086Y-95293936D01*
X118770000Y-95289217D01*
X118817913Y-95293936D01*
G37*
G36*
X119041127Y-89203634D02*
G01*
X119083700Y-89203634D01*
X119131725Y-89213842D01*
X119178239Y-89219083D01*
X119212062Y-89230918D01*
X119247445Y-89238439D01*
X119298437Y-89261141D01*
X119347541Y-89278324D01*
X119373098Y-89294383D01*
X119400377Y-89306528D01*
X119451242Y-89343483D01*
X119499415Y-89373753D01*
X119516715Y-89391053D01*
X119535808Y-89404925D01*
X119583010Y-89457348D01*
X119626247Y-89500585D01*
X119636192Y-89516412D01*
X119647824Y-89529331D01*
X119687614Y-89598250D01*
X119721676Y-89652459D01*
X119725929Y-89664613D01*
X119731522Y-89674301D01*
X119760160Y-89762442D01*
X119780917Y-89821761D01*
X119781704Y-89828746D01*
X119783254Y-89833517D01*
X119797309Y-89967242D01*
X119801000Y-90000000D01*
X119797308Y-90032760D01*
X119783254Y-90166482D01*
X119781704Y-90171251D01*
X119780917Y-90178239D01*
X119760156Y-90237570D01*
X119731522Y-90325698D01*
X119725930Y-90335383D01*
X119721676Y-90347541D01*
X119687607Y-90401760D01*
X119647824Y-90470668D01*
X119636194Y-90483584D01*
X119626247Y-90499415D01*
X119583001Y-90542660D01*
X119535808Y-90595074D01*
X119516718Y-90608943D01*
X119499415Y-90626247D01*
X119451231Y-90656522D01*
X119400377Y-90693471D01*
X119373104Y-90705613D01*
X119347541Y-90721676D01*
X119298426Y-90738861D01*
X119247445Y-90761560D01*
X119212067Y-90769079D01*
X119178239Y-90780917D01*
X119131722Y-90786158D01*
X119083700Y-90796366D01*
X119041127Y-90796366D01*
X119000000Y-90801000D01*
X118958873Y-90796366D01*
X118916300Y-90796366D01*
X118868276Y-90786158D01*
X118821761Y-90780917D01*
X118787933Y-90769080D01*
X118752554Y-90761560D01*
X118701568Y-90738860D01*
X118652459Y-90721676D01*
X118626898Y-90705614D01*
X118599622Y-90693471D01*
X118548760Y-90656517D01*
X118500585Y-90626247D01*
X118483283Y-90608945D01*
X118464191Y-90595074D01*
X118416988Y-90542650D01*
X118373753Y-90499415D01*
X118363808Y-90483587D01*
X118352175Y-90470668D01*
X118312380Y-90401740D01*
X118278324Y-90347541D01*
X118274071Y-90335388D01*
X118268477Y-90325698D01*
X118239829Y-90237530D01*
X118219083Y-90178239D01*
X118218296Y-90171256D01*
X118216745Y-90166482D01*
X118202676Y-90032628D01*
X118199000Y-90000000D01*
X118202676Y-89967374D01*
X118216745Y-89833517D01*
X118218296Y-89828742D01*
X118219083Y-89821761D01*
X118239825Y-89762482D01*
X118268477Y-89674301D01*
X118274072Y-89664609D01*
X118278324Y-89652459D01*
X118312373Y-89598270D01*
X118352175Y-89529331D01*
X118363810Y-89516408D01*
X118373753Y-89500585D01*
X118416979Y-89457358D01*
X118464191Y-89404925D01*
X118483287Y-89391050D01*
X118500585Y-89373753D01*
X118548755Y-89343485D01*
X118599623Y-89306528D01*
X118626901Y-89294382D01*
X118652459Y-89278324D01*
X118701559Y-89261142D01*
X118752554Y-89238439D01*
X118787939Y-89230917D01*
X118821761Y-89219083D01*
X118868273Y-89213842D01*
X118916300Y-89203634D01*
X118958873Y-89203634D01*
X119000000Y-89199000D01*
X119041127Y-89203634D01*
G37*
G36*
X97059517Y-82872882D02*
G01*
X97076062Y-82883938D01*
X97087118Y-82900483D01*
X97091000Y-82920000D01*
X97091000Y-84620000D01*
X97087118Y-84639517D01*
X97076062Y-84656062D01*
X97059517Y-84667118D01*
X97040000Y-84671000D01*
X95340000Y-84671000D01*
X95320483Y-84667118D01*
X95303938Y-84656062D01*
X95292882Y-84639517D01*
X95289000Y-84620000D01*
X95289000Y-82920000D01*
X95292882Y-82900483D01*
X95303938Y-82883938D01*
X95320483Y-82872882D01*
X95340000Y-82869000D01*
X97040000Y-82869000D01*
X97059517Y-82872882D01*
G37*
G36*
X98777913Y-82873936D02*
G01*
X98824180Y-82873936D01*
X98864129Y-82882427D01*
X98905733Y-82886525D01*
X98957998Y-82902379D01*
X99008424Y-82913098D01*
X99040694Y-82927465D01*
X99074712Y-82937785D01*
X99128767Y-82966678D01*
X99180500Y-82989711D01*
X99204551Y-83007185D01*
X99230447Y-83021027D01*
X99283271Y-83064378D01*
X99332887Y-83100427D01*
X99348996Y-83118318D01*
X99366948Y-83133051D01*
X99415188Y-83191831D01*
X99458924Y-83240405D01*
X99468111Y-83256319D01*
X99478972Y-83269552D01*
X99519149Y-83344719D01*
X99553104Y-83403530D01*
X99557009Y-83415550D01*
X99562214Y-83425287D01*
X99590913Y-83519896D01*
X99611311Y-83582672D01*
X99612028Y-83589502D01*
X99613474Y-83594266D01*
X99627536Y-83737042D01*
X99631000Y-83770000D01*
X99627535Y-83802959D01*
X99613474Y-83945733D01*
X99612029Y-83950496D01*
X99611311Y-83957328D01*
X99590909Y-84020117D01*
X99562214Y-84114712D01*
X99557010Y-84124447D01*
X99553104Y-84136470D01*
X99519142Y-84195293D01*
X99478972Y-84270447D01*
X99468113Y-84283677D01*
X99458924Y-84299595D01*
X99415178Y-84348178D01*
X99366948Y-84406948D01*
X99349000Y-84421677D01*
X99332887Y-84439573D01*
X99283260Y-84475628D01*
X99230447Y-84518972D01*
X99204557Y-84532810D01*
X99180500Y-84550289D01*
X99128756Y-84573326D01*
X99074712Y-84602214D01*
X99040701Y-84612531D01*
X99008424Y-84626902D01*
X98957987Y-84637622D01*
X98905733Y-84653474D01*
X98864138Y-84657570D01*
X98824180Y-84666064D01*
X98777903Y-84666064D01*
X98730000Y-84670782D01*
X98682097Y-84666064D01*
X98635820Y-84666064D01*
X98595862Y-84657570D01*
X98554266Y-84653474D01*
X98502009Y-84637621D01*
X98451576Y-84626902D01*
X98419300Y-84612532D01*
X98385287Y-84602214D01*
X98331237Y-84573323D01*
X98279500Y-84550289D01*
X98255445Y-84532812D01*
X98229552Y-84518972D01*
X98176730Y-84475622D01*
X98127113Y-84439573D01*
X98111002Y-84421680D01*
X98093051Y-84406948D01*
X98044809Y-84348166D01*
X98001076Y-84299595D01*
X97991888Y-84283681D01*
X97981027Y-84270447D01*
X97940844Y-84195269D01*
X97906896Y-84136470D01*
X97902991Y-84124451D01*
X97897785Y-84114712D01*
X97869075Y-84020071D01*
X97848689Y-83957328D01*
X97847971Y-83950501D01*
X97846525Y-83945733D01*
X97832448Y-83802808D01*
X97829000Y-83770000D01*
X97832448Y-83737194D01*
X97846525Y-83594266D01*
X97847971Y-83589497D01*
X97848689Y-83582672D01*
X97869071Y-83519942D01*
X97897785Y-83425287D01*
X97902991Y-83415545D01*
X97906896Y-83403530D01*
X97940836Y-83344742D01*
X97981027Y-83269552D01*
X97991890Y-83256314D01*
X98001076Y-83240405D01*
X98044800Y-83191843D01*
X98093051Y-83133051D01*
X98111005Y-83118315D01*
X98127113Y-83100427D01*
X98176720Y-83064385D01*
X98229552Y-83021027D01*
X98255450Y-83007183D01*
X98279500Y-82989711D01*
X98331226Y-82966681D01*
X98385287Y-82937785D01*
X98419307Y-82927464D01*
X98451576Y-82913098D01*
X98501998Y-82902380D01*
X98554266Y-82886525D01*
X98595871Y-82882427D01*
X98635820Y-82873936D01*
X98682086Y-82873936D01*
X98730000Y-82869217D01*
X98777913Y-82873936D01*
G37*
G36*
X101317913Y-82873936D02*
G01*
X101364180Y-82873936D01*
X101404129Y-82882427D01*
X101445733Y-82886525D01*
X101497998Y-82902379D01*
X101548424Y-82913098D01*
X101580694Y-82927465D01*
X101614712Y-82937785D01*
X101668767Y-82966678D01*
X101720500Y-82989711D01*
X101744551Y-83007185D01*
X101770447Y-83021027D01*
X101823271Y-83064378D01*
X101872887Y-83100427D01*
X101888996Y-83118318D01*
X101906948Y-83133051D01*
X101955188Y-83191831D01*
X101998924Y-83240405D01*
X102008111Y-83256319D01*
X102018972Y-83269552D01*
X102059149Y-83344719D01*
X102093104Y-83403530D01*
X102097009Y-83415550D01*
X102102214Y-83425287D01*
X102130913Y-83519896D01*
X102151311Y-83582672D01*
X102152028Y-83589502D01*
X102153474Y-83594266D01*
X102167536Y-83737042D01*
X102171000Y-83770000D01*
X102167535Y-83802959D01*
X102153474Y-83945733D01*
X102152029Y-83950496D01*
X102151311Y-83957328D01*
X102130909Y-84020117D01*
X102102214Y-84114712D01*
X102097010Y-84124447D01*
X102093104Y-84136470D01*
X102059142Y-84195293D01*
X102018972Y-84270447D01*
X102008113Y-84283677D01*
X101998924Y-84299595D01*
X101955178Y-84348178D01*
X101906948Y-84406948D01*
X101889000Y-84421677D01*
X101872887Y-84439573D01*
X101823260Y-84475628D01*
X101770447Y-84518972D01*
X101744557Y-84532810D01*
X101720500Y-84550289D01*
X101668756Y-84573326D01*
X101614712Y-84602214D01*
X101580701Y-84612531D01*
X101548424Y-84626902D01*
X101497987Y-84637622D01*
X101445733Y-84653474D01*
X101404138Y-84657570D01*
X101364180Y-84666064D01*
X101317903Y-84666064D01*
X101270000Y-84670782D01*
X101222097Y-84666064D01*
X101175820Y-84666064D01*
X101135862Y-84657570D01*
X101094266Y-84653474D01*
X101042009Y-84637621D01*
X100991576Y-84626902D01*
X100959300Y-84612532D01*
X100925287Y-84602214D01*
X100871237Y-84573323D01*
X100819500Y-84550289D01*
X100795445Y-84532812D01*
X100769552Y-84518972D01*
X100716730Y-84475622D01*
X100667113Y-84439573D01*
X100651002Y-84421680D01*
X100633051Y-84406948D01*
X100584809Y-84348166D01*
X100541076Y-84299595D01*
X100531888Y-84283681D01*
X100521027Y-84270447D01*
X100480844Y-84195269D01*
X100446896Y-84136470D01*
X100442991Y-84124451D01*
X100437785Y-84114712D01*
X100409075Y-84020071D01*
X100388689Y-83957328D01*
X100387971Y-83950501D01*
X100386525Y-83945733D01*
X100372448Y-83802808D01*
X100369000Y-83770000D01*
X100372448Y-83737194D01*
X100386525Y-83594266D01*
X100387971Y-83589497D01*
X100388689Y-83582672D01*
X100409071Y-83519942D01*
X100437785Y-83425287D01*
X100442991Y-83415545D01*
X100446896Y-83403530D01*
X100480836Y-83344742D01*
X100521027Y-83269552D01*
X100531890Y-83256314D01*
X100541076Y-83240405D01*
X100584800Y-83191843D01*
X100633051Y-83133051D01*
X100651005Y-83118315D01*
X100667113Y-83100427D01*
X100716720Y-83064385D01*
X100769552Y-83021027D01*
X100795450Y-83007183D01*
X100819500Y-82989711D01*
X100871226Y-82966681D01*
X100925287Y-82937785D01*
X100959307Y-82927464D01*
X100991576Y-82913098D01*
X101041998Y-82902380D01*
X101094266Y-82886525D01*
X101135871Y-82882427D01*
X101175820Y-82873936D01*
X101222086Y-82873936D01*
X101270000Y-82869217D01*
X101317913Y-82873936D01*
G37*
G36*
X103857913Y-82873936D02*
G01*
X103904180Y-82873936D01*
X103944129Y-82882427D01*
X103985733Y-82886525D01*
X104037998Y-82902379D01*
X104088424Y-82913098D01*
X104120694Y-82927465D01*
X104154712Y-82937785D01*
X104208767Y-82966678D01*
X104260500Y-82989711D01*
X104284551Y-83007185D01*
X104310447Y-83021027D01*
X104363271Y-83064378D01*
X104412887Y-83100427D01*
X104428996Y-83118318D01*
X104446948Y-83133051D01*
X104495188Y-83191831D01*
X104538924Y-83240405D01*
X104548111Y-83256319D01*
X104558972Y-83269552D01*
X104599149Y-83344719D01*
X104633104Y-83403530D01*
X104637009Y-83415550D01*
X104642214Y-83425287D01*
X104670913Y-83519896D01*
X104691311Y-83582672D01*
X104692028Y-83589502D01*
X104693474Y-83594266D01*
X104707536Y-83737042D01*
X104711000Y-83770000D01*
X104707535Y-83802959D01*
X104693474Y-83945733D01*
X104692029Y-83950496D01*
X104691311Y-83957328D01*
X104670909Y-84020117D01*
X104642214Y-84114712D01*
X104637010Y-84124447D01*
X104633104Y-84136470D01*
X104599142Y-84195293D01*
X104558972Y-84270447D01*
X104548113Y-84283677D01*
X104538924Y-84299595D01*
X104495178Y-84348178D01*
X104446948Y-84406948D01*
X104429000Y-84421677D01*
X104412887Y-84439573D01*
X104363260Y-84475628D01*
X104310447Y-84518972D01*
X104284557Y-84532810D01*
X104260500Y-84550289D01*
X104208756Y-84573326D01*
X104154712Y-84602214D01*
X104120701Y-84612531D01*
X104088424Y-84626902D01*
X104037987Y-84637622D01*
X103985733Y-84653474D01*
X103944138Y-84657570D01*
X103904180Y-84666064D01*
X103857903Y-84666064D01*
X103810000Y-84670782D01*
X103762097Y-84666064D01*
X103715820Y-84666064D01*
X103675862Y-84657570D01*
X103634266Y-84653474D01*
X103582009Y-84637621D01*
X103531576Y-84626902D01*
X103499300Y-84612532D01*
X103465287Y-84602214D01*
X103411237Y-84573323D01*
X103359500Y-84550289D01*
X103335445Y-84532812D01*
X103309552Y-84518972D01*
X103256730Y-84475622D01*
X103207113Y-84439573D01*
X103191002Y-84421680D01*
X103173051Y-84406948D01*
X103124809Y-84348166D01*
X103081076Y-84299595D01*
X103071888Y-84283681D01*
X103061027Y-84270447D01*
X103020844Y-84195269D01*
X102986896Y-84136470D01*
X102982991Y-84124451D01*
X102977785Y-84114712D01*
X102949075Y-84020071D01*
X102928689Y-83957328D01*
X102927971Y-83950501D01*
X102926525Y-83945733D01*
X102912448Y-83802808D01*
X102909000Y-83770000D01*
X102912448Y-83737194D01*
X102926525Y-83594266D01*
X102927971Y-83589497D01*
X102928689Y-83582672D01*
X102949071Y-83519942D01*
X102977785Y-83425287D01*
X102982991Y-83415545D01*
X102986896Y-83403530D01*
X103020836Y-83344742D01*
X103061027Y-83269552D01*
X103071890Y-83256314D01*
X103081076Y-83240405D01*
X103124800Y-83191843D01*
X103173051Y-83133051D01*
X103191005Y-83118315D01*
X103207113Y-83100427D01*
X103256720Y-83064385D01*
X103309552Y-83021027D01*
X103335450Y-83007183D01*
X103359500Y-82989711D01*
X103411226Y-82966681D01*
X103465287Y-82937785D01*
X103499307Y-82927464D01*
X103531576Y-82913098D01*
X103581998Y-82902380D01*
X103634266Y-82886525D01*
X103675871Y-82882427D01*
X103715820Y-82873936D01*
X103762086Y-82873936D01*
X103810000Y-82869217D01*
X103857913Y-82873936D01*
G37*
G36*
X83343925Y-81641870D02*
G01*
X83562775Y-81717002D01*
X83766274Y-81827130D01*
X83948871Y-81969251D01*
X84105586Y-82139488D01*
X84232143Y-82333198D01*
X84325090Y-82545096D01*
X84381892Y-82769403D01*
X84401000Y-83000000D01*
X84381892Y-83230597D01*
X84325090Y-83454904D01*
X84232143Y-83666802D01*
X84105586Y-83860512D01*
X83948871Y-84030749D01*
X83766274Y-84172870D01*
X83562775Y-84282998D01*
X83343925Y-84358130D01*
X83115694Y-84396215D01*
X82884306Y-84396215D01*
X82656075Y-84358130D01*
X82437225Y-84282998D01*
X82233726Y-84172870D01*
X82051129Y-84030749D01*
X81894414Y-83860512D01*
X81767857Y-83666802D01*
X81674910Y-83454904D01*
X81618108Y-83230597D01*
X81599000Y-83000000D01*
X81618108Y-82769403D01*
X81674910Y-82545096D01*
X81767857Y-82333198D01*
X81894414Y-82139488D01*
X82051129Y-81969251D01*
X82233726Y-81827130D01*
X82437225Y-81717002D01*
X82656075Y-81641870D01*
X82884306Y-81603785D01*
X83115694Y-81603785D01*
X83343925Y-81641870D01*
G37*
G36*
X117343925Y-81641870D02*
G01*
X117562775Y-81717002D01*
X117766274Y-81827130D01*
X117948871Y-81969251D01*
X118105586Y-82139488D01*
X118232143Y-82333198D01*
X118325090Y-82545096D01*
X118381892Y-82769403D01*
X118401000Y-83000000D01*
X118381892Y-83230597D01*
X118325090Y-83454904D01*
X118232143Y-83666802D01*
X118105586Y-83860512D01*
X117948871Y-84030749D01*
X117766274Y-84172870D01*
X117562775Y-84282998D01*
X117343925Y-84358130D01*
X117115694Y-84396215D01*
X116884306Y-84396215D01*
X116656075Y-84358130D01*
X116437225Y-84282998D01*
X116233726Y-84172870D01*
X116051129Y-84030749D01*
X115894414Y-83860512D01*
X115767857Y-83666802D01*
X115674910Y-83454904D01*
X115618108Y-83230597D01*
X115599000Y-83000000D01*
X115618108Y-82769403D01*
X115674910Y-82545096D01*
X115767857Y-82333198D01*
X115894414Y-82139488D01*
X116051129Y-81969251D01*
X116233726Y-81827130D01*
X116437225Y-81717002D01*
X116656075Y-81641870D01*
X116884306Y-81603785D01*
X117115694Y-81603785D01*
X117343925Y-81641870D01*
G37*
G36*
X96237913Y-80333936D02*
G01*
X96284180Y-80333936D01*
X96324129Y-80342427D01*
X96365733Y-80346525D01*
X96417998Y-80362379D01*
X96468424Y-80373098D01*
X96500694Y-80387465D01*
X96534712Y-80397785D01*
X96588767Y-80426678D01*
X96640500Y-80449711D01*
X96664551Y-80467185D01*
X96690447Y-80481027D01*
X96743271Y-80524378D01*
X96792887Y-80560427D01*
X96808996Y-80578318D01*
X96826948Y-80593051D01*
X96875188Y-80651831D01*
X96918924Y-80700405D01*
X96928111Y-80716319D01*
X96938972Y-80729552D01*
X96979149Y-80804719D01*
X97013104Y-80863530D01*
X97017009Y-80875550D01*
X97022214Y-80885287D01*
X97050913Y-80979896D01*
X97071311Y-81042672D01*
X97072028Y-81049502D01*
X97073474Y-81054266D01*
X97087536Y-81197042D01*
X97091000Y-81230000D01*
X97087535Y-81262959D01*
X97073474Y-81405733D01*
X97072029Y-81410496D01*
X97071311Y-81417328D01*
X97050909Y-81480117D01*
X97022214Y-81574712D01*
X97017010Y-81584447D01*
X97013104Y-81596470D01*
X96979142Y-81655293D01*
X96938972Y-81730447D01*
X96928113Y-81743677D01*
X96918924Y-81759595D01*
X96875178Y-81808178D01*
X96826948Y-81866948D01*
X96809000Y-81881677D01*
X96792887Y-81899573D01*
X96743260Y-81935628D01*
X96690447Y-81978972D01*
X96664557Y-81992810D01*
X96640500Y-82010289D01*
X96588756Y-82033326D01*
X96534712Y-82062214D01*
X96500701Y-82072531D01*
X96468424Y-82086902D01*
X96417987Y-82097622D01*
X96365733Y-82113474D01*
X96324138Y-82117570D01*
X96284180Y-82126064D01*
X96237903Y-82126064D01*
X96190000Y-82130782D01*
X96142097Y-82126064D01*
X96095820Y-82126064D01*
X96055862Y-82117570D01*
X96014266Y-82113474D01*
X95962009Y-82097621D01*
X95911576Y-82086902D01*
X95879300Y-82072532D01*
X95845287Y-82062214D01*
X95791237Y-82033323D01*
X95739500Y-82010289D01*
X95715445Y-81992812D01*
X95689552Y-81978972D01*
X95636730Y-81935622D01*
X95587113Y-81899573D01*
X95571002Y-81881680D01*
X95553051Y-81866948D01*
X95504809Y-81808166D01*
X95461076Y-81759595D01*
X95451888Y-81743681D01*
X95441027Y-81730447D01*
X95400844Y-81655269D01*
X95366896Y-81596470D01*
X95362991Y-81584451D01*
X95357785Y-81574712D01*
X95329075Y-81480071D01*
X95308689Y-81417328D01*
X95307971Y-81410501D01*
X95306525Y-81405733D01*
X95292448Y-81262808D01*
X95289000Y-81230000D01*
X95292448Y-81197194D01*
X95306525Y-81054266D01*
X95307971Y-81049497D01*
X95308689Y-81042672D01*
X95329071Y-80979942D01*
X95357785Y-80885287D01*
X95362991Y-80875545D01*
X95366896Y-80863530D01*
X95400836Y-80804742D01*
X95441027Y-80729552D01*
X95451890Y-80716314D01*
X95461076Y-80700405D01*
X95504800Y-80651843D01*
X95553051Y-80593051D01*
X95571005Y-80578315D01*
X95587113Y-80560427D01*
X95636720Y-80524385D01*
X95689552Y-80481027D01*
X95715450Y-80467183D01*
X95739500Y-80449711D01*
X95791226Y-80426681D01*
X95845287Y-80397785D01*
X95879307Y-80387464D01*
X95911576Y-80373098D01*
X95961998Y-80362380D01*
X96014266Y-80346525D01*
X96055871Y-80342427D01*
X96095820Y-80333936D01*
X96142086Y-80333936D01*
X96190000Y-80329217D01*
X96237913Y-80333936D01*
G37*
G36*
X98777913Y-80333936D02*
G01*
X98824180Y-80333936D01*
X98864129Y-80342427D01*
X98905733Y-80346525D01*
X98957998Y-80362379D01*
X99008424Y-80373098D01*
X99040694Y-80387465D01*
X99074712Y-80397785D01*
X99128767Y-80426678D01*
X99180500Y-80449711D01*
X99204551Y-80467185D01*
X99230447Y-80481027D01*
X99283271Y-80524378D01*
X99332887Y-80560427D01*
X99348996Y-80578318D01*
X99366948Y-80593051D01*
X99415188Y-80651831D01*
X99458924Y-80700405D01*
X99468111Y-80716319D01*
X99478972Y-80729552D01*
X99519149Y-80804719D01*
X99553104Y-80863530D01*
X99557009Y-80875550D01*
X99562214Y-80885287D01*
X99590913Y-80979896D01*
X99611311Y-81042672D01*
X99612028Y-81049502D01*
X99613474Y-81054266D01*
X99627536Y-81197042D01*
X99631000Y-81230000D01*
X99627535Y-81262959D01*
X99613474Y-81405733D01*
X99612029Y-81410496D01*
X99611311Y-81417328D01*
X99590909Y-81480117D01*
X99562214Y-81574712D01*
X99557010Y-81584447D01*
X99553104Y-81596470D01*
X99519142Y-81655293D01*
X99478972Y-81730447D01*
X99468113Y-81743677D01*
X99458924Y-81759595D01*
X99415178Y-81808178D01*
X99366948Y-81866948D01*
X99349000Y-81881677D01*
X99332887Y-81899573D01*
X99283260Y-81935628D01*
X99230447Y-81978972D01*
X99204557Y-81992810D01*
X99180500Y-82010289D01*
X99128756Y-82033326D01*
X99074712Y-82062214D01*
X99040701Y-82072531D01*
X99008424Y-82086902D01*
X98957987Y-82097622D01*
X98905733Y-82113474D01*
X98864138Y-82117570D01*
X98824180Y-82126064D01*
X98777903Y-82126064D01*
X98730000Y-82130782D01*
X98682097Y-82126064D01*
X98635820Y-82126064D01*
X98595862Y-82117570D01*
X98554266Y-82113474D01*
X98502009Y-82097621D01*
X98451576Y-82086902D01*
X98419300Y-82072532D01*
X98385287Y-82062214D01*
X98331237Y-82033323D01*
X98279500Y-82010289D01*
X98255445Y-81992812D01*
X98229552Y-81978972D01*
X98176730Y-81935622D01*
X98127113Y-81899573D01*
X98111002Y-81881680D01*
X98093051Y-81866948D01*
X98044809Y-81808166D01*
X98001076Y-81759595D01*
X97991888Y-81743681D01*
X97981027Y-81730447D01*
X97940844Y-81655269D01*
X97906896Y-81596470D01*
X97902991Y-81584451D01*
X97897785Y-81574712D01*
X97869075Y-81480071D01*
X97848689Y-81417328D01*
X97847971Y-81410501D01*
X97846525Y-81405733D01*
X97832448Y-81262808D01*
X97829000Y-81230000D01*
X97832448Y-81197194D01*
X97846525Y-81054266D01*
X97847971Y-81049497D01*
X97848689Y-81042672D01*
X97869071Y-80979942D01*
X97897785Y-80885287D01*
X97902991Y-80875545D01*
X97906896Y-80863530D01*
X97940836Y-80804742D01*
X97981027Y-80729552D01*
X97991890Y-80716314D01*
X98001076Y-80700405D01*
X98044800Y-80651843D01*
X98093051Y-80593051D01*
X98111005Y-80578315D01*
X98127113Y-80560427D01*
X98176720Y-80524385D01*
X98229552Y-80481027D01*
X98255450Y-80467183D01*
X98279500Y-80449711D01*
X98331226Y-80426681D01*
X98385287Y-80397785D01*
X98419307Y-80387464D01*
X98451576Y-80373098D01*
X98501998Y-80362380D01*
X98554266Y-80346525D01*
X98595871Y-80342427D01*
X98635820Y-80333936D01*
X98682086Y-80333936D01*
X98730000Y-80329217D01*
X98777913Y-80333936D01*
G37*
G36*
X101317913Y-80333936D02*
G01*
X101364180Y-80333936D01*
X101404129Y-80342427D01*
X101445733Y-80346525D01*
X101497998Y-80362379D01*
X101548424Y-80373098D01*
X101580694Y-80387465D01*
X101614712Y-80397785D01*
X101668767Y-80426678D01*
X101720500Y-80449711D01*
X101744551Y-80467185D01*
X101770447Y-80481027D01*
X101823271Y-80524378D01*
X101872887Y-80560427D01*
X101888996Y-80578318D01*
X101906948Y-80593051D01*
X101955188Y-80651831D01*
X101998924Y-80700405D01*
X102008111Y-80716319D01*
X102018972Y-80729552D01*
X102059149Y-80804719D01*
X102093104Y-80863530D01*
X102097009Y-80875550D01*
X102102214Y-80885287D01*
X102130913Y-80979896D01*
X102151311Y-81042672D01*
X102152028Y-81049502D01*
X102153474Y-81054266D01*
X102167536Y-81197042D01*
X102171000Y-81230000D01*
X102167535Y-81262959D01*
X102153474Y-81405733D01*
X102152029Y-81410496D01*
X102151311Y-81417328D01*
X102130909Y-81480117D01*
X102102214Y-81574712D01*
X102097010Y-81584447D01*
X102093104Y-81596470D01*
X102059142Y-81655293D01*
X102018972Y-81730447D01*
X102008113Y-81743677D01*
X101998924Y-81759595D01*
X101955178Y-81808178D01*
X101906948Y-81866948D01*
X101889000Y-81881677D01*
X101872887Y-81899573D01*
X101823260Y-81935628D01*
X101770447Y-81978972D01*
X101744557Y-81992810D01*
X101720500Y-82010289D01*
X101668756Y-82033326D01*
X101614712Y-82062214D01*
X101580701Y-82072531D01*
X101548424Y-82086902D01*
X101497987Y-82097622D01*
X101445733Y-82113474D01*
X101404138Y-82117570D01*
X101364180Y-82126064D01*
X101317903Y-82126064D01*
X101270000Y-82130782D01*
X101222097Y-82126064D01*
X101175820Y-82126064D01*
X101135862Y-82117570D01*
X101094266Y-82113474D01*
X101042009Y-82097621D01*
X100991576Y-82086902D01*
X100959300Y-82072532D01*
X100925287Y-82062214D01*
X100871237Y-82033323D01*
X100819500Y-82010289D01*
X100795445Y-81992812D01*
X100769552Y-81978972D01*
X100716730Y-81935622D01*
X100667113Y-81899573D01*
X100651002Y-81881680D01*
X100633051Y-81866948D01*
X100584809Y-81808166D01*
X100541076Y-81759595D01*
X100531888Y-81743681D01*
X100521027Y-81730447D01*
X100480844Y-81655269D01*
X100446896Y-81596470D01*
X100442991Y-81584451D01*
X100437785Y-81574712D01*
X100409075Y-81480071D01*
X100388689Y-81417328D01*
X100387971Y-81410501D01*
X100386525Y-81405733D01*
X100372448Y-81262808D01*
X100369000Y-81230000D01*
X100372448Y-81197194D01*
X100386525Y-81054266D01*
X100387971Y-81049497D01*
X100388689Y-81042672D01*
X100409071Y-80979942D01*
X100437785Y-80885287D01*
X100442991Y-80875545D01*
X100446896Y-80863530D01*
X100480836Y-80804742D01*
X100521027Y-80729552D01*
X100531890Y-80716314D01*
X100541076Y-80700405D01*
X100584800Y-80651843D01*
X100633051Y-80593051D01*
X100651005Y-80578315D01*
X100667113Y-80560427D01*
X100716720Y-80524385D01*
X100769552Y-80481027D01*
X100795450Y-80467183D01*
X100819500Y-80449711D01*
X100871226Y-80426681D01*
X100925287Y-80397785D01*
X100959307Y-80387464D01*
X100991576Y-80373098D01*
X101041998Y-80362380D01*
X101094266Y-80346525D01*
X101135871Y-80342427D01*
X101175820Y-80333936D01*
X101222086Y-80333936D01*
X101270000Y-80329217D01*
X101317913Y-80333936D01*
G37*
G36*
X103857913Y-80333936D02*
G01*
X103904180Y-80333936D01*
X103944129Y-80342427D01*
X103985733Y-80346525D01*
X104037998Y-80362379D01*
X104088424Y-80373098D01*
X104120694Y-80387465D01*
X104154712Y-80397785D01*
X104208767Y-80426678D01*
X104260500Y-80449711D01*
X104284551Y-80467185D01*
X104310447Y-80481027D01*
X104363271Y-80524378D01*
X104412887Y-80560427D01*
X104428996Y-80578318D01*
X104446948Y-80593051D01*
X104495188Y-80651831D01*
X104538924Y-80700405D01*
X104548111Y-80716319D01*
X104558972Y-80729552D01*
X104599149Y-80804719D01*
X104633104Y-80863530D01*
X104637009Y-80875550D01*
X104642214Y-80885287D01*
X104670913Y-80979896D01*
X104691311Y-81042672D01*
X104692028Y-81049502D01*
X104693474Y-81054266D01*
X104707536Y-81197042D01*
X104711000Y-81230000D01*
X104707535Y-81262959D01*
X104693474Y-81405733D01*
X104692029Y-81410496D01*
X104691311Y-81417328D01*
X104670909Y-81480117D01*
X104642214Y-81574712D01*
X104637010Y-81584447D01*
X104633104Y-81596470D01*
X104599142Y-81655293D01*
X104558972Y-81730447D01*
X104548113Y-81743677D01*
X104538924Y-81759595D01*
X104495178Y-81808178D01*
X104446948Y-81866948D01*
X104429000Y-81881677D01*
X104412887Y-81899573D01*
X104363260Y-81935628D01*
X104310447Y-81978972D01*
X104284557Y-81992810D01*
X104260500Y-82010289D01*
X104208756Y-82033326D01*
X104154712Y-82062214D01*
X104120701Y-82072531D01*
X104088424Y-82086902D01*
X104037987Y-82097622D01*
X103985733Y-82113474D01*
X103944138Y-82117570D01*
X103904180Y-82126064D01*
X103857903Y-82126064D01*
X103810000Y-82130782D01*
X103762097Y-82126064D01*
X103715820Y-82126064D01*
X103675862Y-82117570D01*
X103634266Y-82113474D01*
X103582009Y-82097621D01*
X103531576Y-82086902D01*
X103499300Y-82072532D01*
X103465287Y-82062214D01*
X103411237Y-82033323D01*
X103359500Y-82010289D01*
X103335445Y-81992812D01*
X103309552Y-81978972D01*
X103256730Y-81935622D01*
X103207113Y-81899573D01*
X103191002Y-81881680D01*
X103173051Y-81866948D01*
X103124809Y-81808166D01*
X103081076Y-81759595D01*
X103071888Y-81743681D01*
X103061027Y-81730447D01*
X103020844Y-81655269D01*
X102986896Y-81596470D01*
X102982991Y-81584451D01*
X102977785Y-81574712D01*
X102949075Y-81480071D01*
X102928689Y-81417328D01*
X102927971Y-81410501D01*
X102926525Y-81405733D01*
X102912448Y-81262808D01*
X102909000Y-81230000D01*
X102912448Y-81197194D01*
X102926525Y-81054266D01*
X102927971Y-81049497D01*
X102928689Y-81042672D01*
X102949071Y-80979942D01*
X102977785Y-80885287D01*
X102982991Y-80875545D01*
X102986896Y-80863530D01*
X103020836Y-80804742D01*
X103061027Y-80729552D01*
X103071890Y-80716314D01*
X103081076Y-80700405D01*
X103124800Y-80651843D01*
X103173051Y-80593051D01*
X103191005Y-80578315D01*
X103207113Y-80560427D01*
X103256720Y-80524385D01*
X103309552Y-80481027D01*
X103335450Y-80467183D01*
X103359500Y-80449711D01*
X103411226Y-80426681D01*
X103465287Y-80397785D01*
X103499307Y-80387464D01*
X103531576Y-80373098D01*
X103581998Y-80362380D01*
X103634266Y-80346525D01*
X103675871Y-80342427D01*
X103715820Y-80333936D01*
X103762086Y-80333936D01*
X103810000Y-80329217D01*
X103857913Y-80333936D01*
G37*
M02*
