G04 #@! TF.GenerationSoftware,KiCad,Pcbnew,8.0.7*
G04 #@! TF.CreationDate,2025-01-11T21:46:04+01:00*
G04 #@! TF.ProjectId,RP2040_minimal_r2,52503230-3430-45f6-9d69-6e696d616c5f,REV2*
G04 #@! TF.SameCoordinates,Original*
G04 #@! TF.FileFunction,Legend,Top*
G04 #@! TF.FilePolarity,Positive*
%FSLAX46Y46*%
G04 Gerber Fmt 4.6, Leading zero omitted, Abs format (unit mm)*
G04 Created by KiCad (PCBNEW 8.0.7) date 2025-01-11 21:46:04*
%MOMM*%
%LPD*%
G01*
G04 APERTURE LIST*
G04 Aperture macros list*
%AMRoundRect*
0 Rectangle with rounded corners*
0 $1 Rounding radius*
0 $2 $3 $4 $5 $6 $7 $8 $9 X,Y pos of 4 corners*
0 Add a 4 corners polygon primitive as box body*
4,1,4,$2,$3,$4,$5,$6,$7,$8,$9,$2,$3,0*
0 Add four circle primitives for the rounded corners*
1,1,$1+$1,$2,$3*
1,1,$1+$1,$4,$5*
1,1,$1+$1,$6,$7*
1,1,$1+$1,$8,$9*
0 Add four rect primitives between the rounded corners*
20,1,$1+$1,$2,$3,$4,$5,0*
20,1,$1+$1,$4,$5,$6,$7,0*
20,1,$1+$1,$6,$7,$8,$9,0*
20,1,$1+$1,$8,$9,$2,$3,0*%
%AMHorizOval*
0 Thick line with rounded ends*
0 $1 width*
0 $2 $3 position (X,Y) of the first rounded end (center of the circle)*
0 $4 $5 position (X,Y) of the second rounded end (center of the circle)*
0 Add line between two ends*
20,1,$1,$2,$3,$4,$5,0*
0 Add two circle primitives to create the rounded ends*
1,1,$1,$2,$3*
1,1,$1,$4,$5*%
G04 Aperture macros list end*
%ADD10C,0.150000*%
%ADD11C,0.100000*%
%ADD12C,0.120000*%
%ADD13RoundRect,0.051000X0.375000X-0.500000X0.375000X0.500000X-0.375000X0.500000X-0.375000X-0.500000X0*%
%ADD14RoundRect,0.275500X-0.275500X-0.500500X0.275500X-0.500500X0.275500X0.500500X-0.275500X0.500500X0*%
%ADD15RoundRect,0.051000X0.850000X-0.850000X0.850000X0.850000X-0.850000X0.850000X-0.850000X-0.850000X0*%
%ADD16O,1.802000X1.802000*%
%ADD17RoundRect,0.165500X0.195500X-0.165500X0.195500X0.165500X-0.195500X0.165500X-0.195500X-0.165500X0*%
%ADD18RoundRect,0.165500X0.165500X0.195500X-0.165500X0.195500X-0.165500X-0.195500X0.165500X-0.195500X0*%
%ADD19RoundRect,0.160500X0.160500X0.210500X-0.160500X0.210500X-0.160500X-0.210500X0.160500X-0.210500X0*%
%ADD20RoundRect,0.051000X-0.750000X1.000000X-0.750000X-1.000000X0.750000X-1.000000X0.750000X1.000000X0*%
%ADD21RoundRect,0.051000X-1.900000X1.000000X-1.900000X-1.000000X1.900000X-1.000000X1.900000X1.000000X0*%
%ADD22RoundRect,0.175500X-0.675500X-0.175500X0.675500X-0.175500X0.675500X0.175500X-0.675500X0.175500X0*%
%ADD23RoundRect,0.160500X0.210500X-0.160500X0.210500X0.160500X-0.210500X0.160500X-0.210500X-0.160500X0*%
%ADD24RoundRect,0.165500X-0.165500X-0.195500X0.165500X-0.195500X0.165500X0.195500X-0.165500X0.195500X0*%
%ADD25RoundRect,0.165500X-0.195500X0.165500X-0.195500X-0.165500X0.195500X-0.165500X0.195500X0.165500X0*%
%ADD26RoundRect,0.075500X-0.413000X-0.075500X0.413000X-0.075500X0.413000X0.075500X-0.413000X0.075500X0*%
%ADD27RoundRect,0.075500X-0.075500X-0.413000X0.075500X-0.413000X0.075500X0.413000X-0.075500X0.413000X0*%
%ADD28RoundRect,0.148590X-1.502410X-1.502410X1.502410X-1.502410X1.502410X1.502410X-1.502410X1.502410X0*%
%ADD29C,2.802000*%
%ADD30RoundRect,0.051000X-0.850000X-0.850000X0.850000X-0.850000X0.850000X0.850000X-0.850000X0.850000X0*%
%ADD31RoundRect,0.051000X-0.600000X0.700000X-0.600000X-0.700000X0.600000X-0.700000X0.600000X0.700000X0*%
%ADD32RoundRect,0.244250X-0.281750X0.244250X-0.281750X-0.244250X0.281750X-0.244250X0.281750X0.244250X0*%
%ADD33RoundRect,0.051000X0.850000X0.850000X-0.850000X0.850000X-0.850000X-0.850000X0.850000X-0.850000X0*%
%ADD34RoundRect,0.051000X-0.500000X-0.500000X0.500000X-0.500000X0.500000X0.500000X-0.500000X0.500000X0*%
%ADD35RoundRect,0.051000X-1.202082X0.000000X0.000000X-1.202082X1.202082X0.000000X0.000000X1.202082X0*%
%ADD36HorizOval,1.802000X0.000000X0.000000X0.000000X0.000000X0*%
%ADD37RoundRect,0.051000X-0.850000X0.850000X-0.850000X-0.850000X0.850000X-0.850000X0.850000X0.850000X0*%
%ADD38RoundRect,0.113000X-0.750500X-0.113000X0.750500X-0.113000X0.750500X0.113000X-0.750500X0.113000X0*%
G04 APERTURE END LIST*
D10*
X86736779Y-80859875D02*
X86736779Y-80193208D01*
X86736779Y-80288446D02*
X86784398Y-80240827D01*
X86784398Y-80240827D02*
X86879636Y-80193208D01*
X86879636Y-80193208D02*
X87022493Y-80193208D01*
X87022493Y-80193208D02*
X87117731Y-80240827D01*
X87117731Y-80240827D02*
X87165350Y-80336065D01*
X87165350Y-80336065D02*
X87165350Y-80859875D01*
X87165350Y-80336065D02*
X87212969Y-80240827D01*
X87212969Y-80240827D02*
X87308207Y-80193208D01*
X87308207Y-80193208D02*
X87451064Y-80193208D01*
X87451064Y-80193208D02*
X87546303Y-80240827D01*
X87546303Y-80240827D02*
X87593922Y-80336065D01*
X87593922Y-80336065D02*
X87593922Y-80859875D01*
X88070112Y-80859875D02*
X88070112Y-80193208D01*
X88070112Y-79859875D02*
X88022493Y-79907494D01*
X88022493Y-79907494D02*
X88070112Y-79955113D01*
X88070112Y-79955113D02*
X88117731Y-79907494D01*
X88117731Y-79907494D02*
X88070112Y-79859875D01*
X88070112Y-79859875D02*
X88070112Y-79955113D01*
X88546302Y-80193208D02*
X88546302Y-80859875D01*
X88546302Y-80288446D02*
X88593921Y-80240827D01*
X88593921Y-80240827D02*
X88689159Y-80193208D01*
X88689159Y-80193208D02*
X88832016Y-80193208D01*
X88832016Y-80193208D02*
X88927254Y-80240827D01*
X88927254Y-80240827D02*
X88974873Y-80336065D01*
X88974873Y-80336065D02*
X88974873Y-80859875D01*
X89403445Y-80812256D02*
X89498683Y-80859875D01*
X89498683Y-80859875D02*
X89689159Y-80859875D01*
X89689159Y-80859875D02*
X89784397Y-80812256D01*
X89784397Y-80812256D02*
X89832016Y-80717017D01*
X89832016Y-80717017D02*
X89832016Y-80669398D01*
X89832016Y-80669398D02*
X89784397Y-80574160D01*
X89784397Y-80574160D02*
X89689159Y-80526541D01*
X89689159Y-80526541D02*
X89546302Y-80526541D01*
X89546302Y-80526541D02*
X89451064Y-80478922D01*
X89451064Y-80478922D02*
X89403445Y-80383684D01*
X89403445Y-80383684D02*
X89403445Y-80336065D01*
X89403445Y-80336065D02*
X89451064Y-80240827D01*
X89451064Y-80240827D02*
X89546302Y-80193208D01*
X89546302Y-80193208D02*
X89689159Y-80193208D01*
X89689159Y-80193208D02*
X89784397Y-80240827D01*
X90165350Y-80193208D02*
X90403445Y-80859875D01*
X90641540Y-80193208D02*
X90403445Y-80859875D01*
X90403445Y-80859875D02*
X90308207Y-81097970D01*
X90308207Y-81097970D02*
X90260588Y-81145589D01*
X90260588Y-81145589D02*
X90165350Y-81193208D01*
X91022493Y-80193208D02*
X91022493Y-80859875D01*
X91022493Y-80288446D02*
X91070112Y-80240827D01*
X91070112Y-80240827D02*
X91165350Y-80193208D01*
X91165350Y-80193208D02*
X91308207Y-80193208D01*
X91308207Y-80193208D02*
X91403445Y-80240827D01*
X91403445Y-80240827D02*
X91451064Y-80336065D01*
X91451064Y-80336065D02*
X91451064Y-80859875D01*
X92355826Y-80812256D02*
X92260588Y-80859875D01*
X92260588Y-80859875D02*
X92070112Y-80859875D01*
X92070112Y-80859875D02*
X91974874Y-80812256D01*
X91974874Y-80812256D02*
X91927255Y-80764636D01*
X91927255Y-80764636D02*
X91879636Y-80669398D01*
X91879636Y-80669398D02*
X91879636Y-80383684D01*
X91879636Y-80383684D02*
X91927255Y-80288446D01*
X91927255Y-80288446D02*
X91974874Y-80240827D01*
X91974874Y-80240827D02*
X92070112Y-80193208D01*
X92070112Y-80193208D02*
X92260588Y-80193208D01*
X92260588Y-80193208D02*
X92355826Y-80240827D01*
X86641541Y-81803152D02*
X86879636Y-82469819D01*
X86879636Y-82469819D02*
X87117731Y-81803152D01*
X87689160Y-81469819D02*
X87784398Y-81469819D01*
X87784398Y-81469819D02*
X87879636Y-81517438D01*
X87879636Y-81517438D02*
X87927255Y-81565057D01*
X87927255Y-81565057D02*
X87974874Y-81660295D01*
X87974874Y-81660295D02*
X88022493Y-81850771D01*
X88022493Y-81850771D02*
X88022493Y-82088866D01*
X88022493Y-82088866D02*
X87974874Y-82279342D01*
X87974874Y-82279342D02*
X87927255Y-82374580D01*
X87927255Y-82374580D02*
X87879636Y-82422200D01*
X87879636Y-82422200D02*
X87784398Y-82469819D01*
X87784398Y-82469819D02*
X87689160Y-82469819D01*
X87689160Y-82469819D02*
X87593922Y-82422200D01*
X87593922Y-82422200D02*
X87546303Y-82374580D01*
X87546303Y-82374580D02*
X87498684Y-82279342D01*
X87498684Y-82279342D02*
X87451065Y-82088866D01*
X87451065Y-82088866D02*
X87451065Y-81850771D01*
X87451065Y-81850771D02*
X87498684Y-81660295D01*
X87498684Y-81660295D02*
X87546303Y-81565057D01*
X87546303Y-81565057D02*
X87593922Y-81517438D01*
X87593922Y-81517438D02*
X87689160Y-81469819D01*
X88451065Y-82374580D02*
X88498684Y-82422200D01*
X88498684Y-82422200D02*
X88451065Y-82469819D01*
X88451065Y-82469819D02*
X88403446Y-82422200D01*
X88403446Y-82422200D02*
X88451065Y-82374580D01*
X88451065Y-82374580D02*
X88451065Y-82469819D01*
X89451064Y-82469819D02*
X88879636Y-82469819D01*
X89165350Y-82469819D02*
X89165350Y-81469819D01*
X89165350Y-81469819D02*
X89070112Y-81612676D01*
X89070112Y-81612676D02*
X88974874Y-81707914D01*
X88974874Y-81707914D02*
X88879636Y-81755533D01*
D11*
X82909800Y-90833332D02*
X82957419Y-90690475D01*
X82957419Y-90690475D02*
X82957419Y-90452380D01*
X82957419Y-90452380D02*
X82909800Y-90357142D01*
X82909800Y-90357142D02*
X82862180Y-90309523D01*
X82862180Y-90309523D02*
X82766942Y-90261904D01*
X82766942Y-90261904D02*
X82671704Y-90261904D01*
X82671704Y-90261904D02*
X82576466Y-90309523D01*
X82576466Y-90309523D02*
X82528847Y-90357142D01*
X82528847Y-90357142D02*
X82481228Y-90452380D01*
X82481228Y-90452380D02*
X82433609Y-90642856D01*
X82433609Y-90642856D02*
X82385990Y-90738094D01*
X82385990Y-90738094D02*
X82338371Y-90785713D01*
X82338371Y-90785713D02*
X82243133Y-90833332D01*
X82243133Y-90833332D02*
X82147895Y-90833332D01*
X82147895Y-90833332D02*
X82052657Y-90785713D01*
X82052657Y-90785713D02*
X82005038Y-90738094D01*
X82005038Y-90738094D02*
X81957419Y-90642856D01*
X81957419Y-90642856D02*
X81957419Y-90404761D01*
X81957419Y-90404761D02*
X82005038Y-90261904D01*
X81957419Y-89928570D02*
X82957419Y-89690475D01*
X82957419Y-89690475D02*
X82243133Y-89499999D01*
X82243133Y-89499999D02*
X82957419Y-89309523D01*
X82957419Y-89309523D02*
X81957419Y-89071428D01*
X82957419Y-88166666D02*
X82957419Y-88738094D01*
X82957419Y-88452380D02*
X81957419Y-88452380D01*
X81957419Y-88452380D02*
X82100276Y-88547618D01*
X82100276Y-88547618D02*
X82195514Y-88642856D01*
X82195514Y-88642856D02*
X82243133Y-88738094D01*
D12*
X111138748Y-92865000D02*
X111661252Y-92865000D01*
X111138748Y-94335000D02*
X111661252Y-94335000D01*
X93590000Y-80130000D02*
X106410000Y-80130000D01*
X93590000Y-82730000D02*
X93590000Y-80130000D01*
X93590000Y-85330000D02*
X93590000Y-84000000D01*
X94920000Y-85330000D02*
X93590000Y-85330000D01*
X96190000Y-82730000D02*
X93590000Y-82730000D01*
X96190000Y-85330000D02*
X96190000Y-82730000D01*
X96190000Y-85330000D02*
X106410000Y-85330000D01*
X106410000Y-85330000D02*
X106410000Y-80130000D01*
X102540000Y-95007836D02*
X102540000Y-94792164D01*
X103260000Y-95007836D02*
X103260000Y-94792164D01*
X101540000Y-95007836D02*
X101540000Y-94792164D01*
X102260000Y-95007836D02*
X102260000Y-94792164D01*
X93722836Y-100840000D02*
X93507164Y-100840000D01*
X93722836Y-101560000D02*
X93507164Y-101560000D01*
X94242836Y-86640000D02*
X94027164Y-86640000D01*
X94242836Y-87360000D02*
X94027164Y-87360000D01*
X89653641Y-87120000D02*
X89346359Y-87120000D01*
X89653641Y-87880000D02*
X89346359Y-87880000D01*
X107090000Y-86200000D02*
X107090000Y-89960000D01*
X107090000Y-89960000D02*
X108350000Y-89960000D01*
X113910000Y-83950000D02*
X113910000Y-89960000D01*
X113910000Y-89960000D02*
X112650000Y-89960000D01*
X88275000Y-88275000D02*
X88275000Y-88535000D01*
X88275000Y-88535000D02*
X86600000Y-88535000D01*
X88275000Y-93725000D02*
X88275000Y-93465000D01*
X91000000Y-88275000D02*
X88275000Y-88275000D01*
X91000000Y-88275000D02*
X93725000Y-88275000D01*
X91000000Y-93725000D02*
X88275000Y-93725000D01*
X91000000Y-93725000D02*
X93725000Y-93725000D01*
X93725000Y-88275000D02*
X93725000Y-88535000D01*
X93725000Y-93725000D02*
X93725000Y-93465000D01*
X87120000Y-86653641D02*
X87120000Y-86346359D01*
X87880000Y-86653641D02*
X87880000Y-86346359D01*
X100240000Y-92627836D02*
X100240000Y-92412164D01*
X100960000Y-92627836D02*
X100960000Y-92412164D01*
X106377164Y-100390000D02*
X106592836Y-100390000D01*
X106377164Y-101110000D02*
X106592836Y-101110000D01*
X100021000Y-106377164D02*
X100021000Y-106592836D01*
X100741000Y-106377164D02*
X100741000Y-106592836D01*
X101140000Y-106377164D02*
X101140000Y-106592836D01*
X101860000Y-106377164D02*
X101860000Y-106592836D01*
X109938748Y-81665000D02*
X110461252Y-81665000D01*
X109938748Y-83135000D02*
X110461252Y-83135000D01*
X94840000Y-96087836D02*
X94840000Y-95872164D01*
X95560000Y-96087836D02*
X95560000Y-95872164D01*
X104440000Y-89172836D02*
X104440000Y-88957164D01*
X105160000Y-89172836D02*
X105160000Y-88957164D01*
X96390000Y-103610000D02*
X96390000Y-102960000D01*
X97040000Y-96390000D02*
X96390000Y-96390000D01*
X97040000Y-103610000D02*
X96390000Y-103610000D01*
X102960000Y-96390000D02*
X103610000Y-96390000D01*
X102960000Y-103610000D02*
X103610000Y-103610000D01*
X103610000Y-96390000D02*
X103610000Y-97040000D01*
X103610000Y-103610000D02*
X103610000Y-102960000D01*
X99240000Y-92627836D02*
X99240000Y-92412164D01*
X99960000Y-92627836D02*
X99960000Y-92412164D01*
X105712164Y-95340000D02*
X105927836Y-95340000D01*
X105712164Y-96060000D02*
X105927836Y-96060000D01*
X97788748Y-86265000D02*
X98311252Y-86265000D01*
X97788748Y-87735000D02*
X98311252Y-87735000D01*
X110970000Y-96270000D02*
X112300000Y-96270000D01*
X110970000Y-97600000D02*
X110970000Y-96270000D01*
X110970000Y-98870000D02*
X110970000Y-98930000D01*
X110970000Y-98870000D02*
X113630000Y-98870000D01*
X110970000Y-98930000D02*
X113630000Y-98930000D01*
X113630000Y-98870000D02*
X113630000Y-98930000D01*
X89150000Y-105800000D02*
X89150000Y-109800000D01*
X92450000Y-105800000D02*
X89150000Y-105800000D01*
X118465000Y-87715000D02*
X118465000Y-90000000D01*
X119935000Y-87715000D02*
X118465000Y-87715000D01*
X119935000Y-90000000D02*
X119935000Y-87715000D01*
X116865000Y-87715000D02*
X116865000Y-90000000D01*
X118335000Y-87715000D02*
X116865000Y-87715000D01*
X118335000Y-90000000D02*
X118335000Y-87715000D01*
X80130000Y-106410000D02*
X80130000Y-93590000D01*
X82730000Y-103810000D02*
X82730000Y-106410000D01*
X82730000Y-106410000D02*
X80130000Y-106410000D01*
X85330000Y-93590000D02*
X80130000Y-93590000D01*
X85330000Y-103810000D02*
X82730000Y-103810000D01*
X85330000Y-103810000D02*
X85330000Y-93590000D01*
X85330000Y-105080000D02*
X85330000Y-106410000D01*
X85330000Y-106410000D02*
X84000000Y-106410000D01*
X110990000Y-100740000D02*
X112100000Y-100740000D01*
X110990000Y-101500000D02*
X110990000Y-100740000D01*
X110990000Y-102260000D02*
X110990000Y-102195000D01*
X110990000Y-102260000D02*
X111536529Y-102260000D01*
X110990000Y-102260000D02*
X113210000Y-102260000D01*
X112663471Y-102260000D02*
X113210000Y-102260000D01*
X113210000Y-102260000D02*
X113210000Y-102195000D01*
X105363641Y-96620000D02*
X105056359Y-96620000D01*
X105363641Y-97380000D02*
X105056359Y-97380000D01*
X108312439Y-113556657D02*
X110193343Y-115437561D01*
X111946967Y-109922129D02*
X108312439Y-113556657D01*
X111946967Y-109922129D02*
X113827871Y-111803033D01*
X112844993Y-109024103D02*
X113785445Y-108083651D01*
X113785445Y-108083651D02*
X114725897Y-109024103D01*
X113827871Y-111803033D02*
X110193343Y-115437561D01*
X93590000Y-114670000D02*
X93590000Y-119870000D01*
X103810000Y-114670000D02*
X93590000Y-114670000D01*
X103810000Y-114670000D02*
X103810000Y-117270000D01*
X103810000Y-117270000D02*
X106410000Y-117270000D01*
X105080000Y-114670000D02*
X106410000Y-114670000D01*
X106410000Y-114670000D02*
X106410000Y-116000000D01*
X106410000Y-117270000D02*
X106410000Y-119870000D01*
X106410000Y-119870000D02*
X93590000Y-119870000D01*
X114670000Y-93590000D02*
X116000000Y-93590000D01*
X114670000Y-94920000D02*
X114670000Y-93590000D01*
X114670000Y-96190000D02*
X114670000Y-106410000D01*
X114670000Y-96190000D02*
X117270000Y-96190000D01*
X114670000Y-106410000D02*
X119870000Y-106410000D01*
X117270000Y-93590000D02*
X119870000Y-93590000D01*
X117270000Y-96190000D02*
X117270000Y-93590000D01*
X119870000Y-93590000D02*
X119870000Y-106410000D01*
X109143641Y-96520000D02*
X108836359Y-96520000D01*
X109143641Y-97280000D02*
X108836359Y-97280000D01*
X95800000Y-106190000D02*
X94300000Y-106190000D01*
X95800000Y-106190000D02*
X97300000Y-106190000D01*
X95800000Y-109410000D02*
X94300000Y-109410000D01*
X95800000Y-109410000D02*
X97300000Y-109410000D01*
X93587500Y-106365000D02*
X93347500Y-106035000D01*
X93827500Y-106035000D01*
X93587500Y-106365000D01*
G36*
X93587500Y-106365000D02*
G01*
X93347500Y-106035000D01*
X93827500Y-106035000D01*
X93587500Y-106365000D01*
G37*
%LPC*%
D13*
X81000000Y-92500000D03*
X84500000Y-92500000D03*
X81000000Y-86500000D03*
X84500000Y-86500000D03*
D14*
X110450000Y-93600000D03*
X112350000Y-93600000D03*
D15*
X94920000Y-84000000D03*
D16*
X94920000Y-81460000D03*
X97460000Y-84000000D03*
X97460000Y-81460000D03*
X100000000Y-84000000D03*
X100000000Y-81460000D03*
X102540000Y-84000000D03*
X102540000Y-81460000D03*
X105080000Y-84000000D03*
X105080000Y-81460000D03*
D17*
X102900000Y-95380000D03*
X102900000Y-94420000D03*
X101900000Y-95380000D03*
X101900000Y-94420000D03*
D18*
X94095000Y-101200000D03*
X93135000Y-101200000D03*
X94615000Y-87000000D03*
X93655000Y-87000000D03*
D19*
X90010000Y-87500000D03*
X88990000Y-87500000D03*
D20*
X112800000Y-84900000D03*
X110500000Y-84900000D03*
D21*
X110500000Y-91200000D03*
D20*
X108200000Y-84900000D03*
D22*
X87400000Y-89095000D03*
X87400000Y-90365000D03*
X87400000Y-91635000D03*
X87400000Y-92905000D03*
X94600000Y-92905000D03*
X94600000Y-91635000D03*
X94600000Y-90365000D03*
X94600000Y-89095000D03*
D23*
X87500000Y-87010000D03*
X87500000Y-85990000D03*
D17*
X100600000Y-93000000D03*
X100600000Y-92040000D03*
D24*
X106005000Y-100750000D03*
X106965000Y-100750000D03*
D25*
X100381000Y-106005000D03*
X100381000Y-106965000D03*
X101500000Y-106005000D03*
X101500000Y-106965000D03*
D14*
X109250000Y-82400000D03*
X111150000Y-82400000D03*
D17*
X95200000Y-96460000D03*
X95200000Y-95500000D03*
X104800000Y-89545000D03*
X104800000Y-88585000D03*
D26*
X96562500Y-97400000D03*
X96562500Y-97800000D03*
X96562500Y-98200000D03*
X96562500Y-98600000D03*
X96562500Y-99000000D03*
X96562500Y-99400000D03*
X96562500Y-99800000D03*
X96562500Y-100200000D03*
X96562500Y-100600000D03*
X96562500Y-101000000D03*
X96562500Y-101400000D03*
X96562500Y-101800000D03*
X96562500Y-102200000D03*
X96562500Y-102600000D03*
D27*
X97400000Y-103437500D03*
X97800000Y-103437500D03*
X98200000Y-103437500D03*
X98600000Y-103437500D03*
X99000000Y-103437500D03*
X99400000Y-103437500D03*
X99800000Y-103437500D03*
X100200000Y-103437500D03*
X100600000Y-103437500D03*
X101000000Y-103437500D03*
X101400000Y-103437500D03*
X101800000Y-103437500D03*
X102200000Y-103437500D03*
X102600000Y-103437500D03*
D26*
X103437500Y-102600000D03*
X103437500Y-102200000D03*
X103437500Y-101800000D03*
X103437500Y-101400000D03*
X103437500Y-101000000D03*
X103437500Y-100600000D03*
X103437500Y-100200000D03*
X103437500Y-99800000D03*
X103437500Y-99400000D03*
X103437500Y-99000000D03*
X103437500Y-98600000D03*
X103437500Y-98200000D03*
X103437500Y-97800000D03*
X103437500Y-97400000D03*
D27*
X102600000Y-96562500D03*
X102200000Y-96562500D03*
X101800000Y-96562500D03*
X101400000Y-96562500D03*
X101000000Y-96562500D03*
X100600000Y-96562500D03*
X100200000Y-96562500D03*
X99800000Y-96562500D03*
X99400000Y-96562500D03*
X99000000Y-96562500D03*
X98600000Y-96562500D03*
X98200000Y-96562500D03*
X97800000Y-96562500D03*
X97400000Y-96562500D03*
D28*
X100000000Y-100000000D03*
D29*
X83000000Y-83000000D03*
X117000000Y-117000000D03*
D17*
X99600000Y-93000000D03*
X99600000Y-92040000D03*
D24*
X105340000Y-95700000D03*
X106300000Y-95700000D03*
D29*
X117000000Y-83000000D03*
X83000000Y-117000000D03*
D14*
X97100000Y-87000000D03*
X99000000Y-87000000D03*
D30*
X112300000Y-97600000D03*
D31*
X89950000Y-106700000D03*
X89950000Y-108900000D03*
X91650000Y-108900000D03*
X91650000Y-106700000D03*
D32*
X119200000Y-88412500D03*
X119200000Y-89987500D03*
X117600000Y-88412500D03*
X117600000Y-89987500D03*
D33*
X84000000Y-105080000D03*
D16*
X81460000Y-105080000D03*
X84000000Y-102540000D03*
X81460000Y-102540000D03*
X84000000Y-100000000D03*
X81460000Y-100000000D03*
X84000000Y-97460000D03*
X81460000Y-97460000D03*
X84000000Y-94920000D03*
X81460000Y-94920000D03*
D34*
X112100000Y-101500000D03*
D19*
X105720000Y-97000000D03*
X104700000Y-97000000D03*
D35*
X113785445Y-109964555D03*
D36*
X111989394Y-111760606D03*
X110193343Y-113556657D03*
D37*
X105080000Y-116000000D03*
D16*
X105080000Y-118540000D03*
X102540000Y-116000000D03*
X102540000Y-118540000D03*
X100000000Y-116000000D03*
X100000000Y-118540000D03*
X97460000Y-116000000D03*
X97460000Y-118540000D03*
X94920000Y-116000000D03*
X94920000Y-118540000D03*
D30*
X116000000Y-94920000D03*
D16*
X118540000Y-94920000D03*
X116000000Y-97460000D03*
X118540000Y-97460000D03*
X116000000Y-100000000D03*
X118540000Y-100000000D03*
X116000000Y-102540000D03*
X118540000Y-102540000D03*
X116000000Y-105080000D03*
X118540000Y-105080000D03*
D19*
X109500000Y-96900000D03*
X108480000Y-96900000D03*
D38*
X93687500Y-106800000D03*
X93687500Y-107300000D03*
X93687500Y-107800000D03*
X93687500Y-108300000D03*
X93687500Y-108800000D03*
X97912500Y-108800000D03*
X97912500Y-108300000D03*
X97912500Y-107800000D03*
X97912500Y-107300000D03*
X97912500Y-106800000D03*
%LPD*%
M02*
