G04 #@! TF.GenerationSoftware,KiCad,Pcbnew,8.0.7*
G04 #@! TF.CreationDate,2025-01-11T21:46:04+01:00*
G04 #@! TF.ProjectId,RP2040_minimal_r2,52503230-3430-45f6-9d69-6e696d616c5f,REV2*
G04 #@! TF.SameCoordinates,Original*
G04 #@! TF.FileFunction,Legend,Bot*
G04 #@! TF.FilePolarity,Positive*
%FSLAX46Y46*%
G04 Gerber Fmt 4.6, Leading zero omitted, Abs format (unit mm)*
G04 Created by KiCad (PCBNEW 8.0.7) date 2025-01-11 21:46:04*
%MOMM*%
%LPD*%
G01*
G04 APERTURE LIST*
G04 Aperture macros list*
%AMRoundRect*
0 Rectangle with rounded corners*
0 $1 Rounding radius*
0 $2 $3 $4 $5 $6 $7 $8 $9 X,Y pos of 4 corners*
0 Add a 4 corners polygon primitive as box body*
4,1,4,$2,$3,$4,$5,$6,$7,$8,$9,$2,$3,0*
0 Add four circle primitives for the rounded corners*
1,1,$1+$1,$2,$3*
1,1,$1+$1,$4,$5*
1,1,$1+$1,$6,$7*
1,1,$1+$1,$8,$9*
0 Add four rect primitives between the rounded corners*
20,1,$1+$1,$2,$3,$4,$5,0*
20,1,$1+$1,$4,$5,$6,$7,0*
20,1,$1+$1,$6,$7,$8,$9,0*
20,1,$1+$1,$8,$9,$2,$3,0*%
%AMHorizOval*
0 Thick line with rounded ends*
0 $1 width*
0 $2 $3 position (X,Y) of the first rounded end (center of the circle)*
0 $4 $5 position (X,Y) of the second rounded end (center of the circle)*
0 Add line between two ends*
20,1,$1,$2,$3,$4,$5,0*
0 Add two circle primitives to create the rounded ends*
1,1,$1,$2,$3*
1,1,$1,$4,$5*%
G04 Aperture macros list end*
%ADD10RoundRect,0.051000X0.850000X-0.850000X0.850000X0.850000X-0.850000X0.850000X-0.850000X-0.850000X0*%
%ADD11O,1.802000X1.802000*%
%ADD12C,2.802000*%
%ADD13RoundRect,0.051000X-0.850000X-0.850000X0.850000X-0.850000X0.850000X0.850000X-0.850000X0.850000X0*%
%ADD14RoundRect,0.051000X0.850000X0.850000X-0.850000X0.850000X-0.850000X-0.850000X0.850000X-0.850000X0*%
%ADD15RoundRect,0.051000X-0.500000X-0.500000X0.500000X-0.500000X0.500000X0.500000X-0.500000X0.500000X0*%
%ADD16RoundRect,0.051000X-1.202082X0.000000X0.000000X-1.202082X1.202082X0.000000X0.000000X1.202082X0*%
%ADD17HorizOval,1.802000X0.000000X0.000000X0.000000X0.000000X0*%
%ADD18RoundRect,0.051000X-0.850000X0.850000X-0.850000X-0.850000X0.850000X-0.850000X0.850000X0.850000X0*%
G04 APERTURE END LIST*
%LPC*%
D10*
X94920000Y-84000000D03*
D11*
X94920000Y-81460000D03*
X97460000Y-84000000D03*
X97460000Y-81460000D03*
X100000000Y-84000000D03*
X100000000Y-81460000D03*
X102540000Y-84000000D03*
X102540000Y-81460000D03*
X105080000Y-84000000D03*
X105080000Y-81460000D03*
D12*
X83000000Y-83000000D03*
X117000000Y-117000000D03*
X117000000Y-83000000D03*
X83000000Y-117000000D03*
D13*
X112300000Y-97600000D03*
D14*
X84000000Y-105080000D03*
D11*
X81460000Y-105080000D03*
X84000000Y-102540000D03*
X81460000Y-102540000D03*
X84000000Y-100000000D03*
X81460000Y-100000000D03*
X84000000Y-97460000D03*
X81460000Y-97460000D03*
X84000000Y-94920000D03*
X81460000Y-94920000D03*
D15*
X112100000Y-101500000D03*
D16*
X113785445Y-109964555D03*
D17*
X111989394Y-111760606D03*
X110193343Y-113556657D03*
D18*
X105080000Y-116000000D03*
D11*
X105080000Y-118540000D03*
X102540000Y-116000000D03*
X102540000Y-118540000D03*
X100000000Y-116000000D03*
X100000000Y-118540000D03*
X97460000Y-116000000D03*
X97460000Y-118540000D03*
X94920000Y-116000000D03*
X94920000Y-118540000D03*
D13*
X116000000Y-94920000D03*
D11*
X118540000Y-94920000D03*
X116000000Y-97460000D03*
X118540000Y-97460000D03*
X116000000Y-100000000D03*
X118540000Y-100000000D03*
X116000000Y-102540000D03*
X118540000Y-102540000D03*
X116000000Y-105080000D03*
X118540000Y-105080000D03*
%LPD*%
M02*
