G04 #@! TF.GenerationSoftware,KiCad,Pcbnew,8.0.7*
G04 #@! TF.CreationDate,2025-01-22T20:15:04+01:00*
G04 #@! TF.ProjectId,RP2040_minimal_r2,52503230-3430-45f6-9d69-6e696d616c5f,REV2*
G04 #@! TF.SameCoordinates,Original*
G04 #@! TF.FileFunction,Copper,L1,Top*
G04 #@! TF.FilePolarity,Positive*
%FSLAX46Y46*%
G04 Gerber Fmt 4.6, Leading zero omitted, Abs format (unit mm)*
G04 Created by KiCad (PCBNEW 8.0.7) date 2025-01-22 20:15:04*
%MOMM*%
%LPD*%
G01*
G04 APERTURE LIST*
G04 Aperture macros list*
%AMRoundRect*
0 Rectangle with rounded corners*
0 $1 Rounding radius*
0 $2 $3 $4 $5 $6 $7 $8 $9 X,Y pos of 4 corners*
0 Add a 4 corners polygon primitive as box body*
4,1,4,$2,$3,$4,$5,$6,$7,$8,$9,$2,$3,0*
0 Add four circle primitives for the rounded corners*
1,1,$1+$1,$2,$3*
1,1,$1+$1,$4,$5*
1,1,$1+$1,$6,$7*
1,1,$1+$1,$8,$9*
0 Add four rect primitives between the rounded corners*
20,1,$1+$1,$2,$3,$4,$5,0*
20,1,$1+$1,$4,$5,$6,$7,0*
20,1,$1+$1,$6,$7,$8,$9,0*
20,1,$1+$1,$8,$9,$2,$3,0*%
%AMHorizOval*
0 Thick line with rounded ends*
0 $1 width*
0 $2 $3 position (X,Y) of the first rounded end (center of the circle)*
0 $4 $5 position (X,Y) of the second rounded end (center of the circle)*
0 Add line between two ends*
20,1,$1,$2,$3,$4,$5,0*
0 Add two circle primitives to create the rounded ends*
1,1,$1,$2,$3*
1,1,$1,$4,$5*%
%AMRotRect*
0 Rectangle, with rotation*
0 The origin of the aperture is its center*
0 $1 length*
0 $2 width*
0 $3 Rotation angle, in degrees counterclockwise*
0 Add horizontal line*
21,1,$1,$2,0,0,$3*%
%AMFreePoly0*
4,1,19,0.500000,-0.750000,0.000000,-0.750000,0.000000,-0.744911,-0.071157,-0.744911,-0.207708,-0.704816,-0.327430,-0.627875,-0.420627,-0.520320,-0.479746,-0.390866,-0.500000,-0.250000,-0.500000,0.250000,-0.479746,0.390866,-0.420627,0.520320,-0.327430,0.627875,-0.207708,0.704816,-0.071157,0.744911,0.000000,0.744911,0.000000,0.750000,0.500000,0.750000,0.500000,-0.750000,0.500000,-0.750000,
$1*%
%AMFreePoly1*
4,1,19,0.000000,0.744911,0.071157,0.744911,0.207708,0.704816,0.327430,0.627875,0.420627,0.520320,0.479746,0.390866,0.500000,0.250000,0.500000,-0.250000,0.479746,-0.390866,0.420627,-0.520320,0.327430,-0.627875,0.207708,-0.704816,0.071157,-0.744911,0.000000,-0.744911,0.000000,-0.750000,-0.500000,-0.750000,-0.500000,0.750000,0.000000,0.750000,0.000000,0.744911,0.000000,0.744911,
$1*%
G04 Aperture macros list end*
G04 #@! TA.AperFunction,SMDPad,CuDef*
%ADD10RoundRect,0.250000X-0.250000X-0.475000X0.250000X-0.475000X0.250000X0.475000X-0.250000X0.475000X0*%
G04 #@! TD*
G04 #@! TA.AperFunction,SMDPad,CuDef*
%ADD11RoundRect,0.140000X0.170000X-0.140000X0.170000X0.140000X-0.170000X0.140000X-0.170000X-0.140000X0*%
G04 #@! TD*
G04 #@! TA.AperFunction,SMDPad,CuDef*
%ADD12RoundRect,0.140000X0.140000X0.170000X-0.140000X0.170000X-0.140000X-0.170000X0.140000X-0.170000X0*%
G04 #@! TD*
G04 #@! TA.AperFunction,SMDPad,CuDef*
%ADD13RoundRect,0.135000X0.135000X0.185000X-0.135000X0.185000X-0.135000X-0.185000X0.135000X-0.185000X0*%
G04 #@! TD*
G04 #@! TA.AperFunction,SMDPad,CuDef*
%ADD14R,1.500000X2.000000*%
G04 #@! TD*
G04 #@! TA.AperFunction,SMDPad,CuDef*
%ADD15R,3.800000X2.000000*%
G04 #@! TD*
G04 #@! TA.AperFunction,SMDPad,CuDef*
%ADD16RoundRect,0.150000X-0.650000X-0.150000X0.650000X-0.150000X0.650000X0.150000X-0.650000X0.150000X0*%
G04 #@! TD*
G04 #@! TA.AperFunction,SMDPad,CuDef*
%ADD17RoundRect,0.135000X0.185000X-0.135000X0.185000X0.135000X-0.185000X0.135000X-0.185000X-0.135000X0*%
G04 #@! TD*
G04 #@! TA.AperFunction,SMDPad,CuDef*
%ADD18RoundRect,0.140000X-0.140000X-0.170000X0.140000X-0.170000X0.140000X0.170000X-0.140000X0.170000X0*%
G04 #@! TD*
G04 #@! TA.AperFunction,SMDPad,CuDef*
%ADD19RoundRect,0.140000X-0.170000X0.140000X-0.170000X-0.140000X0.170000X-0.140000X0.170000X0.140000X0*%
G04 #@! TD*
G04 #@! TA.AperFunction,SMDPad,CuDef*
%ADD20RoundRect,0.050000X-0.387500X-0.050000X0.387500X-0.050000X0.387500X0.050000X-0.387500X0.050000X0*%
G04 #@! TD*
G04 #@! TA.AperFunction,SMDPad,CuDef*
%ADD21RoundRect,0.050000X-0.050000X-0.387500X0.050000X-0.387500X0.050000X0.387500X-0.050000X0.387500X0*%
G04 #@! TD*
G04 #@! TA.AperFunction,ComponentPad*
%ADD22C,0.600000*%
G04 #@! TD*
G04 #@! TA.AperFunction,SMDPad,CuDef*
%ADD23RoundRect,0.144000X-1.456000X-1.456000X1.456000X-1.456000X1.456000X1.456000X-1.456000X1.456000X0*%
G04 #@! TD*
G04 #@! TA.AperFunction,ComponentPad*
%ADD24C,1.500000*%
G04 #@! TD*
G04 #@! TA.AperFunction,ComponentPad*
%ADD25R,1.700000X1.700000*%
G04 #@! TD*
G04 #@! TA.AperFunction,ComponentPad*
%ADD26C,1.700000*%
G04 #@! TD*
G04 #@! TA.AperFunction,SMDPad,CuDef*
%ADD27FreePoly0,90.000000*%
G04 #@! TD*
G04 #@! TA.AperFunction,SMDPad,CuDef*
%ADD28FreePoly1,90.000000*%
G04 #@! TD*
G04 #@! TA.AperFunction,SMDPad,CuDef*
%ADD29R,1.200000X1.400000*%
G04 #@! TD*
G04 #@! TA.AperFunction,SMDPad,CuDef*
%ADD30RoundRect,0.218750X-0.256250X0.218750X-0.256250X-0.218750X0.256250X-0.218750X0.256250X0.218750X0*%
G04 #@! TD*
G04 #@! TA.AperFunction,ComponentPad*
%ADD31R,1.000000X1.000000*%
G04 #@! TD*
G04 #@! TA.AperFunction,ComponentPad*
%ADD32RotRect,1.700000X1.700000X315.000000*%
G04 #@! TD*
G04 #@! TA.AperFunction,ComponentPad*
%ADD33HorizOval,1.700000X0.000000X0.000000X0.000000X0.000000X0*%
G04 #@! TD*
G04 #@! TA.AperFunction,SMDPad,CuDef*
%ADD34R,0.750000X1.000000*%
G04 #@! TD*
G04 #@! TA.AperFunction,SMDPad,CuDef*
%ADD35RoundRect,0.087500X-0.725000X-0.087500X0.725000X-0.087500X0.725000X0.087500X-0.725000X0.087500X0*%
G04 #@! TD*
G04 #@! TA.AperFunction,ComponentPad*
%ADD36RotRect,1.700000X1.700000X225.000000*%
G04 #@! TD*
G04 #@! TA.AperFunction,ComponentPad*
%ADD37HorizOval,1.700000X0.000000X0.000000X0.000000X0.000000X0*%
G04 #@! TD*
G04 #@! TA.AperFunction,ViaPad*
%ADD38C,0.600000*%
G04 #@! TD*
G04 #@! TA.AperFunction,Conductor*
%ADD39C,0.150000*%
G04 #@! TD*
G04 #@! TA.AperFunction,Conductor*
%ADD40C,0.200000*%
G04 #@! TD*
G04 #@! TA.AperFunction,Conductor*
%ADD41C,0.400000*%
G04 #@! TD*
G04 #@! TA.AperFunction,Conductor*
%ADD42C,0.300000*%
G04 #@! TD*
G04 APERTURE END LIST*
D10*
X110450000Y-93600000D03*
X112350000Y-93600000D03*
D11*
X102700000Y-95380000D03*
X102700000Y-94420000D03*
X101700000Y-95380000D03*
X101700000Y-94420000D03*
D12*
X94095000Y-101200000D03*
X93135000Y-101200000D03*
X94615000Y-87000000D03*
X93655000Y-87000000D03*
D13*
X90010000Y-87500000D03*
X88990000Y-87500000D03*
D14*
X112800000Y-84900000D03*
X110500000Y-84900000D03*
D15*
X110500000Y-91200000D03*
D14*
X108200000Y-84900000D03*
D16*
X87400000Y-89095000D03*
X87400000Y-90365000D03*
X87400000Y-91635000D03*
X87400000Y-92905000D03*
X94600000Y-92905000D03*
X94600000Y-91635000D03*
X94600000Y-90365000D03*
X94600000Y-89095000D03*
D17*
X87500000Y-87010000D03*
X87500000Y-85990000D03*
D11*
X100600000Y-93000000D03*
X100600000Y-92040000D03*
D18*
X106722500Y-100750000D03*
X107682500Y-100750000D03*
D19*
X100381000Y-106005000D03*
X100381000Y-106965000D03*
X101500000Y-106005000D03*
X101500000Y-106965000D03*
D10*
X109250000Y-82400000D03*
X111150000Y-82400000D03*
D11*
X95200000Y-96460000D03*
X95200000Y-95500000D03*
X104800000Y-89545000D03*
X104800000Y-88585000D03*
D20*
X96562500Y-97400000D03*
X96562500Y-97800000D03*
X96562500Y-98200000D03*
X96562500Y-98600000D03*
X96562500Y-99000000D03*
X96562500Y-99400000D03*
X96562500Y-99800000D03*
X96562500Y-100200000D03*
X96562500Y-100600000D03*
X96562500Y-101000000D03*
X96562500Y-101400000D03*
X96562500Y-101800000D03*
X96562500Y-102200000D03*
X96562500Y-102600000D03*
D21*
X97400000Y-103437500D03*
X97800000Y-103437500D03*
X98200000Y-103437500D03*
X98600000Y-103437500D03*
X99000000Y-103437500D03*
X99400000Y-103437500D03*
X99800000Y-103437500D03*
X100200000Y-103437500D03*
X100600000Y-103437500D03*
X101000000Y-103437500D03*
X101400000Y-103437500D03*
X101800000Y-103437500D03*
X102200000Y-103437500D03*
X102600000Y-103437500D03*
D20*
X103437500Y-102600000D03*
X103437500Y-102200000D03*
X103437500Y-101800000D03*
X103437500Y-101400000D03*
X103437500Y-101000000D03*
X103437500Y-100600000D03*
X103437500Y-100200000D03*
X103437500Y-99800000D03*
X103437500Y-99400000D03*
X103437500Y-99000000D03*
X103437500Y-98600000D03*
X103437500Y-98200000D03*
X103437500Y-97800000D03*
X103437500Y-97400000D03*
D21*
X102600000Y-96562500D03*
X102200000Y-96562500D03*
X101800000Y-96562500D03*
X101400000Y-96562500D03*
X101000000Y-96562500D03*
X100600000Y-96562500D03*
X100200000Y-96562500D03*
X99800000Y-96562500D03*
X99400000Y-96562500D03*
X99000000Y-96562500D03*
X98600000Y-96562500D03*
X98200000Y-96562500D03*
X97800000Y-96562500D03*
X97400000Y-96562500D03*
D22*
X98725000Y-98725000D03*
X98725000Y-100000000D03*
X98725000Y-101275000D03*
X100000000Y-98725000D03*
X100000000Y-100000000D03*
D23*
X100000000Y-100000000D03*
D22*
X100000000Y-101275000D03*
X101275000Y-98725000D03*
X101275000Y-100000000D03*
X101275000Y-101275000D03*
D11*
X99600000Y-93000000D03*
X99600000Y-92040000D03*
D18*
X105340000Y-95700000D03*
X106300000Y-95700000D03*
D10*
X97100000Y-87000000D03*
X99000000Y-87000000D03*
D24*
X119000000Y-90000000D03*
D25*
X103810000Y-116230000D03*
D26*
X103810000Y-118770000D03*
X101270000Y-116230000D03*
X101270000Y-118770000D03*
X98730000Y-116230000D03*
X98730000Y-118770000D03*
X96190000Y-116230000D03*
X96190000Y-118770000D03*
D25*
X98700000Y-111600000D03*
D27*
X105800000Y-105800000D03*
D28*
X105800000Y-104500000D03*
D29*
X89950000Y-106700000D03*
X89950000Y-108900000D03*
X91650000Y-108900000D03*
X91650000Y-106700000D03*
D30*
X107300000Y-107900000D03*
X107300000Y-109475000D03*
D31*
X102800000Y-109700000D03*
D25*
X83770000Y-103810000D03*
D26*
X81230000Y-103810000D03*
X83770000Y-101270000D03*
X81230000Y-101270000D03*
X83770000Y-98730000D03*
X81230000Y-98730000D03*
X83770000Y-96190000D03*
X81230000Y-96190000D03*
D19*
X93300000Y-104540000D03*
X93300000Y-105500000D03*
D25*
X116230000Y-96380000D03*
D26*
X118770000Y-96380000D03*
X116230000Y-98920000D03*
X118770000Y-98920000D03*
X116230000Y-101460000D03*
X118770000Y-101460000D03*
X116230000Y-104000000D03*
X118770000Y-104000000D03*
D32*
X113785445Y-109964555D03*
D33*
X111989394Y-111760606D03*
X110193343Y-113556657D03*
D34*
X81000000Y-92500000D03*
X84500000Y-92500000D03*
X81000000Y-86500000D03*
X84500000Y-86500000D03*
D17*
X105900000Y-109800000D03*
X105900000Y-108780000D03*
D35*
X93687500Y-106800000D03*
X93687500Y-107300000D03*
X93687500Y-107800000D03*
X93687500Y-108300000D03*
X93687500Y-108800000D03*
X97912500Y-108800000D03*
X97912500Y-108300000D03*
X97912500Y-107800000D03*
X97912500Y-107300000D03*
X97912500Y-106800000D03*
D25*
X96190000Y-83770000D03*
D26*
X96190000Y-81230000D03*
X98730000Y-83770000D03*
X98730000Y-81230000D03*
X101270000Y-83770000D03*
X101270000Y-81230000D03*
X103810000Y-83770000D03*
X103810000Y-81230000D03*
D36*
X85112994Y-109312994D03*
D37*
X86909045Y-111109045D03*
X88705096Y-112905096D03*
X90501148Y-114701148D03*
D38*
X112600000Y-82800000D03*
X99600000Y-91205008D03*
X86000000Y-97600000D03*
X109900000Y-107400000D03*
X81000000Y-113000000D03*
X108717500Y-100750000D03*
X99050000Y-88600000D03*
X101500000Y-107782004D03*
X93800000Y-95400000D03*
X91100000Y-101200000D03*
X102900000Y-93100000D03*
X104800000Y-87570000D03*
X102300000Y-92800000D03*
X98500000Y-105600000D03*
X92650000Y-86970000D03*
X90000000Y-92500000D03*
X100380994Y-107781990D03*
X105900000Y-112500000D03*
X106600000Y-94800000D03*
X118400000Y-112800000D03*
X100500000Y-113900000D03*
X113600000Y-93200000D03*
X100600000Y-91205000D03*
X110000000Y-96800000D03*
X91200000Y-103900000D03*
X99800000Y-95199994D03*
X100700000Y-97900000D03*
X100800000Y-105200000D03*
X100599970Y-102100000D03*
X89250000Y-98500000D03*
X90000000Y-98130000D03*
X90750000Y-97750000D03*
X91500000Y-97250000D03*
X92250000Y-96750000D03*
X93000000Y-96250000D03*
X107481268Y-95976268D03*
X106000000Y-97100000D03*
X105600000Y-98225000D03*
X94200000Y-105600000D03*
X95400000Y-105400000D03*
X104900000Y-98700000D03*
X114000000Y-95500000D03*
X107200000Y-99000000D03*
X108700000Y-99400000D03*
X105200000Y-102300000D03*
X105800000Y-104400000D03*
X103200000Y-111500000D03*
X102000000Y-111600000D03*
X104100000Y-106900000D03*
X99600000Y-108400000D03*
X105800000Y-107400000D03*
D39*
X101900000Y-94420000D02*
X101900000Y-94000000D01*
X96875000Y-108025001D02*
X96875000Y-109575000D01*
D40*
X104800000Y-88600000D02*
X104800000Y-87570000D01*
D39*
X102300000Y-93600000D02*
X102300000Y-92800000D01*
X89595000Y-92905000D02*
X90000000Y-92500000D01*
D40*
X93325000Y-86970000D02*
X92650000Y-86970000D01*
D39*
X102700000Y-93300000D02*
X102900000Y-93100000D01*
X106300000Y-95100000D02*
X106600000Y-94800000D01*
D40*
X93130000Y-101200000D02*
X91100000Y-101200000D01*
D39*
X111150000Y-82400000D02*
X112200000Y-82400000D01*
X101900000Y-94000000D02*
X102300000Y-93600000D01*
D40*
X101500000Y-106970000D02*
X101500000Y-107782004D01*
D39*
X112200000Y-82400000D02*
X112600000Y-82800000D01*
X106300000Y-95700000D02*
X106300000Y-95100000D01*
X93800000Y-95400000D02*
X93700000Y-95400000D01*
X94300000Y-95400000D02*
X93800000Y-95400000D01*
X97100001Y-107800000D02*
X96875000Y-108025001D01*
X99000000Y-87200000D02*
X99000000Y-88550000D01*
X102700000Y-94420000D02*
X102700000Y-93300000D01*
D40*
X99600000Y-92035000D02*
X99600000Y-91205008D01*
D39*
X96875000Y-109575000D02*
X97000000Y-109700000D01*
X112350000Y-93600000D02*
X113200000Y-93600000D01*
X113200000Y-93600000D02*
X113600000Y-93200000D01*
D40*
X93650000Y-87000000D02*
X93355000Y-87000000D01*
D39*
X112800000Y-83000000D02*
X112600000Y-82800000D01*
D40*
X100381000Y-107781984D02*
X100380994Y-107781990D01*
D39*
X87400000Y-92905000D02*
X89595000Y-92905000D01*
D40*
X100381000Y-106970000D02*
X100381000Y-107781984D01*
D39*
X95100000Y-95400000D02*
X95200000Y-95500000D01*
D40*
X100600000Y-92035000D02*
X100600000Y-91205000D01*
D39*
X99000000Y-103437500D02*
X99000000Y-104200000D01*
X108717500Y-100750000D02*
X107682500Y-100750000D01*
D40*
X93355000Y-87000000D02*
X93325000Y-86970000D01*
D39*
X99000000Y-88550000D02*
X99050000Y-88600000D01*
X97912500Y-107800000D02*
X97100001Y-107800000D01*
X94300000Y-95400000D02*
X95100000Y-95400000D01*
X112800000Y-84900000D02*
X112800000Y-83000000D01*
D41*
X106600000Y-79600000D02*
X108200000Y-81200000D01*
X96200000Y-81235000D02*
X97835000Y-79600000D01*
X118765000Y-96200000D02*
X115600000Y-93035000D01*
X108200000Y-81200000D02*
X108200000Y-83450000D01*
X108200000Y-83450000D02*
X109250000Y-82400000D01*
X108200000Y-87000000D02*
X108200000Y-84900000D01*
X115600000Y-93035000D02*
X115600000Y-89600000D01*
X114000000Y-88000000D02*
X109200000Y-88000000D01*
X115600000Y-89600000D02*
X114000000Y-88000000D01*
X109200000Y-88000000D02*
X108200000Y-87000000D01*
X97835000Y-79600000D02*
X106600000Y-79600000D01*
X108200000Y-84900000D02*
X108200000Y-83450000D01*
D39*
X99400000Y-103437500D02*
X99400000Y-106125000D01*
X99400000Y-106125000D02*
X99062500Y-106462500D01*
X98724999Y-106800000D02*
X97912500Y-106800000D01*
X99062500Y-106462500D02*
X98724999Y-106800000D01*
X99000000Y-108800000D02*
X99600000Y-109400000D01*
X99600000Y-110600000D02*
X98600000Y-111600000D01*
X99600000Y-109400000D02*
X99600000Y-110600000D01*
X97912500Y-108800000D02*
X99000000Y-108800000D01*
D40*
X100600000Y-96562500D02*
X100600000Y-97300000D01*
X105755000Y-101000000D02*
X106005000Y-100750000D01*
X94300000Y-101000000D02*
X94100000Y-101200000D01*
X106005000Y-100750000D02*
X106722500Y-100750000D01*
D39*
X103437500Y-97400000D02*
X102700000Y-97400000D01*
X97400000Y-102600000D02*
X96800000Y-103200000D01*
D40*
X100200000Y-105824000D02*
X100381000Y-106005000D01*
X94295000Y-101000000D02*
X94095000Y-101200000D01*
X96562500Y-97400000D02*
X97300000Y-97400000D01*
X102200000Y-97200000D02*
X102400000Y-97400000D01*
X100200000Y-96562500D02*
X100200000Y-95800000D01*
X99825650Y-102600000D02*
X99800000Y-102600000D01*
X103437500Y-101000000D02*
X102600000Y-101000000D01*
X96562500Y-101000000D02*
X94295000Y-101000000D01*
X96562500Y-101000000D02*
X97500000Y-101000000D01*
D39*
X96800000Y-103200000D02*
X96800000Y-103300000D01*
D40*
X100200000Y-102974350D02*
X99825650Y-102600000D01*
X100600000Y-96562500D02*
X100600000Y-95400000D01*
X95600000Y-97400000D02*
X95200000Y-97000000D01*
D39*
X102600000Y-96562500D02*
X102600000Y-97300000D01*
D40*
X100200000Y-95800000D02*
X100600000Y-95400000D01*
X102200000Y-96562500D02*
X102200000Y-96080000D01*
X102200000Y-96080000D02*
X102900000Y-95380000D01*
X100200000Y-103437500D02*
X100200000Y-102974350D01*
X96562500Y-97400000D02*
X95600000Y-97400000D01*
D39*
X102700000Y-97400000D02*
X102600000Y-97300000D01*
D40*
X102200000Y-96562500D02*
X102200000Y-97200000D01*
X103437500Y-101000000D02*
X105755000Y-101000000D01*
X100200000Y-103437500D02*
X100200000Y-105824000D01*
X95200000Y-97000000D02*
X95200000Y-96460000D01*
X99800000Y-96562500D02*
X99800000Y-95199994D01*
X99800000Y-95199994D02*
X99800000Y-93700000D01*
X101500000Y-105900000D02*
X100800000Y-105200000D01*
X100600000Y-105000000D02*
X100800000Y-105200000D01*
X99800000Y-93700000D02*
X99600000Y-93500000D01*
D39*
X101800000Y-95480000D02*
X101900000Y-95380000D01*
D40*
X101500000Y-106000000D02*
X101500000Y-105900000D01*
D39*
X101800000Y-96562500D02*
X101800000Y-95480000D01*
X101800000Y-96562500D02*
X101800000Y-97400000D01*
D40*
X99600000Y-93005000D02*
X99600000Y-93300000D01*
D39*
X101800000Y-95480000D02*
X101700000Y-95380000D01*
D40*
X99600000Y-93500000D02*
X99600000Y-93000000D01*
X100600000Y-103437500D02*
X100600000Y-105000000D01*
D39*
X84500000Y-86500000D02*
X81000000Y-86500000D01*
X86510000Y-85990000D02*
X86000000Y-86500000D01*
X87500000Y-85990000D02*
X86510000Y-85990000D01*
X86000000Y-86500000D02*
X84500000Y-86500000D01*
X95200000Y-110848528D02*
X95200000Y-115245000D01*
X98600000Y-104272792D02*
X96400000Y-106472792D01*
X98600000Y-103437500D02*
X98600000Y-104272792D01*
X95200000Y-115245000D02*
X96180000Y-116225000D01*
X96400000Y-109648528D02*
X95200000Y-110848528D01*
X96400000Y-106472792D02*
X96400000Y-109648528D01*
X96100000Y-109524264D02*
X96100000Y-106348528D01*
X95390000Y-117390000D02*
X94800000Y-116800000D01*
X96100000Y-106348528D02*
X98200000Y-104248528D01*
X94800000Y-110824264D02*
X96100000Y-109524264D01*
X98200000Y-104248528D02*
X98200000Y-103437500D01*
X94800000Y-116800000D02*
X94800000Y-110824264D01*
X99885000Y-117390000D02*
X95390000Y-117390000D01*
X101260000Y-118765000D02*
X99885000Y-117390000D01*
X97800000Y-104224264D02*
X97800000Y-103437500D01*
X94500000Y-117000000D02*
X94500000Y-110700000D01*
X97645000Y-117690000D02*
X95190000Y-117690000D01*
X94500000Y-110700000D02*
X95800000Y-109400000D01*
X95800000Y-109400000D02*
X95800000Y-106224264D01*
X95800000Y-106224264D02*
X97800000Y-104224264D01*
X95190000Y-117690000D02*
X94500000Y-117000000D01*
X98720000Y-118765000D02*
X97645000Y-117690000D01*
X94200000Y-118000000D02*
X94200000Y-110400000D01*
X94200000Y-110400000D02*
X95400000Y-109200000D01*
X95400000Y-106200000D02*
X97400000Y-104200000D01*
X96180000Y-118765000D02*
X94965000Y-118765000D01*
X97400000Y-104200000D02*
X97400000Y-103437500D01*
X94965000Y-118765000D02*
X94200000Y-118000000D01*
X95400000Y-109200000D02*
X95400000Y-106200000D01*
X90402944Y-102700000D02*
X90800000Y-102700000D01*
X88962944Y-101260000D02*
X90402944Y-102700000D01*
X83775000Y-101260000D02*
X88962944Y-101260000D01*
X96462500Y-102700000D02*
X90800000Y-102700000D01*
X96562500Y-102600000D02*
X96462500Y-102700000D01*
X94773596Y-102200000D02*
X94573596Y-102400000D01*
X96562500Y-102200000D02*
X94773596Y-102200000D01*
X94573596Y-102400000D02*
X90527208Y-102400000D01*
X85055000Y-100000000D02*
X83775000Y-98720000D01*
X88127208Y-100000000D02*
X85055000Y-100000000D01*
X90527208Y-102400000D02*
X88127208Y-100000000D01*
X94749332Y-101800000D02*
X94449332Y-102100000D01*
X86580000Y-96180000D02*
X83775000Y-96180000D01*
X90651472Y-102100000D02*
X87400000Y-98848528D01*
X87400000Y-97000000D02*
X86580000Y-96180000D01*
X96562500Y-101800000D02*
X94749332Y-101800000D01*
X94449332Y-102100000D02*
X90651472Y-102100000D01*
X87400000Y-98848528D02*
X87400000Y-97000000D01*
X94325068Y-101800000D02*
X90775736Y-101800000D01*
X85824264Y-95000000D02*
X83400000Y-95000000D01*
X94725068Y-101400000D02*
X94325068Y-101800000D01*
X87800000Y-98824264D02*
X87800000Y-96975736D01*
X96562500Y-101400000D02*
X94725068Y-101400000D01*
X83400000Y-95000000D02*
X82610000Y-95790000D01*
X90775736Y-101800000D02*
X87800000Y-98824264D01*
X82610000Y-99890000D02*
X81230000Y-101270000D01*
X82610000Y-95790000D02*
X82610000Y-99890000D01*
X87800000Y-96975736D02*
X85824264Y-95000000D01*
X88200000Y-96951472D02*
X85848528Y-94600000D01*
X85848528Y-94600000D02*
X83200000Y-94600000D01*
X82310000Y-95490000D02*
X82310000Y-97645000D01*
X83200000Y-94600000D02*
X82310000Y-95490000D01*
X96562500Y-100600000D02*
X90000000Y-100600000D01*
X88200000Y-98800000D02*
X88200000Y-96951472D01*
X82310000Y-97645000D02*
X81235000Y-98720000D01*
X90000000Y-100600000D02*
X88200000Y-98800000D01*
X81230000Y-96190000D02*
X81230000Y-96145736D01*
X88600000Y-96800000D02*
X86100000Y-94300000D01*
X86100000Y-94300000D02*
X83400000Y-94300000D01*
X90207537Y-100200000D02*
X88600000Y-98592463D01*
X88600000Y-98592463D02*
X88600000Y-96800000D01*
X83075736Y-94300000D02*
X83400000Y-94300000D01*
X96562500Y-100200000D02*
X90207537Y-100200000D01*
X81230000Y-96145736D02*
X83075736Y-94300000D01*
X96562500Y-99800000D02*
X90550000Y-99800000D01*
X90550000Y-99800000D02*
X89250000Y-98500000D01*
X91270000Y-99400000D02*
X90000000Y-98130000D01*
X96562500Y-99400000D02*
X91270000Y-99400000D01*
X96562500Y-99000000D02*
X92000000Y-99000000D01*
X92000000Y-99000000D02*
X90750000Y-97750000D01*
X96562500Y-98600000D02*
X92850000Y-98600000D01*
X92850000Y-98600000D02*
X91500000Y-97250000D01*
X93700000Y-98200000D02*
X92250000Y-96750000D01*
X96562500Y-98200000D02*
X93700000Y-98200000D01*
X93000000Y-96250000D02*
X94550000Y-97800000D01*
X94550000Y-97800000D02*
X96562500Y-97800000D01*
X103437500Y-97800000D02*
X104175736Y-97800000D01*
X104175736Y-97800000D02*
X105487868Y-96487868D01*
X106969668Y-96487868D02*
X107481268Y-95976268D01*
X105487868Y-96487868D02*
X106969668Y-96487868D01*
X103437500Y-98200000D02*
X104200000Y-98200000D01*
X104200000Y-98200000D02*
X104650000Y-97750000D01*
X104650000Y-97750000D02*
X105300000Y-97100000D01*
X105300000Y-97100000D02*
X106000000Y-97100000D01*
X105475000Y-98100000D02*
X105600000Y-98225000D01*
X103437500Y-98600000D02*
X104257537Y-98600000D01*
X94500000Y-108300000D02*
X93687500Y-108300000D01*
X94200000Y-105600000D02*
X94725000Y-106125000D01*
X104257537Y-98600000D02*
X104757537Y-98100000D01*
X94725000Y-108075000D02*
X94500000Y-108300000D01*
X94725000Y-106125000D02*
X94725000Y-108075000D01*
X104757537Y-98100000D02*
X105475000Y-98100000D01*
X103437500Y-99000000D02*
X104600000Y-99000000D01*
X95025000Y-108274999D02*
X95025000Y-105775000D01*
X94499999Y-108800000D02*
X95025000Y-108274999D01*
X93687500Y-108800000D02*
X94499999Y-108800000D01*
X104600000Y-99000000D02*
X104900000Y-98700000D01*
X95025000Y-105775000D02*
X95400000Y-105400000D01*
X105383731Y-99183731D02*
X105767462Y-98800000D01*
X113900000Y-95500000D02*
X114000000Y-95500000D01*
X105767462Y-98800000D02*
X105767463Y-98800000D01*
X105767463Y-98800000D02*
X106092463Y-98475000D01*
X110925000Y-98475000D02*
X113900000Y-95500000D01*
X105167463Y-99400000D02*
X105383731Y-99183731D01*
X103437500Y-99400000D02*
X105167463Y-99400000D01*
X106092463Y-98475000D02*
X110925000Y-98475000D01*
X105175736Y-99900000D02*
X105909502Y-99166234D01*
X105909502Y-99166234D02*
X106016234Y-99166234D01*
X106016234Y-99166234D02*
X107033766Y-99166234D01*
X107033766Y-99166234D02*
X107200000Y-99000000D01*
X104200000Y-99900000D02*
X105175736Y-99900000D01*
X103437500Y-99800000D02*
X104100000Y-99800000D01*
X104100000Y-99800000D02*
X104200000Y-99900000D01*
X105300000Y-100200000D02*
X105850000Y-99650000D01*
X107800000Y-99466234D02*
X108633766Y-99466234D01*
X103437500Y-100200000D02*
X105300000Y-100200000D01*
X107616234Y-99650000D02*
X107800000Y-99466234D01*
X108633766Y-99466234D02*
X108700000Y-99400000D01*
X105850000Y-99650000D02*
X107616234Y-99650000D01*
X103437500Y-100600000D02*
X105695380Y-100600000D01*
X114965000Y-100000000D02*
X116225000Y-98740000D01*
X106295380Y-100000000D02*
X114965000Y-100000000D01*
X105695380Y-100600000D02*
X106295380Y-100000000D01*
X106177462Y-102535000D02*
X105271231Y-101628769D01*
X117305000Y-100385000D02*
X117305000Y-101995000D01*
X105042463Y-101400000D02*
X103437500Y-101400000D01*
X116765000Y-102535000D02*
X106177462Y-102535000D01*
X118770000Y-98920000D02*
X117305000Y-100385000D01*
X117305000Y-101995000D02*
X116765000Y-102535000D01*
X105271231Y-101628769D02*
X105042463Y-101400000D01*
X104400000Y-101800000D02*
X104700000Y-101800000D01*
X104700000Y-101800000D02*
X105200000Y-102300000D01*
X104400000Y-101800000D02*
X103437500Y-101800000D01*
X105975000Y-102825000D02*
X105985000Y-102835000D01*
X105985000Y-102835000D02*
X117395000Y-102835000D01*
X104300000Y-102200000D02*
X104925000Y-102825000D01*
X103437500Y-102200000D02*
X104300000Y-102200000D01*
X117395000Y-102835000D02*
X118770000Y-101460000D01*
X104925000Y-102825000D02*
X105975000Y-102825000D01*
X104450000Y-103050000D02*
X104000000Y-102600000D01*
X118770000Y-104000000D02*
X117570000Y-105200000D01*
X114900000Y-103700000D02*
X114335000Y-103135000D01*
X115600000Y-105200000D02*
X114900000Y-104500000D01*
X114900000Y-104500000D02*
X114900000Y-103700000D01*
X104535000Y-103135000D02*
X104450000Y-103050000D01*
X117570000Y-105200000D02*
X115600000Y-105200000D01*
X114335000Y-103135000D02*
X104535000Y-103135000D01*
X104000000Y-102600000D02*
X103437500Y-102600000D01*
X103825000Y-108675736D02*
X103825000Y-110875736D01*
X104025000Y-113460000D02*
X101260000Y-116225000D01*
X103825000Y-110875736D02*
X104025000Y-111075736D01*
X103400000Y-104751472D02*
X103400000Y-108250736D01*
X102600000Y-103437500D02*
X102600000Y-103951472D01*
X102600000Y-103951472D02*
X103400000Y-104751472D01*
X104025000Y-111075736D02*
X104025000Y-113460000D01*
X103400000Y-108250736D02*
X103825000Y-108675736D01*
X103725000Y-111200000D02*
X103525000Y-111000000D01*
X102200000Y-103975736D02*
X102200000Y-103437500D01*
X102069632Y-114930368D02*
X103725000Y-113275000D01*
X100669632Y-114930368D02*
X102069632Y-114930368D01*
X99375000Y-116225000D02*
X100669632Y-114930368D01*
X103525000Y-111000000D02*
X103525000Y-108925000D01*
X103100000Y-104875736D02*
X102200000Y-103975736D01*
X103100000Y-108500000D02*
X103100000Y-104875736D01*
X103525000Y-108925000D02*
X103100000Y-108500000D01*
X98720000Y-116225000D02*
X99375000Y-116225000D01*
X103725000Y-113275000D02*
X103725000Y-111200000D01*
X101800000Y-104000000D02*
X101800000Y-103437500D01*
X102800000Y-109700000D02*
X102800000Y-105000000D01*
X102800000Y-105000000D02*
X101800000Y-104000000D01*
X102335000Y-108265000D02*
X102300000Y-108300000D01*
X102300000Y-108300000D02*
X102075000Y-108525000D01*
X103100000Y-111500000D02*
X103200000Y-111500000D01*
X102335000Y-105047132D02*
X102335000Y-108265000D01*
X102075000Y-110475000D02*
X102100000Y-110500000D01*
X101400000Y-104112132D02*
X102335000Y-105047132D01*
X101400000Y-103437500D02*
X101400000Y-104112132D01*
X102100000Y-110500000D02*
X103100000Y-111500000D01*
X102075000Y-108525000D02*
X102075000Y-110475000D01*
X102035000Y-107989467D02*
X101624467Y-108400000D01*
X102035000Y-105692537D02*
X102035000Y-107989467D01*
X101000000Y-103437500D02*
X101000000Y-104657537D01*
X101600000Y-108400000D02*
X101600000Y-111200000D01*
X101000000Y-104657537D02*
X102035000Y-105692537D01*
X101600000Y-111200000D02*
X102000000Y-111600000D01*
X101624467Y-108400000D02*
X101600000Y-108400000D01*
X87103146Y-94366896D02*
X85806000Y-93069750D01*
X87400000Y-87050000D02*
X87450000Y-87000000D01*
X87400000Y-89095000D02*
X87400000Y-87110000D01*
X88000000Y-87500000D02*
X88990000Y-87500000D01*
X87400000Y-87110000D02*
X87500000Y-87010000D01*
X97400000Y-95454000D02*
X96312896Y-94366896D01*
X87400000Y-87025000D02*
X87450000Y-86975000D01*
X86505000Y-89095000D02*
X87400000Y-89095000D01*
X96312896Y-94366896D02*
X87103146Y-94366896D01*
X87500000Y-87010000D02*
X87510000Y-87010000D01*
X85806000Y-93069750D02*
X85806000Y-89794000D01*
X97400000Y-96562500D02*
X97400000Y-95454000D01*
X85806000Y-89794000D02*
X86505000Y-89095000D01*
X87510000Y-87010000D02*
X88000000Y-87500000D01*
X99400000Y-95900000D02*
X99275000Y-95775000D01*
X99275000Y-95025000D02*
X98000000Y-93750000D01*
X99275000Y-95775000D02*
X99275000Y-95025000D01*
X98000000Y-93750000D02*
X98000000Y-91500000D01*
X99400000Y-96562500D02*
X99400000Y-95900000D01*
X96865000Y-90365000D02*
X94600000Y-90365000D01*
X98000000Y-91500000D02*
X96865000Y-90365000D01*
X98975000Y-95250000D02*
X97500000Y-93775000D01*
X98975000Y-96100000D02*
X98975000Y-95250000D01*
X96385000Y-91635000D02*
X94600000Y-91635000D01*
X99000000Y-96125000D02*
X98975000Y-96100000D01*
X97500000Y-93775000D02*
X97500000Y-92750000D01*
X97500000Y-92750000D02*
X96385000Y-91635000D01*
X99000000Y-96562500D02*
X99000000Y-96125000D01*
X96605000Y-92905000D02*
X94600000Y-92905000D01*
X98600000Y-95299264D02*
X97200000Y-93899264D01*
X98600000Y-96562500D02*
X98600000Y-95299264D01*
X97200000Y-93500000D02*
X96605000Y-92905000D01*
X97200000Y-93899264D02*
X97200000Y-93500000D01*
X96376472Y-93500000D02*
X91100000Y-93500000D01*
X90600000Y-92000000D02*
X90235000Y-91635000D01*
X98200000Y-95323528D02*
X96376472Y-93500000D01*
X90600000Y-93000000D02*
X90600000Y-92000000D01*
X98200000Y-96562500D02*
X98200000Y-95323528D01*
X90235000Y-91635000D02*
X87400000Y-91635000D01*
X91100000Y-93500000D02*
X90600000Y-93000000D01*
X97800000Y-95347792D02*
X97800000Y-96562500D01*
X86600001Y-90365000D02*
X86106000Y-90859001D01*
X86106000Y-92945486D02*
X87227410Y-94066896D01*
X87227410Y-94066896D02*
X96519104Y-94066896D01*
X87400000Y-90365000D02*
X86600001Y-90365000D01*
X96519104Y-94066896D02*
X97800000Y-95347792D01*
X86106000Y-90859001D02*
X86106000Y-92945486D01*
X91650000Y-108900000D02*
X92750000Y-107800000D01*
X92750000Y-107800000D02*
X93687500Y-107800000D01*
X92800000Y-107300000D02*
X93687500Y-107300000D01*
X89950000Y-106700000D02*
X89950000Y-106800000D01*
X90775000Y-107625000D02*
X92475000Y-107625000D01*
X89950000Y-106800000D02*
X90775000Y-107625000D01*
X92475000Y-107625000D02*
X92800000Y-107300000D01*
X105900000Y-109800000D02*
X106975000Y-109800000D01*
X106975000Y-109800000D02*
X107300000Y-109475000D01*
X104400000Y-106600000D02*
X104575736Y-106600000D01*
X104100000Y-106900000D02*
X104400000Y-106600000D01*
X99600000Y-108175001D02*
X99600000Y-108400000D01*
X98724999Y-107300000D02*
X99600000Y-108175001D01*
X104575736Y-106600000D02*
X105587868Y-105587868D01*
X97912500Y-107300000D02*
X98724999Y-107300000D01*
X105800000Y-108680000D02*
X105900000Y-108780000D01*
X105800000Y-107400000D02*
X105800000Y-108680000D01*
D42*
X93300000Y-105500000D02*
X93300000Y-106387500D01*
X93300000Y-106387500D02*
X93687500Y-106775000D01*
G04 #@! TA.AperFunction,Conductor*
G36*
X101931742Y-97221674D02*
G01*
X101947783Y-97245682D01*
X101949500Y-97249827D01*
X101949500Y-97249828D01*
X101956072Y-97265695D01*
X101990425Y-97348632D01*
X101989708Y-97348928D01*
X102000000Y-97382848D01*
X102000000Y-98126000D01*
X101978326Y-98178326D01*
X101926000Y-98200000D01*
X98400000Y-98200000D01*
X98400000Y-98240863D01*
X98378326Y-98293189D01*
X98296830Y-98374684D01*
X98252357Y-98475405D01*
X98252356Y-98475409D01*
X98249500Y-98500032D01*
X98249500Y-101499967D01*
X98252356Y-101524590D01*
X98252357Y-101524594D01*
X98296830Y-101625315D01*
X98374685Y-101703170D01*
X98475406Y-101747643D01*
X98500032Y-101750500D01*
X100926000Y-101750500D01*
X100978326Y-101772174D01*
X101000000Y-101824500D01*
X101000000Y-102326000D01*
X100978326Y-102378326D01*
X100926000Y-102400000D01*
X100274000Y-102400000D01*
X100221674Y-102378326D01*
X100200000Y-102326000D01*
X100200000Y-102200000D01*
X97874000Y-102200000D01*
X97821674Y-102178326D01*
X97800000Y-102126000D01*
X97800000Y-97874000D01*
X97821674Y-97821674D01*
X97874000Y-97800000D01*
X100600000Y-97800000D01*
X100600000Y-97674000D01*
X100621674Y-97621674D01*
X100674000Y-97600000D01*
X101000000Y-97600000D01*
X101000000Y-97274000D01*
X101021674Y-97221674D01*
X101074000Y-97200000D01*
X101879416Y-97200000D01*
X101931742Y-97221674D01*
G37*
G04 #@! TD.AperFunction*
G04 #@! TA.AperFunction,Conductor*
G36*
X100822826Y-97221674D02*
G01*
X100844500Y-97274000D01*
X100844500Y-97370500D01*
X100822826Y-97422826D01*
X100770500Y-97444500D01*
X100674000Y-97444500D01*
X100656012Y-97448078D01*
X100641576Y-97449500D01*
X100635228Y-97449500D01*
X100510931Y-97485995D01*
X100401954Y-97556031D01*
X100401947Y-97556036D01*
X100347426Y-97618959D01*
X100296780Y-97644311D01*
X100291500Y-97644500D01*
X97874000Y-97644500D01*
X97857131Y-97647855D01*
X97814498Y-97656335D01*
X97814488Y-97656338D01*
X97762173Y-97678008D01*
X97762156Y-97678016D01*
X97727013Y-97698305D01*
X97727011Y-97698307D01*
X97678012Y-97762164D01*
X97678010Y-97762168D01*
X97656338Y-97814488D01*
X97656335Y-97814498D01*
X97644500Y-97874001D01*
X97644500Y-102125998D01*
X97656335Y-102185501D01*
X97656338Y-102185511D01*
X97678008Y-102237826D01*
X97678016Y-102237843D01*
X97698305Y-102272986D01*
X97698307Y-102272988D01*
X97698308Y-102272989D01*
X97762167Y-102321989D01*
X97814493Y-102343663D01*
X97874000Y-102355500D01*
X99994463Y-102355500D01*
X100046789Y-102377174D01*
X100062830Y-102401182D01*
X100078008Y-102437826D01*
X100078016Y-102437843D01*
X100098305Y-102472986D01*
X100098307Y-102472988D01*
X100145017Y-102508830D01*
X100162167Y-102521989D01*
X100214493Y-102543663D01*
X100274000Y-102555500D01*
X100274002Y-102555500D01*
X100925998Y-102555500D01*
X100926000Y-102555500D01*
X100985507Y-102543663D01*
X101037833Y-102521989D01*
X101053944Y-102512687D01*
X101072986Y-102501694D01*
X101072986Y-102501693D01*
X101072989Y-102501692D01*
X101121989Y-102437833D01*
X101143663Y-102385507D01*
X101155500Y-102326000D01*
X101155500Y-101824500D01*
X101177174Y-101772174D01*
X101229500Y-101750500D01*
X101499968Y-101750500D01*
X101524594Y-101747643D01*
X101625315Y-101703170D01*
X101703170Y-101625315D01*
X101747643Y-101524594D01*
X101750500Y-101499968D01*
X101750500Y-98500032D01*
X101747643Y-98475406D01*
X101740572Y-98459391D01*
X101739263Y-98402769D01*
X101778375Y-98361806D01*
X101808266Y-98355500D01*
X101925998Y-98355500D01*
X101926000Y-98355500D01*
X101985507Y-98343663D01*
X102037833Y-98321989D01*
X102072989Y-98301692D01*
X102121989Y-98237833D01*
X102143663Y-98185507D01*
X102155500Y-98126000D01*
X102155500Y-97382848D01*
X102148801Y-97337699D01*
X102144192Y-97322510D01*
X102135993Y-97295486D01*
X102141540Y-97239121D01*
X102185319Y-97203188D01*
X102206805Y-97200000D01*
X102726000Y-97200000D01*
X102778326Y-97221674D01*
X102800000Y-97274000D01*
X102800000Y-102726000D01*
X102778326Y-102778326D01*
X102726000Y-102800000D01*
X97274000Y-102800000D01*
X97221674Y-102778326D01*
X97200000Y-102726000D01*
X97200000Y-97500000D01*
X99500000Y-97500000D01*
X99500000Y-97200000D01*
X100770500Y-97200000D01*
X100822826Y-97221674D01*
G37*
G04 #@! TD.AperFunction*
G04 #@! TA.AperFunction,Conductor*
G36*
X114502325Y-79300587D02*
G01*
X114958663Y-79317661D01*
X114967889Y-79318353D01*
X115419385Y-79369224D01*
X115428535Y-79370603D01*
X115774365Y-79436037D01*
X115874952Y-79455070D01*
X115883992Y-79457133D01*
X116322849Y-79574724D01*
X116331705Y-79577455D01*
X116751197Y-79724242D01*
X116760554Y-79727516D01*
X116769186Y-79730904D01*
X117185619Y-79912593D01*
X117193973Y-79916617D01*
X117595640Y-80128904D01*
X117603671Y-80133540D01*
X117988375Y-80375265D01*
X117996037Y-80380489D01*
X118361594Y-80650282D01*
X118368836Y-80656058D01*
X118713223Y-80952427D01*
X118720020Y-80958734D01*
X119041265Y-81279979D01*
X119047572Y-81286776D01*
X119343941Y-81631163D01*
X119349719Y-81638409D01*
X119404119Y-81712117D01*
X119619510Y-82003962D01*
X119624734Y-82011624D01*
X119866459Y-82396328D01*
X119871095Y-82404359D01*
X120083382Y-82806026D01*
X120087406Y-82814380D01*
X120269095Y-83230813D01*
X120272483Y-83239445D01*
X120422542Y-83668288D01*
X120425275Y-83677150D01*
X120542866Y-84116007D01*
X120544929Y-84125047D01*
X120629394Y-84571453D01*
X120630776Y-84580623D01*
X120681645Y-85032101D01*
X120682338Y-85041347D01*
X120685005Y-85112618D01*
X120699125Y-85489990D01*
X120699413Y-85497673D01*
X120699500Y-85502310D01*
X120699500Y-99670500D01*
X120679815Y-99737539D01*
X120627011Y-99783294D01*
X120575500Y-99794500D01*
X119673465Y-99794500D01*
X119606426Y-99774815D01*
X119560671Y-99722011D01*
X119550727Y-99652853D01*
X119577612Y-99591835D01*
X119613799Y-99547740D01*
X119647685Y-99506450D01*
X119745232Y-99323954D01*
X119805300Y-99125934D01*
X119825583Y-98920000D01*
X119805300Y-98714066D01*
X119745232Y-98516046D01*
X119647685Y-98333550D01*
X119595702Y-98270209D01*
X119516410Y-98173589D01*
X119368568Y-98052260D01*
X119356450Y-98042315D01*
X119173954Y-97944768D01*
X118975934Y-97884700D01*
X118975932Y-97884699D01*
X118975934Y-97884699D01*
X118770000Y-97864417D01*
X118564067Y-97884699D01*
X118366043Y-97944769D01*
X118262715Y-98000000D01*
X118183550Y-98042315D01*
X118183548Y-98042316D01*
X118183547Y-98042317D01*
X118023589Y-98173589D01*
X117922824Y-98296374D01*
X117892315Y-98333550D01*
X117853643Y-98405898D01*
X117794769Y-98516043D01*
X117734699Y-98714067D01*
X117714417Y-98920000D01*
X117734699Y-99125932D01*
X117755222Y-99193586D01*
X117789493Y-99306566D01*
X117794769Y-99323957D01*
X117814694Y-99361234D01*
X117828935Y-99429637D01*
X117803934Y-99494880D01*
X117793016Y-99507367D01*
X117406634Y-99893749D01*
X117345311Y-99927234D01*
X117275619Y-99922250D01*
X117225248Y-99887280D01*
X117223366Y-99885108D01*
X117205780Y-99867160D01*
X117205779Y-99867159D01*
X117205777Y-99867157D01*
X117205775Y-99867156D01*
X117205773Y-99867154D01*
X117125963Y-99822511D01*
X117125952Y-99822507D01*
X117082008Y-99809603D01*
X117023231Y-99771827D01*
X116994208Y-99708271D01*
X117004153Y-99639113D01*
X117021089Y-99611967D01*
X117107685Y-99506450D01*
X117205232Y-99323954D01*
X117265300Y-99125934D01*
X117285583Y-98920000D01*
X117265300Y-98714066D01*
X117205232Y-98516046D01*
X117107685Y-98333550D01*
X117055702Y-98270209D01*
X116976410Y-98173589D01*
X116828568Y-98052260D01*
X116816450Y-98042315D01*
X116633954Y-97944768D01*
X116435934Y-97884700D01*
X116435932Y-97884699D01*
X116435934Y-97884699D01*
X116230000Y-97864417D01*
X116024067Y-97884699D01*
X115826043Y-97944769D01*
X115722715Y-98000000D01*
X115643550Y-98042315D01*
X115643548Y-98042316D01*
X115643547Y-98042317D01*
X115483589Y-98173589D01*
X115382824Y-98296374D01*
X115352315Y-98333550D01*
X115313643Y-98405898D01*
X115254769Y-98516043D01*
X115194699Y-98714067D01*
X115174417Y-98920000D01*
X115194699Y-99125934D01*
X115232416Y-99250272D01*
X115233039Y-99320139D01*
X115201436Y-99373947D01*
X114887202Y-99688182D01*
X114825881Y-99721666D01*
X114799523Y-99724500D01*
X109294976Y-99724500D01*
X109227937Y-99704815D01*
X109182182Y-99652011D01*
X109172238Y-99582853D01*
X109182183Y-99548987D01*
X109183065Y-99547055D01*
X109185165Y-99542457D01*
X109205647Y-99400000D01*
X109185165Y-99257543D01*
X109125377Y-99126627D01*
X109031128Y-99017857D01*
X109031125Y-99017855D01*
X109031126Y-99017855D01*
X108970378Y-98978815D01*
X108924624Y-98926011D01*
X108914680Y-98856853D01*
X108943705Y-98793297D01*
X109002483Y-98755523D01*
X109037418Y-98750500D01*
X110979799Y-98750500D01*
X110979800Y-98750500D01*
X111081058Y-98708557D01*
X111158557Y-98631058D01*
X111158556Y-98631058D01*
X111217125Y-98572489D01*
X111217124Y-98572489D01*
X113768625Y-96020989D01*
X113829946Y-95987506D01*
X113891239Y-95989695D01*
X113928037Y-96000500D01*
X113928039Y-96000500D01*
X114071962Y-96000500D01*
X114071962Y-96000499D01*
X114210053Y-95959953D01*
X114331128Y-95882143D01*
X114425377Y-95773373D01*
X114485165Y-95642457D01*
X114505647Y-95500000D01*
X114485165Y-95357543D01*
X114425377Y-95226627D01*
X114331128Y-95117857D01*
X114210053Y-95040047D01*
X114210051Y-95040046D01*
X114210049Y-95040045D01*
X114210050Y-95040045D01*
X114071963Y-94999500D01*
X114071961Y-94999500D01*
X113928039Y-94999500D01*
X113928036Y-94999500D01*
X113789949Y-95040045D01*
X113668873Y-95117856D01*
X113574623Y-95226626D01*
X113574622Y-95226628D01*
X113514834Y-95357543D01*
X113497534Y-95477871D01*
X113468509Y-95541427D01*
X113462477Y-95547905D01*
X110847204Y-98163181D01*
X110785881Y-98196666D01*
X110759523Y-98199500D01*
X106209428Y-98199500D01*
X106142389Y-98179815D01*
X106096634Y-98127011D01*
X106086690Y-98093148D01*
X106085165Y-98082546D01*
X106085165Y-98082543D01*
X106025377Y-97951627D01*
X105931128Y-97842857D01*
X105931125Y-97842855D01*
X105909279Y-97828815D01*
X105863524Y-97776011D01*
X105853581Y-97706852D01*
X105882607Y-97643297D01*
X105941385Y-97605523D01*
X105976319Y-97600500D01*
X106071962Y-97600500D01*
X106071962Y-97600499D01*
X106210053Y-97559953D01*
X106331128Y-97482143D01*
X106425377Y-97373373D01*
X106485165Y-97242457D01*
X106505647Y-97100000D01*
X106485165Y-96957543D01*
X106476640Y-96938877D01*
X106466698Y-96869720D01*
X106495724Y-96806165D01*
X106554502Y-96768391D01*
X106589436Y-96763368D01*
X107024467Y-96763368D01*
X107024468Y-96763368D01*
X107125726Y-96721425D01*
X107203225Y-96643926D01*
X107203224Y-96643926D01*
X107334065Y-96513086D01*
X107395389Y-96479601D01*
X107421745Y-96476768D01*
X107553230Y-96476768D01*
X107553230Y-96476767D01*
X107691321Y-96436221D01*
X107812396Y-96358411D01*
X107906645Y-96249641D01*
X107966433Y-96118725D01*
X107986915Y-95976268D01*
X107966433Y-95833811D01*
X107906645Y-95702895D01*
X107812396Y-95594125D01*
X107691321Y-95516315D01*
X107691319Y-95516314D01*
X107691317Y-95516313D01*
X107691318Y-95516313D01*
X107553231Y-95475768D01*
X107553229Y-95475768D01*
X107409307Y-95475768D01*
X107409304Y-95475768D01*
X107271217Y-95516313D01*
X107150141Y-95594124D01*
X107055891Y-95702894D01*
X107017293Y-95787411D01*
X106971537Y-95840214D01*
X106904498Y-95859898D01*
X106837458Y-95840213D01*
X106791704Y-95787408D01*
X106780499Y-95735900D01*
X106780499Y-95490100D01*
X106773972Y-95440513D01*
X106763282Y-95417589D01*
X106752790Y-95348516D01*
X106781308Y-95284731D01*
X106808626Y-95260869D01*
X106810049Y-95259953D01*
X106810053Y-95259953D01*
X106931128Y-95182143D01*
X107025377Y-95073373D01*
X107085165Y-94942457D01*
X107105647Y-94800000D01*
X107085165Y-94657543D01*
X107025377Y-94526627D01*
X106931128Y-94417857D01*
X106810053Y-94340047D01*
X106810051Y-94340046D01*
X106810049Y-94340045D01*
X106810050Y-94340045D01*
X106671963Y-94299500D01*
X106671961Y-94299500D01*
X106528039Y-94299500D01*
X106528036Y-94299500D01*
X106389949Y-94340045D01*
X106268873Y-94417856D01*
X106174623Y-94526626D01*
X106174622Y-94526628D01*
X106114834Y-94657543D01*
X106094353Y-94800000D01*
X106100105Y-94840008D01*
X106090161Y-94909166D01*
X106073120Y-94933710D01*
X106073230Y-94933784D01*
X106066441Y-94943944D01*
X106058131Y-94964006D01*
X106014288Y-95018408D01*
X105947993Y-95040470D01*
X105880451Y-95023281D01*
X105736193Y-94937967D01*
X105736190Y-94937965D01*
X105590001Y-94895493D01*
X105590000Y-94895494D01*
X105590000Y-95576000D01*
X105570315Y-95643039D01*
X105517511Y-95688794D01*
X105466000Y-95700000D01*
X105340000Y-95700000D01*
X105340000Y-95826000D01*
X105320315Y-95893039D01*
X105267511Y-95938794D01*
X105216000Y-95950000D01*
X104561210Y-95950000D01*
X104562854Y-95970910D01*
X104607968Y-96126195D01*
X104690278Y-96265374D01*
X104690285Y-96265383D01*
X104804616Y-96379714D01*
X104804624Y-96379720D01*
X104919493Y-96447653D01*
X104967176Y-96498722D01*
X104979680Y-96567463D01*
X104953035Y-96632053D01*
X104944053Y-96642066D01*
X104097940Y-97488181D01*
X104036617Y-97521666D01*
X104010259Y-97524500D01*
X103972673Y-97524500D01*
X103925222Y-97515062D01*
X103922738Y-97514033D01*
X103849676Y-97499500D01*
X103849674Y-97499500D01*
X103624000Y-97499500D01*
X103556961Y-97479815D01*
X103511206Y-97427011D01*
X103500000Y-97375500D01*
X103500000Y-96500000D01*
X102224500Y-96500000D01*
X102157461Y-96480315D01*
X102111706Y-96427511D01*
X102100500Y-96376000D01*
X102100500Y-96225807D01*
X102120185Y-96158768D01*
X102172989Y-96113013D01*
X102242147Y-96103069D01*
X102266299Y-96109901D01*
X102266313Y-96109855D01*
X102272905Y-96111770D01*
X102273760Y-96112012D01*
X102273805Y-96112031D01*
X102429089Y-96157145D01*
X102450000Y-96158789D01*
X102950000Y-96158789D01*
X102970910Y-96157145D01*
X103126195Y-96112031D01*
X103265374Y-96029721D01*
X103265383Y-96029714D01*
X103379714Y-95915383D01*
X103379721Y-95915374D01*
X103462031Y-95776195D01*
X103504504Y-95630000D01*
X102950000Y-95630000D01*
X102950000Y-96158789D01*
X102450000Y-96158789D01*
X102450000Y-95504000D01*
X102465857Y-95449999D01*
X104561209Y-95449999D01*
X104561210Y-95450000D01*
X105090000Y-95450000D01*
X105090000Y-94895494D01*
X105089998Y-94895493D01*
X104943809Y-94937965D01*
X104943806Y-94937967D01*
X104804625Y-95020278D01*
X104804616Y-95020285D01*
X104690285Y-95134616D01*
X104690278Y-95134625D01*
X104607968Y-95273804D01*
X104607966Y-95273809D01*
X104562855Y-95429081D01*
X104562854Y-95429087D01*
X104561209Y-95449999D01*
X102465857Y-95449999D01*
X102469685Y-95436961D01*
X102522489Y-95391206D01*
X102574000Y-95380000D01*
X102700000Y-95380000D01*
X102700000Y-95254000D01*
X102719685Y-95186961D01*
X102772489Y-95141206D01*
X102824000Y-95130000D01*
X103504504Y-95130000D01*
X103462031Y-94983804D01*
X103379721Y-94844625D01*
X103379714Y-94844616D01*
X103265381Y-94730283D01*
X103259217Y-94725502D01*
X103260733Y-94723547D01*
X103221363Y-94681378D01*
X103208862Y-94612635D01*
X103209226Y-94609576D01*
X103210500Y-94599901D01*
X103210499Y-94240100D01*
X103203972Y-94190513D01*
X103173416Y-94124986D01*
X109450001Y-94124986D01*
X109460494Y-94227697D01*
X109515641Y-94394119D01*
X109515643Y-94394124D01*
X109607684Y-94543345D01*
X109731654Y-94667315D01*
X109880875Y-94759356D01*
X109880880Y-94759358D01*
X110047302Y-94814505D01*
X110047309Y-94814506D01*
X110150019Y-94824999D01*
X110199999Y-94824998D01*
X110200000Y-94824998D01*
X110200000Y-93850000D01*
X109450001Y-93850000D01*
X109450001Y-94124986D01*
X103173416Y-94124986D01*
X103153224Y-94081684D01*
X103068316Y-93996776D01*
X103068315Y-93996775D01*
X103047093Y-93986879D01*
X102994655Y-93940706D01*
X102975500Y-93874498D01*
X102975500Y-93692285D01*
X102995185Y-93625246D01*
X103047989Y-93579491D01*
X103064558Y-93573311D01*
X103110053Y-93559953D01*
X103231128Y-93482143D01*
X103325377Y-93373373D01*
X103385165Y-93242457D01*
X103405647Y-93100000D01*
X103385165Y-92957543D01*
X103325377Y-92826627D01*
X103231128Y-92717857D01*
X103110053Y-92640047D01*
X103110051Y-92640046D01*
X103110049Y-92640045D01*
X103110050Y-92640045D01*
X102971963Y-92599500D01*
X102971961Y-92599500D01*
X102838346Y-92599500D01*
X102771307Y-92579815D01*
X102731140Y-92533460D01*
X102730169Y-92534085D01*
X102725827Y-92527328D01*
X102725552Y-92527011D01*
X102725377Y-92526627D01*
X102631128Y-92417857D01*
X102510053Y-92340047D01*
X102510051Y-92340046D01*
X102510049Y-92340045D01*
X102510050Y-92340045D01*
X102371963Y-92299500D01*
X102371961Y-92299500D01*
X102228039Y-92299500D01*
X102228036Y-92299500D01*
X102089949Y-92340045D01*
X101968873Y-92417856D01*
X101874623Y-92526626D01*
X101874622Y-92526628D01*
X101814834Y-92657543D01*
X101794353Y-92800000D01*
X101814834Y-92942456D01*
X101868999Y-93061058D01*
X101874623Y-93073373D01*
X101968872Y-93182143D01*
X101968874Y-93182144D01*
X101975574Y-93187950D01*
X101974442Y-93189255D01*
X102013291Y-93234082D01*
X102024500Y-93285601D01*
X102024500Y-93434522D01*
X102004815Y-93501561D01*
X101988181Y-93522203D01*
X101860671Y-93649714D01*
X101743942Y-93766443D01*
X101722234Y-93788151D01*
X101666441Y-93843943D01*
X101666441Y-93843944D01*
X101658565Y-93862957D01*
X101614722Y-93917359D01*
X101548427Y-93939421D01*
X101544008Y-93939500D01*
X101490105Y-93939500D01*
X101472201Y-93941856D01*
X101440513Y-93946028D01*
X101440511Y-93946028D01*
X101440510Y-93946029D01*
X101440509Y-93946029D01*
X101331683Y-93996776D01*
X101246776Y-94081683D01*
X101196027Y-94190514D01*
X101189500Y-94240097D01*
X101189500Y-94599894D01*
X101189501Y-94599900D01*
X101196028Y-94649487D01*
X101196029Y-94649489D01*
X101196029Y-94649490D01*
X101246776Y-94758316D01*
X101300779Y-94812319D01*
X101334264Y-94873642D01*
X101329280Y-94943334D01*
X101300779Y-94987681D01*
X101246776Y-95041683D01*
X101196027Y-95150514D01*
X101189500Y-95200097D01*
X101189500Y-95559894D01*
X101189501Y-95559900D01*
X101196028Y-95609487D01*
X101196029Y-95609491D01*
X101198684Y-95618599D01*
X101195636Y-95619487D01*
X101203687Y-95672488D01*
X101175168Y-95736273D01*
X101116692Y-95774513D01*
X101046825Y-95775068D01*
X101005888Y-95754621D01*
X100922097Y-95691080D01*
X100781443Y-95635613D01*
X100693054Y-95625000D01*
X100506945Y-95625000D01*
X100414783Y-95636066D01*
X100385217Y-95636066D01*
X100331766Y-95629648D01*
X100267552Y-95602111D01*
X100228418Y-95544229D01*
X100226790Y-95474378D01*
X100233750Y-95455032D01*
X100285165Y-95342451D01*
X100305647Y-95199994D01*
X100285165Y-95057537D01*
X100225377Y-94926621D01*
X100225375Y-94926619D01*
X100225374Y-94926616D01*
X100130787Y-94817456D01*
X100101762Y-94753900D01*
X100100500Y-94736254D01*
X100100500Y-93875887D01*
X100120185Y-93808848D01*
X100172989Y-93763093D01*
X100242147Y-93753149D01*
X100259094Y-93756810D01*
X100329089Y-93777145D01*
X100350000Y-93778789D01*
X100850000Y-93778789D01*
X100870910Y-93777145D01*
X101026195Y-93732031D01*
X101165374Y-93649721D01*
X101165383Y-93649714D01*
X101279714Y-93535383D01*
X101279721Y-93535374D01*
X101362031Y-93396195D01*
X101404504Y-93250000D01*
X100850000Y-93250000D01*
X100850000Y-93778789D01*
X100350000Y-93778789D01*
X100350000Y-93124000D01*
X100369685Y-93056961D01*
X100422489Y-93011206D01*
X100474000Y-93000000D01*
X100600000Y-93000000D01*
X100600000Y-92874000D01*
X100619685Y-92806961D01*
X100672489Y-92761206D01*
X100724000Y-92750000D01*
X101404504Y-92750000D01*
X101362031Y-92603804D01*
X101279721Y-92464625D01*
X101279714Y-92464616D01*
X101165381Y-92350283D01*
X101159217Y-92345502D01*
X101160733Y-92343547D01*
X101121363Y-92301378D01*
X101111628Y-92247844D01*
X108100000Y-92247844D01*
X108106401Y-92307372D01*
X108106403Y-92307379D01*
X108156645Y-92442086D01*
X108156649Y-92442093D01*
X108242809Y-92557187D01*
X108242812Y-92557190D01*
X108357906Y-92643350D01*
X108357913Y-92643354D01*
X108492620Y-92693596D01*
X108492627Y-92693598D01*
X108552155Y-92699999D01*
X108552172Y-92700000D01*
X109379007Y-92700000D01*
X109446046Y-92719685D01*
X109491801Y-92772489D01*
X109501745Y-92841647D01*
X109496713Y-92863004D01*
X109460494Y-92972302D01*
X109460493Y-92972309D01*
X109450000Y-93075013D01*
X109450000Y-93350000D01*
X110200000Y-93350000D01*
X110200000Y-92830000D01*
X110700000Y-92830000D01*
X110700000Y-94824999D01*
X110749972Y-94824999D01*
X110749986Y-94824998D01*
X110852697Y-94814505D01*
X111019119Y-94759358D01*
X111019124Y-94759356D01*
X111168345Y-94667315D01*
X111292315Y-94543345D01*
X111384356Y-94394124D01*
X111384359Y-94394117D01*
X111440094Y-94225918D01*
X111479866Y-94168473D01*
X111544382Y-94141649D01*
X111613158Y-94153964D01*
X111664358Y-94201506D01*
X111674841Y-94223965D01*
X111676147Y-94227697D01*
X111697207Y-94287882D01*
X111777850Y-94397150D01*
X111887118Y-94477793D01*
X111929845Y-94492744D01*
X112015299Y-94522646D01*
X112045730Y-94525500D01*
X112045734Y-94525500D01*
X112654270Y-94525500D01*
X112684699Y-94522646D01*
X112684701Y-94522646D01*
X112748790Y-94500219D01*
X112812882Y-94477793D01*
X112922150Y-94397150D01*
X113002793Y-94287882D01*
X113033017Y-94201506D01*
X113047646Y-94159701D01*
X113047646Y-94159699D01*
X113050500Y-94129269D01*
X113050500Y-93999500D01*
X113070185Y-93932461D01*
X113122989Y-93886706D01*
X113174500Y-93875500D01*
X113254799Y-93875500D01*
X113254800Y-93875500D01*
X113356058Y-93833557D01*
X113433557Y-93756058D01*
X113452797Y-93736818D01*
X113514120Y-93703334D01*
X113540478Y-93700500D01*
X113671962Y-93700500D01*
X113671962Y-93700499D01*
X113784704Y-93667396D01*
X113810050Y-93659954D01*
X113810050Y-93659953D01*
X113810053Y-93659953D01*
X113931128Y-93582143D01*
X114025377Y-93473373D01*
X114085165Y-93342457D01*
X114105647Y-93200000D01*
X114085165Y-93057543D01*
X114025377Y-92926627D01*
X113931128Y-92817857D01*
X113810053Y-92740047D01*
X113810051Y-92740046D01*
X113810049Y-92740045D01*
X113810050Y-92740045D01*
X113671963Y-92699500D01*
X113671961Y-92699500D01*
X113528039Y-92699500D01*
X113528036Y-92699500D01*
X113389949Y-92740045D01*
X113268873Y-92817856D01*
X113268872Y-92817856D01*
X113268872Y-92817857D01*
X113264578Y-92822813D01*
X113189082Y-92909940D01*
X113130304Y-92947714D01*
X113060434Y-92947714D01*
X113001656Y-92909940D01*
X112995599Y-92902370D01*
X112922151Y-92802851D01*
X112910498Y-92794251D01*
X112865724Y-92761206D01*
X112812881Y-92722206D01*
X112812736Y-92722130D01*
X112812606Y-92722003D01*
X112805405Y-92716689D01*
X112806132Y-92715703D01*
X112762664Y-92673401D01*
X112746885Y-92605336D01*
X112770410Y-92539546D01*
X112771412Y-92538188D01*
X112843352Y-92442089D01*
X112843354Y-92442086D01*
X112893596Y-92307379D01*
X112893598Y-92307372D01*
X112899999Y-92247844D01*
X112900000Y-92247827D01*
X112900000Y-91450000D01*
X110750000Y-91450000D01*
X110750000Y-92728638D01*
X110730315Y-92795677D01*
X110713681Y-92816319D01*
X110700000Y-92830000D01*
X110200000Y-92830000D01*
X110200000Y-92346362D01*
X110219685Y-92279323D01*
X110236319Y-92258681D01*
X110250000Y-92245000D01*
X110250000Y-91450000D01*
X108100000Y-91450000D01*
X108100000Y-92247844D01*
X101111628Y-92247844D01*
X101108862Y-92232635D01*
X101109226Y-92229576D01*
X101110500Y-92219901D01*
X101110499Y-91860100D01*
X101103972Y-91810513D01*
X101053224Y-91701684D01*
X101016269Y-91664729D01*
X100982784Y-91603406D01*
X100987768Y-91533714D01*
X101010238Y-91495845D01*
X101025374Y-91478377D01*
X101025374Y-91478375D01*
X101025377Y-91478373D01*
X101085165Y-91347457D01*
X101105647Y-91205000D01*
X101085165Y-91062543D01*
X101025377Y-90931627D01*
X100931128Y-90822857D01*
X100810053Y-90745047D01*
X100810051Y-90745046D01*
X100810049Y-90745045D01*
X100810050Y-90745045D01*
X100671963Y-90704500D01*
X100671961Y-90704500D01*
X100528039Y-90704500D01*
X100528036Y-90704500D01*
X100389949Y-90745045D01*
X100268873Y-90822856D01*
X100193709Y-90909600D01*
X100134931Y-90947374D01*
X100065061Y-90947374D01*
X100006283Y-90909599D01*
X99931129Y-90822866D01*
X99931128Y-90822865D01*
X99810053Y-90745055D01*
X99810051Y-90745054D01*
X99810049Y-90745053D01*
X99810050Y-90745053D01*
X99671963Y-90704508D01*
X99671961Y-90704508D01*
X99528039Y-90704508D01*
X99528036Y-90704508D01*
X99389949Y-90745053D01*
X99268873Y-90822864D01*
X99174623Y-90931634D01*
X99174622Y-90931636D01*
X99114834Y-91062551D01*
X99094353Y-91205008D01*
X99114834Y-91347464D01*
X99159470Y-91445201D01*
X99174623Y-91478381D01*
X99189756Y-91495845D01*
X99189759Y-91495849D01*
X99218783Y-91559405D01*
X99208839Y-91628564D01*
X99183728Y-91664730D01*
X99146776Y-91701682D01*
X99096027Y-91810514D01*
X99089500Y-91860097D01*
X99089500Y-92219894D01*
X99089501Y-92219900D01*
X99096028Y-92269487D01*
X99096029Y-92269489D01*
X99096029Y-92269490D01*
X99146776Y-92378316D01*
X99200779Y-92432319D01*
X99234264Y-92493642D01*
X99229280Y-92563334D01*
X99200779Y-92607681D01*
X99146776Y-92661683D01*
X99096027Y-92770514D01*
X99089500Y-92820097D01*
X99089500Y-93179894D01*
X99089501Y-93179900D01*
X99096028Y-93229487D01*
X99096029Y-93229489D01*
X99096029Y-93229490D01*
X99146776Y-93338316D01*
X99231684Y-93423224D01*
X99240571Y-93429447D01*
X99239198Y-93431407D01*
X99280339Y-93467625D01*
X99299500Y-93533843D01*
X99299500Y-93539562D01*
X99304964Y-93559953D01*
X99319979Y-93615989D01*
X99344472Y-93658413D01*
X99345362Y-93659953D01*
X99359540Y-93684511D01*
X99463182Y-93788153D01*
X99496666Y-93849474D01*
X99499500Y-93875833D01*
X99499500Y-94560522D01*
X99479815Y-94627561D01*
X99427011Y-94673316D01*
X99357853Y-94683260D01*
X99294297Y-94654235D01*
X99287819Y-94648203D01*
X98311819Y-93672203D01*
X98278334Y-93610880D01*
X98275500Y-93584522D01*
X98275500Y-91445201D01*
X98275499Y-91445197D01*
X98240002Y-91359501D01*
X98233557Y-91343941D01*
X97634661Y-90745045D01*
X97021061Y-90131445D01*
X97021058Y-90131443D01*
X97021056Y-90131442D01*
X97021054Y-90131441D01*
X97016542Y-90129572D01*
X97016539Y-90129571D01*
X96919800Y-90089500D01*
X95656193Y-90089500D01*
X95589154Y-90069815D01*
X95544793Y-90019961D01*
X95539197Y-90008515D01*
X95533227Y-90000153D01*
X95534340Y-89999357D01*
X95506029Y-89947509D01*
X95511013Y-89877817D01*
X95552885Y-89821884D01*
X95564075Y-89814419D01*
X95596911Y-89795000D01*
X103995496Y-89795000D01*
X104037968Y-89941195D01*
X104120278Y-90080374D01*
X104120285Y-90080383D01*
X104234616Y-90194714D01*
X104234625Y-90194721D01*
X104373804Y-90277031D01*
X104529089Y-90322145D01*
X104550000Y-90323789D01*
X105050000Y-90323789D01*
X105070910Y-90322145D01*
X105226195Y-90277031D01*
X105365374Y-90194721D01*
X105365383Y-90194714D01*
X105407942Y-90152155D01*
X108100000Y-90152155D01*
X108100000Y-90950000D01*
X110250000Y-90950000D01*
X110750000Y-90950000D01*
X112900000Y-90950000D01*
X112900000Y-90152172D01*
X112899999Y-90152155D01*
X112893598Y-90092627D01*
X112893596Y-90092620D01*
X112843354Y-89957913D01*
X112843350Y-89957906D01*
X112757190Y-89842812D01*
X112757187Y-89842809D01*
X112642093Y-89756649D01*
X112642086Y-89756645D01*
X112507379Y-89706403D01*
X112507372Y-89706401D01*
X112447844Y-89700000D01*
X110750000Y-89700000D01*
X110750000Y-90950000D01*
X110250000Y-90950000D01*
X110250000Y-89700000D01*
X108552155Y-89700000D01*
X108492627Y-89706401D01*
X108492620Y-89706403D01*
X108357913Y-89756645D01*
X108357906Y-89756649D01*
X108242812Y-89842809D01*
X108242809Y-89842812D01*
X108156649Y-89957906D01*
X108156645Y-89957913D01*
X108106403Y-90092620D01*
X108106401Y-90092627D01*
X108100000Y-90152155D01*
X105407942Y-90152155D01*
X105479714Y-90080383D01*
X105479721Y-90080374D01*
X105562031Y-89941195D01*
X105604504Y-89795000D01*
X105050000Y-89795000D01*
X105050000Y-90323789D01*
X104550000Y-90323789D01*
X104550000Y-89795000D01*
X103995496Y-89795000D01*
X95596911Y-89795000D01*
X95651550Y-89762687D01*
X95651561Y-89762678D01*
X95767678Y-89646561D01*
X95767685Y-89646552D01*
X95851281Y-89505198D01*
X95897100Y-89347486D01*
X95897295Y-89345001D01*
X95897295Y-89345000D01*
X93302705Y-89345000D01*
X93302704Y-89345001D01*
X93302899Y-89347486D01*
X93348718Y-89505198D01*
X93432314Y-89646552D01*
X93432321Y-89646561D01*
X93548438Y-89762678D01*
X93548446Y-89762684D01*
X93635925Y-89814419D01*
X93683608Y-89865488D01*
X93696112Y-89934230D01*
X93669467Y-89998819D01*
X93660927Y-90008340D01*
X93660804Y-90008513D01*
X93609426Y-90113608D01*
X93599500Y-90181739D01*
X93599500Y-90548260D01*
X93609426Y-90616391D01*
X93609427Y-90616393D01*
X93652503Y-90704508D01*
X93660803Y-90721485D01*
X93743514Y-90804196D01*
X93743515Y-90804196D01*
X93743517Y-90804198D01*
X93848607Y-90855573D01*
X93882673Y-90860536D01*
X93916739Y-90865500D01*
X93916740Y-90865500D01*
X95283261Y-90865500D01*
X95305971Y-90862191D01*
X95351393Y-90855573D01*
X95456483Y-90804198D01*
X95539198Y-90721483D01*
X95544793Y-90710039D01*
X95591921Y-90658457D01*
X95656193Y-90640500D01*
X96699523Y-90640500D01*
X96766562Y-90660185D01*
X96787204Y-90676819D01*
X97688181Y-91577796D01*
X97721666Y-91639119D01*
X97724500Y-91665477D01*
X97724500Y-92285522D01*
X97704815Y-92352561D01*
X97652011Y-92398316D01*
X97582853Y-92408260D01*
X97519297Y-92379235D01*
X97512819Y-92373203D01*
X96541059Y-91401443D01*
X96530414Y-91397034D01*
X96439800Y-91359500D01*
X95656193Y-91359500D01*
X95589154Y-91339815D01*
X95544793Y-91289961D01*
X95539197Y-91278515D01*
X95456485Y-91195803D01*
X95351391Y-91144426D01*
X95283261Y-91134500D01*
X95283260Y-91134500D01*
X93916740Y-91134500D01*
X93916739Y-91134500D01*
X93848608Y-91144426D01*
X93743514Y-91195803D01*
X93660803Y-91278514D01*
X93609426Y-91383608D01*
X93599500Y-91451739D01*
X93599500Y-91818260D01*
X93609426Y-91886391D01*
X93660803Y-91991485D01*
X93743514Y-92074196D01*
X93743515Y-92074196D01*
X93743517Y-92074198D01*
X93848607Y-92125573D01*
X93882673Y-92130536D01*
X93916739Y-92135500D01*
X93916740Y-92135500D01*
X95283261Y-92135500D01*
X95306129Y-92132168D01*
X95351393Y-92125573D01*
X95456483Y-92074198D01*
X95539198Y-91991483D01*
X95542356Y-91985022D01*
X95544793Y-91980039D01*
X95591921Y-91928457D01*
X95656193Y-91910500D01*
X96219523Y-91910500D01*
X96286562Y-91930185D01*
X96307204Y-91946819D01*
X96782799Y-92422414D01*
X96816284Y-92483737D01*
X96811300Y-92553429D01*
X96769428Y-92609362D01*
X96703964Y-92633779D01*
X96670931Y-92631713D01*
X96659803Y-92629500D01*
X96659800Y-92629500D01*
X95656193Y-92629500D01*
X95589154Y-92609815D01*
X95544793Y-92559961D01*
X95539197Y-92548515D01*
X95456485Y-92465803D01*
X95351391Y-92414426D01*
X95283261Y-92404500D01*
X95283260Y-92404500D01*
X93916740Y-92404500D01*
X93916739Y-92404500D01*
X93848608Y-92414426D01*
X93743514Y-92465803D01*
X93660803Y-92548514D01*
X93609426Y-92653608D01*
X93599500Y-92721739D01*
X93599500Y-93088265D01*
X93599737Y-93091535D01*
X93599500Y-93092629D01*
X93599500Y-93092747D01*
X93599475Y-93092747D01*
X93584951Y-93159822D01*
X93535594Y-93209275D01*
X93476062Y-93224500D01*
X91265478Y-93224500D01*
X91198439Y-93204815D01*
X91177797Y-93188181D01*
X90911819Y-92922203D01*
X90878334Y-92860880D01*
X90875500Y-92834522D01*
X90875500Y-91945201D01*
X90875500Y-91945200D01*
X90833557Y-91843942D01*
X90756058Y-91766443D01*
X90576758Y-91587143D01*
X90391059Y-91401443D01*
X90380414Y-91397034D01*
X90289800Y-91359500D01*
X88456193Y-91359500D01*
X88389154Y-91339815D01*
X88344793Y-91289961D01*
X88339197Y-91278515D01*
X88256483Y-91195801D01*
X88248120Y-91189830D01*
X88250414Y-91186616D01*
X88213458Y-91152807D01*
X88195589Y-91085261D01*
X88196806Y-91070956D01*
X88197172Y-91068405D01*
X88197175Y-91068398D01*
X88205500Y-91010500D01*
X88205500Y-90989500D01*
X88200803Y-90945816D01*
X88198985Y-90937459D01*
X88203966Y-90867768D01*
X88245836Y-90811833D01*
X88248275Y-90810383D01*
X88248122Y-90810168D01*
X88256484Y-90804197D01*
X88339196Y-90721485D01*
X88339198Y-90721483D01*
X88390573Y-90616393D01*
X88400500Y-90548260D01*
X88400500Y-90181740D01*
X88390573Y-90113607D01*
X88339198Y-90008517D01*
X88339196Y-90008515D01*
X88339196Y-90008514D01*
X88256483Y-89925801D01*
X88248120Y-89919830D01*
X88250414Y-89916616D01*
X88213458Y-89882807D01*
X88195589Y-89815261D01*
X88196806Y-89800956D01*
X88197172Y-89798405D01*
X88197175Y-89798398D01*
X88205500Y-89740500D01*
X88205500Y-89719500D01*
X88200803Y-89675816D01*
X88198985Y-89667459D01*
X88203966Y-89597768D01*
X88245836Y-89541833D01*
X88248275Y-89540383D01*
X88248122Y-89540168D01*
X88256484Y-89534197D01*
X88339196Y-89451485D01*
X88339198Y-89451483D01*
X88390573Y-89346393D01*
X88398061Y-89295000D01*
X103995496Y-89295000D01*
X105604504Y-89295000D01*
X105562031Y-89148804D01*
X105479721Y-89009625D01*
X105479714Y-89009616D01*
X105365381Y-88895283D01*
X105359217Y-88890502D01*
X105360733Y-88888547D01*
X105321363Y-88846378D01*
X105308862Y-88777635D01*
X105309231Y-88774538D01*
X105310500Y-88764901D01*
X105310499Y-88405100D01*
X105303972Y-88355513D01*
X105253224Y-88246684D01*
X105168316Y-88161776D01*
X105168314Y-88161774D01*
X105159427Y-88155551D01*
X105160797Y-88153593D01*
X105119647Y-88117351D01*
X105100500Y-88051155D01*
X105100500Y-88033738D01*
X105120185Y-87966699D01*
X105130787Y-87952535D01*
X105131124Y-87952144D01*
X105131128Y-87952143D01*
X105225377Y-87843373D01*
X105285165Y-87712457D01*
X105305647Y-87570000D01*
X105285165Y-87427543D01*
X105225377Y-87296627D01*
X105131128Y-87187857D01*
X105010053Y-87110047D01*
X105010051Y-87110046D01*
X105010049Y-87110045D01*
X105010050Y-87110045D01*
X104871963Y-87069500D01*
X104871961Y-87069500D01*
X104728039Y-87069500D01*
X104728036Y-87069500D01*
X104589949Y-87110045D01*
X104468873Y-87187856D01*
X104374623Y-87296626D01*
X104374622Y-87296628D01*
X104314834Y-87427543D01*
X104294353Y-87570000D01*
X104314834Y-87712456D01*
X104374622Y-87843371D01*
X104374623Y-87843373D01*
X104468872Y-87952143D01*
X104468875Y-87952144D01*
X104469213Y-87952535D01*
X104498238Y-88016091D01*
X104499500Y-88033738D01*
X104499500Y-88051155D01*
X104479815Y-88118194D01*
X104439237Y-88153643D01*
X104440573Y-88155551D01*
X104431685Y-88161774D01*
X104346776Y-88246683D01*
X104296028Y-88355513D01*
X104296027Y-88355513D01*
X104289500Y-88405097D01*
X104289500Y-88764896D01*
X104289501Y-88764900D01*
X104290768Y-88774528D01*
X104290770Y-88774538D01*
X104280001Y-88843573D01*
X104239650Y-88889032D01*
X104240788Y-88890499D01*
X104234621Y-88895282D01*
X104120282Y-89009620D01*
X104120278Y-89009625D01*
X104037968Y-89148804D01*
X103995496Y-89295000D01*
X88398061Y-89295000D01*
X88400500Y-89278260D01*
X88400500Y-88911740D01*
X88390776Y-88844998D01*
X93302704Y-88844998D01*
X93302705Y-88845000D01*
X94350000Y-88845000D01*
X94850000Y-88845000D01*
X95897295Y-88845000D01*
X95897295Y-88844998D01*
X95897100Y-88842513D01*
X95851281Y-88684801D01*
X95767685Y-88543447D01*
X95767678Y-88543438D01*
X95651561Y-88427321D01*
X95651552Y-88427314D01*
X95510196Y-88343717D01*
X95510193Y-88343716D01*
X95352495Y-88297900D01*
X95352489Y-88297899D01*
X95315649Y-88295000D01*
X94850000Y-88295000D01*
X94850000Y-88845000D01*
X94350000Y-88845000D01*
X94350000Y-88295000D01*
X93884350Y-88295000D01*
X93847510Y-88297899D01*
X93847504Y-88297900D01*
X93689806Y-88343716D01*
X93689803Y-88343717D01*
X93548447Y-88427314D01*
X93548438Y-88427321D01*
X93432321Y-88543438D01*
X93432314Y-88543447D01*
X93348718Y-88684801D01*
X93302899Y-88842513D01*
X93302704Y-88844998D01*
X88390776Y-88844998D01*
X88390573Y-88843607D01*
X88339198Y-88738517D01*
X88339196Y-88738515D01*
X88339196Y-88738514D01*
X88256483Y-88655801D01*
X88248120Y-88649830D01*
X88250414Y-88646616D01*
X88213458Y-88612807D01*
X88195589Y-88545261D01*
X88196806Y-88530956D01*
X88197172Y-88528405D01*
X88197175Y-88528398D01*
X88205500Y-88470500D01*
X88205500Y-87899500D01*
X88225185Y-87832461D01*
X88277989Y-87786706D01*
X88329500Y-87775500D01*
X88448021Y-87775500D01*
X88515060Y-87795185D01*
X88560402Y-87847094D01*
X88575935Y-87880404D01*
X88659596Y-87964065D01*
X88766827Y-88014068D01*
X88815683Y-88020500D01*
X88815684Y-88020500D01*
X89164317Y-88020500D01*
X89172458Y-88019428D01*
X89213173Y-88014068D01*
X89213181Y-88014064D01*
X89221986Y-88011498D01*
X89291856Y-88011631D01*
X89350562Y-88049517D01*
X89363426Y-88067419D01*
X89369259Y-88077283D01*
X89369268Y-88077294D01*
X89482705Y-88190731D01*
X89482714Y-88190738D01*
X89620805Y-88272404D01*
X89760000Y-88312844D01*
X89760000Y-88312843D01*
X90260000Y-88312843D01*
X90399194Y-88272404D01*
X90537285Y-88190738D01*
X90537294Y-88190731D01*
X90650731Y-88077294D01*
X90650738Y-88077285D01*
X90732406Y-87939191D01*
X90732407Y-87939188D01*
X90777166Y-87785128D01*
X90777167Y-87785122D01*
X90779931Y-87750000D01*
X90260000Y-87750000D01*
X90260000Y-88312843D01*
X89760000Y-88312843D01*
X89760000Y-86687154D01*
X90260000Y-86687154D01*
X90260000Y-87250000D01*
X90779931Y-87250000D01*
X90777167Y-87214877D01*
X90777166Y-87214871D01*
X90732407Y-87060811D01*
X90732406Y-87060808D01*
X90678703Y-86970000D01*
X92144353Y-86970000D01*
X92164834Y-87112456D01*
X92224622Y-87243371D01*
X92224623Y-87243373D01*
X92318872Y-87352143D01*
X92439947Y-87429953D01*
X92439950Y-87429954D01*
X92439949Y-87429954D01*
X92578036Y-87470499D01*
X92578038Y-87470500D01*
X92578039Y-87470500D01*
X92721962Y-87470500D01*
X92721962Y-87470499D01*
X92860053Y-87429953D01*
X92981128Y-87352143D01*
X93013921Y-87314297D01*
X93072697Y-87276523D01*
X93142566Y-87276522D01*
X93201345Y-87314296D01*
X93220013Y-87343091D01*
X93231776Y-87368316D01*
X93316684Y-87453224D01*
X93425513Y-87503972D01*
X93475099Y-87510500D01*
X93834900Y-87510499D01*
X93844534Y-87509230D01*
X93913565Y-87519994D01*
X93959038Y-87560351D01*
X93960502Y-87559217D01*
X93965283Y-87565381D01*
X94079616Y-87679714D01*
X94079625Y-87679721D01*
X94218804Y-87762031D01*
X94365000Y-87804504D01*
X94365000Y-87804503D01*
X94865000Y-87804503D01*
X95011195Y-87762031D01*
X95150374Y-87679721D01*
X95150383Y-87679714D01*
X95264714Y-87565383D01*
X95264721Y-87565374D01*
X95288606Y-87524986D01*
X96100001Y-87524986D01*
X96110494Y-87627697D01*
X96165641Y-87794119D01*
X96165643Y-87794124D01*
X96257684Y-87943345D01*
X96381654Y-88067315D01*
X96530875Y-88159356D01*
X96530880Y-88159358D01*
X96697302Y-88214505D01*
X96697309Y-88214506D01*
X96800019Y-88224999D01*
X96849999Y-88224998D01*
X96850000Y-88224998D01*
X96850000Y-87250000D01*
X96100001Y-87250000D01*
X96100001Y-87524986D01*
X95288606Y-87524986D01*
X95347031Y-87426195D01*
X95347033Y-87426190D01*
X95392144Y-87270918D01*
X95392145Y-87270912D01*
X95393790Y-87250000D01*
X94865000Y-87250000D01*
X94865000Y-87804503D01*
X94365000Y-87804503D01*
X94365000Y-86195494D01*
X94865000Y-86195494D01*
X94865000Y-86750000D01*
X95393790Y-86750000D01*
X95392145Y-86729089D01*
X95347031Y-86573804D01*
X95264721Y-86434625D01*
X95264714Y-86434616D01*
X95150383Y-86320285D01*
X95150374Y-86320278D01*
X95011193Y-86237967D01*
X95011190Y-86237965D01*
X94865001Y-86195493D01*
X94865000Y-86195494D01*
X94365000Y-86195494D01*
X94364998Y-86195493D01*
X94218809Y-86237965D01*
X94218806Y-86237967D01*
X94079625Y-86320278D01*
X94079620Y-86320282D01*
X93965282Y-86434621D01*
X93960499Y-86440788D01*
X93958544Y-86439272D01*
X93916362Y-86478644D01*
X93847618Y-86491135D01*
X93844537Y-86490768D01*
X93834904Y-86489500D01*
X93475105Y-86489500D01*
X93462686Y-86491135D01*
X93425513Y-86496028D01*
X93425511Y-86496029D01*
X93425509Y-86496029D01*
X93316683Y-86546776D01*
X93230279Y-86633181D01*
X93168956Y-86666666D01*
X93142598Y-86669500D01*
X93108501Y-86669500D01*
X93041462Y-86649815D01*
X93014788Y-86626703D01*
X92981128Y-86587857D01*
X92860053Y-86510047D01*
X92860051Y-86510046D01*
X92860049Y-86510045D01*
X92860050Y-86510045D01*
X92721963Y-86469500D01*
X92721961Y-86469500D01*
X92578039Y-86469500D01*
X92578036Y-86469500D01*
X92439949Y-86510045D01*
X92318873Y-86587856D01*
X92224623Y-86696626D01*
X92224622Y-86696628D01*
X92164834Y-86827543D01*
X92144353Y-86970000D01*
X90678703Y-86970000D01*
X90650738Y-86922714D01*
X90650731Y-86922705D01*
X90537294Y-86809268D01*
X90537285Y-86809261D01*
X90399191Y-86727593D01*
X90399188Y-86727591D01*
X90260001Y-86687153D01*
X90260000Y-86687154D01*
X89760000Y-86687154D01*
X89759998Y-86687153D01*
X89620811Y-86727591D01*
X89620808Y-86727593D01*
X89482714Y-86809261D01*
X89482705Y-86809268D01*
X89369266Y-86922708D01*
X89369265Y-86922708D01*
X89363426Y-86932582D01*
X89312355Y-86980264D01*
X89243612Y-86992765D01*
X89222003Y-86988505D01*
X89213173Y-86985931D01*
X89164317Y-86979500D01*
X89164316Y-86979500D01*
X88815684Y-86979500D01*
X88815683Y-86979500D01*
X88766828Y-86985931D01*
X88659595Y-87035935D01*
X88575935Y-87119595D01*
X88560403Y-87152905D01*
X88514231Y-87205344D01*
X88448021Y-87224500D01*
X88165478Y-87224500D01*
X88098439Y-87204815D01*
X88077797Y-87188181D01*
X88056819Y-87167203D01*
X88023334Y-87105880D01*
X88020500Y-87079522D01*
X88020500Y-86835683D01*
X88017021Y-86809261D01*
X88014068Y-86786827D01*
X88011617Y-86781570D01*
X88000000Y-86729167D01*
X88000000Y-86270832D01*
X88011618Y-86218426D01*
X88014068Y-86213173D01*
X88020500Y-86164316D01*
X88020500Y-85829500D01*
X88040185Y-85762461D01*
X88092989Y-85716706D01*
X88144500Y-85705500D01*
X96312740Y-85705500D01*
X96379779Y-85725185D01*
X96425534Y-85777989D01*
X96435478Y-85847147D01*
X96406453Y-85910703D01*
X96386741Y-85927466D01*
X96387323Y-85928202D01*
X96381655Y-85932683D01*
X96257684Y-86056654D01*
X96165643Y-86205875D01*
X96165641Y-86205880D01*
X96110494Y-86372302D01*
X96110493Y-86372309D01*
X96100000Y-86475013D01*
X96100000Y-86750000D01*
X96976000Y-86750000D01*
X97043039Y-86769685D01*
X97088794Y-86822489D01*
X97100000Y-86874000D01*
X97100000Y-87000000D01*
X97226000Y-87000000D01*
X97293039Y-87019685D01*
X97338794Y-87072489D01*
X97350000Y-87124000D01*
X97350000Y-88224999D01*
X97399972Y-88224999D01*
X97399986Y-88224998D01*
X97502697Y-88214505D01*
X97669119Y-88159358D01*
X97669124Y-88159356D01*
X97818345Y-88067315D01*
X97942315Y-87943345D01*
X98034356Y-87794124D01*
X98034359Y-87794117D01*
X98090094Y-87625918D01*
X98129866Y-87568473D01*
X98194382Y-87541649D01*
X98263158Y-87553964D01*
X98314358Y-87601506D01*
X98324841Y-87623965D01*
X98325831Y-87626793D01*
X98347207Y-87687882D01*
X98427850Y-87797150D01*
X98537118Y-87877793D01*
X98629716Y-87910194D01*
X98641455Y-87914302D01*
X98698231Y-87955023D01*
X98723978Y-88019976D01*
X98724500Y-88031343D01*
X98724500Y-88165112D01*
X98704815Y-88232151D01*
X98694213Y-88246314D01*
X98624625Y-88326622D01*
X98624622Y-88326628D01*
X98564834Y-88457543D01*
X98544353Y-88600000D01*
X98564834Y-88742456D01*
X98624622Y-88873371D01*
X98624623Y-88873373D01*
X98718872Y-88982143D01*
X98839947Y-89059953D01*
X98839950Y-89059954D01*
X98839949Y-89059954D01*
X98978036Y-89100499D01*
X98978038Y-89100500D01*
X98978039Y-89100500D01*
X99121962Y-89100500D01*
X99121962Y-89100499D01*
X99229121Y-89069035D01*
X99260050Y-89059954D01*
X99260050Y-89059953D01*
X99260053Y-89059953D01*
X99381128Y-88982143D01*
X99475377Y-88873373D01*
X99535165Y-88742457D01*
X99555647Y-88600000D01*
X99535165Y-88457543D01*
X99475377Y-88326627D01*
X99381128Y-88217857D01*
X99332460Y-88186580D01*
X99286706Y-88133777D01*
X99275500Y-88082265D01*
X99275500Y-88031343D01*
X99295185Y-87964304D01*
X99347989Y-87918549D01*
X99358545Y-87914302D01*
X99364764Y-87912125D01*
X99462882Y-87877793D01*
X99572150Y-87797150D01*
X99652793Y-87687882D01*
X99683719Y-87599500D01*
X99697646Y-87559701D01*
X99697646Y-87559699D01*
X99700500Y-87529269D01*
X99700500Y-86470730D01*
X99697646Y-86440300D01*
X99697646Y-86440298D01*
X99663723Y-86343354D01*
X99652793Y-86312118D01*
X99572150Y-86202850D01*
X99462882Y-86122207D01*
X99462880Y-86122206D01*
X99334700Y-86077353D01*
X99304270Y-86074500D01*
X99304266Y-86074500D01*
X98695734Y-86074500D01*
X98695730Y-86074500D01*
X98665300Y-86077353D01*
X98665298Y-86077353D01*
X98537119Y-86122206D01*
X98537117Y-86122207D01*
X98427850Y-86202850D01*
X98347207Y-86312117D01*
X98324842Y-86376033D01*
X98284120Y-86432808D01*
X98219167Y-86458555D01*
X98150605Y-86445098D01*
X98100203Y-86396711D01*
X98090095Y-86374081D01*
X98034358Y-86205880D01*
X98034356Y-86205875D01*
X97942315Y-86056654D01*
X97818344Y-85932683D01*
X97812677Y-85928202D01*
X97814237Y-85926227D01*
X97775437Y-85883088D01*
X97764217Y-85814125D01*
X97792062Y-85750044D01*
X97850131Y-85711189D01*
X97887260Y-85705500D01*
X106375991Y-85705500D01*
X106376000Y-85705500D01*
X106419684Y-85700803D01*
X106448875Y-85694452D01*
X106471174Y-85689602D01*
X106471190Y-85689598D01*
X106471195Y-85689597D01*
X106481373Y-85687110D01*
X106562085Y-85644100D01*
X106614889Y-85598345D01*
X106632843Y-85580754D01*
X106677490Y-85500937D01*
X106697175Y-85433898D01*
X106705500Y-85376000D01*
X106705500Y-80571254D01*
X106725185Y-80504215D01*
X106777989Y-80458460D01*
X106847147Y-80448516D01*
X106910703Y-80477541D01*
X106917181Y-80483573D01*
X107763181Y-81329573D01*
X107796666Y-81390896D01*
X107799500Y-81417254D01*
X107799500Y-83575500D01*
X107779815Y-83642539D01*
X107727011Y-83688294D01*
X107675500Y-83699500D01*
X107430247Y-83699500D01*
X107371770Y-83711131D01*
X107371769Y-83711132D01*
X107305447Y-83755447D01*
X107261132Y-83821769D01*
X107261131Y-83821770D01*
X107249500Y-83880247D01*
X107249500Y-85919752D01*
X107261131Y-85978229D01*
X107261132Y-85978230D01*
X107305447Y-86044552D01*
X107371769Y-86088867D01*
X107371770Y-86088868D01*
X107430247Y-86100499D01*
X107430250Y-86100500D01*
X107430252Y-86100500D01*
X107675500Y-86100500D01*
X107742539Y-86120185D01*
X107788294Y-86172989D01*
X107799500Y-86224500D01*
X107799500Y-87052726D01*
X107826793Y-87154589D01*
X107834076Y-87167203D01*
X107879520Y-87245913D01*
X107879521Y-87245914D01*
X107879522Y-87245915D01*
X108875179Y-88241571D01*
X108875189Y-88241582D01*
X108879519Y-88245912D01*
X108879520Y-88245913D01*
X108954087Y-88320480D01*
X109014766Y-88355513D01*
X109014767Y-88355513D01*
X109014767Y-88355514D01*
X109045407Y-88373204D01*
X109045410Y-88373206D01*
X109045412Y-88373206D01*
X109045413Y-88373207D01*
X109147273Y-88400501D01*
X109147275Y-88400501D01*
X109260323Y-88400501D01*
X109260339Y-88400500D01*
X113782745Y-88400500D01*
X113849784Y-88420185D01*
X113870426Y-88436819D01*
X115163181Y-89729573D01*
X115196666Y-89790896D01*
X115199500Y-89817254D01*
X115199500Y-92982273D01*
X115199500Y-93087727D01*
X115209219Y-93124000D01*
X115226793Y-93189589D01*
X115232804Y-93200000D01*
X115279520Y-93280913D01*
X115279522Y-93280915D01*
X117116426Y-95117819D01*
X117149911Y-95179142D01*
X117144927Y-95248834D01*
X117103055Y-95304767D01*
X117037591Y-95329184D01*
X117028745Y-95329500D01*
X115360247Y-95329500D01*
X115301770Y-95341131D01*
X115301769Y-95341132D01*
X115235447Y-95385447D01*
X115191132Y-95451769D01*
X115191131Y-95451770D01*
X115179500Y-95510247D01*
X115179500Y-97249752D01*
X115191131Y-97308229D01*
X115191132Y-97308230D01*
X115235447Y-97374552D01*
X115301769Y-97418867D01*
X115301770Y-97418868D01*
X115360247Y-97430499D01*
X115360250Y-97430500D01*
X115360252Y-97430500D01*
X117099750Y-97430500D01*
X117099751Y-97430499D01*
X117114568Y-97427552D01*
X117158229Y-97418868D01*
X117158229Y-97418867D01*
X117158231Y-97418867D01*
X117224552Y-97374552D01*
X117268867Y-97308231D01*
X117268867Y-97308229D01*
X117268868Y-97308229D01*
X117280499Y-97249752D01*
X117280500Y-97249750D01*
X117280500Y-95581255D01*
X117300185Y-95514216D01*
X117352989Y-95468461D01*
X117422147Y-95458517D01*
X117485703Y-95487542D01*
X117492181Y-95493574D01*
X117792397Y-95793790D01*
X117825882Y-95855113D01*
X117820898Y-95924805D01*
X117814075Y-95939922D01*
X117794770Y-95976040D01*
X117794768Y-95976045D01*
X117794768Y-95976046D01*
X117793417Y-95980499D01*
X117734699Y-96174067D01*
X117714417Y-96380000D01*
X117734699Y-96585932D01*
X117734700Y-96585934D01*
X117794768Y-96783954D01*
X117892315Y-96966450D01*
X117899068Y-96974678D01*
X118023589Y-97126410D01*
X118103550Y-97192031D01*
X118183550Y-97257685D01*
X118366046Y-97355232D01*
X118564066Y-97415300D01*
X118564065Y-97415300D01*
X118582529Y-97417118D01*
X118770000Y-97435583D01*
X118975934Y-97415300D01*
X119173954Y-97355232D01*
X119356450Y-97257685D01*
X119516410Y-97126410D01*
X119647685Y-96966450D01*
X119745232Y-96783954D01*
X119805300Y-96585934D01*
X119825583Y-96380000D01*
X119805300Y-96174066D01*
X119745232Y-95976046D01*
X119647685Y-95793550D01*
X119595110Y-95729487D01*
X119516410Y-95633589D01*
X119373509Y-95516315D01*
X119356450Y-95502315D01*
X119173954Y-95404768D01*
X118975934Y-95344700D01*
X118975932Y-95344699D01*
X118975934Y-95344699D01*
X118770000Y-95324417D01*
X118564065Y-95344699D01*
X118558093Y-95345888D01*
X118557657Y-95343701D01*
X118497764Y-95344207D01*
X118444013Y-95312620D01*
X116036819Y-92905426D01*
X116003334Y-92844103D01*
X116000500Y-92817745D01*
X116000500Y-90000000D01*
X118044901Y-90000000D01*
X118063252Y-90186331D01*
X118063253Y-90186333D01*
X118117604Y-90365502D01*
X118205862Y-90530623D01*
X118205864Y-90530626D01*
X118324642Y-90675357D01*
X118469373Y-90794135D01*
X118469376Y-90794137D01*
X118634497Y-90882395D01*
X118634499Y-90882396D01*
X118813666Y-90936746D01*
X118813668Y-90936747D01*
X118820908Y-90937460D01*
X119000000Y-90955099D01*
X119186331Y-90936747D01*
X119365501Y-90882396D01*
X119530625Y-90794136D01*
X119675357Y-90675357D01*
X119794136Y-90530625D01*
X119882396Y-90365501D01*
X119936747Y-90186331D01*
X119955099Y-90000000D01*
X119936747Y-89813669D01*
X119882396Y-89634499D01*
X119835773Y-89547273D01*
X119794137Y-89469376D01*
X119794135Y-89469373D01*
X119675357Y-89324642D01*
X119530626Y-89205864D01*
X119530623Y-89205862D01*
X119365502Y-89117604D01*
X119186333Y-89063253D01*
X119186331Y-89063252D01*
X119000000Y-89044901D01*
X118813668Y-89063252D01*
X118813666Y-89063253D01*
X118634497Y-89117604D01*
X118469376Y-89205862D01*
X118469373Y-89205864D01*
X118324642Y-89324642D01*
X118205864Y-89469373D01*
X118205862Y-89469376D01*
X118117604Y-89634497D01*
X118063253Y-89813666D01*
X118063252Y-89813668D01*
X118044901Y-90000000D01*
X116000500Y-90000000D01*
X116000500Y-89662729D01*
X116000501Y-89662716D01*
X116000501Y-89547274D01*
X115973206Y-89445410D01*
X115973204Y-89445407D01*
X115956832Y-89417050D01*
X115956831Y-89417048D01*
X115920484Y-89354093D01*
X115920481Y-89354089D01*
X115920480Y-89354087D01*
X115845913Y-89279520D01*
X115845912Y-89279519D01*
X115841582Y-89275189D01*
X115841571Y-89275179D01*
X114245915Y-87679522D01*
X114245914Y-87679521D01*
X114245913Y-87679520D01*
X114200250Y-87653156D01*
X114154589Y-87626793D01*
X114103657Y-87613146D01*
X114052727Y-87599500D01*
X114052726Y-87599500D01*
X109417254Y-87599500D01*
X109350215Y-87579815D01*
X109329573Y-87563181D01*
X108636819Y-86870426D01*
X108603334Y-86809103D01*
X108600500Y-86782745D01*
X108600500Y-86224500D01*
X108620185Y-86157461D01*
X108672989Y-86111706D01*
X108724500Y-86100500D01*
X108969750Y-86100500D01*
X108969751Y-86100499D01*
X108985569Y-86097353D01*
X109028229Y-86088868D01*
X109028229Y-86088867D01*
X109028231Y-86088867D01*
X109094552Y-86044552D01*
X109094551Y-86044552D01*
X109104707Y-86037767D01*
X109107209Y-86041512D01*
X109147087Y-86019594D01*
X109216792Y-86024386D01*
X109272841Y-86066103D01*
X109289961Y-86097353D01*
X109306646Y-86142087D01*
X109306649Y-86142093D01*
X109392809Y-86257187D01*
X109392812Y-86257190D01*
X109507906Y-86343350D01*
X109507913Y-86343354D01*
X109642620Y-86393596D01*
X109642627Y-86393598D01*
X109702155Y-86399999D01*
X109702172Y-86400000D01*
X110250000Y-86400000D01*
X110250000Y-83400000D01*
X109918070Y-83400000D01*
X109851031Y-83380315D01*
X109805276Y-83327511D01*
X109795332Y-83258353D01*
X109818300Y-83202366D01*
X109822150Y-83197150D01*
X109902793Y-83087882D01*
X109925219Y-83023790D01*
X109947646Y-82959701D01*
X109947646Y-82959699D01*
X109950500Y-82929269D01*
X109950500Y-81870730D01*
X110449500Y-81870730D01*
X110449500Y-82929269D01*
X110452353Y-82959699D01*
X110452353Y-82959701D01*
X110492129Y-83073371D01*
X110497207Y-83087882D01*
X110577850Y-83197150D01*
X110687118Y-83277793D01*
X110694595Y-83283311D01*
X110693232Y-83285156D01*
X110734012Y-83324839D01*
X110750000Y-83385744D01*
X110750000Y-86400000D01*
X111297828Y-86400000D01*
X111297844Y-86399999D01*
X111357372Y-86393598D01*
X111357379Y-86393596D01*
X111492086Y-86343354D01*
X111492093Y-86343350D01*
X111607187Y-86257190D01*
X111607190Y-86257187D01*
X111693350Y-86142093D01*
X111693355Y-86142084D01*
X111710038Y-86097355D01*
X111751908Y-86041421D01*
X111817372Y-86017003D01*
X111885646Y-86031854D01*
X111894710Y-86038639D01*
X111895293Y-86037767D01*
X111971769Y-86088867D01*
X111971770Y-86088868D01*
X112030247Y-86100499D01*
X112030250Y-86100500D01*
X112030252Y-86100500D01*
X113569750Y-86100500D01*
X113569751Y-86100499D01*
X113585569Y-86097353D01*
X113628229Y-86088868D01*
X113628229Y-86088867D01*
X113628231Y-86088867D01*
X113694552Y-86044552D01*
X113738867Y-85978231D01*
X113738867Y-85978229D01*
X113738868Y-85978229D01*
X113750499Y-85919752D01*
X113750500Y-85919750D01*
X113750500Y-83880249D01*
X113750499Y-83880247D01*
X113738868Y-83821770D01*
X113738867Y-83821769D01*
X113694552Y-83755447D01*
X113628230Y-83711132D01*
X113628229Y-83711131D01*
X113569752Y-83699500D01*
X113569748Y-83699500D01*
X113199500Y-83699500D01*
X113132461Y-83679815D01*
X113086706Y-83627011D01*
X113075500Y-83575500D01*
X113075500Y-82990594D01*
X113084035Y-82951363D01*
X113082667Y-82950962D01*
X113085161Y-82942464D01*
X113085165Y-82942457D01*
X113099041Y-82845946D01*
X114649500Y-82845946D01*
X114649500Y-83154053D01*
X114649501Y-83154069D01*
X114689717Y-83459542D01*
X114769464Y-83757162D01*
X114887376Y-84041826D01*
X114887381Y-84041837D01*
X114975379Y-84194252D01*
X115041438Y-84308670D01*
X115041440Y-84308673D01*
X115041441Y-84308674D01*
X115229007Y-84553115D01*
X115229013Y-84553122D01*
X115446877Y-84770986D01*
X115446884Y-84770992D01*
X115590424Y-84881134D01*
X115691330Y-84958562D01*
X115834718Y-85041347D01*
X115958162Y-85112618D01*
X115958167Y-85112620D01*
X115958170Y-85112622D01*
X116242836Y-85230535D01*
X116540456Y-85310282D01*
X116845940Y-85350500D01*
X116845947Y-85350500D01*
X117154053Y-85350500D01*
X117154060Y-85350500D01*
X117459544Y-85310282D01*
X117757164Y-85230535D01*
X118041830Y-85112622D01*
X118308670Y-84958562D01*
X118553117Y-84770991D01*
X118770991Y-84553117D01*
X118958562Y-84308670D01*
X119112622Y-84041830D01*
X119230535Y-83757164D01*
X119310282Y-83459544D01*
X119350500Y-83154060D01*
X119350500Y-82845940D01*
X119310282Y-82540456D01*
X119230535Y-82242836D01*
X119112622Y-81958170D01*
X119112620Y-81958167D01*
X119112618Y-81958162D01*
X119044570Y-81840300D01*
X118958562Y-81691330D01*
X118828789Y-81522207D01*
X118770992Y-81446884D01*
X118770986Y-81446877D01*
X118553122Y-81229013D01*
X118553115Y-81229007D01*
X118308674Y-81041441D01*
X118308673Y-81041440D01*
X118308670Y-81041438D01*
X118175368Y-80964476D01*
X118041837Y-80887381D01*
X118041826Y-80887376D01*
X117757162Y-80769464D01*
X117459542Y-80689717D01*
X117154069Y-80649501D01*
X117154066Y-80649500D01*
X117154060Y-80649500D01*
X116845940Y-80649500D01*
X116845934Y-80649500D01*
X116845930Y-80649501D01*
X116540457Y-80689717D01*
X116242837Y-80769464D01*
X115958173Y-80887376D01*
X115958162Y-80887381D01*
X115691325Y-81041441D01*
X115446884Y-81229007D01*
X115446877Y-81229013D01*
X115229013Y-81446877D01*
X115229007Y-81446884D01*
X115041441Y-81691325D01*
X114887381Y-81958162D01*
X114887376Y-81958173D01*
X114769464Y-82242837D01*
X114689717Y-82540457D01*
X114649501Y-82845930D01*
X114649500Y-82845946D01*
X113099041Y-82845946D01*
X113105647Y-82800000D01*
X113085165Y-82657543D01*
X113025377Y-82526627D01*
X112931128Y-82417857D01*
X112810053Y-82340047D01*
X112810051Y-82340046D01*
X112810049Y-82340045D01*
X112810050Y-82340045D01*
X112671963Y-82299500D01*
X112671961Y-82299500D01*
X112540478Y-82299500D01*
X112473439Y-82279815D01*
X112452800Y-82263184D01*
X112356058Y-82166443D01*
X112355003Y-82166006D01*
X112254800Y-82124500D01*
X111974500Y-82124500D01*
X111907461Y-82104815D01*
X111861706Y-82052011D01*
X111850500Y-82000500D01*
X111850500Y-81870730D01*
X111847646Y-81840300D01*
X111847646Y-81840298D01*
X111802793Y-81712119D01*
X111802792Y-81712117D01*
X111799500Y-81707656D01*
X111722150Y-81602850D01*
X111612882Y-81522207D01*
X111612880Y-81522206D01*
X111484700Y-81477353D01*
X111454270Y-81474500D01*
X111454266Y-81474500D01*
X110845734Y-81474500D01*
X110845730Y-81474500D01*
X110815300Y-81477353D01*
X110815298Y-81477353D01*
X110687119Y-81522206D01*
X110687117Y-81522207D01*
X110577850Y-81602850D01*
X110497207Y-81712117D01*
X110497206Y-81712119D01*
X110452353Y-81840298D01*
X110452353Y-81840300D01*
X110449500Y-81870730D01*
X109950500Y-81870730D01*
X109947646Y-81840300D01*
X109947646Y-81840298D01*
X109902793Y-81712119D01*
X109902792Y-81712117D01*
X109899500Y-81707656D01*
X109822150Y-81602850D01*
X109712882Y-81522207D01*
X109712880Y-81522206D01*
X109584700Y-81477353D01*
X109554270Y-81474500D01*
X109554266Y-81474500D01*
X108945734Y-81474500D01*
X108945730Y-81474500D01*
X108915300Y-81477353D01*
X108915298Y-81477353D01*
X108787116Y-81522207D01*
X108782434Y-81524682D01*
X108713964Y-81538600D01*
X108648840Y-81513290D01*
X108607737Y-81456789D01*
X108600500Y-81415048D01*
X108600500Y-81262729D01*
X108600501Y-81262716D01*
X108600501Y-81147274D01*
X108597127Y-81134682D01*
X108573207Y-81045413D01*
X108526478Y-80964476D01*
X108520480Y-80954087D01*
X108445913Y-80879520D01*
X108445912Y-80879519D01*
X108441582Y-80875189D01*
X108441571Y-80875179D01*
X107078574Y-79512181D01*
X107045089Y-79450858D01*
X107050073Y-79381166D01*
X107091945Y-79325233D01*
X107157409Y-79300816D01*
X107166255Y-79300500D01*
X114452405Y-79300500D01*
X114497689Y-79300500D01*
X114502325Y-79300587D01*
G37*
G04 #@! TD.AperFunction*
G04 #@! TA.AperFunction,Conductor*
G36*
X96214458Y-94662081D02*
G01*
X96235100Y-94678715D01*
X97088181Y-95531796D01*
X97121666Y-95593119D01*
X97124500Y-95619477D01*
X97124500Y-96027327D01*
X97115062Y-96074778D01*
X97114033Y-96077261D01*
X97099500Y-96150323D01*
X97099500Y-96974678D01*
X97114032Y-97047735D01*
X97114033Y-97047739D01*
X97132405Y-97075235D01*
X97169399Y-97130601D01*
X97238099Y-97176504D01*
X97252260Y-97185966D01*
X97252264Y-97185967D01*
X97325321Y-97200499D01*
X97325324Y-97200500D01*
X97325326Y-97200500D01*
X97474676Y-97200500D01*
X97474677Y-97200499D01*
X97499029Y-97195655D01*
X97547732Y-97185968D01*
X97547733Y-97185967D01*
X97547740Y-97185966D01*
X97547745Y-97185962D01*
X97552539Y-97183977D01*
X97622008Y-97176504D01*
X97647461Y-97183977D01*
X97652256Y-97185963D01*
X97652260Y-97185966D01*
X97652264Y-97185966D01*
X97652267Y-97185968D01*
X97725321Y-97200499D01*
X97725324Y-97200500D01*
X97725326Y-97200500D01*
X97874676Y-97200500D01*
X97874677Y-97200499D01*
X97899029Y-97195655D01*
X97947732Y-97185968D01*
X97947733Y-97185967D01*
X97947740Y-97185966D01*
X97947745Y-97185962D01*
X97952539Y-97183977D01*
X98022008Y-97176504D01*
X98047461Y-97183977D01*
X98052256Y-97185963D01*
X98052260Y-97185966D01*
X98052264Y-97185966D01*
X98052267Y-97185968D01*
X98125321Y-97200499D01*
X98125324Y-97200500D01*
X98125326Y-97200500D01*
X98274676Y-97200500D01*
X98274677Y-97200499D01*
X98299029Y-97195655D01*
X98347732Y-97185968D01*
X98347733Y-97185967D01*
X98347740Y-97185966D01*
X98347745Y-97185962D01*
X98352539Y-97183977D01*
X98422008Y-97176504D01*
X98447461Y-97183977D01*
X98452256Y-97185963D01*
X98452260Y-97185966D01*
X98452264Y-97185966D01*
X98452267Y-97185968D01*
X98525321Y-97200499D01*
X98525324Y-97200500D01*
X98525326Y-97200500D01*
X98674676Y-97200500D01*
X98674677Y-97200499D01*
X98699029Y-97195655D01*
X98747732Y-97185968D01*
X98747733Y-97185967D01*
X98747740Y-97185966D01*
X98747745Y-97185962D01*
X98752539Y-97183977D01*
X98822008Y-97176504D01*
X98847461Y-97183977D01*
X98852256Y-97185963D01*
X98852260Y-97185966D01*
X98852264Y-97185966D01*
X98852267Y-97185968D01*
X98925321Y-97200499D01*
X98925324Y-97200500D01*
X98925326Y-97200500D01*
X99074676Y-97200500D01*
X99074677Y-97200499D01*
X99099029Y-97195655D01*
X99147732Y-97185968D01*
X99147733Y-97185967D01*
X99147740Y-97185966D01*
X99147745Y-97185962D01*
X99152539Y-97183977D01*
X99222008Y-97176504D01*
X99247461Y-97183977D01*
X99252256Y-97185963D01*
X99252260Y-97185966D01*
X99252264Y-97185966D01*
X99252267Y-97185968D01*
X99325321Y-97200499D01*
X99325324Y-97200500D01*
X99325326Y-97200500D01*
X99475667Y-97200500D01*
X99485844Y-97200000D01*
X99500000Y-97200000D01*
X99500000Y-97500000D01*
X97100000Y-97500000D01*
X96985842Y-97500000D01*
X96975664Y-97499500D01*
X96974674Y-97499500D01*
X96150326Y-97499500D01*
X96149336Y-97499500D01*
X96139158Y-97500000D01*
X94690977Y-97500000D01*
X94623938Y-97480315D01*
X94603296Y-97463681D01*
X93849615Y-96710000D01*
X94395496Y-96710000D01*
X94437968Y-96856195D01*
X94520278Y-96995374D01*
X94520285Y-96995383D01*
X94634616Y-97109714D01*
X94634625Y-97109721D01*
X94773804Y-97192031D01*
X94929089Y-97237145D01*
X94950000Y-97238789D01*
X95450000Y-97238789D01*
X95470910Y-97237145D01*
X95626195Y-97192031D01*
X95765374Y-97109721D01*
X95765383Y-97109714D01*
X95879714Y-96995383D01*
X95879721Y-96995374D01*
X95962031Y-96856195D01*
X96004504Y-96710000D01*
X95450000Y-96710000D01*
X95450000Y-97238789D01*
X94950000Y-97238789D01*
X94950000Y-96710000D01*
X94395496Y-96710000D01*
X93849615Y-96710000D01*
X93534951Y-96395336D01*
X93501466Y-96334013D01*
X93499894Y-96290011D01*
X93505647Y-96250000D01*
X93485165Y-96107543D01*
X93451150Y-96033062D01*
X93441207Y-95963907D01*
X93470231Y-95900351D01*
X93529009Y-95862576D01*
X93598880Y-95862576D01*
X93728038Y-95900500D01*
X93728039Y-95900500D01*
X93871962Y-95900500D01*
X93871962Y-95900499D01*
X93992636Y-95865067D01*
X94010050Y-95859954D01*
X94010050Y-95859953D01*
X94010053Y-95859953D01*
X94131128Y-95782143D01*
X94186451Y-95718296D01*
X94245228Y-95680523D01*
X94280163Y-95675500D01*
X94470040Y-95675500D01*
X94537079Y-95695185D01*
X94582834Y-95747989D01*
X94592778Y-95817147D01*
X94563753Y-95880703D01*
X94557721Y-95887181D01*
X94520285Y-95924616D01*
X94520278Y-95924625D01*
X94437968Y-96063804D01*
X94395496Y-96210000D01*
X96004504Y-96210000D01*
X95962031Y-96063804D01*
X95879721Y-95924625D01*
X95879714Y-95924616D01*
X95765381Y-95810283D01*
X95759217Y-95805502D01*
X95760733Y-95803547D01*
X95721363Y-95761378D01*
X95708862Y-95692635D01*
X95709226Y-95689576D01*
X95710500Y-95679901D01*
X95710499Y-95320100D01*
X95703972Y-95270513D01*
X95653224Y-95161684D01*
X95568316Y-95076776D01*
X95459487Y-95026028D01*
X95459485Y-95026027D01*
X95459486Y-95026027D01*
X95409901Y-95019500D01*
X94990105Y-95019500D01*
X94974386Y-95021569D01*
X94940513Y-95026028D01*
X94940511Y-95026029D01*
X94940509Y-95026029D01*
X94831683Y-95076776D01*
X94820279Y-95088181D01*
X94758956Y-95121666D01*
X94732598Y-95124500D01*
X94280163Y-95124500D01*
X94213124Y-95104815D01*
X94186450Y-95081703D01*
X94131128Y-95017857D01*
X94010053Y-94940047D01*
X94010051Y-94940046D01*
X94010049Y-94940045D01*
X94010050Y-94940045D01*
X93871963Y-94899500D01*
X93871961Y-94899500D01*
X93728039Y-94899500D01*
X93728036Y-94899500D01*
X93589949Y-94940045D01*
X93468873Y-95017856D01*
X93468872Y-95017856D01*
X93468872Y-95017857D01*
X93466774Y-95020278D01*
X93374623Y-95126626D01*
X93374622Y-95126628D01*
X93314834Y-95257543D01*
X93294353Y-95400000D01*
X93314834Y-95542456D01*
X93348848Y-95616934D01*
X93358792Y-95686093D01*
X93329767Y-95749648D01*
X93270989Y-95787423D01*
X93201120Y-95787423D01*
X93071963Y-95749500D01*
X93071961Y-95749500D01*
X92928039Y-95749500D01*
X92928036Y-95749500D01*
X92789949Y-95790045D01*
X92668873Y-95867856D01*
X92574623Y-95976626D01*
X92574622Y-95976628D01*
X92514834Y-96107543D01*
X92507804Y-96156442D01*
X92478778Y-96219997D01*
X92420000Y-96257771D01*
X92350132Y-96257771D01*
X92321963Y-96249500D01*
X92321961Y-96249500D01*
X92178039Y-96249500D01*
X92178036Y-96249500D01*
X92039949Y-96290045D01*
X91918873Y-96367856D01*
X91824623Y-96476626D01*
X91824622Y-96476628D01*
X91764834Y-96607543D01*
X91757804Y-96656442D01*
X91728778Y-96719997D01*
X91670000Y-96757771D01*
X91600132Y-96757771D01*
X91571963Y-96749500D01*
X91571961Y-96749500D01*
X91428039Y-96749500D01*
X91428036Y-96749500D01*
X91289949Y-96790045D01*
X91168873Y-96867856D01*
X91074623Y-96976626D01*
X91074622Y-96976628D01*
X91014834Y-97107543D01*
X91007804Y-97156442D01*
X90978778Y-97219997D01*
X90920000Y-97257771D01*
X90850132Y-97257771D01*
X90821963Y-97249500D01*
X90821961Y-97249500D01*
X90678039Y-97249500D01*
X90678036Y-97249500D01*
X90539949Y-97290045D01*
X90418873Y-97367856D01*
X90418872Y-97367856D01*
X90418872Y-97367857D01*
X90354198Y-97442496D01*
X90341454Y-97457203D01*
X90282676Y-97494977D01*
X90247741Y-97500000D01*
X90007853Y-97500000D01*
X89940814Y-97480315D01*
X89905963Y-97442496D01*
X89904280Y-97443653D01*
X89900342Y-97437919D01*
X89900340Y-97437915D01*
X89854585Y-97385111D01*
X89854579Y-97385104D01*
X89836997Y-97367160D01*
X89836996Y-97367159D01*
X89836994Y-97367157D01*
X89836992Y-97367156D01*
X89836990Y-97367154D01*
X89757180Y-97322511D01*
X89757175Y-97322509D01*
X89690143Y-97302826D01*
X89690139Y-97302825D01*
X89690138Y-97302825D01*
X89632240Y-97294500D01*
X88999500Y-97294500D01*
X88932461Y-97274815D01*
X88886706Y-97222011D01*
X88875500Y-97170500D01*
X88875500Y-96745201D01*
X88875500Y-96745200D01*
X88833557Y-96643942D01*
X88756058Y-96566443D01*
X88106249Y-95916634D01*
X88072764Y-95855311D01*
X88077748Y-95785619D01*
X88112740Y-95735229D01*
X88114889Y-95733368D01*
X88132843Y-95715777D01*
X88177490Y-95635960D01*
X88197175Y-95568921D01*
X88205500Y-95511023D01*
X88205500Y-94766396D01*
X88225185Y-94699357D01*
X88277989Y-94653602D01*
X88329500Y-94642396D01*
X96147419Y-94642396D01*
X96214458Y-94662081D01*
G37*
G04 #@! TD.AperFunction*
G04 #@! TA.AperFunction,Conductor*
G36*
X97042539Y-102920185D02*
G01*
X97088294Y-102972989D01*
X97099500Y-103024500D01*
X97099500Y-103849678D01*
X97114032Y-103922737D01*
X97115059Y-103925215D01*
X97124500Y-103972672D01*
X97124500Y-104034521D01*
X97104815Y-104101560D01*
X97088181Y-104122202D01*
X96516633Y-104693749D01*
X96455310Y-104727234D01*
X96385618Y-104722250D01*
X96335247Y-104687280D01*
X96333365Y-104685108D01*
X96315779Y-104667160D01*
X96315778Y-104667159D01*
X96315776Y-104667157D01*
X96315774Y-104667156D01*
X96315772Y-104667154D01*
X96235962Y-104622511D01*
X96235957Y-104622509D01*
X96168925Y-104602826D01*
X96168921Y-104602825D01*
X96168920Y-104602825D01*
X96111022Y-104594500D01*
X95812164Y-104594500D01*
X95812161Y-104594500D01*
X95797505Y-104595023D01*
X95779856Y-104596285D01*
X95709147Y-104614333D01*
X95709143Y-104614334D01*
X95645609Y-104643349D01*
X95645608Y-104643349D01*
X95623410Y-104655177D01*
X95623403Y-104655182D01*
X95558084Y-104719183D01*
X95542754Y-104743039D01*
X95489950Y-104788794D01*
X95438438Y-104800000D01*
X95363449Y-104800000D01*
X95296410Y-104780315D01*
X95261559Y-104742496D01*
X95259876Y-104743653D01*
X95255938Y-104737919D01*
X95255936Y-104737915D01*
X95217666Y-104693749D01*
X95210175Y-104685104D01*
X95192593Y-104667160D01*
X95192592Y-104667159D01*
X95192590Y-104667157D01*
X95192588Y-104667156D01*
X95192586Y-104667154D01*
X95112776Y-104622511D01*
X95112771Y-104622509D01*
X95045739Y-104602826D01*
X95045735Y-104602825D01*
X95045734Y-104602825D01*
X94987836Y-104594500D01*
X93868740Y-104594500D01*
X93811628Y-104602597D01*
X93811625Y-104602597D01*
X93811622Y-104602598D01*
X93811619Y-104602598D01*
X93811613Y-104602600D01*
X93745424Y-104621751D01*
X93745423Y-104621752D01*
X93745412Y-104621755D01*
X93745408Y-104621757D01*
X93743280Y-104622512D01*
X93722480Y-104629890D01*
X93648285Y-104683363D01*
X93602116Y-104735804D01*
X93599437Y-104739325D01*
X93599133Y-104739094D01*
X93587693Y-104753224D01*
X93587556Y-104753362D01*
X93526356Y-104787070D01*
X93499557Y-104790000D01*
X93100540Y-104790000D01*
X93033501Y-104770315D01*
X93002105Y-104739107D01*
X93001056Y-104739901D01*
X92998420Y-104736416D01*
X92998419Y-104736415D01*
X92998418Y-104736413D01*
X92955503Y-104687280D01*
X92953069Y-104684493D01*
X92936017Y-104667160D01*
X92936016Y-104667159D01*
X92936014Y-104667157D01*
X92936012Y-104667155D01*
X92936011Y-104667155D01*
X92869390Y-104629890D01*
X92856197Y-104622510D01*
X92856196Y-104622509D01*
X92856195Y-104622509D01*
X92789163Y-104602826D01*
X92789159Y-104602825D01*
X92789158Y-104602825D01*
X92731260Y-104594500D01*
X92731256Y-104594500D01*
X90329500Y-104594500D01*
X90262461Y-104574815D01*
X90216706Y-104522011D01*
X90205500Y-104470500D01*
X90205500Y-104290000D01*
X92495496Y-104290000D01*
X93050000Y-104290000D01*
X93550000Y-104290000D01*
X94104504Y-104290000D01*
X94062031Y-104143804D01*
X93979721Y-104004625D01*
X93979714Y-104004616D01*
X93865383Y-103890285D01*
X93865374Y-103890278D01*
X93726195Y-103807968D01*
X93726190Y-103807966D01*
X93570918Y-103762855D01*
X93570912Y-103762854D01*
X93550000Y-103761209D01*
X93550000Y-104290000D01*
X93050000Y-104290000D01*
X93050000Y-103761210D01*
X93049999Y-103761209D01*
X93029087Y-103762854D01*
X93029081Y-103762855D01*
X92873809Y-103807966D01*
X92873804Y-103807968D01*
X92734625Y-103890278D01*
X92734616Y-103890285D01*
X92620285Y-104004616D01*
X92620278Y-104004625D01*
X92537968Y-104143804D01*
X92495496Y-104290000D01*
X90205500Y-104290000D01*
X90205500Y-103098220D01*
X90225185Y-103031181D01*
X90277989Y-102985426D01*
X90335931Y-102977094D01*
X90335931Y-102975500D01*
X90347022Y-102975500D01*
X90347147Y-102975482D01*
X90347252Y-102975500D01*
X90348144Y-102975500D01*
X96517299Y-102975500D01*
X96517300Y-102975500D01*
X96618558Y-102933557D01*
X96618562Y-102933552D01*
X96628712Y-102926772D01*
X96630044Y-102928765D01*
X96676619Y-102903334D01*
X96702977Y-102900500D01*
X96975500Y-102900500D01*
X97042539Y-102920185D01*
G37*
G04 #@! TD.AperFunction*
G04 #@! TA.AperFunction,Conductor*
G36*
X95568039Y-100895185D02*
G01*
X95613794Y-100947989D01*
X95625000Y-100999500D01*
X95625000Y-101000500D01*
X95605315Y-101067539D01*
X95552511Y-101113294D01*
X95501000Y-101124500D01*
X94998999Y-101124500D01*
X94931960Y-101104815D01*
X94886205Y-101052011D01*
X94874999Y-101000500D01*
X94874999Y-100999500D01*
X94894684Y-100932461D01*
X94947488Y-100886706D01*
X94998999Y-100875500D01*
X95501000Y-100875500D01*
X95568039Y-100895185D01*
G37*
G04 #@! TD.AperFunction*
G04 #@! TA.AperFunction,Conductor*
G36*
X97335784Y-79320185D02*
G01*
X97381539Y-79372989D01*
X97391483Y-79442147D01*
X97362458Y-79505703D01*
X97356426Y-79512181D01*
X96661763Y-80206842D01*
X96600440Y-80240327D01*
X96538090Y-80237822D01*
X96395934Y-80194700D01*
X96395932Y-80194699D01*
X96395934Y-80194699D01*
X96190000Y-80174417D01*
X95984067Y-80194699D01*
X95786043Y-80254769D01*
X95675898Y-80313643D01*
X95603550Y-80352315D01*
X95603548Y-80352316D01*
X95603547Y-80352317D01*
X95443589Y-80483589D01*
X95312317Y-80643547D01*
X95312315Y-80643550D01*
X95273643Y-80715898D01*
X95214769Y-80826043D01*
X95154699Y-81024067D01*
X95134417Y-81230000D01*
X95154699Y-81435932D01*
X95167264Y-81477354D01*
X95214768Y-81633954D01*
X95312315Y-81816450D01*
X95312317Y-81816452D01*
X95443589Y-81976410D01*
X95540209Y-82055702D01*
X95603550Y-82107685D01*
X95751267Y-82186642D01*
X95801111Y-82235605D01*
X95816571Y-82303743D01*
X95792739Y-82369422D01*
X95737181Y-82411791D01*
X95692813Y-82420000D01*
X95292155Y-82420000D01*
X95232627Y-82426401D01*
X95232620Y-82426403D01*
X95097913Y-82476645D01*
X95097906Y-82476649D01*
X94982812Y-82562809D01*
X94982809Y-82562812D01*
X94896649Y-82677906D01*
X94896645Y-82677913D01*
X94846403Y-82812620D01*
X94846401Y-82812627D01*
X94840000Y-82872155D01*
X94840000Y-83520000D01*
X95756988Y-83520000D01*
X95724075Y-83577007D01*
X95690000Y-83704174D01*
X95690000Y-83835826D01*
X95724075Y-83962993D01*
X95756988Y-84020000D01*
X94840000Y-84020000D01*
X94840000Y-84667844D01*
X94846401Y-84727372D01*
X94846403Y-84727379D01*
X94896645Y-84862086D01*
X94896649Y-84862093D01*
X94982809Y-84977187D01*
X94982812Y-84977190D01*
X95097906Y-85063350D01*
X95097913Y-85063354D01*
X95232620Y-85113596D01*
X95232627Y-85113598D01*
X95292155Y-85119999D01*
X95292172Y-85120000D01*
X95940000Y-85120000D01*
X95940000Y-84203012D01*
X95997007Y-84235925D01*
X96124174Y-84270000D01*
X96255826Y-84270000D01*
X96382993Y-84235925D01*
X96440000Y-84203012D01*
X96440000Y-85120000D01*
X97087828Y-85120000D01*
X97087844Y-85119999D01*
X97147372Y-85113598D01*
X97147379Y-85113596D01*
X97282086Y-85063354D01*
X97282093Y-85063350D01*
X97397187Y-84977190D01*
X97397190Y-84977187D01*
X97483350Y-84862093D01*
X97483354Y-84862086D01*
X97533596Y-84727379D01*
X97533598Y-84727372D01*
X97539999Y-84667844D01*
X97540000Y-84667827D01*
X97540000Y-84267186D01*
X97559685Y-84200147D01*
X97612489Y-84154392D01*
X97681647Y-84144448D01*
X97745203Y-84173473D01*
X97773356Y-84208729D01*
X97852315Y-84356450D01*
X97852317Y-84356452D01*
X97983589Y-84516410D01*
X98061834Y-84580623D01*
X98143550Y-84647685D01*
X98326046Y-84745232D01*
X98524066Y-84805300D01*
X98524065Y-84805300D01*
X98542529Y-84807118D01*
X98730000Y-84825583D01*
X98935934Y-84805300D01*
X99133954Y-84745232D01*
X99316450Y-84647685D01*
X99476410Y-84516410D01*
X99607685Y-84356450D01*
X99705232Y-84173954D01*
X99765300Y-83975934D01*
X99785583Y-83770000D01*
X100214417Y-83770000D01*
X100234699Y-83975932D01*
X100234700Y-83975934D01*
X100294768Y-84173954D01*
X100392315Y-84356450D01*
X100392317Y-84356452D01*
X100523589Y-84516410D01*
X100601834Y-84580623D01*
X100683550Y-84647685D01*
X100866046Y-84745232D01*
X101064066Y-84805300D01*
X101064065Y-84805300D01*
X101082529Y-84807118D01*
X101270000Y-84825583D01*
X101475934Y-84805300D01*
X101673954Y-84745232D01*
X101856450Y-84647685D01*
X102016410Y-84516410D01*
X102147685Y-84356450D01*
X102245232Y-84173954D01*
X102305300Y-83975934D01*
X102325583Y-83770000D01*
X102754417Y-83770000D01*
X102774699Y-83975932D01*
X102774700Y-83975934D01*
X102834768Y-84173954D01*
X102932315Y-84356450D01*
X102932317Y-84356452D01*
X103063589Y-84516410D01*
X103141834Y-84580623D01*
X103223550Y-84647685D01*
X103406046Y-84745232D01*
X103604066Y-84805300D01*
X103604065Y-84805300D01*
X103622529Y-84807118D01*
X103810000Y-84825583D01*
X104015934Y-84805300D01*
X104213954Y-84745232D01*
X104396450Y-84647685D01*
X104556410Y-84516410D01*
X104687685Y-84356450D01*
X104785232Y-84173954D01*
X104845300Y-83975934D01*
X104865583Y-83770000D01*
X104845300Y-83564066D01*
X104785232Y-83366046D01*
X104687685Y-83183550D01*
X104609173Y-83087882D01*
X104556410Y-83023589D01*
X104396452Y-82892317D01*
X104396453Y-82892317D01*
X104396450Y-82892315D01*
X104213954Y-82794768D01*
X104015934Y-82734700D01*
X104015932Y-82734699D01*
X104015934Y-82734699D01*
X103810000Y-82714417D01*
X103604067Y-82734699D01*
X103406043Y-82794769D01*
X103295898Y-82853643D01*
X103223550Y-82892315D01*
X103223548Y-82892316D01*
X103223547Y-82892317D01*
X103063589Y-83023589D01*
X102932317Y-83183547D01*
X102834769Y-83366043D01*
X102774699Y-83564067D01*
X102754417Y-83770000D01*
X102325583Y-83770000D01*
X102305300Y-83564066D01*
X102245232Y-83366046D01*
X102147685Y-83183550D01*
X102069173Y-83087882D01*
X102016410Y-83023589D01*
X101856452Y-82892317D01*
X101856453Y-82892317D01*
X101856450Y-82892315D01*
X101673954Y-82794768D01*
X101475934Y-82734700D01*
X101475932Y-82734699D01*
X101475934Y-82734699D01*
X101270000Y-82714417D01*
X101064067Y-82734699D01*
X100866043Y-82794769D01*
X100755898Y-82853643D01*
X100683550Y-82892315D01*
X100683548Y-82892316D01*
X100683547Y-82892317D01*
X100523589Y-83023589D01*
X100392317Y-83183547D01*
X100294769Y-83366043D01*
X100234699Y-83564067D01*
X100214417Y-83770000D01*
X99785583Y-83770000D01*
X99765300Y-83564066D01*
X99705232Y-83366046D01*
X99607685Y-83183550D01*
X99529173Y-83087882D01*
X99476410Y-83023589D01*
X99316452Y-82892317D01*
X99316453Y-82892317D01*
X99316450Y-82892315D01*
X99133954Y-82794768D01*
X98935934Y-82734700D01*
X98935932Y-82734699D01*
X98935934Y-82734699D01*
X98730000Y-82714417D01*
X98524067Y-82734699D01*
X98326043Y-82794769D01*
X98215898Y-82853643D01*
X98143550Y-82892315D01*
X98143548Y-82892316D01*
X98143547Y-82892317D01*
X97983589Y-83023589D01*
X97876509Y-83154069D01*
X97852315Y-83183550D01*
X97773358Y-83331267D01*
X97724395Y-83381111D01*
X97656257Y-83396571D01*
X97590578Y-83372739D01*
X97548209Y-83317181D01*
X97540000Y-83272813D01*
X97540000Y-82872172D01*
X97539999Y-82872155D01*
X97533598Y-82812627D01*
X97533596Y-82812620D01*
X97483354Y-82677913D01*
X97483350Y-82677906D01*
X97397190Y-82562812D01*
X97397187Y-82562809D01*
X97282093Y-82476649D01*
X97282086Y-82476645D01*
X97147379Y-82426403D01*
X97147372Y-82426401D01*
X97087844Y-82420000D01*
X96687187Y-82420000D01*
X96620148Y-82400315D01*
X96574393Y-82347511D01*
X96564449Y-82278353D01*
X96593474Y-82214797D01*
X96628733Y-82186642D01*
X96776450Y-82107685D01*
X96936410Y-81976410D01*
X97067685Y-81816450D01*
X97165232Y-81633954D01*
X97225300Y-81435934D01*
X97245583Y-81230000D01*
X97225300Y-81024066D01*
X97189159Y-80904926D01*
X97188537Y-80835060D01*
X97220138Y-80781253D01*
X97964574Y-80036819D01*
X98025897Y-80003334D01*
X98052255Y-80000500D01*
X98328316Y-80000500D01*
X98395355Y-80020185D01*
X98441110Y-80072989D01*
X98451054Y-80142147D01*
X98422029Y-80205703D01*
X98364312Y-80243160D01*
X98326046Y-80254768D01*
X98326043Y-80254769D01*
X98215898Y-80313643D01*
X98143550Y-80352315D01*
X98143548Y-80352316D01*
X98143547Y-80352317D01*
X97983589Y-80483589D01*
X97852317Y-80643547D01*
X97852315Y-80643550D01*
X97813643Y-80715898D01*
X97754769Y-80826043D01*
X97694699Y-81024067D01*
X97674417Y-81230000D01*
X97694699Y-81435932D01*
X97707264Y-81477354D01*
X97754768Y-81633954D01*
X97852315Y-81816450D01*
X97852317Y-81816452D01*
X97983589Y-81976410D01*
X98080209Y-82055702D01*
X98143550Y-82107685D01*
X98326046Y-82205232D01*
X98524066Y-82265300D01*
X98524065Y-82265300D01*
X98542529Y-82267118D01*
X98730000Y-82285583D01*
X98935934Y-82265300D01*
X99133954Y-82205232D01*
X99316450Y-82107685D01*
X99476410Y-81976410D01*
X99607685Y-81816450D01*
X99705232Y-81633954D01*
X99765300Y-81435934D01*
X99785583Y-81230000D01*
X99765300Y-81024066D01*
X99705232Y-80826046D01*
X99607685Y-80643550D01*
X99555702Y-80580209D01*
X99476410Y-80483589D01*
X99316452Y-80352317D01*
X99316453Y-80352317D01*
X99316450Y-80352315D01*
X99133954Y-80254768D01*
X99095687Y-80243160D01*
X99037250Y-80204863D01*
X99008794Y-80141051D01*
X99019354Y-80071984D01*
X99065578Y-80019590D01*
X99131684Y-80000500D01*
X100868316Y-80000500D01*
X100935355Y-80020185D01*
X100981110Y-80072989D01*
X100991054Y-80142147D01*
X100962029Y-80205703D01*
X100904312Y-80243160D01*
X100866046Y-80254768D01*
X100866043Y-80254769D01*
X100755898Y-80313643D01*
X100683550Y-80352315D01*
X100683548Y-80352316D01*
X100683547Y-80352317D01*
X100523589Y-80483589D01*
X100392317Y-80643547D01*
X100392315Y-80643550D01*
X100353643Y-80715898D01*
X100294769Y-80826043D01*
X100234699Y-81024067D01*
X100214417Y-81230000D01*
X100234699Y-81435932D01*
X100247264Y-81477354D01*
X100294768Y-81633954D01*
X100392315Y-81816450D01*
X100392317Y-81816452D01*
X100523589Y-81976410D01*
X100620209Y-82055702D01*
X100683550Y-82107685D01*
X100866046Y-82205232D01*
X101064066Y-82265300D01*
X101064065Y-82265300D01*
X101082529Y-82267118D01*
X101270000Y-82285583D01*
X101475934Y-82265300D01*
X101673954Y-82205232D01*
X101856450Y-82107685D01*
X102016410Y-81976410D01*
X102147685Y-81816450D01*
X102245232Y-81633954D01*
X102305300Y-81435934D01*
X102325583Y-81230000D01*
X102305300Y-81024066D01*
X102245232Y-80826046D01*
X102147685Y-80643550D01*
X102095702Y-80580209D01*
X102016410Y-80483589D01*
X101856452Y-80352317D01*
X101856453Y-80352317D01*
X101856450Y-80352315D01*
X101673954Y-80254768D01*
X101635687Y-80243160D01*
X101577250Y-80204863D01*
X101548794Y-80141051D01*
X101559354Y-80071984D01*
X101605578Y-80019590D01*
X101671684Y-80000500D01*
X103408316Y-80000500D01*
X103475355Y-80020185D01*
X103521110Y-80072989D01*
X103531054Y-80142147D01*
X103502029Y-80205703D01*
X103444312Y-80243160D01*
X103406046Y-80254768D01*
X103406043Y-80254769D01*
X103295898Y-80313643D01*
X103223550Y-80352315D01*
X103223548Y-80352316D01*
X103223547Y-80352317D01*
X103063589Y-80483589D01*
X102932317Y-80643547D01*
X102932315Y-80643550D01*
X102893643Y-80715898D01*
X102834769Y-80826043D01*
X102774699Y-81024067D01*
X102754417Y-81230000D01*
X102774699Y-81435932D01*
X102787264Y-81477354D01*
X102834768Y-81633954D01*
X102932315Y-81816450D01*
X102932317Y-81816452D01*
X103063589Y-81976410D01*
X103160209Y-82055702D01*
X103223550Y-82107685D01*
X103406046Y-82205232D01*
X103604066Y-82265300D01*
X103604065Y-82265300D01*
X103622529Y-82267118D01*
X103810000Y-82285583D01*
X104015934Y-82265300D01*
X104213954Y-82205232D01*
X104396450Y-82107685D01*
X104556410Y-81976410D01*
X104687685Y-81816450D01*
X104785232Y-81633954D01*
X104845300Y-81435934D01*
X104865583Y-81230000D01*
X104845300Y-81024066D01*
X104785232Y-80826046D01*
X104687685Y-80643550D01*
X104635702Y-80580209D01*
X104556410Y-80483589D01*
X104396452Y-80352317D01*
X104396453Y-80352317D01*
X104396450Y-80352315D01*
X104213954Y-80254768D01*
X104175687Y-80243160D01*
X104117250Y-80204863D01*
X104088794Y-80141051D01*
X104099354Y-80071984D01*
X104145578Y-80019590D01*
X104211684Y-80000500D01*
X106376000Y-80000500D01*
X106443039Y-80020185D01*
X106488794Y-80072989D01*
X106500000Y-80124500D01*
X106500000Y-85376000D01*
X106480315Y-85443039D01*
X106427511Y-85488794D01*
X106376000Y-85500000D01*
X88000000Y-85500000D01*
X87971575Y-85528425D01*
X87910251Y-85561909D01*
X87840560Y-85556924D01*
X87831490Y-85553125D01*
X87773173Y-85525932D01*
X87773172Y-85525931D01*
X87724317Y-85519500D01*
X87724316Y-85519500D01*
X87275684Y-85519500D01*
X87275683Y-85519500D01*
X87226828Y-85525931D01*
X87119595Y-85575935D01*
X87035936Y-85659594D01*
X87034516Y-85661623D01*
X87031486Y-85664044D01*
X87028264Y-85667267D01*
X87027904Y-85666907D01*
X86979939Y-85705248D01*
X86932941Y-85714500D01*
X86455199Y-85714500D01*
X86353940Y-85756444D01*
X85922204Y-86188181D01*
X85860881Y-86221666D01*
X85834523Y-86224500D01*
X85199500Y-86224500D01*
X85132461Y-86204815D01*
X85086706Y-86152011D01*
X85075500Y-86100500D01*
X85075500Y-85980249D01*
X85075499Y-85980247D01*
X85063868Y-85921770D01*
X85063867Y-85921769D01*
X85019552Y-85855447D01*
X84953230Y-85811132D01*
X84953229Y-85811131D01*
X84894752Y-85799500D01*
X84894748Y-85799500D01*
X84105252Y-85799500D01*
X84105247Y-85799500D01*
X84046770Y-85811131D01*
X84046769Y-85811132D01*
X83980447Y-85855447D01*
X83936132Y-85921769D01*
X83936131Y-85921770D01*
X83924500Y-85980247D01*
X83924500Y-86100500D01*
X83904815Y-86167539D01*
X83852011Y-86213294D01*
X83800500Y-86224500D01*
X81699500Y-86224500D01*
X81632461Y-86204815D01*
X81586706Y-86152011D01*
X81575500Y-86100500D01*
X81575500Y-85980249D01*
X81575499Y-85980247D01*
X81563868Y-85921770D01*
X81563867Y-85921769D01*
X81519552Y-85855447D01*
X81453230Y-85811132D01*
X81453229Y-85811131D01*
X81394752Y-85799500D01*
X81394748Y-85799500D01*
X80605252Y-85799500D01*
X80605247Y-85799500D01*
X80546770Y-85811131D01*
X80546769Y-85811132D01*
X80480447Y-85855447D01*
X80436132Y-85921769D01*
X80436131Y-85921770D01*
X80424500Y-85980247D01*
X80424500Y-87019752D01*
X80436131Y-87078229D01*
X80436132Y-87078230D01*
X80480447Y-87144552D01*
X80546769Y-87188867D01*
X80546770Y-87188868D01*
X80605247Y-87200499D01*
X80605250Y-87200500D01*
X80605252Y-87200500D01*
X81394750Y-87200500D01*
X81394751Y-87200499D01*
X81409568Y-87197552D01*
X81453229Y-87188868D01*
X81453229Y-87188867D01*
X81453231Y-87188867D01*
X81519552Y-87144552D01*
X81563867Y-87078231D01*
X81563867Y-87078229D01*
X81563868Y-87078229D01*
X81575499Y-87019752D01*
X81575500Y-87019750D01*
X81575500Y-86899500D01*
X81595185Y-86832461D01*
X81647989Y-86786706D01*
X81699500Y-86775500D01*
X83800500Y-86775500D01*
X83867539Y-86795185D01*
X83913294Y-86847989D01*
X83924500Y-86899500D01*
X83924500Y-87019752D01*
X83936131Y-87078229D01*
X83936132Y-87078230D01*
X83980447Y-87144552D01*
X84046769Y-87188867D01*
X84046770Y-87188868D01*
X84105247Y-87200499D01*
X84105250Y-87200500D01*
X84105252Y-87200500D01*
X84894750Y-87200500D01*
X84894751Y-87200499D01*
X84909568Y-87197552D01*
X84953229Y-87188868D01*
X84953229Y-87188867D01*
X84953231Y-87188867D01*
X85019552Y-87144552D01*
X85063867Y-87078231D01*
X85063867Y-87078229D01*
X85063868Y-87078229D01*
X85075499Y-87019752D01*
X85075500Y-87019750D01*
X85075500Y-86899500D01*
X85095185Y-86832461D01*
X85147989Y-86786706D01*
X85199500Y-86775500D01*
X86054799Y-86775500D01*
X86054800Y-86775500D01*
X86156058Y-86733557D01*
X86233557Y-86656058D01*
X86587796Y-86301819D01*
X86649119Y-86268334D01*
X86675477Y-86265500D01*
X86932941Y-86265500D01*
X86999980Y-86285185D01*
X87034516Y-86318377D01*
X87035936Y-86320405D01*
X87127267Y-86411736D01*
X87124443Y-86414559D01*
X87155183Y-86453042D01*
X87162352Y-86522542D01*
X87130808Y-86584886D01*
X87127101Y-86588098D01*
X87127267Y-86588264D01*
X87035935Y-86679595D01*
X86985931Y-86786828D01*
X86979500Y-86835683D01*
X86979500Y-87184316D01*
X86985931Y-87233171D01*
X87035935Y-87340404D01*
X87088181Y-87392650D01*
X87121666Y-87453973D01*
X87124500Y-87480331D01*
X87124500Y-88470500D01*
X87104815Y-88537539D01*
X87052011Y-88583294D01*
X87000500Y-88594500D01*
X86716739Y-88594500D01*
X86648608Y-88604426D01*
X86543514Y-88655803D01*
X86460801Y-88738516D01*
X86460799Y-88738519D01*
X86434455Y-88792408D01*
X86387327Y-88843991D01*
X86370510Y-88852508D01*
X86348941Y-88861442D01*
X86348939Y-88861443D01*
X85649942Y-89560443D01*
X85572444Y-89637940D01*
X85530500Y-89739199D01*
X85530500Y-91857382D01*
X85510815Y-91924421D01*
X85458011Y-91970176D01*
X85388853Y-91980120D01*
X85376750Y-91976799D01*
X84853551Y-92499998D01*
X84853551Y-92499999D01*
X85379118Y-93025567D01*
X85429591Y-93020141D01*
X85492070Y-93051416D01*
X85527723Y-93111504D01*
X85529191Y-93117972D01*
X85530499Y-93124548D01*
X85553675Y-93180500D01*
X85553677Y-93180502D01*
X85572442Y-93225807D01*
X86159453Y-93812819D01*
X86192938Y-93874142D01*
X86187954Y-93943834D01*
X86146082Y-93999767D01*
X86080618Y-94024184D01*
X86071772Y-94024500D01*
X83020935Y-94024500D01*
X82919676Y-94066444D01*
X81788521Y-95197598D01*
X81727198Y-95231083D01*
X81657506Y-95226099D01*
X81642386Y-95219275D01*
X81633956Y-95214769D01*
X81633955Y-95214768D01*
X81633954Y-95214768D01*
X81435934Y-95154700D01*
X81435932Y-95154699D01*
X81435934Y-95154699D01*
X81230000Y-95134417D01*
X81024067Y-95154699D01*
X80826043Y-95214769D01*
X80736507Y-95262628D01*
X80643550Y-95312315D01*
X80643548Y-95312316D01*
X80643547Y-95312317D01*
X80483589Y-95443589D01*
X80352317Y-95603547D01*
X80254769Y-95786043D01*
X80194699Y-95984067D01*
X80174417Y-96190000D01*
X80194699Y-96395932D01*
X80216540Y-96467933D01*
X80254768Y-96593954D01*
X80352315Y-96776450D01*
X80363474Y-96790047D01*
X80483589Y-96936410D01*
X80548165Y-96989405D01*
X80643550Y-97067685D01*
X80826046Y-97165232D01*
X81024066Y-97225300D01*
X81024065Y-97225300D01*
X81042529Y-97227118D01*
X81230000Y-97245583D01*
X81435934Y-97225300D01*
X81633954Y-97165232D01*
X81816450Y-97067685D01*
X81831835Y-97055058D01*
X81896144Y-97027746D01*
X81965012Y-97039537D01*
X82016572Y-97086688D01*
X82034500Y-97150912D01*
X82034500Y-97479521D01*
X82014815Y-97546560D01*
X81998181Y-97567202D01*
X81814108Y-97751274D01*
X81752785Y-97784759D01*
X81683093Y-97779775D01*
X81667975Y-97772952D01*
X81633957Y-97754769D01*
X81633954Y-97754768D01*
X81435934Y-97694700D01*
X81435932Y-97694699D01*
X81435934Y-97694699D01*
X81230000Y-97674417D01*
X81024067Y-97694699D01*
X80826043Y-97754769D01*
X80769937Y-97784759D01*
X80643550Y-97852315D01*
X80643548Y-97852316D01*
X80643547Y-97852317D01*
X80483589Y-97983589D01*
X80352317Y-98143547D01*
X80352315Y-98143550D01*
X80322409Y-98199500D01*
X80254769Y-98326043D01*
X80194699Y-98524067D01*
X80174417Y-98730000D01*
X80194699Y-98935932D01*
X80206290Y-98974142D01*
X80254768Y-99133954D01*
X80352315Y-99316450D01*
X80382271Y-99352952D01*
X80483589Y-99476410D01*
X80542188Y-99524500D01*
X80643550Y-99607685D01*
X80826046Y-99705232D01*
X81024066Y-99765300D01*
X81024065Y-99765300D01*
X81042529Y-99767118D01*
X81230000Y-99785583D01*
X81435934Y-99765300D01*
X81633954Y-99705232D01*
X81816450Y-99607685D01*
X81976410Y-99476410D01*
X82101527Y-99323954D01*
X82111549Y-99311742D01*
X82112558Y-99312570D01*
X82160999Y-99272079D01*
X82230323Y-99263365D01*
X82293353Y-99293513D01*
X82330078Y-99352952D01*
X82334500Y-99385770D01*
X82334500Y-99724522D01*
X82314815Y-99791561D01*
X82298181Y-99812203D01*
X81817367Y-100293016D01*
X81756044Y-100326501D01*
X81686352Y-100321517D01*
X81671234Y-100314694D01*
X81633957Y-100294769D01*
X81628178Y-100293016D01*
X81435934Y-100234700D01*
X81435932Y-100234699D01*
X81435934Y-100234699D01*
X81230000Y-100214417D01*
X81024067Y-100234699D01*
X80826043Y-100294769D01*
X80759758Y-100330200D01*
X80643550Y-100392315D01*
X80643548Y-100392316D01*
X80643547Y-100392317D01*
X80483589Y-100523589D01*
X80359599Y-100674674D01*
X80352315Y-100683550D01*
X80336259Y-100713589D01*
X80254769Y-100866043D01*
X80194699Y-101064067D01*
X80174417Y-101270000D01*
X80194699Y-101475932D01*
X80216482Y-101547740D01*
X80254768Y-101673954D01*
X80352315Y-101856450D01*
X80358475Y-101863956D01*
X80483589Y-102016410D01*
X80555592Y-102075500D01*
X80643550Y-102147685D01*
X80826046Y-102245232D01*
X81024066Y-102305300D01*
X81024065Y-102305300D01*
X81042529Y-102307118D01*
X81230000Y-102325583D01*
X81435934Y-102305300D01*
X81633954Y-102245232D01*
X81816450Y-102147685D01*
X81976410Y-102016410D01*
X82107685Y-101856450D01*
X82205232Y-101673954D01*
X82265300Y-101475934D01*
X82285583Y-101270000D01*
X82265300Y-101064066D01*
X82205232Y-100866046D01*
X82185304Y-100828765D01*
X82171063Y-100760364D01*
X82196062Y-100695119D01*
X82206973Y-100682640D01*
X82843558Y-100046058D01*
X82843558Y-100046056D01*
X82843560Y-100046055D01*
X82872749Y-99975583D01*
X82885500Y-99944800D01*
X82885500Y-99835200D01*
X82885500Y-99625258D01*
X82905185Y-99558219D01*
X82957989Y-99512464D01*
X83027147Y-99502520D01*
X83088165Y-99529405D01*
X83174185Y-99600000D01*
X83183550Y-99607685D01*
X83366046Y-99705232D01*
X83564066Y-99765300D01*
X83564065Y-99765300D01*
X83582529Y-99767118D01*
X83770000Y-99785583D01*
X83975934Y-99765300D01*
X84173954Y-99705232D01*
X84221008Y-99680080D01*
X84289407Y-99665838D01*
X84354652Y-99690836D01*
X84367142Y-99701757D01*
X84898938Y-100233555D01*
X84898939Y-100233555D01*
X84898941Y-100233557D01*
X84928595Y-100245839D01*
X84928597Y-100245841D01*
X84928598Y-100245841D01*
X84949570Y-100254527D01*
X85000200Y-100275500D01*
X87961731Y-100275500D01*
X88028770Y-100295185D01*
X88049412Y-100311819D01*
X88510412Y-100772819D01*
X88543897Y-100834142D01*
X88538913Y-100903834D01*
X88497041Y-100959767D01*
X88431577Y-100984184D01*
X88422731Y-100984500D01*
X84873129Y-100984500D01*
X84806090Y-100964815D01*
X84760335Y-100912011D01*
X84754469Y-100896496D01*
X84751735Y-100887487D01*
X84745232Y-100866046D01*
X84647685Y-100683550D01*
X84538475Y-100550476D01*
X84516410Y-100523589D01*
X84356452Y-100392317D01*
X84356453Y-100392317D01*
X84356450Y-100392315D01*
X84173954Y-100294768D01*
X83975934Y-100234700D01*
X83975932Y-100234699D01*
X83975934Y-100234699D01*
X83770000Y-100214417D01*
X83564067Y-100234699D01*
X83366043Y-100294769D01*
X83299758Y-100330200D01*
X83183550Y-100392315D01*
X83183548Y-100392316D01*
X83183547Y-100392317D01*
X83023589Y-100523589D01*
X82899599Y-100674674D01*
X82892315Y-100683550D01*
X82876259Y-100713589D01*
X82794769Y-100866043D01*
X82734699Y-101064067D01*
X82714417Y-101270000D01*
X82734699Y-101475932D01*
X82756482Y-101547740D01*
X82794768Y-101673954D01*
X82892315Y-101856450D01*
X82898475Y-101863956D01*
X83023589Y-102016410D01*
X83095592Y-102075500D01*
X83183550Y-102147685D01*
X83324792Y-102223181D01*
X83331267Y-102226642D01*
X83381111Y-102275605D01*
X83396571Y-102343743D01*
X83372739Y-102409422D01*
X83317181Y-102451791D01*
X83272813Y-102460000D01*
X82872155Y-102460000D01*
X82812627Y-102466401D01*
X82812620Y-102466403D01*
X82677913Y-102516645D01*
X82677906Y-102516649D01*
X82562812Y-102602809D01*
X82562809Y-102602812D01*
X82476649Y-102717906D01*
X82476645Y-102717913D01*
X82426403Y-102852620D01*
X82426401Y-102852627D01*
X82420000Y-102912155D01*
X82420000Y-103312813D01*
X82400315Y-103379852D01*
X82347511Y-103425607D01*
X82278353Y-103435551D01*
X82214797Y-103406526D01*
X82186642Y-103371267D01*
X82107685Y-103223550D01*
X82024604Y-103122315D01*
X81976410Y-103063589D01*
X81831196Y-102944417D01*
X81816450Y-102932315D01*
X81633954Y-102834768D01*
X81435934Y-102774700D01*
X81435932Y-102774699D01*
X81435934Y-102774699D01*
X81230000Y-102754417D01*
X81024067Y-102774699D01*
X80826043Y-102834769D01*
X80715898Y-102893643D01*
X80643550Y-102932315D01*
X80643548Y-102932316D01*
X80643547Y-102932317D01*
X80483589Y-103063589D01*
X80352317Y-103223547D01*
X80352315Y-103223550D01*
X80336259Y-103253589D01*
X80254769Y-103406043D01*
X80194699Y-103604067D01*
X80174417Y-103810000D01*
X80194699Y-104015932D01*
X80212769Y-104075500D01*
X80254768Y-104213954D01*
X80352315Y-104396450D01*
X80358475Y-104403956D01*
X80483589Y-104556410D01*
X80580209Y-104635702D01*
X80643550Y-104687685D01*
X80826046Y-104785232D01*
X81024066Y-104845300D01*
X81024065Y-104845300D01*
X81042529Y-104847118D01*
X81230000Y-104865583D01*
X81435934Y-104845300D01*
X81633954Y-104785232D01*
X81816450Y-104687685D01*
X81976410Y-104556410D01*
X82107685Y-104396450D01*
X82186643Y-104248730D01*
X82235605Y-104198888D01*
X82303742Y-104183428D01*
X82369422Y-104207260D01*
X82411791Y-104262818D01*
X82420000Y-104307186D01*
X82420000Y-104707844D01*
X82426401Y-104767372D01*
X82426403Y-104767379D01*
X82476645Y-104902086D01*
X82476649Y-104902093D01*
X82562809Y-105017187D01*
X82562812Y-105017190D01*
X82677906Y-105103350D01*
X82677913Y-105103354D01*
X82812620Y-105153596D01*
X82812627Y-105153598D01*
X82872155Y-105159999D01*
X82872172Y-105160000D01*
X83520000Y-105160000D01*
X83520000Y-104243012D01*
X83577007Y-104275925D01*
X83704174Y-104310000D01*
X83835826Y-104310000D01*
X83962993Y-104275925D01*
X84020000Y-104243012D01*
X84020000Y-105160000D01*
X84667828Y-105160000D01*
X84667844Y-105159999D01*
X84727372Y-105153598D01*
X84727379Y-105153596D01*
X84862086Y-105103354D01*
X84862093Y-105103350D01*
X84977187Y-105017190D01*
X84977190Y-105017187D01*
X85063350Y-104902093D01*
X85063354Y-104902086D01*
X85113596Y-104767379D01*
X85113598Y-104767372D01*
X85119999Y-104707844D01*
X85120000Y-104707827D01*
X85120000Y-104060000D01*
X84203012Y-104060000D01*
X84235925Y-104002993D01*
X84270000Y-103875826D01*
X84270000Y-103744174D01*
X84235925Y-103617007D01*
X84203012Y-103560000D01*
X85120000Y-103560000D01*
X85120000Y-102912172D01*
X85119999Y-102912155D01*
X85113598Y-102852627D01*
X85113596Y-102852620D01*
X85063354Y-102717913D01*
X85063350Y-102717906D01*
X84977190Y-102602812D01*
X84977187Y-102602809D01*
X84862093Y-102516649D01*
X84862086Y-102516645D01*
X84727379Y-102466403D01*
X84727372Y-102466401D01*
X84667844Y-102460000D01*
X84267187Y-102460000D01*
X84200148Y-102440315D01*
X84154393Y-102387511D01*
X84144449Y-102318353D01*
X84173474Y-102254797D01*
X84208733Y-102226642D01*
X84215208Y-102223181D01*
X84356450Y-102147685D01*
X84516410Y-102016410D01*
X84647685Y-101856450D01*
X84745232Y-101673954D01*
X84760535Y-101623504D01*
X84798833Y-101565066D01*
X84862645Y-101536610D01*
X84879196Y-101535500D01*
X88797467Y-101535500D01*
X88864506Y-101555185D01*
X88885147Y-101571818D01*
X89963681Y-102650353D01*
X89997166Y-102711675D01*
X90000000Y-102738033D01*
X90000000Y-104800000D01*
X92731260Y-104800000D01*
X92798299Y-104819685D01*
X92843644Y-104871600D01*
X92846773Y-104878312D01*
X92846776Y-104878316D01*
X92900779Y-104932319D01*
X92934264Y-104993642D01*
X92929280Y-105063334D01*
X92900779Y-105107681D01*
X92846776Y-105161683D01*
X92796027Y-105270514D01*
X92789500Y-105320098D01*
X92789500Y-105531567D01*
X92769815Y-105598606D01*
X92717011Y-105644361D01*
X92647853Y-105654305D01*
X92591189Y-105630833D01*
X92492093Y-105556649D01*
X92492086Y-105556645D01*
X92357379Y-105506403D01*
X92357372Y-105506401D01*
X92297844Y-105500000D01*
X91900000Y-105500000D01*
X91900000Y-106576000D01*
X91880315Y-106643039D01*
X91827511Y-106688794D01*
X91776000Y-106700000D01*
X91524000Y-106700000D01*
X91456961Y-106680315D01*
X91411206Y-106627511D01*
X91400000Y-106576000D01*
X91400000Y-105500000D01*
X91002155Y-105500000D01*
X90942627Y-105506401D01*
X90942620Y-105506403D01*
X90807913Y-105556645D01*
X90807906Y-105556649D01*
X90692812Y-105642809D01*
X90692809Y-105642812D01*
X90612710Y-105749811D01*
X90556777Y-105791682D01*
X90513444Y-105799500D01*
X89330247Y-105799500D01*
X89271770Y-105811131D01*
X89271769Y-105811132D01*
X89205447Y-105855447D01*
X89161132Y-105921769D01*
X89161131Y-105921770D01*
X89149500Y-105980247D01*
X89149500Y-107419752D01*
X89161131Y-107478229D01*
X89161132Y-107478230D01*
X89212233Y-107554707D01*
X89208511Y-107557193D01*
X89230478Y-107597421D01*
X89225494Y-107667113D01*
X89183622Y-107723046D01*
X89152647Y-107739960D01*
X89107916Y-107756644D01*
X89107906Y-107756649D01*
X88992812Y-107842809D01*
X88992809Y-107842812D01*
X88906649Y-107957906D01*
X88906645Y-107957913D01*
X88856403Y-108092620D01*
X88856401Y-108092627D01*
X88850000Y-108152155D01*
X88850000Y-108650000D01*
X89826000Y-108650000D01*
X89893039Y-108669685D01*
X89938794Y-108722489D01*
X89950000Y-108774000D01*
X89950000Y-108900000D01*
X90076000Y-108900000D01*
X90143039Y-108919685D01*
X90188794Y-108972489D01*
X90200000Y-109024000D01*
X90200000Y-110100000D01*
X90597828Y-110100000D01*
X90597844Y-110099999D01*
X90657372Y-110093598D01*
X90657379Y-110093596D01*
X90792086Y-110043354D01*
X90792093Y-110043350D01*
X90907187Y-109957190D01*
X90907190Y-109957187D01*
X90987290Y-109850189D01*
X91043223Y-109808318D01*
X91086556Y-109800500D01*
X92269750Y-109800500D01*
X92269751Y-109800499D01*
X92284568Y-109797552D01*
X92328229Y-109788868D01*
X92328229Y-109788867D01*
X92328231Y-109788867D01*
X92394552Y-109744552D01*
X92438867Y-109678231D01*
X92438867Y-109678229D01*
X92438868Y-109678229D01*
X92450499Y-109619752D01*
X92450500Y-109619750D01*
X92450500Y-109028766D01*
X92470185Y-108961727D01*
X92522989Y-108915972D01*
X92592147Y-108906028D01*
X92655703Y-108935053D01*
X92687934Y-108978680D01*
X92720781Y-109053073D01*
X92720784Y-109053077D01*
X92720785Y-109053079D01*
X92796921Y-109129215D01*
X92895420Y-109172707D01*
X92919495Y-109175500D01*
X94455504Y-109175499D01*
X94479580Y-109172707D01*
X94531006Y-109150000D01*
X94578073Y-109129218D01*
X94578073Y-109129217D01*
X94578079Y-109129215D01*
X94654215Y-109053079D01*
X94658829Y-109042626D01*
X94684585Y-109005028D01*
X94690113Y-108999500D01*
X94733556Y-108956058D01*
X94733555Y-108956058D01*
X94792106Y-108897508D01*
X94792116Y-108897496D01*
X94912822Y-108776791D01*
X94974142Y-108743309D01*
X95043834Y-108748293D01*
X95099767Y-108790165D01*
X95124184Y-108855629D01*
X95124500Y-108864475D01*
X95124500Y-109034522D01*
X95104815Y-109101561D01*
X95088181Y-109122203D01*
X94043942Y-110166443D01*
X93966444Y-110243940D01*
X93966443Y-110243941D01*
X93966443Y-110243942D01*
X93924500Y-110345200D01*
X93924500Y-118054800D01*
X93966443Y-118156058D01*
X93966444Y-118156059D01*
X94808938Y-118998555D01*
X94808939Y-118998555D01*
X94808941Y-118998557D01*
X94838595Y-119010839D01*
X94838597Y-119010841D01*
X94838598Y-119010841D01*
X94859570Y-119019527D01*
X94910200Y-119040500D01*
X95082321Y-119040500D01*
X95149360Y-119060185D01*
X95195115Y-119112989D01*
X95200979Y-119128498D01*
X95214768Y-119173954D01*
X95214769Y-119173957D01*
X95245011Y-119230535D01*
X95312315Y-119356450D01*
X95312317Y-119356452D01*
X95443589Y-119516410D01*
X95540209Y-119595702D01*
X95603550Y-119647685D01*
X95786046Y-119745232D01*
X95984066Y-119805300D01*
X95984065Y-119805300D01*
X96002529Y-119807118D01*
X96190000Y-119825583D01*
X96395934Y-119805300D01*
X96593954Y-119745232D01*
X96776450Y-119647685D01*
X96936410Y-119516410D01*
X97067685Y-119356450D01*
X97165232Y-119173954D01*
X97225300Y-118975934D01*
X97245583Y-118770000D01*
X97225300Y-118564066D01*
X97165232Y-118366046D01*
X97067685Y-118183550D01*
X97055058Y-118168164D01*
X97027746Y-118103856D01*
X97039537Y-118034988D01*
X97086688Y-117983428D01*
X97150912Y-117965500D01*
X97479523Y-117965500D01*
X97546562Y-117985185D01*
X97567203Y-118001818D01*
X97751275Y-118185891D01*
X97784760Y-118247213D01*
X97779776Y-118316905D01*
X97772953Y-118332023D01*
X97754770Y-118366041D01*
X97754769Y-118366043D01*
X97754768Y-118366046D01*
X97754397Y-118367269D01*
X97694699Y-118564067D01*
X97674417Y-118770000D01*
X97694699Y-118975932D01*
X97705288Y-119010839D01*
X97754768Y-119173954D01*
X97852315Y-119356450D01*
X97852317Y-119356452D01*
X97983589Y-119516410D01*
X98080209Y-119595702D01*
X98143550Y-119647685D01*
X98326046Y-119745232D01*
X98524066Y-119805300D01*
X98524065Y-119805300D01*
X98542529Y-119807118D01*
X98730000Y-119825583D01*
X98935934Y-119805300D01*
X99133954Y-119745232D01*
X99316450Y-119647685D01*
X99476410Y-119516410D01*
X99607685Y-119356450D01*
X99705232Y-119173954D01*
X99765300Y-118975934D01*
X99785583Y-118770000D01*
X99765300Y-118564066D01*
X99705232Y-118366046D01*
X99607685Y-118183550D01*
X99542282Y-118103856D01*
X99476410Y-118023589D01*
X99311742Y-117888451D01*
X99312568Y-117887443D01*
X99272075Y-117838990D01*
X99263368Y-117769665D01*
X99293522Y-117706638D01*
X99352965Y-117669918D01*
X99385771Y-117665500D01*
X99719523Y-117665500D01*
X99786562Y-117685185D01*
X99807204Y-117701819D01*
X100291275Y-118185891D01*
X100324760Y-118247214D01*
X100319776Y-118316906D01*
X100312952Y-118332025D01*
X100294771Y-118366038D01*
X100294770Y-118366041D01*
X100294769Y-118366043D01*
X100294768Y-118366046D01*
X100294397Y-118367269D01*
X100234699Y-118564067D01*
X100214417Y-118770000D01*
X100234699Y-118975932D01*
X100245288Y-119010839D01*
X100294768Y-119173954D01*
X100392315Y-119356450D01*
X100392317Y-119356452D01*
X100523589Y-119516410D01*
X100620209Y-119595702D01*
X100683550Y-119647685D01*
X100866046Y-119745232D01*
X101064066Y-119805300D01*
X101064065Y-119805300D01*
X101082529Y-119807118D01*
X101270000Y-119825583D01*
X101475934Y-119805300D01*
X101673954Y-119745232D01*
X101856450Y-119647685D01*
X102016410Y-119516410D01*
X102147685Y-119356450D01*
X102245232Y-119173954D01*
X102305300Y-118975934D01*
X102325583Y-118770000D01*
X102305300Y-118564066D01*
X102245232Y-118366046D01*
X102147685Y-118183550D01*
X102082282Y-118103856D01*
X102016410Y-118023589D01*
X101856452Y-117892317D01*
X101856453Y-117892317D01*
X101856450Y-117892315D01*
X101673954Y-117794768D01*
X101475934Y-117734700D01*
X101475932Y-117734699D01*
X101475934Y-117734699D01*
X101270000Y-117714417D01*
X101064067Y-117734699D01*
X100948800Y-117769665D01*
X100866046Y-117794768D01*
X100866043Y-117794769D01*
X100866041Y-117794770D01*
X100825506Y-117816436D01*
X100757103Y-117830677D01*
X100691860Y-117805676D01*
X100679374Y-117794758D01*
X100041059Y-117156444D01*
X100041058Y-117156443D01*
X100041056Y-117156442D01*
X100035304Y-117154059D01*
X99939800Y-117114500D01*
X99625259Y-117114500D01*
X99558220Y-117094815D01*
X99512465Y-117042011D01*
X99502521Y-116972853D01*
X99529405Y-116911836D01*
X99583483Y-116845940D01*
X99607685Y-116816450D01*
X99705232Y-116633954D01*
X99765300Y-116435934D01*
X99784071Y-116245345D01*
X99810232Y-116180560D01*
X99819784Y-116169829D01*
X100019055Y-115970559D01*
X100080375Y-115937076D01*
X100150067Y-115942060D01*
X100206000Y-115983932D01*
X100230417Y-116049396D01*
X100230136Y-116070396D01*
X100214417Y-116229999D01*
X100234699Y-116435932D01*
X100234700Y-116435934D01*
X100294768Y-116633954D01*
X100392315Y-116816450D01*
X100416517Y-116845940D01*
X100523589Y-116976410D01*
X100607183Y-117045013D01*
X100683550Y-117107685D01*
X100866046Y-117205232D01*
X101064066Y-117265300D01*
X101064065Y-117265300D01*
X101082529Y-117267118D01*
X101270000Y-117285583D01*
X101475934Y-117265300D01*
X101673954Y-117205232D01*
X101856450Y-117107685D01*
X102016410Y-116976410D01*
X102147685Y-116816450D01*
X102226643Y-116668730D01*
X102275605Y-116618888D01*
X102343742Y-116603428D01*
X102409422Y-116627260D01*
X102451791Y-116682818D01*
X102460000Y-116727186D01*
X102460000Y-117127844D01*
X102466401Y-117187372D01*
X102466403Y-117187379D01*
X102516645Y-117322086D01*
X102516649Y-117322093D01*
X102602809Y-117437187D01*
X102602812Y-117437190D01*
X102717906Y-117523350D01*
X102717913Y-117523354D01*
X102852620Y-117573596D01*
X102852627Y-117573598D01*
X102912155Y-117579999D01*
X102912172Y-117580000D01*
X103312813Y-117580000D01*
X103379852Y-117599685D01*
X103425607Y-117652489D01*
X103435551Y-117721647D01*
X103406526Y-117785203D01*
X103371267Y-117813357D01*
X103223550Y-117892315D01*
X103223548Y-117892316D01*
X103223547Y-117892317D01*
X103063589Y-118023589D01*
X102944940Y-118168166D01*
X102932315Y-118183550D01*
X102931064Y-118185891D01*
X102834769Y-118366043D01*
X102774699Y-118564067D01*
X102754417Y-118770000D01*
X102774699Y-118975932D01*
X102785288Y-119010839D01*
X102834768Y-119173954D01*
X102932315Y-119356450D01*
X102932317Y-119356452D01*
X103063589Y-119516410D01*
X103160209Y-119595702D01*
X103223550Y-119647685D01*
X103406046Y-119745232D01*
X103604066Y-119805300D01*
X103604065Y-119805300D01*
X103622529Y-119807118D01*
X103810000Y-119825583D01*
X104015934Y-119805300D01*
X104213954Y-119745232D01*
X104396450Y-119647685D01*
X104556410Y-119516410D01*
X104687685Y-119356450D01*
X104785232Y-119173954D01*
X104845300Y-118975934D01*
X104865583Y-118770000D01*
X104845300Y-118564066D01*
X104785232Y-118366046D01*
X104687685Y-118183550D01*
X104622282Y-118103856D01*
X104556410Y-118023589D01*
X104396452Y-117892317D01*
X104396453Y-117892317D01*
X104396450Y-117892315D01*
X104248732Y-117813357D01*
X104198889Y-117764395D01*
X104183429Y-117696257D01*
X104207261Y-117630578D01*
X104262819Y-117588209D01*
X104307187Y-117580000D01*
X104707828Y-117580000D01*
X104707844Y-117579999D01*
X104767372Y-117573598D01*
X104767379Y-117573596D01*
X104902086Y-117523354D01*
X104902093Y-117523350D01*
X105017187Y-117437190D01*
X105017190Y-117437187D01*
X105103350Y-117322093D01*
X105103354Y-117322086D01*
X105153596Y-117187379D01*
X105153598Y-117187372D01*
X105159999Y-117127844D01*
X105160000Y-117127827D01*
X105160000Y-116845946D01*
X114649500Y-116845946D01*
X114649500Y-117154059D01*
X114689717Y-117459542D01*
X114769464Y-117757162D01*
X114887376Y-118041826D01*
X114887381Y-118041837D01*
X114980014Y-118202280D01*
X115041438Y-118308670D01*
X115041440Y-118308673D01*
X115041441Y-118308674D01*
X115229007Y-118553115D01*
X115229013Y-118553122D01*
X115446877Y-118770986D01*
X115446883Y-118770991D01*
X115691330Y-118958562D01*
X115845500Y-119047572D01*
X115958162Y-119112618D01*
X115958167Y-119112620D01*
X115958170Y-119112622D01*
X116242836Y-119230535D01*
X116540456Y-119310282D01*
X116845940Y-119350500D01*
X116845947Y-119350500D01*
X117154053Y-119350500D01*
X117154060Y-119350500D01*
X117459544Y-119310282D01*
X117757164Y-119230535D01*
X118041830Y-119112622D01*
X118308670Y-118958562D01*
X118553117Y-118770991D01*
X118770991Y-118553117D01*
X118958562Y-118308670D01*
X119112622Y-118041830D01*
X119230535Y-117757164D01*
X119310282Y-117459544D01*
X119350500Y-117154060D01*
X119350500Y-116845940D01*
X119310282Y-116540456D01*
X119230535Y-116242836D01*
X119112622Y-115958170D01*
X119112620Y-115958167D01*
X119112618Y-115958162D01*
X119036340Y-115826046D01*
X118958562Y-115691330D01*
X118770991Y-115446883D01*
X118770986Y-115446877D01*
X118553122Y-115229013D01*
X118553115Y-115229007D01*
X118308674Y-115041441D01*
X118308673Y-115041440D01*
X118308670Y-115041438D01*
X118173312Y-114963289D01*
X118041837Y-114887381D01*
X118041826Y-114887376D01*
X117757162Y-114769464D01*
X117459542Y-114689717D01*
X117154069Y-114649501D01*
X117154066Y-114649500D01*
X117154060Y-114649500D01*
X116845940Y-114649500D01*
X116845934Y-114649500D01*
X116845930Y-114649501D01*
X116540457Y-114689717D01*
X116242837Y-114769464D01*
X115958173Y-114887376D01*
X115958162Y-114887381D01*
X115691325Y-115041441D01*
X115446884Y-115229007D01*
X115446877Y-115229013D01*
X115229013Y-115446877D01*
X115229007Y-115446884D01*
X115041441Y-115691325D01*
X114887381Y-115958162D01*
X114887376Y-115958173D01*
X114769464Y-116242837D01*
X114689717Y-116540457D01*
X114649501Y-116845930D01*
X114649500Y-116845946D01*
X105160000Y-116845946D01*
X105160000Y-116480000D01*
X104243012Y-116480000D01*
X104275925Y-116422993D01*
X104310000Y-116295826D01*
X104310000Y-116164174D01*
X104275925Y-116037007D01*
X104243012Y-115980000D01*
X105160000Y-115980000D01*
X105160000Y-115332172D01*
X105159999Y-115332155D01*
X105153598Y-115272627D01*
X105153596Y-115272620D01*
X105103354Y-115137913D01*
X105103350Y-115137906D01*
X105017190Y-115022812D01*
X105017187Y-115022809D01*
X104902093Y-114936649D01*
X104902086Y-114936645D01*
X104767379Y-114886403D01*
X104767372Y-114886401D01*
X104707844Y-114880000D01*
X104060000Y-114880000D01*
X104060000Y-115796988D01*
X104002993Y-115764075D01*
X103875826Y-115730000D01*
X103744174Y-115730000D01*
X103617007Y-115764075D01*
X103560000Y-115796988D01*
X103560000Y-114880000D01*
X103293977Y-114880000D01*
X103226938Y-114860315D01*
X103181183Y-114807511D01*
X103171239Y-114738353D01*
X103200264Y-114674797D01*
X103206296Y-114668319D01*
X104258554Y-113616062D01*
X104258554Y-113616061D01*
X104258557Y-113616059D01*
X104270841Y-113586400D01*
X104283161Y-113556657D01*
X109137760Y-113556657D01*
X109158042Y-113762589D01*
X109164167Y-113782781D01*
X109218111Y-113960611D01*
X109315658Y-114143107D01*
X109315660Y-114143109D01*
X109446932Y-114303067D01*
X109543552Y-114382359D01*
X109606893Y-114434342D01*
X109789389Y-114531889D01*
X109987409Y-114591957D01*
X109987408Y-114591957D01*
X110005872Y-114593775D01*
X110193343Y-114612240D01*
X110399277Y-114591957D01*
X110597297Y-114531889D01*
X110779793Y-114434342D01*
X110939753Y-114303067D01*
X111071028Y-114143107D01*
X111168575Y-113960611D01*
X111228643Y-113762591D01*
X111248926Y-113556657D01*
X111228643Y-113350723D01*
X111168575Y-113152703D01*
X111168573Y-113152700D01*
X111168573Y-113152698D01*
X111140417Y-113100022D01*
X111126175Y-113031619D01*
X111151175Y-112966376D01*
X111207480Y-112925005D01*
X111277213Y-112920643D01*
X111306767Y-112932222D01*
X111306909Y-112931918D01*
X111311737Y-112934169D01*
X111311787Y-112934189D01*
X111311819Y-112934207D01*
X111525901Y-113034035D01*
X111525910Y-113034039D01*
X111754067Y-113095173D01*
X111754078Y-113095175D01*
X111989392Y-113115763D01*
X111989396Y-113115763D01*
X112224709Y-113095175D01*
X112224720Y-113095173D01*
X112452877Y-113034039D01*
X112452886Y-113034035D01*
X112666974Y-112934205D01*
X112750765Y-112875531D01*
X112118802Y-112243568D01*
X112182387Y-112226531D01*
X112296401Y-112160705D01*
X112389493Y-112067613D01*
X112455319Y-111953599D01*
X112472356Y-111890014D01*
X113104319Y-112521977D01*
X113162993Y-112438186D01*
X113262823Y-112224098D01*
X113262827Y-112224089D01*
X113323961Y-111995932D01*
X113323963Y-111995921D01*
X113344551Y-111760607D01*
X113344551Y-111760604D01*
X113323963Y-111525290D01*
X113323961Y-111525279D01*
X113262827Y-111297122D01*
X113262824Y-111297113D01*
X113237137Y-111242028D01*
X113226645Y-111172951D01*
X113255164Y-111109167D01*
X113313641Y-111070927D01*
X113383508Y-111070372D01*
X113437200Y-111101942D01*
X113657628Y-111322370D01*
X113657632Y-111322373D01*
X113657634Y-111322375D01*
X113663998Y-111326627D01*
X113707214Y-111355503D01*
X113785443Y-111371064D01*
X113785445Y-111371064D01*
X113785447Y-111371064D01*
X113838519Y-111360507D01*
X113863676Y-111355503D01*
X113913256Y-111322375D01*
X115143265Y-110092366D01*
X115176393Y-110042786D01*
X115181580Y-110016709D01*
X115191954Y-109964557D01*
X115191954Y-109964552D01*
X115176393Y-109886324D01*
X115176393Y-109886323D01*
X115159771Y-109861448D01*
X115143265Y-109836744D01*
X115143263Y-109836742D01*
X115143260Y-109836738D01*
X113913261Y-108606739D01*
X113913257Y-108606736D01*
X113911681Y-108605683D01*
X113866511Y-108575501D01*
X113863675Y-108573606D01*
X113785447Y-108558046D01*
X113785443Y-108558046D01*
X113707214Y-108573606D01*
X113707213Y-108573606D01*
X113657632Y-108606736D01*
X113657628Y-108606739D01*
X112427629Y-109836738D01*
X112427626Y-109836742D01*
X112394496Y-109886323D01*
X112394496Y-109886324D01*
X112378936Y-109964552D01*
X112378936Y-109964557D01*
X112394496Y-110042785D01*
X112394496Y-110042786D01*
X112427626Y-110092367D01*
X112427629Y-110092371D01*
X112648057Y-110312799D01*
X112681542Y-110374122D01*
X112676558Y-110443814D01*
X112634686Y-110499747D01*
X112569222Y-110524164D01*
X112507972Y-110512862D01*
X112452891Y-110487177D01*
X112452877Y-110487172D01*
X112224720Y-110426038D01*
X112224709Y-110426036D01*
X111989396Y-110405449D01*
X111989392Y-110405449D01*
X111754078Y-110426036D01*
X111754067Y-110426038D01*
X111525910Y-110487172D01*
X111525901Y-110487176D01*
X111311817Y-110587005D01*
X111311815Y-110587006D01*
X111228021Y-110645679D01*
X111228020Y-110645679D01*
X111859985Y-111277643D01*
X111796401Y-111294681D01*
X111682387Y-111360507D01*
X111589295Y-111453599D01*
X111523469Y-111567613D01*
X111506431Y-111631197D01*
X110874467Y-110999232D01*
X110874467Y-110999233D01*
X110815794Y-111083027D01*
X110815793Y-111083029D01*
X110715964Y-111297113D01*
X110715960Y-111297122D01*
X110654826Y-111525279D01*
X110654824Y-111525290D01*
X110634237Y-111760604D01*
X110634237Y-111760607D01*
X110654824Y-111995921D01*
X110654826Y-111995932D01*
X110715960Y-112224089D01*
X110715964Y-112224098D01*
X110815793Y-112438184D01*
X110815814Y-112438219D01*
X110815818Y-112438236D01*
X110818082Y-112443091D01*
X110817106Y-112443545D01*
X110832290Y-112506119D01*
X110809441Y-112572146D01*
X110754521Y-112615340D01*
X110684968Y-112621984D01*
X110649977Y-112609583D01*
X110597297Y-112581425D01*
X110566708Y-112572146D01*
X110399277Y-112521357D01*
X110399275Y-112521356D01*
X110399277Y-112521356D01*
X110193343Y-112501074D01*
X109987410Y-112521356D01*
X109789386Y-112581426D01*
X109681922Y-112638868D01*
X109606893Y-112678972D01*
X109606891Y-112678973D01*
X109606890Y-112678974D01*
X109446932Y-112810246D01*
X109315660Y-112970204D01*
X109218112Y-113152700D01*
X109158042Y-113350724D01*
X109137760Y-113556657D01*
X104283161Y-113556657D01*
X104300500Y-113514800D01*
X104300500Y-111020936D01*
X104283677Y-110980322D01*
X104276354Y-110962643D01*
X104258560Y-110919683D01*
X104258558Y-110919678D01*
X104136819Y-110797939D01*
X104103334Y-110736616D01*
X104100500Y-110710258D01*
X104100500Y-108620937D01*
X104100499Y-108620934D01*
X104081680Y-108575501D01*
X104081680Y-108575500D01*
X104058558Y-108519678D01*
X103711819Y-108172939D01*
X103678334Y-108111616D01*
X103675500Y-108085258D01*
X103675500Y-107449225D01*
X103695185Y-107382186D01*
X103747989Y-107336431D01*
X103817147Y-107326487D01*
X103866540Y-107344910D01*
X103889949Y-107359954D01*
X103997107Y-107391417D01*
X104026336Y-107400000D01*
X104028036Y-107400499D01*
X104028038Y-107400500D01*
X104028039Y-107400500D01*
X104171962Y-107400500D01*
X104171962Y-107400499D01*
X104173661Y-107400000D01*
X105294353Y-107400000D01*
X105314834Y-107542456D01*
X105363949Y-107650000D01*
X105374623Y-107673373D01*
X105468872Y-107782143D01*
X105468874Y-107782144D01*
X105475574Y-107787950D01*
X105474442Y-107789255D01*
X105513291Y-107834082D01*
X105524500Y-107885601D01*
X105524500Y-108309668D01*
X105504815Y-108376707D01*
X105488182Y-108397349D01*
X105435934Y-108449597D01*
X105385931Y-108556828D01*
X105379500Y-108605683D01*
X105379500Y-108954316D01*
X105385931Y-109003171D01*
X105435935Y-109110404D01*
X105527267Y-109201736D01*
X105524443Y-109204559D01*
X105555183Y-109243042D01*
X105562352Y-109312542D01*
X105530808Y-109374886D01*
X105527101Y-109378098D01*
X105527267Y-109378264D01*
X105435935Y-109469595D01*
X105385931Y-109576828D01*
X105379500Y-109625683D01*
X105379500Y-109974316D01*
X105385931Y-110023171D01*
X105385932Y-110023173D01*
X105435935Y-110130404D01*
X105519596Y-110214065D01*
X105626827Y-110264068D01*
X105675683Y-110270500D01*
X105675684Y-110270500D01*
X106124317Y-110270500D01*
X106140601Y-110268356D01*
X106173173Y-110264068D01*
X106280404Y-110214065D01*
X106364065Y-110130404D01*
X106364067Y-110130398D01*
X106365484Y-110128377D01*
X106368513Y-110125955D01*
X106371736Y-110122733D01*
X106372095Y-110123092D01*
X106420061Y-110084752D01*
X106467059Y-110075500D01*
X106839729Y-110075500D01*
X106896024Y-110089015D01*
X106912582Y-110097452D01*
X107010749Y-110113000D01*
X107010754Y-110113000D01*
X107589251Y-110113000D01*
X107687417Y-110097452D01*
X107687418Y-110097451D01*
X107687420Y-110097451D01*
X107805751Y-110037158D01*
X107899658Y-109943251D01*
X107959951Y-109824920D01*
X107959951Y-109824918D01*
X107959952Y-109824917D01*
X107975500Y-109726751D01*
X107975500Y-109223248D01*
X107959952Y-109125082D01*
X107941850Y-109089555D01*
X107899658Y-109006749D01*
X107899654Y-109006745D01*
X107899653Y-109006743D01*
X107852622Y-108959712D01*
X107819137Y-108898389D01*
X107824121Y-108828697D01*
X107865993Y-108772764D01*
X107875207Y-108766492D01*
X108005078Y-108686387D01*
X108123885Y-108567580D01*
X108212091Y-108424577D01*
X108212093Y-108424572D01*
X108264942Y-108265083D01*
X108274999Y-108166650D01*
X108275000Y-108166637D01*
X108275000Y-108150000D01*
X106325001Y-108150000D01*
X106325001Y-108166653D01*
X106326667Y-108182954D01*
X106313897Y-108251647D01*
X106266016Y-108302531D01*
X106198226Y-108319451D01*
X106168617Y-108314603D01*
X106164808Y-108313493D01*
X106105953Y-108275838D01*
X106076798Y-108212342D01*
X106075500Y-108194445D01*
X106075500Y-107885601D01*
X106095185Y-107818562D01*
X106125063Y-107788685D01*
X106124426Y-107787950D01*
X106131120Y-107782147D01*
X106131128Y-107782143D01*
X106208546Y-107692796D01*
X106267324Y-107655023D01*
X106302259Y-107650000D01*
X107050000Y-107650000D01*
X107550000Y-107650000D01*
X108274999Y-107650000D01*
X108274999Y-107633364D01*
X108274998Y-107633347D01*
X108264943Y-107534916D01*
X108212093Y-107375427D01*
X108212091Y-107375422D01*
X108123885Y-107232419D01*
X108005080Y-107113614D01*
X107862077Y-107025408D01*
X107862072Y-107025406D01*
X107702583Y-106972557D01*
X107604150Y-106962500D01*
X107550000Y-106962500D01*
X107550000Y-107650000D01*
X107050000Y-107650000D01*
X107050000Y-106962500D01*
X107049999Y-106962499D01*
X106995864Y-106962500D01*
X106995847Y-106962501D01*
X106897415Y-106972557D01*
X106737927Y-107025406D01*
X106737922Y-107025408D01*
X106594919Y-107113614D01*
X106476109Y-107232424D01*
X106473595Y-107235604D01*
X106471318Y-107237215D01*
X106471006Y-107237528D01*
X106470952Y-107237474D01*
X106416569Y-107275975D01*
X106346770Y-107279108D01*
X106286357Y-107244006D01*
X106263542Y-107210196D01*
X106225377Y-107126627D01*
X106131128Y-107017857D01*
X106010053Y-106940047D01*
X106010051Y-106940046D01*
X106010049Y-106940045D01*
X106010050Y-106940045D01*
X105871963Y-106899500D01*
X105871961Y-106899500D01*
X105728039Y-106899500D01*
X105728036Y-106899500D01*
X105589949Y-106940045D01*
X105468873Y-107017856D01*
X105374623Y-107126626D01*
X105374622Y-107126628D01*
X105314834Y-107257543D01*
X105294353Y-107400000D01*
X104173661Y-107400000D01*
X104310053Y-107359953D01*
X104431128Y-107282143D01*
X104525377Y-107173373D01*
X104585165Y-107042457D01*
X104597767Y-106954801D01*
X104626791Y-106891247D01*
X104673050Y-106857889D01*
X104731794Y-106833557D01*
X104809293Y-106756058D01*
X104809292Y-106756058D01*
X104867861Y-106697489D01*
X105104525Y-106460825D01*
X105165847Y-106427341D01*
X105235539Y-106432325D01*
X105243710Y-106435710D01*
X105322317Y-106471609D01*
X105378439Y-106488088D01*
X105378441Y-106488088D01*
X105378443Y-106488089D01*
X105420878Y-106494189D01*
X105520754Y-106508550D01*
X105520755Y-106508550D01*
X105579242Y-106508550D01*
X105579245Y-106508550D01*
X105591681Y-106506761D01*
X105609327Y-106505500D01*
X105990673Y-106505500D01*
X106008318Y-106506761D01*
X106020755Y-106508550D01*
X106020758Y-106508550D01*
X106079245Y-106508550D01*
X106079246Y-106508550D01*
X106195744Y-106491800D01*
X106221556Y-106488089D01*
X106221557Y-106488088D01*
X106221561Y-106488088D01*
X106277683Y-106471609D01*
X106356284Y-106435713D01*
X106408456Y-106411887D01*
X106408460Y-106411884D01*
X106408468Y-106411881D01*
X106457673Y-106380259D01*
X106457681Y-106380252D01*
X106457684Y-106380250D01*
X106500308Y-106343316D01*
X106566334Y-106286105D01*
X106604639Y-106241899D01*
X106682371Y-106120945D01*
X106706669Y-106067740D01*
X106747176Y-105929785D01*
X106755500Y-105871889D01*
X106755500Y-105300000D01*
X106750348Y-105254272D01*
X106729431Y-105210839D01*
X106728856Y-105209644D01*
X106717504Y-105140703D01*
X106733086Y-105103677D01*
X106729087Y-105101752D01*
X106735148Y-105089164D01*
X106735147Y-105089164D01*
X106735149Y-105089163D01*
X106755500Y-105000000D01*
X106755500Y-104428111D01*
X106747176Y-104370215D01*
X106706669Y-104232260D01*
X106682371Y-104179055D01*
X106682368Y-104179051D01*
X106682368Y-104179049D01*
X106604639Y-104058101D01*
X106604638Y-104058100D01*
X106591083Y-104042457D01*
X106566334Y-104013895D01*
X106537608Y-103989004D01*
X106457684Y-103919749D01*
X106457675Y-103919743D01*
X106457673Y-103919741D01*
X106444282Y-103911135D01*
X106408472Y-103888121D01*
X106408456Y-103888112D01*
X106277689Y-103828393D01*
X106277684Y-103828391D01*
X106277683Y-103828391D01*
X106221561Y-103811912D01*
X106221556Y-103811910D01*
X106091682Y-103793238D01*
X106079246Y-103791450D01*
X106020755Y-103791450D01*
X106020753Y-103791450D01*
X106008319Y-103793238D01*
X105990673Y-103794500D01*
X105609327Y-103794500D01*
X105591681Y-103793238D01*
X105579246Y-103791450D01*
X105579245Y-103791450D01*
X105520754Y-103791450D01*
X105378443Y-103811910D01*
X105378438Y-103811912D01*
X105322310Y-103828393D01*
X105191543Y-103888112D01*
X105191527Y-103888121D01*
X105142331Y-103919738D01*
X105142315Y-103919749D01*
X105036769Y-104011206D01*
X105033666Y-104013895D01*
X105028649Y-104019685D01*
X104995361Y-104058100D01*
X104995360Y-104058101D01*
X104917631Y-104179049D01*
X104917629Y-104179055D01*
X104893331Y-104232260D01*
X104852825Y-104370210D01*
X104852822Y-104370222D01*
X104844500Y-104428109D01*
X104844500Y-105000004D01*
X104849651Y-105045728D01*
X104871144Y-105090356D01*
X104882496Y-105159297D01*
X104866943Y-105196339D01*
X104870913Y-105198251D01*
X104864850Y-105210839D01*
X104844500Y-105299995D01*
X104844500Y-105871886D01*
X104844816Y-105876303D01*
X104843720Y-105876381D01*
X104834484Y-105940583D01*
X104809375Y-105976744D01*
X104497938Y-106288182D01*
X104436617Y-106321666D01*
X104410259Y-106324500D01*
X104345198Y-106324500D01*
X104273599Y-106354158D01*
X104273598Y-106354157D01*
X104243942Y-106366441D01*
X104233783Y-106373230D01*
X104232450Y-106371235D01*
X104185879Y-106396666D01*
X104159521Y-106399500D01*
X104028036Y-106399500D01*
X103889949Y-106440045D01*
X103889945Y-106440047D01*
X103866538Y-106455090D01*
X103799498Y-106474774D01*
X103732459Y-106455088D01*
X103686705Y-106402284D01*
X103675500Y-106350774D01*
X103675500Y-104696673D01*
X103675500Y-104696672D01*
X103633557Y-104595414D01*
X103556058Y-104517915D01*
X103249824Y-104211681D01*
X103216339Y-104150358D01*
X103221323Y-104080666D01*
X103263195Y-104024733D01*
X103328659Y-104000316D01*
X103337505Y-104000000D01*
X104000000Y-104000000D01*
X104000000Y-103288977D01*
X104019685Y-103221938D01*
X104072489Y-103176183D01*
X104141647Y-103166239D01*
X104205203Y-103195264D01*
X104211656Y-103201271D01*
X104293941Y-103283557D01*
X104378941Y-103368557D01*
X104408595Y-103380839D01*
X104408597Y-103380841D01*
X104408598Y-103380841D01*
X104429570Y-103389527D01*
X104480200Y-103410500D01*
X114169523Y-103410500D01*
X114236562Y-103430185D01*
X114257204Y-103446819D01*
X114588181Y-103777796D01*
X114621666Y-103839119D01*
X114624500Y-103865477D01*
X114624500Y-104554800D01*
X114660694Y-104642178D01*
X114660694Y-104642179D01*
X114666443Y-104656059D01*
X115056112Y-105045728D01*
X115443941Y-105433557D01*
X115443946Y-105433559D01*
X115460608Y-105440461D01*
X115460609Y-105440461D01*
X115545197Y-105475499D01*
X115545198Y-105475499D01*
X115545200Y-105475500D01*
X115545201Y-105475500D01*
X117624799Y-105475500D01*
X117624800Y-105475500D01*
X117726058Y-105433557D01*
X117803557Y-105356058D01*
X117803556Y-105356058D01*
X117862125Y-105297489D01*
X118182633Y-104976980D01*
X118243954Y-104943497D01*
X118313646Y-104948481D01*
X118328764Y-104955304D01*
X118366046Y-104975232D01*
X118564066Y-105035300D01*
X118564065Y-105035300D01*
X118582529Y-105037118D01*
X118770000Y-105055583D01*
X118975934Y-105035300D01*
X119173954Y-104975232D01*
X119356450Y-104877685D01*
X119516410Y-104746410D01*
X119647685Y-104586450D01*
X119745232Y-104403954D01*
X119805300Y-104205934D01*
X119825583Y-104000000D01*
X119805300Y-103794066D01*
X119745232Y-103596046D01*
X119647685Y-103413550D01*
X119572701Y-103322181D01*
X119516410Y-103253589D01*
X119398677Y-103156969D01*
X119356450Y-103122315D01*
X119173954Y-103024768D01*
X118975934Y-102964700D01*
X118975932Y-102964699D01*
X118975934Y-102964699D01*
X118770000Y-102944417D01*
X118564067Y-102964699D01*
X118366043Y-103024769D01*
X118284125Y-103068556D01*
X118183550Y-103122315D01*
X118183548Y-103122316D01*
X118183547Y-103122317D01*
X118023589Y-103253589D01*
X117892317Y-103413547D01*
X117892316Y-103413548D01*
X117892315Y-103413550D01*
X117880555Y-103435551D01*
X117794769Y-103596043D01*
X117734699Y-103794067D01*
X117714417Y-104000000D01*
X117734699Y-104205932D01*
X117794769Y-104403957D01*
X117814694Y-104441234D01*
X117828935Y-104509637D01*
X117803934Y-104574880D01*
X117793017Y-104587367D01*
X117492202Y-104888182D01*
X117430881Y-104921666D01*
X117404523Y-104924500D01*
X117092432Y-104924500D01*
X117025393Y-104904815D01*
X116979638Y-104852011D01*
X116969694Y-104782853D01*
X116996578Y-104721836D01*
X117036403Y-104673307D01*
X117107685Y-104586450D01*
X117205232Y-104403954D01*
X117265300Y-104205934D01*
X117285583Y-104000000D01*
X117265300Y-103794066D01*
X117205232Y-103596046D01*
X117107685Y-103413550D01*
X117105181Y-103410499D01*
X117025302Y-103313165D01*
X116997989Y-103248855D01*
X117009780Y-103179987D01*
X117056933Y-103128427D01*
X117121155Y-103110500D01*
X117449799Y-103110500D01*
X117449800Y-103110500D01*
X117551058Y-103068557D01*
X117628557Y-102991058D01*
X117628556Y-102991058D01*
X117687125Y-102932489D01*
X118182633Y-102436980D01*
X118243954Y-102403497D01*
X118313646Y-102408481D01*
X118328764Y-102415304D01*
X118366046Y-102435232D01*
X118564066Y-102495300D01*
X118564065Y-102495300D01*
X118582529Y-102497118D01*
X118770000Y-102515583D01*
X118975934Y-102495300D01*
X119173954Y-102435232D01*
X119356450Y-102337685D01*
X119516410Y-102206410D01*
X119647685Y-102046450D01*
X119745232Y-101863954D01*
X119805300Y-101665934D01*
X119825583Y-101460000D01*
X119805300Y-101254066D01*
X119745232Y-101056046D01*
X119647685Y-100873550D01*
X119593037Y-100806961D01*
X119516410Y-100713589D01*
X119356452Y-100582317D01*
X119356453Y-100582317D01*
X119356450Y-100582315D01*
X119173954Y-100484768D01*
X118975934Y-100424700D01*
X118975932Y-100424699D01*
X118975934Y-100424699D01*
X118770000Y-100404417D01*
X118564067Y-100424699D01*
X118366043Y-100484769D01*
X118290168Y-100525326D01*
X118183550Y-100582315D01*
X118183548Y-100582316D01*
X118183547Y-100582317D01*
X118023589Y-100713589D01*
X117892317Y-100873547D01*
X117892315Y-100873550D01*
X117880050Y-100896496D01*
X117813858Y-101020331D01*
X117764895Y-101070175D01*
X117696757Y-101085635D01*
X117631078Y-101061803D01*
X117588709Y-101006245D01*
X117580500Y-100961877D01*
X117580500Y-100550476D01*
X117600185Y-100483437D01*
X117616815Y-100462799D01*
X118043295Y-100036318D01*
X118104618Y-100002834D01*
X118130976Y-100000000D01*
X120575500Y-100000000D01*
X120642539Y-100019685D01*
X120688294Y-100072489D01*
X120699500Y-100124000D01*
X120699500Y-114497689D01*
X120699413Y-114502326D01*
X120682338Y-114958652D01*
X120681645Y-114967898D01*
X120630776Y-115419376D01*
X120629394Y-115428546D01*
X120544929Y-115874952D01*
X120542866Y-115883992D01*
X120425275Y-116322849D01*
X120422542Y-116331711D01*
X120272483Y-116760554D01*
X120269095Y-116769186D01*
X120087406Y-117185619D01*
X120083382Y-117193973D01*
X119871095Y-117595640D01*
X119866459Y-117603671D01*
X119624734Y-117988375D01*
X119619510Y-117996037D01*
X119349723Y-118361586D01*
X119343941Y-118368836D01*
X119047572Y-118713223D01*
X119041265Y-118720020D01*
X118720020Y-119041265D01*
X118713223Y-119047572D01*
X118368836Y-119343941D01*
X118361586Y-119349723D01*
X117996037Y-119619510D01*
X117988375Y-119624734D01*
X117603671Y-119866459D01*
X117595640Y-119871095D01*
X117193973Y-120083382D01*
X117185619Y-120087406D01*
X116769186Y-120269095D01*
X116760554Y-120272483D01*
X116331711Y-120422542D01*
X116322849Y-120425275D01*
X115883992Y-120542866D01*
X115874952Y-120544929D01*
X115428546Y-120629394D01*
X115419376Y-120630776D01*
X114967898Y-120681645D01*
X114958652Y-120682338D01*
X114529997Y-120698377D01*
X114502324Y-120699413D01*
X114497689Y-120699500D01*
X85502311Y-120699500D01*
X85497675Y-120699413D01*
X85467926Y-120698299D01*
X85041347Y-120682338D01*
X85032101Y-120681645D01*
X84580623Y-120630776D01*
X84571453Y-120629394D01*
X84125047Y-120544929D01*
X84116007Y-120542866D01*
X83677150Y-120425275D01*
X83668288Y-120422542D01*
X83239445Y-120272483D01*
X83230813Y-120269095D01*
X82814380Y-120087406D01*
X82806026Y-120083382D01*
X82404359Y-119871095D01*
X82396328Y-119866459D01*
X82011624Y-119624734D01*
X82003962Y-119619510D01*
X81762806Y-119441529D01*
X81638409Y-119349719D01*
X81631163Y-119343941D01*
X81286776Y-119047572D01*
X81279979Y-119041265D01*
X80958734Y-118720020D01*
X80952427Y-118713223D01*
X80656058Y-118368836D01*
X80650276Y-118361586D01*
X80611225Y-118308674D01*
X80380489Y-117996037D01*
X80375265Y-117988375D01*
X80133540Y-117603671D01*
X80128904Y-117595640D01*
X79916617Y-117193973D01*
X79912593Y-117185619D01*
X79764394Y-116845946D01*
X80649500Y-116845946D01*
X80649500Y-117154059D01*
X80689717Y-117459542D01*
X80769464Y-117757162D01*
X80887376Y-118041826D01*
X80887381Y-118041837D01*
X80980014Y-118202280D01*
X81041438Y-118308670D01*
X81041440Y-118308673D01*
X81041441Y-118308674D01*
X81229007Y-118553115D01*
X81229013Y-118553122D01*
X81446877Y-118770986D01*
X81446883Y-118770991D01*
X81691330Y-118958562D01*
X81845500Y-119047572D01*
X81958162Y-119112618D01*
X81958167Y-119112620D01*
X81958170Y-119112622D01*
X82242836Y-119230535D01*
X82540456Y-119310282D01*
X82845940Y-119350500D01*
X82845947Y-119350500D01*
X83154053Y-119350500D01*
X83154060Y-119350500D01*
X83459544Y-119310282D01*
X83757164Y-119230535D01*
X84041830Y-119112622D01*
X84308670Y-118958562D01*
X84553117Y-118770991D01*
X84770991Y-118553117D01*
X84958562Y-118308670D01*
X85112622Y-118041830D01*
X85230535Y-117757164D01*
X85310282Y-117459544D01*
X85350500Y-117154060D01*
X85350500Y-116845940D01*
X85310282Y-116540456D01*
X85230535Y-116242836D01*
X85112622Y-115958170D01*
X85112620Y-115958167D01*
X85112618Y-115958162D01*
X85036340Y-115826046D01*
X84958562Y-115691330D01*
X84770991Y-115446883D01*
X84770986Y-115446877D01*
X84553122Y-115229013D01*
X84553115Y-115229007D01*
X84308674Y-115041441D01*
X84308673Y-115041440D01*
X84308670Y-115041438D01*
X84173312Y-114963289D01*
X84041837Y-114887381D01*
X84041826Y-114887376D01*
X83757162Y-114769464D01*
X83459542Y-114689717D01*
X83154069Y-114649501D01*
X83154066Y-114649500D01*
X83154060Y-114649500D01*
X82845940Y-114649500D01*
X82845934Y-114649500D01*
X82845930Y-114649501D01*
X82540457Y-114689717D01*
X82242837Y-114769464D01*
X81958173Y-114887376D01*
X81958162Y-114887381D01*
X81691325Y-115041441D01*
X81446884Y-115229007D01*
X81446877Y-115229013D01*
X81229013Y-115446877D01*
X81229007Y-115446884D01*
X81041441Y-115691325D01*
X80887381Y-115958162D01*
X80887376Y-115958173D01*
X80769464Y-116242837D01*
X80689717Y-116540457D01*
X80649501Y-116845930D01*
X80649500Y-116845946D01*
X79764394Y-116845946D01*
X79730904Y-116769186D01*
X79727516Y-116760554D01*
X79577455Y-116331705D01*
X79574724Y-116322849D01*
X79457133Y-115883992D01*
X79455070Y-115874952D01*
X79434091Y-115764075D01*
X79370603Y-115428535D01*
X79369223Y-115419376D01*
X79361667Y-115352317D01*
X79318353Y-114967889D01*
X79317661Y-114958651D01*
X79316831Y-114936474D01*
X79300587Y-114502325D01*
X79300500Y-114497689D01*
X79300500Y-112905096D01*
X87649513Y-112905096D01*
X87669795Y-113111028D01*
X87682436Y-113152700D01*
X87729864Y-113309050D01*
X87827411Y-113491546D01*
X87827413Y-113491548D01*
X87958685Y-113651506D01*
X88055305Y-113730798D01*
X88118646Y-113782781D01*
X88301142Y-113880328D01*
X88499162Y-113940396D01*
X88499161Y-113940396D01*
X88517625Y-113942214D01*
X88705096Y-113960679D01*
X88911030Y-113940396D01*
X89109050Y-113880328D01*
X89161732Y-113852168D01*
X89230132Y-113837926D01*
X89295376Y-113862925D01*
X89336748Y-113919229D01*
X89341112Y-113988962D01*
X89329534Y-114018522D01*
X89329836Y-114018663D01*
X89327612Y-114023432D01*
X89327582Y-114023509D01*
X89327552Y-114023560D01*
X89227718Y-114237655D01*
X89227714Y-114237664D01*
X89166580Y-114465821D01*
X89166578Y-114465832D01*
X89145991Y-114701146D01*
X89145991Y-114701149D01*
X89166578Y-114936463D01*
X89166580Y-114936474D01*
X89227714Y-115164631D01*
X89227718Y-115164640D01*
X89327546Y-115378724D01*
X89386221Y-115462520D01*
X90018185Y-114830555D01*
X90035223Y-114894141D01*
X90101049Y-115008155D01*
X90194141Y-115101247D01*
X90308155Y-115167073D01*
X90371739Y-115184110D01*
X89739774Y-115816074D01*
X89823565Y-115874746D01*
X89823569Y-115874748D01*
X90037655Y-115974577D01*
X90037664Y-115974581D01*
X90265821Y-116035715D01*
X90265832Y-116035717D01*
X90501146Y-116056305D01*
X90501150Y-116056305D01*
X90736463Y-116035717D01*
X90736474Y-116035715D01*
X90964631Y-115974581D01*
X90964640Y-115974577D01*
X91178728Y-115874747D01*
X91262519Y-115816073D01*
X90630556Y-115184110D01*
X90694141Y-115167073D01*
X90808155Y-115101247D01*
X90901247Y-115008155D01*
X90967073Y-114894141D01*
X90984110Y-114830556D01*
X91616073Y-115462519D01*
X91674747Y-115378728D01*
X91774577Y-115164640D01*
X91774581Y-115164631D01*
X91835715Y-114936474D01*
X91835717Y-114936463D01*
X91856305Y-114701149D01*
X91856305Y-114701146D01*
X91835717Y-114465832D01*
X91835715Y-114465821D01*
X91774581Y-114237664D01*
X91774577Y-114237655D01*
X91674749Y-114023572D01*
X91616073Y-113939774D01*
X90984110Y-114571738D01*
X90967073Y-114508155D01*
X90901247Y-114394141D01*
X90808155Y-114301049D01*
X90694141Y-114235223D01*
X90630555Y-114218185D01*
X91262520Y-113586221D01*
X91178724Y-113527546D01*
X90964640Y-113427718D01*
X90964631Y-113427714D01*
X90736474Y-113366580D01*
X90736463Y-113366578D01*
X90501150Y-113345991D01*
X90501146Y-113345991D01*
X90265832Y-113366578D01*
X90265821Y-113366580D01*
X90037664Y-113427714D01*
X90037655Y-113427718D01*
X89823560Y-113527552D01*
X89823509Y-113527582D01*
X89823483Y-113527588D01*
X89818663Y-113529836D01*
X89818210Y-113528866D01*
X89755606Y-113544044D01*
X89689583Y-113521181D01*
X89646401Y-113466253D01*
X89639771Y-113396698D01*
X89652167Y-113361733D01*
X89680328Y-113309050D01*
X89740396Y-113111030D01*
X89760679Y-112905096D01*
X89740396Y-112699162D01*
X89680328Y-112501142D01*
X89582781Y-112318646D01*
X89505181Y-112224089D01*
X89451506Y-112158685D01*
X89331199Y-112059953D01*
X89291546Y-112027411D01*
X89109050Y-111929864D01*
X88911030Y-111869796D01*
X88911028Y-111869795D01*
X88911030Y-111869795D01*
X88705096Y-111849513D01*
X88499163Y-111869795D01*
X88301139Y-111929865D01*
X88244848Y-111959954D01*
X88118646Y-112027411D01*
X88118644Y-112027412D01*
X88118643Y-112027413D01*
X87958685Y-112158685D01*
X87827413Y-112318643D01*
X87729865Y-112501139D01*
X87669795Y-112699163D01*
X87649513Y-112905096D01*
X79300500Y-112905096D01*
X79300500Y-111109045D01*
X85853462Y-111109045D01*
X85873744Y-111314977D01*
X85890758Y-111371064D01*
X85933813Y-111512999D01*
X86031360Y-111695495D01*
X86031362Y-111695497D01*
X86162634Y-111855455D01*
X86253303Y-111929864D01*
X86322595Y-111986730D01*
X86505091Y-112084277D01*
X86703111Y-112144345D01*
X86703110Y-112144345D01*
X86721574Y-112146163D01*
X86909045Y-112164628D01*
X87114979Y-112144345D01*
X87312999Y-112084277D01*
X87495495Y-111986730D01*
X87655455Y-111855455D01*
X87786730Y-111695495D01*
X87884277Y-111512999D01*
X87944345Y-111314979D01*
X87964628Y-111109045D01*
X87944345Y-110903111D01*
X87884277Y-110705091D01*
X87786730Y-110522595D01*
X87734747Y-110459254D01*
X87655455Y-110362634D01*
X87495497Y-110231362D01*
X87495498Y-110231362D01*
X87495495Y-110231360D01*
X87312999Y-110133813D01*
X87114979Y-110073745D01*
X87114977Y-110073744D01*
X87114979Y-110073744D01*
X86909045Y-110053462D01*
X86703112Y-110073744D01*
X86505088Y-110133814D01*
X86444045Y-110166443D01*
X86322595Y-110231360D01*
X86322593Y-110231361D01*
X86322592Y-110231362D01*
X86162634Y-110362634D01*
X86031362Y-110522592D01*
X86031360Y-110522595D01*
X86010761Y-110561133D01*
X85933814Y-110705088D01*
X85873744Y-110903112D01*
X85853462Y-111109045D01*
X79300500Y-111109045D01*
X79300500Y-109312991D01*
X83706485Y-109312991D01*
X83706485Y-109312996D01*
X83722045Y-109391224D01*
X83722045Y-109391225D01*
X83755175Y-109440806D01*
X83755178Y-109440810D01*
X84985177Y-110670809D01*
X84985181Y-110670812D01*
X84985183Y-110670814D01*
X85034763Y-110703942D01*
X85112992Y-110719503D01*
X85112994Y-110719503D01*
X85112996Y-110719503D01*
X85165148Y-110709129D01*
X85191225Y-110703942D01*
X85240805Y-110670814D01*
X86263775Y-109647844D01*
X88850000Y-109647844D01*
X88856401Y-109707372D01*
X88856403Y-109707379D01*
X88906645Y-109842086D01*
X88906649Y-109842093D01*
X88992809Y-109957187D01*
X88992812Y-109957190D01*
X89107906Y-110043350D01*
X89107913Y-110043354D01*
X89242620Y-110093596D01*
X89242627Y-110093598D01*
X89302155Y-110099999D01*
X89302172Y-110100000D01*
X89700000Y-110100000D01*
X89700000Y-109150000D01*
X88850000Y-109150000D01*
X88850000Y-109647844D01*
X86263775Y-109647844D01*
X86470814Y-109440805D01*
X86503942Y-109391225D01*
X86513097Y-109345200D01*
X86519503Y-109312996D01*
X86519503Y-109312991D01*
X86503942Y-109234763D01*
X86503942Y-109234762D01*
X86484165Y-109205165D01*
X86470814Y-109185183D01*
X86470812Y-109185181D01*
X86470809Y-109185177D01*
X85240810Y-107955178D01*
X85240806Y-107955175D01*
X85191224Y-107922045D01*
X85112996Y-107906485D01*
X85112992Y-107906485D01*
X85034763Y-107922045D01*
X85034762Y-107922045D01*
X84985181Y-107955175D01*
X84985177Y-107955178D01*
X83755178Y-109185177D01*
X83755175Y-109185181D01*
X83722045Y-109234762D01*
X83722045Y-109234763D01*
X83706485Y-109312991D01*
X79300500Y-109312991D01*
X79300500Y-93450765D01*
X80402786Y-93450765D01*
X80517623Y-93493597D01*
X80517627Y-93493598D01*
X80577155Y-93499999D01*
X80577172Y-93500000D01*
X81422828Y-93500000D01*
X81422844Y-93499999D01*
X81482371Y-93493598D01*
X81597210Y-93450765D01*
X83902786Y-93450765D01*
X84017623Y-93493597D01*
X84017627Y-93493598D01*
X84077155Y-93499999D01*
X84077172Y-93500000D01*
X84922828Y-93500000D01*
X84922844Y-93499999D01*
X84982371Y-93493598D01*
X85097213Y-93450764D01*
X84500000Y-92853552D01*
X83902786Y-93450765D01*
X81597210Y-93450765D01*
X81597213Y-93450764D01*
X81000000Y-92853552D01*
X80402786Y-93450765D01*
X79300500Y-93450765D01*
X79300500Y-93021448D01*
X80125000Y-93021448D01*
X80646448Y-92500000D01*
X80646448Y-92499999D01*
X80646447Y-92499998D01*
X81353551Y-92499998D01*
X81353551Y-92499999D01*
X81874999Y-93021448D01*
X83625000Y-93021448D01*
X84146448Y-92500000D01*
X84146448Y-92499999D01*
X83625000Y-91978551D01*
X83625000Y-93021448D01*
X81874999Y-93021448D01*
X81875000Y-93021447D01*
X81875000Y-91978551D01*
X81874999Y-91978550D01*
X81353551Y-92499998D01*
X80646447Y-92499998D01*
X80125000Y-91978551D01*
X80125000Y-93021448D01*
X79300500Y-93021448D01*
X79300500Y-91549234D01*
X80402785Y-91549234D01*
X80999999Y-92146448D01*
X81000000Y-92146448D01*
X81597212Y-91549234D01*
X83902785Y-91549234D01*
X84499999Y-92146448D01*
X84500000Y-92146448D01*
X85097213Y-91549233D01*
X85097212Y-91549232D01*
X84982380Y-91506403D01*
X84982372Y-91506401D01*
X84922844Y-91500000D01*
X84077155Y-91500000D01*
X84017627Y-91506401D01*
X84017620Y-91506403D01*
X83902785Y-91549234D01*
X81597212Y-91549234D01*
X81597213Y-91549233D01*
X81597212Y-91549232D01*
X81482380Y-91506403D01*
X81482372Y-91506401D01*
X81422844Y-91500000D01*
X80577155Y-91500000D01*
X80517627Y-91506401D01*
X80517620Y-91506403D01*
X80402785Y-91549234D01*
X79300500Y-91549234D01*
X79300500Y-85502310D01*
X79300587Y-85497674D01*
X79310021Y-85245543D01*
X79317661Y-85041334D01*
X79318354Y-85032101D01*
X79324541Y-84977190D01*
X79369224Y-84580610D01*
X79370602Y-84571468D01*
X79455070Y-84125045D01*
X79457133Y-84116007D01*
X79535974Y-83821769D01*
X79574725Y-83677143D01*
X79577452Y-83668301D01*
X79727519Y-83239435D01*
X79730904Y-83230813D01*
X79745592Y-83197150D01*
X79898821Y-82845946D01*
X80649500Y-82845946D01*
X80649500Y-83154053D01*
X80649501Y-83154069D01*
X80689717Y-83459542D01*
X80769464Y-83757162D01*
X80887376Y-84041826D01*
X80887381Y-84041837D01*
X80961434Y-84170099D01*
X81041438Y-84308670D01*
X81041440Y-84308673D01*
X81041441Y-84308674D01*
X81229007Y-84553115D01*
X81229013Y-84553122D01*
X81446877Y-84770986D01*
X81446884Y-84770992D01*
X81565600Y-84862086D01*
X81691330Y-84958562D01*
X81834720Y-85041348D01*
X81958162Y-85112618D01*
X81958167Y-85112620D01*
X81958170Y-85112622D01*
X82242836Y-85230535D01*
X82540456Y-85310282D01*
X82845940Y-85350500D01*
X82845947Y-85350500D01*
X83154053Y-85350500D01*
X83154060Y-85350500D01*
X83459544Y-85310282D01*
X83757164Y-85230535D01*
X84041830Y-85112622D01*
X84308670Y-84958562D01*
X84553117Y-84770991D01*
X84770991Y-84553117D01*
X84958562Y-84308670D01*
X85112622Y-84041830D01*
X85230535Y-83757164D01*
X85310282Y-83459544D01*
X85350500Y-83154060D01*
X85350500Y-82845940D01*
X85310282Y-82540456D01*
X85230535Y-82242836D01*
X85112622Y-81958170D01*
X85112620Y-81958167D01*
X85112618Y-81958162D01*
X85030800Y-81816450D01*
X84958562Y-81691330D01*
X84770991Y-81446883D01*
X84770986Y-81446877D01*
X84553122Y-81229013D01*
X84553115Y-81229007D01*
X84308674Y-81041441D01*
X84308673Y-81041440D01*
X84308670Y-81041438D01*
X84202280Y-80980014D01*
X84041837Y-80887381D01*
X84041826Y-80887376D01*
X83757162Y-80769464D01*
X83459542Y-80689717D01*
X83154069Y-80649501D01*
X83154066Y-80649500D01*
X83154060Y-80649500D01*
X82845940Y-80649500D01*
X82845934Y-80649500D01*
X82845930Y-80649501D01*
X82540457Y-80689717D01*
X82242837Y-80769464D01*
X81958173Y-80887376D01*
X81958162Y-80887381D01*
X81691325Y-81041441D01*
X81446884Y-81229007D01*
X81446877Y-81229013D01*
X81229013Y-81446877D01*
X81229007Y-81446884D01*
X81041441Y-81691325D01*
X80887381Y-81958162D01*
X80887376Y-81958173D01*
X80769464Y-82242837D01*
X80689717Y-82540457D01*
X80649501Y-82845930D01*
X80649500Y-82845946D01*
X79898821Y-82845946D01*
X79912595Y-82814375D01*
X79916617Y-82806026D01*
X80128907Y-82404352D01*
X80133540Y-82396328D01*
X80203126Y-82285583D01*
X80375271Y-82011614D01*
X80380482Y-82003971D01*
X80650292Y-81638392D01*
X80656058Y-81631163D01*
X80680424Y-81602850D01*
X80952427Y-81286776D01*
X80958721Y-81279992D01*
X81279992Y-80958721D01*
X81286776Y-80952427D01*
X81362367Y-80887376D01*
X81631168Y-80656053D01*
X81638392Y-80650292D01*
X82003971Y-80380482D01*
X82011614Y-80375271D01*
X82396334Y-80133536D01*
X82404352Y-80128907D01*
X82806031Y-79916614D01*
X82814375Y-79912595D01*
X83230823Y-79730899D01*
X83239435Y-79727519D01*
X83668301Y-79577452D01*
X83677143Y-79574725D01*
X83934741Y-79505703D01*
X84116007Y-79457133D01*
X84125047Y-79455070D01*
X84571468Y-79370602D01*
X84580610Y-79369224D01*
X85032112Y-79318353D01*
X85041334Y-79317661D01*
X85497675Y-79300587D01*
X85502311Y-79300500D01*
X85547595Y-79300500D01*
X92960438Y-79300500D01*
X97268745Y-79300500D01*
X97335784Y-79320185D01*
G37*
G04 #@! TD.AperFunction*
G04 #@! TA.AperFunction,Conductor*
G36*
X99520345Y-106496785D02*
G01*
X99576279Y-106538656D01*
X99600695Y-106604121D01*
X99596088Y-106647560D01*
X99576496Y-106715000D01*
X101376000Y-106715000D01*
X101443039Y-106734685D01*
X101488794Y-106787489D01*
X101500000Y-106839000D01*
X101500000Y-106965000D01*
X101626000Y-106965000D01*
X101693039Y-106984685D01*
X101738794Y-107037489D01*
X101750000Y-107089000D01*
X101750000Y-107766455D01*
X101755537Y-107775711D01*
X101759500Y-107806811D01*
X101759500Y-107823988D01*
X101739815Y-107891027D01*
X101723181Y-107911669D01*
X101503149Y-108131700D01*
X101462927Y-108158578D01*
X101443942Y-108166442D01*
X101366444Y-108243940D01*
X101366443Y-108243941D01*
X101366443Y-108243942D01*
X101360809Y-108257543D01*
X101335166Y-108319451D01*
X101324500Y-108345200D01*
X101324500Y-111254800D01*
X101361424Y-111343942D01*
X101366443Y-111356058D01*
X101366445Y-111356060D01*
X101465048Y-111454663D01*
X101498533Y-111515986D01*
X101500105Y-111559989D01*
X101494353Y-111599998D01*
X101494353Y-111599999D01*
X101514834Y-111742456D01*
X101563726Y-111849513D01*
X101574623Y-111873373D01*
X101668872Y-111982143D01*
X101789947Y-112059953D01*
X101789950Y-112059954D01*
X101789949Y-112059954D01*
X101928036Y-112100499D01*
X101928038Y-112100500D01*
X101928039Y-112100500D01*
X102071962Y-112100500D01*
X102071962Y-112100499D01*
X102210053Y-112059953D01*
X102331128Y-111982143D01*
X102425377Y-111873373D01*
X102485165Y-111742457D01*
X102490993Y-111701919D01*
X102520017Y-111638364D01*
X102578795Y-111600589D01*
X102648664Y-111600588D01*
X102707443Y-111638362D01*
X102726525Y-111668054D01*
X102768791Y-111760604D01*
X102774623Y-111773373D01*
X102868872Y-111882143D01*
X102989947Y-111959953D01*
X102989950Y-111959954D01*
X102989949Y-111959954D01*
X103128036Y-112000499D01*
X103128038Y-112000500D01*
X103128039Y-112000500D01*
X103271962Y-112000500D01*
X103271962Y-112000499D01*
X103290563Y-111995037D01*
X103360432Y-111995036D01*
X103419211Y-112032809D01*
X103448237Y-112096364D01*
X103449500Y-112114014D01*
X103449500Y-113109523D01*
X103429815Y-113176562D01*
X103413181Y-113197204D01*
X101991836Y-114618549D01*
X101930513Y-114652034D01*
X101904155Y-114654868D01*
X100614831Y-114654868D01*
X100582359Y-114668319D01*
X100543268Y-114684511D01*
X100513573Y-114696811D01*
X100513571Y-114696812D01*
X99686012Y-115524371D01*
X99624689Y-115557856D01*
X99554997Y-115552872D01*
X99502478Y-115515355D01*
X99476410Y-115483590D01*
X99476408Y-115483588D01*
X99476407Y-115483587D01*
X99380434Y-115404825D01*
X99316450Y-115352315D01*
X99133954Y-115254768D01*
X98935934Y-115194700D01*
X98935932Y-115194699D01*
X98935934Y-115194699D01*
X98730000Y-115174417D01*
X98524067Y-115194699D01*
X98326043Y-115254769D01*
X98217437Y-115312821D01*
X98143550Y-115352315D01*
X98143548Y-115352316D01*
X98143547Y-115352317D01*
X97983589Y-115483589D01*
X97852317Y-115643547D01*
X97754769Y-115826043D01*
X97694699Y-116024067D01*
X97674417Y-116230000D01*
X97694699Y-116435932D01*
X97694700Y-116435934D01*
X97754768Y-116633954D01*
X97852315Y-116816450D01*
X97852317Y-116816452D01*
X97930595Y-116911836D01*
X97957907Y-116976146D01*
X97946116Y-117045013D01*
X97898963Y-117096573D01*
X97834741Y-117114500D01*
X97085259Y-117114500D01*
X97018220Y-117094815D01*
X96972465Y-117042011D01*
X96962521Y-116972853D01*
X96989405Y-116911836D01*
X97043483Y-116845940D01*
X97067685Y-116816450D01*
X97165232Y-116633954D01*
X97225300Y-116435934D01*
X97245583Y-116230000D01*
X97225300Y-116024066D01*
X97165232Y-115826046D01*
X97067685Y-115643550D01*
X96962478Y-115515354D01*
X96936410Y-115483589D01*
X96818677Y-115386969D01*
X96776450Y-115352315D01*
X96593954Y-115254768D01*
X96395934Y-115194700D01*
X96395932Y-115194699D01*
X96395934Y-115194699D01*
X96190000Y-115174417D01*
X95984067Y-115194699D01*
X95870970Y-115229007D01*
X95786046Y-115254768D01*
X95786043Y-115254769D01*
X95786041Y-115254770D01*
X95745506Y-115276436D01*
X95677103Y-115290677D01*
X95611860Y-115265676D01*
X95599374Y-115254758D01*
X95511819Y-115167203D01*
X95478334Y-115105880D01*
X95475500Y-115079522D01*
X95475500Y-111014005D01*
X95495185Y-110946966D01*
X95511819Y-110926324D01*
X96037643Y-110400500D01*
X96633557Y-109804587D01*
X96654179Y-109754800D01*
X96675500Y-109703328D01*
X96675500Y-109028766D01*
X96695185Y-108961727D01*
X96747989Y-108915972D01*
X96817147Y-108906028D01*
X96880703Y-108935053D01*
X96912934Y-108978680D01*
X96945781Y-109053073D01*
X96945784Y-109053077D01*
X96945785Y-109053079D01*
X97021921Y-109129215D01*
X97120420Y-109172707D01*
X97144495Y-109175500D01*
X98680504Y-109175499D01*
X98704580Y-109172707D01*
X98756006Y-109150000D01*
X98813591Y-109124574D01*
X98814605Y-109126870D01*
X98865576Y-109110259D01*
X98933166Y-109127960D01*
X98956909Y-109146524D01*
X99288181Y-109477796D01*
X99321666Y-109539119D01*
X99324500Y-109565477D01*
X99324500Y-110425500D01*
X99304815Y-110492539D01*
X99252011Y-110538294D01*
X99200500Y-110549500D01*
X97830247Y-110549500D01*
X97771770Y-110561131D01*
X97771769Y-110561132D01*
X97705447Y-110605447D01*
X97661132Y-110671769D01*
X97661131Y-110671770D01*
X97649500Y-110730247D01*
X97649500Y-112469752D01*
X97661131Y-112528229D01*
X97661132Y-112528230D01*
X97705447Y-112594552D01*
X97771769Y-112638867D01*
X97771770Y-112638868D01*
X97830247Y-112650499D01*
X97830250Y-112650500D01*
X97830252Y-112650500D01*
X99569750Y-112650500D01*
X99569751Y-112650499D01*
X99584568Y-112647552D01*
X99628229Y-112638868D01*
X99628229Y-112638867D01*
X99628231Y-112638867D01*
X99694552Y-112594552D01*
X99738867Y-112528231D01*
X99738867Y-112528229D01*
X99738868Y-112528229D01*
X99750499Y-112469752D01*
X99750500Y-112469750D01*
X99750500Y-110890478D01*
X99770185Y-110823439D01*
X99786820Y-110802796D01*
X99833556Y-110756060D01*
X99833556Y-110756059D01*
X99833558Y-110756058D01*
X99875500Y-110654800D01*
X99875500Y-110545200D01*
X99875500Y-109345200D01*
X99838055Y-109254800D01*
X99833557Y-109243941D01*
X99679169Y-109089553D01*
X99645685Y-109028231D01*
X99650669Y-108958540D01*
X99692540Y-108902606D01*
X99731917Y-108882896D01*
X99810050Y-108859954D01*
X99810050Y-108859953D01*
X99810053Y-108859953D01*
X99931128Y-108782143D01*
X100025377Y-108673373D01*
X100085165Y-108542457D01*
X100105647Y-108400000D01*
X100085165Y-108257543D01*
X100025377Y-108126627D01*
X99931128Y-108017857D01*
X99810053Y-107940047D01*
X99810051Y-107940046D01*
X99810049Y-107940045D01*
X99810050Y-107940045D01*
X99762004Y-107925938D01*
X99709257Y-107894642D01*
X99349531Y-107534916D01*
X99029614Y-107215000D01*
X99576496Y-107215000D01*
X99618968Y-107361195D01*
X99701278Y-107500374D01*
X99701285Y-107500383D01*
X99815616Y-107614714D01*
X99815625Y-107614721D01*
X99954804Y-107697031D01*
X100110089Y-107742145D01*
X100131000Y-107743789D01*
X100631000Y-107743789D01*
X100651910Y-107742145D01*
X100807194Y-107697031D01*
X100877379Y-107655525D01*
X100945103Y-107638342D01*
X101003621Y-107655525D01*
X101073805Y-107697031D01*
X101229089Y-107742145D01*
X101250000Y-107743789D01*
X101250000Y-107215000D01*
X100631000Y-107215000D01*
X100631000Y-107743789D01*
X100131000Y-107743789D01*
X100131000Y-107215000D01*
X99576496Y-107215000D01*
X99029614Y-107215000D01*
X98952294Y-107137680D01*
X98918810Y-107076358D01*
X98923794Y-107006667D01*
X98952292Y-106962321D01*
X99296057Y-106618559D01*
X99296057Y-106618557D01*
X99313495Y-106601120D01*
X99313496Y-106601117D01*
X99389331Y-106525283D01*
X99450654Y-106491800D01*
X99520345Y-106496785D01*
G37*
G04 #@! TD.AperFunction*
G04 #@! TA.AperFunction,Conductor*
G36*
X99067539Y-104019685D02*
G01*
X99113294Y-104072489D01*
X99124500Y-104124000D01*
X99124500Y-105959522D01*
X99104815Y-106026561D01*
X99088181Y-106047203D01*
X98906443Y-106228941D01*
X98906442Y-106228942D01*
X98747200Y-106388182D01*
X98685879Y-106421666D01*
X98659521Y-106424500D01*
X97144486Y-106424500D01*
X97144174Y-106424519D01*
X97144096Y-106424500D01*
X97140916Y-106424501D01*
X97140916Y-106423762D01*
X97076113Y-106408721D01*
X97027398Y-106358636D01*
X97013495Y-106290163D01*
X97038817Y-106225044D01*
X97049355Y-106213051D01*
X98833557Y-104428850D01*
X98875500Y-104327592D01*
X98875500Y-104217992D01*
X98875500Y-104124000D01*
X98895185Y-104056961D01*
X98947989Y-104011206D01*
X98999500Y-104000000D01*
X99000500Y-104000000D01*
X99067539Y-104019685D01*
G37*
G04 #@! TD.AperFunction*
G04 #@! TA.AperFunction,Conductor*
G36*
X117068062Y-100019685D02*
G01*
X117113817Y-100072489D01*
X117123761Y-100141647D01*
X117094736Y-100205203D01*
X117088704Y-100211681D01*
X117071444Y-100228940D01*
X117071443Y-100228941D01*
X117071443Y-100228942D01*
X117069058Y-100234699D01*
X117029500Y-100330199D01*
X117029500Y-100494984D01*
X117009815Y-100562023D01*
X116957011Y-100607778D01*
X116887853Y-100617722D01*
X116826836Y-100590838D01*
X116816453Y-100582317D01*
X116816451Y-100582316D01*
X116816450Y-100582315D01*
X116633954Y-100484768D01*
X116435934Y-100424700D01*
X116435932Y-100424699D01*
X116435934Y-100424699D01*
X116230000Y-100404417D01*
X116024067Y-100424699D01*
X115826043Y-100484769D01*
X115750168Y-100525326D01*
X115643550Y-100582315D01*
X115643548Y-100582316D01*
X115643547Y-100582317D01*
X115483589Y-100713589D01*
X115352317Y-100873547D01*
X115352315Y-100873550D01*
X115340050Y-100896496D01*
X115254769Y-101056043D01*
X115194699Y-101254067D01*
X115174417Y-101460000D01*
X115194699Y-101665932D01*
X115197133Y-101673956D01*
X115252492Y-101856452D01*
X115254769Y-101863956D01*
X115352317Y-102046453D01*
X115360838Y-102056836D01*
X115388150Y-102121147D01*
X115376358Y-102190014D01*
X115329205Y-102241574D01*
X115264984Y-102259500D01*
X106342940Y-102259500D01*
X106275901Y-102239815D01*
X106255259Y-102223181D01*
X105544258Y-101512181D01*
X105510773Y-101450858D01*
X105515757Y-101381167D01*
X105557628Y-101325233D01*
X105623093Y-101300816D01*
X105631939Y-101300500D01*
X105794560Y-101300500D01*
X105794562Y-101300500D01*
X105870989Y-101280021D01*
X105939511Y-101240460D01*
X105995460Y-101184511D01*
X106093152Y-101086819D01*
X106154475Y-101053334D01*
X106180833Y-101050500D01*
X106188656Y-101050500D01*
X106255695Y-101070185D01*
X106291143Y-101110765D01*
X106293053Y-101109429D01*
X106299275Y-101118315D01*
X106299276Y-101118316D01*
X106384184Y-101203224D01*
X106493013Y-101253972D01*
X106542599Y-101260500D01*
X106902400Y-101260499D01*
X106912034Y-101259230D01*
X106981065Y-101269994D01*
X107026538Y-101310351D01*
X107028002Y-101309217D01*
X107032783Y-101315381D01*
X107147116Y-101429714D01*
X107147125Y-101429721D01*
X107286304Y-101512031D01*
X107432500Y-101554504D01*
X107432500Y-101554503D01*
X107932500Y-101554503D01*
X108078695Y-101512031D01*
X108217874Y-101429721D01*
X108217883Y-101429714D01*
X108332214Y-101315383D01*
X108332221Y-101315374D01*
X108414531Y-101176195D01*
X108414533Y-101176190D01*
X108459644Y-101020918D01*
X108459645Y-101020912D01*
X108461290Y-101000000D01*
X107932500Y-101000000D01*
X107932500Y-101554503D01*
X107432500Y-101554503D01*
X107432500Y-100874000D01*
X107452185Y-100806961D01*
X107504989Y-100761206D01*
X107556500Y-100750000D01*
X107682500Y-100750000D01*
X107682500Y-100624000D01*
X107702185Y-100556961D01*
X107754989Y-100511206D01*
X107806500Y-100500000D01*
X108461290Y-100500000D01*
X108459645Y-100479089D01*
X108446573Y-100434094D01*
X108446773Y-100364225D01*
X108484716Y-100305555D01*
X108548354Y-100276712D01*
X108565650Y-100275500D01*
X115019799Y-100275500D01*
X115019800Y-100275500D01*
X115121058Y-100233557D01*
X115198557Y-100156058D01*
X115198556Y-100156058D01*
X115257116Y-100097498D01*
X115318297Y-100036316D01*
X115379619Y-100002834D01*
X115405976Y-100000000D01*
X117001023Y-100000000D01*
X117068062Y-100019685D01*
G37*
G04 #@! TD.AperFunction*
G04 #@! TA.AperFunction,Conductor*
G36*
X86481562Y-96475185D02*
G01*
X86502204Y-96491819D01*
X87088181Y-97077796D01*
X87121666Y-97139119D01*
X87124500Y-97165477D01*
X87124500Y-98903328D01*
X87160518Y-98990281D01*
X87166444Y-99004588D01*
X87674676Y-99512819D01*
X87708161Y-99574142D01*
X87703177Y-99643833D01*
X87661306Y-99699767D01*
X87595841Y-99724184D01*
X87586995Y-99724500D01*
X85220478Y-99724500D01*
X85153439Y-99704815D01*
X85132797Y-99688181D01*
X84752207Y-99307592D01*
X84718722Y-99246269D01*
X84723706Y-99176578D01*
X84730528Y-99161461D01*
X84745232Y-99133954D01*
X84805300Y-98935934D01*
X84825583Y-98730000D01*
X84805300Y-98524066D01*
X84745232Y-98326046D01*
X84647685Y-98143550D01*
X84562743Y-98040047D01*
X84516410Y-97983589D01*
X84356452Y-97852317D01*
X84356453Y-97852317D01*
X84356450Y-97852315D01*
X84173954Y-97754768D01*
X83975934Y-97694700D01*
X83975932Y-97694699D01*
X83975934Y-97694699D01*
X83770000Y-97674417D01*
X83564067Y-97694699D01*
X83366043Y-97754769D01*
X83309937Y-97784759D01*
X83183550Y-97852315D01*
X83183548Y-97852316D01*
X83183547Y-97852317D01*
X83088164Y-97930595D01*
X83023854Y-97957907D01*
X82954987Y-97946116D01*
X82903427Y-97898963D01*
X82885500Y-97834741D01*
X82885500Y-97085258D01*
X82905185Y-97018219D01*
X82957989Y-96972464D01*
X83027147Y-96962520D01*
X83088164Y-96989404D01*
X83183550Y-97067685D01*
X83366046Y-97165232D01*
X83564066Y-97225300D01*
X83564065Y-97225300D01*
X83582529Y-97227118D01*
X83770000Y-97245583D01*
X83975934Y-97225300D01*
X84173954Y-97165232D01*
X84356450Y-97067685D01*
X84516410Y-96936410D01*
X84647685Y-96776450D01*
X84745232Y-96593954D01*
X84760535Y-96543504D01*
X84798833Y-96485066D01*
X84862645Y-96456610D01*
X84879196Y-96455500D01*
X86414523Y-96455500D01*
X86481562Y-96475185D01*
G37*
G04 #@! TD.AperFunction*
M02*
