G04 #@! TF.GenerationSoftware,KiCad,Pcbnew,8.0.7*
G04 #@! TF.CreationDate,2025-01-22T20:15:04+01:00*
G04 #@! TF.ProjectId,RP2040_minimal_r2,52503230-3430-45f6-9d69-6e696d616c5f,REV2*
G04 #@! TF.SameCoordinates,Original*
G04 #@! TF.FileFunction,Legend,Top*
G04 #@! TF.FilePolarity,Positive*
%FSLAX46Y46*%
G04 Gerber Fmt 4.6, Leading zero omitted, Abs format (unit mm)*
G04 Created by KiCad (PCBNEW 8.0.7) date 2025-01-22 20:15:04*
%MOMM*%
%LPD*%
G01*
G04 APERTURE LIST*
G04 Aperture macros list*
%AMRoundRect*
0 Rectangle with rounded corners*
0 $1 Rounding radius*
0 $2 $3 $4 $5 $6 $7 $8 $9 X,Y pos of 4 corners*
0 Add a 4 corners polygon primitive as box body*
4,1,4,$2,$3,$4,$5,$6,$7,$8,$9,$2,$3,0*
0 Add four circle primitives for the rounded corners*
1,1,$1+$1,$2,$3*
1,1,$1+$1,$4,$5*
1,1,$1+$1,$6,$7*
1,1,$1+$1,$8,$9*
0 Add four rect primitives between the rounded corners*
20,1,$1+$1,$2,$3,$4,$5,0*
20,1,$1+$1,$4,$5,$6,$7,0*
20,1,$1+$1,$6,$7,$8,$9,0*
20,1,$1+$1,$8,$9,$2,$3,0*%
%AMHorizOval*
0 Thick line with rounded ends*
0 $1 width*
0 $2 $3 position (X,Y) of the first rounded end (center of the circle)*
0 $4 $5 position (X,Y) of the second rounded end (center of the circle)*
0 Add line between two ends*
20,1,$1,$2,$3,$4,$5,0*
0 Add two circle primitives to create the rounded ends*
1,1,$1,$2,$3*
1,1,$1,$4,$5*%
%AMRotRect*
0 Rectangle, with rotation*
0 The origin of the aperture is its center*
0 $1 length*
0 $2 width*
0 $3 Rotation angle, in degrees counterclockwise*
0 Add horizontal line*
21,1,$1,$2,0,0,$3*%
%AMFreePoly0*
4,1,19,0.500000,-0.750000,0.000000,-0.750000,0.000000,-0.744911,-0.071157,-0.744911,-0.207708,-0.704816,-0.327430,-0.627875,-0.420627,-0.520320,-0.479746,-0.390866,-0.500000,-0.250000,-0.500000,0.250000,-0.479746,0.390866,-0.420627,0.520320,-0.327430,0.627875,-0.207708,0.704816,-0.071157,0.744911,0.000000,0.744911,0.000000,0.750000,0.500000,0.750000,0.500000,-0.750000,0.500000,-0.750000,
$1*%
%AMFreePoly1*
4,1,19,0.000000,0.744911,0.071157,0.744911,0.207708,0.704816,0.327430,0.627875,0.420627,0.520320,0.479746,0.390866,0.500000,0.250000,0.500000,-0.250000,0.479746,-0.390866,0.420627,-0.520320,0.327430,-0.627875,0.207708,-0.704816,0.071157,-0.744911,0.000000,-0.744911,0.000000,-0.750000,-0.500000,-0.750000,-0.500000,0.750000,0.000000,0.750000,0.000000,0.744911,0.000000,0.744911,
$1*%
G04 Aperture macros list end*
%ADD10C,0.120000*%
%ADD11C,0.150000*%
%ADD12C,0.100000*%
%ADD13C,0.160000*%
%ADD14RoundRect,0.250000X-0.250000X-0.475000X0.250000X-0.475000X0.250000X0.475000X-0.250000X0.475000X0*%
%ADD15RoundRect,0.140000X0.170000X-0.140000X0.170000X0.140000X-0.170000X0.140000X-0.170000X-0.140000X0*%
%ADD16RoundRect,0.140000X0.140000X0.170000X-0.140000X0.170000X-0.140000X-0.170000X0.140000X-0.170000X0*%
%ADD17RoundRect,0.135000X0.135000X0.185000X-0.135000X0.185000X-0.135000X-0.185000X0.135000X-0.185000X0*%
%ADD18R,1.500000X2.000000*%
%ADD19R,3.800000X2.000000*%
%ADD20RoundRect,0.150000X-0.650000X-0.150000X0.650000X-0.150000X0.650000X0.150000X-0.650000X0.150000X0*%
%ADD21RoundRect,0.135000X0.185000X-0.135000X0.185000X0.135000X-0.185000X0.135000X-0.185000X-0.135000X0*%
%ADD22RoundRect,0.140000X-0.140000X-0.170000X0.140000X-0.170000X0.140000X0.170000X-0.140000X0.170000X0*%
%ADD23RoundRect,0.140000X-0.170000X0.140000X-0.170000X-0.140000X0.170000X-0.140000X0.170000X0.140000X0*%
%ADD24RoundRect,0.050000X-0.387500X-0.050000X0.387500X-0.050000X0.387500X0.050000X-0.387500X0.050000X0*%
%ADD25RoundRect,0.050000X-0.050000X-0.387500X0.050000X-0.387500X0.050000X0.387500X-0.050000X0.387500X0*%
%ADD26RoundRect,0.144000X-1.456000X-1.456000X1.456000X-1.456000X1.456000X1.456000X-1.456000X1.456000X0*%
%ADD27C,2.700000*%
%ADD28C,1.500000*%
%ADD29R,1.700000X1.700000*%
%ADD30C,1.700000*%
%ADD31FreePoly0,90.000000*%
%ADD32FreePoly1,90.000000*%
%ADD33R,1.200000X1.400000*%
%ADD34RoundRect,0.218750X-0.256250X0.218750X-0.256250X-0.218750X0.256250X-0.218750X0.256250X0.218750X0*%
%ADD35R,1.000000X1.000000*%
%ADD36RotRect,1.700000X1.700000X315.000000*%
%ADD37HorizOval,1.700000X0.000000X0.000000X0.000000X0.000000X0*%
%ADD38R,0.750000X1.000000*%
%ADD39RoundRect,0.087500X-0.725000X-0.087500X0.725000X-0.087500X0.725000X0.087500X-0.725000X0.087500X0*%
%ADD40RotRect,1.700000X1.700000X225.000000*%
%ADD41HorizOval,1.700000X0.000000X0.000000X0.000000X0.000000X0*%
G04 APERTURE END LIST*
D10*
X91300000Y-83900000D02*
X91800000Y-83900000D01*
X89750000Y-83500000D02*
X90250000Y-83500000D01*
X89750000Y-83000000D02*
X89750000Y-83500000D01*
X90250000Y-83500000D02*
X90250000Y-83000000D01*
X86750000Y-83500000D02*
X87250000Y-83500000D01*
D11*
X105700000Y-82700000D02*
X104900000Y-82500000D01*
X105700000Y-82300000D01*
X105700000Y-82700000D01*
D10*
X92250000Y-83500000D02*
X92250000Y-83000000D01*
D11*
X106700000Y-81700000D02*
X106300000Y-81700000D01*
X106500000Y-80900000D01*
X106700000Y-81700000D01*
G36*
X106700000Y-81700000D02*
G01*
X106300000Y-81700000D01*
X106500000Y-80900000D01*
X106700000Y-81700000D01*
G37*
D10*
X90800000Y-84400000D02*
X91300000Y-84400000D01*
X92300000Y-84400000D02*
X92300000Y-83900000D01*
X91250000Y-83500000D02*
X91250000Y-83000000D01*
X88700000Y-84400000D02*
X89200000Y-84400000D01*
X88750000Y-83500000D02*
X89250000Y-83500000D01*
D11*
X119100000Y-106700000D02*
X118300000Y-106900000D01*
X118300000Y-106500000D01*
X119100000Y-106700000D01*
G36*
X119100000Y-106700000D02*
G01*
X118300000Y-106900000D01*
X118300000Y-106500000D01*
X119100000Y-106700000D01*
G37*
D10*
X90200000Y-83900000D02*
X90700000Y-83900000D01*
X88250000Y-83000000D02*
X88750000Y-83000000D01*
D11*
X84100000Y-93505882D02*
X83300000Y-93705882D01*
X83300000Y-93305882D01*
X84100000Y-93505882D01*
D10*
X92750000Y-83000000D02*
X92750000Y-83500000D01*
X86750000Y-84400000D02*
X87100000Y-84400000D01*
X91750000Y-83000000D02*
X91750000Y-83500000D01*
X90750000Y-83500000D02*
X91250000Y-83500000D01*
X92300000Y-83900000D02*
X92800000Y-83900000D01*
X89250000Y-83500000D02*
X89250000Y-83000000D01*
X87600000Y-83900000D02*
X87600000Y-84400000D01*
X91250000Y-83000000D02*
X91750000Y-83000000D01*
X88600000Y-83900000D02*
X88600000Y-84400000D01*
X90250000Y-83000000D02*
X90750000Y-83000000D01*
X87100000Y-83900000D02*
X87600000Y-83900000D01*
X89700000Y-84400000D02*
X90200000Y-84400000D01*
D11*
X82700000Y-92705882D02*
X82300000Y-92705882D01*
X82500000Y-91905882D01*
X82700000Y-92705882D01*
D10*
X87250000Y-83000000D02*
X87750000Y-83000000D01*
X89200000Y-83900000D02*
X89700000Y-83900000D01*
X90750000Y-83000000D02*
X90750000Y-83500000D01*
D11*
X82500000Y-95105882D02*
X82300000Y-94305882D01*
X82700000Y-94305882D01*
X82500000Y-95105882D01*
D10*
X88750000Y-83000000D02*
X88750000Y-83500000D01*
X92250000Y-83000000D02*
X92750000Y-83000000D01*
X92800000Y-84400000D02*
X93300000Y-84400000D01*
X90700000Y-83900000D02*
X90700000Y-84400000D01*
D11*
X81700000Y-93705882D02*
X80900000Y-93505882D01*
X81700000Y-93305882D01*
X81700000Y-93705882D01*
G36*
X81700000Y-93705882D02*
G01*
X80900000Y-93505882D01*
X81700000Y-93305882D01*
X81700000Y-93705882D01*
G37*
D10*
X88250000Y-83500000D02*
X88250000Y-83000000D01*
D11*
X117500000Y-108300000D02*
X117300000Y-107500000D01*
X117700000Y-107500000D01*
X117500000Y-108300000D01*
X108100000Y-82500000D02*
X107300000Y-82700000D01*
X107300000Y-82300000D01*
X108100000Y-82500000D01*
D10*
X88700000Y-84400000D02*
X88600000Y-84400000D01*
D11*
X106500000Y-84100000D02*
X106300000Y-83300000D01*
X106700000Y-83300000D01*
X106500000Y-84100000D01*
D10*
X89700000Y-83900000D02*
X89700000Y-84400000D01*
X87600000Y-84400000D02*
X88100000Y-84400000D01*
X91750000Y-83500000D02*
X92250000Y-83500000D01*
X89250000Y-83000000D02*
X89750000Y-83000000D01*
X87250000Y-83500000D02*
X87250000Y-83000000D01*
X91800000Y-84400000D02*
X92300000Y-84400000D01*
X87750000Y-83500000D02*
X88250000Y-83500000D01*
D11*
X117700000Y-105900000D02*
X117300000Y-105900000D01*
X117500000Y-105100000D01*
X117700000Y-105900000D01*
D10*
X92750000Y-83500000D02*
X93250000Y-83500000D01*
X89200000Y-84400000D02*
X89200000Y-83900000D01*
D11*
X92700000Y-117700000D02*
X91900000Y-117500000D01*
X92700000Y-117300000D01*
X92700000Y-117700000D01*
D10*
X87100000Y-84400000D02*
X87100000Y-83900000D01*
X92800000Y-83900000D02*
X92800000Y-84400000D01*
X88100000Y-84400000D02*
X88100000Y-83900000D01*
D11*
X93500000Y-119100000D02*
X93300000Y-118300000D01*
X93700000Y-118300000D01*
X93500000Y-119100000D01*
G36*
X93500000Y-119100000D02*
G01*
X93300000Y-118300000D01*
X93700000Y-118300000D01*
X93500000Y-119100000D01*
G37*
D10*
X91800000Y-83900000D02*
X91800000Y-84400000D01*
D11*
X95100000Y-117500000D02*
X94300000Y-117700000D01*
X94300000Y-117300000D01*
X95100000Y-117500000D01*
X116700000Y-106900000D02*
X115900000Y-106700000D01*
X116700000Y-106500000D01*
X116700000Y-106900000D01*
X93700000Y-116700000D02*
X93300000Y-116700000D01*
X93500000Y-115900000D01*
X93700000Y-116700000D01*
D10*
X90800000Y-84400000D02*
X90700000Y-84400000D01*
X90200000Y-84400000D02*
X90200000Y-83900000D01*
X91300000Y-84400000D02*
X91300000Y-83900000D01*
X87750000Y-83000000D02*
X87750000Y-83500000D01*
X88100000Y-83900000D02*
X88600000Y-83900000D01*
D12*
X101772419Y-110510401D02*
X101296228Y-110643734D01*
X101772419Y-110738972D02*
X100772419Y-110738972D01*
X100772419Y-110738972D02*
X100772419Y-110586591D01*
X100772419Y-110586591D02*
X100820038Y-110548496D01*
X100820038Y-110548496D02*
X100867657Y-110529449D01*
X100867657Y-110529449D02*
X100962895Y-110510401D01*
X100962895Y-110510401D02*
X101105752Y-110510401D01*
X101105752Y-110510401D02*
X101200990Y-110529449D01*
X101200990Y-110529449D02*
X101248609Y-110548496D01*
X101248609Y-110548496D02*
X101296228Y-110586591D01*
X101296228Y-110586591D02*
X101296228Y-110738972D01*
X100772419Y-110338972D02*
X101581942Y-110338972D01*
X101581942Y-110338972D02*
X101677180Y-110319925D01*
X101677180Y-110319925D02*
X101724800Y-110300877D01*
X101724800Y-110300877D02*
X101772419Y-110262782D01*
X101772419Y-110262782D02*
X101772419Y-110186591D01*
X101772419Y-110186591D02*
X101724800Y-110148496D01*
X101724800Y-110148496D02*
X101677180Y-110129449D01*
X101677180Y-110129449D02*
X101581942Y-110110401D01*
X101581942Y-110110401D02*
X100772419Y-110110401D01*
X101772419Y-109919924D02*
X100772419Y-109919924D01*
X100772419Y-109919924D02*
X101772419Y-109691353D01*
X101772419Y-109691353D02*
X100772419Y-109691353D01*
X96924800Y-112848496D02*
X96972419Y-112784211D01*
X96972419Y-112784211D02*
X96972419Y-112677068D01*
X96972419Y-112677068D02*
X96924800Y-112634211D01*
X96924800Y-112634211D02*
X96877180Y-112612782D01*
X96877180Y-112612782D02*
X96781942Y-112591353D01*
X96781942Y-112591353D02*
X96686704Y-112591353D01*
X96686704Y-112591353D02*
X96591466Y-112612782D01*
X96591466Y-112612782D02*
X96543847Y-112634211D01*
X96543847Y-112634211D02*
X96496228Y-112677068D01*
X96496228Y-112677068D02*
X96448609Y-112762782D01*
X96448609Y-112762782D02*
X96400990Y-112805639D01*
X96400990Y-112805639D02*
X96353371Y-112827068D01*
X96353371Y-112827068D02*
X96258133Y-112848496D01*
X96258133Y-112848496D02*
X96162895Y-112848496D01*
X96162895Y-112848496D02*
X96067657Y-112827068D01*
X96067657Y-112827068D02*
X96020038Y-112805639D01*
X96020038Y-112805639D02*
X95972419Y-112762782D01*
X95972419Y-112762782D02*
X95972419Y-112655639D01*
X95972419Y-112655639D02*
X96020038Y-112591353D01*
X96972419Y-112398497D02*
X95972419Y-112398497D01*
X97067657Y-112291354D02*
X97067657Y-111948496D01*
X96877180Y-111584211D02*
X96924800Y-111605639D01*
X96924800Y-111605639D02*
X96972419Y-111669925D01*
X96972419Y-111669925D02*
X96972419Y-111712782D01*
X96972419Y-111712782D02*
X96924800Y-111777068D01*
X96924800Y-111777068D02*
X96829561Y-111819925D01*
X96829561Y-111819925D02*
X96734323Y-111841354D01*
X96734323Y-111841354D02*
X96543847Y-111862782D01*
X96543847Y-111862782D02*
X96400990Y-111862782D01*
X96400990Y-111862782D02*
X96210514Y-111841354D01*
X96210514Y-111841354D02*
X96115276Y-111819925D01*
X96115276Y-111819925D02*
X96020038Y-111777068D01*
X96020038Y-111777068D02*
X95972419Y-111712782D01*
X95972419Y-111712782D02*
X95972419Y-111669925D01*
X95972419Y-111669925D02*
X96020038Y-111605639D01*
X96020038Y-111605639D02*
X96067657Y-111584211D01*
X96972419Y-111177068D02*
X96972419Y-111391354D01*
X96972419Y-111391354D02*
X95972419Y-111391354D01*
X96972419Y-111027068D02*
X95972419Y-111027068D01*
X96972419Y-110769925D02*
X96400990Y-110962782D01*
X95972419Y-110769925D02*
X96543847Y-111027068D01*
X96067657Y-110598496D02*
X96020038Y-110577068D01*
X96020038Y-110577068D02*
X95972419Y-110534211D01*
X95972419Y-110534211D02*
X95972419Y-110427068D01*
X95972419Y-110427068D02*
X96020038Y-110384211D01*
X96020038Y-110384211D02*
X96067657Y-110362782D01*
X96067657Y-110362782D02*
X96162895Y-110341353D01*
X96162895Y-110341353D02*
X96258133Y-110341353D01*
X96258133Y-110341353D02*
X96400990Y-110362782D01*
X96400990Y-110362782D02*
X96972419Y-110619925D01*
X96972419Y-110619925D02*
X96972419Y-110341353D01*
D11*
X86736779Y-80859875D02*
X86736779Y-80193208D01*
X86736779Y-80288446D02*
X86784398Y-80240827D01*
X86784398Y-80240827D02*
X86879636Y-80193208D01*
X86879636Y-80193208D02*
X87022493Y-80193208D01*
X87022493Y-80193208D02*
X87117731Y-80240827D01*
X87117731Y-80240827D02*
X87165350Y-80336065D01*
X87165350Y-80336065D02*
X87165350Y-80859875D01*
X87165350Y-80336065D02*
X87212969Y-80240827D01*
X87212969Y-80240827D02*
X87308207Y-80193208D01*
X87308207Y-80193208D02*
X87451064Y-80193208D01*
X87451064Y-80193208D02*
X87546303Y-80240827D01*
X87546303Y-80240827D02*
X87593922Y-80336065D01*
X87593922Y-80336065D02*
X87593922Y-80859875D01*
X88070112Y-80859875D02*
X88070112Y-80193208D01*
X88070112Y-79859875D02*
X88022493Y-79907494D01*
X88022493Y-79907494D02*
X88070112Y-79955113D01*
X88070112Y-79955113D02*
X88117731Y-79907494D01*
X88117731Y-79907494D02*
X88070112Y-79859875D01*
X88070112Y-79859875D02*
X88070112Y-79955113D01*
X88546302Y-80193208D02*
X88546302Y-80859875D01*
X88546302Y-80288446D02*
X88593921Y-80240827D01*
X88593921Y-80240827D02*
X88689159Y-80193208D01*
X88689159Y-80193208D02*
X88832016Y-80193208D01*
X88832016Y-80193208D02*
X88927254Y-80240827D01*
X88927254Y-80240827D02*
X88974873Y-80336065D01*
X88974873Y-80336065D02*
X88974873Y-80859875D01*
X89403445Y-80812256D02*
X89498683Y-80859875D01*
X89498683Y-80859875D02*
X89689159Y-80859875D01*
X89689159Y-80859875D02*
X89784397Y-80812256D01*
X89784397Y-80812256D02*
X89832016Y-80717017D01*
X89832016Y-80717017D02*
X89832016Y-80669398D01*
X89832016Y-80669398D02*
X89784397Y-80574160D01*
X89784397Y-80574160D02*
X89689159Y-80526541D01*
X89689159Y-80526541D02*
X89546302Y-80526541D01*
X89546302Y-80526541D02*
X89451064Y-80478922D01*
X89451064Y-80478922D02*
X89403445Y-80383684D01*
X89403445Y-80383684D02*
X89403445Y-80336065D01*
X89403445Y-80336065D02*
X89451064Y-80240827D01*
X89451064Y-80240827D02*
X89546302Y-80193208D01*
X89546302Y-80193208D02*
X89689159Y-80193208D01*
X89689159Y-80193208D02*
X89784397Y-80240827D01*
X90165350Y-80193208D02*
X90403445Y-80859875D01*
X90641540Y-80193208D02*
X90403445Y-80859875D01*
X90403445Y-80859875D02*
X90308207Y-81097970D01*
X90308207Y-81097970D02*
X90260588Y-81145589D01*
X90260588Y-81145589D02*
X90165350Y-81193208D01*
X91022493Y-80193208D02*
X91022493Y-80859875D01*
X91022493Y-80288446D02*
X91070112Y-80240827D01*
X91070112Y-80240827D02*
X91165350Y-80193208D01*
X91165350Y-80193208D02*
X91308207Y-80193208D01*
X91308207Y-80193208D02*
X91403445Y-80240827D01*
X91403445Y-80240827D02*
X91451064Y-80336065D01*
X91451064Y-80336065D02*
X91451064Y-80859875D01*
X92355826Y-80812256D02*
X92260588Y-80859875D01*
X92260588Y-80859875D02*
X92070112Y-80859875D01*
X92070112Y-80859875D02*
X91974874Y-80812256D01*
X91974874Y-80812256D02*
X91927255Y-80764636D01*
X91927255Y-80764636D02*
X91879636Y-80669398D01*
X91879636Y-80669398D02*
X91879636Y-80383684D01*
X91879636Y-80383684D02*
X91927255Y-80288446D01*
X91927255Y-80288446D02*
X91974874Y-80240827D01*
X91974874Y-80240827D02*
X92070112Y-80193208D01*
X92070112Y-80193208D02*
X92260588Y-80193208D01*
X92260588Y-80193208D02*
X92355826Y-80240827D01*
X86641541Y-81803152D02*
X86879636Y-82469819D01*
X86879636Y-82469819D02*
X87117731Y-81803152D01*
X87689160Y-81469819D02*
X87784398Y-81469819D01*
X87784398Y-81469819D02*
X87879636Y-81517438D01*
X87879636Y-81517438D02*
X87927255Y-81565057D01*
X87927255Y-81565057D02*
X87974874Y-81660295D01*
X87974874Y-81660295D02*
X88022493Y-81850771D01*
X88022493Y-81850771D02*
X88022493Y-82088866D01*
X88022493Y-82088866D02*
X87974874Y-82279342D01*
X87974874Y-82279342D02*
X87927255Y-82374580D01*
X87927255Y-82374580D02*
X87879636Y-82422200D01*
X87879636Y-82422200D02*
X87784398Y-82469819D01*
X87784398Y-82469819D02*
X87689160Y-82469819D01*
X87689160Y-82469819D02*
X87593922Y-82422200D01*
X87593922Y-82422200D02*
X87546303Y-82374580D01*
X87546303Y-82374580D02*
X87498684Y-82279342D01*
X87498684Y-82279342D02*
X87451065Y-82088866D01*
X87451065Y-82088866D02*
X87451065Y-81850771D01*
X87451065Y-81850771D02*
X87498684Y-81660295D01*
X87498684Y-81660295D02*
X87546303Y-81565057D01*
X87546303Y-81565057D02*
X87593922Y-81517438D01*
X87593922Y-81517438D02*
X87689160Y-81469819D01*
X88451065Y-82374580D02*
X88498684Y-82422200D01*
X88498684Y-82422200D02*
X88451065Y-82469819D01*
X88451065Y-82469819D02*
X88403446Y-82422200D01*
X88403446Y-82422200D02*
X88451065Y-82374580D01*
X88451065Y-82374580D02*
X88451065Y-82469819D01*
X89451064Y-82469819D02*
X88879636Y-82469819D01*
X89165350Y-82469819D02*
X89165350Y-81469819D01*
X89165350Y-81469819D02*
X89070112Y-81612676D01*
X89070112Y-81612676D02*
X88974874Y-81707914D01*
X88974874Y-81707914D02*
X88879636Y-81755533D01*
X106236779Y-82969819D02*
X106236779Y-81969819D01*
X106236779Y-81969819D02*
X106808207Y-82969819D01*
X106808207Y-82969819D02*
X106808207Y-81969819D01*
X93239160Y-117972200D02*
X93382017Y-118019819D01*
X93382017Y-118019819D02*
X93620112Y-118019819D01*
X93620112Y-118019819D02*
X93715350Y-117972200D01*
X93715350Y-117972200D02*
X93762969Y-117924580D01*
X93762969Y-117924580D02*
X93810588Y-117829342D01*
X93810588Y-117829342D02*
X93810588Y-117734104D01*
X93810588Y-117734104D02*
X93762969Y-117638866D01*
X93762969Y-117638866D02*
X93715350Y-117591247D01*
X93715350Y-117591247D02*
X93620112Y-117543628D01*
X93620112Y-117543628D02*
X93429636Y-117496009D01*
X93429636Y-117496009D02*
X93334398Y-117448390D01*
X93334398Y-117448390D02*
X93286779Y-117400771D01*
X93286779Y-117400771D02*
X93239160Y-117305533D01*
X93239160Y-117305533D02*
X93239160Y-117210295D01*
X93239160Y-117210295D02*
X93286779Y-117115057D01*
X93286779Y-117115057D02*
X93334398Y-117067438D01*
X93334398Y-117067438D02*
X93429636Y-117019819D01*
X93429636Y-117019819D02*
X93667731Y-117019819D01*
X93667731Y-117019819D02*
X93810588Y-117067438D01*
X117091541Y-106219819D02*
X117329636Y-107219819D01*
X117329636Y-107219819D02*
X117520112Y-106505533D01*
X117520112Y-106505533D02*
X117710588Y-107219819D01*
X117710588Y-107219819D02*
X117948684Y-106219819D01*
X82286779Y-93501891D02*
X82620112Y-93501891D01*
X82762969Y-94025701D02*
X82286779Y-94025701D01*
X82286779Y-94025701D02*
X82286779Y-93025701D01*
X82286779Y-93025701D02*
X82762969Y-93025701D01*
D12*
X117946741Y-91634990D02*
X117899122Y-91596895D01*
X117899122Y-91596895D02*
X117827693Y-91596895D01*
X117827693Y-91596895D02*
X117756265Y-91634990D01*
X117756265Y-91634990D02*
X117708646Y-91711180D01*
X117708646Y-91711180D02*
X117684836Y-91787371D01*
X117684836Y-91787371D02*
X117661027Y-91939752D01*
X117661027Y-91939752D02*
X117661027Y-92054038D01*
X117661027Y-92054038D02*
X117684836Y-92206419D01*
X117684836Y-92206419D02*
X117708646Y-92282609D01*
X117708646Y-92282609D02*
X117756265Y-92358800D01*
X117756265Y-92358800D02*
X117827693Y-92396895D01*
X117827693Y-92396895D02*
X117875312Y-92396895D01*
X117875312Y-92396895D02*
X117946741Y-92358800D01*
X117946741Y-92358800D02*
X117970550Y-92320704D01*
X117970550Y-92320704D02*
X117970550Y-92054038D01*
X117970550Y-92054038D02*
X117875312Y-92054038D01*
X118184836Y-92396895D02*
X118184836Y-91596895D01*
X118184836Y-91596895D02*
X118375312Y-91596895D01*
X118375312Y-91596895D02*
X118422931Y-91634990D01*
X118422931Y-91634990D02*
X118446741Y-91673085D01*
X118446741Y-91673085D02*
X118470550Y-91749276D01*
X118470550Y-91749276D02*
X118470550Y-91863561D01*
X118470550Y-91863561D02*
X118446741Y-91939752D01*
X118446741Y-91939752D02*
X118422931Y-91977847D01*
X118422931Y-91977847D02*
X118375312Y-92015942D01*
X118375312Y-92015942D02*
X118184836Y-92015942D01*
X118780074Y-91596895D02*
X118875312Y-91596895D01*
X118875312Y-91596895D02*
X118922931Y-91634990D01*
X118922931Y-91634990D02*
X118970550Y-91711180D01*
X118970550Y-91711180D02*
X118994360Y-91863561D01*
X118994360Y-91863561D02*
X118994360Y-92130228D01*
X118994360Y-92130228D02*
X118970550Y-92282609D01*
X118970550Y-92282609D02*
X118922931Y-92358800D01*
X118922931Y-92358800D02*
X118875312Y-92396895D01*
X118875312Y-92396895D02*
X118780074Y-92396895D01*
X118780074Y-92396895D02*
X118732455Y-92358800D01*
X118732455Y-92358800D02*
X118684836Y-92282609D01*
X118684836Y-92282609D02*
X118661027Y-92130228D01*
X118661027Y-92130228D02*
X118661027Y-91863561D01*
X118661027Y-91863561D02*
X118684836Y-91711180D01*
X118684836Y-91711180D02*
X118732455Y-91634990D01*
X118732455Y-91634990D02*
X118780074Y-91596895D01*
X119208646Y-91596895D02*
X119208646Y-92244514D01*
X119208646Y-92244514D02*
X119232456Y-92320704D01*
X119232456Y-92320704D02*
X119256265Y-92358800D01*
X119256265Y-92358800D02*
X119303884Y-92396895D01*
X119303884Y-92396895D02*
X119399122Y-92396895D01*
X119399122Y-92396895D02*
X119446741Y-92358800D01*
X119446741Y-92358800D02*
X119470551Y-92320704D01*
X119470551Y-92320704D02*
X119494360Y-92244514D01*
X119494360Y-92244514D02*
X119494360Y-91596895D01*
X119661028Y-91596895D02*
X119946742Y-91596895D01*
X119803885Y-92396895D02*
X119803885Y-91596895D01*
X120065789Y-91596895D02*
X120375313Y-91596895D01*
X120375313Y-91596895D02*
X120208646Y-91901657D01*
X120208646Y-91901657D02*
X120280075Y-91901657D01*
X120280075Y-91901657D02*
X120327694Y-91939752D01*
X120327694Y-91939752D02*
X120351503Y-91977847D01*
X120351503Y-91977847D02*
X120375313Y-92054038D01*
X120375313Y-92054038D02*
X120375313Y-92244514D01*
X120375313Y-92244514D02*
X120351503Y-92320704D01*
X120351503Y-92320704D02*
X120327694Y-92358800D01*
X120327694Y-92358800D02*
X120280075Y-92396895D01*
X120280075Y-92396895D02*
X120137218Y-92396895D01*
X120137218Y-92396895D02*
X120089599Y-92358800D01*
X120089599Y-92358800D02*
X120065789Y-92320704D01*
D13*
X100869299Y-120233333D02*
X100869299Y-120166666D01*
X100869299Y-120166666D02*
X100916918Y-120099999D01*
X100916918Y-120099999D02*
X100964537Y-120066666D01*
X100964537Y-120066666D02*
X101059775Y-120033333D01*
X101059775Y-120033333D02*
X101250251Y-119999999D01*
X101250251Y-119999999D02*
X101488346Y-119999999D01*
X101488346Y-119999999D02*
X101678822Y-120033333D01*
X101678822Y-120033333D02*
X101774060Y-120066666D01*
X101774060Y-120066666D02*
X101821680Y-120099999D01*
X101821680Y-120099999D02*
X101869299Y-120166666D01*
X101869299Y-120166666D02*
X101869299Y-120233333D01*
X101869299Y-120233333D02*
X101821680Y-120299999D01*
X101821680Y-120299999D02*
X101774060Y-120333333D01*
X101774060Y-120333333D02*
X101678822Y-120366666D01*
X101678822Y-120366666D02*
X101488346Y-120399999D01*
X101488346Y-120399999D02*
X101250251Y-120399999D01*
X101250251Y-120399999D02*
X101059775Y-120366666D01*
X101059775Y-120366666D02*
X100964537Y-120333333D01*
X100964537Y-120333333D02*
X100916918Y-120299999D01*
X100916918Y-120299999D02*
X100869299Y-120233333D01*
X94869299Y-120433333D02*
X94202632Y-120433333D01*
X94393108Y-120433333D02*
X94297870Y-120400000D01*
X94297870Y-120400000D02*
X94250251Y-120366666D01*
X94250251Y-120366666D02*
X94202632Y-120300000D01*
X94202632Y-120300000D02*
X94202632Y-120233333D01*
X94869299Y-120066667D02*
X94202632Y-119700000D01*
X94202632Y-120066667D02*
X94869299Y-119700000D01*
X95619299Y-114833333D02*
X95619299Y-114766666D01*
X95619299Y-114766666D02*
X95666918Y-114699999D01*
X95666918Y-114699999D02*
X95714537Y-114666666D01*
X95714537Y-114666666D02*
X95809775Y-114633333D01*
X95809775Y-114633333D02*
X96000251Y-114599999D01*
X96000251Y-114599999D02*
X96238346Y-114599999D01*
X96238346Y-114599999D02*
X96428822Y-114633333D01*
X96428822Y-114633333D02*
X96524060Y-114666666D01*
X96524060Y-114666666D02*
X96571680Y-114699999D01*
X96571680Y-114699999D02*
X96619299Y-114766666D01*
X96619299Y-114766666D02*
X96619299Y-114833333D01*
X96619299Y-114833333D02*
X96571680Y-114899999D01*
X96571680Y-114899999D02*
X96524060Y-114933333D01*
X96524060Y-114933333D02*
X96428822Y-114966666D01*
X96428822Y-114966666D02*
X96238346Y-114999999D01*
X96238346Y-114999999D02*
X96000251Y-114999999D01*
X96000251Y-114999999D02*
X95809775Y-114966666D01*
X95809775Y-114966666D02*
X95714537Y-114933333D01*
X95714537Y-114933333D02*
X95666918Y-114899999D01*
X95666918Y-114899999D02*
X95619299Y-114833333D01*
X99119299Y-119999999D02*
X99119299Y-120399999D01*
X99119299Y-120199999D02*
X98119299Y-120199999D01*
X98119299Y-120199999D02*
X98262156Y-120266666D01*
X98262156Y-120266666D02*
X98357394Y-120333333D01*
X98357394Y-120333333D02*
X98405013Y-120399999D01*
X95714537Y-120399999D02*
X95666918Y-120366666D01*
X95666918Y-120366666D02*
X95619299Y-120299999D01*
X95619299Y-120299999D02*
X95619299Y-120133333D01*
X95619299Y-120133333D02*
X95666918Y-120066666D01*
X95666918Y-120066666D02*
X95714537Y-120033333D01*
X95714537Y-120033333D02*
X95809775Y-119999999D01*
X95809775Y-119999999D02*
X95905013Y-119999999D01*
X95905013Y-119999999D02*
X96047870Y-120033333D01*
X96047870Y-120033333D02*
X96619299Y-120433333D01*
X96619299Y-120433333D02*
X96619299Y-119999999D01*
X100964537Y-114999999D02*
X100916918Y-114966666D01*
X100916918Y-114966666D02*
X100869299Y-114899999D01*
X100869299Y-114899999D02*
X100869299Y-114733333D01*
X100869299Y-114733333D02*
X100916918Y-114666666D01*
X100916918Y-114666666D02*
X100964537Y-114633333D01*
X100964537Y-114633333D02*
X101059775Y-114599999D01*
X101059775Y-114599999D02*
X101155013Y-114599999D01*
X101155013Y-114599999D02*
X101297870Y-114633333D01*
X101297870Y-114633333D02*
X101869299Y-115033333D01*
X101869299Y-115033333D02*
X101869299Y-114599999D01*
X94202632Y-115416666D02*
X94202632Y-115149999D01*
X93869299Y-115316666D02*
X94726441Y-115316666D01*
X94726441Y-115316666D02*
X94821680Y-115283333D01*
X94821680Y-115283333D02*
X94869299Y-115216666D01*
X94869299Y-115216666D02*
X94869299Y-115149999D01*
X94869299Y-114983333D02*
X94202632Y-114616666D01*
X94202632Y-114983333D02*
X94869299Y-114616666D01*
X99119299Y-114599999D02*
X99119299Y-114999999D01*
X99119299Y-114799999D02*
X98119299Y-114799999D01*
X98119299Y-114799999D02*
X98262156Y-114866666D01*
X98262156Y-114866666D02*
X98357394Y-114933333D01*
X98357394Y-114933333D02*
X98405013Y-114999999D01*
X85400000Y-99119299D02*
X85000000Y-99119299D01*
X85200000Y-99119299D02*
X85200000Y-98119299D01*
X85200000Y-98119299D02*
X85133333Y-98262156D01*
X85133333Y-98262156D02*
X85066667Y-98357394D01*
X85066667Y-98357394D02*
X85000000Y-98405013D01*
X79766667Y-100869299D02*
X79833333Y-100869299D01*
X79833333Y-100869299D02*
X79900000Y-100916918D01*
X79900000Y-100916918D02*
X79933333Y-100964537D01*
X79933333Y-100964537D02*
X79966667Y-101059775D01*
X79966667Y-101059775D02*
X80000000Y-101250251D01*
X80000000Y-101250251D02*
X80000000Y-101488346D01*
X80000000Y-101488346D02*
X79966667Y-101678822D01*
X79966667Y-101678822D02*
X79933333Y-101774060D01*
X79933333Y-101774060D02*
X79900000Y-101821680D01*
X79900000Y-101821680D02*
X79833333Y-101869299D01*
X79833333Y-101869299D02*
X79766667Y-101869299D01*
X79766667Y-101869299D02*
X79700000Y-101821680D01*
X79700000Y-101821680D02*
X79666667Y-101774060D01*
X79666667Y-101774060D02*
X79633333Y-101678822D01*
X79633333Y-101678822D02*
X79600000Y-101488346D01*
X79600000Y-101488346D02*
X79600000Y-101250251D01*
X79600000Y-101250251D02*
X79633333Y-101059775D01*
X79633333Y-101059775D02*
X79666667Y-100964537D01*
X79666667Y-100964537D02*
X79700000Y-100916918D01*
X79700000Y-100916918D02*
X79766667Y-100869299D01*
X79566666Y-94869299D02*
X79566666Y-94202632D01*
X79566666Y-94393108D02*
X79600000Y-94297870D01*
X79600000Y-94297870D02*
X79633333Y-94250251D01*
X79633333Y-94250251D02*
X79700000Y-94202632D01*
X79700000Y-94202632D02*
X79766666Y-94202632D01*
X79933333Y-94869299D02*
X80299999Y-94202632D01*
X79933333Y-94202632D02*
X80299999Y-94869299D01*
X85166667Y-95619299D02*
X85233333Y-95619299D01*
X85233333Y-95619299D02*
X85300000Y-95666918D01*
X85300000Y-95666918D02*
X85333333Y-95714537D01*
X85333333Y-95714537D02*
X85366667Y-95809775D01*
X85366667Y-95809775D02*
X85400000Y-96000251D01*
X85400000Y-96000251D02*
X85400000Y-96238346D01*
X85400000Y-96238346D02*
X85366667Y-96428822D01*
X85366667Y-96428822D02*
X85333333Y-96524060D01*
X85333333Y-96524060D02*
X85300000Y-96571680D01*
X85300000Y-96571680D02*
X85233333Y-96619299D01*
X85233333Y-96619299D02*
X85166667Y-96619299D01*
X85166667Y-96619299D02*
X85100000Y-96571680D01*
X85100000Y-96571680D02*
X85066667Y-96524060D01*
X85066667Y-96524060D02*
X85033333Y-96428822D01*
X85033333Y-96428822D02*
X85000000Y-96238346D01*
X85000000Y-96238346D02*
X85000000Y-96000251D01*
X85000000Y-96000251D02*
X85033333Y-95809775D01*
X85033333Y-95809775D02*
X85066667Y-95714537D01*
X85066667Y-95714537D02*
X85100000Y-95666918D01*
X85100000Y-95666918D02*
X85166667Y-95619299D01*
X84583333Y-94202632D02*
X84850000Y-94202632D01*
X84683333Y-93869299D02*
X84683333Y-94726441D01*
X84683333Y-94726441D02*
X84716667Y-94821680D01*
X84716667Y-94821680D02*
X84783333Y-94869299D01*
X84783333Y-94869299D02*
X84850000Y-94869299D01*
X85016667Y-94869299D02*
X85383333Y-94202632D01*
X85016667Y-94202632D02*
X85383333Y-94869299D01*
X80000000Y-99119299D02*
X79600000Y-99119299D01*
X79800000Y-99119299D02*
X79800000Y-98119299D01*
X79800000Y-98119299D02*
X79733333Y-98262156D01*
X79733333Y-98262156D02*
X79666667Y-98357394D01*
X79666667Y-98357394D02*
X79600000Y-98405013D01*
X85000000Y-100964537D02*
X85033333Y-100916918D01*
X85033333Y-100916918D02*
X85100000Y-100869299D01*
X85100000Y-100869299D02*
X85266667Y-100869299D01*
X85266667Y-100869299D02*
X85333333Y-100916918D01*
X85333333Y-100916918D02*
X85366667Y-100964537D01*
X85366667Y-100964537D02*
X85400000Y-101059775D01*
X85400000Y-101059775D02*
X85400000Y-101155013D01*
X85400000Y-101155013D02*
X85366667Y-101297870D01*
X85366667Y-101297870D02*
X84966667Y-101869299D01*
X84966667Y-101869299D02*
X85400000Y-101869299D01*
X79600000Y-95714537D02*
X79633333Y-95666918D01*
X79633333Y-95666918D02*
X79700000Y-95619299D01*
X79700000Y-95619299D02*
X79866667Y-95619299D01*
X79866667Y-95619299D02*
X79933333Y-95666918D01*
X79933333Y-95666918D02*
X79966667Y-95714537D01*
X79966667Y-95714537D02*
X80000000Y-95809775D01*
X80000000Y-95809775D02*
X80000000Y-95905013D01*
X80000000Y-95905013D02*
X79966667Y-96047870D01*
X79966667Y-96047870D02*
X79566667Y-96619299D01*
X79566667Y-96619299D02*
X80000000Y-96619299D01*
X120233333Y-99320700D02*
X120166666Y-99320700D01*
X120166666Y-99320700D02*
X120099999Y-99273081D01*
X120099999Y-99273081D02*
X120066666Y-99225462D01*
X120066666Y-99225462D02*
X120033333Y-99130224D01*
X120033333Y-99130224D02*
X119999999Y-98939748D01*
X119999999Y-98939748D02*
X119999999Y-98701653D01*
X119999999Y-98701653D02*
X120033333Y-98511177D01*
X120033333Y-98511177D02*
X120066666Y-98415939D01*
X120066666Y-98415939D02*
X120099999Y-98368320D01*
X120099999Y-98368320D02*
X120166666Y-98320700D01*
X120166666Y-98320700D02*
X120233333Y-98320700D01*
X120233333Y-98320700D02*
X120299999Y-98368320D01*
X120299999Y-98368320D02*
X120333333Y-98415939D01*
X120333333Y-98415939D02*
X120366666Y-98511177D01*
X120366666Y-98511177D02*
X120399999Y-98701653D01*
X120399999Y-98701653D02*
X120399999Y-98939748D01*
X120399999Y-98939748D02*
X120366666Y-99130224D01*
X120366666Y-99130224D02*
X120333333Y-99225462D01*
X120333333Y-99225462D02*
X120299999Y-99273081D01*
X120299999Y-99273081D02*
X120233333Y-99320700D01*
X120399999Y-104475462D02*
X120366666Y-104523081D01*
X120366666Y-104523081D02*
X120299999Y-104570700D01*
X120299999Y-104570700D02*
X120133333Y-104570700D01*
X120133333Y-104570700D02*
X120066666Y-104523081D01*
X120066666Y-104523081D02*
X120033333Y-104475462D01*
X120033333Y-104475462D02*
X119999999Y-104380224D01*
X119999999Y-104380224D02*
X119999999Y-104284986D01*
X119999999Y-104284986D02*
X120033333Y-104142129D01*
X120033333Y-104142129D02*
X120433333Y-103570700D01*
X120433333Y-103570700D02*
X119999999Y-103570700D01*
X115416666Y-105987367D02*
X115149999Y-105987367D01*
X115316666Y-106320700D02*
X115316666Y-105463558D01*
X115316666Y-105463558D02*
X115283333Y-105368320D01*
X115283333Y-105368320D02*
X115216666Y-105320700D01*
X115216666Y-105320700D02*
X115149999Y-105320700D01*
X114983333Y-105320700D02*
X114616666Y-105987367D01*
X114983333Y-105987367D02*
X114616666Y-105320700D01*
X119999999Y-101070700D02*
X120399999Y-101070700D01*
X120199999Y-101070700D02*
X120199999Y-102070700D01*
X120199999Y-102070700D02*
X120266666Y-101927843D01*
X120266666Y-101927843D02*
X120333333Y-101832605D01*
X120333333Y-101832605D02*
X120399999Y-101784986D01*
X114833333Y-104570700D02*
X114766666Y-104570700D01*
X114766666Y-104570700D02*
X114699999Y-104523081D01*
X114699999Y-104523081D02*
X114666666Y-104475462D01*
X114666666Y-104475462D02*
X114633333Y-104380224D01*
X114633333Y-104380224D02*
X114599999Y-104189748D01*
X114599999Y-104189748D02*
X114599999Y-103951653D01*
X114599999Y-103951653D02*
X114633333Y-103761177D01*
X114633333Y-103761177D02*
X114666666Y-103665939D01*
X114666666Y-103665939D02*
X114699999Y-103618320D01*
X114699999Y-103618320D02*
X114766666Y-103570700D01*
X114766666Y-103570700D02*
X114833333Y-103570700D01*
X114833333Y-103570700D02*
X114899999Y-103618320D01*
X114899999Y-103618320D02*
X114933333Y-103665939D01*
X114933333Y-103665939D02*
X114966666Y-103761177D01*
X114966666Y-103761177D02*
X114999999Y-103951653D01*
X114999999Y-103951653D02*
X114999999Y-104189748D01*
X114999999Y-104189748D02*
X114966666Y-104380224D01*
X114966666Y-104380224D02*
X114933333Y-104475462D01*
X114933333Y-104475462D02*
X114899999Y-104523081D01*
X114899999Y-104523081D02*
X114833333Y-104570700D01*
X114599999Y-101070700D02*
X114999999Y-101070700D01*
X114799999Y-101070700D02*
X114799999Y-102070700D01*
X114799999Y-102070700D02*
X114866666Y-101927843D01*
X114866666Y-101927843D02*
X114933333Y-101832605D01*
X114933333Y-101832605D02*
X114999999Y-101784986D01*
X120433333Y-105320700D02*
X120433333Y-105987367D01*
X120433333Y-105796891D02*
X120400000Y-105892129D01*
X120400000Y-105892129D02*
X120366666Y-105939748D01*
X120366666Y-105939748D02*
X120300000Y-105987367D01*
X120300000Y-105987367D02*
X120233333Y-105987367D01*
X120066667Y-105320700D02*
X119700000Y-105987367D01*
X120066667Y-105987367D02*
X119700000Y-105320700D01*
X114999999Y-99225462D02*
X114966666Y-99273081D01*
X114966666Y-99273081D02*
X114899999Y-99320700D01*
X114899999Y-99320700D02*
X114733333Y-99320700D01*
X114733333Y-99320700D02*
X114666666Y-99273081D01*
X114666666Y-99273081D02*
X114633333Y-99225462D01*
X114633333Y-99225462D02*
X114599999Y-99130224D01*
X114599999Y-99130224D02*
X114599999Y-99034986D01*
X114599999Y-99034986D02*
X114633333Y-98892129D01*
X114633333Y-98892129D02*
X115033333Y-98320700D01*
X115033333Y-98320700D02*
X114599999Y-98320700D01*
X104380700Y-85166667D02*
X104380700Y-85233333D01*
X104380700Y-85233333D02*
X104333081Y-85300000D01*
X104333081Y-85300000D02*
X104285462Y-85333333D01*
X104285462Y-85333333D02*
X104190224Y-85366667D01*
X104190224Y-85366667D02*
X103999748Y-85400000D01*
X103999748Y-85400000D02*
X103761653Y-85400000D01*
X103761653Y-85400000D02*
X103571177Y-85366667D01*
X103571177Y-85366667D02*
X103475939Y-85333333D01*
X103475939Y-85333333D02*
X103428320Y-85300000D01*
X103428320Y-85300000D02*
X103380700Y-85233333D01*
X103380700Y-85233333D02*
X103380700Y-85166667D01*
X103380700Y-85166667D02*
X103428320Y-85100000D01*
X103428320Y-85100000D02*
X103475939Y-85066667D01*
X103475939Y-85066667D02*
X103571177Y-85033333D01*
X103571177Y-85033333D02*
X103761653Y-85000000D01*
X103761653Y-85000000D02*
X103999748Y-85000000D01*
X103999748Y-85000000D02*
X104190224Y-85033333D01*
X104190224Y-85033333D02*
X104285462Y-85066667D01*
X104285462Y-85066667D02*
X104333081Y-85100000D01*
X104333081Y-85100000D02*
X104380700Y-85166667D01*
X105130700Y-79566666D02*
X105797367Y-79566666D01*
X105606891Y-79566666D02*
X105702129Y-79600000D01*
X105702129Y-79600000D02*
X105749748Y-79633333D01*
X105749748Y-79633333D02*
X105797367Y-79700000D01*
X105797367Y-79700000D02*
X105797367Y-79766666D01*
X105130700Y-79933333D02*
X105797367Y-80299999D01*
X105797367Y-79933333D02*
X105130700Y-80299999D01*
X105797367Y-84583333D02*
X105797367Y-84850000D01*
X106130700Y-84683333D02*
X105273558Y-84683333D01*
X105273558Y-84683333D02*
X105178320Y-84716667D01*
X105178320Y-84716667D02*
X105130700Y-84783333D01*
X105130700Y-84783333D02*
X105130700Y-84850000D01*
X105130700Y-85016667D02*
X105797367Y-85383333D01*
X105797367Y-85016667D02*
X105130700Y-85383333D01*
X100880700Y-85400000D02*
X100880700Y-85000000D01*
X100880700Y-85200000D02*
X101880700Y-85200000D01*
X101880700Y-85200000D02*
X101737843Y-85133333D01*
X101737843Y-85133333D02*
X101642605Y-85066667D01*
X101642605Y-85066667D02*
X101594986Y-85000000D01*
X100880700Y-80000000D02*
X100880700Y-79600000D01*
X100880700Y-79800000D02*
X101880700Y-79800000D01*
X101880700Y-79800000D02*
X101737843Y-79733333D01*
X101737843Y-79733333D02*
X101642605Y-79666667D01*
X101642605Y-79666667D02*
X101594986Y-79600000D01*
X99035462Y-85000000D02*
X99083081Y-85033333D01*
X99083081Y-85033333D02*
X99130700Y-85100000D01*
X99130700Y-85100000D02*
X99130700Y-85266667D01*
X99130700Y-85266667D02*
X99083081Y-85333333D01*
X99083081Y-85333333D02*
X99035462Y-85366667D01*
X99035462Y-85366667D02*
X98940224Y-85400000D01*
X98940224Y-85400000D02*
X98844986Y-85400000D01*
X98844986Y-85400000D02*
X98702129Y-85366667D01*
X98702129Y-85366667D02*
X98130700Y-84966667D01*
X98130700Y-84966667D02*
X98130700Y-85400000D01*
X99130700Y-79766667D02*
X99130700Y-79833333D01*
X99130700Y-79833333D02*
X99083081Y-79900000D01*
X99083081Y-79900000D02*
X99035462Y-79933333D01*
X99035462Y-79933333D02*
X98940224Y-79966667D01*
X98940224Y-79966667D02*
X98749748Y-80000000D01*
X98749748Y-80000000D02*
X98511653Y-80000000D01*
X98511653Y-80000000D02*
X98321177Y-79966667D01*
X98321177Y-79966667D02*
X98225939Y-79933333D01*
X98225939Y-79933333D02*
X98178320Y-79900000D01*
X98178320Y-79900000D02*
X98130700Y-79833333D01*
X98130700Y-79833333D02*
X98130700Y-79766667D01*
X98130700Y-79766667D02*
X98178320Y-79700000D01*
X98178320Y-79700000D02*
X98225939Y-79666667D01*
X98225939Y-79666667D02*
X98321177Y-79633333D01*
X98321177Y-79633333D02*
X98511653Y-79600000D01*
X98511653Y-79600000D02*
X98749748Y-79600000D01*
X98749748Y-79600000D02*
X98940224Y-79633333D01*
X98940224Y-79633333D02*
X99035462Y-79666667D01*
X99035462Y-79666667D02*
X99083081Y-79700000D01*
X99083081Y-79700000D02*
X99130700Y-79766667D01*
X104285462Y-79600000D02*
X104333081Y-79633333D01*
X104333081Y-79633333D02*
X104380700Y-79700000D01*
X104380700Y-79700000D02*
X104380700Y-79866667D01*
X104380700Y-79866667D02*
X104333081Y-79933333D01*
X104333081Y-79933333D02*
X104285462Y-79966667D01*
X104285462Y-79966667D02*
X104190224Y-80000000D01*
X104190224Y-80000000D02*
X104094986Y-80000000D01*
X104094986Y-80000000D02*
X103952129Y-79966667D01*
X103952129Y-79966667D02*
X103380700Y-79566667D01*
X103380700Y-79566667D02*
X103380700Y-80000000D01*
D10*
X111138748Y-92865000D02*
X111661252Y-92865000D01*
X111138748Y-94335000D02*
X111661252Y-94335000D01*
X102340000Y-95007836D02*
X102340000Y-94792164D01*
X103060000Y-95007836D02*
X103060000Y-94792164D01*
X101340000Y-95007836D02*
X101340000Y-94792164D01*
X102060000Y-95007836D02*
X102060000Y-94792164D01*
X93722836Y-100840000D02*
X93507164Y-100840000D01*
X93722836Y-101560000D02*
X93507164Y-101560000D01*
X94242836Y-86640000D02*
X94027164Y-86640000D01*
X94242836Y-87360000D02*
X94027164Y-87360000D01*
X89653641Y-87120000D02*
X89346359Y-87120000D01*
X89653641Y-87880000D02*
X89346359Y-87880000D01*
X107090000Y-86200000D02*
X107090000Y-89960000D01*
X107090000Y-89960000D02*
X108350000Y-89960000D01*
X113910000Y-83950000D02*
X113910000Y-89960000D01*
X113910000Y-89960000D02*
X112650000Y-89960000D01*
X88275000Y-88275000D02*
X88275000Y-88535000D01*
X88275000Y-88535000D02*
X86600000Y-88535000D01*
X88275000Y-93725000D02*
X88275000Y-93465000D01*
X91000000Y-88275000D02*
X88275000Y-88275000D01*
X91000000Y-88275000D02*
X93725000Y-88275000D01*
X91000000Y-93725000D02*
X88275000Y-93725000D01*
X91000000Y-93725000D02*
X93725000Y-93725000D01*
X93725000Y-88275000D02*
X93725000Y-88535000D01*
X93725000Y-93725000D02*
X93725000Y-93465000D01*
X87120000Y-86653641D02*
X87120000Y-86346359D01*
X87880000Y-86653641D02*
X87880000Y-86346359D01*
X100240000Y-92627836D02*
X100240000Y-92412164D01*
X100960000Y-92627836D02*
X100960000Y-92412164D01*
X107094664Y-100390000D02*
X107310336Y-100390000D01*
X107094664Y-101110000D02*
X107310336Y-101110000D01*
X100021000Y-106377164D02*
X100021000Y-106592836D01*
X100741000Y-106377164D02*
X100741000Y-106592836D01*
X101140000Y-106377164D02*
X101140000Y-106592836D01*
X101860000Y-106377164D02*
X101860000Y-106592836D01*
X109938748Y-81665000D02*
X110461252Y-81665000D01*
X109938748Y-83135000D02*
X110461252Y-83135000D01*
X94840000Y-96087836D02*
X94840000Y-95872164D01*
X95560000Y-96087836D02*
X95560000Y-95872164D01*
X104440000Y-89172836D02*
X104440000Y-88957164D01*
X105160000Y-89172836D02*
X105160000Y-88957164D01*
X96390000Y-103610000D02*
X96390000Y-102960000D01*
X97040000Y-96390000D02*
X96390000Y-96390000D01*
X97040000Y-103610000D02*
X96390000Y-103610000D01*
X102960000Y-96390000D02*
X103610000Y-96390000D01*
X102960000Y-103610000D02*
X103610000Y-103610000D01*
X103610000Y-96390000D02*
X103610000Y-97040000D01*
X103610000Y-103610000D02*
X103610000Y-102960000D01*
X99240000Y-92627836D02*
X99240000Y-92412164D01*
X99960000Y-92627836D02*
X99960000Y-92412164D01*
X105712164Y-95340000D02*
X105927836Y-95340000D01*
X105712164Y-96060000D02*
X105927836Y-96060000D01*
X97788748Y-86265000D02*
X98311252Y-86265000D01*
X97788748Y-87735000D02*
X98311252Y-87735000D01*
X117670000Y-88670000D02*
X119000000Y-88670000D01*
X117670000Y-90000000D02*
X117670000Y-88670000D01*
X117670000Y-91270000D02*
X117670000Y-91330000D01*
X117670000Y-91270000D02*
X120330000Y-91270000D01*
X117670000Y-91330000D02*
X120330000Y-91330000D01*
X120330000Y-91270000D02*
X120330000Y-91330000D01*
D13*
X93500000Y-114300000D02*
X93500000Y-115500000D01*
X93500000Y-114300000D02*
X102250000Y-114300000D01*
X93500000Y-120700000D02*
X93500000Y-119500000D01*
X93500000Y-120700000D02*
X102250000Y-120700000D01*
X102250000Y-114300000D02*
X102250000Y-115500000D01*
X102250000Y-120700000D02*
X102250000Y-119500000D01*
X103750000Y-115008000D02*
X103750000Y-114500000D01*
X103750000Y-120504000D02*
X103750000Y-119996000D01*
X104004000Y-120250000D02*
X103496000Y-120250000D01*
D10*
X97370000Y-110270000D02*
X98700000Y-110270000D01*
X97370000Y-111600000D02*
X97370000Y-110270000D01*
X97370000Y-112870000D02*
X97370000Y-112930000D01*
X97370000Y-112870000D02*
X100030000Y-112870000D01*
X97370000Y-112930000D02*
X100030000Y-112930000D01*
X100030000Y-112870000D02*
X100030000Y-112930000D01*
X104800000Y-105850000D02*
X104800000Y-104450000D01*
X105500000Y-103750000D02*
X106100000Y-103750000D01*
X106100000Y-106550000D02*
X105500000Y-106550000D01*
X106800000Y-104450000D02*
X106800000Y-105850000D01*
X104800000Y-104450000D02*
G75*
G02*
X105500000Y-103750000I700000J0D01*
G01*
X105500000Y-106550000D02*
G75*
G02*
X104800000Y-105850000I-1J699999D01*
G01*
X106100000Y-103750000D02*
G75*
G02*
X106800000Y-104450000I0J-700000D01*
G01*
X106800000Y-105850000D02*
G75*
G02*
X106100000Y-106550000I-699999J-1D01*
G01*
X89150000Y-105800000D02*
X89150000Y-109800000D01*
X92450000Y-105800000D02*
X89150000Y-105800000D01*
X106565000Y-107202500D02*
X106565000Y-109487500D01*
X108035000Y-107202500D02*
X106565000Y-107202500D01*
X108035000Y-109487500D02*
X108035000Y-107202500D01*
X102040000Y-110810000D02*
X102040000Y-109700000D01*
X102800000Y-110810000D02*
X102040000Y-110810000D01*
X103560000Y-108590000D02*
X103495000Y-108590000D01*
X103560000Y-109136529D02*
X103560000Y-108590000D01*
X103560000Y-110810000D02*
X103495000Y-110810000D01*
X103560000Y-110810000D02*
X103560000Y-108590000D01*
X103560000Y-110810000D02*
X103560000Y-110263471D01*
D13*
X79300000Y-93500000D02*
X79300000Y-102250000D01*
X79300000Y-93500000D02*
X80500000Y-93500000D01*
X79300000Y-102250000D02*
X80500000Y-102250000D01*
X79496000Y-103750000D02*
X80004000Y-103750000D01*
X79750000Y-104004000D02*
X79750000Y-103496000D01*
X84992000Y-103750000D02*
X85500000Y-103750000D01*
X85700000Y-93500000D02*
X84500000Y-93500000D01*
X85700000Y-93500000D02*
X85700000Y-102250000D01*
X85700000Y-102250000D02*
X84500000Y-102250000D01*
D10*
X92940000Y-104912164D02*
X92940000Y-105127836D01*
X93660000Y-104912164D02*
X93660000Y-105127836D01*
D13*
X114300000Y-97940000D02*
X115500000Y-97940000D01*
X114300000Y-106690000D02*
X114300000Y-97940000D01*
X114300000Y-106690000D02*
X115500000Y-106690000D01*
X115008000Y-96440000D02*
X114500000Y-96440000D01*
X120250000Y-96186000D02*
X120250000Y-96694000D01*
X120504000Y-96440000D02*
X119996000Y-96440000D01*
X120700000Y-97940000D02*
X119500000Y-97940000D01*
X120700000Y-106690000D02*
X119500000Y-106690000D01*
X120700000Y-106690000D02*
X120700000Y-97940000D01*
D10*
X108312439Y-113556657D02*
X110193343Y-115437561D01*
X111946967Y-109922129D02*
X108312439Y-113556657D01*
X111946967Y-109922129D02*
X113827871Y-111803033D01*
X112844993Y-109024103D02*
X113785445Y-108083651D01*
X113785445Y-108083651D02*
X114725897Y-109024103D01*
X113827871Y-111803033D02*
X110193343Y-115437561D01*
X105520000Y-109443641D02*
X105520000Y-109136359D01*
X106280000Y-109443641D02*
X106280000Y-109136359D01*
X95800000Y-106190000D02*
X94300000Y-106190000D01*
X95800000Y-106190000D02*
X97300000Y-106190000D01*
X95800000Y-109410000D02*
X94300000Y-109410000D01*
X95800000Y-109410000D02*
X97300000Y-109410000D01*
X93587500Y-106365000D02*
X93347500Y-106035000D01*
X93827500Y-106035000D01*
X93587500Y-106365000D01*
G36*
X93587500Y-106365000D02*
G01*
X93347500Y-106035000D01*
X93827500Y-106035000D01*
X93587500Y-106365000D01*
G37*
D13*
X95996000Y-79750000D02*
X96504000Y-79750000D01*
X96250000Y-79496000D02*
X96250000Y-80004000D01*
X96250000Y-84992000D02*
X96250000Y-85500000D01*
X97750000Y-79300000D02*
X97750000Y-80500000D01*
X97750000Y-85700000D02*
X97750000Y-84500000D01*
X106500000Y-79300000D02*
X97750000Y-79300000D01*
X106500000Y-79300000D02*
X106500000Y-80500000D01*
X106500000Y-85700000D02*
X97750000Y-85700000D01*
X106500000Y-85700000D02*
X106500000Y-84500000D01*
%LPC*%
D14*
X110450000Y-93600000D03*
X112350000Y-93600000D03*
D15*
X102700000Y-95380000D03*
X102700000Y-94420000D03*
X101700000Y-95380000D03*
X101700000Y-94420000D03*
D16*
X94095000Y-101200000D03*
X93135000Y-101200000D03*
X94615000Y-87000000D03*
X93655000Y-87000000D03*
D17*
X90010000Y-87500000D03*
X88990000Y-87500000D03*
D18*
X112800000Y-84900000D03*
X110500000Y-84900000D03*
D19*
X110500000Y-91200000D03*
D18*
X108200000Y-84900000D03*
D20*
X87400000Y-89095000D03*
X87400000Y-90365000D03*
X87400000Y-91635000D03*
X87400000Y-92905000D03*
X94600000Y-92905000D03*
X94600000Y-91635000D03*
X94600000Y-90365000D03*
X94600000Y-89095000D03*
D21*
X87500000Y-87010000D03*
X87500000Y-85990000D03*
D15*
X100600000Y-93000000D03*
X100600000Y-92040000D03*
D22*
X106722500Y-100750000D03*
X107682500Y-100750000D03*
D23*
X100381000Y-106005000D03*
X100381000Y-106965000D03*
X101500000Y-106005000D03*
X101500000Y-106965000D03*
D14*
X109250000Y-82400000D03*
X111150000Y-82400000D03*
D15*
X95200000Y-96460000D03*
X95200000Y-95500000D03*
X104800000Y-89545000D03*
X104800000Y-88585000D03*
D24*
X96562500Y-97400000D03*
X96562500Y-97800000D03*
X96562500Y-98200000D03*
X96562500Y-98600000D03*
X96562500Y-99000000D03*
X96562500Y-99400000D03*
X96562500Y-99800000D03*
X96562500Y-100200000D03*
X96562500Y-100600000D03*
X96562500Y-101000000D03*
X96562500Y-101400000D03*
X96562500Y-101800000D03*
X96562500Y-102200000D03*
X96562500Y-102600000D03*
D25*
X97400000Y-103437500D03*
X97800000Y-103437500D03*
X98200000Y-103437500D03*
X98600000Y-103437500D03*
X99000000Y-103437500D03*
X99400000Y-103437500D03*
X99800000Y-103437500D03*
X100200000Y-103437500D03*
X100600000Y-103437500D03*
X101000000Y-103437500D03*
X101400000Y-103437500D03*
X101800000Y-103437500D03*
X102200000Y-103437500D03*
X102600000Y-103437500D03*
D24*
X103437500Y-102600000D03*
X103437500Y-102200000D03*
X103437500Y-101800000D03*
X103437500Y-101400000D03*
X103437500Y-101000000D03*
X103437500Y-100600000D03*
X103437500Y-100200000D03*
X103437500Y-99800000D03*
X103437500Y-99400000D03*
X103437500Y-99000000D03*
X103437500Y-98600000D03*
X103437500Y-98200000D03*
X103437500Y-97800000D03*
X103437500Y-97400000D03*
D25*
X102600000Y-96562500D03*
X102200000Y-96562500D03*
X101800000Y-96562500D03*
X101400000Y-96562500D03*
X101000000Y-96562500D03*
X100600000Y-96562500D03*
X100200000Y-96562500D03*
X99800000Y-96562500D03*
X99400000Y-96562500D03*
X99000000Y-96562500D03*
X98600000Y-96562500D03*
X98200000Y-96562500D03*
X97800000Y-96562500D03*
X97400000Y-96562500D03*
D26*
X100000000Y-100000000D03*
D27*
X83000000Y-83000000D03*
X117000000Y-117000000D03*
D15*
X99600000Y-93000000D03*
X99600000Y-92040000D03*
D22*
X105340000Y-95700000D03*
X106300000Y-95700000D03*
D27*
X117000000Y-83000000D03*
X83000000Y-117000000D03*
D14*
X97100000Y-87000000D03*
X99000000Y-87000000D03*
D28*
X119000000Y-90000000D03*
D29*
X103810000Y-116230000D03*
D30*
X103810000Y-118770000D03*
X101270000Y-116230000D03*
X101270000Y-118770000D03*
X98730000Y-116230000D03*
X98730000Y-118770000D03*
X96190000Y-116230000D03*
X96190000Y-118770000D03*
D29*
X98700000Y-111600000D03*
D31*
X105800000Y-105800000D03*
D32*
X105800000Y-104500000D03*
D33*
X89950000Y-106700000D03*
X89950000Y-108900000D03*
X91650000Y-108900000D03*
X91650000Y-106700000D03*
D34*
X107300000Y-107900000D03*
X107300000Y-109475000D03*
D35*
X102800000Y-109700000D03*
D29*
X83770000Y-103810000D03*
D30*
X81230000Y-103810000D03*
X83770000Y-101270000D03*
X81230000Y-101270000D03*
X83770000Y-98730000D03*
X81230000Y-98730000D03*
X83770000Y-96190000D03*
X81230000Y-96190000D03*
D23*
X93300000Y-104540000D03*
X93300000Y-105500000D03*
D29*
X116230000Y-96380000D03*
D30*
X118770000Y-96380000D03*
X116230000Y-98920000D03*
X118770000Y-98920000D03*
X116230000Y-101460000D03*
X118770000Y-101460000D03*
X116230000Y-104000000D03*
X118770000Y-104000000D03*
D36*
X113785445Y-109964555D03*
D37*
X111989394Y-111760606D03*
X110193343Y-113556657D03*
D38*
X81000000Y-92500000D03*
X84500000Y-92500000D03*
X81000000Y-86500000D03*
X84500000Y-86500000D03*
D21*
X105900000Y-109800000D03*
X105900000Y-108780000D03*
D39*
X93687500Y-106800000D03*
X93687500Y-107300000D03*
X93687500Y-107800000D03*
X93687500Y-108300000D03*
X93687500Y-108800000D03*
X97912500Y-108800000D03*
X97912500Y-108300000D03*
X97912500Y-107800000D03*
X97912500Y-107300000D03*
X97912500Y-106800000D03*
D29*
X96190000Y-83770000D03*
D30*
X96190000Y-81230000D03*
X98730000Y-83770000D03*
X98730000Y-81230000D03*
X101270000Y-83770000D03*
X101270000Y-81230000D03*
X103810000Y-83770000D03*
X103810000Y-81230000D03*
D40*
X85112994Y-109312994D03*
D41*
X86909045Y-111109045D03*
X88705096Y-112905096D03*
X90501148Y-114701148D03*
%LPD*%
M02*
