G04 #@! TF.GenerationSoftware,KiCad,Pcbnew,8.0.6*
G04 #@! TF.CreationDate,2025-01-25T09:56:42+01:00*
G04 #@! TF.ProjectId,RP2040_minimal_r2,52503230-3430-45f6-9d69-6e696d616c5f,REV2*
G04 #@! TF.SameCoordinates,Original*
G04 #@! TF.FileFunction,Soldermask,Bot*
G04 #@! TF.FilePolarity,Negative*
%FSLAX46Y46*%
G04 Gerber Fmt 4.6, Leading zero omitted, Abs format (unit mm)*
G04 Created by KiCad (PCBNEW 8.0.6) date 2025-01-25 09:56:42*
%MOMM*%
%LPD*%
G01*
G04 APERTURE LIST*
G04 Aperture macros list*
%AMHorizOval*
0 Thick line with rounded ends*
0 $1 width*
0 $2 $3 position (X,Y) of the first rounded end (center of the circle)*
0 $4 $5 position (X,Y) of the second rounded end (center of the circle)*
0 Add line between two ends*
20,1,$1,$2,$3,$4,$5,0*
0 Add two circle primitives to create the rounded ends*
1,1,$1,$2,$3*
1,1,$1,$4,$5*%
%AMRotRect*
0 Rectangle, with rotation*
0 The origin of the aperture is its center*
0 $1 length*
0 $2 width*
0 $3 Rotation angle, in degrees counterclockwise*
0 Add horizontal line*
21,1,$1,$2,0,0,$3*%
%AMFreePoly0*
4,1,19,0.500000,-0.750000,0.000000,-0.750000,0.000000,-0.744911,-0.071157,-0.744911,-0.207708,-0.704816,-0.327430,-0.627875,-0.420627,-0.520320,-0.479746,-0.390866,-0.500000,-0.250000,-0.500000,0.250000,-0.479746,0.390866,-0.420627,0.520320,-0.327430,0.627875,-0.207708,0.704816,-0.071157,0.744911,0.000000,0.744911,0.000000,0.750000,0.500000,0.750000,0.500000,-0.750000,0.500000,-0.750000,
$1*%
%AMFreePoly1*
4,1,19,0.000000,0.744911,0.071157,0.744911,0.207708,0.704816,0.327430,0.627875,0.420627,0.520320,0.479746,0.390866,0.500000,0.250000,0.500000,-0.250000,0.479746,-0.390866,0.420627,-0.520320,0.327430,-0.627875,0.207708,-0.704816,0.071157,-0.744911,0.000000,-0.744911,0.000000,-0.750000,-0.500000,-0.750000,-0.500000,0.750000,0.000000,0.750000,0.000000,0.744911,0.000000,0.744911,
$1*%
G04 Aperture macros list end*
%ADD10C,2.700000*%
%ADD11C,1.500000*%
%ADD12R,1.700000X1.700000*%
%ADD13C,1.700000*%
%ADD14R,1.000000X1.000000*%
%ADD15RotRect,1.700000X1.700000X315.000000*%
%ADD16HorizOval,1.700000X0.000000X0.000000X0.000000X0.000000X0*%
%ADD17RotRect,1.700000X1.700000X225.000000*%
%ADD18HorizOval,1.700000X0.000000X0.000000X0.000000X0.000000X0*%
%ADD19FreePoly0,90.000000*%
%ADD20FreePoly1,90.000000*%
%ADD21C,0.600000*%
G04 APERTURE END LIST*
D10*
X83000000Y-83000000D03*
X117000000Y-117000000D03*
X117000000Y-83000000D03*
X83000000Y-117000000D03*
D11*
X119000000Y-90000000D03*
D12*
X103810000Y-116230000D03*
D13*
X103810000Y-118770000D03*
X101270000Y-116230000D03*
X101270000Y-118770000D03*
X98730000Y-116230000D03*
X98730000Y-118770000D03*
X96190000Y-116230000D03*
X96190000Y-118770000D03*
D12*
X98700000Y-112700000D03*
D14*
X102800000Y-109700000D03*
D12*
X83770000Y-103810000D03*
D13*
X81230000Y-103810000D03*
X83770000Y-101270000D03*
X81230000Y-101270000D03*
X83770000Y-98730000D03*
X81230000Y-98730000D03*
X83770000Y-96190000D03*
X81230000Y-96190000D03*
D12*
X116230000Y-96380000D03*
D13*
X118770000Y-96380000D03*
X116230000Y-98920000D03*
X118770000Y-98920000D03*
X116230000Y-101460000D03*
X118770000Y-101460000D03*
X116230000Y-104000000D03*
X118770000Y-104000000D03*
D15*
X113785445Y-109964555D03*
D16*
X111989394Y-111760606D03*
X110193343Y-113556657D03*
D12*
X96190000Y-83770000D03*
D13*
X96190000Y-81230000D03*
X98730000Y-83770000D03*
X98730000Y-81230000D03*
X101270000Y-83770000D03*
X101270000Y-81230000D03*
X103810000Y-83770000D03*
X103810000Y-81230000D03*
D17*
X85112994Y-109312994D03*
D18*
X86909045Y-111109045D03*
X88705096Y-112905096D03*
X90501148Y-114701148D03*
D19*
X107000000Y-105800000D03*
D20*
X107000000Y-104500000D03*
D21*
X112600000Y-82800000D03*
X99600000Y-91205008D03*
X86700000Y-98000000D03*
X109900000Y-107400000D03*
X81000000Y-113000000D03*
X108717500Y-100750000D03*
X101500000Y-88200000D03*
X101500000Y-107782004D03*
X93800000Y-95400000D03*
X91100000Y-101200000D03*
X103300000Y-93125000D03*
X104800000Y-87570000D03*
X102300000Y-92800000D03*
X98500000Y-105600000D03*
X92650000Y-86970000D03*
X90000000Y-92500000D03*
X100380994Y-107781990D03*
X105900000Y-112500000D03*
X106600000Y-94800000D03*
X118400000Y-112800000D03*
X101500000Y-113000000D03*
X113600000Y-93200000D03*
X100600000Y-91205000D03*
X110000000Y-96800000D03*
X91200000Y-103900000D03*
X99800000Y-95199994D03*
X100700000Y-97900000D03*
X100800000Y-105200000D03*
X100599970Y-102100000D03*
X89250000Y-98500000D03*
X90000000Y-98130000D03*
X90750000Y-97750000D03*
X91500000Y-97250000D03*
X92250000Y-96750000D03*
X93000000Y-96250000D03*
X107481268Y-95976268D03*
X106000000Y-97100000D03*
X105600000Y-98225000D03*
X94200000Y-105600000D03*
X95400000Y-105400000D03*
X104900000Y-98700000D03*
X112700000Y-96700000D03*
X107200000Y-99000000D03*
X108700000Y-99400000D03*
X105200000Y-102300000D03*
X105200000Y-104400000D03*
X103200000Y-111500000D03*
X102000000Y-111600000D03*
X104100000Y-106900000D03*
X99600000Y-108400000D03*
X105800000Y-107400000D03*
M02*
