G04 #@! TF.GenerationSoftware,KiCad,Pcbnew,8.0.6*
G04 #@! TF.CreationDate,2025-01-25T09:56:42+01:00*
G04 #@! TF.ProjectId,RP2040_minimal_r2,52503230-3430-45f6-9d69-6e696d616c5f,REV2*
G04 #@! TF.SameCoordinates,Original*
G04 #@! TF.FileFunction,Copper,L2,Bot*
G04 #@! TF.FilePolarity,Positive*
%FSLAX46Y46*%
G04 Gerber Fmt 4.6, Leading zero omitted, Abs format (unit mm)*
G04 Created by KiCad (PCBNEW 8.0.6) date 2025-01-25 09:56:42*
%MOMM*%
%LPD*%
G01*
G04 APERTURE LIST*
G04 Aperture macros list*
%AMHorizOval*
0 Thick line with rounded ends*
0 $1 width*
0 $2 $3 position (X,Y) of the first rounded end (center of the circle)*
0 $4 $5 position (X,Y) of the second rounded end (center of the circle)*
0 Add line between two ends*
20,1,$1,$2,$3,$4,$5,0*
0 Add two circle primitives to create the rounded ends*
1,1,$1,$2,$3*
1,1,$1,$4,$5*%
%AMRotRect*
0 Rectangle, with rotation*
0 The origin of the aperture is its center*
0 $1 length*
0 $2 width*
0 $3 Rotation angle, in degrees counterclockwise*
0 Add horizontal line*
21,1,$1,$2,0,0,$3*%
%AMFreePoly0*
4,1,19,0.500000,-0.750000,0.000000,-0.750000,0.000000,-0.744911,-0.071157,-0.744911,-0.207708,-0.704816,-0.327430,-0.627875,-0.420627,-0.520320,-0.479746,-0.390866,-0.500000,-0.250000,-0.500000,0.250000,-0.479746,0.390866,-0.420627,0.520320,-0.327430,0.627875,-0.207708,0.704816,-0.071157,0.744911,0.000000,0.744911,0.000000,0.750000,0.500000,0.750000,0.500000,-0.750000,0.500000,-0.750000,
$1*%
%AMFreePoly1*
4,1,19,0.000000,0.744911,0.071157,0.744911,0.207708,0.704816,0.327430,0.627875,0.420627,0.520320,0.479746,0.390866,0.500000,0.250000,0.500000,-0.250000,0.479746,-0.390866,0.420627,-0.520320,0.327430,-0.627875,0.207708,-0.704816,0.071157,-0.744911,0.000000,-0.744911,0.000000,-0.750000,-0.500000,-0.750000,-0.500000,0.750000,0.000000,0.750000,0.000000,0.744911,0.000000,0.744911,
$1*%
G04 Aperture macros list end*
G04 #@! TA.AperFunction,EtchedComponent*
%ADD10C,0.000000*%
G04 #@! TD*
G04 #@! TA.AperFunction,ComponentPad*
%ADD11C,0.600000*%
G04 #@! TD*
G04 #@! TA.AperFunction,ComponentPad*
%ADD12C,1.500000*%
G04 #@! TD*
G04 #@! TA.AperFunction,ComponentPad*
%ADD13R,1.700000X1.700000*%
G04 #@! TD*
G04 #@! TA.AperFunction,ComponentPad*
%ADD14C,1.700000*%
G04 #@! TD*
G04 #@! TA.AperFunction,ComponentPad*
%ADD15R,1.000000X1.000000*%
G04 #@! TD*
G04 #@! TA.AperFunction,ComponentPad*
%ADD16RotRect,1.700000X1.700000X315.000000*%
G04 #@! TD*
G04 #@! TA.AperFunction,ComponentPad*
%ADD17HorizOval,1.700000X0.000000X0.000000X0.000000X0.000000X0*%
G04 #@! TD*
G04 #@! TA.AperFunction,ComponentPad*
%ADD18RotRect,1.700000X1.700000X225.000000*%
G04 #@! TD*
G04 #@! TA.AperFunction,ComponentPad*
%ADD19HorizOval,1.700000X0.000000X0.000000X0.000000X0.000000X0*%
G04 #@! TD*
G04 #@! TA.AperFunction,SMDPad,CuDef*
%ADD20FreePoly0,90.000000*%
G04 #@! TD*
G04 #@! TA.AperFunction,SMDPad,CuDef*
%ADD21FreePoly1,90.000000*%
G04 #@! TD*
G04 #@! TA.AperFunction,ViaPad*
%ADD22C,0.600000*%
G04 #@! TD*
G04 #@! TA.AperFunction,Conductor*
%ADD23C,0.400000*%
G04 #@! TD*
G04 #@! TA.AperFunction,Conductor*
%ADD24C,0.150000*%
G04 #@! TD*
G04 APERTURE END LIST*
D10*
G04 #@! TA.AperFunction,EtchedComponent*
G36*
X107300000Y-105400000D02*
G01*
X106700000Y-105400000D01*
X106700000Y-104900000D01*
X107300000Y-104900000D01*
X107300000Y-105400000D01*
G37*
G04 #@! TD.AperFunction*
D11*
X98725000Y-98725000D03*
X98725000Y-100000000D03*
X98725000Y-101275000D03*
X100000000Y-98725000D03*
X100000000Y-100000000D03*
X100000000Y-101275000D03*
X101275000Y-98725000D03*
X101275000Y-100000000D03*
X101275000Y-101275000D03*
D12*
X119000000Y-90000000D03*
D13*
X103810000Y-116230000D03*
D14*
X103810000Y-118770000D03*
X101270000Y-116230000D03*
X101270000Y-118770000D03*
X98730000Y-116230000D03*
X98730000Y-118770000D03*
X96190000Y-116230000D03*
X96190000Y-118770000D03*
D13*
X98700000Y-112700000D03*
D15*
X102800000Y-109700000D03*
D13*
X83770000Y-103810000D03*
D14*
X81230000Y-103810000D03*
X83770000Y-101270000D03*
X81230000Y-101270000D03*
X83770000Y-98730000D03*
X81230000Y-98730000D03*
X83770000Y-96190000D03*
X81230000Y-96190000D03*
D13*
X116230000Y-96380000D03*
D14*
X118770000Y-96380000D03*
X116230000Y-98920000D03*
X118770000Y-98920000D03*
X116230000Y-101460000D03*
X118770000Y-101460000D03*
X116230000Y-104000000D03*
X118770000Y-104000000D03*
D16*
X113785445Y-109964555D03*
D17*
X111989394Y-111760606D03*
X110193343Y-113556657D03*
D13*
X96190000Y-83770000D03*
D14*
X96190000Y-81230000D03*
X98730000Y-83770000D03*
X98730000Y-81230000D03*
X101270000Y-83770000D03*
X101270000Y-81230000D03*
X103810000Y-83770000D03*
X103810000Y-81230000D03*
D18*
X85112994Y-109312994D03*
D19*
X86909045Y-111109045D03*
X88705096Y-112905096D03*
X90501148Y-114701148D03*
D20*
X107000000Y-105800000D03*
D21*
X107000000Y-104500000D03*
D22*
X112600000Y-82800000D03*
X99600000Y-91205008D03*
X86700000Y-98000000D03*
X109900000Y-107400000D03*
X81000000Y-113000000D03*
X108717500Y-100750000D03*
X101500000Y-88200000D03*
X101500000Y-107782004D03*
X93800000Y-95400000D03*
X91100000Y-101200000D03*
X103300000Y-93125000D03*
X104800000Y-87570000D03*
X102300000Y-92800000D03*
X98500000Y-105600000D03*
X92650000Y-86970000D03*
X90000000Y-92500000D03*
X100380994Y-107781990D03*
X105900000Y-112500000D03*
X106600000Y-94800000D03*
X118400000Y-112800000D03*
X101500000Y-113000000D03*
X113600000Y-93200000D03*
X100600000Y-91205000D03*
X110000000Y-96800000D03*
X91200000Y-103900000D03*
X99800000Y-95199994D03*
X100700000Y-97900000D03*
X100800000Y-105200000D03*
X100599970Y-102100000D03*
X89250000Y-98500000D03*
X90000000Y-98130000D03*
X90750000Y-97750000D03*
X91500000Y-97250000D03*
X92250000Y-96750000D03*
X93000000Y-96250000D03*
X107481268Y-95976268D03*
X106000000Y-97100000D03*
X105600000Y-98225000D03*
X94200000Y-105600000D03*
X95400000Y-105400000D03*
X104900000Y-98700000D03*
X112700000Y-96700000D03*
X107200000Y-99000000D03*
X108700000Y-99400000D03*
X105200000Y-102300000D03*
X105200000Y-104400000D03*
X103200000Y-111500000D03*
X102000000Y-111600000D03*
X104100000Y-106900000D03*
X99600000Y-108400000D03*
X105800000Y-107400000D03*
D23*
X88705096Y-112905096D02*
X93600000Y-112905096D01*
X95955096Y-110550000D02*
X105850000Y-110550000D01*
X105850000Y-110550000D02*
X108500000Y-107900000D01*
X93600000Y-112905096D02*
X95955096Y-110550000D01*
X108500000Y-107900000D02*
X108500000Y-103200000D01*
X108500000Y-103200000D02*
X106200000Y-100900000D01*
X106200000Y-100900000D02*
X106200000Y-99080761D01*
X106200000Y-99080761D02*
X108480761Y-96800000D01*
X108480761Y-96800000D02*
X110000000Y-96800000D01*
X81235000Y-103800000D02*
X79500000Y-102065000D01*
X81235000Y-103800000D02*
X81235000Y-111035000D01*
X90600000Y-120400000D02*
X102200000Y-120400000D01*
X102200000Y-120400000D02*
X102200000Y-120365000D01*
X109635000Y-118765000D02*
X120400000Y-108000000D01*
X120400000Y-97835000D02*
X118765000Y-96200000D01*
X103800000Y-118765000D02*
X109635000Y-118765000D01*
X102200000Y-120365000D02*
X103800000Y-118765000D01*
X81235000Y-111035000D02*
X90600000Y-120400000D01*
X79500000Y-91900000D02*
X90165000Y-81235000D01*
X120400000Y-108000000D02*
X120400000Y-97835000D01*
X79500000Y-102065000D02*
X79500000Y-91900000D01*
X90165000Y-81235000D02*
X96200000Y-81235000D01*
X87900000Y-105300000D02*
X89100000Y-104100000D01*
X88705096Y-110605096D02*
X88400000Y-110300000D01*
X88705096Y-112905096D02*
X88705096Y-110605096D01*
X87900000Y-109800000D02*
X87900000Y-107600000D01*
X87900000Y-107600000D02*
X87900000Y-105300000D01*
X89100000Y-104100000D02*
X89300000Y-103900000D01*
X88400000Y-110300000D02*
X87900000Y-109800000D01*
X89300000Y-103900000D02*
X91200000Y-103900000D01*
X100800000Y-105200000D02*
X100590000Y-104990000D01*
X100590000Y-104990000D02*
X100590000Y-102109970D01*
X100590000Y-102109970D02*
X100599970Y-102100000D01*
X99800000Y-97010000D02*
X100690000Y-97900000D01*
X99800000Y-95199994D02*
X99800000Y-97010000D01*
X100690000Y-97900000D02*
X100700000Y-97900000D01*
D24*
X95078680Y-86600000D02*
X97140000Y-86600000D01*
X91463604Y-90215076D02*
X95078680Y-86600000D01*
X89250000Y-98500000D02*
X89250000Y-97277208D01*
X89250000Y-97277208D02*
X91463604Y-95063604D01*
X91463604Y-95063604D02*
X91463604Y-90215076D01*
X97140000Y-86600000D02*
X98740000Y-85000000D01*
X98740000Y-85000000D02*
X98740000Y-83775000D01*
X101280000Y-85000000D02*
X101280000Y-83775000D01*
X98800000Y-85500000D02*
X100780000Y-85500000D01*
X95202944Y-86900000D02*
X97400000Y-86900000D01*
X97400000Y-86900000D02*
X98800000Y-85500000D01*
X91800000Y-95151472D02*
X91800000Y-90302944D01*
X100780000Y-85500000D02*
X101280000Y-85000000D01*
X90000000Y-98130000D02*
X90000000Y-96951472D01*
X90000000Y-96951472D02*
X91800000Y-95151472D01*
X91800000Y-90302944D02*
X95202944Y-86900000D01*
X90750000Y-97750000D02*
X90750000Y-96625736D01*
X90750000Y-96625736D02*
X92100000Y-95275736D01*
X99200000Y-85800000D02*
X103220000Y-85800000D01*
X103820000Y-85200000D02*
X103820000Y-83775000D01*
X95327208Y-87200000D02*
X97800000Y-87200000D01*
X97800000Y-87200000D02*
X99200000Y-85800000D01*
X103220000Y-85800000D02*
X103820000Y-85200000D01*
X92100000Y-95275736D02*
X92100000Y-90427208D01*
X92100000Y-90427208D02*
X95327208Y-87200000D01*
X104051472Y-86100000D02*
X105600000Y-84551472D01*
X98000000Y-87500000D02*
X99400000Y-86100000D01*
X105600000Y-83500000D02*
X104705000Y-82605000D01*
X91500000Y-96300000D02*
X92400000Y-95400000D01*
X95451472Y-87500000D02*
X98000000Y-87500000D01*
X100105000Y-82605000D02*
X98730000Y-81230000D01*
X105600000Y-84551472D02*
X105600000Y-83500000D01*
X91500000Y-97250000D02*
X91500000Y-96300000D01*
X92400000Y-95400000D02*
X92400000Y-90551472D01*
X99400000Y-86100000D02*
X104051472Y-86100000D01*
X92400000Y-90551472D02*
X95451472Y-87500000D01*
X104705000Y-82605000D02*
X100105000Y-82605000D01*
X102350000Y-82305000D02*
X105505000Y-82305000D01*
X98275736Y-87800000D02*
X95575736Y-87800000D01*
X95575736Y-87800000D02*
X92700000Y-90675736D01*
X92700000Y-90675736D02*
X92700000Y-95600000D01*
X99675736Y-86400000D02*
X98275736Y-87800000D01*
X92172000Y-96672000D02*
X92250000Y-96750000D01*
X92250000Y-96050000D02*
X92250000Y-96750000D01*
X105900000Y-84675736D02*
X104175736Y-86400000D01*
X104175736Y-86400000D02*
X99675736Y-86400000D01*
X101280000Y-81235000D02*
X102350000Y-82305000D01*
X105900000Y-82700000D02*
X105900000Y-84675736D01*
X105505000Y-82305000D02*
X105900000Y-82700000D01*
X92700000Y-95600000D02*
X92250000Y-96050000D01*
X99800000Y-86700000D02*
X104300000Y-86700000D01*
X104300000Y-86700000D02*
X106200000Y-84800000D01*
X106200000Y-82000000D02*
X105435000Y-81235000D01*
X99800000Y-86700000D02*
X98400000Y-88100000D01*
X98400000Y-88100000D02*
X95700000Y-88100000D01*
X105435000Y-81235000D02*
X103820000Y-81235000D01*
X93000000Y-90800000D02*
X95700000Y-88100000D01*
X106200000Y-84800000D02*
X106200000Y-82000000D01*
X93000000Y-96250000D02*
X93000000Y-90800000D01*
X94825000Y-93475000D02*
X98000000Y-90300000D01*
X107500000Y-94000000D02*
X107500000Y-96000000D01*
X86909045Y-111109045D02*
X86909045Y-104615219D01*
X86909045Y-104615219D02*
X94825000Y-96699264D01*
X94825000Y-96699264D02*
X94825000Y-93475000D01*
X103800000Y-90300000D02*
X107500000Y-94000000D01*
X98000000Y-90300000D02*
X103800000Y-90300000D01*
X107500000Y-96000000D02*
X107481268Y-95981268D01*
X107481268Y-95981268D02*
X107481268Y-95976268D01*
X97800000Y-90000000D02*
X103924264Y-90000000D01*
X86609045Y-107816943D02*
X86609045Y-104490955D01*
X108006268Y-94082004D02*
X108006268Y-96193732D01*
X94525000Y-96575000D02*
X94525000Y-93275000D01*
X94525000Y-93275000D02*
X97800000Y-90000000D01*
X103924264Y-90000000D02*
X108006268Y-94082004D01*
X108006268Y-96193732D02*
X107100000Y-97100000D01*
X107100000Y-97100000D02*
X106000000Y-97100000D01*
X86609045Y-104490955D02*
X94525000Y-96575000D01*
X85112994Y-109312994D02*
X86609045Y-107816943D01*
X94200000Y-105600000D02*
X94200000Y-99100000D01*
X96700000Y-96600000D02*
X96700000Y-95000000D01*
X94200000Y-99100000D02*
X96700000Y-96600000D01*
X104000000Y-93800000D02*
X105400000Y-95200000D01*
X105400000Y-95200000D02*
X105400000Y-98025000D01*
X96700000Y-95000000D02*
X97900000Y-93800000D01*
X105400000Y-98025000D02*
X105600000Y-98225000D01*
X97900000Y-93800000D02*
X104000000Y-93800000D01*
X105000000Y-95400000D02*
X105000000Y-98600000D01*
X95400000Y-105400000D02*
X94500000Y-104500000D01*
X94500000Y-99224264D02*
X97000000Y-96724264D01*
X105000000Y-98600000D02*
X104900000Y-98700000D01*
X103700000Y-94100000D02*
X105000000Y-95400000D01*
X98100000Y-94100000D02*
X103700000Y-94100000D01*
X97000000Y-96724264D02*
X97000000Y-95200000D01*
X94500000Y-104500000D02*
X94500000Y-99224264D01*
X97000000Y-95200000D02*
X98100000Y-94100000D01*
X119000000Y-92000000D02*
X119000000Y-90000000D01*
X118500000Y-92500000D02*
X119000000Y-92000000D01*
X112750000Y-96650000D02*
X112850000Y-96650000D01*
X112700000Y-96700000D02*
X112750000Y-96650000D01*
X117000000Y-92500000D02*
X118500000Y-92500000D01*
X112850000Y-96650000D02*
X117000000Y-92500000D01*
X114175000Y-100800000D02*
X114175000Y-101770000D01*
X107200000Y-99000000D02*
X108425000Y-100225000D01*
X114175000Y-101770000D02*
X116225000Y-103820000D01*
X108425000Y-100225000D02*
X113600000Y-100225000D01*
X113600000Y-100225000D02*
X114175000Y-100800000D01*
X114345000Y-99400000D02*
X116225000Y-101280000D01*
X108700000Y-99400000D02*
X114345000Y-99400000D01*
X107000000Y-104500000D02*
X105300000Y-104500000D01*
X105300000Y-104500000D02*
X105200000Y-104400000D01*
X105200000Y-104400000D02*
X105200000Y-102300000D01*
X111035445Y-109964555D02*
X109500000Y-111500000D01*
X113785445Y-109964555D02*
X111035445Y-109964555D01*
X109500000Y-111500000D02*
X103200000Y-111500000D01*
X103956657Y-113556657D02*
X110193343Y-113556657D01*
X102000000Y-111600000D02*
X103956657Y-113556657D01*
X104000000Y-106900000D02*
X104100000Y-106900000D01*
X99600000Y-108400000D02*
X102500000Y-108400000D01*
X103500000Y-107400000D02*
X104000000Y-106900000D01*
X102500000Y-108400000D02*
X103500000Y-107400000D01*
X105800000Y-107000000D02*
X107000000Y-105800000D01*
X105800000Y-107400000D02*
X105800000Y-107000000D01*
G04 #@! TA.AperFunction,Conductor*
G36*
X79505703Y-102637541D02*
G01*
X79512177Y-102643570D01*
X79873351Y-103004744D01*
X80206841Y-103338234D01*
X80240326Y-103399557D01*
X80237821Y-103461909D01*
X80194699Y-103604065D01*
X80174417Y-103810000D01*
X80194699Y-104015932D01*
X80207491Y-104058100D01*
X80254768Y-104213954D01*
X80352315Y-104396450D01*
X80358474Y-104403955D01*
X80483589Y-104556410D01*
X80580209Y-104635702D01*
X80643550Y-104687685D01*
X80768954Y-104754715D01*
X80818798Y-104803678D01*
X80834500Y-104864073D01*
X80834500Y-110982273D01*
X80834500Y-111087727D01*
X80838309Y-111101942D01*
X80861793Y-111189589D01*
X80870584Y-111204815D01*
X80914520Y-111280913D01*
X80914522Y-111280915D01*
X84545548Y-114911941D01*
X84579033Y-114973264D01*
X84574049Y-115042956D01*
X84532177Y-115098889D01*
X84466713Y-115123306D01*
X84398440Y-115108454D01*
X84382381Y-115097998D01*
X84308674Y-115041441D01*
X84308673Y-115041440D01*
X84308670Y-115041438D01*
X84173312Y-114963289D01*
X84041837Y-114887381D01*
X84041826Y-114887376D01*
X83757162Y-114769464D01*
X83459542Y-114689717D01*
X83154069Y-114649501D01*
X83154066Y-114649500D01*
X83154060Y-114649500D01*
X82845940Y-114649500D01*
X82845934Y-114649500D01*
X82845930Y-114649501D01*
X82540457Y-114689717D01*
X82242837Y-114769464D01*
X81958173Y-114887376D01*
X81958162Y-114887381D01*
X81691325Y-115041441D01*
X81446884Y-115229007D01*
X81446877Y-115229013D01*
X81229013Y-115446877D01*
X81229007Y-115446884D01*
X81041441Y-115691325D01*
X80887381Y-115958162D01*
X80887376Y-115958173D01*
X80769464Y-116242837D01*
X80689717Y-116540457D01*
X80649501Y-116845930D01*
X80649500Y-116845946D01*
X80649500Y-117154053D01*
X80649501Y-117154069D01*
X80689717Y-117459542D01*
X80769464Y-117757162D01*
X80887376Y-118041826D01*
X80887381Y-118041837D01*
X80932865Y-118120616D01*
X81041438Y-118308670D01*
X81041440Y-118308673D01*
X81041441Y-118308674D01*
X81229007Y-118553115D01*
X81229013Y-118553122D01*
X81446877Y-118770986D01*
X81446883Y-118770991D01*
X81691330Y-118958562D01*
X81845500Y-119047572D01*
X81958162Y-119112618D01*
X81958167Y-119112620D01*
X81958170Y-119112622D01*
X82242836Y-119230535D01*
X82540456Y-119310282D01*
X82845940Y-119350500D01*
X82845947Y-119350500D01*
X83154053Y-119350500D01*
X83154060Y-119350500D01*
X83459544Y-119310282D01*
X83757164Y-119230535D01*
X84041830Y-119112622D01*
X84308670Y-118958562D01*
X84553117Y-118770991D01*
X84770991Y-118553117D01*
X84958562Y-118308670D01*
X85112622Y-118041830D01*
X85230535Y-117757164D01*
X85310282Y-117459544D01*
X85350500Y-117154060D01*
X85350500Y-116845940D01*
X85310282Y-116540456D01*
X85230535Y-116242836D01*
X85112622Y-115958170D01*
X85112620Y-115958167D01*
X85112618Y-115958162D01*
X85036340Y-115826046D01*
X84958562Y-115691330D01*
X84902001Y-115617618D01*
X84876807Y-115552449D01*
X84890845Y-115484004D01*
X84939659Y-115434015D01*
X85007751Y-115418351D01*
X85073501Y-115441988D01*
X85088058Y-115454451D01*
X90121426Y-120487819D01*
X90154911Y-120549142D01*
X90149927Y-120618834D01*
X90108055Y-120674767D01*
X90042591Y-120699184D01*
X90033745Y-120699500D01*
X85502311Y-120699500D01*
X85497675Y-120699413D01*
X85467926Y-120698299D01*
X85041347Y-120682338D01*
X85032101Y-120681645D01*
X84580623Y-120630776D01*
X84571453Y-120629394D01*
X84125047Y-120544929D01*
X84116007Y-120542866D01*
X83677150Y-120425275D01*
X83668288Y-120422542D01*
X83239445Y-120272483D01*
X83230813Y-120269095D01*
X82814380Y-120087406D01*
X82806026Y-120083382D01*
X82404359Y-119871095D01*
X82396328Y-119866459D01*
X82011624Y-119624734D01*
X82003962Y-119619510D01*
X81762806Y-119441529D01*
X81638409Y-119349719D01*
X81631163Y-119343941D01*
X81286776Y-119047572D01*
X81279979Y-119041265D01*
X80958734Y-118720020D01*
X80952427Y-118713223D01*
X80656058Y-118368836D01*
X80650276Y-118361586D01*
X80637898Y-118344815D01*
X80380489Y-117996037D01*
X80375265Y-117988375D01*
X80133540Y-117603671D01*
X80128904Y-117595640D01*
X79916617Y-117193973D01*
X79912593Y-117185619D01*
X79730904Y-116769186D01*
X79727516Y-116760554D01*
X79577455Y-116331705D01*
X79574724Y-116322849D01*
X79457133Y-115883992D01*
X79455070Y-115874952D01*
X79428176Y-115732813D01*
X79370603Y-115428535D01*
X79369223Y-115419376D01*
X79364643Y-115378731D01*
X79318353Y-114967889D01*
X79317661Y-114958651D01*
X79316831Y-114936474D01*
X79300587Y-114502325D01*
X79300500Y-114497689D01*
X79300500Y-102731254D01*
X79320185Y-102664215D01*
X79372989Y-102618460D01*
X79442147Y-102608516D01*
X79505703Y-102637541D01*
G37*
G04 #@! TD.AperFunction*
G04 #@! TA.AperFunction,Conductor*
G36*
X120618834Y-108450073D02*
G01*
X120674767Y-108491945D01*
X120699184Y-108557409D01*
X120699500Y-108566255D01*
X120699500Y-114497689D01*
X120699413Y-114502326D01*
X120682338Y-114958652D01*
X120681645Y-114967898D01*
X120630776Y-115419376D01*
X120629394Y-115428546D01*
X120544929Y-115874952D01*
X120542866Y-115883992D01*
X120425275Y-116322849D01*
X120422542Y-116331711D01*
X120272483Y-116760554D01*
X120269095Y-116769186D01*
X120087406Y-117185619D01*
X120083382Y-117193973D01*
X119871095Y-117595640D01*
X119866459Y-117603671D01*
X119624734Y-117988375D01*
X119619510Y-117996037D01*
X119349723Y-118361586D01*
X119343941Y-118368836D01*
X119047572Y-118713223D01*
X119041265Y-118720020D01*
X118720020Y-119041265D01*
X118713223Y-119047572D01*
X118368836Y-119343941D01*
X118361586Y-119349723D01*
X117996037Y-119619510D01*
X117988375Y-119624734D01*
X117603671Y-119866459D01*
X117595640Y-119871095D01*
X117193973Y-120083382D01*
X117185619Y-120087406D01*
X116769186Y-120269095D01*
X116760554Y-120272483D01*
X116331711Y-120422542D01*
X116322849Y-120425275D01*
X115883992Y-120542866D01*
X115874952Y-120544929D01*
X115428546Y-120629394D01*
X115419376Y-120630776D01*
X114967898Y-120681645D01*
X114958652Y-120682338D01*
X114529997Y-120698377D01*
X114502324Y-120699413D01*
X114497689Y-120699500D01*
X102731254Y-120699500D01*
X102664215Y-120679815D01*
X102618460Y-120627011D01*
X102608516Y-120557853D01*
X102637541Y-120494297D01*
X102643573Y-120487819D01*
X102869215Y-120262177D01*
X103338236Y-119793155D01*
X103399557Y-119759672D01*
X103461906Y-119762176D01*
X103604066Y-119805300D01*
X103604065Y-119805300D01*
X103622529Y-119807118D01*
X103810000Y-119825583D01*
X104015934Y-119805300D01*
X104213954Y-119745232D01*
X104396450Y-119647685D01*
X104556410Y-119516410D01*
X104687685Y-119356450D01*
X104739283Y-119259916D01*
X104754716Y-119231046D01*
X104803679Y-119181202D01*
X104864074Y-119165500D01*
X109687725Y-119165500D01*
X109687727Y-119165500D01*
X109789588Y-119138207D01*
X109880913Y-119085480D01*
X112120447Y-116845946D01*
X114649500Y-116845946D01*
X114649500Y-117154053D01*
X114649501Y-117154069D01*
X114689717Y-117459542D01*
X114769464Y-117757162D01*
X114887376Y-118041826D01*
X114887381Y-118041837D01*
X114932865Y-118120616D01*
X115041438Y-118308670D01*
X115041440Y-118308673D01*
X115041441Y-118308674D01*
X115229007Y-118553115D01*
X115229013Y-118553122D01*
X115446877Y-118770986D01*
X115446883Y-118770991D01*
X115691330Y-118958562D01*
X115845500Y-119047572D01*
X115958162Y-119112618D01*
X115958167Y-119112620D01*
X115958170Y-119112622D01*
X116242836Y-119230535D01*
X116540456Y-119310282D01*
X116845940Y-119350500D01*
X116845947Y-119350500D01*
X117154053Y-119350500D01*
X117154060Y-119350500D01*
X117459544Y-119310282D01*
X117757164Y-119230535D01*
X118041830Y-119112622D01*
X118308670Y-118958562D01*
X118553117Y-118770991D01*
X118770991Y-118553117D01*
X118958562Y-118308670D01*
X119112622Y-118041830D01*
X119230535Y-117757164D01*
X119310282Y-117459544D01*
X119350500Y-117154060D01*
X119350500Y-116845940D01*
X119310282Y-116540456D01*
X119230535Y-116242836D01*
X119112622Y-115958170D01*
X119112620Y-115958167D01*
X119112618Y-115958162D01*
X119036340Y-115826046D01*
X118958562Y-115691330D01*
X118799157Y-115483589D01*
X118770992Y-115446884D01*
X118770986Y-115446877D01*
X118553122Y-115229013D01*
X118553115Y-115229007D01*
X118308674Y-115041441D01*
X118308673Y-115041440D01*
X118308670Y-115041438D01*
X118173312Y-114963289D01*
X118041837Y-114887381D01*
X118041826Y-114887376D01*
X117757162Y-114769464D01*
X117459542Y-114689717D01*
X117154069Y-114649501D01*
X117154066Y-114649500D01*
X117154060Y-114649500D01*
X116845940Y-114649500D01*
X116845934Y-114649500D01*
X116845930Y-114649501D01*
X116540457Y-114689717D01*
X116242837Y-114769464D01*
X115958173Y-114887376D01*
X115958162Y-114887381D01*
X115691325Y-115041441D01*
X115446884Y-115229007D01*
X115446877Y-115229013D01*
X115229013Y-115446877D01*
X115229007Y-115446884D01*
X115041441Y-115691325D01*
X114887381Y-115958162D01*
X114887376Y-115958173D01*
X114769464Y-116242837D01*
X114689717Y-116540457D01*
X114649501Y-116845930D01*
X114649500Y-116845946D01*
X112120447Y-116845946D01*
X120487819Y-108478574D01*
X120549142Y-108445089D01*
X120618834Y-108450073D01*
G37*
G04 #@! TD.AperFunction*
G04 #@! TA.AperFunction,Conductor*
G36*
X111573331Y-110259740D02*
G01*
X111619086Y-110312544D01*
X111629030Y-110381702D01*
X111600005Y-110445258D01*
X111541227Y-110483032D01*
X111538386Y-110483830D01*
X111525908Y-110487173D01*
X111525901Y-110487176D01*
X111311813Y-110587007D01*
X111228019Y-110645678D01*
X111859984Y-111277643D01*
X111796401Y-111294681D01*
X111682387Y-111360507D01*
X111589295Y-111453599D01*
X111523469Y-111567613D01*
X111506431Y-111631196D01*
X110874466Y-110999231D01*
X110815795Y-111083025D01*
X110715964Y-111297113D01*
X110715960Y-111297122D01*
X110654826Y-111525279D01*
X110654824Y-111525290D01*
X110634237Y-111760604D01*
X110634237Y-111760607D01*
X110654824Y-111995921D01*
X110654826Y-111995932D01*
X110715960Y-112224089D01*
X110715964Y-112224098D01*
X110815793Y-112438184D01*
X110815814Y-112438219D01*
X110815818Y-112438236D01*
X110818082Y-112443091D01*
X110817106Y-112443545D01*
X110832290Y-112506119D01*
X110809441Y-112572146D01*
X110754521Y-112615340D01*
X110684968Y-112621984D01*
X110649977Y-112609583D01*
X110597297Y-112581425D01*
X110401327Y-112521979D01*
X110399277Y-112521357D01*
X110399275Y-112521356D01*
X110399277Y-112521356D01*
X110193343Y-112501074D01*
X109987410Y-112521356D01*
X109789386Y-112581426D01*
X109725939Y-112615340D01*
X109606893Y-112678972D01*
X109606891Y-112678973D01*
X109606890Y-112678974D01*
X109446932Y-112810246D01*
X109315660Y-112970204D01*
X109218110Y-113152704D01*
X109205840Y-113193153D01*
X109167542Y-113251592D01*
X109103730Y-113280048D01*
X109087180Y-113281157D01*
X104122134Y-113281157D01*
X104055095Y-113261472D01*
X104034453Y-113244838D01*
X102993177Y-112203562D01*
X102959692Y-112142239D01*
X102964676Y-112072547D01*
X103006548Y-112016614D01*
X103072012Y-111992197D01*
X103115795Y-111996905D01*
X103128036Y-112000499D01*
X103128038Y-112000500D01*
X103128039Y-112000500D01*
X103271962Y-112000500D01*
X103271962Y-112000499D01*
X103379121Y-111969035D01*
X103410050Y-111959954D01*
X103410050Y-111959953D01*
X103410053Y-111959953D01*
X103531128Y-111882143D01*
X103586451Y-111818296D01*
X103645228Y-111780523D01*
X103680163Y-111775500D01*
X109554799Y-111775500D01*
X109554800Y-111775500D01*
X109656058Y-111733557D01*
X109733557Y-111656058D01*
X109733556Y-111656058D01*
X109792125Y-111597489D01*
X111113242Y-110276374D01*
X111174565Y-110242889D01*
X111200923Y-110240055D01*
X111506292Y-110240055D01*
X111573331Y-110259740D01*
G37*
G04 #@! TD.AperFunction*
G04 #@! TA.AperFunction,Conductor*
G36*
X103701562Y-90595185D02*
G01*
X103722204Y-90611819D01*
X107188181Y-94077796D01*
X107221666Y-94139119D01*
X107224500Y-94165477D01*
X107224500Y-95478627D01*
X107204815Y-95545666D01*
X107167542Y-95582941D01*
X107150140Y-95594124D01*
X107150134Y-95594130D01*
X107055893Y-95702890D01*
X107055890Y-95702896D01*
X106996102Y-95833811D01*
X106975621Y-95976268D01*
X106996102Y-96118724D01*
X107055890Y-96249639D01*
X107055891Y-96249641D01*
X107150140Y-96358411D01*
X107203115Y-96392456D01*
X107204438Y-96393306D01*
X107250193Y-96446110D01*
X107260137Y-96515269D01*
X107231112Y-96578825D01*
X107225085Y-96585298D01*
X107022202Y-96788182D01*
X106960882Y-96821666D01*
X106934523Y-96824500D01*
X106480163Y-96824500D01*
X106413124Y-96804815D01*
X106386450Y-96781703D01*
X106331128Y-96717857D01*
X106210053Y-96640047D01*
X106210051Y-96640046D01*
X106210049Y-96640045D01*
X106210050Y-96640045D01*
X106071963Y-96599500D01*
X106071961Y-96599500D01*
X105928039Y-96599500D01*
X105834433Y-96626984D01*
X105764564Y-96626983D01*
X105705786Y-96589208D01*
X105676762Y-96525652D01*
X105675500Y-96508006D01*
X105675500Y-95145201D01*
X105675500Y-95145200D01*
X105633557Y-95043942D01*
X105556058Y-94966443D01*
X104156058Y-93566443D01*
X104054800Y-93524500D01*
X97845200Y-93524500D01*
X97845199Y-93524500D01*
X97813817Y-93537499D01*
X97782434Y-93550499D01*
X97782433Y-93550499D01*
X97743946Y-93566440D01*
X97743938Y-93566445D01*
X96543942Y-94766443D01*
X96466444Y-94843940D01*
X96424500Y-94945199D01*
X96424500Y-96434523D01*
X96404815Y-96501562D01*
X96388181Y-96522204D01*
X93966444Y-98943940D01*
X93924500Y-99045199D01*
X93924500Y-105114397D01*
X93904815Y-105181436D01*
X93874941Y-105211313D01*
X93875577Y-105212047D01*
X93868874Y-105217855D01*
X93774623Y-105326626D01*
X93774622Y-105326628D01*
X93714834Y-105457543D01*
X93694353Y-105600000D01*
X93714834Y-105742456D01*
X93732959Y-105782143D01*
X93774623Y-105873373D01*
X93868872Y-105982143D01*
X93989947Y-106059953D01*
X93989950Y-106059954D01*
X93989949Y-106059954D01*
X94128036Y-106100499D01*
X94128038Y-106100500D01*
X94128039Y-106100500D01*
X94271962Y-106100500D01*
X94271962Y-106100499D01*
X94410053Y-106059953D01*
X94531128Y-105982143D01*
X94625377Y-105873373D01*
X94685165Y-105742457D01*
X94701928Y-105625862D01*
X94730953Y-105562308D01*
X94789730Y-105524533D01*
X94859600Y-105524533D01*
X94918378Y-105562307D01*
X94937459Y-105591997D01*
X94974623Y-105673373D01*
X95068872Y-105782143D01*
X95189947Y-105859953D01*
X95189950Y-105859954D01*
X95189949Y-105859954D01*
X95328036Y-105900499D01*
X95328038Y-105900500D01*
X95328039Y-105900500D01*
X95471962Y-105900500D01*
X95471962Y-105900499D01*
X95610053Y-105859953D01*
X95731128Y-105782143D01*
X95825377Y-105673373D01*
X95885165Y-105542457D01*
X95905647Y-105400000D01*
X95885165Y-105257543D01*
X95825377Y-105126627D01*
X95731128Y-105017857D01*
X95610053Y-104940047D01*
X95610051Y-104940046D01*
X95610049Y-104940045D01*
X95610050Y-104940045D01*
X95471963Y-104899500D01*
X95471961Y-104899500D01*
X95340478Y-104899500D01*
X95273439Y-104879815D01*
X95252797Y-104863181D01*
X94811819Y-104422203D01*
X94778334Y-104360880D01*
X94775500Y-104334522D01*
X94775500Y-102100000D01*
X100094323Y-102100000D01*
X100114804Y-102242456D01*
X100178277Y-102381440D01*
X100174708Y-102383069D01*
X100189496Y-102432001D01*
X100189500Y-102432978D01*
X100189500Y-104937273D01*
X100189500Y-105042727D01*
X100192945Y-105055583D01*
X100216793Y-105144589D01*
X100225691Y-105160000D01*
X100269520Y-105235913D01*
X100269522Y-105235915D01*
X100275369Y-105241762D01*
X100308854Y-105303085D01*
X100310426Y-105311795D01*
X100314834Y-105342453D01*
X100314835Y-105342458D01*
X100371207Y-105465893D01*
X100374623Y-105473373D01*
X100468872Y-105582143D01*
X100589947Y-105659953D01*
X100589950Y-105659954D01*
X100589949Y-105659954D01*
X100728036Y-105700499D01*
X100728038Y-105700500D01*
X100728039Y-105700500D01*
X100871962Y-105700500D01*
X100871962Y-105700499D01*
X101010053Y-105659953D01*
X101131128Y-105582143D01*
X101225377Y-105473373D01*
X101285165Y-105342457D01*
X101305647Y-105200000D01*
X101285165Y-105057543D01*
X101225377Y-104926627D01*
X101131128Y-104817857D01*
X101095850Y-104795185D01*
X101047460Y-104764086D01*
X101001705Y-104711282D01*
X100990500Y-104659771D01*
X100990500Y-102459837D01*
X101010185Y-102392798D01*
X101020786Y-102378636D01*
X101025347Y-102373373D01*
X101085135Y-102242457D01*
X101105617Y-102100000D01*
X101085135Y-101957543D01*
X101025347Y-101826627D01*
X100931098Y-101717857D01*
X100810023Y-101640047D01*
X100810021Y-101640046D01*
X100810019Y-101640045D01*
X100810020Y-101640045D01*
X100671933Y-101599500D01*
X100671931Y-101599500D01*
X100528009Y-101599500D01*
X100528006Y-101599500D01*
X100389919Y-101640045D01*
X100268843Y-101717856D01*
X100174593Y-101826626D01*
X100174592Y-101826628D01*
X100114804Y-101957543D01*
X100094323Y-102100000D01*
X94775500Y-102100000D01*
X94775500Y-99389741D01*
X94795185Y-99322702D01*
X94811819Y-99302060D01*
X97233556Y-96880323D01*
X97233557Y-96880322D01*
X97239306Y-96866443D01*
X97275500Y-96779064D01*
X97275500Y-95365477D01*
X97295185Y-95298438D01*
X97311819Y-95277796D01*
X97389621Y-95199994D01*
X99294353Y-95199994D01*
X99314834Y-95342450D01*
X99343295Y-95404769D01*
X99374623Y-95473367D01*
X99374627Y-95473372D01*
X99379418Y-95480827D01*
X99376364Y-95482789D01*
X99398235Y-95530657D01*
X99399500Y-95548326D01*
X99399500Y-96957273D01*
X99399500Y-97062727D01*
X99405251Y-97084190D01*
X99426793Y-97164589D01*
X99436608Y-97181588D01*
X99479520Y-97255913D01*
X99479522Y-97255915D01*
X100177048Y-97953441D01*
X100210533Y-98014764D01*
X100212105Y-98023472D01*
X100214834Y-98042454D01*
X100214835Y-98042458D01*
X100274622Y-98173371D01*
X100274623Y-98173373D01*
X100368872Y-98282143D01*
X100489947Y-98359953D01*
X100489950Y-98359954D01*
X100489949Y-98359954D01*
X100628036Y-98400499D01*
X100628038Y-98400500D01*
X100628039Y-98400500D01*
X100771962Y-98400500D01*
X100771962Y-98400499D01*
X100910053Y-98359953D01*
X101031128Y-98282143D01*
X101125377Y-98173373D01*
X101185165Y-98042457D01*
X101205647Y-97900000D01*
X101185165Y-97757543D01*
X101125377Y-97626627D01*
X101031128Y-97517857D01*
X100959907Y-97472086D01*
X100910051Y-97440045D01*
X100779579Y-97401736D01*
X100726833Y-97370440D01*
X100236819Y-96880426D01*
X100203334Y-96819103D01*
X100200500Y-96792745D01*
X100200500Y-95548326D01*
X100220185Y-95481287D01*
X100220901Y-95480330D01*
X100225368Y-95473376D01*
X100225377Y-95473367D01*
X100285165Y-95342451D01*
X100305647Y-95199994D01*
X100285165Y-95057537D01*
X100225377Y-94926621D01*
X100131128Y-94817851D01*
X100010053Y-94740041D01*
X100010051Y-94740040D01*
X100010049Y-94740039D01*
X100010050Y-94740039D01*
X99871963Y-94699494D01*
X99871961Y-94699494D01*
X99728039Y-94699494D01*
X99728036Y-94699494D01*
X99589949Y-94740039D01*
X99468873Y-94817850D01*
X99374623Y-94926620D01*
X99374622Y-94926622D01*
X99314834Y-95057537D01*
X99294353Y-95199994D01*
X97389621Y-95199994D01*
X98177796Y-94411819D01*
X98239119Y-94378334D01*
X98265477Y-94375500D01*
X103534523Y-94375500D01*
X103601562Y-94395185D01*
X103622204Y-94411819D01*
X104688181Y-95477796D01*
X104721666Y-95539119D01*
X104724500Y-95565477D01*
X104724500Y-98150131D01*
X104704815Y-98217170D01*
X104667540Y-98254446D01*
X104568874Y-98317855D01*
X104474623Y-98426626D01*
X104474622Y-98426628D01*
X104414834Y-98557543D01*
X104394353Y-98700000D01*
X104414834Y-98842456D01*
X104457524Y-98935932D01*
X104474623Y-98973373D01*
X104568872Y-99082143D01*
X104689947Y-99159953D01*
X104689950Y-99159954D01*
X104689949Y-99159954D01*
X104797107Y-99191417D01*
X104822225Y-99198793D01*
X104828036Y-99200499D01*
X104828038Y-99200500D01*
X104828039Y-99200500D01*
X104971962Y-99200500D01*
X104971962Y-99200499D01*
X105079121Y-99169035D01*
X105110050Y-99159954D01*
X105110050Y-99159953D01*
X105110053Y-99159953D01*
X105231128Y-99082143D01*
X105325377Y-98973373D01*
X105385165Y-98842457D01*
X105386886Y-98830482D01*
X105415907Y-98766929D01*
X105474683Y-98729152D01*
X105519170Y-98725969D01*
X105519170Y-98725500D01*
X105525739Y-98725500D01*
X105527277Y-98725390D01*
X105528036Y-98725499D01*
X105528039Y-98725500D01*
X105528042Y-98725500D01*
X105671961Y-98725500D01*
X105700715Y-98717056D01*
X105770583Y-98717055D01*
X105829362Y-98754828D01*
X105858388Y-98818383D01*
X105848447Y-98887542D01*
X105843040Y-98898031D01*
X105826791Y-98926174D01*
X105809616Y-98990279D01*
X105799500Y-99028032D01*
X105799500Y-100952726D01*
X105826793Y-101054589D01*
X105849727Y-101094311D01*
X105879520Y-101145913D01*
X105879522Y-101145915D01*
X108063181Y-103329574D01*
X108096666Y-103390897D01*
X108099500Y-103417255D01*
X108099500Y-104094608D01*
X108079815Y-104161647D01*
X108027011Y-104207402D01*
X107957853Y-104217346D01*
X107894297Y-104188321D01*
X107871185Y-104161648D01*
X107804639Y-104058101D01*
X107804638Y-104058100D01*
X107791082Y-104042456D01*
X107766334Y-104013895D01*
X107710942Y-103965898D01*
X107657684Y-103919749D01*
X107657675Y-103919743D01*
X107657673Y-103919741D01*
X107644282Y-103911135D01*
X107608472Y-103888121D01*
X107608456Y-103888112D01*
X107477689Y-103828393D01*
X107477684Y-103828391D01*
X107477683Y-103828391D01*
X107421561Y-103811912D01*
X107421556Y-103811910D01*
X107291682Y-103793238D01*
X107279246Y-103791450D01*
X107220755Y-103791450D01*
X107220753Y-103791450D01*
X107208319Y-103793238D01*
X107190673Y-103794500D01*
X106809327Y-103794500D01*
X106791681Y-103793238D01*
X106779246Y-103791450D01*
X106779245Y-103791450D01*
X106720754Y-103791450D01*
X106578443Y-103811910D01*
X106578438Y-103811912D01*
X106522310Y-103828393D01*
X106391543Y-103888112D01*
X106391527Y-103888121D01*
X106342331Y-103919738D01*
X106342315Y-103919749D01*
X106233669Y-104013892D01*
X106233666Y-104013895D01*
X106230235Y-104017855D01*
X106195361Y-104058100D01*
X106195356Y-104058107D01*
X106125029Y-104167539D01*
X106072226Y-104213294D01*
X106020714Y-104224500D01*
X105749764Y-104224500D01*
X105682725Y-104204815D01*
X105636970Y-104152011D01*
X105625379Y-104126630D01*
X105625376Y-104126626D01*
X105617041Y-104117007D01*
X105531128Y-104017857D01*
X105531125Y-104017855D01*
X105524423Y-104012047D01*
X105525552Y-104010743D01*
X105486701Y-103965898D01*
X105475500Y-103914397D01*
X105475500Y-102785601D01*
X105495185Y-102718562D01*
X105525063Y-102688685D01*
X105524426Y-102687950D01*
X105531120Y-102682147D01*
X105531128Y-102682143D01*
X105625377Y-102573373D01*
X105685165Y-102442457D01*
X105705647Y-102300000D01*
X105685165Y-102157543D01*
X105625377Y-102026627D01*
X105531128Y-101917857D01*
X105410053Y-101840047D01*
X105410051Y-101840046D01*
X105410049Y-101840045D01*
X105410050Y-101840045D01*
X105271963Y-101799500D01*
X105271961Y-101799500D01*
X105128039Y-101799500D01*
X105128036Y-101799500D01*
X104989949Y-101840045D01*
X104868873Y-101917856D01*
X104774623Y-102026626D01*
X104774622Y-102026628D01*
X104714834Y-102157543D01*
X104694353Y-102300000D01*
X104714834Y-102442456D01*
X104774622Y-102573371D01*
X104774623Y-102573373D01*
X104868872Y-102682143D01*
X104868874Y-102682144D01*
X104875574Y-102687950D01*
X104874442Y-102689255D01*
X104913291Y-102734082D01*
X104924500Y-102785601D01*
X104924500Y-103914397D01*
X104904815Y-103981436D01*
X104874941Y-104011313D01*
X104875577Y-104012047D01*
X104868874Y-104017855D01*
X104774623Y-104126626D01*
X104774622Y-104126628D01*
X104714834Y-104257543D01*
X104694353Y-104400000D01*
X104714834Y-104542456D01*
X104721207Y-104556410D01*
X104774623Y-104673373D01*
X104868872Y-104782143D01*
X104989947Y-104859953D01*
X104989950Y-104859954D01*
X104989949Y-104859954D01*
X105097107Y-104891417D01*
X105124633Y-104899500D01*
X105128036Y-104900499D01*
X105128038Y-104900500D01*
X105128039Y-104900500D01*
X105271962Y-104900500D01*
X105271962Y-104900499D01*
X105392473Y-104865115D01*
X105410050Y-104859954D01*
X105410050Y-104859953D01*
X105410053Y-104859953D01*
X105510834Y-104795184D01*
X105577874Y-104775500D01*
X105920500Y-104775500D01*
X105987539Y-104795185D01*
X106033294Y-104847989D01*
X106044500Y-104899500D01*
X106044500Y-105000004D01*
X106049651Y-105045728D01*
X106071144Y-105090356D01*
X106082496Y-105159297D01*
X106066943Y-105196339D01*
X106070913Y-105198251D01*
X106064850Y-105210839D01*
X106044500Y-105299995D01*
X106044500Y-105871890D01*
X106052822Y-105929777D01*
X106052825Y-105929789D01*
X106093331Y-106067739D01*
X106117626Y-106120938D01*
X106117633Y-106120952D01*
X106130823Y-106141476D01*
X106150507Y-106208515D01*
X106130822Y-106275555D01*
X106114188Y-106296195D01*
X105643942Y-106766443D01*
X105566444Y-106843940D01*
X105519826Y-106956484D01*
X105516329Y-106955035D01*
X105493963Y-106997784D01*
X105471782Y-107015986D01*
X105468875Y-107017853D01*
X105468874Y-107017855D01*
X105374623Y-107126626D01*
X105374622Y-107126628D01*
X105314834Y-107257543D01*
X105294353Y-107400000D01*
X105314834Y-107542456D01*
X105321046Y-107556058D01*
X105374623Y-107673373D01*
X105468872Y-107782143D01*
X105589947Y-107859953D01*
X105589950Y-107859954D01*
X105589949Y-107859954D01*
X105697107Y-107891417D01*
X105724633Y-107899500D01*
X105728036Y-107900499D01*
X105728038Y-107900500D01*
X105728039Y-107900500D01*
X105871962Y-107900500D01*
X105871962Y-107900499D01*
X106010053Y-107859953D01*
X106131128Y-107782143D01*
X106225377Y-107673373D01*
X106285165Y-107542457D01*
X106305647Y-107400000D01*
X106285165Y-107257543D01*
X106225377Y-107126627D01*
X106225374Y-107126624D01*
X106220582Y-107119166D01*
X106221733Y-107118425D01*
X106196567Y-107063327D01*
X106206506Y-106994168D01*
X106231621Y-106957993D01*
X106644745Y-106544868D01*
X106706068Y-106511384D01*
X106732426Y-106508550D01*
X106779242Y-106508550D01*
X106779245Y-106508550D01*
X106791681Y-106506761D01*
X106809327Y-106505500D01*
X107190673Y-106505500D01*
X107208318Y-106506761D01*
X107220755Y-106508550D01*
X107220758Y-106508550D01*
X107279245Y-106508550D01*
X107279246Y-106508550D01*
X107393480Y-106492125D01*
X107421556Y-106488089D01*
X107421557Y-106488088D01*
X107421561Y-106488088D01*
X107477683Y-106471609D01*
X107546798Y-106440045D01*
X107608456Y-106411887D01*
X107608460Y-106411884D01*
X107608468Y-106411881D01*
X107657673Y-106380259D01*
X107657681Y-106380252D01*
X107657684Y-106380250D01*
X107686590Y-106355202D01*
X107766334Y-106286105D01*
X107804639Y-106241899D01*
X107871184Y-106138351D01*
X107923988Y-106092597D01*
X107993147Y-106082653D01*
X108056703Y-106111678D01*
X108094477Y-106170456D01*
X108099500Y-106205391D01*
X108099500Y-107682745D01*
X108079815Y-107749784D01*
X108063181Y-107770426D01*
X105720426Y-110113181D01*
X105659103Y-110146666D01*
X105632745Y-110149500D01*
X103624500Y-110149500D01*
X103557461Y-110129815D01*
X103511706Y-110077011D01*
X103500500Y-110025500D01*
X103500500Y-109180249D01*
X103500499Y-109180247D01*
X103488868Y-109121770D01*
X103488867Y-109121769D01*
X103444552Y-109055447D01*
X103378230Y-109011132D01*
X103378229Y-109011131D01*
X103319752Y-108999500D01*
X103319748Y-108999500D01*
X102280252Y-108999500D01*
X102280247Y-108999500D01*
X102221770Y-109011131D01*
X102221769Y-109011132D01*
X102155447Y-109055447D01*
X102111132Y-109121769D01*
X102111131Y-109121770D01*
X102099500Y-109180247D01*
X102099500Y-110025500D01*
X102079815Y-110092539D01*
X102027011Y-110138294D01*
X101975500Y-110149500D01*
X96015435Y-110149500D01*
X96015419Y-110149499D01*
X96007823Y-110149499D01*
X95902369Y-110149499D01*
X95813892Y-110173207D01*
X95813891Y-110173206D01*
X95800510Y-110176792D01*
X95800506Y-110176794D01*
X95709181Y-110229521D01*
X93470426Y-112468277D01*
X93409103Y-112501762D01*
X93382745Y-112504596D01*
X89756497Y-112504596D01*
X89689458Y-112484911D01*
X89647139Y-112439050D01*
X89640649Y-112426908D01*
X89582781Y-112318646D01*
X89488335Y-112203562D01*
X89451506Y-112158685D01*
X89291548Y-112027413D01*
X89291549Y-112027413D01*
X89291546Y-112027411D01*
X89171142Y-111963053D01*
X89121298Y-111914090D01*
X89105596Y-111853695D01*
X89105596Y-110552371D01*
X89105596Y-110552369D01*
X89078303Y-110450509D01*
X89078303Y-110450508D01*
X89025576Y-110359183D01*
X88839599Y-110173206D01*
X88641594Y-109975200D01*
X88641571Y-109975179D01*
X88336819Y-109670426D01*
X88303334Y-109609103D01*
X88300500Y-109582745D01*
X88300500Y-108400000D01*
X99094353Y-108400000D01*
X99114834Y-108542456D01*
X99144192Y-108606739D01*
X99174623Y-108673373D01*
X99268872Y-108782143D01*
X99389947Y-108859953D01*
X99389950Y-108859954D01*
X99389949Y-108859954D01*
X99528036Y-108900499D01*
X99528038Y-108900500D01*
X99528039Y-108900500D01*
X99671962Y-108900500D01*
X99671962Y-108900499D01*
X99810053Y-108859953D01*
X99931128Y-108782143D01*
X99986451Y-108718296D01*
X100045228Y-108680523D01*
X100080163Y-108675500D01*
X102554799Y-108675500D01*
X102554800Y-108675500D01*
X102656058Y-108633557D01*
X102733557Y-108556058D01*
X102733556Y-108556058D01*
X102792125Y-108497489D01*
X103733558Y-107556058D01*
X103733558Y-107556056D01*
X103750996Y-107538619D01*
X103750998Y-107538616D01*
X103868625Y-107420988D01*
X103929946Y-107387505D01*
X103991236Y-107389693D01*
X104028039Y-107400500D01*
X104028041Y-107400500D01*
X104171962Y-107400500D01*
X104171962Y-107400499D01*
X104310053Y-107359953D01*
X104431128Y-107282143D01*
X104525377Y-107173373D01*
X104585165Y-107042457D01*
X104605647Y-106900000D01*
X104585165Y-106757543D01*
X104525377Y-106626627D01*
X104431128Y-106517857D01*
X104310053Y-106440047D01*
X104310051Y-106440046D01*
X104310049Y-106440045D01*
X104310050Y-106440045D01*
X104171963Y-106399500D01*
X104171961Y-106399500D01*
X104028039Y-106399500D01*
X104028036Y-106399500D01*
X103889949Y-106440045D01*
X103768873Y-106517856D01*
X103674623Y-106626626D01*
X103674622Y-106626628D01*
X103614834Y-106757543D01*
X103597534Y-106877872D01*
X103568509Y-106941428D01*
X103562477Y-106947906D01*
X103343943Y-107166441D01*
X103343942Y-107166442D01*
X102422204Y-108088181D01*
X102360881Y-108121666D01*
X102334523Y-108124500D01*
X100080163Y-108124500D01*
X100013124Y-108104815D01*
X99986450Y-108081703D01*
X99931128Y-108017857D01*
X99810053Y-107940047D01*
X99810051Y-107940046D01*
X99810049Y-107940045D01*
X99810050Y-107940045D01*
X99671963Y-107899500D01*
X99671961Y-107899500D01*
X99528039Y-107899500D01*
X99528036Y-107899500D01*
X99389949Y-107940045D01*
X99268873Y-108017856D01*
X99174623Y-108126626D01*
X99174622Y-108126628D01*
X99114834Y-108257543D01*
X99094353Y-108400000D01*
X88300500Y-108400000D01*
X88300500Y-105517255D01*
X88320185Y-105450216D01*
X88336819Y-105429574D01*
X89429574Y-104336819D01*
X89490897Y-104303334D01*
X89517255Y-104300500D01*
X90861026Y-104300500D01*
X90928064Y-104320184D01*
X90989949Y-104359954D01*
X91078261Y-104385884D01*
X91126336Y-104400000D01*
X91128036Y-104400499D01*
X91128038Y-104400500D01*
X91128039Y-104400500D01*
X91271962Y-104400500D01*
X91271962Y-104400499D01*
X91410053Y-104359953D01*
X91531128Y-104282143D01*
X91625377Y-104173373D01*
X91685165Y-104042457D01*
X91705647Y-103900000D01*
X91685165Y-103757543D01*
X91625377Y-103626627D01*
X91531128Y-103517857D01*
X91410053Y-103440047D01*
X91410051Y-103440046D01*
X91410049Y-103440045D01*
X91410050Y-103440045D01*
X91271963Y-103399500D01*
X91271961Y-103399500D01*
X91128039Y-103399500D01*
X91128036Y-103399500D01*
X90989950Y-103440045D01*
X90989948Y-103440045D01*
X90928064Y-103479816D01*
X90861026Y-103499500D01*
X89360339Y-103499500D01*
X89360323Y-103499499D01*
X89352727Y-103499499D01*
X89247273Y-103499499D01*
X89164853Y-103521584D01*
X89164852Y-103521583D01*
X89145415Y-103526792D01*
X89145410Y-103526794D01*
X89054085Y-103579521D01*
X88979520Y-103654087D01*
X88979518Y-103654087D01*
X88979519Y-103654088D01*
X88912553Y-103721054D01*
X88836646Y-103796960D01*
X87579522Y-105054084D01*
X87579520Y-105054087D01*
X87536773Y-105128127D01*
X87526793Y-105145412D01*
X87512073Y-105200348D01*
X87512073Y-105200349D01*
X87512072Y-105200348D01*
X87499500Y-105247269D01*
X87499500Y-109852726D01*
X87526794Y-109954591D01*
X87526795Y-109954593D01*
X87554765Y-110003037D01*
X87571239Y-110070937D01*
X87548387Y-110136964D01*
X87493467Y-110180155D01*
X87423913Y-110186797D01*
X87388926Y-110174396D01*
X87313000Y-110133813D01*
X87272549Y-110121542D01*
X87214110Y-110083244D01*
X87185654Y-110019432D01*
X87184545Y-110002882D01*
X87184545Y-104780696D01*
X87204230Y-104713657D01*
X87220864Y-104693015D01*
X91093966Y-100819913D01*
X95058557Y-96855322D01*
X95073521Y-96819196D01*
X95100500Y-96754064D01*
X95100500Y-93640477D01*
X95120185Y-93573438D01*
X95136819Y-93552796D01*
X98077797Y-90611819D01*
X98139120Y-90578334D01*
X98165478Y-90575500D01*
X103634523Y-90575500D01*
X103701562Y-90595185D01*
G37*
G04 #@! TD.AperFunction*
G04 #@! TA.AperFunction,Conductor*
G36*
X114502325Y-79300587D02*
G01*
X114958663Y-79317661D01*
X114967889Y-79318353D01*
X115419385Y-79369224D01*
X115428535Y-79370603D01*
X115774365Y-79436037D01*
X115874952Y-79455070D01*
X115883992Y-79457133D01*
X116322849Y-79574724D01*
X116331705Y-79577455D01*
X116760554Y-79727516D01*
X116769186Y-79730904D01*
X117185619Y-79912593D01*
X117193973Y-79916617D01*
X117595640Y-80128904D01*
X117603671Y-80133540D01*
X117988375Y-80375265D01*
X117996037Y-80380489D01*
X118361594Y-80650282D01*
X118368836Y-80656058D01*
X118713223Y-80952427D01*
X118720020Y-80958734D01*
X119041265Y-81279979D01*
X119047572Y-81286776D01*
X119343941Y-81631163D01*
X119349723Y-81638413D01*
X119619510Y-82003962D01*
X119624734Y-82011624D01*
X119866459Y-82396328D01*
X119871095Y-82404359D01*
X120083382Y-82806026D01*
X120087406Y-82814380D01*
X120269095Y-83230813D01*
X120272483Y-83239445D01*
X120422542Y-83668288D01*
X120425275Y-83677150D01*
X120542866Y-84116007D01*
X120544929Y-84125047D01*
X120629394Y-84571453D01*
X120630776Y-84580623D01*
X120681645Y-85032101D01*
X120682338Y-85041347D01*
X120699413Y-85497673D01*
X120699500Y-85502310D01*
X120699500Y-97268745D01*
X120679815Y-97335784D01*
X120627011Y-97381539D01*
X120557853Y-97391483D01*
X120494297Y-97362458D01*
X120487819Y-97356426D01*
X119837379Y-96705986D01*
X119803894Y-96644663D01*
X119806003Y-96592286D01*
X119804112Y-96591910D01*
X119805299Y-96585939D01*
X119805299Y-96585936D01*
X119805300Y-96585934D01*
X119825583Y-96380000D01*
X119805300Y-96174066D01*
X119745232Y-95976046D01*
X119647685Y-95793550D01*
X119573283Y-95702890D01*
X119516410Y-95633589D01*
X119356452Y-95502317D01*
X119356453Y-95502317D01*
X119356450Y-95502315D01*
X119173954Y-95404768D01*
X118975934Y-95344700D01*
X118975932Y-95344699D01*
X118975934Y-95344699D01*
X118770000Y-95324417D01*
X118564067Y-95344699D01*
X118366043Y-95404769D01*
X118255898Y-95463643D01*
X118183550Y-95502315D01*
X118183548Y-95502316D01*
X118183547Y-95502317D01*
X118023589Y-95633589D01*
X117898473Y-95786046D01*
X117892315Y-95793550D01*
X117820887Y-95927181D01*
X117813358Y-95941267D01*
X117764395Y-95991111D01*
X117696257Y-96006571D01*
X117630578Y-95982739D01*
X117588209Y-95927181D01*
X117580000Y-95882813D01*
X117580000Y-95482172D01*
X117579999Y-95482155D01*
X117573598Y-95422627D01*
X117573596Y-95422620D01*
X117523354Y-95287913D01*
X117523350Y-95287906D01*
X117437190Y-95172812D01*
X117437187Y-95172809D01*
X117322093Y-95086649D01*
X117322086Y-95086645D01*
X117187379Y-95036403D01*
X117187372Y-95036401D01*
X117127844Y-95030000D01*
X116480000Y-95030000D01*
X116480000Y-95946988D01*
X116422993Y-95914075D01*
X116295826Y-95880000D01*
X116164174Y-95880000D01*
X116037007Y-95914075D01*
X115980000Y-95946988D01*
X115980000Y-95030000D01*
X115332155Y-95030000D01*
X115272627Y-95036401D01*
X115272619Y-95036403D01*
X115137806Y-95086685D01*
X115068114Y-95091669D01*
X115006791Y-95058184D01*
X114973307Y-94996860D01*
X114978292Y-94927168D01*
X115006790Y-94882824D01*
X117077797Y-92811819D01*
X117139120Y-92778334D01*
X117165478Y-92775500D01*
X118554799Y-92775500D01*
X118554800Y-92775500D01*
X118656058Y-92733557D01*
X118733557Y-92656058D01*
X118733556Y-92656058D01*
X118792116Y-92597498D01*
X119233558Y-92156058D01*
X119275500Y-92054800D01*
X119275500Y-91945200D01*
X119275500Y-91001661D01*
X119295185Y-90934622D01*
X119347989Y-90888867D01*
X119363504Y-90883001D01*
X119365501Y-90882396D01*
X119530625Y-90794136D01*
X119675357Y-90675357D01*
X119794136Y-90530625D01*
X119882396Y-90365501D01*
X119936747Y-90186331D01*
X119955099Y-90000000D01*
X119936747Y-89813669D01*
X119882396Y-89634499D01*
X119794136Y-89469375D01*
X119794135Y-89469373D01*
X119675357Y-89324642D01*
X119530626Y-89205864D01*
X119530623Y-89205862D01*
X119365502Y-89117604D01*
X119186333Y-89063253D01*
X119186331Y-89063252D01*
X119000000Y-89044901D01*
X118813668Y-89063252D01*
X118813666Y-89063253D01*
X118634497Y-89117604D01*
X118469376Y-89205862D01*
X118469373Y-89205864D01*
X118324642Y-89324642D01*
X118205864Y-89469373D01*
X118205862Y-89469376D01*
X118117604Y-89634497D01*
X118063253Y-89813666D01*
X118063252Y-89813668D01*
X118044901Y-90000000D01*
X118063252Y-90186331D01*
X118063253Y-90186333D01*
X118117604Y-90365502D01*
X118205862Y-90530623D01*
X118205864Y-90530626D01*
X118324642Y-90675357D01*
X118469373Y-90794135D01*
X118469376Y-90794137D01*
X118558546Y-90841798D01*
X118634499Y-90882396D01*
X118636488Y-90882999D01*
X118637403Y-90883599D01*
X118640124Y-90884726D01*
X118639910Y-90885241D01*
X118694927Y-90921290D01*
X118723389Y-90985100D01*
X118724500Y-91001661D01*
X118724500Y-91834522D01*
X118704815Y-91901561D01*
X118688181Y-91922203D01*
X118422204Y-92188181D01*
X118360881Y-92221666D01*
X118334523Y-92224500D01*
X116945198Y-92224500D01*
X116873599Y-92254158D01*
X116843939Y-92266443D01*
X116843938Y-92266444D01*
X112931375Y-96179008D01*
X112870052Y-96212493D01*
X112808761Y-96210305D01*
X112771961Y-96199500D01*
X112628039Y-96199500D01*
X112628036Y-96199500D01*
X112489949Y-96240045D01*
X112368873Y-96317856D01*
X112274623Y-96426626D01*
X112274622Y-96426628D01*
X112214834Y-96557543D01*
X112194353Y-96700000D01*
X112214834Y-96842456D01*
X112260504Y-96942457D01*
X112274623Y-96973373D01*
X112368872Y-97082143D01*
X112489947Y-97159953D01*
X112489950Y-97159954D01*
X112489949Y-97159954D01*
X112628036Y-97200499D01*
X112628038Y-97200500D01*
X112628039Y-97200500D01*
X112771962Y-97200500D01*
X112771962Y-97200499D01*
X112894264Y-97164589D01*
X112910050Y-97159954D01*
X112910050Y-97159953D01*
X112910053Y-97159953D01*
X113031128Y-97082143D01*
X113125377Y-96973373D01*
X113185165Y-96842457D01*
X113202466Y-96722123D01*
X113231489Y-96658570D01*
X113237508Y-96652105D01*
X114732823Y-95156791D01*
X114794145Y-95123307D01*
X114863837Y-95128291D01*
X114919770Y-95170163D01*
X114944187Y-95235627D01*
X114936685Y-95287806D01*
X114886403Y-95422619D01*
X114886401Y-95422627D01*
X114880000Y-95482155D01*
X114880000Y-96130000D01*
X115796988Y-96130000D01*
X115764075Y-96187007D01*
X115730000Y-96314174D01*
X115730000Y-96445826D01*
X115764075Y-96572993D01*
X115796988Y-96630000D01*
X114880000Y-96630000D01*
X114880000Y-97277844D01*
X114886401Y-97337372D01*
X114886403Y-97337379D01*
X114936645Y-97472086D01*
X114936649Y-97472093D01*
X115022809Y-97587187D01*
X115022812Y-97587190D01*
X115137906Y-97673350D01*
X115137913Y-97673354D01*
X115272620Y-97723596D01*
X115272627Y-97723598D01*
X115332155Y-97729999D01*
X115332172Y-97730000D01*
X115732813Y-97730000D01*
X115799852Y-97749685D01*
X115845607Y-97802489D01*
X115855551Y-97871647D01*
X115826526Y-97935203D01*
X115791267Y-97963357D01*
X115643550Y-98042315D01*
X115643548Y-98042316D01*
X115643547Y-98042317D01*
X115483589Y-98173589D01*
X115358473Y-98326046D01*
X115352315Y-98333550D01*
X115338202Y-98359953D01*
X115254769Y-98516043D01*
X115194699Y-98714067D01*
X115174417Y-98920000D01*
X115194699Y-99125932D01*
X115206988Y-99166442D01*
X115254768Y-99323954D01*
X115352315Y-99506450D01*
X115352317Y-99506452D01*
X115483589Y-99666410D01*
X115530895Y-99705232D01*
X115643550Y-99797685D01*
X115826046Y-99895232D01*
X116024066Y-99955300D01*
X116024065Y-99955300D01*
X116042529Y-99957118D01*
X116230000Y-99975583D01*
X116435934Y-99955300D01*
X116633954Y-99895232D01*
X116816450Y-99797685D01*
X116976410Y-99666410D01*
X117107685Y-99506450D01*
X117205232Y-99323954D01*
X117265300Y-99125934D01*
X117285583Y-98920000D01*
X117265300Y-98714066D01*
X117205232Y-98516046D01*
X117107685Y-98333550D01*
X117055702Y-98270209D01*
X116976410Y-98173589D01*
X116816623Y-98042457D01*
X116816450Y-98042315D01*
X116668732Y-97963357D01*
X116618889Y-97914395D01*
X116603429Y-97846257D01*
X116627261Y-97780578D01*
X116682819Y-97738209D01*
X116727187Y-97730000D01*
X117127828Y-97730000D01*
X117127844Y-97729999D01*
X117187372Y-97723598D01*
X117187379Y-97723596D01*
X117322086Y-97673354D01*
X117322093Y-97673350D01*
X117437187Y-97587190D01*
X117437190Y-97587187D01*
X117523350Y-97472093D01*
X117523354Y-97472086D01*
X117573596Y-97337379D01*
X117573598Y-97337372D01*
X117579999Y-97277844D01*
X117580000Y-97277827D01*
X117580000Y-96877186D01*
X117599685Y-96810147D01*
X117652489Y-96764392D01*
X117721647Y-96754448D01*
X117785203Y-96783473D01*
X117813356Y-96818729D01*
X117892315Y-96966450D01*
X117892317Y-96966452D01*
X118023589Y-97126410D01*
X118070895Y-97165232D01*
X118183550Y-97257685D01*
X118366046Y-97355232D01*
X118564066Y-97415300D01*
X118564065Y-97415300D01*
X118582529Y-97417118D01*
X118770000Y-97435583D01*
X118975934Y-97415300D01*
X119173954Y-97355232D01*
X119210072Y-97335925D01*
X119278473Y-97321682D01*
X119343717Y-97346680D01*
X119356208Y-97357601D01*
X119963181Y-97964574D01*
X119996666Y-98025897D01*
X119999500Y-98052255D01*
X119999500Y-98518316D01*
X119979815Y-98585355D01*
X119927011Y-98631110D01*
X119857853Y-98641054D01*
X119794297Y-98612029D01*
X119756839Y-98554311D01*
X119745232Y-98516046D01*
X119647685Y-98333550D01*
X119595702Y-98270209D01*
X119516410Y-98173589D01*
X119356623Y-98042457D01*
X119356450Y-98042315D01*
X119173954Y-97944768D01*
X118975934Y-97884700D01*
X118975932Y-97884699D01*
X118975934Y-97884699D01*
X118770000Y-97864417D01*
X118564067Y-97884699D01*
X118366043Y-97944769D01*
X118261044Y-98000893D01*
X118183550Y-98042315D01*
X118183548Y-98042316D01*
X118183547Y-98042317D01*
X118023589Y-98173589D01*
X117898473Y-98326046D01*
X117892315Y-98333550D01*
X117878202Y-98359953D01*
X117794769Y-98516043D01*
X117734699Y-98714067D01*
X117714417Y-98920000D01*
X117734699Y-99125932D01*
X117746988Y-99166442D01*
X117794768Y-99323954D01*
X117892315Y-99506450D01*
X117892317Y-99506452D01*
X118023589Y-99666410D01*
X118070895Y-99705232D01*
X118183550Y-99797685D01*
X118366046Y-99895232D01*
X118564066Y-99955300D01*
X118564065Y-99955300D01*
X118582529Y-99957118D01*
X118770000Y-99975583D01*
X118975934Y-99955300D01*
X119173954Y-99895232D01*
X119356450Y-99797685D01*
X119516410Y-99666410D01*
X119647685Y-99506450D01*
X119745232Y-99323954D01*
X119756839Y-99285687D01*
X119795136Y-99227250D01*
X119858948Y-99198793D01*
X119928015Y-99209352D01*
X119980409Y-99255576D01*
X119999500Y-99321683D01*
X119999500Y-101058316D01*
X119979815Y-101125355D01*
X119927011Y-101171110D01*
X119857853Y-101181054D01*
X119794297Y-101152029D01*
X119756839Y-101094311D01*
X119745232Y-101056046D01*
X119647685Y-100873550D01*
X119563054Y-100770426D01*
X119516410Y-100713589D01*
X119356452Y-100582317D01*
X119356453Y-100582317D01*
X119356450Y-100582315D01*
X119173954Y-100484768D01*
X118975934Y-100424700D01*
X118975932Y-100424699D01*
X118975934Y-100424699D01*
X118770000Y-100404417D01*
X118564067Y-100424699D01*
X118366043Y-100484769D01*
X118268666Y-100536819D01*
X118183550Y-100582315D01*
X118183548Y-100582316D01*
X118183547Y-100582317D01*
X118023589Y-100713589D01*
X117898473Y-100866046D01*
X117892315Y-100873550D01*
X117857267Y-100939119D01*
X117794769Y-101056043D01*
X117734699Y-101254067D01*
X117714417Y-101460000D01*
X117734699Y-101665932D01*
X117750450Y-101717856D01*
X117794768Y-101863954D01*
X117892315Y-102046450D01*
X117892317Y-102046452D01*
X118023589Y-102206410D01*
X118070895Y-102245232D01*
X118183550Y-102337685D01*
X118366046Y-102435232D01*
X118564066Y-102495300D01*
X118564065Y-102495300D01*
X118582529Y-102497118D01*
X118770000Y-102515583D01*
X118975934Y-102495300D01*
X119173954Y-102435232D01*
X119356450Y-102337685D01*
X119516410Y-102206410D01*
X119647685Y-102046450D01*
X119745232Y-101863954D01*
X119756839Y-101825687D01*
X119795136Y-101767250D01*
X119858948Y-101738793D01*
X119928015Y-101749352D01*
X119980409Y-101795576D01*
X119999500Y-101861683D01*
X119999500Y-103598316D01*
X119979815Y-103665355D01*
X119927011Y-103711110D01*
X119857853Y-103721054D01*
X119794297Y-103692029D01*
X119756839Y-103634311D01*
X119745232Y-103596046D01*
X119647685Y-103413550D01*
X119565013Y-103312813D01*
X119516410Y-103253589D01*
X119386865Y-103147276D01*
X119356450Y-103122315D01*
X119173954Y-103024768D01*
X118975934Y-102964700D01*
X118975932Y-102964699D01*
X118975934Y-102964699D01*
X118770000Y-102944417D01*
X118564067Y-102964699D01*
X118366043Y-103024769D01*
X118255898Y-103083643D01*
X118183550Y-103122315D01*
X118183548Y-103122316D01*
X118183547Y-103122317D01*
X118023589Y-103253589D01*
X117892317Y-103413547D01*
X117892315Y-103413550D01*
X117880555Y-103435551D01*
X117794769Y-103596043D01*
X117794768Y-103596045D01*
X117794768Y-103596046D01*
X117792335Y-103604066D01*
X117734699Y-103794067D01*
X117714417Y-104000000D01*
X117734699Y-104205932D01*
X117740332Y-104224500D01*
X117794768Y-104403954D01*
X117892315Y-104586450D01*
X117892317Y-104586452D01*
X118023589Y-104746410D01*
X118110649Y-104817857D01*
X118183550Y-104877685D01*
X118366046Y-104975232D01*
X118564066Y-105035300D01*
X118564065Y-105035300D01*
X118582529Y-105037118D01*
X118770000Y-105055583D01*
X118975934Y-105035300D01*
X119173954Y-104975232D01*
X119356450Y-104877685D01*
X119516410Y-104746410D01*
X119647685Y-104586450D01*
X119745232Y-104403954D01*
X119756839Y-104365687D01*
X119795136Y-104307250D01*
X119858948Y-104278793D01*
X119928015Y-104289352D01*
X119980409Y-104335576D01*
X119999500Y-104401683D01*
X119999500Y-107782745D01*
X119979815Y-107849784D01*
X119963181Y-107870426D01*
X109505426Y-118328181D01*
X109444103Y-118361666D01*
X109417745Y-118364500D01*
X104858728Y-118364500D01*
X104791689Y-118344815D01*
X104749370Y-118298954D01*
X104687685Y-118183550D01*
X104635702Y-118120209D01*
X104556410Y-118023589D01*
X104396452Y-117892317D01*
X104396453Y-117892317D01*
X104396450Y-117892315D01*
X104248732Y-117813357D01*
X104198889Y-117764395D01*
X104183429Y-117696257D01*
X104207261Y-117630578D01*
X104262819Y-117588209D01*
X104307187Y-117580000D01*
X104707828Y-117580000D01*
X104707844Y-117579999D01*
X104767372Y-117573598D01*
X104767379Y-117573596D01*
X104902086Y-117523354D01*
X104902093Y-117523350D01*
X105017187Y-117437190D01*
X105017190Y-117437187D01*
X105103350Y-117322093D01*
X105103354Y-117322086D01*
X105153596Y-117187379D01*
X105153598Y-117187372D01*
X105159999Y-117127844D01*
X105160000Y-117127827D01*
X105160000Y-116480000D01*
X104243012Y-116480000D01*
X104275925Y-116422993D01*
X104310000Y-116295826D01*
X104310000Y-116164174D01*
X104275925Y-116037007D01*
X104243012Y-115980000D01*
X105160000Y-115980000D01*
X105160000Y-115332172D01*
X105159999Y-115332155D01*
X105153598Y-115272627D01*
X105153596Y-115272620D01*
X105103354Y-115137913D01*
X105103350Y-115137906D01*
X105017190Y-115022812D01*
X105017187Y-115022809D01*
X104902093Y-114936649D01*
X104902086Y-114936645D01*
X104767379Y-114886403D01*
X104767372Y-114886401D01*
X104707844Y-114880000D01*
X104060000Y-114880000D01*
X104060000Y-115796988D01*
X104002993Y-115764075D01*
X103875826Y-115730000D01*
X103744174Y-115730000D01*
X103617007Y-115764075D01*
X103560000Y-115796988D01*
X103560000Y-114880000D01*
X102912155Y-114880000D01*
X102852627Y-114886401D01*
X102852620Y-114886403D01*
X102717913Y-114936645D01*
X102717906Y-114936649D01*
X102602812Y-115022809D01*
X102602809Y-115022812D01*
X102516649Y-115137906D01*
X102516645Y-115137913D01*
X102466403Y-115272620D01*
X102466401Y-115272627D01*
X102460000Y-115332155D01*
X102460000Y-115732813D01*
X102440315Y-115799852D01*
X102387511Y-115845607D01*
X102318353Y-115855551D01*
X102254797Y-115826526D01*
X102226642Y-115791267D01*
X102147685Y-115643550D01*
X102072921Y-115552449D01*
X102016410Y-115483589D01*
X101856452Y-115352317D01*
X101856453Y-115352317D01*
X101856450Y-115352315D01*
X101673954Y-115254768D01*
X101475934Y-115194700D01*
X101475932Y-115194699D01*
X101475934Y-115194699D01*
X101270000Y-115174417D01*
X101064067Y-115194699D01*
X100866043Y-115254769D01*
X100832634Y-115272627D01*
X100683550Y-115352315D01*
X100683548Y-115352316D01*
X100683547Y-115352317D01*
X100523589Y-115483589D01*
X100392317Y-115643547D01*
X100294769Y-115826043D01*
X100234699Y-116024067D01*
X100214417Y-116230000D01*
X100234699Y-116435932D01*
X100234700Y-116435934D01*
X100294768Y-116633954D01*
X100392315Y-116816450D01*
X100416517Y-116845940D01*
X100523589Y-116976410D01*
X100620209Y-117055702D01*
X100683550Y-117107685D01*
X100866046Y-117205232D01*
X101064066Y-117265300D01*
X101064065Y-117265300D01*
X101082529Y-117267118D01*
X101270000Y-117285583D01*
X101475934Y-117265300D01*
X101673954Y-117205232D01*
X101856450Y-117107685D01*
X102016410Y-116976410D01*
X102147685Y-116816450D01*
X102226643Y-116668730D01*
X102275605Y-116618888D01*
X102343742Y-116603428D01*
X102409422Y-116627260D01*
X102451791Y-116682818D01*
X102460000Y-116727186D01*
X102460000Y-117127844D01*
X102466401Y-117187372D01*
X102466403Y-117187379D01*
X102516645Y-117322086D01*
X102516649Y-117322093D01*
X102602809Y-117437187D01*
X102602812Y-117437190D01*
X102717906Y-117523350D01*
X102717913Y-117523354D01*
X102852620Y-117573596D01*
X102852627Y-117573598D01*
X102912155Y-117579999D01*
X102912172Y-117580000D01*
X103312813Y-117580000D01*
X103379852Y-117599685D01*
X103425607Y-117652489D01*
X103435551Y-117721647D01*
X103406526Y-117785203D01*
X103371267Y-117813357D01*
X103223550Y-117892315D01*
X103223548Y-117892316D01*
X103223547Y-117892317D01*
X103063589Y-118023589D01*
X102932317Y-118183547D01*
X102834769Y-118366043D01*
X102774699Y-118564067D01*
X102754417Y-118769999D01*
X102774699Y-118975932D01*
X102810839Y-119095071D01*
X102811462Y-119164937D01*
X102779859Y-119218746D01*
X102035426Y-119963181D01*
X101974103Y-119996666D01*
X101947745Y-119999500D01*
X101671684Y-119999500D01*
X101604645Y-119979815D01*
X101558890Y-119927011D01*
X101548946Y-119857853D01*
X101577971Y-119794297D01*
X101635687Y-119756839D01*
X101673954Y-119745232D01*
X101856450Y-119647685D01*
X102016410Y-119516410D01*
X102147685Y-119356450D01*
X102245232Y-119173954D01*
X102305300Y-118975934D01*
X102325583Y-118770000D01*
X102305300Y-118564066D01*
X102245232Y-118366046D01*
X102147685Y-118183550D01*
X102095702Y-118120209D01*
X102016410Y-118023589D01*
X101856452Y-117892317D01*
X101856453Y-117892317D01*
X101856450Y-117892315D01*
X101673954Y-117794768D01*
X101475934Y-117734700D01*
X101475932Y-117734699D01*
X101475934Y-117734699D01*
X101270000Y-117714417D01*
X101064067Y-117734699D01*
X100866043Y-117794769D01*
X100755898Y-117853643D01*
X100683550Y-117892315D01*
X100683548Y-117892316D01*
X100683547Y-117892317D01*
X100523589Y-118023589D01*
X100392317Y-118183547D01*
X100294769Y-118366043D01*
X100234699Y-118564067D01*
X100214417Y-118770000D01*
X100234699Y-118975932D01*
X100234700Y-118975934D01*
X100294768Y-119173954D01*
X100392315Y-119356450D01*
X100392317Y-119356452D01*
X100523589Y-119516410D01*
X100620209Y-119595702D01*
X100683550Y-119647685D01*
X100866046Y-119745232D01*
X100904312Y-119756839D01*
X100962750Y-119795137D01*
X100991206Y-119858949D01*
X100980646Y-119928016D01*
X100934422Y-119980410D01*
X100868316Y-119999500D01*
X99131684Y-119999500D01*
X99064645Y-119979815D01*
X99018890Y-119927011D01*
X99008946Y-119857853D01*
X99037971Y-119794297D01*
X99095687Y-119756839D01*
X99133954Y-119745232D01*
X99316450Y-119647685D01*
X99476410Y-119516410D01*
X99607685Y-119356450D01*
X99705232Y-119173954D01*
X99765300Y-118975934D01*
X99785583Y-118770000D01*
X99765300Y-118564066D01*
X99705232Y-118366046D01*
X99607685Y-118183550D01*
X99555702Y-118120209D01*
X99476410Y-118023589D01*
X99316452Y-117892317D01*
X99316453Y-117892317D01*
X99316450Y-117892315D01*
X99133954Y-117794768D01*
X98935934Y-117734700D01*
X98935932Y-117734699D01*
X98935934Y-117734699D01*
X98730000Y-117714417D01*
X98524067Y-117734699D01*
X98326043Y-117794769D01*
X98215898Y-117853643D01*
X98143550Y-117892315D01*
X98143548Y-117892316D01*
X98143547Y-117892317D01*
X97983589Y-118023589D01*
X97852317Y-118183547D01*
X97754769Y-118366043D01*
X97694699Y-118564067D01*
X97674417Y-118770000D01*
X97694699Y-118975932D01*
X97694700Y-118975934D01*
X97754768Y-119173954D01*
X97852315Y-119356450D01*
X97852317Y-119356452D01*
X97983589Y-119516410D01*
X98080209Y-119595702D01*
X98143550Y-119647685D01*
X98326046Y-119745232D01*
X98364312Y-119756839D01*
X98422750Y-119795137D01*
X98451206Y-119858949D01*
X98440646Y-119928016D01*
X98394422Y-119980410D01*
X98328316Y-119999500D01*
X96591684Y-119999500D01*
X96524645Y-119979815D01*
X96478890Y-119927011D01*
X96468946Y-119857853D01*
X96497971Y-119794297D01*
X96555687Y-119756839D01*
X96593954Y-119745232D01*
X96776450Y-119647685D01*
X96936410Y-119516410D01*
X97067685Y-119356450D01*
X97165232Y-119173954D01*
X97225300Y-118975934D01*
X97245583Y-118770000D01*
X97225300Y-118564066D01*
X97165232Y-118366046D01*
X97067685Y-118183550D01*
X97015702Y-118120209D01*
X96936410Y-118023589D01*
X96776452Y-117892317D01*
X96776453Y-117892317D01*
X96776450Y-117892315D01*
X96593954Y-117794768D01*
X96395934Y-117734700D01*
X96395932Y-117734699D01*
X96395934Y-117734699D01*
X96190000Y-117714417D01*
X95984067Y-117734699D01*
X95786043Y-117794769D01*
X95675898Y-117853643D01*
X95603550Y-117892315D01*
X95603548Y-117892316D01*
X95603547Y-117892317D01*
X95443589Y-118023589D01*
X95312317Y-118183547D01*
X95214769Y-118366043D01*
X95154699Y-118564067D01*
X95134417Y-118770000D01*
X95154699Y-118975932D01*
X95154700Y-118975934D01*
X95214768Y-119173954D01*
X95312315Y-119356450D01*
X95312317Y-119356452D01*
X95443589Y-119516410D01*
X95540209Y-119595702D01*
X95603550Y-119647685D01*
X95786046Y-119745232D01*
X95824312Y-119756839D01*
X95882750Y-119795137D01*
X95911206Y-119858949D01*
X95900646Y-119928016D01*
X95854422Y-119980410D01*
X95788316Y-119999500D01*
X90817255Y-119999500D01*
X90750216Y-119979815D01*
X90729574Y-119963181D01*
X86996393Y-116230000D01*
X95134417Y-116230000D01*
X95154699Y-116435932D01*
X95154700Y-116435934D01*
X95214768Y-116633954D01*
X95312315Y-116816450D01*
X95336517Y-116845940D01*
X95443589Y-116976410D01*
X95540209Y-117055702D01*
X95603550Y-117107685D01*
X95786046Y-117205232D01*
X95984066Y-117265300D01*
X95984065Y-117265300D01*
X96002529Y-117267118D01*
X96190000Y-117285583D01*
X96395934Y-117265300D01*
X96593954Y-117205232D01*
X96776450Y-117107685D01*
X96936410Y-116976410D01*
X97067685Y-116816450D01*
X97165232Y-116633954D01*
X97225300Y-116435934D01*
X97245583Y-116230000D01*
X97674417Y-116230000D01*
X97694699Y-116435932D01*
X97694700Y-116435934D01*
X97754768Y-116633954D01*
X97852315Y-116816450D01*
X97876517Y-116845940D01*
X97983589Y-116976410D01*
X98080209Y-117055702D01*
X98143550Y-117107685D01*
X98326046Y-117205232D01*
X98524066Y-117265300D01*
X98524065Y-117265300D01*
X98542529Y-117267118D01*
X98730000Y-117285583D01*
X98935934Y-117265300D01*
X99133954Y-117205232D01*
X99316450Y-117107685D01*
X99476410Y-116976410D01*
X99607685Y-116816450D01*
X99705232Y-116633954D01*
X99765300Y-116435934D01*
X99785583Y-116230000D01*
X99765300Y-116024066D01*
X99705232Y-115826046D01*
X99607685Y-115643550D01*
X99532921Y-115552449D01*
X99476410Y-115483589D01*
X99316452Y-115352317D01*
X99316453Y-115352317D01*
X99316450Y-115352315D01*
X99133954Y-115254768D01*
X98935934Y-115194700D01*
X98935932Y-115194699D01*
X98935934Y-115194699D01*
X98730000Y-115174417D01*
X98524067Y-115194699D01*
X98326043Y-115254769D01*
X98292634Y-115272627D01*
X98143550Y-115352315D01*
X98143548Y-115352316D01*
X98143547Y-115352317D01*
X97983589Y-115483589D01*
X97852317Y-115643547D01*
X97754769Y-115826043D01*
X97694699Y-116024067D01*
X97674417Y-116230000D01*
X97245583Y-116230000D01*
X97225300Y-116024066D01*
X97165232Y-115826046D01*
X97067685Y-115643550D01*
X96992921Y-115552449D01*
X96936410Y-115483589D01*
X96776452Y-115352317D01*
X96776453Y-115352317D01*
X96776450Y-115352315D01*
X96593954Y-115254768D01*
X96395934Y-115194700D01*
X96395932Y-115194699D01*
X96395934Y-115194699D01*
X96190000Y-115174417D01*
X95984067Y-115194699D01*
X95786043Y-115254769D01*
X95752634Y-115272627D01*
X95603550Y-115352315D01*
X95603548Y-115352316D01*
X95603547Y-115352317D01*
X95443589Y-115483589D01*
X95312317Y-115643547D01*
X95214769Y-115826043D01*
X95154699Y-116024067D01*
X95134417Y-116230000D01*
X86996393Y-116230000D01*
X81671819Y-110905426D01*
X81638334Y-110844103D01*
X81635500Y-110817745D01*
X81635500Y-109312991D01*
X83706485Y-109312991D01*
X83706485Y-109312996D01*
X83722045Y-109391224D01*
X83722045Y-109391225D01*
X83755175Y-109440806D01*
X83755178Y-109440810D01*
X84985177Y-110670809D01*
X84985181Y-110670812D01*
X84985183Y-110670814D01*
X85034763Y-110703942D01*
X85112992Y-110719503D01*
X85112994Y-110719503D01*
X85112996Y-110719503D01*
X85165148Y-110709129D01*
X85191225Y-110703942D01*
X85240805Y-110670814D01*
X85828375Y-110083244D01*
X86421864Y-109489756D01*
X86483187Y-109456271D01*
X86552879Y-109461255D01*
X86608812Y-109503127D01*
X86633229Y-109568591D01*
X86633545Y-109577437D01*
X86633545Y-110002882D01*
X86613860Y-110069921D01*
X86561056Y-110115676D01*
X86545541Y-110121542D01*
X86505092Y-110133812D01*
X86424682Y-110176793D01*
X86322595Y-110231360D01*
X86322593Y-110231361D01*
X86322592Y-110231362D01*
X86162634Y-110362634D01*
X86031362Y-110522592D01*
X86031360Y-110522595D01*
X86015444Y-110552371D01*
X85933814Y-110705088D01*
X85873744Y-110903112D01*
X85853462Y-111109045D01*
X85873744Y-111314977D01*
X85890758Y-111371064D01*
X85933813Y-111512999D01*
X86031360Y-111695495D01*
X86066014Y-111737722D01*
X86162634Y-111855455D01*
X86234082Y-111914090D01*
X86322595Y-111986730D01*
X86505091Y-112084277D01*
X86703111Y-112144345D01*
X86703110Y-112144345D01*
X86721574Y-112146163D01*
X86909045Y-112164628D01*
X87114979Y-112144345D01*
X87312999Y-112084277D01*
X87495495Y-111986730D01*
X87655455Y-111855455D01*
X87786730Y-111695495D01*
X87884277Y-111512999D01*
X87944345Y-111314979D01*
X87964628Y-111109045D01*
X87944345Y-110903111D01*
X87884277Y-110705091D01*
X87884275Y-110705088D01*
X87884275Y-110705086D01*
X87871361Y-110680927D01*
X87857118Y-110612524D01*
X87882117Y-110547280D01*
X87938421Y-110505909D01*
X88008154Y-110501545D01*
X88068399Y-110534791D01*
X88075179Y-110541571D01*
X88075200Y-110541594D01*
X88268277Y-110734670D01*
X88301762Y-110795993D01*
X88304596Y-110822351D01*
X88304596Y-111853695D01*
X88284911Y-111920734D01*
X88239049Y-111963053D01*
X88118646Y-112027411D01*
X88118644Y-112027412D01*
X88118643Y-112027413D01*
X87958685Y-112158685D01*
X87827413Y-112318643D01*
X87729865Y-112501139D01*
X87669795Y-112699163D01*
X87649513Y-112905096D01*
X87669795Y-113111028D01*
X87694707Y-113193153D01*
X87729864Y-113309050D01*
X87827411Y-113491546D01*
X87827413Y-113491548D01*
X87958685Y-113651506D01*
X88011138Y-113694552D01*
X88118646Y-113782781D01*
X88301142Y-113880328D01*
X88499162Y-113940396D01*
X88499161Y-113940396D01*
X88517625Y-113942214D01*
X88705096Y-113960679D01*
X88911030Y-113940396D01*
X89109050Y-113880328D01*
X89161732Y-113852168D01*
X89230132Y-113837926D01*
X89295376Y-113862925D01*
X89336748Y-113919229D01*
X89341112Y-113988962D01*
X89329534Y-114018522D01*
X89329836Y-114018663D01*
X89327612Y-114023432D01*
X89327582Y-114023509D01*
X89327552Y-114023560D01*
X89227718Y-114237655D01*
X89227714Y-114237664D01*
X89166580Y-114465821D01*
X89166578Y-114465832D01*
X89145991Y-114701146D01*
X89145991Y-114701149D01*
X89166578Y-114936463D01*
X89166580Y-114936474D01*
X89227714Y-115164631D01*
X89227718Y-115164640D01*
X89327548Y-115378727D01*
X89327550Y-115378731D01*
X89386220Y-115462521D01*
X89386221Y-115462521D01*
X90018185Y-114830556D01*
X90035223Y-114894141D01*
X90101049Y-115008155D01*
X90194141Y-115101247D01*
X90308155Y-115167073D01*
X90371738Y-115184110D01*
X89739773Y-115816073D01*
X89823569Y-115874747D01*
X90037655Y-115974577D01*
X90037664Y-115974581D01*
X90265821Y-116035715D01*
X90265832Y-116035717D01*
X90501146Y-116056305D01*
X90501150Y-116056305D01*
X90736463Y-116035717D01*
X90736474Y-116035715D01*
X90964631Y-115974581D01*
X90964640Y-115974577D01*
X91178726Y-115874748D01*
X91178730Y-115874746D01*
X91262521Y-115816074D01*
X91262521Y-115816073D01*
X90630557Y-115184110D01*
X90694141Y-115167073D01*
X90808155Y-115101247D01*
X90901247Y-115008155D01*
X90967073Y-114894141D01*
X90984110Y-114830558D01*
X91616073Y-115462521D01*
X91616074Y-115462521D01*
X91674746Y-115378730D01*
X91674748Y-115378726D01*
X91774577Y-115164640D01*
X91774581Y-115164631D01*
X91835715Y-114936474D01*
X91835717Y-114936463D01*
X91856305Y-114701149D01*
X91856305Y-114701146D01*
X91835717Y-114465832D01*
X91835715Y-114465821D01*
X91774581Y-114237664D01*
X91774577Y-114237655D01*
X91674748Y-114023571D01*
X91674747Y-114023569D01*
X91616073Y-113939774D01*
X91616073Y-113939773D01*
X90984110Y-114571737D01*
X90967073Y-114508155D01*
X90901247Y-114394141D01*
X90808155Y-114301049D01*
X90694141Y-114235223D01*
X90630556Y-114218185D01*
X91262521Y-113586221D01*
X91262521Y-113586220D01*
X91183902Y-113531171D01*
X91140277Y-113476594D01*
X91133083Y-113407096D01*
X91164606Y-113344741D01*
X91224835Y-113309327D01*
X91255025Y-113305596D01*
X93652725Y-113305596D01*
X93652727Y-113305596D01*
X93754588Y-113278303D01*
X93845913Y-113225576D01*
X95241241Y-111830247D01*
X97649500Y-111830247D01*
X97649500Y-113569752D01*
X97661131Y-113628229D01*
X97661132Y-113628230D01*
X97705447Y-113694552D01*
X97771769Y-113738867D01*
X97771770Y-113738868D01*
X97830247Y-113750499D01*
X97830250Y-113750500D01*
X97830252Y-113750500D01*
X99569750Y-113750500D01*
X99569751Y-113750499D01*
X99584568Y-113747552D01*
X99628229Y-113738868D01*
X99628229Y-113738867D01*
X99628231Y-113738867D01*
X99694552Y-113694552D01*
X99738867Y-113628231D01*
X99738867Y-113628229D01*
X99738868Y-113628229D01*
X99750499Y-113569752D01*
X99750500Y-113569750D01*
X99750500Y-111830249D01*
X99750499Y-111830247D01*
X99738868Y-111771770D01*
X99738867Y-111771769D01*
X99694552Y-111705447D01*
X99628230Y-111661132D01*
X99628229Y-111661131D01*
X99569752Y-111649500D01*
X99569748Y-111649500D01*
X97830252Y-111649500D01*
X97830247Y-111649500D01*
X97771770Y-111661131D01*
X97771769Y-111661132D01*
X97705447Y-111705447D01*
X97661132Y-111771769D01*
X97661131Y-111771770D01*
X97649500Y-111830247D01*
X95241241Y-111830247D01*
X96084669Y-110986818D01*
X96145992Y-110953334D01*
X96172350Y-110950500D01*
X101662582Y-110950500D01*
X101729621Y-110970185D01*
X101775376Y-111022989D01*
X101785320Y-111092147D01*
X101756295Y-111155703D01*
X101729622Y-111178815D01*
X101668874Y-111217855D01*
X101574623Y-111326626D01*
X101574622Y-111326628D01*
X101514834Y-111457543D01*
X101494353Y-111600000D01*
X101514834Y-111742456D01*
X101554930Y-111830252D01*
X101574623Y-111873373D01*
X101668872Y-111982143D01*
X101789947Y-112059953D01*
X101789950Y-112059954D01*
X101789949Y-112059954D01*
X101928036Y-112100499D01*
X101928038Y-112100500D01*
X102059523Y-112100500D01*
X102126562Y-112120185D01*
X102147204Y-112136819D01*
X103800599Y-113790214D01*
X103901857Y-113832157D01*
X104011457Y-113832157D01*
X109087180Y-113832157D01*
X109154219Y-113851842D01*
X109199974Y-113904646D01*
X109205840Y-113920161D01*
X109218110Y-113960609D01*
X109218111Y-113960611D01*
X109315658Y-114143107D01*
X109315660Y-114143109D01*
X109446932Y-114303067D01*
X109543552Y-114382359D01*
X109606893Y-114434342D01*
X109789389Y-114531889D01*
X109987409Y-114591957D01*
X109987408Y-114591957D01*
X110005872Y-114593775D01*
X110193343Y-114612240D01*
X110399277Y-114591957D01*
X110597297Y-114531889D01*
X110779793Y-114434342D01*
X110939753Y-114303067D01*
X111071028Y-114143107D01*
X111168575Y-113960611D01*
X111228643Y-113762591D01*
X111248926Y-113556657D01*
X111228643Y-113350723D01*
X111168575Y-113152703D01*
X111168573Y-113152700D01*
X111168573Y-113152698D01*
X111140417Y-113100022D01*
X111126175Y-113031619D01*
X111151175Y-112966376D01*
X111207480Y-112925005D01*
X111277213Y-112920643D01*
X111306767Y-112932222D01*
X111306909Y-112931918D01*
X111311737Y-112934169D01*
X111311787Y-112934189D01*
X111311819Y-112934207D01*
X111525901Y-113034035D01*
X111525910Y-113034039D01*
X111754067Y-113095173D01*
X111754078Y-113095175D01*
X111989392Y-113115763D01*
X111989396Y-113115763D01*
X112224709Y-113095175D01*
X112224720Y-113095173D01*
X112452877Y-113034039D01*
X112452886Y-113034035D01*
X112666972Y-112934206D01*
X112666976Y-112934204D01*
X112750767Y-112875532D01*
X112750767Y-112875531D01*
X112118803Y-112243568D01*
X112182387Y-112226531D01*
X112296401Y-112160705D01*
X112389493Y-112067613D01*
X112455319Y-111953599D01*
X112472356Y-111890015D01*
X113104319Y-112521979D01*
X113104320Y-112521979D01*
X113162992Y-112438188D01*
X113162994Y-112438184D01*
X113262823Y-112224098D01*
X113262827Y-112224089D01*
X113323961Y-111995932D01*
X113323963Y-111995921D01*
X113344551Y-111760607D01*
X113344551Y-111760604D01*
X113323963Y-111525290D01*
X113323961Y-111525279D01*
X113262827Y-111297122D01*
X113262824Y-111297113D01*
X113237137Y-111242028D01*
X113226645Y-111172951D01*
X113255164Y-111109167D01*
X113313641Y-111070927D01*
X113383508Y-111070372D01*
X113437200Y-111101942D01*
X113657628Y-111322370D01*
X113657632Y-111322373D01*
X113657634Y-111322375D01*
X113707214Y-111355503D01*
X113785443Y-111371064D01*
X113785445Y-111371064D01*
X113785447Y-111371064D01*
X113853420Y-111357543D01*
X113863676Y-111355503D01*
X113913256Y-111322375D01*
X115143265Y-110092366D01*
X115176393Y-110042786D01*
X115184330Y-110002882D01*
X115191954Y-109964557D01*
X115191954Y-109964552D01*
X115176393Y-109886324D01*
X115176393Y-109886323D01*
X115153944Y-109852726D01*
X115143265Y-109836744D01*
X115143263Y-109836742D01*
X115143260Y-109836738D01*
X113913261Y-108606739D01*
X113913257Y-108606736D01*
X113863675Y-108573606D01*
X113785447Y-108558046D01*
X113785443Y-108558046D01*
X113707214Y-108573606D01*
X113707213Y-108573606D01*
X113657632Y-108606736D01*
X113657628Y-108606739D01*
X112611633Y-109652736D01*
X112550310Y-109686221D01*
X112523952Y-109689055D01*
X110980643Y-109689055D01*
X110909044Y-109718713D01*
X110879384Y-109730998D01*
X109422204Y-111188181D01*
X109360881Y-111221666D01*
X109334523Y-111224500D01*
X103680163Y-111224500D01*
X103613124Y-111204815D01*
X103586450Y-111181702D01*
X103563921Y-111155702D01*
X103534896Y-111092147D01*
X103544840Y-111022988D01*
X103590595Y-110970184D01*
X103657634Y-110950500D01*
X105902725Y-110950500D01*
X105902727Y-110950500D01*
X106004588Y-110923207D01*
X106095913Y-110870480D01*
X108820480Y-108145913D01*
X108873207Y-108054588D01*
X108900500Y-107952727D01*
X108900500Y-107847273D01*
X108900500Y-103147273D01*
X108884710Y-103088342D01*
X108873207Y-103045412D01*
X108820480Y-102954087D01*
X106636819Y-100770426D01*
X106603334Y-100709103D01*
X106600500Y-100682745D01*
X106600500Y-99404881D01*
X106620185Y-99337842D01*
X106672989Y-99292087D01*
X106742147Y-99282143D01*
X106805703Y-99311168D01*
X106818213Y-99323679D01*
X106830950Y-99338379D01*
X106868872Y-99382143D01*
X106989947Y-99459953D01*
X106989950Y-99459954D01*
X106989949Y-99459954D01*
X107128036Y-99500499D01*
X107128038Y-99500500D01*
X107259522Y-99500500D01*
X107326561Y-99520185D01*
X107347203Y-99536819D01*
X108268944Y-100458560D01*
X108337820Y-100487088D01*
X108370200Y-100500500D01*
X113434523Y-100500500D01*
X113501562Y-100520185D01*
X113522204Y-100536819D01*
X113863181Y-100877796D01*
X113896666Y-100939119D01*
X113899500Y-100965477D01*
X113899500Y-101824802D01*
X113934961Y-101910411D01*
X113941442Y-101926057D01*
X113941444Y-101926060D01*
X115313974Y-103298590D01*
X115347459Y-103359913D01*
X115342475Y-103429605D01*
X115335651Y-103444724D01*
X115254769Y-103596041D01*
X115194699Y-103794067D01*
X115174417Y-104000000D01*
X115194699Y-104205932D01*
X115200332Y-104224500D01*
X115254768Y-104403954D01*
X115352315Y-104586450D01*
X115352317Y-104586452D01*
X115483589Y-104746410D01*
X115570649Y-104817857D01*
X115643550Y-104877685D01*
X115826046Y-104975232D01*
X116024066Y-105035300D01*
X116024065Y-105035300D01*
X116042529Y-105037118D01*
X116230000Y-105055583D01*
X116435934Y-105035300D01*
X116633954Y-104975232D01*
X116816450Y-104877685D01*
X116976410Y-104746410D01*
X117107685Y-104586450D01*
X117205232Y-104403954D01*
X117265300Y-104205934D01*
X117285583Y-104000000D01*
X117265300Y-103794066D01*
X117205232Y-103596046D01*
X117107685Y-103413550D01*
X117025013Y-103312813D01*
X116976410Y-103253589D01*
X116846865Y-103147276D01*
X116816450Y-103122315D01*
X116633954Y-103024768D01*
X116435934Y-102964700D01*
X116435932Y-102964699D01*
X116435934Y-102964699D01*
X116230000Y-102944417D01*
X116024067Y-102964699D01*
X115892056Y-103004744D01*
X115822189Y-103005367D01*
X115768380Y-102973764D01*
X114486819Y-101692203D01*
X114453334Y-101630880D01*
X114450500Y-101604522D01*
X114450500Y-100745201D01*
X114450499Y-100745198D01*
X114437407Y-100713591D01*
X114437407Y-100713590D01*
X114408558Y-100643942D01*
X113756058Y-99991443D01*
X113654800Y-99949500D01*
X109157634Y-99949500D01*
X109090595Y-99929815D01*
X109044840Y-99877011D01*
X109034896Y-99807853D01*
X109063921Y-99744298D01*
X109086450Y-99718298D01*
X109145228Y-99680523D01*
X109180163Y-99675500D01*
X114179523Y-99675500D01*
X114246562Y-99695185D01*
X114267204Y-99711819D01*
X115313974Y-100758590D01*
X115347459Y-100819913D01*
X115342475Y-100889605D01*
X115335651Y-100904724D01*
X115254769Y-101056041D01*
X115194699Y-101254067D01*
X115174417Y-101460000D01*
X115194699Y-101665932D01*
X115210450Y-101717856D01*
X115254768Y-101863954D01*
X115352315Y-102046450D01*
X115352317Y-102046452D01*
X115483589Y-102206410D01*
X115530895Y-102245232D01*
X115643550Y-102337685D01*
X115826046Y-102435232D01*
X116024066Y-102495300D01*
X116024065Y-102495300D01*
X116042529Y-102497118D01*
X116230000Y-102515583D01*
X116435934Y-102495300D01*
X116633954Y-102435232D01*
X116816450Y-102337685D01*
X116976410Y-102206410D01*
X117107685Y-102046450D01*
X117205232Y-101863954D01*
X117265300Y-101665934D01*
X117285583Y-101460000D01*
X117265300Y-101254066D01*
X117205232Y-101056046D01*
X117107685Y-100873550D01*
X117023054Y-100770426D01*
X116976410Y-100713589D01*
X116816452Y-100582317D01*
X116816453Y-100582317D01*
X116816450Y-100582315D01*
X116633954Y-100484768D01*
X116435934Y-100424700D01*
X116435932Y-100424699D01*
X116435934Y-100424699D01*
X116230000Y-100404417D01*
X116024067Y-100424699D01*
X115892056Y-100464744D01*
X115822189Y-100465367D01*
X115768380Y-100433764D01*
X114501059Y-99166444D01*
X114501058Y-99166443D01*
X114501056Y-99166442D01*
X114485389Y-99159952D01*
X114399800Y-99124500D01*
X109180163Y-99124500D01*
X109113124Y-99104815D01*
X109086450Y-99081703D01*
X109031128Y-99017857D01*
X108910053Y-98940047D01*
X108910051Y-98940046D01*
X108910049Y-98940045D01*
X108910050Y-98940045D01*
X108771963Y-98899500D01*
X108771961Y-98899500D01*
X108628039Y-98899500D01*
X108628036Y-98899500D01*
X108489949Y-98940045D01*
X108368873Y-99017856D01*
X108274623Y-99126626D01*
X108274622Y-99126628D01*
X108214834Y-99257543D01*
X108203870Y-99333802D01*
X108174844Y-99397357D01*
X108116066Y-99435131D01*
X108046196Y-99435131D01*
X107993451Y-99403835D01*
X107734951Y-99145336D01*
X107701466Y-99084013D01*
X107699894Y-99040011D01*
X107705647Y-99000000D01*
X107685165Y-98857543D01*
X107625377Y-98726627D01*
X107531128Y-98617857D01*
X107476829Y-98582961D01*
X107431075Y-98530158D01*
X107421131Y-98460999D01*
X107450156Y-98397443D01*
X107456188Y-98390965D01*
X107990527Y-97856627D01*
X108610335Y-97236819D01*
X108671658Y-97203334D01*
X108698016Y-97200500D01*
X109661026Y-97200500D01*
X109728064Y-97220184D01*
X109762365Y-97242227D01*
X109786413Y-97257682D01*
X109789949Y-97259954D01*
X109928036Y-97300499D01*
X109928038Y-97300500D01*
X109928039Y-97300500D01*
X110071962Y-97300500D01*
X110071962Y-97300499D01*
X110210053Y-97259953D01*
X110331128Y-97182143D01*
X110425377Y-97073373D01*
X110485165Y-96942457D01*
X110505647Y-96800000D01*
X110485165Y-96657543D01*
X110425377Y-96526627D01*
X110331128Y-96417857D01*
X110210053Y-96340047D01*
X110210051Y-96340046D01*
X110210049Y-96340045D01*
X110210050Y-96340045D01*
X110071963Y-96299500D01*
X110071961Y-96299500D01*
X109928039Y-96299500D01*
X109928036Y-96299500D01*
X109789950Y-96340045D01*
X109789948Y-96340045D01*
X109728064Y-96379816D01*
X109661026Y-96399500D01*
X108533488Y-96399500D01*
X108428034Y-96399500D01*
X108428032Y-96399500D01*
X108419978Y-96400561D01*
X108419567Y-96397442D01*
X108364526Y-96396108D01*
X108306680Y-96356921D01*
X108279204Y-96292680D01*
X108280716Y-96253818D01*
X108281766Y-96248534D01*
X108281768Y-96248532D01*
X108281768Y-94027204D01*
X108252109Y-93955603D01*
X108239825Y-93925945D01*
X108239823Y-93925943D01*
X108239823Y-93925942D01*
X104080323Y-89766444D01*
X104080322Y-89766443D01*
X103979064Y-89724500D01*
X97745200Y-89724500D01*
X97745198Y-89724500D01*
X97673599Y-89754158D01*
X97643939Y-89766443D01*
X94368942Y-93041443D01*
X94291444Y-93118940D01*
X94249500Y-93220199D01*
X94249500Y-96409523D01*
X94229815Y-96476562D01*
X94213181Y-96497204D01*
X86375489Y-104334895D01*
X86333545Y-104436154D01*
X86333545Y-107651464D01*
X86313860Y-107718503D01*
X86297226Y-107739145D01*
X85748682Y-108287688D01*
X85687359Y-108321173D01*
X85617667Y-108316189D01*
X85573320Y-108287688D01*
X85240810Y-107955178D01*
X85240806Y-107955175D01*
X85237142Y-107952727D01*
X85191225Y-107922046D01*
X85191224Y-107922045D01*
X85112996Y-107906485D01*
X85112992Y-107906485D01*
X85034763Y-107922045D01*
X85034762Y-107922045D01*
X84985181Y-107955175D01*
X84985177Y-107955178D01*
X83755178Y-109185177D01*
X83755175Y-109185181D01*
X83722045Y-109234762D01*
X83722045Y-109234763D01*
X83706485Y-109312991D01*
X81635500Y-109312991D01*
X81635500Y-104858727D01*
X81655185Y-104791688D01*
X81701045Y-104749369D01*
X81816450Y-104687685D01*
X81976410Y-104556410D01*
X82107685Y-104396450D01*
X82186643Y-104248730D01*
X82235605Y-104198888D01*
X82303742Y-104183428D01*
X82369422Y-104207260D01*
X82411791Y-104262818D01*
X82420000Y-104307186D01*
X82420000Y-104707844D01*
X82426401Y-104767372D01*
X82426403Y-104767379D01*
X82476645Y-104902086D01*
X82476649Y-104902093D01*
X82562809Y-105017187D01*
X82562812Y-105017190D01*
X82677906Y-105103350D01*
X82677913Y-105103354D01*
X82812620Y-105153596D01*
X82812627Y-105153598D01*
X82872155Y-105159999D01*
X82872172Y-105160000D01*
X83520000Y-105160000D01*
X83520000Y-104243012D01*
X83577007Y-104275925D01*
X83704174Y-104310000D01*
X83835826Y-104310000D01*
X83962993Y-104275925D01*
X84020000Y-104243012D01*
X84020000Y-105160000D01*
X84667828Y-105160000D01*
X84667844Y-105159999D01*
X84727372Y-105153598D01*
X84727379Y-105153596D01*
X84862086Y-105103354D01*
X84862093Y-105103350D01*
X84977187Y-105017190D01*
X84977190Y-105017187D01*
X85063350Y-104902093D01*
X85063354Y-104902086D01*
X85113596Y-104767379D01*
X85113598Y-104767372D01*
X85119999Y-104707844D01*
X85120000Y-104707827D01*
X85120000Y-104060000D01*
X84203012Y-104060000D01*
X84235925Y-104002993D01*
X84270000Y-103875826D01*
X84270000Y-103744174D01*
X84235925Y-103617007D01*
X84203012Y-103560000D01*
X85120000Y-103560000D01*
X85120000Y-102912172D01*
X85119999Y-102912155D01*
X85113598Y-102852627D01*
X85113596Y-102852620D01*
X85063354Y-102717913D01*
X85063350Y-102717906D01*
X84977190Y-102602812D01*
X84977187Y-102602809D01*
X84862093Y-102516649D01*
X84862086Y-102516645D01*
X84727379Y-102466403D01*
X84727372Y-102466401D01*
X84667844Y-102460000D01*
X84267187Y-102460000D01*
X84200148Y-102440315D01*
X84154393Y-102387511D01*
X84144449Y-102318353D01*
X84173474Y-102254797D01*
X84208733Y-102226642D01*
X84356450Y-102147685D01*
X84516410Y-102016410D01*
X84647685Y-101856450D01*
X84745232Y-101673954D01*
X84805300Y-101475934D01*
X84825583Y-101270000D01*
X84805300Y-101064066D01*
X84745232Y-100866046D01*
X84647685Y-100683550D01*
X84527267Y-100536819D01*
X84516410Y-100523589D01*
X84356452Y-100392317D01*
X84356453Y-100392317D01*
X84356450Y-100392315D01*
X84173954Y-100294768D01*
X83975934Y-100234700D01*
X83975932Y-100234699D01*
X83975934Y-100234699D01*
X83770000Y-100214417D01*
X83564067Y-100234699D01*
X83366043Y-100294769D01*
X83255898Y-100353643D01*
X83183550Y-100392315D01*
X83183548Y-100392316D01*
X83183547Y-100392317D01*
X83023589Y-100523589D01*
X82892317Y-100683547D01*
X82892315Y-100683550D01*
X82859363Y-100745198D01*
X82794769Y-100866043D01*
X82734699Y-101064067D01*
X82714417Y-101270000D01*
X82734699Y-101475932D01*
X82734700Y-101475934D01*
X82794768Y-101673954D01*
X82892315Y-101856450D01*
X82926969Y-101898677D01*
X83023589Y-102016410D01*
X83120209Y-102095702D01*
X83183550Y-102147685D01*
X83331267Y-102226642D01*
X83381111Y-102275605D01*
X83396571Y-102343743D01*
X83372739Y-102409422D01*
X83317181Y-102451791D01*
X83272813Y-102460000D01*
X82872155Y-102460000D01*
X82812627Y-102466401D01*
X82812620Y-102466403D01*
X82677913Y-102516645D01*
X82677906Y-102516649D01*
X82562812Y-102602809D01*
X82562809Y-102602812D01*
X82476649Y-102717906D01*
X82476645Y-102717913D01*
X82426403Y-102852620D01*
X82426401Y-102852627D01*
X82420000Y-102912155D01*
X82420000Y-103312813D01*
X82400315Y-103379852D01*
X82347511Y-103425607D01*
X82278353Y-103435551D01*
X82214797Y-103406526D01*
X82186642Y-103371267D01*
X82107685Y-103223550D01*
X82045089Y-103147276D01*
X81976410Y-103063589D01*
X81816452Y-102932317D01*
X81816453Y-102932317D01*
X81816450Y-102932315D01*
X81633954Y-102834768D01*
X81435934Y-102774700D01*
X81435932Y-102774699D01*
X81435934Y-102774699D01*
X81230000Y-102754417D01*
X81024066Y-102774699D01*
X80904927Y-102810839D01*
X80835060Y-102811462D01*
X80781252Y-102779859D01*
X79936819Y-101935426D01*
X79903334Y-101874103D01*
X79900500Y-101847745D01*
X79900500Y-101270000D01*
X80174417Y-101270000D01*
X80194699Y-101475932D01*
X80194700Y-101475934D01*
X80254768Y-101673954D01*
X80352315Y-101856450D01*
X80386969Y-101898677D01*
X80483589Y-102016410D01*
X80580209Y-102095702D01*
X80643550Y-102147685D01*
X80826046Y-102245232D01*
X81024066Y-102305300D01*
X81024065Y-102305300D01*
X81042529Y-102307118D01*
X81230000Y-102325583D01*
X81435934Y-102305300D01*
X81633954Y-102245232D01*
X81816450Y-102147685D01*
X81976410Y-102016410D01*
X82107685Y-101856450D01*
X82205232Y-101673954D01*
X82265300Y-101475934D01*
X82285583Y-101270000D01*
X82265300Y-101064066D01*
X82205232Y-100866046D01*
X82107685Y-100683550D01*
X81987267Y-100536819D01*
X81976410Y-100523589D01*
X81816452Y-100392317D01*
X81816453Y-100392317D01*
X81816450Y-100392315D01*
X81633954Y-100294768D01*
X81435934Y-100234700D01*
X81435932Y-100234699D01*
X81435934Y-100234699D01*
X81230000Y-100214417D01*
X81024067Y-100234699D01*
X80826043Y-100294769D01*
X80715898Y-100353643D01*
X80643550Y-100392315D01*
X80643548Y-100392316D01*
X80643547Y-100392317D01*
X80483589Y-100523589D01*
X80352317Y-100683547D01*
X80352315Y-100683550D01*
X80319363Y-100745198D01*
X80254769Y-100866043D01*
X80194699Y-101064067D01*
X80174417Y-101270000D01*
X79900500Y-101270000D01*
X79900500Y-98730000D01*
X80174417Y-98730000D01*
X80194699Y-98935932D01*
X80197129Y-98943942D01*
X80254768Y-99133954D01*
X80352315Y-99316450D01*
X80369871Y-99337842D01*
X80483589Y-99476410D01*
X80536930Y-99520185D01*
X80643550Y-99607685D01*
X80826046Y-99705232D01*
X81024066Y-99765300D01*
X81024065Y-99765300D01*
X81042529Y-99767118D01*
X81230000Y-99785583D01*
X81435934Y-99765300D01*
X81633954Y-99705232D01*
X81816450Y-99607685D01*
X81976410Y-99476410D01*
X82107685Y-99316450D01*
X82205232Y-99133954D01*
X82265300Y-98935934D01*
X82285583Y-98730000D01*
X82714417Y-98730000D01*
X82734699Y-98935932D01*
X82737129Y-98943942D01*
X82794768Y-99133954D01*
X82892315Y-99316450D01*
X82909871Y-99337842D01*
X83023589Y-99476410D01*
X83076930Y-99520185D01*
X83183550Y-99607685D01*
X83366046Y-99705232D01*
X83564066Y-99765300D01*
X83564065Y-99765300D01*
X83582529Y-99767118D01*
X83770000Y-99785583D01*
X83975934Y-99765300D01*
X84173954Y-99705232D01*
X84356450Y-99607685D01*
X84516410Y-99476410D01*
X84647685Y-99316450D01*
X84745232Y-99133954D01*
X84805300Y-98935934D01*
X84825583Y-98730000D01*
X84805300Y-98524066D01*
X84745232Y-98326046D01*
X84647685Y-98143550D01*
X84572762Y-98052255D01*
X84516410Y-97983589D01*
X84356452Y-97852317D01*
X84356453Y-97852317D01*
X84356450Y-97852315D01*
X84173954Y-97754768D01*
X83975934Y-97694700D01*
X83975932Y-97694699D01*
X83975934Y-97694699D01*
X83770000Y-97674417D01*
X83564067Y-97694699D01*
X83366043Y-97754769D01*
X83317759Y-97780578D01*
X83183550Y-97852315D01*
X83183548Y-97852316D01*
X83183547Y-97852317D01*
X83023589Y-97983589D01*
X82901676Y-98132143D01*
X82892315Y-98143550D01*
X82856822Y-98209953D01*
X82794769Y-98326043D01*
X82734699Y-98524067D01*
X82714417Y-98730000D01*
X82285583Y-98730000D01*
X82265300Y-98524066D01*
X82205232Y-98326046D01*
X82107685Y-98143550D01*
X82032762Y-98052255D01*
X81976410Y-97983589D01*
X81816452Y-97852317D01*
X81816453Y-97852317D01*
X81816450Y-97852315D01*
X81633954Y-97754768D01*
X81435934Y-97694700D01*
X81435932Y-97694699D01*
X81435934Y-97694699D01*
X81230000Y-97674417D01*
X81024067Y-97694699D01*
X80826043Y-97754769D01*
X80777759Y-97780578D01*
X80643550Y-97852315D01*
X80643548Y-97852316D01*
X80643547Y-97852317D01*
X80483589Y-97983589D01*
X80361676Y-98132143D01*
X80352315Y-98143550D01*
X80316822Y-98209953D01*
X80254769Y-98326043D01*
X80194699Y-98524067D01*
X80174417Y-98730000D01*
X79900500Y-98730000D01*
X79900500Y-96190000D01*
X80174417Y-96190000D01*
X80194699Y-96395932D01*
X80214009Y-96459587D01*
X80254768Y-96593954D01*
X80352315Y-96776450D01*
X80379969Y-96810147D01*
X80483589Y-96936410D01*
X80580209Y-97015702D01*
X80643550Y-97067685D01*
X80826046Y-97165232D01*
X81024066Y-97225300D01*
X81024065Y-97225300D01*
X81042529Y-97227118D01*
X81230000Y-97245583D01*
X81435934Y-97225300D01*
X81633954Y-97165232D01*
X81816450Y-97067685D01*
X81976410Y-96936410D01*
X82107685Y-96776450D01*
X82205232Y-96593954D01*
X82265300Y-96395934D01*
X82285583Y-96190000D01*
X82714417Y-96190000D01*
X82734699Y-96395932D01*
X82754009Y-96459587D01*
X82794768Y-96593954D01*
X82892315Y-96776450D01*
X82919969Y-96810147D01*
X83023589Y-96936410D01*
X83120209Y-97015702D01*
X83183550Y-97067685D01*
X83366046Y-97165232D01*
X83564066Y-97225300D01*
X83564065Y-97225300D01*
X83582529Y-97227118D01*
X83770000Y-97245583D01*
X83975934Y-97225300D01*
X84173954Y-97165232D01*
X84356450Y-97067685D01*
X84516410Y-96936410D01*
X84647685Y-96776450D01*
X84745232Y-96593954D01*
X84805300Y-96395934D01*
X84825583Y-96190000D01*
X84805300Y-95984066D01*
X84745232Y-95786046D01*
X84647685Y-95603550D01*
X84548580Y-95482789D01*
X84516410Y-95443589D01*
X84356452Y-95312317D01*
X84356453Y-95312317D01*
X84356450Y-95312315D01*
X84173954Y-95214768D01*
X83975934Y-95154700D01*
X83975932Y-95154699D01*
X83975934Y-95154699D01*
X83770000Y-95134417D01*
X83564067Y-95154699D01*
X83366043Y-95214769D01*
X83255898Y-95273643D01*
X83183550Y-95312315D01*
X83183548Y-95312316D01*
X83183547Y-95312317D01*
X83023589Y-95443589D01*
X82892317Y-95603547D01*
X82794769Y-95786043D01*
X82734699Y-95984067D01*
X82714417Y-96190000D01*
X82285583Y-96190000D01*
X82265300Y-95984066D01*
X82205232Y-95786046D01*
X82107685Y-95603550D01*
X82008580Y-95482789D01*
X81976410Y-95443589D01*
X81816452Y-95312317D01*
X81816453Y-95312317D01*
X81816450Y-95312315D01*
X81633954Y-95214768D01*
X81435934Y-95154700D01*
X81435932Y-95154699D01*
X81435934Y-95154699D01*
X81230000Y-95134417D01*
X81024067Y-95154699D01*
X80826043Y-95214769D01*
X80715898Y-95273643D01*
X80643550Y-95312315D01*
X80643548Y-95312316D01*
X80643547Y-95312317D01*
X80483589Y-95443589D01*
X80352317Y-95603547D01*
X80254769Y-95786043D01*
X80194699Y-95984067D01*
X80174417Y-96190000D01*
X79900500Y-96190000D01*
X79900500Y-92117254D01*
X79920185Y-92050215D01*
X79936819Y-92029573D01*
X90294573Y-81671819D01*
X90355896Y-81638334D01*
X90382254Y-81635500D01*
X95141272Y-81635500D01*
X95208311Y-81655185D01*
X95250628Y-81701044D01*
X95312315Y-81816450D01*
X95313068Y-81817367D01*
X95443589Y-81976410D01*
X95540209Y-82055702D01*
X95603550Y-82107685D01*
X95751267Y-82186642D01*
X95801111Y-82235605D01*
X95816571Y-82303743D01*
X95792739Y-82369422D01*
X95737181Y-82411791D01*
X95692813Y-82420000D01*
X95292155Y-82420000D01*
X95232627Y-82426401D01*
X95232620Y-82426403D01*
X95097913Y-82476645D01*
X95097906Y-82476649D01*
X94982812Y-82562809D01*
X94982809Y-82562812D01*
X94896649Y-82677906D01*
X94896645Y-82677913D01*
X94846403Y-82812620D01*
X94846401Y-82812627D01*
X94840000Y-82872155D01*
X94840000Y-83520000D01*
X95756988Y-83520000D01*
X95724075Y-83577007D01*
X95690000Y-83704174D01*
X95690000Y-83835826D01*
X95724075Y-83962993D01*
X95756988Y-84020000D01*
X94840000Y-84020000D01*
X94840000Y-84667844D01*
X94846401Y-84727372D01*
X94846403Y-84727379D01*
X94896645Y-84862086D01*
X94896649Y-84862093D01*
X94982809Y-84977187D01*
X94982812Y-84977190D01*
X95097906Y-85063350D01*
X95097913Y-85063354D01*
X95232620Y-85113596D01*
X95232627Y-85113598D01*
X95292155Y-85119999D01*
X95292172Y-85120000D01*
X95940000Y-85120000D01*
X95940000Y-84203012D01*
X95997007Y-84235925D01*
X96124174Y-84270000D01*
X96255826Y-84270000D01*
X96382993Y-84235925D01*
X96440000Y-84203012D01*
X96440000Y-85120000D01*
X97087828Y-85120000D01*
X97087844Y-85119999D01*
X97147372Y-85113598D01*
X97147379Y-85113596D01*
X97282086Y-85063354D01*
X97282093Y-85063350D01*
X97397187Y-84977190D01*
X97397190Y-84977187D01*
X97483350Y-84862093D01*
X97483354Y-84862086D01*
X97533596Y-84727379D01*
X97533598Y-84727372D01*
X97539999Y-84667844D01*
X97540000Y-84667827D01*
X97540000Y-84267186D01*
X97559685Y-84200147D01*
X97612489Y-84154392D01*
X97681647Y-84144448D01*
X97745203Y-84173473D01*
X97773356Y-84208729D01*
X97852315Y-84356450D01*
X97852317Y-84356452D01*
X97983589Y-84516410D01*
X98061834Y-84580623D01*
X98143550Y-84647685D01*
X98326046Y-84745232D01*
X98342218Y-84750137D01*
X98400656Y-84788434D01*
X98429113Y-84852246D01*
X98418554Y-84921313D01*
X98393904Y-84956479D01*
X97062204Y-86288181D01*
X97000881Y-86321666D01*
X96974523Y-86324500D01*
X95133480Y-86324500D01*
X95023880Y-86324500D01*
X95023878Y-86324500D01*
X95023876Y-86324501D01*
X94922624Y-86366439D01*
X94922622Y-86366441D01*
X91307546Y-89981519D01*
X91230048Y-90059016D01*
X91188104Y-90160275D01*
X91188104Y-94898126D01*
X91168419Y-94965165D01*
X91151785Y-94985807D01*
X89093942Y-97043651D01*
X89016444Y-97121148D01*
X89016443Y-97121149D01*
X89016443Y-97121150D01*
X89004159Y-97150804D01*
X88974500Y-97222407D01*
X88974500Y-98014397D01*
X88954815Y-98081436D01*
X88924941Y-98111313D01*
X88925577Y-98112047D01*
X88918874Y-98117855D01*
X88824623Y-98226626D01*
X88824622Y-98226628D01*
X88764834Y-98357543D01*
X88744353Y-98500000D01*
X88764834Y-98642456D01*
X88804815Y-98730000D01*
X88824623Y-98773373D01*
X88918872Y-98882143D01*
X89039947Y-98959953D01*
X89039950Y-98959954D01*
X89039949Y-98959954D01*
X89143229Y-98990279D01*
X89176336Y-99000000D01*
X89178036Y-99000499D01*
X89178038Y-99000500D01*
X89178039Y-99000500D01*
X89321962Y-99000500D01*
X89321962Y-99000499D01*
X89460053Y-98959953D01*
X89581128Y-98882143D01*
X89675377Y-98773373D01*
X89718150Y-98679713D01*
X89763904Y-98626910D01*
X89830944Y-98607225D01*
X89865876Y-98612247D01*
X89901285Y-98622644D01*
X89928038Y-98630500D01*
X89928039Y-98630500D01*
X90071962Y-98630500D01*
X90071962Y-98630499D01*
X90210053Y-98589953D01*
X90331128Y-98512143D01*
X90425377Y-98403373D01*
X90472178Y-98300892D01*
X90517930Y-98248093D01*
X90584969Y-98228408D01*
X90619904Y-98233431D01*
X90678036Y-98250499D01*
X90678038Y-98250500D01*
X90678039Y-98250500D01*
X90821962Y-98250500D01*
X90821962Y-98250499D01*
X90960053Y-98209953D01*
X91081128Y-98132143D01*
X91175377Y-98023373D01*
X91235165Y-97892457D01*
X91242195Y-97843557D01*
X91271219Y-97780003D01*
X91329997Y-97742228D01*
X91399863Y-97742227D01*
X91428039Y-97750500D01*
X91428040Y-97750500D01*
X91571962Y-97750500D01*
X91571962Y-97750499D01*
X91710053Y-97709953D01*
X91831128Y-97632143D01*
X91925377Y-97523373D01*
X91985165Y-97392457D01*
X91992195Y-97343557D01*
X92021219Y-97280003D01*
X92079997Y-97242228D01*
X92149863Y-97242227D01*
X92178039Y-97250500D01*
X92178040Y-97250500D01*
X92321962Y-97250500D01*
X92321962Y-97250499D01*
X92460053Y-97209953D01*
X92581128Y-97132143D01*
X92675377Y-97023373D01*
X92735165Y-96892457D01*
X92742195Y-96843557D01*
X92771219Y-96780003D01*
X92829997Y-96742228D01*
X92899863Y-96742227D01*
X92928039Y-96750500D01*
X92928040Y-96750500D01*
X93071962Y-96750500D01*
X93071962Y-96750499D01*
X93210053Y-96709953D01*
X93331128Y-96632143D01*
X93425377Y-96523373D01*
X93485165Y-96392457D01*
X93505647Y-96250000D01*
X93485165Y-96107543D01*
X93425377Y-95976627D01*
X93331128Y-95867857D01*
X93331125Y-95867855D01*
X93324423Y-95862047D01*
X93325552Y-95860743D01*
X93286701Y-95815898D01*
X93275500Y-95764397D01*
X93275500Y-90965477D01*
X93295185Y-90898438D01*
X93311819Y-90877796D01*
X95777797Y-88411819D01*
X95839120Y-88378334D01*
X95865478Y-88375500D01*
X98454799Y-88375500D01*
X98454800Y-88375500D01*
X98556058Y-88333557D01*
X98633557Y-88256058D01*
X99877796Y-87011819D01*
X99939119Y-86978334D01*
X99965477Y-86975500D01*
X104354799Y-86975500D01*
X104354800Y-86975500D01*
X104456058Y-86933557D01*
X104533557Y-86856058D01*
X104533556Y-86856058D01*
X104592125Y-86797489D01*
X106433558Y-84956058D01*
X106433558Y-84956056D01*
X106433560Y-84956055D01*
X106454529Y-84905429D01*
X106475500Y-84854800D01*
X106475500Y-84745200D01*
X106475500Y-82845946D01*
X114649500Y-82845946D01*
X114649500Y-83154053D01*
X114649501Y-83154069D01*
X114689717Y-83459542D01*
X114769464Y-83757162D01*
X114887376Y-84041826D01*
X114887381Y-84041837D01*
X114961434Y-84170099D01*
X115041438Y-84308670D01*
X115041440Y-84308673D01*
X115041441Y-84308674D01*
X115229007Y-84553115D01*
X115229013Y-84553122D01*
X115446877Y-84770986D01*
X115446884Y-84770992D01*
X115552776Y-84852246D01*
X115691330Y-84958562D01*
X115862830Y-85057578D01*
X115958162Y-85112618D01*
X115958167Y-85112620D01*
X115958170Y-85112622D01*
X116242836Y-85230535D01*
X116540456Y-85310282D01*
X116845940Y-85350500D01*
X116845947Y-85350500D01*
X117154053Y-85350500D01*
X117154060Y-85350500D01*
X117459544Y-85310282D01*
X117757164Y-85230535D01*
X118041830Y-85112622D01*
X118308670Y-84958562D01*
X118553117Y-84770991D01*
X118770991Y-84553117D01*
X118958562Y-84308670D01*
X119112622Y-84041830D01*
X119230535Y-83757164D01*
X119310282Y-83459544D01*
X119350500Y-83154060D01*
X119350500Y-82845940D01*
X119310282Y-82540456D01*
X119230535Y-82242836D01*
X119112622Y-81958170D01*
X119112620Y-81958167D01*
X119112618Y-81958162D01*
X119031329Y-81817367D01*
X118958562Y-81691330D01*
X118770991Y-81446883D01*
X118770986Y-81446877D01*
X118553122Y-81229013D01*
X118553115Y-81229007D01*
X118308674Y-81041441D01*
X118308673Y-81041440D01*
X118308670Y-81041438D01*
X118166749Y-80959500D01*
X118041837Y-80887381D01*
X118041826Y-80887376D01*
X117757162Y-80769464D01*
X117459542Y-80689717D01*
X117154069Y-80649501D01*
X117154066Y-80649500D01*
X117154060Y-80649500D01*
X116845940Y-80649500D01*
X116845934Y-80649500D01*
X116845930Y-80649501D01*
X116540457Y-80689717D01*
X116242837Y-80769464D01*
X115958173Y-80887376D01*
X115958162Y-80887381D01*
X115691325Y-81041441D01*
X115446884Y-81229007D01*
X115446877Y-81229013D01*
X115229013Y-81446877D01*
X115229007Y-81446884D01*
X115041441Y-81691325D01*
X115041438Y-81691329D01*
X115041438Y-81691330D01*
X115031367Y-81708772D01*
X114887381Y-81958162D01*
X114887376Y-81958173D01*
X114769464Y-82242837D01*
X114689717Y-82540457D01*
X114649501Y-82845930D01*
X114649500Y-82845946D01*
X106475500Y-82845946D01*
X106475500Y-81945200D01*
X106433557Y-81843942D01*
X106433557Y-81843941D01*
X105591058Y-81001443D01*
X105561228Y-80989087D01*
X105561225Y-80989085D01*
X105561224Y-80989085D01*
X105489802Y-80959500D01*
X105489800Y-80959500D01*
X104917679Y-80959500D01*
X104850640Y-80939815D01*
X104804885Y-80887011D01*
X104799020Y-80871501D01*
X104785232Y-80826046D01*
X104687685Y-80643550D01*
X104635702Y-80580209D01*
X104556410Y-80483589D01*
X104396452Y-80352317D01*
X104396453Y-80352317D01*
X104396450Y-80352315D01*
X104213954Y-80254768D01*
X104015934Y-80194700D01*
X104015932Y-80194699D01*
X104015934Y-80194699D01*
X103810000Y-80174417D01*
X103604067Y-80194699D01*
X103406043Y-80254769D01*
X103295898Y-80313643D01*
X103223550Y-80352315D01*
X103223548Y-80352316D01*
X103223547Y-80352317D01*
X103063589Y-80483589D01*
X102932317Y-80643547D01*
X102932315Y-80643550D01*
X102893643Y-80715898D01*
X102834769Y-80826043D01*
X102774699Y-81024067D01*
X102754417Y-81230000D01*
X102774699Y-81435932D01*
X102797319Y-81510500D01*
X102834768Y-81633954D01*
X102931063Y-81814108D01*
X102932317Y-81816453D01*
X102940838Y-81826836D01*
X102968150Y-81891147D01*
X102956358Y-81960014D01*
X102909205Y-82011574D01*
X102844984Y-82029500D01*
X102515478Y-82029500D01*
X102448439Y-82009815D01*
X102427797Y-81993181D01*
X102248724Y-81814108D01*
X102215239Y-81752785D01*
X102220223Y-81683093D01*
X102227045Y-81667977D01*
X102245232Y-81633954D01*
X102305300Y-81435934D01*
X102325583Y-81230000D01*
X102305300Y-81024066D01*
X102245232Y-80826046D01*
X102147685Y-80643550D01*
X102095702Y-80580209D01*
X102016410Y-80483589D01*
X101856452Y-80352317D01*
X101856453Y-80352317D01*
X101856450Y-80352315D01*
X101673954Y-80254768D01*
X101475934Y-80194700D01*
X101475932Y-80194699D01*
X101475934Y-80194699D01*
X101270000Y-80174417D01*
X101064067Y-80194699D01*
X100866043Y-80254769D01*
X100755898Y-80313643D01*
X100683550Y-80352315D01*
X100683548Y-80352316D01*
X100683547Y-80352317D01*
X100523589Y-80483589D01*
X100392317Y-80643547D01*
X100392315Y-80643550D01*
X100353643Y-80715898D01*
X100294769Y-80826043D01*
X100234699Y-81024067D01*
X100214417Y-81230000D01*
X100234699Y-81435932D01*
X100257319Y-81510500D01*
X100294768Y-81633954D01*
X100392315Y-81816450D01*
X100393068Y-81817367D01*
X100523587Y-81976407D01*
X100523588Y-81976408D01*
X100523590Y-81976410D01*
X100683550Y-82107685D01*
X100683551Y-82107685D01*
X100685940Y-82109646D01*
X100725274Y-82167392D01*
X100727145Y-82237237D01*
X100690958Y-82297005D01*
X100628202Y-82327721D01*
X100607275Y-82329500D01*
X100270478Y-82329500D01*
X100203439Y-82309815D01*
X100182797Y-82293181D01*
X99706982Y-81817367D01*
X99673497Y-81756044D01*
X99678481Y-81686353D01*
X99685299Y-81671243D01*
X99705232Y-81633954D01*
X99765300Y-81435934D01*
X99785583Y-81230000D01*
X99765300Y-81024066D01*
X99705232Y-80826046D01*
X99607685Y-80643550D01*
X99555702Y-80580209D01*
X99476410Y-80483589D01*
X99316452Y-80352317D01*
X99316453Y-80352317D01*
X99316450Y-80352315D01*
X99133954Y-80254768D01*
X98935934Y-80194700D01*
X98935932Y-80194699D01*
X98935934Y-80194699D01*
X98730000Y-80174417D01*
X98524067Y-80194699D01*
X98326043Y-80254769D01*
X98215898Y-80313643D01*
X98143550Y-80352315D01*
X98143548Y-80352316D01*
X98143547Y-80352317D01*
X97983589Y-80483589D01*
X97852317Y-80643547D01*
X97852315Y-80643550D01*
X97813643Y-80715898D01*
X97754769Y-80826043D01*
X97694699Y-81024067D01*
X97674417Y-81230000D01*
X97694699Y-81435932D01*
X97717319Y-81510500D01*
X97754768Y-81633954D01*
X97852315Y-81816450D01*
X97853068Y-81817367D01*
X97983589Y-81976410D01*
X98080209Y-82055702D01*
X98143550Y-82107685D01*
X98326046Y-82205232D01*
X98524066Y-82265300D01*
X98524065Y-82265300D01*
X98542529Y-82267118D01*
X98730000Y-82285583D01*
X98935934Y-82265300D01*
X99133954Y-82205232D01*
X99171233Y-82185305D01*
X99239632Y-82171063D01*
X99304877Y-82196061D01*
X99317367Y-82206982D01*
X99948942Y-82838558D01*
X99948944Y-82838560D01*
X100027257Y-82870997D01*
X100050200Y-82880500D01*
X100378845Y-82880500D01*
X100445884Y-82900185D01*
X100491639Y-82952989D01*
X100501583Y-83022147D01*
X100474698Y-83083165D01*
X100392317Y-83183546D01*
X100294769Y-83366043D01*
X100234699Y-83564067D01*
X100214417Y-83770000D01*
X100234699Y-83975932D01*
X100234700Y-83975934D01*
X100294768Y-84173954D01*
X100392315Y-84356450D01*
X100392317Y-84356452D01*
X100523589Y-84516410D01*
X100601834Y-84580623D01*
X100683550Y-84647685D01*
X100866046Y-84745232D01*
X100882218Y-84750137D01*
X100940656Y-84788434D01*
X100969113Y-84852246D01*
X100958554Y-84921313D01*
X100933904Y-84956479D01*
X100702202Y-85188182D01*
X100640882Y-85221666D01*
X100614523Y-85224500D01*
X99130787Y-85224500D01*
X99063748Y-85204815D01*
X99017993Y-85152011D01*
X99008049Y-85082853D01*
X99014853Y-85058049D01*
X99015500Y-85054798D01*
X99015500Y-84873128D01*
X99035185Y-84806089D01*
X99087989Y-84760334D01*
X99103495Y-84754471D01*
X99133954Y-84745232D01*
X99316450Y-84647685D01*
X99476410Y-84516410D01*
X99607685Y-84356450D01*
X99705232Y-84173954D01*
X99765300Y-83975934D01*
X99785583Y-83770000D01*
X99765300Y-83564066D01*
X99705232Y-83366046D01*
X99607685Y-83183550D01*
X99525302Y-83083165D01*
X99476410Y-83023589D01*
X99358677Y-82926969D01*
X99316450Y-82892315D01*
X99133954Y-82794768D01*
X98935934Y-82734700D01*
X98935932Y-82734699D01*
X98935934Y-82734699D01*
X98730000Y-82714417D01*
X98524067Y-82734699D01*
X98326043Y-82794769D01*
X98215898Y-82853643D01*
X98143550Y-82892315D01*
X98143548Y-82892316D01*
X98143547Y-82892317D01*
X97983589Y-83023589D01*
X97876509Y-83154069D01*
X97852315Y-83183550D01*
X97780887Y-83317181D01*
X97773358Y-83331267D01*
X97724395Y-83381111D01*
X97656257Y-83396571D01*
X97590578Y-83372739D01*
X97548209Y-83317181D01*
X97540000Y-83272813D01*
X97540000Y-82872172D01*
X97539999Y-82872155D01*
X97533598Y-82812627D01*
X97533596Y-82812620D01*
X97483354Y-82677913D01*
X97483350Y-82677906D01*
X97397190Y-82562812D01*
X97397187Y-82562809D01*
X97282093Y-82476649D01*
X97282086Y-82476645D01*
X97147379Y-82426403D01*
X97147372Y-82426401D01*
X97087844Y-82420000D01*
X96687187Y-82420000D01*
X96620148Y-82400315D01*
X96574393Y-82347511D01*
X96564449Y-82278353D01*
X96593474Y-82214797D01*
X96628733Y-82186642D01*
X96776450Y-82107685D01*
X96936410Y-81976410D01*
X97067685Y-81816450D01*
X97165232Y-81633954D01*
X97225300Y-81435934D01*
X97245583Y-81230000D01*
X97225300Y-81024066D01*
X97165232Y-80826046D01*
X97067685Y-80643550D01*
X97015702Y-80580209D01*
X96936410Y-80483589D01*
X96776452Y-80352317D01*
X96776453Y-80352317D01*
X96776450Y-80352315D01*
X96593954Y-80254768D01*
X96395934Y-80194700D01*
X96395932Y-80194699D01*
X96395934Y-80194699D01*
X96190000Y-80174417D01*
X95984067Y-80194699D01*
X95786043Y-80254769D01*
X95675898Y-80313643D01*
X95603550Y-80352315D01*
X95603548Y-80352316D01*
X95603547Y-80352317D01*
X95443589Y-80483589D01*
X95312317Y-80643547D01*
X95312315Y-80643550D01*
X95285030Y-80694595D01*
X95245284Y-80768954D01*
X95196321Y-80818798D01*
X95135926Y-80834500D01*
X90225339Y-80834500D01*
X90225323Y-80834499D01*
X90217727Y-80834499D01*
X90112273Y-80834499D01*
X90044366Y-80852695D01*
X90010412Y-80861793D01*
X89919084Y-80914522D01*
X79512181Y-91321426D01*
X79450858Y-91354911D01*
X79381166Y-91349927D01*
X79325233Y-91308055D01*
X79300816Y-91242591D01*
X79300500Y-91233745D01*
X79300500Y-85502310D01*
X79300587Y-85497674D01*
X79307504Y-85312819D01*
X79317661Y-85041334D01*
X79318354Y-85032101D01*
X79324541Y-84977190D01*
X79369224Y-84580610D01*
X79370602Y-84571468D01*
X79455070Y-84125045D01*
X79457133Y-84116007D01*
X79549845Y-83770000D01*
X79574725Y-83677143D01*
X79577452Y-83668301D01*
X79727519Y-83239435D01*
X79730904Y-83230813D01*
X79764388Y-83154069D01*
X79898821Y-82845946D01*
X80649500Y-82845946D01*
X80649500Y-83154053D01*
X80649501Y-83154069D01*
X80689717Y-83459542D01*
X80769464Y-83757162D01*
X80887376Y-84041826D01*
X80887381Y-84041837D01*
X80961434Y-84170099D01*
X81041438Y-84308670D01*
X81041440Y-84308673D01*
X81041441Y-84308674D01*
X81229007Y-84553115D01*
X81229013Y-84553122D01*
X81446877Y-84770986D01*
X81446884Y-84770992D01*
X81552776Y-84852246D01*
X81691330Y-84958562D01*
X81862830Y-85057578D01*
X81958162Y-85112618D01*
X81958167Y-85112620D01*
X81958170Y-85112622D01*
X82242836Y-85230535D01*
X82540456Y-85310282D01*
X82845940Y-85350500D01*
X82845947Y-85350500D01*
X83154053Y-85350500D01*
X83154060Y-85350500D01*
X83459544Y-85310282D01*
X83757164Y-85230535D01*
X84041830Y-85112622D01*
X84308670Y-84958562D01*
X84553117Y-84770991D01*
X84770991Y-84553117D01*
X84958562Y-84308670D01*
X85112622Y-84041830D01*
X85230535Y-83757164D01*
X85310282Y-83459544D01*
X85350500Y-83154060D01*
X85350500Y-82845940D01*
X85310282Y-82540456D01*
X85230535Y-82242836D01*
X85112622Y-81958170D01*
X85112620Y-81958167D01*
X85112618Y-81958162D01*
X85031329Y-81817367D01*
X84958562Y-81691330D01*
X84770991Y-81446883D01*
X84770986Y-81446877D01*
X84553122Y-81229013D01*
X84553115Y-81229007D01*
X84308674Y-81041441D01*
X84308673Y-81041440D01*
X84308670Y-81041438D01*
X84166749Y-80959500D01*
X84041837Y-80887381D01*
X84041826Y-80887376D01*
X83757162Y-80769464D01*
X83459542Y-80689717D01*
X83154069Y-80649501D01*
X83154066Y-80649500D01*
X83154060Y-80649500D01*
X82845940Y-80649500D01*
X82845934Y-80649500D01*
X82845930Y-80649501D01*
X82540457Y-80689717D01*
X82242837Y-80769464D01*
X81958173Y-80887376D01*
X81958162Y-80887381D01*
X81691325Y-81041441D01*
X81446884Y-81229007D01*
X81446877Y-81229013D01*
X81229013Y-81446877D01*
X81229007Y-81446884D01*
X81041441Y-81691325D01*
X81041438Y-81691329D01*
X81041438Y-81691330D01*
X81031367Y-81708772D01*
X80887381Y-81958162D01*
X80887376Y-81958173D01*
X80769464Y-82242837D01*
X80689717Y-82540457D01*
X80649501Y-82845930D01*
X80649500Y-82845946D01*
X79898821Y-82845946D01*
X79912595Y-82814375D01*
X79916617Y-82806026D01*
X80128907Y-82404352D01*
X80133540Y-82396328D01*
X80195949Y-82297005D01*
X80375271Y-82011614D01*
X80380482Y-82003971D01*
X80650292Y-81638392D01*
X80656058Y-81631163D01*
X80684164Y-81598504D01*
X80952427Y-81286776D01*
X80958721Y-81279992D01*
X81279992Y-80958721D01*
X81286776Y-80952427D01*
X81423811Y-80834499D01*
X81631168Y-80656053D01*
X81638392Y-80650292D01*
X82003971Y-80380482D01*
X82011614Y-80375271D01*
X82396334Y-80133536D01*
X82404352Y-80128907D01*
X82806031Y-79916614D01*
X82814375Y-79912595D01*
X83230823Y-79730899D01*
X83239435Y-79727519D01*
X83668301Y-79577452D01*
X83677143Y-79574725D01*
X83922676Y-79508935D01*
X84116007Y-79457133D01*
X84125047Y-79455070D01*
X84571468Y-79370602D01*
X84580610Y-79369224D01*
X85032112Y-79318353D01*
X85041334Y-79317661D01*
X85497675Y-79300587D01*
X85502311Y-79300500D01*
X85547595Y-79300500D01*
X92960438Y-79300500D01*
X106960438Y-79300500D01*
X114452405Y-79300500D01*
X114497689Y-79300500D01*
X114502325Y-79300587D01*
G37*
G04 #@! TD.AperFunction*
M02*
