G04 #@! TF.GenerationSoftware,KiCad,Pcbnew,8.0.7*
G04 #@! TF.CreationDate,2025-03-19T21:21:16+01:00*
G04 #@! TF.ProjectId,RP2040_minimal_r2,52503230-3430-45f6-9d69-6e696d616c5f,REV2*
G04 #@! TF.SameCoordinates,Original*
G04 #@! TF.FileFunction,Paste,Top*
G04 #@! TF.FilePolarity,Positive*
%FSLAX46Y46*%
G04 Gerber Fmt 4.6, Leading zero omitted, Abs format (unit mm)*
G04 Created by KiCad (PCBNEW 8.0.7) date 2025-03-19 21:21:16*
%MOMM*%
%LPD*%
G01*
G04 APERTURE LIST*
G04 Aperture macros list*
%AMRoundRect*
0 Rectangle with rounded corners*
0 $1 Rounding radius*
0 $2 $3 $4 $5 $6 $7 $8 $9 X,Y pos of 4 corners*
0 Add a 4 corners polygon primitive as box body*
4,1,4,$2,$3,$4,$5,$6,$7,$8,$9,$2,$3,0*
0 Add four circle primitives for the rounded corners*
1,1,$1+$1,$2,$3*
1,1,$1+$1,$4,$5*
1,1,$1+$1,$6,$7*
1,1,$1+$1,$8,$9*
0 Add four rect primitives between the rounded corners*
20,1,$1+$1,$2,$3,$4,$5,0*
20,1,$1+$1,$4,$5,$6,$7,0*
20,1,$1+$1,$6,$7,$8,$9,0*
20,1,$1+$1,$8,$9,$2,$3,0*%
G04 Aperture macros list end*
%ADD10RoundRect,0.250000X-0.250000X-0.475000X0.250000X-0.475000X0.250000X0.475000X-0.250000X0.475000X0*%
%ADD11RoundRect,0.140000X0.170000X-0.140000X0.170000X0.140000X-0.170000X0.140000X-0.170000X-0.140000X0*%
%ADD12RoundRect,0.140000X0.140000X0.170000X-0.140000X0.170000X-0.140000X-0.170000X0.140000X-0.170000X0*%
%ADD13RoundRect,0.135000X0.135000X0.185000X-0.135000X0.185000X-0.135000X-0.185000X0.135000X-0.185000X0*%
%ADD14R,1.500000X2.000000*%
%ADD15R,3.800000X2.000000*%
%ADD16RoundRect,0.150000X-0.650000X-0.150000X0.650000X-0.150000X0.650000X0.150000X-0.650000X0.150000X0*%
%ADD17RoundRect,0.135000X0.185000X-0.135000X0.185000X0.135000X-0.185000X0.135000X-0.185000X-0.135000X0*%
%ADD18RoundRect,0.140000X-0.170000X0.140000X-0.170000X-0.140000X0.170000X-0.140000X0.170000X0.140000X0*%
%ADD19RoundRect,0.250000X-0.292217X-0.292217X0.292217X-0.292217X0.292217X0.292217X-0.292217X0.292217X0*%
%ADD20RoundRect,0.050000X-0.387500X-0.050000X0.387500X-0.050000X0.387500X0.050000X-0.387500X0.050000X0*%
%ADD21RoundRect,0.050000X-0.050000X-0.387500X0.050000X-0.387500X0.050000X0.387500X-0.050000X0.387500X0*%
%ADD22RoundRect,0.140000X-0.140000X-0.170000X0.140000X-0.170000X0.140000X0.170000X-0.140000X0.170000X0*%
%ADD23RoundRect,0.150000X0.150000X0.625000X-0.150000X0.625000X-0.150000X-0.625000X0.150000X-0.625000X0*%
%ADD24RoundRect,0.250000X0.350000X0.650000X-0.350000X0.650000X-0.350000X-0.650000X0.350000X-0.650000X0*%
%ADD25R,1.200000X1.400000*%
%ADD26RoundRect,0.135000X-0.185000X0.135000X-0.185000X-0.135000X0.185000X-0.135000X0.185000X0.135000X0*%
%ADD27RoundRect,0.218750X-0.256250X0.218750X-0.256250X-0.218750X0.256250X-0.218750X0.256250X0.218750X0*%
%ADD28RoundRect,0.225000X-0.225000X-0.250000X0.225000X-0.250000X0.225000X0.250000X-0.225000X0.250000X0*%
%ADD29RoundRect,0.150000X0.625000X-0.150000X0.625000X0.150000X-0.625000X0.150000X-0.625000X-0.150000X0*%
%ADD30RoundRect,0.250000X0.650000X-0.350000X0.650000X0.350000X-0.650000X0.350000X-0.650000X-0.350000X0*%
%ADD31RoundRect,0.150000X-0.625000X0.150000X-0.625000X-0.150000X0.625000X-0.150000X0.625000X0.150000X0*%
%ADD32RoundRect,0.250000X-0.650000X0.350000X-0.650000X-0.350000X0.650000X-0.350000X0.650000X0.350000X0*%
%ADD33R,0.750000X1.000000*%
%ADD34RoundRect,0.087500X-0.725000X-0.087500X0.725000X-0.087500X0.725000X0.087500X-0.725000X0.087500X0*%
%ADD35RoundRect,0.150000X-0.150000X-0.625000X0.150000X-0.625000X0.150000X0.625000X-0.150000X0.625000X0*%
%ADD36RoundRect,0.250000X-0.350000X-0.650000X0.350000X-0.650000X0.350000X0.650000X-0.350000X0.650000X0*%
G04 APERTURE END LIST*
D10*
X110450000Y-93600000D03*
X112350000Y-93600000D03*
D11*
X102700000Y-95380000D03*
X102700000Y-94420000D03*
X101700000Y-95380000D03*
X101700000Y-94420000D03*
D12*
X94095000Y-101200000D03*
X93135000Y-101200000D03*
X94615000Y-87000000D03*
X93655000Y-87000000D03*
D13*
X90010000Y-87500000D03*
X88990000Y-87500000D03*
D14*
X112800000Y-84900000D03*
X110500000Y-84900000D03*
D15*
X110500000Y-91200000D03*
D14*
X108200000Y-84900000D03*
D16*
X87400000Y-89095000D03*
X87400000Y-90365000D03*
X87400000Y-91635000D03*
X87400000Y-92905000D03*
X94600000Y-92905000D03*
X94600000Y-91635000D03*
X94600000Y-90365000D03*
X94600000Y-89095000D03*
D17*
X87500000Y-87010000D03*
X87500000Y-85990000D03*
D11*
X100600000Y-93000000D03*
X100600000Y-92040000D03*
D18*
X106500000Y-101290000D03*
X106500000Y-102250000D03*
X100381000Y-105770000D03*
X100381000Y-106730000D03*
X101500000Y-105770000D03*
X101500000Y-106730000D03*
D10*
X109250000Y-82400000D03*
X111150000Y-82400000D03*
D11*
X95200000Y-96460000D03*
X95200000Y-95500000D03*
X104800000Y-89545000D03*
X104800000Y-88585000D03*
D19*
X99362500Y-99362500D03*
X99362500Y-100637500D03*
X100637500Y-99362500D03*
X100637500Y-100637500D03*
D20*
X96562500Y-97400000D03*
X96562500Y-97800000D03*
X96562500Y-98200000D03*
X96562500Y-98600000D03*
X96562500Y-99000000D03*
X96562500Y-99400000D03*
X96562500Y-99800000D03*
X96562500Y-100200000D03*
X96562500Y-100600000D03*
X96562500Y-101000000D03*
X96562500Y-101400000D03*
X96562500Y-101800000D03*
X96562500Y-102200000D03*
X96562500Y-102600000D03*
D21*
X97400000Y-103437500D03*
X97800000Y-103437500D03*
X98200000Y-103437500D03*
X98600000Y-103437500D03*
X99000000Y-103437500D03*
X99400000Y-103437500D03*
X99800000Y-103437500D03*
X100200000Y-103437500D03*
X100600000Y-103437500D03*
X101000000Y-103437500D03*
X101400000Y-103437500D03*
X101800000Y-103437500D03*
X102200000Y-103437500D03*
X102600000Y-103437500D03*
D20*
X103437500Y-102600000D03*
X103437500Y-102200000D03*
X103437500Y-101800000D03*
X103437500Y-101400000D03*
X103437500Y-101000000D03*
X103437500Y-100600000D03*
X103437500Y-100200000D03*
X103437500Y-99800000D03*
X103437500Y-99400000D03*
X103437500Y-99000000D03*
X103437500Y-98600000D03*
X103437500Y-98200000D03*
X103437500Y-97800000D03*
X103437500Y-97400000D03*
D21*
X102600000Y-96562500D03*
X102200000Y-96562500D03*
X101800000Y-96562500D03*
X101400000Y-96562500D03*
X101000000Y-96562500D03*
X100600000Y-96562500D03*
X100200000Y-96562500D03*
X99800000Y-96562500D03*
X99400000Y-96562500D03*
X99000000Y-96562500D03*
X98600000Y-96562500D03*
X98200000Y-96562500D03*
X97800000Y-96562500D03*
X97400000Y-96562500D03*
D11*
X99600000Y-93000000D03*
X99600000Y-92040000D03*
D22*
X104640000Y-96900000D03*
X105600000Y-96900000D03*
D10*
X98200000Y-88200000D03*
X100100000Y-88200000D03*
D23*
X102500000Y-117175000D03*
X101500000Y-117175000D03*
X100500000Y-117175000D03*
X99500000Y-117175000D03*
X98500000Y-117175000D03*
X97500000Y-117175000D03*
D24*
X103800000Y-119700000D03*
X96200000Y-119700000D03*
D25*
X91950000Y-109800000D03*
X91950000Y-107600000D03*
X90250000Y-107600000D03*
X90250000Y-109800000D03*
D26*
X94000000Y-111690000D03*
X94000000Y-112710000D03*
D27*
X112000000Y-104450000D03*
X112000000Y-106025000D03*
D26*
X95000000Y-111690000D03*
X95000000Y-112710000D03*
D28*
X100150000Y-110100000D03*
X101700000Y-110100000D03*
D23*
X111000000Y-117175000D03*
X110000000Y-117175000D03*
X109000000Y-117175000D03*
D24*
X112300000Y-119700000D03*
X107700000Y-119700000D03*
D29*
X82825000Y-102500000D03*
X82825000Y-101500000D03*
X82825000Y-100500000D03*
X82825000Y-99500000D03*
X82825000Y-98500000D03*
X82825000Y-97500000D03*
D30*
X80300000Y-103800000D03*
X80300000Y-96200000D03*
D28*
X93625000Y-106500000D03*
X95175000Y-106500000D03*
D31*
X117175000Y-97500000D03*
X117175000Y-98500000D03*
X117175000Y-99500000D03*
X117175000Y-100500000D03*
X117175000Y-101500000D03*
X117175000Y-102500000D03*
D32*
X119700000Y-96200000D03*
X119700000Y-103800000D03*
D33*
X81000000Y-92400000D03*
X81000000Y-86400000D03*
X84500000Y-92400000D03*
X84500000Y-86400000D03*
D13*
X112400000Y-107537500D03*
X111380000Y-107537500D03*
D34*
X93987500Y-108200000D03*
X93987500Y-108700000D03*
X93987500Y-109200000D03*
X93987500Y-109700000D03*
X93987500Y-110200000D03*
X98212500Y-110200000D03*
X98212500Y-109700000D03*
X98212500Y-109200000D03*
X98212500Y-108700000D03*
X98212500Y-108200000D03*
D35*
X97500000Y-82825000D03*
X98500000Y-82825000D03*
X99500000Y-82825000D03*
X100500000Y-82825000D03*
X101500000Y-82825000D03*
X102500000Y-82825000D03*
D36*
X96200000Y-80300000D03*
X103800000Y-80300000D03*
M02*
