G04 #@! TF.GenerationSoftware,KiCad,Pcbnew,8.0.7*
G04 #@! TF.CreationDate,2025-03-19T21:21:16+01:00*
G04 #@! TF.ProjectId,RP2040_minimal_r2,52503230-3430-45f6-9d69-6e696d616c5f,REV2*
G04 #@! TF.SameCoordinates,Original*
G04 #@! TF.FileFunction,Legend,Top*
G04 #@! TF.FilePolarity,Positive*
%FSLAX46Y46*%
G04 Gerber Fmt 4.6, Leading zero omitted, Abs format (unit mm)*
G04 Created by KiCad (PCBNEW 8.0.7) date 2025-03-19 21:21:16*
%MOMM*%
%LPD*%
G01*
G04 APERTURE LIST*
G04 Aperture macros list*
%AMRoundRect*
0 Rectangle with rounded corners*
0 $1 Rounding radius*
0 $2 $3 $4 $5 $6 $7 $8 $9 X,Y pos of 4 corners*
0 Add a 4 corners polygon primitive as box body*
4,1,4,$2,$3,$4,$5,$6,$7,$8,$9,$2,$3,0*
0 Add four circle primitives for the rounded corners*
1,1,$1+$1,$2,$3*
1,1,$1+$1,$4,$5*
1,1,$1+$1,$6,$7*
1,1,$1+$1,$8,$9*
0 Add four rect primitives between the rounded corners*
20,1,$1+$1,$2,$3,$4,$5,0*
20,1,$1+$1,$4,$5,$6,$7,0*
20,1,$1+$1,$6,$7,$8,$9,0*
20,1,$1+$1,$8,$9,$2,$3,0*%
%AMHorizOval*
0 Thick line with rounded ends*
0 $1 width*
0 $2 $3 position (X,Y) of the first rounded end (center of the circle)*
0 $4 $5 position (X,Y) of the second rounded end (center of the circle)*
0 Add line between two ends*
20,1,$1,$2,$3,$4,$5,0*
0 Add two circle primitives to create the rounded ends*
1,1,$1,$2,$3*
1,1,$1,$4,$5*%
%AMRotRect*
0 Rectangle, with rotation*
0 The origin of the aperture is its center*
0 $1 length*
0 $2 width*
0 $3 Rotation angle, in degrees counterclockwise*
0 Add horizontal line*
21,1,$1,$2,0,0,$3*%
%AMFreePoly0*
4,1,19,0.500000,-0.750000,0.000000,-0.750000,0.000000,-0.744911,-0.071157,-0.744911,-0.207708,-0.704816,-0.327430,-0.627875,-0.420627,-0.520320,-0.479746,-0.390866,-0.500000,-0.250000,-0.500000,0.250000,-0.479746,0.390866,-0.420627,0.520320,-0.327430,0.627875,-0.207708,0.704816,-0.071157,0.744911,0.000000,0.744911,0.000000,0.750000,0.500000,0.750000,0.500000,-0.750000,0.500000,-0.750000,
$1*%
%AMFreePoly1*
4,1,19,0.000000,0.744911,0.071157,0.744911,0.207708,0.704816,0.327430,0.627875,0.420627,0.520320,0.479746,0.390866,0.500000,0.250000,0.500000,-0.250000,0.479746,-0.390866,0.420627,-0.520320,0.327430,-0.627875,0.207708,-0.704816,0.071157,-0.744911,0.000000,-0.744911,0.000000,-0.750000,-0.500000,-0.750000,-0.500000,0.750000,0.000000,0.750000,0.000000,0.744911,0.000000,0.744911,
$1*%
G04 Aperture macros list end*
%ADD10C,0.120000*%
%ADD11C,0.150000*%
%ADD12RoundRect,0.250000X-0.250000X-0.475000X0.250000X-0.475000X0.250000X0.475000X-0.250000X0.475000X0*%
%ADD13RoundRect,0.140000X0.170000X-0.140000X0.170000X0.140000X-0.170000X0.140000X-0.170000X-0.140000X0*%
%ADD14RoundRect,0.140000X0.140000X0.170000X-0.140000X0.170000X-0.140000X-0.170000X0.140000X-0.170000X0*%
%ADD15RoundRect,0.135000X0.135000X0.185000X-0.135000X0.185000X-0.135000X-0.185000X0.135000X-0.185000X0*%
%ADD16R,1.500000X2.000000*%
%ADD17R,3.800000X2.000000*%
%ADD18RoundRect,0.150000X-0.650000X-0.150000X0.650000X-0.150000X0.650000X0.150000X-0.650000X0.150000X0*%
%ADD19RoundRect,0.135000X0.185000X-0.135000X0.185000X0.135000X-0.185000X0.135000X-0.185000X-0.135000X0*%
%ADD20RoundRect,0.140000X-0.170000X0.140000X-0.170000X-0.140000X0.170000X-0.140000X0.170000X0.140000X0*%
%ADD21RoundRect,0.050000X-0.387500X-0.050000X0.387500X-0.050000X0.387500X0.050000X-0.387500X0.050000X0*%
%ADD22RoundRect,0.050000X-0.050000X-0.387500X0.050000X-0.387500X0.050000X0.387500X-0.050000X0.387500X0*%
%ADD23RoundRect,0.144000X-1.456000X-1.456000X1.456000X-1.456000X1.456000X1.456000X-1.456000X1.456000X0*%
%ADD24C,2.700000*%
%ADD25RoundRect,0.140000X-0.140000X-0.170000X0.140000X-0.170000X0.140000X0.170000X-0.140000X0.170000X0*%
%ADD26C,1.500000*%
%ADD27RoundRect,0.150000X0.150000X0.625000X-0.150000X0.625000X-0.150000X-0.625000X0.150000X-0.625000X0*%
%ADD28RoundRect,0.250000X0.350000X0.650000X-0.350000X0.650000X-0.350000X-0.650000X0.350000X-0.650000X0*%
%ADD29C,1.700000*%
%ADD30FreePoly0,180.000000*%
%ADD31FreePoly1,180.000000*%
%ADD32R,1.200000X1.400000*%
%ADD33RoundRect,0.135000X-0.185000X0.135000X-0.185000X-0.135000X0.185000X-0.135000X0.185000X0.135000X0*%
%ADD34RoundRect,0.218750X-0.256250X0.218750X-0.256250X-0.218750X0.256250X-0.218750X0.256250X0.218750X0*%
%ADD35R,1.000000X1.000000*%
%ADD36RoundRect,0.225000X-0.225000X-0.250000X0.225000X-0.250000X0.225000X0.250000X-0.225000X0.250000X0*%
%ADD37RoundRect,0.150000X0.625000X-0.150000X0.625000X0.150000X-0.625000X0.150000X-0.625000X-0.150000X0*%
%ADD38RoundRect,0.250000X0.650000X-0.350000X0.650000X0.350000X-0.650000X0.350000X-0.650000X-0.350000X0*%
%ADD39R,1.700000X1.700000*%
%ADD40O,1.700000X1.700000*%
%ADD41RoundRect,0.150000X-0.625000X0.150000X-0.625000X-0.150000X0.625000X-0.150000X0.625000X0.150000X0*%
%ADD42RoundRect,0.250000X-0.650000X0.350000X-0.650000X-0.350000X0.650000X-0.350000X0.650000X0.350000X0*%
%ADD43R,0.750000X1.000000*%
%ADD44RoundRect,0.087500X-0.725000X-0.087500X0.725000X-0.087500X0.725000X0.087500X-0.725000X0.087500X0*%
%ADD45RoundRect,0.150000X-0.150000X-0.625000X0.150000X-0.625000X0.150000X0.625000X-0.150000X0.625000X0*%
%ADD46RoundRect,0.250000X-0.350000X-0.650000X0.350000X-0.650000X0.350000X0.650000X-0.350000X0.650000X0*%
%ADD47RotRect,1.700000X1.700000X225.000000*%
%ADD48HorizOval,1.700000X0.000000X0.000000X0.000000X0.000000X0*%
%ADD49C,0.600000*%
G04 APERTURE END LIST*
D10*
X91300000Y-83900000D02*
X91800000Y-83900000D01*
X89750000Y-83500000D02*
X90250000Y-83500000D01*
X89750000Y-83000000D02*
X89750000Y-83500000D01*
X90250000Y-83500000D02*
X90250000Y-83000000D01*
X86750000Y-83500000D02*
X87250000Y-83500000D01*
D11*
X95900000Y-85600000D02*
X95100000Y-85400000D01*
X95900000Y-85200000D01*
X95900000Y-85600000D01*
D10*
X92250000Y-83500000D02*
X92250000Y-83000000D01*
D11*
X96900000Y-84600000D02*
X96500000Y-84600000D01*
X96700000Y-83800000D01*
X96900000Y-84600000D01*
G36*
X96900000Y-84600000D02*
G01*
X96500000Y-84600000D01*
X96700000Y-83800000D01*
X96900000Y-84600000D01*
G37*
D10*
X90800000Y-84400000D02*
X91300000Y-84400000D01*
X92300000Y-84400000D02*
X92300000Y-83900000D01*
X91250000Y-83500000D02*
X91250000Y-83000000D01*
X88700000Y-84400000D02*
X89200000Y-84400000D01*
X88750000Y-83500000D02*
X89250000Y-83500000D01*
D11*
X116200000Y-96700000D02*
X115400000Y-96900000D01*
X115400000Y-96500000D01*
X116200000Y-96700000D01*
G36*
X116200000Y-96700000D02*
G01*
X115400000Y-96900000D01*
X115400000Y-96500000D01*
X116200000Y-96700000D01*
G37*
D10*
X90200000Y-83900000D02*
X90700000Y-83900000D01*
X116200000Y-112800000D02*
X116200000Y-113000000D01*
X88250000Y-83000000D02*
X88750000Y-83000000D01*
D11*
X87000000Y-103300000D02*
X86200000Y-103500000D01*
X86200000Y-103100000D01*
X87000000Y-103300000D01*
D10*
X92750000Y-83000000D02*
X92750000Y-83500000D01*
X86750000Y-84400000D02*
X87100000Y-84400000D01*
X91750000Y-83000000D02*
X91750000Y-83500000D01*
X90750000Y-83500000D02*
X91250000Y-83500000D01*
X92300000Y-83900000D02*
X92800000Y-83900000D01*
X89250000Y-83500000D02*
X89250000Y-83000000D01*
X87600000Y-83900000D02*
X87600000Y-84400000D01*
X91250000Y-83000000D02*
X91750000Y-83000000D01*
X88600000Y-83900000D02*
X88600000Y-84400000D01*
X90250000Y-83000000D02*
X90750000Y-83000000D01*
X87100000Y-83900000D02*
X87600000Y-83900000D01*
X89700000Y-84400000D02*
X90200000Y-84400000D01*
X116075000Y-113400000D02*
X116325000Y-113400000D01*
D11*
X85600000Y-102500000D02*
X85200000Y-102500000D01*
X85400000Y-101700000D01*
X85600000Y-102500000D01*
D10*
X87250000Y-83000000D02*
X87750000Y-83000000D01*
X89200000Y-83900000D02*
X89700000Y-83900000D01*
X90750000Y-83000000D02*
X90750000Y-83500000D01*
D11*
X85400000Y-104900000D02*
X85200000Y-104100000D01*
X85600000Y-104100000D01*
X85400000Y-104900000D01*
D10*
X88750000Y-83000000D02*
X88750000Y-83500000D01*
X92250000Y-83000000D02*
X92750000Y-83000000D01*
X92800000Y-84400000D02*
X93300000Y-84400000D01*
X90700000Y-83900000D02*
X90700000Y-84400000D01*
D11*
X84600000Y-103500000D02*
X83800000Y-103300000D01*
X84600000Y-103100000D01*
X84600000Y-103500000D01*
G36*
X84600000Y-103500000D02*
G01*
X83800000Y-103300000D01*
X84600000Y-103100000D01*
X84600000Y-103500000D01*
G37*
D10*
X88250000Y-83500000D02*
X88250000Y-83000000D01*
D11*
X114600000Y-98300000D02*
X114400000Y-97500000D01*
X114800000Y-97500000D01*
X114600000Y-98300000D01*
X98300000Y-85400000D02*
X97500000Y-85600000D01*
X97500000Y-85200000D01*
X98300000Y-85400000D01*
D10*
X88700000Y-84400000D02*
X88600000Y-84400000D01*
D11*
X96700000Y-87000000D02*
X96500000Y-86200000D01*
X96900000Y-86200000D01*
X96700000Y-87000000D01*
D10*
X89700000Y-83900000D02*
X89700000Y-84400000D01*
X87600000Y-84400000D02*
X88100000Y-84400000D01*
X91750000Y-83500000D02*
X92250000Y-83500000D01*
X116200000Y-113000000D02*
X115700000Y-113000000D01*
X116200000Y-113000000D02*
X116700000Y-113000000D01*
X89250000Y-83000000D02*
X89750000Y-83000000D01*
X87250000Y-83500000D02*
X87250000Y-83000000D01*
X91800000Y-84400000D02*
X92300000Y-84400000D01*
X87750000Y-83500000D02*
X88250000Y-83500000D01*
D11*
X114800000Y-95900000D02*
X114400000Y-95900000D01*
X114600000Y-95100000D01*
X114800000Y-95900000D01*
D10*
X92750000Y-83500000D02*
X93250000Y-83500000D01*
X89200000Y-84400000D02*
X89200000Y-83900000D01*
D11*
X102500000Y-114800000D02*
X101700000Y-114600000D01*
X102500000Y-114400000D01*
X102500000Y-114800000D01*
D10*
X87100000Y-84400000D02*
X87100000Y-83900000D01*
X92800000Y-83900000D02*
X92800000Y-84400000D01*
X88100000Y-84400000D02*
X88100000Y-83900000D01*
X115850000Y-113200000D02*
X116550000Y-113200000D01*
D11*
X103300000Y-116200000D02*
X103100000Y-115400000D01*
X103500000Y-115400000D01*
X103300000Y-116200000D01*
G36*
X103300000Y-116200000D02*
G01*
X103100000Y-115400000D01*
X103500000Y-115400000D01*
X103300000Y-116200000D01*
G37*
D10*
X91800000Y-83900000D02*
X91800000Y-84400000D01*
D11*
X104900000Y-114600000D02*
X104100000Y-114800000D01*
X104100000Y-114400000D01*
X104900000Y-114600000D01*
X113800000Y-96900000D02*
X113000000Y-96700000D01*
X113800000Y-96500000D01*
X113800000Y-96900000D01*
X103500000Y-113800000D02*
X103100000Y-113800000D01*
X103300000Y-113000000D01*
X103500000Y-113800000D01*
D10*
X90800000Y-84400000D02*
X90700000Y-84400000D01*
X90200000Y-84400000D02*
X90200000Y-83900000D01*
X91300000Y-84400000D02*
X91300000Y-83900000D01*
X87750000Y-83000000D02*
X87750000Y-83500000D01*
X88100000Y-83900000D02*
X88600000Y-83900000D01*
D11*
X98494295Y-112742856D02*
X98113342Y-112942856D01*
X98494295Y-113085713D02*
X97694295Y-113085713D01*
X97694295Y-113085713D02*
X97694295Y-112857142D01*
X97694295Y-112857142D02*
X97732390Y-112799999D01*
X97732390Y-112799999D02*
X97770485Y-112771428D01*
X97770485Y-112771428D02*
X97846676Y-112742856D01*
X97846676Y-112742856D02*
X97960961Y-112742856D01*
X97960961Y-112742856D02*
X98037152Y-112771428D01*
X98037152Y-112771428D02*
X98075247Y-112799999D01*
X98075247Y-112799999D02*
X98113342Y-112857142D01*
X98113342Y-112857142D02*
X98113342Y-113085713D01*
X97694295Y-112485713D02*
X98341914Y-112485713D01*
X98341914Y-112485713D02*
X98418104Y-112457142D01*
X98418104Y-112457142D02*
X98456200Y-112428571D01*
X98456200Y-112428571D02*
X98494295Y-112371428D01*
X98494295Y-112371428D02*
X98494295Y-112257142D01*
X98494295Y-112257142D02*
X98456200Y-112199999D01*
X98456200Y-112199999D02*
X98418104Y-112171428D01*
X98418104Y-112171428D02*
X98341914Y-112142856D01*
X98341914Y-112142856D02*
X97694295Y-112142856D01*
X98494295Y-111857142D02*
X97694295Y-111857142D01*
X97694295Y-111857142D02*
X98494295Y-111514285D01*
X98494295Y-111514285D02*
X97694295Y-111514285D01*
X86412969Y-117056200D02*
X86498684Y-117094295D01*
X86498684Y-117094295D02*
X86641541Y-117094295D01*
X86641541Y-117094295D02*
X86698684Y-117056200D01*
X86698684Y-117056200D02*
X86727255Y-117018104D01*
X86727255Y-117018104D02*
X86755826Y-116941914D01*
X86755826Y-116941914D02*
X86755826Y-116865723D01*
X86755826Y-116865723D02*
X86727255Y-116789533D01*
X86727255Y-116789533D02*
X86698684Y-116751438D01*
X86698684Y-116751438D02*
X86641541Y-116713342D01*
X86641541Y-116713342D02*
X86527255Y-116675247D01*
X86527255Y-116675247D02*
X86470112Y-116637152D01*
X86470112Y-116637152D02*
X86441541Y-116599057D01*
X86441541Y-116599057D02*
X86412969Y-116522866D01*
X86412969Y-116522866D02*
X86412969Y-116446676D01*
X86412969Y-116446676D02*
X86441541Y-116370485D01*
X86441541Y-116370485D02*
X86470112Y-116332390D01*
X86470112Y-116332390D02*
X86527255Y-116294295D01*
X86527255Y-116294295D02*
X86670112Y-116294295D01*
X86670112Y-116294295D02*
X86755826Y-116332390D01*
X87012970Y-117094295D02*
X87012970Y-116294295D01*
X87155827Y-117170485D02*
X87612969Y-117170485D01*
X88098684Y-117018104D02*
X88070112Y-117056200D01*
X88070112Y-117056200D02*
X87984398Y-117094295D01*
X87984398Y-117094295D02*
X87927255Y-117094295D01*
X87927255Y-117094295D02*
X87841541Y-117056200D01*
X87841541Y-117056200D02*
X87784398Y-116980009D01*
X87784398Y-116980009D02*
X87755827Y-116903819D01*
X87755827Y-116903819D02*
X87727255Y-116751438D01*
X87727255Y-116751438D02*
X87727255Y-116637152D01*
X87727255Y-116637152D02*
X87755827Y-116484771D01*
X87755827Y-116484771D02*
X87784398Y-116408580D01*
X87784398Y-116408580D02*
X87841541Y-116332390D01*
X87841541Y-116332390D02*
X87927255Y-116294295D01*
X87927255Y-116294295D02*
X87984398Y-116294295D01*
X87984398Y-116294295D02*
X88070112Y-116332390D01*
X88070112Y-116332390D02*
X88098684Y-116370485D01*
X88641541Y-117094295D02*
X88355827Y-117094295D01*
X88355827Y-117094295D02*
X88355827Y-116294295D01*
X88841541Y-117094295D02*
X88841541Y-116294295D01*
X89184398Y-117094295D02*
X88927255Y-116637152D01*
X89184398Y-116294295D02*
X88841541Y-116751438D01*
X89412969Y-116370485D02*
X89441541Y-116332390D01*
X89441541Y-116332390D02*
X89498684Y-116294295D01*
X89498684Y-116294295D02*
X89641541Y-116294295D01*
X89641541Y-116294295D02*
X89698684Y-116332390D01*
X89698684Y-116332390D02*
X89727255Y-116370485D01*
X89727255Y-116370485D02*
X89755826Y-116446676D01*
X89755826Y-116446676D02*
X89755826Y-116522866D01*
X89755826Y-116522866D02*
X89727255Y-116637152D01*
X89727255Y-116637152D02*
X89384398Y-117094295D01*
X89384398Y-117094295D02*
X89755826Y-117094295D01*
X112812969Y-113556200D02*
X112898684Y-113594295D01*
X112898684Y-113594295D02*
X113041541Y-113594295D01*
X113041541Y-113594295D02*
X113098684Y-113556200D01*
X113098684Y-113556200D02*
X113127255Y-113518104D01*
X113127255Y-113518104D02*
X113155826Y-113441914D01*
X113155826Y-113441914D02*
X113155826Y-113365723D01*
X113155826Y-113365723D02*
X113127255Y-113289533D01*
X113127255Y-113289533D02*
X113098684Y-113251438D01*
X113098684Y-113251438D02*
X113041541Y-113213342D01*
X113041541Y-113213342D02*
X112927255Y-113175247D01*
X112927255Y-113175247D02*
X112870112Y-113137152D01*
X112870112Y-113137152D02*
X112841541Y-113099057D01*
X112841541Y-113099057D02*
X112812969Y-113022866D01*
X112812969Y-113022866D02*
X112812969Y-112946676D01*
X112812969Y-112946676D02*
X112841541Y-112870485D01*
X112841541Y-112870485D02*
X112870112Y-112832390D01*
X112870112Y-112832390D02*
X112927255Y-112794295D01*
X112927255Y-112794295D02*
X113070112Y-112794295D01*
X113070112Y-112794295D02*
X113155826Y-112832390D01*
X113355827Y-112794295D02*
X113498684Y-113594295D01*
X113498684Y-113594295D02*
X113612970Y-113022866D01*
X113612970Y-113022866D02*
X113727255Y-113594295D01*
X113727255Y-113594295D02*
X113870113Y-112794295D01*
X114098684Y-113594295D02*
X114098684Y-112794295D01*
X114098684Y-112794295D02*
X114241541Y-112794295D01*
X114241541Y-112794295D02*
X114327255Y-112832390D01*
X114327255Y-112832390D02*
X114384398Y-112908580D01*
X114384398Y-112908580D02*
X114412969Y-112984771D01*
X114412969Y-112984771D02*
X114441541Y-113137152D01*
X114441541Y-113137152D02*
X114441541Y-113251438D01*
X114441541Y-113251438D02*
X114412969Y-113403819D01*
X114412969Y-113403819D02*
X114384398Y-113480009D01*
X114384398Y-113480009D02*
X114327255Y-113556200D01*
X114327255Y-113556200D02*
X114241541Y-113594295D01*
X114241541Y-113594295D02*
X114098684Y-113594295D01*
X118384398Y-113518104D02*
X118355826Y-113556200D01*
X118355826Y-113556200D02*
X118270112Y-113594295D01*
X118270112Y-113594295D02*
X118212969Y-113594295D01*
X118212969Y-113594295D02*
X118127255Y-113556200D01*
X118127255Y-113556200D02*
X118070112Y-113480009D01*
X118070112Y-113480009D02*
X118041541Y-113403819D01*
X118041541Y-113403819D02*
X118012969Y-113251438D01*
X118012969Y-113251438D02*
X118012969Y-113137152D01*
X118012969Y-113137152D02*
X118041541Y-112984771D01*
X118041541Y-112984771D02*
X118070112Y-112908580D01*
X118070112Y-112908580D02*
X118127255Y-112832390D01*
X118127255Y-112832390D02*
X118212969Y-112794295D01*
X118212969Y-112794295D02*
X118270112Y-112794295D01*
X118270112Y-112794295D02*
X118355826Y-112832390D01*
X118355826Y-112832390D02*
X118384398Y-112870485D01*
X118927255Y-113594295D02*
X118641541Y-113594295D01*
X118641541Y-113594295D02*
X118641541Y-112794295D01*
X119127255Y-113594295D02*
X119127255Y-112794295D01*
X119470112Y-113594295D02*
X119212969Y-113137152D01*
X119470112Y-112794295D02*
X119127255Y-113251438D01*
X118342857Y-89732390D02*
X118285715Y-89694295D01*
X118285715Y-89694295D02*
X118200000Y-89694295D01*
X118200000Y-89694295D02*
X118114286Y-89732390D01*
X118114286Y-89732390D02*
X118057143Y-89808580D01*
X118057143Y-89808580D02*
X118028572Y-89884771D01*
X118028572Y-89884771D02*
X118000000Y-90037152D01*
X118000000Y-90037152D02*
X118000000Y-90151438D01*
X118000000Y-90151438D02*
X118028572Y-90303819D01*
X118028572Y-90303819D02*
X118057143Y-90380009D01*
X118057143Y-90380009D02*
X118114286Y-90456200D01*
X118114286Y-90456200D02*
X118200000Y-90494295D01*
X118200000Y-90494295D02*
X118257143Y-90494295D01*
X118257143Y-90494295D02*
X118342857Y-90456200D01*
X118342857Y-90456200D02*
X118371429Y-90418104D01*
X118371429Y-90418104D02*
X118371429Y-90151438D01*
X118371429Y-90151438D02*
X118257143Y-90151438D01*
X118628572Y-90494295D02*
X118628572Y-89694295D01*
X118628572Y-89694295D02*
X118971429Y-90494295D01*
X118971429Y-90494295D02*
X118971429Y-89694295D01*
X119257143Y-90494295D02*
X119257143Y-89694295D01*
X119257143Y-89694295D02*
X119400000Y-89694295D01*
X119400000Y-89694295D02*
X119485714Y-89732390D01*
X119485714Y-89732390D02*
X119542857Y-89808580D01*
X119542857Y-89808580D02*
X119571428Y-89884771D01*
X119571428Y-89884771D02*
X119600000Y-90037152D01*
X119600000Y-90037152D02*
X119600000Y-90151438D01*
X119600000Y-90151438D02*
X119571428Y-90303819D01*
X119571428Y-90303819D02*
X119542857Y-90380009D01*
X119542857Y-90380009D02*
X119485714Y-90456200D01*
X119485714Y-90456200D02*
X119400000Y-90494295D01*
X119400000Y-90494295D02*
X119257143Y-90494295D01*
X86736779Y-80859875D02*
X86736779Y-80193208D01*
X86736779Y-80288446D02*
X86784398Y-80240827D01*
X86784398Y-80240827D02*
X86879636Y-80193208D01*
X86879636Y-80193208D02*
X87022493Y-80193208D01*
X87022493Y-80193208D02*
X87117731Y-80240827D01*
X87117731Y-80240827D02*
X87165350Y-80336065D01*
X87165350Y-80336065D02*
X87165350Y-80859875D01*
X87165350Y-80336065D02*
X87212969Y-80240827D01*
X87212969Y-80240827D02*
X87308207Y-80193208D01*
X87308207Y-80193208D02*
X87451064Y-80193208D01*
X87451064Y-80193208D02*
X87546303Y-80240827D01*
X87546303Y-80240827D02*
X87593922Y-80336065D01*
X87593922Y-80336065D02*
X87593922Y-80859875D01*
X88070112Y-80859875D02*
X88070112Y-80193208D01*
X88070112Y-79859875D02*
X88022493Y-79907494D01*
X88022493Y-79907494D02*
X88070112Y-79955113D01*
X88070112Y-79955113D02*
X88117731Y-79907494D01*
X88117731Y-79907494D02*
X88070112Y-79859875D01*
X88070112Y-79859875D02*
X88070112Y-79955113D01*
X88546302Y-80193208D02*
X88546302Y-80859875D01*
X88546302Y-80288446D02*
X88593921Y-80240827D01*
X88593921Y-80240827D02*
X88689159Y-80193208D01*
X88689159Y-80193208D02*
X88832016Y-80193208D01*
X88832016Y-80193208D02*
X88927254Y-80240827D01*
X88927254Y-80240827D02*
X88974873Y-80336065D01*
X88974873Y-80336065D02*
X88974873Y-80859875D01*
X89403445Y-80812256D02*
X89498683Y-80859875D01*
X89498683Y-80859875D02*
X89689159Y-80859875D01*
X89689159Y-80859875D02*
X89784397Y-80812256D01*
X89784397Y-80812256D02*
X89832016Y-80717017D01*
X89832016Y-80717017D02*
X89832016Y-80669398D01*
X89832016Y-80669398D02*
X89784397Y-80574160D01*
X89784397Y-80574160D02*
X89689159Y-80526541D01*
X89689159Y-80526541D02*
X89546302Y-80526541D01*
X89546302Y-80526541D02*
X89451064Y-80478922D01*
X89451064Y-80478922D02*
X89403445Y-80383684D01*
X89403445Y-80383684D02*
X89403445Y-80336065D01*
X89403445Y-80336065D02*
X89451064Y-80240827D01*
X89451064Y-80240827D02*
X89546302Y-80193208D01*
X89546302Y-80193208D02*
X89689159Y-80193208D01*
X89689159Y-80193208D02*
X89784397Y-80240827D01*
X90165350Y-80193208D02*
X90403445Y-80859875D01*
X90641540Y-80193208D02*
X90403445Y-80859875D01*
X90403445Y-80859875D02*
X90308207Y-81097970D01*
X90308207Y-81097970D02*
X90260588Y-81145589D01*
X90260588Y-81145589D02*
X90165350Y-81193208D01*
X91022493Y-80193208D02*
X91022493Y-80859875D01*
X91022493Y-80288446D02*
X91070112Y-80240827D01*
X91070112Y-80240827D02*
X91165350Y-80193208D01*
X91165350Y-80193208D02*
X91308207Y-80193208D01*
X91308207Y-80193208D02*
X91403445Y-80240827D01*
X91403445Y-80240827D02*
X91451064Y-80336065D01*
X91451064Y-80336065D02*
X91451064Y-80859875D01*
X92355826Y-80812256D02*
X92260588Y-80859875D01*
X92260588Y-80859875D02*
X92070112Y-80859875D01*
X92070112Y-80859875D02*
X91974874Y-80812256D01*
X91974874Y-80812256D02*
X91927255Y-80764636D01*
X91927255Y-80764636D02*
X91879636Y-80669398D01*
X91879636Y-80669398D02*
X91879636Y-80383684D01*
X91879636Y-80383684D02*
X91927255Y-80288446D01*
X91927255Y-80288446D02*
X91974874Y-80240827D01*
X91974874Y-80240827D02*
X92070112Y-80193208D01*
X92070112Y-80193208D02*
X92260588Y-80193208D01*
X92260588Y-80193208D02*
X92355826Y-80240827D01*
X86641541Y-81803152D02*
X86879636Y-82469819D01*
X86879636Y-82469819D02*
X87117731Y-81803152D01*
X87689160Y-81469819D02*
X87784398Y-81469819D01*
X87784398Y-81469819D02*
X87879636Y-81517438D01*
X87879636Y-81517438D02*
X87927255Y-81565057D01*
X87927255Y-81565057D02*
X87974874Y-81660295D01*
X87974874Y-81660295D02*
X88022493Y-81850771D01*
X88022493Y-81850771D02*
X88022493Y-82088866D01*
X88022493Y-82088866D02*
X87974874Y-82279342D01*
X87974874Y-82279342D02*
X87927255Y-82374580D01*
X87927255Y-82374580D02*
X87879636Y-82422200D01*
X87879636Y-82422200D02*
X87784398Y-82469819D01*
X87784398Y-82469819D02*
X87689160Y-82469819D01*
X87689160Y-82469819D02*
X87593922Y-82422200D01*
X87593922Y-82422200D02*
X87546303Y-82374580D01*
X87546303Y-82374580D02*
X87498684Y-82279342D01*
X87498684Y-82279342D02*
X87451065Y-82088866D01*
X87451065Y-82088866D02*
X87451065Y-81850771D01*
X87451065Y-81850771D02*
X87498684Y-81660295D01*
X87498684Y-81660295D02*
X87546303Y-81565057D01*
X87546303Y-81565057D02*
X87593922Y-81517438D01*
X87593922Y-81517438D02*
X87689160Y-81469819D01*
X88451065Y-82374580D02*
X88498684Y-82422200D01*
X88498684Y-82422200D02*
X88451065Y-82469819D01*
X88451065Y-82469819D02*
X88403446Y-82422200D01*
X88403446Y-82422200D02*
X88451065Y-82374580D01*
X88451065Y-82374580D02*
X88451065Y-82469819D01*
X88879636Y-81565057D02*
X88927255Y-81517438D01*
X88927255Y-81517438D02*
X89022493Y-81469819D01*
X89022493Y-81469819D02*
X89260588Y-81469819D01*
X89260588Y-81469819D02*
X89355826Y-81517438D01*
X89355826Y-81517438D02*
X89403445Y-81565057D01*
X89403445Y-81565057D02*
X89451064Y-81660295D01*
X89451064Y-81660295D02*
X89451064Y-81755533D01*
X89451064Y-81755533D02*
X89403445Y-81898390D01*
X89403445Y-81898390D02*
X88832017Y-82469819D01*
X88832017Y-82469819D02*
X89451064Y-82469819D01*
X96436779Y-85869819D02*
X96436779Y-84869819D01*
X96436779Y-84869819D02*
X97008207Y-85869819D01*
X97008207Y-85869819D02*
X97008207Y-84869819D01*
X103039160Y-115072200D02*
X103182017Y-115119819D01*
X103182017Y-115119819D02*
X103420112Y-115119819D01*
X103420112Y-115119819D02*
X103515350Y-115072200D01*
X103515350Y-115072200D02*
X103562969Y-115024580D01*
X103562969Y-115024580D02*
X103610588Y-114929342D01*
X103610588Y-114929342D02*
X103610588Y-114834104D01*
X103610588Y-114834104D02*
X103562969Y-114738866D01*
X103562969Y-114738866D02*
X103515350Y-114691247D01*
X103515350Y-114691247D02*
X103420112Y-114643628D01*
X103420112Y-114643628D02*
X103229636Y-114596009D01*
X103229636Y-114596009D02*
X103134398Y-114548390D01*
X103134398Y-114548390D02*
X103086779Y-114500771D01*
X103086779Y-114500771D02*
X103039160Y-114405533D01*
X103039160Y-114405533D02*
X103039160Y-114310295D01*
X103039160Y-114310295D02*
X103086779Y-114215057D01*
X103086779Y-114215057D02*
X103134398Y-114167438D01*
X103134398Y-114167438D02*
X103229636Y-114119819D01*
X103229636Y-114119819D02*
X103467731Y-114119819D01*
X103467731Y-114119819D02*
X103610588Y-114167438D01*
X114191541Y-96219819D02*
X114429636Y-97219819D01*
X114429636Y-97219819D02*
X114620112Y-96505533D01*
X114620112Y-96505533D02*
X114810588Y-97219819D01*
X114810588Y-97219819D02*
X115048684Y-96219819D01*
X108657143Y-115694295D02*
X108657143Y-114894295D01*
X108657143Y-114894295D02*
X108800000Y-114894295D01*
X108800000Y-114894295D02*
X108885714Y-114932390D01*
X108885714Y-114932390D02*
X108942857Y-115008580D01*
X108942857Y-115008580D02*
X108971428Y-115084771D01*
X108971428Y-115084771D02*
X109000000Y-115237152D01*
X109000000Y-115237152D02*
X109000000Y-115351438D01*
X109000000Y-115351438D02*
X108971428Y-115503819D01*
X108971428Y-115503819D02*
X108942857Y-115580009D01*
X108942857Y-115580009D02*
X108885714Y-115656200D01*
X108885714Y-115656200D02*
X108800000Y-115694295D01*
X108800000Y-115694295D02*
X108657143Y-115694295D01*
X109257143Y-115275247D02*
X109457143Y-115275247D01*
X109542857Y-115694295D02*
X109257143Y-115694295D01*
X109257143Y-115694295D02*
X109257143Y-114894295D01*
X109257143Y-114894295D02*
X109542857Y-114894295D01*
X110000000Y-115275247D02*
X110085714Y-115313342D01*
X110085714Y-115313342D02*
X110114285Y-115351438D01*
X110114285Y-115351438D02*
X110142857Y-115427628D01*
X110142857Y-115427628D02*
X110142857Y-115541914D01*
X110142857Y-115541914D02*
X110114285Y-115618104D01*
X110114285Y-115618104D02*
X110085714Y-115656200D01*
X110085714Y-115656200D02*
X110028571Y-115694295D01*
X110028571Y-115694295D02*
X109800000Y-115694295D01*
X109800000Y-115694295D02*
X109800000Y-114894295D01*
X109800000Y-114894295D02*
X110000000Y-114894295D01*
X110000000Y-114894295D02*
X110057143Y-114932390D01*
X110057143Y-114932390D02*
X110085714Y-114970485D01*
X110085714Y-114970485D02*
X110114285Y-115046676D01*
X110114285Y-115046676D02*
X110114285Y-115122866D01*
X110114285Y-115122866D02*
X110085714Y-115199057D01*
X110085714Y-115199057D02*
X110057143Y-115237152D01*
X110057143Y-115237152D02*
X110000000Y-115275247D01*
X110000000Y-115275247D02*
X109800000Y-115275247D01*
X110400000Y-114894295D02*
X110400000Y-115541914D01*
X110400000Y-115541914D02*
X110428571Y-115618104D01*
X110428571Y-115618104D02*
X110457143Y-115656200D01*
X110457143Y-115656200D02*
X110514285Y-115694295D01*
X110514285Y-115694295D02*
X110628571Y-115694295D01*
X110628571Y-115694295D02*
X110685714Y-115656200D01*
X110685714Y-115656200D02*
X110714285Y-115618104D01*
X110714285Y-115618104D02*
X110742857Y-115541914D01*
X110742857Y-115541914D02*
X110742857Y-114894295D01*
X111342856Y-114932390D02*
X111285714Y-114894295D01*
X111285714Y-114894295D02*
X111199999Y-114894295D01*
X111199999Y-114894295D02*
X111114285Y-114932390D01*
X111114285Y-114932390D02*
X111057142Y-115008580D01*
X111057142Y-115008580D02*
X111028571Y-115084771D01*
X111028571Y-115084771D02*
X110999999Y-115237152D01*
X110999999Y-115237152D02*
X110999999Y-115351438D01*
X110999999Y-115351438D02*
X111028571Y-115503819D01*
X111028571Y-115503819D02*
X111057142Y-115580009D01*
X111057142Y-115580009D02*
X111114285Y-115656200D01*
X111114285Y-115656200D02*
X111199999Y-115694295D01*
X111199999Y-115694295D02*
X111257142Y-115694295D01*
X111257142Y-115694295D02*
X111342856Y-115656200D01*
X111342856Y-115656200D02*
X111371428Y-115618104D01*
X111371428Y-115618104D02*
X111371428Y-115351438D01*
X111371428Y-115351438D02*
X111257142Y-115351438D01*
X115328571Y-90189533D02*
X115785714Y-90189533D01*
X115557142Y-90494295D02*
X115557142Y-89884771D01*
X116357142Y-89694295D02*
X116071428Y-89694295D01*
X116071428Y-89694295D02*
X116042856Y-90075247D01*
X116042856Y-90075247D02*
X116071428Y-90037152D01*
X116071428Y-90037152D02*
X116128571Y-89999057D01*
X116128571Y-89999057D02*
X116271428Y-89999057D01*
X116271428Y-89999057D02*
X116328571Y-90037152D01*
X116328571Y-90037152D02*
X116357142Y-90075247D01*
X116357142Y-90075247D02*
X116385713Y-90151438D01*
X116385713Y-90151438D02*
X116385713Y-90341914D01*
X116385713Y-90341914D02*
X116357142Y-90418104D01*
X116357142Y-90418104D02*
X116328571Y-90456200D01*
X116328571Y-90456200D02*
X116271428Y-90494295D01*
X116271428Y-90494295D02*
X116128571Y-90494295D01*
X116128571Y-90494295D02*
X116071428Y-90456200D01*
X116071428Y-90456200D02*
X116042856Y-90418104D01*
X116557142Y-89694295D02*
X116757142Y-90494295D01*
X116757142Y-90494295D02*
X116957142Y-89694295D01*
X85186779Y-103296009D02*
X85520112Y-103296009D01*
X85662969Y-103819819D02*
X85186779Y-103819819D01*
X85186779Y-103819819D02*
X85186779Y-102819819D01*
X85186779Y-102819819D02*
X85662969Y-102819819D01*
X116632390Y-108244173D02*
X116594295Y-108301316D01*
X116594295Y-108301316D02*
X116594295Y-108387030D01*
X116594295Y-108387030D02*
X116632390Y-108472744D01*
X116632390Y-108472744D02*
X116708580Y-108529887D01*
X116708580Y-108529887D02*
X116784771Y-108558458D01*
X116784771Y-108558458D02*
X116937152Y-108587030D01*
X116937152Y-108587030D02*
X117051438Y-108587030D01*
X117051438Y-108587030D02*
X117203819Y-108558458D01*
X117203819Y-108558458D02*
X117280009Y-108529887D01*
X117280009Y-108529887D02*
X117356200Y-108472744D01*
X117356200Y-108472744D02*
X117394295Y-108387030D01*
X117394295Y-108387030D02*
X117394295Y-108329887D01*
X117394295Y-108329887D02*
X117356200Y-108244173D01*
X117356200Y-108244173D02*
X117318104Y-108215601D01*
X117318104Y-108215601D02*
X117051438Y-108215601D01*
X117051438Y-108215601D02*
X117051438Y-108329887D01*
X117394295Y-107958458D02*
X116594295Y-107958458D01*
X116594295Y-107958458D02*
X116594295Y-107729887D01*
X116594295Y-107729887D02*
X116632390Y-107672744D01*
X116632390Y-107672744D02*
X116670485Y-107644173D01*
X116670485Y-107644173D02*
X116746676Y-107615601D01*
X116746676Y-107615601D02*
X116860961Y-107615601D01*
X116860961Y-107615601D02*
X116937152Y-107644173D01*
X116937152Y-107644173D02*
X116975247Y-107672744D01*
X116975247Y-107672744D02*
X117013342Y-107729887D01*
X117013342Y-107729887D02*
X117013342Y-107958458D01*
X116594295Y-107244173D02*
X116594295Y-107129887D01*
X116594295Y-107129887D02*
X116632390Y-107072744D01*
X116632390Y-107072744D02*
X116708580Y-107015601D01*
X116708580Y-107015601D02*
X116860961Y-106987030D01*
X116860961Y-106987030D02*
X117127628Y-106987030D01*
X117127628Y-106987030D02*
X117280009Y-107015601D01*
X117280009Y-107015601D02*
X117356200Y-107072744D01*
X117356200Y-107072744D02*
X117394295Y-107129887D01*
X117394295Y-107129887D02*
X117394295Y-107244173D01*
X117394295Y-107244173D02*
X117356200Y-107301316D01*
X117356200Y-107301316D02*
X117280009Y-107358458D01*
X117280009Y-107358458D02*
X117127628Y-107387030D01*
X117127628Y-107387030D02*
X116860961Y-107387030D01*
X116860961Y-107387030D02*
X116708580Y-107358458D01*
X116708580Y-107358458D02*
X116632390Y-107301316D01*
X116632390Y-107301316D02*
X116594295Y-107244173D01*
X116594295Y-106729887D02*
X117241914Y-106729887D01*
X117241914Y-106729887D02*
X117318104Y-106701316D01*
X117318104Y-106701316D02*
X117356200Y-106672745D01*
X117356200Y-106672745D02*
X117394295Y-106615602D01*
X117394295Y-106615602D02*
X117394295Y-106501316D01*
X117394295Y-106501316D02*
X117356200Y-106444173D01*
X117356200Y-106444173D02*
X117318104Y-106415602D01*
X117318104Y-106415602D02*
X117241914Y-106387030D01*
X117241914Y-106387030D02*
X116594295Y-106387030D01*
X116594295Y-106187031D02*
X116594295Y-105844174D01*
X117394295Y-106015602D02*
X116594295Y-106015602D01*
X116594295Y-105701316D02*
X116594295Y-105329888D01*
X116594295Y-105329888D02*
X116899057Y-105529888D01*
X116899057Y-105529888D02*
X116899057Y-105444173D01*
X116899057Y-105444173D02*
X116937152Y-105387031D01*
X116937152Y-105387031D02*
X116975247Y-105358459D01*
X116975247Y-105358459D02*
X117051438Y-105329888D01*
X117051438Y-105329888D02*
X117241914Y-105329888D01*
X117241914Y-105329888D02*
X117318104Y-105358459D01*
X117318104Y-105358459D02*
X117356200Y-105387031D01*
X117356200Y-105387031D02*
X117394295Y-105444173D01*
X117394295Y-105444173D02*
X117394295Y-105615602D01*
X117394295Y-105615602D02*
X117356200Y-105672745D01*
X117356200Y-105672745D02*
X117318104Y-105701316D01*
D10*
X111138748Y-92865000D02*
X111661252Y-92865000D01*
X111138748Y-94335000D02*
X111661252Y-94335000D01*
X102340000Y-95007836D02*
X102340000Y-94792164D01*
X103060000Y-95007836D02*
X103060000Y-94792164D01*
X101340000Y-95007836D02*
X101340000Y-94792164D01*
X102060000Y-95007836D02*
X102060000Y-94792164D01*
X93722836Y-100840000D02*
X93507164Y-100840000D01*
X93722836Y-101560000D02*
X93507164Y-101560000D01*
X94242836Y-86640000D02*
X94027164Y-86640000D01*
X94242836Y-87360000D02*
X94027164Y-87360000D01*
X89653641Y-87120000D02*
X89346359Y-87120000D01*
X89653641Y-87880000D02*
X89346359Y-87880000D01*
X107090000Y-86200000D02*
X107090000Y-89960000D01*
X107090000Y-89960000D02*
X108350000Y-89960000D01*
X113910000Y-83950000D02*
X113910000Y-89960000D01*
X113910000Y-89960000D02*
X112650000Y-89960000D01*
X88275000Y-88275000D02*
X88275000Y-88535000D01*
X88275000Y-88535000D02*
X86600000Y-88535000D01*
X88275000Y-93725000D02*
X88275000Y-93465000D01*
X91000000Y-88275000D02*
X88275000Y-88275000D01*
X91000000Y-88275000D02*
X93725000Y-88275000D01*
X91000000Y-93725000D02*
X88275000Y-93725000D01*
X91000000Y-93725000D02*
X93725000Y-93725000D01*
X93725000Y-88275000D02*
X93725000Y-88535000D01*
X93725000Y-93725000D02*
X93725000Y-93465000D01*
X87120000Y-86653641D02*
X87120000Y-86346359D01*
X87880000Y-86653641D02*
X87880000Y-86346359D01*
X100240000Y-92627836D02*
X100240000Y-92412164D01*
X100960000Y-92627836D02*
X100960000Y-92412164D01*
X106140000Y-101662164D02*
X106140000Y-101877836D01*
X106860000Y-101662164D02*
X106860000Y-101877836D01*
X100021000Y-106142164D02*
X100021000Y-106357836D01*
X100741000Y-106142164D02*
X100741000Y-106357836D01*
X101140000Y-106142164D02*
X101140000Y-106357836D01*
X101860000Y-106142164D02*
X101860000Y-106357836D01*
X109938748Y-81665000D02*
X110461252Y-81665000D01*
X109938748Y-83135000D02*
X110461252Y-83135000D01*
X94840000Y-96087836D02*
X94840000Y-95872164D01*
X95560000Y-96087836D02*
X95560000Y-95872164D01*
X104440000Y-89172836D02*
X104440000Y-88957164D01*
X105160000Y-89172836D02*
X105160000Y-88957164D01*
X96390000Y-103610000D02*
X96390000Y-102960000D01*
X97040000Y-96390000D02*
X96390000Y-96390000D01*
X97040000Y-103610000D02*
X96390000Y-103610000D01*
X102960000Y-96390000D02*
X103610000Y-96390000D01*
X102960000Y-103610000D02*
X103610000Y-103610000D01*
X103610000Y-96390000D02*
X103610000Y-97040000D01*
X103610000Y-103610000D02*
X103610000Y-102960000D01*
X99240000Y-92627836D02*
X99240000Y-92412164D01*
X99960000Y-92627836D02*
X99960000Y-92412164D01*
X105012164Y-96540000D02*
X105227836Y-96540000D01*
X105012164Y-97260000D02*
X105227836Y-97260000D01*
X98888748Y-87465000D02*
X99411252Y-87465000D01*
X98888748Y-88935000D02*
X99411252Y-88935000D01*
X117670000Y-105670000D02*
X117670000Y-108330000D01*
X117730000Y-105670000D02*
X117670000Y-105670000D01*
X117730000Y-105670000D02*
X117730000Y-108330000D01*
X117730000Y-108330000D02*
X117670000Y-108330000D01*
X119000000Y-105670000D02*
X120330000Y-105670000D01*
X120330000Y-105670000D02*
X120330000Y-107000000D01*
X95890000Y-117390000D02*
X96940000Y-117390000D01*
X95890000Y-118540000D02*
X95890000Y-117390000D01*
X102940000Y-120510000D02*
X97060000Y-120510000D01*
X103060000Y-117390000D02*
X103060000Y-116400000D01*
X104110000Y-117390000D02*
X103060000Y-117390000D01*
X104110000Y-118540000D02*
X104110000Y-117390000D01*
X86670000Y-117530000D02*
X86670000Y-117470000D01*
X89330000Y-117470000D02*
X86670000Y-117470000D01*
X89330000Y-117530000D02*
X86670000Y-117530000D01*
X89330000Y-117530000D02*
X89330000Y-117470000D01*
X89330000Y-118800000D02*
X89330000Y-120130000D01*
X89330000Y-120130000D02*
X88000000Y-120130000D01*
X107350000Y-108000000D02*
X107350000Y-107400000D01*
X108050000Y-106700000D02*
X109450000Y-106700000D01*
X109450000Y-108700000D02*
X108050000Y-108700000D01*
X110150000Y-107400000D02*
X110150000Y-108000000D01*
X107350000Y-107400000D02*
G75*
G02*
X108050000Y-106700000I700000J0D01*
G01*
X108050000Y-108700000D02*
G75*
G02*
X107350000Y-108000000I0J700000D01*
G01*
X109450000Y-106700000D02*
G75*
G02*
X110150000Y-107400000I1J-699999D01*
G01*
X110150000Y-108000000D02*
G75*
G02*
X109450000Y-108700000I-699999J-1D01*
G01*
X89450000Y-110700000D02*
X92750000Y-110700000D01*
X92750000Y-110700000D02*
X92750000Y-106700000D01*
X93620000Y-112046359D02*
X93620000Y-112353641D01*
X94380000Y-112046359D02*
X94380000Y-112353641D01*
X111265000Y-103752500D02*
X111265000Y-106037500D01*
X112735000Y-103752500D02*
X111265000Y-103752500D01*
X112735000Y-106037500D02*
X112735000Y-103752500D01*
X94620000Y-112046359D02*
X94620000Y-112353641D01*
X95380000Y-112046359D02*
X95380000Y-112353641D01*
X98790000Y-111540000D02*
X99900000Y-111540000D01*
X98790000Y-112300000D02*
X98790000Y-111540000D01*
X98790000Y-113060000D02*
X98790000Y-112995000D01*
X98790000Y-113060000D02*
X99336529Y-113060000D01*
X98790000Y-113060000D02*
X101010000Y-113060000D01*
X100463471Y-113060000D02*
X101010000Y-113060000D01*
X101010000Y-113060000D02*
X101010000Y-112995000D01*
X100784420Y-109590000D02*
X101065580Y-109590000D01*
X100784420Y-110610000D02*
X101065580Y-110610000D01*
X107390000Y-117390000D02*
X108440000Y-117390000D01*
X107390000Y-118540000D02*
X107390000Y-117390000D01*
X111440000Y-120510000D02*
X108560000Y-120510000D01*
X111560000Y-117390000D02*
X111560000Y-116400000D01*
X112610000Y-117390000D02*
X111560000Y-117390000D01*
X112610000Y-118540000D02*
X112610000Y-117390000D01*
X79490000Y-102940000D02*
X79490000Y-97060000D01*
X81460000Y-95890000D02*
X82610000Y-95890000D01*
X81460000Y-104110000D02*
X82610000Y-104110000D01*
X82610000Y-95890000D02*
X82610000Y-96940000D01*
X82610000Y-103060000D02*
X83600000Y-103060000D01*
X82610000Y-104110000D02*
X82610000Y-103060000D01*
X114905000Y-86670000D02*
X114905000Y-89330000D01*
X117505000Y-86670000D02*
X114905000Y-86670000D01*
X117505000Y-86670000D02*
X117505000Y-89330000D01*
X117505000Y-89330000D02*
X114905000Y-89330000D01*
X118775000Y-86670000D02*
X120105000Y-86670000D01*
X120105000Y-86670000D02*
X120105000Y-88000000D01*
X94259420Y-105990000D02*
X94540580Y-105990000D01*
X94259420Y-107010000D02*
X94540580Y-107010000D01*
X117390000Y-95890000D02*
X117390000Y-96940000D01*
X117390000Y-96940000D02*
X116400000Y-96940000D01*
X117390000Y-104110000D02*
X117390000Y-103060000D01*
X118540000Y-95890000D02*
X117390000Y-95890000D01*
X118540000Y-104110000D02*
X117390000Y-104110000D01*
X120510000Y-97060000D02*
X120510000Y-102940000D01*
X112345000Y-112530000D02*
X112345000Y-111200000D01*
X113675000Y-112530000D02*
X112345000Y-112530000D01*
X114945001Y-109870000D02*
X120084999Y-109870000D01*
X114945001Y-112530000D02*
X114945001Y-109870000D01*
X114945001Y-112530000D02*
X120084999Y-112530000D01*
X120084999Y-112530000D02*
X120084999Y-109870000D01*
X112043641Y-107157500D02*
X111736359Y-107157500D01*
X112043641Y-107917500D02*
X111736359Y-107917500D01*
X96100000Y-107590000D02*
X94600000Y-107590000D01*
X96100000Y-107590000D02*
X97600000Y-107590000D01*
X96100000Y-110810000D02*
X94600000Y-110810000D01*
X96100000Y-110810000D02*
X97600000Y-110810000D01*
X93887500Y-107765000D02*
X93647500Y-107435000D01*
X94127500Y-107435000D01*
X93887500Y-107765000D01*
G36*
X93887500Y-107765000D02*
G01*
X93647500Y-107435000D01*
X94127500Y-107435000D01*
X93887500Y-107765000D01*
G37*
X95890000Y-81460000D02*
X95890000Y-82610000D01*
X95890000Y-82610000D02*
X96940000Y-82610000D01*
X96940000Y-82610000D02*
X96940000Y-83600000D01*
X97060000Y-79490000D02*
X102940000Y-79490000D01*
X104110000Y-81460000D02*
X104110000Y-82610000D01*
X104110000Y-82610000D02*
X103060000Y-82610000D01*
%LPC*%
D12*
X110450000Y-93600000D03*
X112350000Y-93600000D03*
D13*
X102700000Y-95380000D03*
X102700000Y-94420000D03*
X101700000Y-95380000D03*
X101700000Y-94420000D03*
D14*
X94095000Y-101200000D03*
X93135000Y-101200000D03*
X94615000Y-87000000D03*
X93655000Y-87000000D03*
D15*
X90010000Y-87500000D03*
X88990000Y-87500000D03*
D16*
X112800000Y-84900000D03*
X110500000Y-84900000D03*
D17*
X110500000Y-91200000D03*
D16*
X108200000Y-84900000D03*
D18*
X87400000Y-89095000D03*
X87400000Y-90365000D03*
X87400000Y-91635000D03*
X87400000Y-92905000D03*
X94600000Y-92905000D03*
X94600000Y-91635000D03*
X94600000Y-90365000D03*
X94600000Y-89095000D03*
D19*
X87500000Y-87010000D03*
X87500000Y-85990000D03*
D13*
X100600000Y-93000000D03*
X100600000Y-92040000D03*
D20*
X106500000Y-101290000D03*
X106500000Y-102250000D03*
X100381000Y-105770000D03*
X100381000Y-106730000D03*
X101500000Y-105770000D03*
X101500000Y-106730000D03*
D12*
X109250000Y-82400000D03*
X111150000Y-82400000D03*
D13*
X95200000Y-96460000D03*
X95200000Y-95500000D03*
X104800000Y-89545000D03*
X104800000Y-88585000D03*
D21*
X96562500Y-97400000D03*
X96562500Y-97800000D03*
X96562500Y-98200000D03*
X96562500Y-98600000D03*
X96562500Y-99000000D03*
X96562500Y-99400000D03*
X96562500Y-99800000D03*
X96562500Y-100200000D03*
X96562500Y-100600000D03*
X96562500Y-101000000D03*
X96562500Y-101400000D03*
X96562500Y-101800000D03*
X96562500Y-102200000D03*
X96562500Y-102600000D03*
D22*
X97400000Y-103437500D03*
X97800000Y-103437500D03*
X98200000Y-103437500D03*
X98600000Y-103437500D03*
X99000000Y-103437500D03*
X99400000Y-103437500D03*
X99800000Y-103437500D03*
X100200000Y-103437500D03*
X100600000Y-103437500D03*
X101000000Y-103437500D03*
X101400000Y-103437500D03*
X101800000Y-103437500D03*
X102200000Y-103437500D03*
X102600000Y-103437500D03*
D21*
X103437500Y-102600000D03*
X103437500Y-102200000D03*
X103437500Y-101800000D03*
X103437500Y-101400000D03*
X103437500Y-101000000D03*
X103437500Y-100600000D03*
X103437500Y-100200000D03*
X103437500Y-99800000D03*
X103437500Y-99400000D03*
X103437500Y-99000000D03*
X103437500Y-98600000D03*
X103437500Y-98200000D03*
X103437500Y-97800000D03*
X103437500Y-97400000D03*
D22*
X102600000Y-96562500D03*
X102200000Y-96562500D03*
X101800000Y-96562500D03*
X101400000Y-96562500D03*
X101000000Y-96562500D03*
X100600000Y-96562500D03*
X100200000Y-96562500D03*
X99800000Y-96562500D03*
X99400000Y-96562500D03*
X99000000Y-96562500D03*
X98600000Y-96562500D03*
X98200000Y-96562500D03*
X97800000Y-96562500D03*
X97400000Y-96562500D03*
D23*
X100000000Y-100000000D03*
D24*
X83000000Y-83000000D03*
X117000000Y-117000000D03*
D13*
X99600000Y-93000000D03*
X99600000Y-92040000D03*
D25*
X104640000Y-96900000D03*
X105600000Y-96900000D03*
D24*
X117000000Y-83000000D03*
X83000000Y-117000000D03*
D12*
X98200000Y-88200000D03*
X100100000Y-88200000D03*
D26*
X119000000Y-107000000D03*
D27*
X102500000Y-117175000D03*
X101500000Y-117175000D03*
X100500000Y-117175000D03*
X99500000Y-117175000D03*
X98500000Y-117175000D03*
X97500000Y-117175000D03*
D28*
X103800000Y-119700000D03*
X96200000Y-119700000D03*
D29*
X88000000Y-118800000D03*
D30*
X109400000Y-107700000D03*
D31*
X108100000Y-107700000D03*
D32*
X91950000Y-109800000D03*
X91950000Y-107600000D03*
X90250000Y-107600000D03*
X90250000Y-109800000D03*
D33*
X94000000Y-111690000D03*
X94000000Y-112710000D03*
D34*
X112000000Y-104450000D03*
X112000000Y-106025000D03*
D33*
X95000000Y-111690000D03*
X95000000Y-112710000D03*
D35*
X99900000Y-112300000D03*
D36*
X100150000Y-110100000D03*
X101700000Y-110100000D03*
D27*
X111000000Y-117175000D03*
X110000000Y-117175000D03*
X109000000Y-117175000D03*
D28*
X112300000Y-119700000D03*
X107700000Y-119700000D03*
D37*
X82825000Y-102500000D03*
X82825000Y-101500000D03*
X82825000Y-100500000D03*
X82825000Y-99500000D03*
X82825000Y-98500000D03*
X82825000Y-97500000D03*
D38*
X80300000Y-103800000D03*
X80300000Y-96200000D03*
D39*
X118775000Y-88000000D03*
D40*
X116235000Y-88000000D03*
D36*
X93625000Y-106500000D03*
X95175000Y-106500000D03*
D41*
X117175000Y-97500000D03*
X117175000Y-98500000D03*
X117175000Y-99500000D03*
X117175000Y-100500000D03*
X117175000Y-101500000D03*
X117175000Y-102500000D03*
D42*
X119700000Y-96200000D03*
X119700000Y-103800000D03*
D29*
X113675000Y-111200000D03*
D39*
X116215000Y-111200000D03*
D40*
X118754999Y-111200000D03*
D43*
X81000000Y-92400000D03*
X81000000Y-86400000D03*
X84500000Y-92400000D03*
X84500000Y-86400000D03*
D15*
X112400000Y-107537500D03*
X111380000Y-107537500D03*
D44*
X93987500Y-108200000D03*
X93987500Y-108700000D03*
X93987500Y-109200000D03*
X93987500Y-109700000D03*
X93987500Y-110200000D03*
X98212500Y-110200000D03*
X98212500Y-109700000D03*
X98212500Y-109200000D03*
X98212500Y-108700000D03*
X98212500Y-108200000D03*
D45*
X97500000Y-82825000D03*
X98500000Y-82825000D03*
X99500000Y-82825000D03*
X100500000Y-82825000D03*
X101500000Y-82825000D03*
X102500000Y-82825000D03*
D46*
X96200000Y-80300000D03*
X103800000Y-80300000D03*
D47*
X85312994Y-109312994D03*
D48*
X87109045Y-111109045D03*
X88905096Y-112905096D03*
X90701148Y-114701148D03*
D49*
X112600000Y-82800000D03*
X99600000Y-91205008D03*
X98400000Y-106900000D03*
X86700000Y-98000000D03*
X81000000Y-113000000D03*
X106500000Y-103400000D03*
X101500000Y-88200000D03*
X101500000Y-107547004D03*
X94000000Y-95100000D03*
X91100000Y-101200000D03*
X103300000Y-93125000D03*
X104800000Y-87570000D03*
X102300000Y-92800000D03*
X92650000Y-86970000D03*
X90000000Y-92500000D03*
X100380994Y-107546990D03*
X105900000Y-96000000D03*
X114400000Y-119700000D03*
X113600000Y-93200000D03*
X111500000Y-112000000D03*
X100600000Y-91205000D03*
X91500000Y-87400000D03*
X91600000Y-103700000D03*
X89300000Y-95400000D03*
X99800000Y-95199994D03*
X100700000Y-97900000D03*
X100800000Y-104965000D03*
X100599970Y-102100000D03*
X96100000Y-111600000D03*
X96400000Y-107000000D03*
X96500000Y-112500000D03*
X97100000Y-106300000D03*
X97600000Y-105500000D03*
X96800000Y-104900000D03*
X84600000Y-102500000D03*
X84600000Y-101500000D03*
X84600000Y-100500000D03*
X84600000Y-99500000D03*
X84600000Y-98500000D03*
X84600000Y-97500000D03*
X97500000Y-84600000D03*
X90400000Y-97500000D03*
X90800000Y-96600000D03*
X98500000Y-84600000D03*
X91500000Y-97700000D03*
X99500000Y-84600000D03*
X100500000Y-84600000D03*
X91900000Y-96400000D03*
X101500000Y-84600000D03*
X92500000Y-97100000D03*
X102500000Y-84600000D03*
X93000000Y-96250000D03*
X115400000Y-97500000D03*
X115400000Y-98500000D03*
X115400000Y-99500000D03*
X115400000Y-100500000D03*
X110500000Y-99750000D03*
X115400000Y-101500000D03*
X115400000Y-102500000D03*
X102500000Y-115400000D03*
X101500000Y-115400000D03*
X105200000Y-102300000D03*
X107750000Y-106000000D03*
X100500000Y-115400000D03*
X99500000Y-115400000D03*
X98500000Y-115400000D03*
X97500000Y-115400000D03*
X103600000Y-106000000D03*
X110408732Y-110091268D03*
X103400000Y-107600000D03*
X111900000Y-114300000D03*
X107200000Y-110200000D03*
X101200000Y-108400000D03*
X111000000Y-108900000D03*
%LPD*%
M02*
