G04 #@! TF.GenerationSoftware,KiCad,Pcbnew,8.0.7*
G04 #@! TF.CreationDate,2025-03-19T21:21:16+01:00*
G04 #@! TF.ProjectId,RP2040_minimal_r2,52503230-3430-45f6-9d69-6e696d616c5f,REV2*
G04 #@! TF.SameCoordinates,Original*
G04 #@! TF.FileFunction,Legend,Bot*
G04 #@! TF.FilePolarity,Positive*
%FSLAX46Y46*%
G04 Gerber Fmt 4.6, Leading zero omitted, Abs format (unit mm)*
G04 Created by KiCad (PCBNEW 8.0.7) date 2025-03-19 21:21:16*
%MOMM*%
%LPD*%
G01*
G04 APERTURE LIST*
G04 Aperture macros list*
%AMHorizOval*
0 Thick line with rounded ends*
0 $1 width*
0 $2 $3 position (X,Y) of the first rounded end (center of the circle)*
0 $4 $5 position (X,Y) of the second rounded end (center of the circle)*
0 Add line between two ends*
20,1,$1,$2,$3,$4,$5,0*
0 Add two circle primitives to create the rounded ends*
1,1,$1,$2,$3*
1,1,$1,$4,$5*%
%AMRotRect*
0 Rectangle, with rotation*
0 The origin of the aperture is its center*
0 $1 length*
0 $2 width*
0 $3 Rotation angle, in degrees counterclockwise*
0 Add horizontal line*
21,1,$1,$2,0,0,$3*%
%AMFreePoly0*
4,1,19,0.500000,-0.750000,0.000000,-0.750000,0.000000,-0.744911,-0.071157,-0.744911,-0.207708,-0.704816,-0.327430,-0.627875,-0.420627,-0.520320,-0.479746,-0.390866,-0.500000,-0.250000,-0.500000,0.250000,-0.479746,0.390866,-0.420627,0.520320,-0.327430,0.627875,-0.207708,0.704816,-0.071157,0.744911,0.000000,0.744911,0.000000,0.750000,0.500000,0.750000,0.500000,-0.750000,0.500000,-0.750000,
$1*%
%AMFreePoly1*
4,1,19,0.000000,0.744911,0.071157,0.744911,0.207708,0.704816,0.327430,0.627875,0.420627,0.520320,0.479746,0.390866,0.500000,0.250000,0.500000,-0.250000,0.479746,-0.390866,0.420627,-0.520320,0.327430,-0.627875,0.207708,-0.704816,0.071157,-0.744911,0.000000,-0.744911,0.000000,-0.750000,-0.500000,-0.750000,-0.500000,0.750000,0.000000,0.750000,0.000000,0.744911,0.000000,0.744911,
$1*%
G04 Aperture macros list end*
%ADD10C,0.120000*%
%ADD11C,2.700000*%
%ADD12C,1.500000*%
%ADD13C,1.700000*%
%ADD14R,1.000000X1.000000*%
%ADD15R,1.700000X1.700000*%
%ADD16O,1.700000X1.700000*%
%ADD17RotRect,1.700000X1.700000X225.000000*%
%ADD18HorizOval,1.700000X0.000000X0.000000X0.000000X0.000000X0*%
%ADD19FreePoly0,180.000000*%
%ADD20FreePoly1,180.000000*%
%ADD21C,0.600000*%
G04 APERTURE END LIST*
D10*
X84372542Y-108372542D02*
X85312994Y-107432090D01*
X85270568Y-111151472D02*
X87151472Y-109270568D01*
X85312994Y-107432090D02*
X86253446Y-108372542D01*
X90701148Y-116582052D02*
X85270568Y-111151472D01*
X90701148Y-116582052D02*
X92582052Y-114701148D01*
X92582052Y-114701148D02*
X87151472Y-109270568D01*
X107350000Y-108000000D02*
X107350000Y-107400000D01*
X108050000Y-106700000D02*
X109450000Y-106700000D01*
X109450000Y-108700000D02*
X108050000Y-108700000D01*
X110150000Y-107400000D02*
X110150000Y-108000000D01*
X107350000Y-107400000D02*
G75*
G02*
X108050000Y-106700000I700000J0D01*
G01*
X108050000Y-108700000D02*
G75*
G02*
X107350000Y-108000000I0J700000D01*
G01*
X109450000Y-106700000D02*
G75*
G02*
X110150000Y-107400000I1J-699999D01*
G01*
X110150000Y-108000000D02*
G75*
G02*
X109450000Y-108700000I-699999J-1D01*
G01*
%LPC*%
D11*
X83000000Y-83000000D03*
X117000000Y-117000000D03*
X117000000Y-83000000D03*
X83000000Y-117000000D03*
D12*
X119000000Y-107000000D03*
D13*
X88000000Y-118800000D03*
D14*
X99900000Y-112300000D03*
D15*
X118775000Y-88000000D03*
D16*
X116235000Y-88000000D03*
D13*
X113675000Y-111200000D03*
D15*
X116215000Y-111200000D03*
D16*
X118754999Y-111200000D03*
D17*
X85312994Y-109312994D03*
D18*
X87109045Y-111109045D03*
X88905096Y-112905096D03*
X90701148Y-114701148D03*
D19*
X109400000Y-107700000D03*
D20*
X108100000Y-107700000D03*
D21*
X112600000Y-82800000D03*
X99600000Y-91205008D03*
X98400000Y-106900000D03*
X86700000Y-98000000D03*
X81000000Y-113000000D03*
X106500000Y-103400000D03*
X101500000Y-88200000D03*
X101500000Y-107547004D03*
X94000000Y-95100000D03*
X91100000Y-101200000D03*
X103300000Y-93125000D03*
X104800000Y-87570000D03*
X102300000Y-92800000D03*
X92650000Y-86970000D03*
X90000000Y-92500000D03*
X100380994Y-107546990D03*
X105900000Y-96000000D03*
X114400000Y-119700000D03*
X113600000Y-93200000D03*
X111500000Y-112000000D03*
X100600000Y-91205000D03*
X91500000Y-87400000D03*
X91600000Y-103700000D03*
X89300000Y-95400000D03*
X99800000Y-95199994D03*
X100700000Y-97900000D03*
X100800000Y-104965000D03*
X100599970Y-102100000D03*
X96100000Y-111600000D03*
X96400000Y-107000000D03*
X96500000Y-112500000D03*
X97100000Y-106300000D03*
X97600000Y-105500000D03*
X96800000Y-104900000D03*
X84600000Y-102500000D03*
X84600000Y-101500000D03*
X84600000Y-100500000D03*
X84600000Y-99500000D03*
X84600000Y-98500000D03*
X84600000Y-97500000D03*
X97500000Y-84600000D03*
X90400000Y-97500000D03*
X90800000Y-96600000D03*
X98500000Y-84600000D03*
X91500000Y-97700000D03*
X99500000Y-84600000D03*
X100500000Y-84600000D03*
X91900000Y-96400000D03*
X101500000Y-84600000D03*
X92500000Y-97100000D03*
X102500000Y-84600000D03*
X93000000Y-96250000D03*
X115400000Y-97500000D03*
X115400000Y-98500000D03*
X115400000Y-99500000D03*
X115400000Y-100500000D03*
X110500000Y-99750000D03*
X115400000Y-101500000D03*
X115400000Y-102500000D03*
X102500000Y-115400000D03*
X101500000Y-115400000D03*
X105200000Y-102300000D03*
X107750000Y-106000000D03*
X100500000Y-115400000D03*
X99500000Y-115400000D03*
X98500000Y-115400000D03*
X97500000Y-115400000D03*
X103600000Y-106000000D03*
X110408732Y-110091268D03*
X103400000Y-107600000D03*
X111900000Y-114300000D03*
X107200000Y-110200000D03*
X101200000Y-108400000D03*
X111000000Y-108900000D03*
%LPD*%
M02*
