M48
; DRILL file {KiCad 8.0.7} date 2025-03-19T21:21:18+0100
; FORMAT={-:-/ absolute / metric / decimal}
; #@! TF.CreationDate,2025-03-19T21:21:18+01:00
; #@! TF.GenerationSoftware,Kicad,Pcbnew,8.0.7
; #@! TF.FileFunction,Plated,1,2,PTH
FMAT,2
METRIC
; #@! TA.AperFunction,Plated,PTH,ViaDrill
T1C0.350
; #@! TA.AperFunction,Plated,PTH,ComponentDrill
T2C0.350
; #@! TA.AperFunction,Plated,PTH,ComponentDrill
T3C0.650
; #@! TA.AperFunction,Plated,PTH,ComponentDrill
T4C1.000
%
G90
G05
T1
X81.0Y-113.0
X84.6Y-97.5
X84.6Y-98.5
X84.6Y-99.5
X84.6Y-100.5
X84.6Y-101.5
X84.6Y-102.5
X86.7Y-98.0
X89.3Y-95.4
X90.0Y-92.5
X90.4Y-97.5
X90.8Y-96.6
X91.1Y-101.2
X91.5Y-87.4
X91.5Y-97.7
X91.6Y-103.7
X91.9Y-96.4
X92.5Y-97.1
X92.65Y-86.97
X93.0Y-96.25
X94.0Y-95.1
X96.1Y-111.6
X96.4Y-107.0
X96.5Y-112.5
X96.8Y-104.9
X97.1Y-106.3
X97.5Y-84.6
X97.5Y-115.4
X97.6Y-105.5
X98.4Y-106.9
X98.5Y-84.6
X98.5Y-115.4
X99.5Y-84.6
X99.5Y-115.4
X99.6Y-91.205
X99.8Y-95.2
X100.381Y-107.547
X100.5Y-84.6
X100.5Y-115.4
X100.6Y-102.1
X100.6Y-91.205
X100.7Y-97.9
X100.8Y-104.965
X101.2Y-108.4
X101.5Y-84.6
X101.5Y-88.2
X101.5Y-107.547
X101.5Y-115.4
X102.3Y-92.8
X102.5Y-84.6
X102.5Y-115.4
X103.3Y-93.125
X103.4Y-107.6
X103.6Y-106.0
X104.8Y-87.57
X105.2Y-102.3
X105.9Y-96.0
X106.5Y-103.4
X107.2Y-110.2
X107.75Y-106.0
X110.409Y-110.091
X110.5Y-99.75
X111.0Y-108.9
X111.5Y-112.0
X111.9Y-114.3
X112.6Y-82.8
X113.6Y-93.2
X114.4Y-119.7
X115.4Y-97.5
X115.4Y-98.5
X115.4Y-99.5
X115.4Y-100.5
X115.4Y-101.5
X115.4Y-102.5
T2
X98.725Y-98.725
X98.725Y-100.0
X98.725Y-101.275
X100.0Y-98.725
X100.0Y-100.0
X100.0Y-101.275
X101.275Y-98.725
X101.275Y-100.0
X101.275Y-101.275
T3
X99.9Y-112.3
T4
X85.313Y-109.313
X87.109Y-111.109
X88.0Y-118.8
X88.905Y-112.905
X90.701Y-114.701
X113.675Y-111.2
X116.215Y-111.2
X116.235Y-88.0
X118.755Y-111.2
X118.775Y-88.0
X119.0Y-107.0
M30
